<?xml version="1.0" standalone="no"?>
<!DOCTYPE svg PUBLIC "-//W3C//DTD SVG 1.1//EN" "http://www.w3.org/Graphics/SVG/1.1/DTD/svg11.dtd" >
<svg xmlns="http://www.w3.org/2000/svg" xmlns:xlink="http://www.w3.org/1999/xlink" version="1.1">
<metadata>
Created by FontForge 20201107 at Fri Sep  6 19:03:40 2024
 By 
Copyright (c) Font Awesome
</metadata>
<defs>
<font id="FontAwesome6Pro-Solid" horiz-adv-x="2048" >
  <font-face 
    font-family="Font Awesome 6 Pro Solid"
    font-weight="900"
    font-stretch="normal"
    units-per-em="2048"
    panose-1="2 0 9 3 0 0 0 0 0 0"
    ascent="1792"
    descent="-256"
    x-height="1654"
    bbox="-7 -257.524 2561.47 1797.34"
    underline-thickness="0"
    underline-position="0"
    unicode-range="U+0020-1FAE5"
  />
<missing-glyph horiz-adv-x="1536" 
d="M1344 1792q80 0 136 -56t56 -136v-1664q0 -80 -56 -136t-136 -56h-1152q-80 0 -136 56t-56 136v1664q0 80 56 136t136 56h1152zM1126 1536h-716l358 -537zM256 1305v-1074l358 537zM410 0h716l-358 537zM1280 231v1074l-358 -537z" />
    <glyph glyph-name="exclamation" unicode="exclamation" horiz-adv-x="512" 
d="M256 384q-53 0 -90.5 38.5t-37.5 93.5v1020q0 53 37.5 90.5t90.5 37.5t90.5 -37.5t37.5 -90.5v-1028q0 -51 -37.5 -87.5t-90.5 -36.5zM256 192q65 0 112.5 -48t47.5 -112t-47 -110t-113 -46t-113 45t-47 111t47 113t113 47z" />
    <glyph glyph-name="ditto" unicode="ditto" horiz-adv-x="1280" 
d="M60 1572q47 60 121.5 81.5t149 0t121.5 -81.5q78 -97 56 -219l-101 -581q-10 -57 -53 -94.5t-98 -37.5t-98 37.5t-53 94.5l-101 580q-22 123 56 220zM1220 1572q78 -98 52 -219l-101 -581q-10 -56 -53.5 -94t-97.5 -38q-53 0 -95 37.5t-52 94.5l-101 581q-22 122 56 219
q47 60 121.5 81.5t149 0t121.5 -81.5z" />
    <glyph glyph-name="hashtag" unicode="hashtag" horiz-adv-x="1792" 
d="M1664 1284q53 0 90.5 -40.5t37.5 -98.5q0 -51 -37.5 -88t-90.5 -37h-276l-85 -512h233q53 0 90.5 -37.5t37.5 -90.5q0 -51 -37.5 -87.5t-90.5 -36.5h-276l-46 -277q-7 -47 -43.5 -77t-82.5 -30q-7 0 -21 2q-53 9 -83.5 52t-21.5 95l39 235h-381l-46 -277
q-7 -47 -43.5 -77t-82.5 -30q-14 0 -21 9q-53 9 -83.5 52t-21.5 95l39 235h-233q-54 0 -91 36t-37 89t37.5 90.5t90.5 37.5h276l85 512h-233q-54 0 -91 36.5t-37 91.5q0 53 37.5 90.5t90.5 37.5h276l46 277q9 53 52 83.5t95 21.5q53 -9 83.5 -52t21.5 -95l-39 -235h381
l46 277q9 53 52 83.5t95 21.5q53 -9 83.5 -52t21.5 -95l-39 -235h233zM1044 516l85 512h-381l-85 -512h381z" />
    <glyph glyph-name="dollar-sign" unicode="dollar&#x2d;sign" horiz-adv-x="1280" 
d="M640 1792q-53 0 -90.5 -37.5t-37.5 -90.5v-139q-92 -11 -168 -40q-106 -40 -179 -117t-93 -188q-23 -132 25 -236q43 -92 142 -159q48 -32 117 -60t115 -42t124 -35l11 -4q79 -22 122 -34.5t92 -32t80 -39.5q37 -25 51 -54q14 -31 5 -82q-15 -78 -107 -116
q-117 -48 -304 -20q-63 9 -152.5 34t-152.5 52q-46 22 -94.5 2.5t-70.5 -67.5q-22 -49 -3 -98t68 -71q77 -34 182.5 -64t183.5 -42h1h5v-140q0 -53 37.5 -90.5t90.5 -37.5t90.5 37.5t37.5 90.5v134q96 11 178 44q102 42 172 120.5t90 189.5q23 128 -25 232q-43 92 -142 159
q-48 32 -117 60t-115 42t-124 35l-11 4q-117 32 -183 54.5t-110 51.5q-38 26 -52 54q-14 31 -5 82q14 75 111 112q124 47 314 19q154 -20 195 -35q52 -13 97.5 14.5t58.5 78.5q13 50 -15 96.5t-77 59.5q-79 20 -221 40q-3 1 -9.5 1t-9.5 1v143q0 53 -37.5 90.5t-90.5 37.5z
" />
    <glyph glyph-name="percent" unicode="percentage" horiz-adv-x="1536" 
d="M1498 1498q38 -38 38 -90t-38 -90l-1280 -1280q-38 -38 -90 -38q-54 0 -91 37t-37 90t37 91l1280 1280q37 38 90 38t91 -38zM256 1024q-106 0 -181 75t-75 181t75 181t181 75t181 -75t75 -181t-75 -181t-181 -75zM1280 512q106 0 181 -75t75 -181t-75 -181t-181 -75
t-181 75t-75 181t75 181t181 75z" />
    <glyph glyph-name="ampersand" unicode="ampersand" horiz-adv-x="1536" 
d="M1272 333l230 -246q36 -39 34 -92t-41 -89q-37 -34 -87 -34q-56 0 -94 41l-188 202l-28 -44q-62 -93 -161.5 -146t-212.5 -53h-280q-120 0 -222.5 59.5t-162 162t-59.5 222.5q0 101 43 191.5t122 154.5l262 203l-121 129q-114 125 -114 293q0 156 110 266.5t266 110.5
h207q156 0 266.5 -110.5t110.5 -266.5q0 -86 -36.5 -162.5t-103.5 -130.5l-207 -160l288 -308l208 313q29 44 81.5 54t96.5 -19t54 -81t-19 -96zM568 1408q-50 0 -85 -35.5t-35 -85.5q0 -68 47 -120l135 -145l223 173q43 35 43 92q0 50 -35.5 85.5t-85.5 35.5h-207zM884 214
l63 93l-345 370l-278 -216q-68 -55 -68 -145q0 -78 55 -133t133 -55h281q48 0 90 22.5t69 63.5z" />
    <glyph glyph-name="apostrophe" unicode="apostrophe" horiz-adv-x="768" 
d="M768 1280q0 159 -112.5 271.5t-271.5 112.5t-271.5 -112.5t-112.5 -271.5t112.5 -271.5t271.5 -112.5q59 0 128 24v-24q0 -106 -75 -181t-181 -75q-53 0 -90.5 -37.5t-37.5 -90.5t37.5 -90.5t90.5 -37.5q104 0 198.5 40.5t163.5 109.5t109.5 163.5t40.5 198.5v384z" />
    <glyph glyph-name="bracket-round" unicode="bracket&#x2d;round" horiz-adv-x="768" 
d="M512 -128q32 0 59.5 15t42.5 42q29 43 19 95t-53 82q-10 7 -23 17t-47.5 42.5t-65 68.5t-67 94t-63 120.5t-44.5 146.5t-18 173q0 88 18 172t45 147t63.5 120.5t68 94.5t65 68.5t48.5 43t23 16.5q44 29 54 81t-19 96t-81 54t-96 -19q-12 -8 -30.5 -22t-64 -56t-87 -90
t-91 -124.5t-85 -159t-59.5 -194t-24 -228.5t23.5 -228t60.5 -195t84 -159t91.5 -125.5t86 -89.5t65 -56.5t30.5 -20.5q35 -22 71 -22z" />
    <glyph glyph-name="bracket-round-right" unicode="bracket&#x2d;round&#x2d;right" horiz-adv-x="768" 
d="M150 -71q39 -57 106 -57q39 0 71 22q12 8 30.5 22t64 56t87 90t91 124.5t85 159t59.5 194t24 228.5t-24 228.5t-59.5 194t-85 159t-91 124.5t-87 90t-64 56t-30.5 22q-44 29 -96 19t-81 -54t-19 -96t53 -81q11 -8 23 -17t47.5 -42.5t65 -69t67 -94t63.5 -120.5t44 -146.5
t18 -172.5q0 -89 -18 -173t-44.5 -146.5t-63 -120.5t-67 -94t-65 -68.5t-47.5 -42.5t-23 -17q-43 -30 -53 -82t19 -95z" />
    <glyph glyph-name="asterisk" unicode="asterisk" horiz-adv-x="1792" 
d="M1668 320q29 46 16 97.5t-59 77.5l-473 273l470 273q46 26 59 77.5t-13 97.5q-17 34 -51 51t-72 12q-27 -3 -48 -16l-473 -273v546q0 53 -37.5 90.5t-90.5 37.5t-90.5 -37.5t-37.5 -90.5v-546l-473 273q-21 13 -48 16q-38 5 -73.5 -12t-57.5 -51q-24 -46 -9.5 -97.5
t60.5 -77.5l469 -273l-469 -273q-46 -26 -59.5 -77.5t12.5 -97.5q18 -30 47.5 -47t63.5 -17q36 0 64 17l473 273v-546q0 -52 40.5 -90t91.5 -38t87.5 37.5t36.5 90.5v546l470 -273q28 -17 63 -17q34 0 63.5 17t47.5 47z" />
    <glyph glyph-name="plus" unicode="add" horiz-adv-x="1792" 
d="M1728 768q0 53 -37.5 90.5t-90.5 37.5h-576v576q0 53 -37.5 90.5t-90.5 37.5t-90.5 -37.5t-37.5 -90.5v-576h-576q-53 0 -90.5 -37.5t-37.5 -90.5t37.5 -90.5t90.5 -37.5h576v-576q0 -53 37.5 -90.5t90.5 -37.5t90.5 37.5t37.5 90.5v576h576q53 0 90.5 37.5t37.5 90.5z
" />
    <glyph glyph-name="comma" unicode="comma" horiz-adv-x="768" 
d="M607 278q56 97 18 208q-18 50 -58 87t-89 54.5t-103.5 14.5t-100.5 -29q-99 -57 -118 -169l-90 -526q-9 -52 18 -98t76 -64t99 0t77 64z" />
    <glyph glyph-name="hyphen" unicode="hyphen" horiz-adv-x="1280" 
d="M1152 640q53 0 90.5 37.5t37.5 90.5t-37.5 90.5t-90.5 37.5h-1024q-53 0 -90.5 -37.5t-37.5 -90.5t37.5 -90.5t90.5 -37.5h1024z" />
    <glyph glyph-name="period" unicode="period" horiz-adv-x="512" 
d="M256 384q106 0 181 -75t75 -181t-75 -181t-181 -75t-181 75t-75 181t75 181t181 75z" />
    <glyph glyph-name="slash-forward" unicode="slash&#x2d;forward" horiz-adv-x="1280" 
d="M128 -256q33 0 63 17.5t48 47.5l1024 1792q26 46 12.5 97t-59.5 77q-47 26 -98 12.5t-77 -59.5l-1024 -1792q-26 -46 -12 -97.5t60 -77.5q31 -17 63 -17z" />
    <glyph glyph-name="colon" unicode="colon" horiz-adv-x="512" 
d="M256 1024q-106 0 -181 75t-75 181t75 181t181 75t181 -75t75 -181t-75 -181t-181 -75zM256 512q106 0 181 -75t75 -181t-75 -181t-181 -75t-181 75t-75 181t75 181t181 75z" />
    <glyph glyph-name="semicolon" unicode="semicolon" horiz-adv-x="768" 
d="M274 610q94 54 204 14t147 -141q39 -107 -18 -205l-271 -462q-27 -46 -77 -63.5t-99 0.5q-50 18 -76.5 63.5t-17.5 97.5l90 527q19 112 118 169zM384 1024q-106 0 -180.5 75.5t-71.5 180.5q0 106 73.5 181t178.5 75q106 0 181 -75t75 -181t-75 -181t-181 -75z" />
    <glyph glyph-name="less-than" unicode="less&#x2d;than" horiz-adv-x="1536" 
d="M1404 0q38 0 70 19t48 52q24 47 7 97t-64 74l-1051 526l1051 525q47 24 64.5 74.5t-6.5 97.5t-74 64t-98 -7l-1280 -640q-33 -17 -52 -47.5t-19 -66.5t18.5 -66.5t48.5 -47.5l1280 -640q28 -14 57 -14z" />
    <glyph glyph-name="equals" unicode="equals" horiz-adv-x="1792" 
d="M192 1024q-53 0 -90.5 38.5t-37.5 89.5t37.5 87.5t90.5 36.5h1408q54 0 91 -35.5t37 -88.5t-37.5 -90.5t-90.5 -37.5h-1408zM1600 512q54 0 91 -35.5t37 -88.5t-37.5 -90.5t-90.5 -37.5h-1408q-53 0 -90.5 38.5t-37.5 89.5t37.5 87.5t90.5 36.5h1408z" />
    <glyph glyph-name="greater-than" unicode="greater&#x2d;than" horiz-adv-x="1536" 
d="M128 0q31 0 57 13l1280 640q32 17 51.5 48t19.5 67t-19 67t-52 47l-1280 640q-48 24 -98 7t-74 -64t-7 -97t65 -74l1051 -526l-1051 -525q-47 -24 -64.5 -74.5t6.5 -97.5q16 -33 47.5 -52t67.5 -19z" />
    <glyph glyph-name="question" unicode="question" horiz-adv-x="1280" 
d="M817 1664q191 0 327 -136t136 -327q0 -132 -69 -243.5t-187 -170.5l-320 -188v-87q0 -53 -37.5 -90.5t-90.5 -37.5t-90.5 37.5t-37.5 90.5v160q0 76 63 110l391 229q58 29 90 79.5t32 110.5q0 85 -61 146t-146 61h-433q-53 0 -90.5 -37.5t-37.5 -90.5q0 -51 -37.5 -87.5
t-90.5 -36.5q-54 0 -91 35.5t-37 88.5q0 159 112.5 271.5t271.5 112.5h433zM576 192q65 0 112.5 -48t47.5 -112t-47 -110t-113 -46t-113 45t-47 111t47 113t113 47z" />
    <glyph glyph-name="at" unicode="at" 
d="M831 1709q132 23 257 17t239.5 -46.5t213.5 -102.5t180 -150.5t138.5 -190.5t89 -222.5t31.5 -246.5v-84q3 -143 -82 -261t-222 -150q-129 -33 -246 10t-192 140q-126 -100 -278 -100q-99 0 -187.5 41.5t-149 110.5t-90.5 164t-16 196q16 122 96.5 220t197.5 139
q178 63 345 -20q6 21 22.5 33.5t37.5 12.5h128q26 0 45 -19t19 -45v-480q0 -66 47 -113t113 -47t113 47t47 113v64q0 183 -81.5 344.5t-227.5 266.5t-325 122q-154 15 -297 -35t-247.5 -145.5t-167 -232t-62.5 -288.5q0 -173 78.5 -324t215 -249t303.5 -124
q46 -7 76.5 -42.5t30.5 -82.5v-3q0 -58 -43.5 -96.5t-100.5 -29.5q-155 23 -294 94t-244 178t-177 245.5t-92 295.5t10 328q55 281 261 487t487 261zM956 575q82 0 137 56t55 136q0 79 -56 135.5t-136 56.5t-136 -56.5t-56 -135.5t56 -135.5t136 -56.5z" />
    <glyph glyph-name="bracket-square" unicode="bracket&#x2d;square" horiz-adv-x="768" 
d="M512 1664q53 0 90.5 -37.5t37.5 -90.5t-37.5 -90.5t-90.5 -37.5h-256v-1280h256q53 0 90.5 -37.5t37.5 -90.5t-37.5 -90.5t-90.5 -37.5h-384q-52 0 -90 38t-38 90v1536q0 52 38 90t90 38h384z" />
    <glyph glyph-name="slash-back" unicode="slash&#x2d;back" horiz-adv-x="1280" 
d="M1152 -256q32 0 63 17q46 26 60 77.5t-12 97.5l-1024 1792q-26 46 -77.5 59.5t-97.5 -12.5t-59.5 -77.5t12.5 -97.5l1024 -1792q18 -30 47.5 -47t63.5 -17z" />
    <glyph glyph-name="bracket-square-right" unicode="bracket&#x2d;square&#x2d;right" horiz-adv-x="768" 
d="M128 1540q0 50 37 87t87 37h388q52 0 90 -38t38 -90v-1536q0 -52 -38 -90t-90 -38h-388q-50 0 -87 40.5t-37 91.5q0 50 37 87t87 37h260v1280h-260q-51 0 -87.5 38.5t-36.5 93.5z" />
    <glyph glyph-name="accent-grave" unicode="accent&#x2d;grave" horiz-adv-x="768" 
d="M143 1634q-39 -106 18 -204l271 -462q27 -46 77 -63.5t99 0.5q50 18 76.5 63.5t17.5 97.5l-90 527q-19 112 -118 169q-66 33 -135.5 29t-130.5 -47.5t-85 -109.5z" />
    <glyph glyph-name="bracket-curly" unicode="bracket&#x2d;curly&#x2d;left" horiz-adv-x="1024" 
d="M768 1664q53 0 90.5 -37.5t37.5 -90.5t-37.5 -90.5t-90.5 -37.5h-128q-52 0 -90 -38t-38 -90v-150q0 -160 -112 -272l-91 -90l91 -91q112 -112 112 -271v-150q0 -52 38 -90t90 -38h128q53 0 90.5 -37.5t37.5 -90.5t-37.5 -90.5t-90.5 -37.5h-128q-159 0 -271.5 112.5
t-112.5 271.5v150q0 53 -37 90l-181 181q-38 37 -38 90t38 91l181 182q37 37 37 90v150q0 160 111.5 272t272.5 112h128z" />
    <glyph glyph-name="pipe" unicode="pipe" horiz-adv-x="256" 
d="M128 -256q53 0 90.5 37.5t37.5 90.5v1792q0 53 -37.5 90.5t-90.5 37.5t-90.5 -37.5t-37.5 -90.5v-1792q0 -53 37.5 -90.5t90.5 -37.5z" />
    <glyph glyph-name="bracket-curly-right" unicode="bracket&#x2d;curly&#x2d;right" horiz-adv-x="1024" 
d="M128 1540q0 50 37 87t87 37h132q159 0 271.5 -112.5t112.5 -271.5v-150q0 -53 37 -90l182 -181q37 -37 37 -90t-37 -91l-182 -182q-37 -37 -37 -90v-150q0 -159 -112.5 -271.5t-271.5 -112.5h-132q-50 0 -87 40.5t-37 91.5q0 50 37 87t87 37h132q52 0 90 38t38 90v150
q0 158 113 271l90 91l-91 90q-112 112 -112 272v150q0 52 -38 90t-90 38h-132q-51 0 -87.5 38.5t-36.5 93.5z" />
    <glyph glyph-name="tilde" unicode="tilde" horiz-adv-x="1792" 
d="M1392 256q165 0 282.5 117.5t117.5 282.5v368q0 53 -37.5 90.5t-90.5 37.5t-90.5 -37.5t-37.5 -90.5v-368q0 -59 -42 -101.5t-101 -42.5q-60 0 -102 42l-609 609q-56 56 -129.5 86.5t-152.5 30.5q-165 0 -282.5 -117.5t-117.5 -282.5v-368q0 -53 37.5 -90.5t90.5 -37.5
t90.5 37.5t37.5 90.5v368q0 59 42 101.5t101 42.5q60 0 102 -42l609 -609q56 -56 129.5 -86.5t152.5 -30.5z" />
    <glyph glyph-name="sterling-sign" unicode="gbp" horiz-adv-x="1280" 
d="M448 900v250q0 106 76 182t182 76q43 0 81 -13l325 -109q50 -16 97.5 8t64.5 74q16 50 -8 97t-74 64l-328 109q-75 26 -158 26q-140 0 -258 -69t-187 -187t-69 -258v-254h-64q-53 0 -90.5 -37.5t-37.5 -90.5t37.5 -90.5t90.5 -37.5h64v-178q0 -106 -55 -198l-119 -198
q-38 -64 -1 -129q17 -30 47 -47.5t64 -17.5h1024q53 0 90.5 37.5t37.5 90.5t-37.5 90.5t-90.5 37.5h-798l3 4q91 156 91 330v182h448q54 0 91 36.5t37 91.5q0 51 -37.5 89.5t-90.5 38.5h-448z" />
    <glyph glyph-name="yen-sign" unicode="cny" horiz-adv-x="1280" 
d="M636 999l-402 608q-29 44 -81 54.5t-96 -18.5t-54.5 -81.5t18.5 -96.5l380 -565h-213q-50 0 -89 -39t-39 -89q0 -54 38.5 -91t89.5 -37h320v-128h-320q-51 0 -89.5 -39.5t-38.5 -92.5t38.5 -90.5t89.5 -37.5h320v-256q0 -53 38.5 -90.5t89.5 -37.5q55 0 93.5 37.5
t38.5 90.5v256h320q53 0 90.5 37.5t37.5 90.5q0 54 -37.5 93t-90.5 39h-320v128h320q54 0 91 36.5t37 91.5q0 51 -37.5 89.5t-90.5 38.5h-209l379 565q29 44 19 96.5t-54 81.5t-96 18.5t-81 -54.5z" />
    <glyph glyph-name="copyright" unicode="copyright" 
d="M1024 1792q209 0 398.5 -81t326.5 -218t218 -326.5t81 -398.5t-81 -398.5t-218 -326.5t-326.5 -218t-398.5 -81t-398.5 81t-326.5 218t-218 326.5t-81 398.5t81 398.5t218 326.5t326.5 218t398.5 81zM797 542q-93 94 -93 226.5t93 226.5q93 93 223 93q131 0 224 -93
q29 -28 68 -28.5t68 27.5q28 28 28 67.5t-28 68.5q-72 73 -165 111.5t-195 38.5q-211 0 -359 -150q-97 -98 -132 -230t0 -264t132 -230q148 -150 359 -150q102 0 195 38.5t165 111.5q28 29 28 68.5t-28 67.5q-29 28 -68 28t-68 -28q-94 -94 -224 -94q-129 0 -223 94z" />
    <glyph glyph-name="angles-left" unicode="angle&#x2d;double&#x2d;left" horiz-adv-x="1792" 
d="M309 768l549 -549q38 -37 38 -90t-38 -91t-90 -38t-90 38l-640 640q-38 38 -38 91t38 90l640 640q38 37 91 37t90 -37t37 -90t-37 -91zM1077 768l549 -549q38 -37 38 -90t-38 -91t-90 -38t-90 38l-640 640q-38 38 -38 91t38 90l640 640q38 37 91 37t90 -37t37 -90
t-37 -91z" />
    <glyph glyph-name="registered" unicode="registered" 
d="M1024 1792q209 0 398.5 -81t326.5 -218t218 -326.5t81 -398.5t-81 -398.5t-218 -326.5t-326.5 -218t-398.5 -81t-398.5 81t-326.5 218t-218 326.5t-81 398.5t81 398.5t218 326.5t326.5 218t398.5 81zM1399 393l-139 298q68 44 108 115t40 154q0 132 -93.5 226t-226.5 94
h-352q-40 0 -68 -28t-28 -68v-832q0 -40 28 -68t68 -28t68 28t28 68v288h239l154 -329q12 -26 35.5 -40.5t51.5 -14.5q22 0 41 9q36 17 49.5 54.5t-3.5 73.5zM1088 1088q53 0 90.5 -37.5t37.5 -90.5t-37.5 -90.5t-90.5 -37.5h-256v256h256z" />
    <glyph glyph-name="paragraph" unicode="paragraph" horiz-adv-x="1792" 
d="M1792 1540q0 51 -38.5 87.5t-93.5 36.5h-896q-137 0 -260.5 -56.5t-209.5 -151t-131.5 -225t-31.5 -270.5q16 -163 111 -296t241.5 -207t312.5 -74h100v-384q0 -52 40.5 -90t91.5 -38t87.5 37.5t36.5 90.5v1408h128v-1408q0 -52 40.5 -90t91.5 -38t87.5 37.5t36.5 90.5
v1408h128q53 0 90.5 38.5t37.5 93.5z" />
    <glyph glyph-name="angles-right" unicode="angle&#x2d;double&#x2d;right" horiz-adv-x="1792" 
d="M986 858q38 -38 38 -90t-38 -90l-640 -640q-38 -38 -90 -38q-53 0 -90 37q-38 37 -38 90t38 91l549 550l-550 549q-37 37 -37 90t37 91t90 38t91 -38zM1754 858q38 -38 38 -90t-38 -90l-640 -640q-38 -38 -90 -38q-53 0 -90 37q-38 37 -38 90t38 91l549 550l-550 549
q-37 37 -37 90t37 91t90 38t91 -38z" />
    <glyph glyph-name="xmark" unicode="close" horiz-adv-x="1280" 
d="M1242 346l-421 422l422 421q37 37 37 90t-37 91t-90 38t-91 -38l-422 -421l-422 422q-38 37 -91 37t-90 -37t-37 -90t37 -91l422 -422l-422 -421q-37 -37 -37 -90t37 -91q38 -38 91 -38t91 38l421 421l422 -421q38 -38 90 -38q53 0 90 37q38 37 38 90t-38 91z" />
    <glyph glyph-name="empty-set" unicode="empty&#x2d;set" 
d="M2010 1754q38 -38 38 -91t-38 -90l-269 -269q179 -238 179 -536q0 -182 -71 -348t-191 -286t-286 -191t-348 -71q-296 0 -536 179l-270 -269q-38 -38 -90 -38t-90 38t-38 91t38 90l269 269q-179 238 -179 536q0 182 71 348t191 286t286 191t348 71q296 0 536 -179
l269 269q37 38 90 38t91 -38zM384 768q0 -191 107 -352l885 885q-161 107 -352 107q-130 0 -248.5 -51t-204 -136.5t-136.5 -204t-51 -248.5zM1664 768q0 191 -107 352l-885 -885q161 -107 352 -107q130 0 248.5 51t204 136.5t136.5 204t51 248.5z" />
    <glyph glyph-name="divide" unicode="divide" horiz-adv-x="1792" 
d="M1600 896q54 0 91 -35.5t37 -88.5t-37.5 -90.5t-90.5 -37.5h-1408q-53 0 -90.5 38.5t-37.5 89.5t37.5 87.5t90.5 36.5h1408zM896 1216q-80 0 -136 56t-56 136t56 136t136 56t136 -56t56 -136t-56 -136t-136 -56zM896 320q80 0 136 -56t56 -136t-56 -136t-136 -56t-136 56
t-56 136t56 136t136 56z" />
    <glyph glyph-name="minus" unicode="minus" horiz-adv-x="1792" 
d="M1600 640q53 0 90.5 37.5t37.5 90.5t-37.5 90.5t-90.5 37.5h-1408q-53 0 -90.5 -37.5t-37.5 -90.5t37.5 -90.5t90.5 -37.5h1408z" />
    <glyph glyph-name="horizontal-rule" unicode="horizontal&#x2d;rule" horiz-adv-x="2560" 
d="M2432 640q52 0 90 40.5t38 91.5t-37.5 87.5t-90.5 36.5h-2304q-53 0 -90.5 -37.5t-37.5 -90.5t37.5 -90.5t90.5 -37.5h2304z" />
    <glyph glyph-name="quote-left" unicode="quote&#x2d;left&#x2d;alt" horiz-adv-x="1792" 
d="M384 896q159 0 271.5 -112.5t112.5 -271.5t-112.5 -271.5t-271.5 -112.5t-271.5 112.5t-112.5 271.5v384q0 104 40.5 198.5t109.5 163.5t163.5 109.5t198.5 40.5q53 0 90.5 -37.5t37.5 -90.5t-37.5 -90.5t-90.5 -37.5q-106 0 -181 -75t-75 -181v-24q69 24 128 24z
M1408 896q159 0 271.5 -112.5t112.5 -271.5t-112.5 -271.5t-271.5 -112.5t-271.5 112.5t-112.5 271.5v384q0 104 40.5 198.5t109.5 163.5t163.5 109.5t198.5 40.5q53 0 90.5 -37.5t37.5 -90.5t-37.5 -90.5t-90.5 -37.5q-106 0 -181 -75t-75 -181v-24q69 24 128 24z" />
    <glyph glyph-name="quote-right" unicode="quote&#x2d;right&#x2d;alt" horiz-adv-x="1792" 
d="M384 1408q160 0 272 -111.5t112 -272.5v-384q0 -104 -40.5 -198.5t-109.5 -163.5t-163.5 -109.5t-198.5 -40.5q-53 0 -90.5 37.5t-37.5 90.5t37.5 90.5t90.5 37.5q106 0 181 75t75 181v24q-69 -24 -128 -24q-160 0 -272 111.5t-112 272.5t112 272.5t272 111.5zM1792 1024
v-384q0 -104 -40.5 -198.5t-109.5 -163.5t-163.5 -109.5t-198.5 -40.5q-53 0 -90.5 37.5t-37.5 90.5t37.5 90.5t90.5 37.5q106 0 181 75t75 181v24q-69 -24 -128 -24q-159 0 -271.5 112.5t-112.5 271.5t112.5 271.5t271.5 112.5t271.5 -112.5t112.5 -271.5z" />
    <glyph glyph-name="angle-left" unicode="angle&#x2d;left" horiz-adv-x="1024" 
d="M768 0q54 0 91 37t37 90t-37 91l-550 550l550 550q37 38 37 90t-37 90t-90 38t-91 -38l-640 -640q-38 -38 -38 -90t38 -90l640 -640q38 -38 90 -38z" />
    <glyph glyph-name="angle-right" unicode="angle&#x2d;right" horiz-adv-x="1024" 
d="M256 0q53 0 91 38l640 640q37 38 37 91t-37 90l-640 640q-37 37 -90 37t-91 -37t-38 -90t38 -91l549 -550l-549 -550q-38 -38 -38 -90t38 -90t90 -38z" />
    <glyph glyph-name="lira-sign" unicode="lira&#x2d;sign" horiz-adv-x="1280" 
d="M444 1028l4 122q0 106 76 182t182 76q43 0 81 -13l325 -109q50 -16 97.5 8t64.5 74q16 50 -8 97t-74 64l-328 109q-75 26 -158 26q-140 0 -258 -69t-187 -187t-69 -258v-126h-64q-53 0 -90.5 -37.5t-37.5 -90.5t37.5 -90.5t90.5 -37.5h64v-128h-64q-53 0 -90.5 -37.5
t-37.5 -90.5t37.5 -90.5t90.5 -37.5h56q-14 -64 -47 -120l-119 -198q-38 -64 -1 -129q17 -30 47 -47.5t64 -17.5h1024q53 0 90.5 37.5t37.5 90.5t-37.5 90.5t-90.5 37.5h-798l3 4q69 116 86 252h453q53 0 90.5 38.5t37.5 93.5q0 51 -37.5 89.5t-90.5 38.5h-452v128h452
q54 0 91 36.5t37 91.5q0 51 -37.5 89.5t-90.5 38.5h-452z" />
    <glyph glyph-name="rupee-sign" unicode="rupee&#x2d;sign" horiz-adv-x="1792" 
d="M0 1536v-1536q0 -53 37.5 -90.5t90.5 -37.5t90.5 37.5t37.5 90.5v512h169l224 -560q19 -49 68 -70t99 -1q49 19 70 68t1 99l-206 513q154 69 248.5 211t94.5 316q0 117 -45.5 223.5t-123 184t-184 123t-223.5 45.5h-320q-53 0 -90.5 -37.5t-37.5 -90.5zM256 768v640h192
q133 0 226.5 -93.5t93.5 -226.5t-93.5 -226.5t-226.5 -93.5h-192zM1283 663q-6 11 -1 39q3 30 34 48q58 26 134 13q70 -13 112 -26q51 -16 97.5 9t62.5 76t-8.5 97.5t-75.5 62.5q-33 10 -142 33q-61 9 -122 7.5t-119 -22t-104.5 -53t-79 -86.5t-42.5 -121q-14 -96 17 -173
q22 -67 95 -124q30 -24 74 -46t67 -31t72 -26l12 -5q113 -39 148 -68q13 -10 18 -23q6 -21 2 -49q-5 -38 -36 -53q-50 -24 -132 -8q-6 3 -30.5 10t-43.5 14q-37 13 -62 24q-22 8 -32 12q-49 19 -97 -2t-68 -71q-19 -49 2 -97t71 -68l25 -10q9 -4 33.5 -13.5t37.5 -14.5
q76 -28 117 -36h1q168 -30 292 32q152 82 175 243q14 96 -15 176q-28 77 -96 129q-81 72 -219 113l-5 2q-121 42 -152 67q-13 10 -17 19z" />
    <glyph glyph-name="won-sign" unicode="krw" 
d="M476 896l-227 680q-16 50 -63.5 74t-97.5 7q-50 -16 -74 -63.5t-7 -97.5l199 -600h-78q-53 0 -90.5 -37.5t-37.5 -90.5t37.5 -90.5t90.5 -37.5h164l226 -680q14 -41 49.5 -64.5t77.5 -19.5q42 -1 75 25t44 68l164 671h188l164 -671q13 -42 47 -68t76 -25q40 -5 77 19.5
t50 64.5l226 680h164q53 0 90.5 37.5t37.5 90.5t-37.5 90.5t-90.5 37.5h-78l200 600q16 50 -8 97t-74 64t-98 -7t-64 -74l-226 -680h-260l-164 671q-11 43 -45.5 70t-78.5 27t-79 -27t-49 -70l-164 -671h-256zM562 640h106l-46 -182zM992 896l32 112l28 -112h-60zM1376 640
h110l-60 -182z" />
    <glyph glyph-name="shekel-sign" unicode="ils" horiz-adv-x="1792" 
d="M768 1664h-640q-53 0 -90.5 -37.5t-37.5 -90.5v-1536q0 -53 37.5 -90.5t90.5 -37.5t90.5 37.5t37.5 90.5v1408h512q106 0 181 -75t75 -181v-640q0 -53 37.5 -90.5t90.5 -37.5t90.5 37.5t37.5 90.5v640q0 212 -150 362t-362 150zM640 -128h640q212 0 362 150t150 362v1152
q0 53 -37.5 90.5t-90.5 37.5t-90.5 -37.5t-37.5 -90.5v-1152q0 -106 -75 -181t-181 -75h-512v896q0 53 -37.5 90.5t-90.5 37.5t-90.5 -37.5t-37.5 -90.5v-1024q0 -53 37.5 -90.5t90.5 -37.5z" />
    <glyph glyph-name="euro-sign" unicode="euro&#x2d;sign" horiz-adv-x="1536" 
d="M256 832h65q0 -6 -0.5 -16t-0.5 -16v-64q0 -6 0.5 -16t0.5 -16h-65q-53 0 -90.5 -37.5t-37.5 -90.5t37.5 -90.5t90.5 -37.5h113q90 -256 312 -416t503 -160h96q53 0 90.5 37.5t37.5 90.5t-37.5 90.5t-90.5 37.5h-96q-171 0 -314 87.5t-222 232.5h504q53 0 90.5 37.5
t37.5 90.5t-37.5 90.5t-90.5 37.5h-575q0 5 -0.5 15.5t-0.5 16.5v64q0 6 0.5 16.5t0.5 15.5h575q53 0 90.5 37.5t37.5 90.5t-37.5 90.5t-90.5 37.5h-504q79 145 222 232.5t314 87.5h96q53 0 90.5 37.5t37.5 90.5t-37.5 90.5t-90.5 37.5h-96q-281 0 -503 -160t-312 -416h-113
q-53 0 -90.5 -37.5t-37.5 -90.5t37.5 -90.5t90.5 -37.5z" />
    <glyph glyph-name="hryvnia-sign" unicode="hryvnia&#x2d;sign" horiz-adv-x="1536" 
d="M460 1312l28 15q103 81 230 81h174q81 0 138.5 -56.5t57.5 -135.5q0 -68 -44 -128h-916q-53 0 -90.5 -37.5t-37.5 -90.5t37.5 -90.5t90.5 -37.5h494l-202 -116l-21 -12h-271q-53 0 -90.5 -37.5t-37.5 -90.5t37.5 -90.5t90.5 -37.5h81q-17 -62 -17 -124
q0 -187 131.5 -319.5t316.5 -132.5h178q219 0 390 137l20 23q44 31 50 83t-30 93q-31 42 -82.5 48.5t-93.5 -28.5l-24 -19q-103 -81 -230 -81h-178q-79 0 -135.5 57.5t-56.5 138.5q0 71 44 124h916q53 0 90.5 37.5t37.5 90.5t-37.5 90.5t-90.5 37.5h-494l202 116l21 12h271
q53 0 90.5 37.5t37.5 90.5t-37.5 90.5t-90.5 37.5h-81q17 62 17 128q0 185 -132.5 316.5t-319.5 131.5h-174q-219 0 -390 -137l-24 -19q-41 -33 -47 -85t27 -91q33 -44 85 -50t91 30z" />
    <glyph glyph-name="tenge-sign" unicode="tenge&#x2d;sign" horiz-adv-x="1536" 
d="M0 1536q0 -53 37.5 -90.5t90.5 -37.5h1280q53 0 90.5 37.5t37.5 90.5t-37.5 90.5t-90.5 37.5h-1280q-53 0 -90.5 -37.5t-37.5 -90.5zM0 1024q0 -53 37.5 -90.5t90.5 -37.5h512v-896q0 -53 37.5 -90.5t90.5 -37.5t90.5 37.5t37.5 90.5v896h512q53 0 90.5 37.5t37.5 90.5
t-37.5 90.5t-90.5 37.5h-1280q-53 0 -90.5 -37.5t-37.5 -90.5z" />
    <glyph glyph-name="ruble-sign" unicode="ruble&#x2d;sign" horiz-adv-x="1536" 
d="M960 1664h-576q-53 0 -90.5 -37.5t-37.5 -90.5v-768h-128q-53 0 -90.5 -37.5t-37.5 -90.5t37.5 -90.5t90.5 -37.5h128v-128h-128q-53 0 -90.5 -37.5t-37.5 -90.5t37.5 -90.5t90.5 -37.5h128v-128q0 -53 37.5 -90.5t90.5 -37.5t90.5 37.5t37.5 90.5v128h640
q53 0 90.5 37.5t37.5 90.5t-37.5 90.5t-90.5 37.5h-640v128h448q117 0 223.5 45.5t184 123t123 184t45.5 223.5t-45.5 223.5t-123 184t-184 123t-223.5 45.5zM1280 1088q0 -133 -93.5 -226.5t-226.5 -93.5h-448v640h448q133 0 226.5 -93.5t93.5 -226.5z" />
    <glyph glyph-name="trademark" unicode="trademark" horiz-adv-x="2560" 
d="M2472 1401q39 -13 63.5 -46.5t24.5 -74.5v-1024q0 -53 -37.5 -90.5t-90.5 -37.5t-90.5 37.5t-37.5 90.5v640l-346 -461q-36 -48 -102 -48t-102 48l-346 461v-640q0 -53 -37.5 -90.5t-90.5 -37.5t-90.5 37.5t-37.5 90.5v1024q0 41 24.5 74.5t63.5 46.5t78 0.5t64 -45.5
l474 -631l474 632q25 33 64 45t78 -1zM896 1408q53 0 90.5 -37.5t37.5 -90.5t-37.5 -90.5t-90.5 -37.5h-256v-892q0 -53 -37.5 -90.5t-90.5 -37.5t-90.5 37.5t-37.5 90.5v892h-256q-53 0 -90.5 37.5t-37.5 90.5t37.5 90.5t90.5 37.5h768z" />
    <glyph glyph-name="square-info" unicode="info&#x2d;square" horiz-adv-x="1792" 
d="M1536 1664q106 0 181 -75t75 -181v-1280q0 -106 -75 -181t-181 -75h-1280q-106 0 -181 75t-75 181v1280q0 106 75 181t181 75h1280zM896 1280q-53 0 -90.5 -37.5t-37.5 -90.5t37.5 -90.5t90.5 -37.5t90.5 37.5t37.5 90.5t-37.5 90.5t-90.5 37.5zM1056 256q40 0 68 28
t28 68t-28 68t-68 28h-64v352q0 40 -28 68t-68 28h-128q-40 0 -68 -28t-28 -68t28 -68t68 -28h32v-256h-64q-40 0 -68 -28t-28 -68t28 -68t68 -28h320z" />
    <glyph glyph-name="arrow-left" unicode="arrow&#x2d;left" horiz-adv-x="1792" 
d="M1788 768q0 54 -35.5 91t-88.5 37h-1227l422 422q37 38 37 90t-37 90t-90 38t-91 -38l-640 -640q-38 -38 -38 -90t38 -90l640 -640q38 -38 90 -38q54 0 91 37t37 90t-37 91l-422 422h1227q53 0 88.5 37t35.5 91z" />
    <glyph glyph-name="arrow-up" unicode="arrow&#x2d;up" horiz-adv-x="1536" 
d="M1498 806q38 38 38 90.5t-37 90.5l-640 640q-37 37 -90 37t-91 -37l-640 -640q-38 -37 -38 -90t38 -91t91 -38t90 38l421 421v-1227q0 -52 40 -88t92 -36q51 0 87.5 35.5t36.5 88.5v1227l422 -421q38 -38 90 -38t90 38z" />
    <glyph glyph-name="arrow-right" unicode="arrow&#x2d;right" horiz-adv-x="1792" 
d="M1754 678q38 38 38 90.5t-37 90.5l-640 640q-37 37 -90 37t-91 -37t-38 -90t38 -91l421 -422h-1227q-53 0 -90.5 -37.5t-37.5 -90.5t37.5 -90.5t90.5 -37.5h1227l-421 -421q-38 -37 -38 -90t38 -91t90 -38t90 38z" />
    <glyph glyph-name="arrow-down" unicode="arrow&#x2d;down" horiz-adv-x="1536" 
d="M1498 550q38 38 38 90t-37 90t-90 38t-91 -38l-422 -421v1227q0 52 -40 88t-92 36q-51 0 -87.5 -35.5t-36.5 -88.5v-1227l-421 422q-37 37 -90 37t-91 -37t-38 -90t38 -91l640 -640q38 -38 90 -38t90 38z" />
    <glyph glyph-name="left-right" unicode="arrows&#x2d;alt&#x2d;h" 
d="M2012 698q32 27 33 70.5t-29 73.5l-448 416q-21 19 -49.5 24t-54.5 -6t-41.5 -35t-15.5 -53v-224h-768v220q0 29 -16.5 53t-45.5 35q-26 11 -54 6.5t-49 -24.5l-448 -416q-29 -27 -29 -70t29 -70l448 -416q21 -20 49 -24.5t54 6.5t42 35t16 53v224h768v-224q0 -29 16 -53
t42 -35t54 -6.5t49 24.5z" />
    <glyph glyph-name="up-down" unicode="arrows&#x2d;alt&#x2d;v" horiz-adv-x="1024" 
d="M998 223q20 21 24.5 49t-6.5 54t-35 42t-53 16h-224v768h224q29 0 53 16t35 42t6.5 54t-24.5 49l-416 448q-27 29 -70 29t-70 -29l-416 -448q-20 -21 -24.5 -49t6.5 -54t35 -42t53 -16h224v-768h-224q-59 0 -84 -58t17 -103l413 -448q27 -29 70 -29t70 29z" />
    <glyph glyph-name="square-up-right" unicode="external&#x2d;link&#x2d;square&#x2d;alt" horiz-adv-x="1792" 
d="M1536 1664q106 0 181 -75t75 -181v-1280q0 -106 -75 -181t-181 -75h-1280q-106 0 -181 75t-75 181v1280q0 106 75 181t181 75h1280zM1322 496h-4v638q0 25 -17 42.5t-43 17.5h-634q-42 0 -59 -40q-16 -39 14 -69l181 -178l-272 -271q-37 -41 -37 -94t38 -91l90 -90
q38 -38 90.5 -38t90.5 37l272 272l181 -181q30 -30 69 -14q40 17 40 59zM1322 496z" />
    <glyph glyph-name="arrow-left-from-line" unicode="arrow&#x2d;left&#x2d;from&#x2d;line" horiz-adv-x="1792" 
d="M730 346q38 -38 38 -91t-38 -90t-91 -37t-90 37l-512 512q-37 37 -37 90t37 91l512 512q37 38 90 38t91 -38t38 -90q0 -53 -37 -90l-294 -294h715q53 0 90.5 -37.5t37.5 -90.5t-37.5 -90.5t-90.5 -37.5h-715zM1536 1408q0 53 37.5 90.5t90.5 37.5t90.5 -37.5t37.5 -90.5
v-1280q0 -53 -37.5 -90.5t-90.5 -37.5t-90.5 37.5t-37.5 90.5v1280z" />
    <glyph glyph-name="arrow-up-from-line" unicode="arrow&#x2d;up&#x2d;from&#x2d;line" horiz-adv-x="1536" 
d="M347 934q-37 -38 -91 -38t-91 38t-37 91t37 90l512 512q37 37 90 37t91 -37l512 -512q38 -37 38 -90t-38 -91t-90 -38q-53 0 -90 37l-294 294v-715q0 -53 -37.5 -90.5t-90.5 -37.5t-90.5 37.5t-37.5 90.5v715zM1408 128q53 0 90.5 -37.5t37.5 -90.5t-37.5 -90.5
t-90.5 -37.5h-1280q-53 0 -90.5 37.5t-37.5 90.5t37.5 90.5t90.5 37.5h1280z" />
    <glyph glyph-name="arrow-right-from-line" unicode="arrow&#x2d;right&#x2d;from&#x2d;line" horiz-adv-x="1792" 
d="M1062 1190q-38 38 -38 91t38 90t91 37t90 -37l512 -512q37 -37 37 -90t-37 -91l-512 -512q-37 -38 -90 -38t-91 38t-38 90t38 90l293 294h-715q-53 0 -90.5 37.5t-37.5 90.5t37.5 90.5t90.5 37.5h715zM256 128q0 -53 -37.5 -90.5t-90.5 -37.5t-90.5 37.5t-37.5 90.5v1280
q0 53 37.5 90.5t90.5 37.5t90.5 -37.5t37.5 -90.5v-1280z" />
    <glyph glyph-name="arrow-down-from-line" unicode="arrow&#x2d;down&#x2d;from&#x2d;line" horiz-adv-x="1536" 
d="M1190 602q38 38 91 38t90 -38t37 -91t-37 -90l-512 -512q-37 -37 -90 -37t-91 37l-512 512q-38 37 -38 90t38 91t90 38q53 0 91 -38l293 -293v715q0 53 37.5 90.5t90.5 37.5t90.5 -37.5t37.5 -90.5v-715zM128 1408q-53 0 -90.5 37.5t-37.5 90.5t37.5 90.5t90.5 37.5h1280
q53 0 90.5 -37.5t37.5 -90.5t-37.5 -90.5t-90.5 -37.5h-1280z" />
    <glyph glyph-name="arrow-rotate-left" unicode="arrow&#x2d;rotate&#x2d;backward" 
d="M1920 768q0 182 -71 348t-191 286t-286 191t-348 71q-208 0 -392.5 -91t-311.5 -254v281q0 53 -37.5 90.5t-90.5 37.5t-90.5 -37.5t-37.5 -90.5v-576q0 -53 37.5 -90.5t90.5 -37.5h576q53 0 90.5 37.5t37.5 90.5t-37.5 90.5t-90.5 37.5h-254q90 120 225.5 187.5
t285.5 67.5q130 0 248.5 -50.5t204 -136.5t136 -204t50.5 -248t-50.5 -248t-136.5 -204t-204 -136.5t-248 -50.5q-215 0 -384 128q-42 31 -94.5 23.5t-84.5 -49.5q-32 -43 -24.5 -95.5t50.5 -83.5q240 -180 536 -180q182 0 348 71t286 191t191 286t71 348z" />
    <glyph glyph-name="arrow-rotate-right" unicode="arrow&#x2d;rotate&#x2d;forward" 
d="M1984 1600q0 53 -37.5 90.5t-90.5 37.5t-90.5 -37.5t-37.5 -90.5v-281q-127 162 -312 253.5t-392 91.5q-182 0 -348 -71t-286 -191t-191 -286t-71 -348t71 -348t191 -286t286 -191t348 -71q296 0 536 180q42 32 49.5 84t-23.5 95q-32 42 -84 49.5t-95 -23.5
q-169 -128 -384 -128q-130 0 -248 50.5t-204 136.5t-136.5 204t-50.5 248t50.5 248t136.5 204t204 136.5t248 50.5q150 0 285.5 -67.5t225.5 -187.5h-254q-53 0 -90.5 -37.5t-37.5 -90.5t37.5 -90.5t90.5 -37.5h576q53 0 90.5 37.5t37.5 90.5v576z" />
    <glyph glyph-name="arrow-right-arrow-left" unicode="arrow&#x2d;right&#x2d;arrow&#x2d;left" 
d="M128 1088q-53 0 -90.5 37.5t-37.5 90.5t37.5 90.5t90.5 37.5h1483l-230 230q-37 38 -37 91t37 90t90 37t91 -37l448 -448q38 -37 38 -90t-38 -91l-448 -448q-38 -38 -90 -38q-53 0 -90 37q-38 37 -38 90t38 91l229 230h-1483zM1920 448q53 0 90.5 -37.5t37.5 -90.5
t-37.5 -90.5t-90.5 -37.5h-1483l229 -229q38 -37 38 -90t-38 -91t-90 -38t-90 38l-448 448q-38 38 -38 91t38 90l448 448q38 37 91 37t90 -37t37 -90t-37 -91l-230 -230h1483z" />
    <glyph glyph-name="arrow-left-to-line" unicode="arrow&#x2d;left&#x2d;to&#x2d;line" horiz-adv-x="1792" 
d="M1242 1370q38 -38 38 -90t-38 -90l-293 -294h715q53 0 90.5 -37.5t37.5 -90.5t-37.5 -90.5t-90.5 -37.5h-715l293 -294q38 -38 38 -90q0 -53 -38 -91q-38 -37 -91 -37t-90 37l-512 512q-37 37 -37 90t37 91l512 512q37 38 90 38t91 -38zM128 1536q53 0 90.5 -37.5
t37.5 -90.5v-1280q0 -53 -37.5 -90.5t-90.5 -37.5t-90.5 37.5t-37.5 90.5v1280q0 53 37.5 90.5t90.5 37.5z" />
    <glyph glyph-name="arrow-right-to-line" unicode="arrow&#x2d;right&#x2d;to&#x2d;line" horiz-adv-x="1792" 
d="M550 1190q-38 38 -38 91t38 90t91 37t90 -37l512 -512q37 -37 37 -90t-37 -91l-512 -512q-37 -38 -90 -38t-91 38t-38 90t38 90l293 294h-715q-53 0 -90.5 37.5t-37.5 90.5t37.5 90.5t90.5 37.5h715zM1536 1408q0 53 37.5 90.5t90.5 37.5t90.5 -37.5t37.5 -90.5v-1280
q0 -53 -37.5 -90.5t-90.5 -37.5t-90.5 37.5t-37.5 90.5v1280z" />
    <glyph glyph-name="sigma" unicode="sigma" horiz-adv-x="1536" 
d="M1408 -128q53 0 90.5 37.5t37.5 90.5v256q0 52 -40.5 90t-91.5 38t-87.5 -37.5t-36.5 -90.5v-128h-843l550 549q37 37 37 90t-37 91l-550 550h843v-128q0 -53 37 -88.5t91 -35.5t91 35.5t37 88.5v256q0 53 -37.5 90.5t-90.5 37.5h-1280q-39 0 -71 -21.5t-47 -57.5
t-7.5 -74t35.5 -66l677 -677l-677 -677q-28 -28 -35.5 -66t7.5 -74t47 -57.5t71 -21.5h1280z" />
    <glyph glyph-name="square-root" unicode="square&#x2d;root" horiz-adv-x="2304" 
d="M828 -256q3 0 10.5 1.5t7.5 -0.5q40 5 70 31t40 65l424 1699h796q53 0 90.5 38.5t37.5 89.5t-37.5 87.5t-90.5 36.5h-896q-44 0 -79 -27.5t-45 -72.5l-364 -1457l-294 587q-16 32 -47 51t-67 19h-256q-54 0 -91 -35.5t-37 -88.5t37.5 -90.5t90.5 -37.5h177l409 -825
q16 -33 47 -52t67 -19z" />
    <glyph glyph-name="infinity" unicode="infinity" horiz-adv-x="2560" 
d="M1980 1408q157 0 291 -78t211.5 -212t77.5 -291v-119q0 -157 -78 -291t-212 -211.5t-291 -77.5q-116 0 -222 44t-188 126l-289 289l-289 -289q-82 -82 -188.5 -126t-222.5 -44q-157 0 -291 78t-211.5 212t-77.5 291v119q0 157 78 291t212 211.5t291 77.5q116 0 222 -44
t188 -126l289 -289l289 289q82 82 188.5 126t222.5 44zM810 479l289 289l-289 289q-95 95 -229 95t-229.5 -95.5t-95.5 -229.5v-119q0 -134 95 -229t229 -95q135 0 230 95zM2304 708v120q0 134 -95.5 229t-229.5 95t-229 -95l-289 -289l289 -289q95 -95 229 -95t229.5 95
t95.5 229z" />
    <glyph glyph-name="wave-sine" unicode="wave&#x2d;sine" horiz-adv-x="2560" 
d="M2554 603q15 51 -10.5 98t-78.5 62q-50 15 -97 -10t-62 -76q-15 -49 -40.5 -112t-69.5 -142t-94 -143t-116.5 -108t-133.5 -44q-74 0 -149.5 73t-133.5 183.5t-100 217t-65 197.5q-6 23 -14.5 53.5t-28.5 91t-43.5 119.5t-59.5 133t-75.5 137.5t-93 126t-110.5 106.5
t-128 71t-147 27q-95 0 -184 -37.5t-154.5 -93.5t-125 -133.5t-98 -146.5t-71 -143.5t-45.5 -112t-21 -64.5q-15 -51 10 -98t76 -62t98 10t62 76q10 34 26 75.5t41.5 95.5t54.5 105t67 101.5t78 88t88.5 60.5t97.5 23q61 0 123.5 -49t112 -124t93.5 -167.5t73 -176
t46 -154.5q70 -236 148 -395q190 -387 445 -456q53 -14 107 -14q96 0 185.5 37.5t155 93.5t125.5 134t98 146t71 143t46 112.5t21 64.5z" />
    <glyph glyph-name="intersection" unicode="intersection" horiz-adv-x="1536" 
d="M1408 -128q53 0 90.5 37.5t37.5 90.5v896q0 156 -61 298t-164 245t-245 164t-298 61q-208 0 -385 -103t-280 -280t-103 -385v-892q0 -53 37.5 -90.5t90.5 -37.5t90.5 37.5t37.5 90.5v892q0 104 40.5 198.5t109.5 163.5t163.5 109.5t198.5 40.5t198.5 -40.5t163.5 -109.5
t109.5 -163.5t40.5 -198.5v-896q0 -53 37.5 -90.5t90.5 -37.5z" />
    <glyph glyph-name="union" unicode="union" horiz-adv-x="1536" 
d="M768 -128q156 0 298.5 61t245 164.5t163.5 246.5t61 300v892q0 53 -37.5 90.5t-90.5 37.5t-90.5 -37.5t-37.5 -90.5v-892q0 -104 -40.5 -198.5t-109.5 -163.5t-163.5 -109.5t-198.5 -40.5t-198.5 40.5t-163.5 109.5t-109.5 163.5t-40.5 198.5v892q0 53 -37.5 90.5
t-90.5 37.5t-90.5 -37.5t-37.5 -90.5v-900q0 -155 61 -296t163.5 -243.5t245 -163.5t298.5 -61z" />
    <glyph glyph-name="angle-up" unicode="angle&#x2d;up" horiz-adv-x="1536" 
d="M1408 384q53 0 90 37q38 37 38 90t-38 91l-640 640q-38 38 -91 38t-90 -38l-640 -640q-37 -38 -37 -91t37 -90t90 -37t91 37l550 550l550 -549q38 -38 90 -38z" />
    <glyph glyph-name="angle-down" unicode="angle&#x2d;down" horiz-adv-x="1536" 
d="M768 256q54 0 91 37l640 640q37 37 37 90t-37 91t-90 38t-91 -38l-550 -549l-549 549q-37 38 -90 38t-91 -38t-38 -90t38 -90l640 -640q38 -38 90 -38z" />
    <glyph glyph-name="watch" unicode="watch" horiz-adv-x="1536" 
d="M1088 1792h-640q-80 0 -136 -56t-56 -136v-97q231 161 512 161t512 -161v97q0 80 -56 136t-136 56zM256 -64q0 -80 56 -136t136 -56h640q80 0 136 56t56 136v97q-229 -161 -512 -161t-512 161v-97zM1536 768q0 210 -103 387t-279.5 279t-385.5 102t-385.5 -102
t-279.5 -279t-103 -387q0 -209 103 -385.5t279.5 -279.5t385.5 -103t385.5 103t279.5 279.5t103 385.5zM672 1088h-4q0 39 29 67.5t67 28.5q42 0 71 -28t29 -68v-269l149 -99q33 -23 40 -61.5t-17 -71.5q-20 -33 -58 -40t-71 17l-192 128q-43 22 -43 76v320z" />
    <glyph glyph-name="hourglass-end" unicode="hourglass&#x2d;end" horiz-adv-x="1536" 
d="M1408 1792h-1280q-53 0 -90.5 -37.5t-37.5 -90.5t37.5 -90.5t90.5 -37.5v-44q0 -128 48.5 -245t138.5 -207l272 -272l-272 -272q-90 -90 -138.5 -207t-48.5 -245v-44q-53 0 -90.5 -37.5t-37.5 -90.5t37.5 -90.5t90.5 -37.5h1280q53 0 90.5 37.5t37.5 90.5t-37.5 90.5
t-90.5 37.5v44q0 127 -49 244.5t-139 207.5l-271 272l271 272q90 90 139 207.5t49 244.5v44q53 0 90.5 37.5t37.5 90.5t-37.5 90.5t-90.5 37.5zM496 1220q-112 112 -112 272v44h768v-44q0 -160 -112 -272l-272 -271z" />
    <glyph glyph-name="keyboard" unicode="keyboard" horiz-adv-x="2304" 
d="M2048 0q106 0 181 75t75 181v1024q0 106 -75 181t-181 75h-1792q-106 0 -181 -75t-75 -181v-1024q0 -106 75 -181t181 -75h1792zM512 1072q0 -20 -14 -34t-34 -14h-160q-20 0 -34 14t-14 34v160q0 20 14 34t34 14h160q20 0 34 -14t14 -34v-160zM896 1072q0 -20 -14 -34
t-34 -14h-160q-20 0 -34 14t-14 34v160q0 20 14 34t34 14h160q20 0 34 -14t14 -34v-160zM1280 1072q0 -20 -14 -34t-34 -14h-160q-20 0 -34 14t-14 34v160q0 20 14 34t34 14h160q20 0 34 -14t14 -34v-160zM1664 1072q0 -20 -14 -34t-34 -14h-160q-20 0 -34 14t-14 34v160
q0 20 14 34t34 14h160q20 0 34 -14t14 -34v-160zM2048 1072q0 -20 -14 -34t-34 -14h-160q-20 0 -34 14t-14 34v160q0 20 14 34t34 14h160q20 0 34 -14t14 -34v-160zM512 688q0 -20 -14 -34t-34 -14h-160q-20 0 -34 14t-14 34v160q0 20 14 34t34 14h160q20 0 34 -14t14 -34
v-160zM896 688q0 -20 -14 -34t-34 -14h-160q-20 0 -34 14t-14 34v160q0 20 14 34t34 14h160q20 0 34 -14t14 -34v-160zM1280 688q0 -20 -14 -34t-34 -14h-160q-20 0 -34 14t-14 34v160q0 20 14 34t34 14h160q20 0 34 -14t14 -34v-160zM1664 688q0 -20 -14 -34t-34 -14h-160
q-20 0 -34 14t-14 34v160q0 20 14 34t34 14h160q20 0 34 -14t14 -34v-160zM2048 688q0 -20 -14 -34t-34 -14h-160q-20 0 -34 14t-14 34v160q0 20 14 34t34 14h160q20 0 34 -14t14 -34v-160zM512 304q0 -20 -14 -34t-34 -14h-160q-20 0 -34 14t-14 34v160q0 20 14 34t34 14
h160q20 0 34 -14t14 -34v-160zM1664 304q0 -20 -14 -34t-34 -14h-928q-20 0 -34 14t-14 34v160q0 20 14 34t34 14h928q20 0 34 -14t14 -34v-160zM2048 304q0 -20 -14 -34t-34 -14h-160q-20 0 -34 14t-14 34v160q0 20 14 34t34 14h160q20 0 34 -14t14 -34v-160z" />
    <glyph glyph-name="chevron-left" unicode="chevron&#x2d;left" horiz-adv-x="1280" 
d="M896 -128q54 0 91 37t37 90t-37 91l-678 678l678 678q37 38 37 90t-37 90t-90 38t-91 -38l-768 -768q-38 -38 -38 -90t38 -90l768 -768q38 -38 90 -38z" />
    <glyph glyph-name="chevron-right" unicode="chevron&#x2d;right" horiz-adv-x="1280" 
d="M384 -128q54 0 91 37l768 768q37 37 37 90t-37 91l-768 768q-37 38 -90 38t-91 -38t-38 -91t38 -90l677 -677l-677 -678q-38 -38 -38 -90t38 -90t90 -38z" />
    <glyph glyph-name="delete-left" unicode="backspace" horiz-adv-x="2304" 
d="M2304 256v1024q0 106 -75 181t-181 75h-1227q-106 0 -181 -75l-603 -603q-37 -37 -37 -90t37 -90l603 -603q75 -75 181 -75h1227q106 0 181 75t75 181zM1084 960q-28 25 -28 64.5t28 67.5t67 28t65 -28l192 -188l188 188q28 28 67 28t65 -28q31 -28 31 -67.5t-31 -64.5
l-184 -192l184 -188q31 -29 31 -67.5t-31 -64.5q-26 -31 -65 -31t-67 31l-188 184l-192 -184q-26 -31 -65 -31t-67 31q-28 26 -28 65t28 67l188 188z" />
    <glyph glyph-name="print" unicode="print" 
d="M1792 1024q106 0 181 -75t75 -181v-384q0 -53 -37.5 -90.5t-90.5 -37.5h-128v-384q0 -53 -37.5 -90.5t-90.5 -37.5h-1280q-53 0 -90.5 37.5t-37.5 90.5v384h-128q-53 0 -90.5 37.5t-37.5 90.5v384q0 106 75 181t181 75h1536zM1536 0v384h-1024v-384h1024zM1728 608
q40 0 68 28t28 68t-28 68t-68 28t-68 -28t-28 -68t28 -68t68 -28zM512 1536v-384h-256v512q0 53 37.5 90.5t90.5 37.5h1099q53 0 91 -38l180 -181q38 -38 38 -90v-331h-256v278l-106 106h-918z" />
    <glyph glyph-name="eject" unicode="eject" horiz-adv-x="1792" 
d="M192 516q-48 0 -89 21t-65 56t-33.5 76t2 85.5t44.5 79.5l704 772q57 62 141.5 62t141.5 -62l700 -769q41 -45 48 -102t-14 -105t-68.5 -81t-107.5 -33h-1404zM1596 256q81 0 136.5 -56t55.5 -136t-56 -136t-136 -56h-1404q-80 0 -136 56t-56 136t56 136t136 56h1404z
" />
    <glyph glyph-name="forward" unicode="forward" 
d="M210 30q-30 -25 -67.5 -28.5t-68.5 10.5t-52.5 45.5t-21.5 70.5v1280q0 39 21.5 70.5t52.5 45.5t68.5 10.5t67.5 -28.5l686 -571v-334zM1234 30q-44 -31 -91 -29.5t-83 36.5t-36 84v1280q0 39 21.5 70.5t52.5 45.5t68.5 10.5t67.5 -28.5l768 -636q46 -38 46 -98.5
t-46 -98.5z" />
    <glyph glyph-name="backward" unicode="backward" 
d="M1838 1506q30 25 67.5 28.5t68.5 -10.5t52.5 -45.5t21.5 -70.5v-1276q0 -54 -36 -92t-83 -40t-91 29l-686 572v334zM814 1506q30 25 67 29t68 -10.5t52.5 -45t22.5 -68.5v-1279q0 -39 -21.5 -70.5t-52.5 -46t-68.5 -11t-67.5 28.5l-768 636q-46 38 -46 98.5t46 98.5z" />
    <glyph glyph-name="forward-fast" unicode="forward&#x2d;fast" 
d="M2048 1408q0 54 -38.5 90.5t-93.5 33.5q-51 0 -87.5 -35.5t-36.5 -88.5v-523l-686 621q-30 25 -67.5 28.5t-68.5 -10.5t-52.5 -45.5t-21.5 -70.5v-523l-686 621q-30 25 -67.5 28.5t-68.5 -10.5t-52.5 -45.5t-21.5 -70.5v-1276q0 -41 21.5 -73t52.5 -46.5t68.5 -11
t67.5 28.5l686 626v-524q0 -41 21.5 -73t52.5 -46.5t68.5 -11t67.5 28.5l686 626v-524q0 -55 38 -91.5t94 -36.5q51 0 87.5 35.5t36.5 88.5v1280z" />
    <glyph glyph-name="backward-fast" unicode="backward&#x2d;fast" 
d="M0 132q0 -55 38 -91.5t94 -36.5q51 0 87.5 35.5t36.5 88.5v523l686 -621q30 -25 67.5 -28.5t68.5 10.5t52.5 45.5t21.5 70.5v523l686 -621q30 -25 67.5 -28.5t68.5 10.5t52.5 45.5t21.5 70.5v1280q0 39 -21.5 70.5t-52.5 45.5t-68.5 10.5t-67.5 -28.5l-686 -626v528
q0 53 -36 89.5t-83 38.5t-91 -29l-686 -626v527q0 54 -38.5 90.5t-93.5 33.5q-51 0 -87.5 -35.5t-36.5 -88.5v-1276z" />
    <glyph glyph-name="alarm-clock" unicode="alarm&#x2d;clock" 
d="M640 1690q-110 102 -259 102q-157 0 -269 -112t-112 -269q0 -113 59 -205zM488 -78q237 -178 536 -178t537 178l141 -140q38 -38 90 -38t90 38t38 90t-38 90l-140 141q178 238 178 537q0 182 -71 348t-191 286t-286 191t-348 71t-348 -71t-286 -191t-191 -286t-71 -348
q0 -299 178 -537l-141 -141q-37 -38 -37 -90t37 -90t91 -38t91 38zM1120 1056v-376l160 -164q31 -29 31 -67.5t-31 -64.5q-26 -31 -65 -31t-67 31l-192 192q-28 22 -28 64v416q0 40 28 68t68 28t68 -28t28 -68zM1988 1206q60 93 60 205q0 157 -112 269t-269 112
q-74 0 -142.5 -27t-116.5 -75z" />
    <glyph glyph-name="stopwatch" unicode="stopwatch" horiz-adv-x="1792" 
d="M1088 1792h-384q-53 0 -90.5 -37.5t-37.5 -90.5t37.5 -90.5t90.5 -37.5h64v-138q-148 -23 -278 -96.5t-224 -181t-148 -249.5t-54 -295q0 -169 66 -323.5t177 -265.5t265.5 -177t323.5 -66t323.5 66t265.5 177t177 265.5t66 323.5q0 248 -134 453l96 97q38 38 38 90
t-38 90t-90 38t-90 -38l-87 -86q-175 144 -399 178v138h64q53 0 90.5 37.5t37.5 90.5t-37.5 90.5t-90.5 37.5zM992 1024v-512q0 -40 -28 -68t-68 -28t-68 28t-28 68v512q0 40 28 68t68 28t68 -28t28 -68z" />
    <glyph glyph-name="hourglass" unicode="hourglass&#x2d;half" horiz-adv-x="1536" 
d="M1408 1792h-1280q-53 0 -90.5 -37.5t-37.5 -90.5t37.5 -90.5t90.5 -37.5v-44q0 -128 48.5 -245t138.5 -207l272 -272l-272 -272q-90 -90 -138.5 -207t-48.5 -245v-44q-53 0 -90.5 -37.5t-37.5 -90.5t37.5 -90.5t90.5 -37.5h1280q53 0 90.5 37.5t37.5 90.5t-37.5 90.5
t-90.5 37.5v44q0 127 -49 244.5t-139 207.5l-271 272l271 272q90 90 139 207.5t49 244.5v44q53 0 90.5 37.5t37.5 90.5t-37.5 90.5t-90.5 37.5zM444 1280q-60 98 -60 212v44h768v-44q0 -118 -64 -212h-644zM444 256q48 56 52 60l272 271l272 -271q24 -24 48 -60h-644z" />
    <glyph glyph-name="pause" unicode="pause" horiz-adv-x="1280" 
d="M1088 1540q79 0 135.5 -58t56.5 -138v-1152q0 -80 -56 -136t-136 -56l-128 7q-80 0 -136 56.5t-56 135.5v1152q0 77 56.5 133t135.5 56h128zM320 1540q79 0 135.5 -58t56.5 -138v-1152q0 -80 -56 -136t-136 -56h-128q-80 0 -136 57t-56 139v1152q0 80 56 136t136 56h128z
" />
    <glyph glyph-name="stop" unicode="stop" horiz-adv-x="1536" 
d="M1536 1280q0 106 -75 181t-181 75h-1024q-106 0 -181 -75t-75 -181v-1020q0 -106 75 -181t181 -75h1024q106 0 181 75t75 181v1020z" />
    <glyph glyph-name="power-off" unicode="power&#x2d;off" 
d="M1152 768v896q0 53 -37.5 90.5t-90.5 37.5t-90.5 -37.5t-37.5 -90.5v-896q0 -53 37.5 -90.5t90.5 -37.5t90.5 37.5t37.5 90.5zM320 768q0 161 67.5 302t186.5 240q40 33 44.5 86.5t-27.5 93.5q-34 40 -87.5 45t-93.5 -29q-161 -135 -253.5 -326.5t-92.5 -407.5
q0 -131 34.5 -256.5t96.5 -231t150.5 -194.5t194 -151t229.5 -96.5t255 -34.5t255 34.5t229.5 96.5t194 151t150.5 194.5t96.5 231t34.5 256.5q0 216 -92.5 407.5t-253.5 326.5q-40 34 -93.5 29t-87.5 -45q-34 -41 -29 -93.5t46 -86.5q119 -99 186.5 -240t67.5 -302
q0 -143 -55.5 -273.5t-150 -225t-225 -150t-273.5 -55.5t-273.5 55.5t-225 150t-150 225t-55.5 273.5z" />
    <glyph glyph-name="moon" unicode="moon" 
d="M128 768q0 -182 71 -348t190.5 -286t285.5 -191t348 -71q205 0 386.5 88t308.5 244q19 23 4 48t-44 20q-109 -23 -212.5 -8.5t-196 52.5t-170.5 104.5t-134.5 148t-88 183t-31.5 209.5q0 190 95 353t260 257q25 14 20.5 43.5t-33.5 34.5q-84 15 -164 15
q-182 0 -347.5 -71t-285.5 -191t-191 -286t-71 -348z" />
    <glyph glyph-name="circle-h" unicode="circle&#x2d;h" 
d="M1024 1792q209 0 398.5 -81t326.5 -218t218 -326.5t81 -398.5t-81 -398.5t-218 -326.5t-326.5 -218t-398.5 -81t-398.5 81t-326.5 218t-218 326.5t-81 398.5t81 398.5t218 326.5t326.5 218t398.5 81zM1472 352v832q0 40 -28 68t-68 28t-68 -28t-28 -68v-320h-512v320
q0 40 -28 68t-68 28t-68 -28t-28 -68v-832q0 -40 28 -68t68 -28t68 28t28 68v320h512v-320q0 -40 28 -68t68 -28t68 28t28 68z" />
    <glyph glyph-name="square" unicode="square" horiz-adv-x="1792" 
d="M0 1408v-1280q0 -106 75 -181t181 -75h1280q106 0 181 75t75 181v1280q0 106 -75 181t-181 75h-1280q-106 0 -181 -75t-75 -181z" />
    <glyph glyph-name="rectangle" unicode="rectangle&#x2d;landscape" 
d="M0 1280v-1024q0 -106 75 -181t181 -75h1536q106 0 181 75t75 181v1024q0 106 -75 181t-181 75h-1536q-106 0 -181 -75t-75 -181z" />
    <glyph glyph-name="triangle" unicode="triangle" 
d="M2026 113l-864 1472q-22 37 -58.5 58t-79.5 21t-79.5 -21t-58.5 -58l-864 -1472q-22 -37 -22.5 -80t21.5 -81q21 -37 58.5 -58.5t80.5 -21.5h1728q43 0 80.5 21.5t58.5 58.5t21 80.5t-22 80.5z" />
    <glyph glyph-name="play" unicode="play" horiz-adv-x="1536" 
d="M1444 932l-1152 704q-44 27 -96 28t-98 -25q-46 -25 -72 -70t-26 -97v-1408q0 -53 26 -98t72 -70q45 -26 97.5 -24t96.5 32l1152 704q43 24 67.5 67t24.5 93t-24.5 94t-67.5 70z" />
    <glyph glyph-name="circle" unicode="circle" 
d="M2048 768q0 209 -81 398.5t-218 326.5t-326.5 218t-398.5 81t-398.5 -81t-326.5 -218t-218 -326.5t-81 -398.5t81 -398.5t218 -326.5t326.5 -218t398.5 -81t398.5 81t326.5 218t218 326.5t81 398.5z" />
    <glyph glyph-name="circle-half-stroke" unicode="adjust" 
d="M2048 768q0 209 -81 398.5t-218 326.5t-326.5 218t-398.5 81t-398.5 -81t-326.5 -218t-218 -326.5t-81 -398.5t81 -398.5t218 -326.5t326.5 -218t398.5 -81t398.5 81t326.5 218t218 326.5t81 398.5zM1024 1536q209 0 385.5 -102t279.5 -279t103 -387q0 -209 -103 -385.5
t-279.5 -279.5t-385.5 -103v1536z" />
    <glyph glyph-name="sun" unicode="sun" 
d="M1024 1156q158 0 269 -115.5t111 -272.5t-109.5 -268.5t-270.5 -111.5q-160 0 -270 114.5t-110 272.5q0 157 111 269t269 112zM2037 404q19 -27 6.5 -58t-45.5 -37l-436 -79l-79 -436q-6 -33 -36.5 -45.5t-58.5 6.5l-364 253l-364 -253q-28 -19 -58.5 -6.5t-36.5 45.5
l-79 436l-436 79q-33 6 -45.5 37t6.5 58l253 364l-253 368q-19 25 -6.5 55t45.5 36l436 79l76 436q6 33 36.5 45.5t57.5 -6.5l368 -253l364 257q28 19 58.5 6t36.5 -46l79 -436l436 -78q33 -6 45.5 -37t-6.5 -58l-253 -364zM1024 260q212 0 360 148t148 360q0 137 -68.5 254
t-185.5 185.5t-254 68.5q-138 0 -254.5 -67.5t-185 -184.5t-68.5 -256q0 -138 67.5 -254.5t184.5 -185t256 -68.5z" />
    <glyph glyph-name="cloud" unicode="cloud" horiz-adv-x="2560" 
d="M385 992q-170 -60 -277.5 -209t-107.5 -335q0 -117 45.5 -223.5t123 -184t184 -123t223.5 -45.5h1472q212 0 362 150t150 362q0 185 -116.5 325.5t-293.5 176.5q26 70 26 138q0 161 -112 272.5t-272 111.5q-123 0 -213 -65q-85 147 -232.5 234t-322.5 87
q-130 0 -248.5 -50.5t-204.5 -136.5t-136.5 -204.5t-50.5 -248.5q0 -21 1 -32z" />
    <glyph glyph-name="snowman" unicode="snowman" 
d="M2044 1183q10 -24 -0.5 -48t-35.5 -34l-538 -223q-3 -76 -28 -141q104 -90 163 -214.5t59 -266.5q0 -154 -70 -288t-190 -224h-761q-120 90 -189.5 223.5t-69.5 288.5q0 142 59 266.5t163 214.5q-25 65 -28 141l-538 224q-25 9 -35 32.5t0 48.5l23 58q10 24 34.5 34.5
t48.5 0.5l113 -46v116q0 25 19 43.5t45 18.5h64q26 0 45 -18.5t19 -43.5v-188q0 -1 -0.5 -3t-0.5 -3l196 -83q28 68 89 138q-60 96 -60 205q0 157 109.5 268.5t270.5 111.5t272.5 -112t111.5 -272q0 -110 -59 -204q57 -60 88 -134l196 82q0 1 -0.5 3t-0.5 3v188
q0 25 19 43.5t45 18.5h64q28 0 46.5 -18t21.5 -45v-116l113 46q25 10 49 0t34 -34zM896 1412q26 0 43 18t17 42q0 23 -18.5 41.5t-41.5 18.5t-41.5 -18.5t-18.5 -41.5q0 -24 17 -42t43 -18zM1024 324q25 0 42.5 21t17.5 46q0 24 -17.5 42.5t-42.5 18.5t-42.5 -21.5
t-17.5 -46.5q0 -24 17 -42t43 -18zM1024 580q25 0 42.5 21t17.5 46q0 24 -17.5 42.5t-42.5 18.5t-42.5 -21.5t-17.5 -46.5q0 -24 17 -42t43 -18zM1024 836q25 0 42.5 21t17.5 46q0 24 -17.5 42.5t-42.5 18.5t-42.5 -21.5t-17.5 -46.5q0 -24 17 -42t43 -18zM1024 1184
q60 93 60 128q0 27 -17 45.5t-43 18.5t-43 -18.5t-17 -45.5q0 -16 15 -48t30 -56zM1148 1412q27 0 44 18t17 42q0 23 -19 41.5t-42 18.5t-41.5 -18.5t-18.5 -41.5q0 -24 17 -42t43 -18z" />
    <glyph glyph-name="meteor" unicode="meteor" 
d="M2046 1709q6 44 -21 64q-27 27 -64 16q-373 -111 -751 -245q-10 35 -22 75q-9 28 -37 40t-55 -2q-594 -319 -853 -570q-2 -2 -7 -6t-7 -6q-112 -112 -170.5 -258t-58.5 -293.5t58.5 -293.5t170.5 -258q150 -150 350.5 -203t401.5 0t350 203q2 2 6 7t6 7q258 266 570 858
q14 27 2 55q-10 26 -40 36q-10 3 -35 11t-40 12q125 351 246 751zM1276 516q0 -141 -68 -259.5t-185.5 -186.5t-258.5 -66q-212 0 -362 150t-150 362q0 139 68.5 257t186.5 186.5t257 68.5t257 -68.5t186.5 -186.5t68.5 -257zM764 644q0 53 -37 90q-38 38 -91 38
t-90.5 -37.5t-37.5 -90.5t37.5 -90.5t90.5 -37.5t90.5 37.5t37.5 90.5zM896 324q0 25 -19 44.5t-45 19.5q-27 0 -45.5 -18.5t-18.5 -45.5q0 -26 18.5 -45t45.5 -19q26 0 45 18.5t19 45.5z" />
    <glyph glyph-name="phone-rotary" unicode="phone&#x2d;rotary" 
d="M1482 1023l421 -737q17 -31 17 -64v-222q0 -52 -38 -90t-90 -38h-1536q-52 0 -90 38t-38 90v222q0 34 17 63l421 738q35 60 94 94.5t128 34.5h472q68 0 126.5 -34t95.5 -95zM1024 256q119 0 203.5 84.5t84.5 203.5t-84.5 203.5t-203.5 84.5t-203.5 -84.5t-84.5 -203.5
t84.5 -203.5t203.5 -84.5zM2024 1300q24 -19 24 -50v-226q0 -27 -18.5 -45.5t-45.5 -18.5h-280q-18 0 -34.5 10t-23.5 26l-110 284q-223 96 -512 96t-512 -96l-110 -284q-16 -36 -57 -36h-281q-27 0 -45.5 18.5t-18.5 45.5v226q0 32 23 50q209 175 468.5 269.5t532.5 94.5
t532 -94.5t468 -269.5z" />
    <glyph glyph-name="square-check" unicode="check&#x2d;square" horiz-adv-x="1792" 
d="M1536 1664h-1280q-106 0 -181 -75t-75 -181v-1280q0 -106 75 -181t181 -75h1280q106 0 181 75t75 181v1280q0 106 -75 181t-181 75zM1359 945l-512 -512q-33 -33 -79 -33t-79 33l-256 256q-33 33 -33 79t33 79t79 33t79 -33l177 -177l433 433q33 33 79 33t79 -33t33 -79
t-33 -79z" />
    <glyph glyph-name="mug-hot" unicode="mug&#x2d;hot" 
d="M1600 1024q185 0 316.5 -131.5t131.5 -316.5t-131.5 -316.5t-316.5 -131.5h-64q0 -159 -112.5 -271.5t-271.5 -112.5h-768q-159 0 -271.5 112.5t-112.5 271.5v768q0 53 37.5 90.5t90.5 37.5h1472zM1600 384q80 0 136 56t56 136t-56 136t-136 56h-64v-384h64zM432 1389
q-81 47 -128.5 129.5t-47.5 176.5q0 40 28 68t68 28t68 -28t28 -68q0 -43 21.5 -80.5t58.5 -59.5q81 -47 128.5 -129.5t47.5 -176.5q0 -38 -28.5 -67.5t-67.5 -29.5q-40 0 -68 28t-28 68q0 44 -21.5 83t-58.5 58zM880 1389q-81 47 -128.5 129.5t-47.5 176.5q0 40 28 68.5
t68 28.5t68 -28.5t28 -68.5q0 -43 21.5 -80.5t58.5 -59.5q81 -47 128.5 -129.5t47.5 -176.5q0 -38 -28.5 -67t-67.5 -29q-40 0 -68 27.5t-28 67.5q0 44 -21.5 83t-58.5 58z" />
    <glyph glyph-name="hand-point-up" unicode="hand&#x2d;point&#x2d;up" horiz-adv-x="1792" 
d="M1152 640q-53 0 -90.5 37.5t-37.5 90.5v256q0 53 37.5 90.5t90.5 37.5t90.5 -37.5t37.5 -90.5v-256q0 -53 -37.5 -90.5t-90.5 -37.5zM896 814q-49 18 -96 18h-160v320q0 53 37.5 90.5t90.5 37.5t90.5 -37.5t37.5 -90.5v-338zM512 832h-224q-5 0 -10 -0.5t-11.5 -1.5
t-10.5 -1v835q0 53 37.5 90.5t90.5 37.5t90.5 -37.5t37.5 -90.5v-832zM1536 1024q53 0 90.5 -37.5t37.5 -90.5v-256q0 -53 -37.5 -90.5t-90.5 -37.5t-90.5 37.5t-37.5 90.5v256q0 53 37.5 90.5t90.5 37.5zM1295 556q27 -74 93 -123t148 -49q66 0 128 36v-132
q0 -148 -73 -273t-198 -198t-273 -73h-355q-178 0 -320 104l-146 106q-80 59 -125.5 147.5t-45.5 188.5v254q0 66 47 113t113 47h512q66 0 111 -47t45 -113q0 -41 -17.5 -73.5t-44 -50.5t-54.5 -27t-53 -9h-279q-24 0 -42 -19t-18 -45t18 -45t42 -19h292q113 0 195.5 77
t90.5 189q35 -10 66 -10q68 0 143 44z" />
    <glyph glyph-name="skull-crossbones" unicode="skull&#x2d;crossbones" horiz-adv-x="1792" 
d="M1472 1280q0 139 -77 257t-211 186.5t-292 68.5q-155 0 -287.5 -68.5t-210.5 -186.5t-78 -257q0 -130 69.5 -242.5t186.5 -183.5v-86q0 -53 38.5 -90.5t89.5 -37.5h388q53 0 90.5 37.5t37.5 90.5v86q118 70 187 182.5t69 243.5zM668 1088q-51 0 -89.5 37.5t-38.5 90.5
t38.5 90.5t89.5 37.5q55 0 91.5 -37t36.5 -91t-36.5 -91t-91.5 -37zM1120 1344q53 0 90.5 -37.5t37.5 -90.5t-37.5 -90.5t-90.5 -37.5t-90.5 37.5t-37.5 90.5t37.5 90.5t90.5 37.5zM14 697q-24 -47 -7 -97t64 -74l539 -270l-539 -270q-47 -24 -64 -74t7 -97t74 -64t97 7
l707 355l715 -355q47 -24 97 -7t74 64t7 97t-64 74l-539 270l539 270q47 24 64 74t-7 97t-74 64t-97 -7l-715 -355l-707 355q-47 24 -97 7t-74 -64z" />
    <glyph glyph-name="circle-radiation" unicode="circle&#x2d;radiation" 
d="M906 958q-48 -31 -77 -81t-29 -109h-316q-29 0 -48.5 22.5t-15.5 51.5q15 118 73.5 221t149.5 176q22 19 51 14.5t45 -29.5zM1024 640q-53 0 -90.5 37.5t-37.5 90.5t37.5 90.5t90.5 37.5t90.5 -37.5t37.5 -90.5t-37.5 -90.5t-90.5 -37.5zM1142 579l168 -267
q16 -25 6.5 -53t-36.5 -41q-122 -58 -256 -58t-256 58q-27 13 -36 40.5t7 52.5l167 268q54 -35 118 -35q58 0 118 35zM1406 1239q91 -74 148.5 -176t72.5 -221q4 -29 -15 -51.5t-48 -22.5h-316q0 59 -28.5 108.5t-76.5 80.5l166 267q16 25 45.5 29.5t51.5 -14.5zM1024 1728
q195 0 373 -76t306.5 -204.5t204.5 -306.5t76 -373t-76 -373t-204.5 -306.5t-306.5 -204.5t-373 -76t-373 76t-306.5 204.5t-204.5 306.5t-76 373t76 373t204.5 306.5t306.5 204.5t373 76zM1024 64q191 0 353 94.5t256.5 256.5t94.5 353q0 143 -55.5 273t-149 224.5
t-224.5 150.5t-275 56t-275 -56t-224.5 -150.5t-149 -224.5t-55.5 -273q0 -191 94.5 -353t256.5 -256.5t353 -94.5z" />
    <glyph glyph-name="biohazard" unicode="biohazard" horiz-adv-x="2304" 
d="M2302 658q10 -25 -14 -39q-23 -14 -40 6q-58 66 -117 101q-172 101 -364 48.5t-292 -228.5q-49 -86 -60.5 -184.5t12 -188.5t81.5 -169t143 -129q64 -39 143 -54q26 -7 26 -32q0 -27 -26 -32q-246 -48 -460 79q-102 59 -182 159q-78 -99 -181 -159q-215 -127 -461 -79
q-26 5 -26 32q0 25 25 32q82 17 144 54q113 68 177 183.5t63 240.5t-65 247q-49 87 -126 146t-165 83t-184 12.5t-180 -61.5q-57 -34 -117 -101q-16 -20 -40 -6q-22 14 -14 39q40 117 116.5 213t180.5 157q99 58 221 79q-40 118 -40 225q0 254 164 449q16 19 40 7
q22 -13 15 -39q-27 -83 -27 -154q0 -133 64 -246.5t175 -179.5t241 -66t241 66t175 179.5t64 246.5q0 75 -26 154q-7 26 14 39q24 12 40 -7q164 -195 164 -449q0 -107 -40 -225q119 -20 221 -80q104 -60 180.5 -156t116.5 -213zM1148 512q82 0 137 56t55 136t-56 136
t-136 56t-136 -56t-56 -136t56 -136t136 -56zM1540 282q150 144 179 334q128 73 262 36q-12 -186 -99.5 -346t-232.5 -268q-101 100 -109 244zM1013 1262q-65 29 -114.5 84t-74.5 123q157 67 328 67q175 0 329 -67q-26 -70 -75 -124t-115 -83q-74 18 -136 18.5t-142 -18.5z
M655 38q-145 108 -232.5 268t-99.5 346q137 37 262 -36q30 -198 179 -334q-6 -143 -109 -244z" />
    <glyph glyph-name="ankh" unicode="ankh" horiz-adv-x="1280" 
d="M1184 768q40 0 68 -28t28 -68v-128q0 -40 -28 -68t-68 -28h-384v-608q0 -40 -28 -68t-68 -28h-128q-40 0 -68 28t-28 68v608h-384q-40 0 -68 28t-28 68v128q0 40 28 68t68 28h179q-147 235 -147 448q0 130 40 239t109.5 182.5t163 114t199.5 40.5t199.5 -40.5t163 -114
t109.5 -182.5t40 -239q0 -213 -147 -448h179zM640 1472q-89 0 -140.5 -69t-51.5 -187q0 -95 59.5 -210t132.5 -194q73 79 132.5 194t59.5 210q0 118 -51.5 187t-140.5 69z" />
    <glyph glyph-name="star-and-crescent" unicode="star&#x2d;and&#x2d;crescent" 
d="M1362 -74q26 0 43.5 -17.5t17.5 -41.5q0 -19 -11.5 -35t-29.5 -22q-176 -66 -358 -66q-208 0 -397.5 81.5t-326.5 218.5t-218.5 326.5t-81.5 397.5t81.5 397.5t218.5 326.5t326.5 218.5t397.5 81.5q184 0 359 -66q21 -7 32 -26.5t6 -41.5q-4 -21 -21 -34.5t-38 -13.5
q-2 0 -17 1t-20 1q-171 0 -327 -67t-269 -180t-180 -269.5t-67 -327.5t67 -327.5t180 -269.5t269 -180t327 -67q5 0 20 1t17 1zM2014 936q24 -1 32 -25.5t-10 -41.5l-221 -216l52 -304q4 -19 -8.5 -33t-30.5 -14q-12 0 -19 5l-273 144l-274 -144q-8 -5 -18 -5
q-20 0 -31 13.5t-8 33.5l52 304l-221 216q-18 17 -10 41t32 27l305 44l137 277q13 22 36 22q25 0 36 -22l136 -277z" />
    <glyph glyph-name="khanda" unicode="khanda" horiz-adv-x="2304" 
d="M1791 1532q223 -124 323.5 -354t33.5 -476q-50 -170 -165 -303l-210 -245q-14 -17 -37 -21.5t-42 6.5l-317 169l-117 -81l189 -131q12 4 20 4q40 0 68 -28t28 -68t-28 -68t-68 -28q-36 0 -62.5 24t-31.5 59l-163 114v-121q64 -38 64 -108q0 -51 -36 -88t-88 -37
q-51 0 -88 36.5t-37 88.5q0 71 64 108v120l-162 -113q-5 -35 -31.5 -59t-62.5 -24q-40 0 -68 26.5t-28 65.5q0 40 28 68t68 28q5 0 17 -4l188 131l-117 82l-317 -169q-19 -11 -41.5 -7t-37.5 21l-224 262q-83 97 -122 196q-53 133 -53.5 272t44.5 259t131.5 221t203.5 165
q19 11 42 8t38 -19t18.5 -36.5t-7.5 -39.5q-101 -161 -101 -350q1 -160 76 -299.5t208 -228.5l303 -214v80l-172 144q-24 26 -16 61l35 73q-103 59 -165 162t-62 226q0 119 58.5 219.5t159.5 159.5l-21 46q-18 34 14 64l237 211l235 -215q14 -10 17.5 -26.5t-3.5 -33.5
l-20 -46q100 -61 159 -162t59 -221q0 -123 -62 -226t-166 -162l32 -65q14 -35 -12 -61l-176 -145v-80l307 213q133 89 208.5 229.5t76.5 300.5q0 189 -101 350q-26 41 8 78q15 16 36.5 19.5t40.5 -7.5zM1407 1088q0 63 -28.5 117t-78.5 90l-31 -68q-54 -151 0 -303l23 -50
q53 35 84 91.5t31 122.5zM895 1088q0 -65 31.5 -122t84.5 -92l22 50q54 150 0 302l-31 69q-49 -36 -78 -90t-29 -117z" />
    <glyph glyph-name="peace" unicode="peace" 
d="M1024 1792q209 0 398.5 -81t326.5 -218t218 -326.5t81 -398.5t-81 -398.5t-218 -326.5t-326.5 -218t-398.5 -81t-398.5 81t-326.5 218t-218 326.5t-81 398.5t81 398.5t218 326.5t326.5 218t398.5 81zM896 12v490l-382 -306q165 -147 382 -184zM1152 502v-490
q223 43 382 184zM256 768q0 -201 97 -373l543 435v694q-180 -30 -326 -137t-230 -269.5t-84 -349.5zM1695 395q97 172 97 373q0 187 -84 349.5t-230 269.5t-326 137v-694z" />
    <glyph glyph-name="yin-yang" unicode="yin&#x2d;yang" 
d="M1024 1280q53 0 90.5 -37.5t37.5 -90.5t-37.5 -90.5t-90.5 -37.5t-90.5 37.5t-37.5 90.5t37.5 90.5t90.5 37.5zM1024 1792q209 0 398.5 -81t326.5 -218t218 -326.5t81 -398.5t-81 -398.5t-218 -326.5t-326.5 -218t-398.5 -81t-398.5 81t-326.5 218t-218 326.5t-81 398.5
t81 398.5t218 326.5t326.5 218t398.5 81zM1024 256q53 0 90.5 37.5t37.5 90.5t-37.5 90.5t-90.5 37.5t-90.5 -37.5t-37.5 -90.5t37.5 -90.5t90.5 -37.5zM1024 768q159 0 271.5 112.5t112.5 271.5t-112.5 271.5t-271.5 112.5q-209 0 -385.5 -103t-279.5 -279.5t-103 -385.5
t103 -385.5t279.5 -279.5t385.5 -103q-161 0 -272.5 112t-111.5 272q0 159 112.5 271.5t271.5 112.5z" />
    <glyph glyph-name="dharmachakra" unicode="dharmachakra" 
d="M1980 892q28 2 48 -17t20 -47v-120q0 -28 -20 -47t-48 -17l-65 8q-31 -232 -176 -423l49 -46q21 -18 22 -46t-19 -47l-85 -85q-20 -20 -47.5 -19t-45.5 22l-46 49q-188 -145 -423 -176l4 -69q2 -28 -17 -48t-47 -20h-120q-28 0 -47 20t-17 48l8 65q-232 31 -423 176
l-46 -49q-18 -21 -46 -22t-47 19l-85 85q-20 19 -19 47t22 46l49 46q-145 188 -176 423l-69 -4q-28 -2 -48 17t-20 47v120q0 28 20 47t48 17l69 -4q32 241 172 423l-48 45q-21 18 -22 46.5t19 47.5l85 84q19 20 47 19t46 -22l45 -52q188 145 423 176l-4 69q-2 28 17 48
t47 20h120q28 0 47 -20t17 -48l-5 -65q233 -31 424 -176l45 48q19 21 47 22t47 -19l81 -84q20 -20 19 -47.5t-22 -45.5l-49 -46q145 -188 176 -423zM1128 1397l-16 -256q60 -13 114 -47l171 192q-123 87 -269 111zM920 1397q-146 -24 -268 -111l170 -192q54 34 114 47z
M506 1140q-87 -119 -111 -268l256 -17q13 59 48 115zM395 664q24 -148 110 -268l193 170q-35 58 -47 114zM920 139l16 256q-58 13 -114 48l-171 -193q123 -87 269 -111zM1024 640q52 0 90 38t38 90t-38 90t-90 38t-90 -38t-38 -90t38 -90t90 -38zM1128 139q149 24 268 111
l-170 193q-52 -33 -114 -48zM1542 396q87 119 111 268l-256 16q-13 -58 -48 -114zM1397 856l256 15q-24 150 -111 269l-193 -170q33 -52 48 -114z" />
    <glyph glyph-name="face-frown" unicode="face&#x2d;frown" 
d="M0 768q0 -209 81 -398.5t218 -326.5t326.5 -218t398.5 -81t398.5 81t326.5 218t218 326.5t81 398.5t-81 398.5t-218 326.5t-326.5 218t-398.5 81t-398.5 -81t-326.5 -218t-218 -326.5t-81 -398.5zM637 237q-7 -25 -30.5 -37.5t-49.5 -4.5q-25 7 -37.5 30.5t-4.5 49.5
q50 162 191 265.5t318 103.5t318 -103.5t191 -265.5q8 -26 -4.5 -49.5t-37.5 -30.5q-26 -8 -49.5 4.5t-30.5 37.5q-37 120 -144 197.5t-243 77.5t-243 -77.5t-144 -197.5zM706 1088q53 0 90.5 -37.5t37.5 -90.5t-37.5 -90.5t-90.5 -37.5t-90.5 37.5t-37.5 90.5t37.5 90.5
t90.5 37.5zM1346 832q-53 0 -90.5 37.5t-37.5 90.5t37.5 90.5t90.5 37.5t90.5 -37.5t37.5 -90.5t-37.5 -90.5t-90.5 -37.5z" />
    <glyph glyph-name="mercury" unicode="mercury" horiz-adv-x="1536" 
d="M1472 900q0 -171 -75.5 -320.5t-206.5 -247.5t-294 -128v-76h128q26 0 45 -19t19 -45v-128q0 -26 -19 -45t-45 -19h-128v-64q0 -26 -19 -45t-45 -19h-128q-26 0 -45 19t-19 45v64h-128q-26 0 -45 19t-19 45v128q0 26 19 45t45 19h128v83q-162 28 -293.5 125.5t-207 245.5
t-75.5 318q0 161 70 303.5t192 240.5q-119 96 -192 256q-14 32 4.5 62t52.5 30h218q30 0 51 -25q52 -75 133.5 -119t174.5 -44q95 0 176 43t132 120q20 29 51 29h218q34 0 52.5 -30t4.5 -62q-67 -152 -192 -257q122 -99 192 -241.5t70 -305.5zM768 512q159 0 271.5 112.5
t112.5 271.5q0 156 -112.5 268t-271.5 112t-271.5 -110.5t-112.5 -269.5t112.5 -271.5t271.5 -112.5z" />
    <glyph glyph-name="venus" unicode="venus" horiz-adv-x="1536" 
d="M1472 1088q0 -170 -75.5 -317.5t-206.5 -245t-294 -125.5v-141h192q26 0 45 -19t19 -45v-128q0 -26 -19 -45t-45 -19h-192v-192q0 -26 -19 -45t-45 -19h-128q-26 0 -45 19t-19 45v192h-192q-26 0 -45 19t-19 45v128q0 26 19 45t45 19h192v141q-163 28 -294 125.5
t-206.5 245t-75.5 317.5q0 143 55.5 273.5t150 225t225 150t273.5 55.5t273.5 -55.5t225 -150t150 -225t55.5 -273.5zM768 704q159 0 271.5 112.5t112.5 271.5t-112.5 271.5t-271.5 112.5t-271.5 -112.5t-112.5 -271.5t112.5 -271.5t271.5 -112.5z" />
    <glyph glyph-name="mars" unicode="mars" horiz-adv-x="1792" 
d="M1724 1668q28 0 48 -19.5t20 -44.5v-454q0 -42 -29.5 -69t-67.5 -27q-36 0 -67 29l-119 118l-226 -226q94 -136 117.5 -298t-28 -320.5t-171.5 -278.5q-102 -101 -231.5 -153.5t-267.5 -52.5q-141 0 -273.5 55t-236.5 162q-125 128 -172 302t-7 350t160 309
q104 115 241 174t284 59q221 0 400 -124l226 226l-118 119q-46 45 -21 104.5t89 59.5h450zM974 304q112 112 112 272t-112 272t-272 112t-272 -112t-112 -272t112 -272t272 -112t272 112z" />
    <glyph glyph-name="chess-king" unicode="chess&#x2d;king" horiz-adv-x="1792" 
d="M1468 0q82 0 139 -56t57 -136q0 -26 -19 -45t-45 -19h-1408q-27 0 -45.5 19.5t-18.5 48.5q0 77 56.5 132.5t135.5 55.5h1148zM1664 1152q47 0 87.5 -35.5t40.5 -92.5q0 -20 -6 -38l-292 -858h-1196l-292 858q-6 18 -6 38q0 57 39 92.5t85 35.5h640v192h-64
q-51 0 -89.5 38t-38.5 90t38 90t90 38h64v64q0 52 38.5 90t89.5 38q55 0 93.5 -37.5t38.5 -90.5v-64h64q52 0 88.5 -37.5t39.5 -90.5q0 -52 -38 -90t-90 -38h-64v-192h640z" />
    <glyph glyph-name="chess-queen" unicode="chess&#x2d;queen" 
d="M1024 1344q-93 0 -160.5 65.5t-67.5 158.5t67.5 158.5t160.5 65.5t158.5 -65.5t65.5 -158.5t-65.5 -158.5t-158.5 -65.5zM1596 0q82 0 137.5 -55.5t58.5 -136.5q0 -26 -19 -45t-45 -19h-1408q-26 0 -45.5 19.5t-22.5 48.5q0 77 56.5 132.5t135.5 55.5h1152zM2044 1002
q0 -23 -3 -28l-410 -846h-1214l-410 846q-7 13 -7 28q0 33 25 53l114 64q16 10 34 10q22 0 42 -16.5t35.5 -36t49.5 -36t81 -16.5q49 0 87.5 21t60 53t32.5 65t11 63q0 23 16 38.5t41 15.5h155q18 0 32.5 -11t15.5 -29q14 -67 67 -109.5t121 -42.5q70 0 124 42.5t68 109.5
q4 18 18.5 29t32.5 11h155q19 0 35 -15.5t19 -37.5q0 -80 54 -141.5t138 -61.5q38 0 67.5 11t46 26.5t30.5 31t29.5 26.5t34.5 11q17 0 34 -11l110 -64q28 -19 28 -53z" />
    <glyph glyph-name="chess-rook" unicode="chess&#x2d;rook" horiz-adv-x="1536" 
d="M1472 1664q27 0 45.5 -18.5t18.5 -45.5v-704l-256 -128q0 -347 53 -640h-1130q53 293 53 640l-256 128v704q0 27 18.5 45.5t45.5 18.5h224q26 0 45 -18.5t19 -45.5v-192h192v192q0 27 18.5 45.5t45.5 18.5h320q27 0 45.5 -18.5t18.5 -45.5v-192h192v192q0 27 18.5 45.5
t45.5 18.5h224zM896 512v256q0 52 -38 90t-90 38t-90 -38t-38 -90v-256h256zM1344 0q80 0 136 -56t56 -136q0 -26 -19 -45t-45 -19h-1408q-27 0 -45.5 19.5t-18.5 48.5q0 76 56 132t132 56h1156z" />
    <glyph glyph-name="chess-bishop" unicode="chess&#x2d;bishop" horiz-adv-x="1280" 
d="M1088 0q80 0 136 -56t56 -136q0 -26 -19 -45t-45 -19h-1152q-26 0 -45 19t-19 45q0 80 56 136t136 56h896zM32 640q0 141 68.5 322t172 336t209.5 244q-43 11 -70.5 44.5t-27.5 77.5q0 52 38 90t90 38h256q52 0 90 -38t38 -90q0 -44 -27.5 -78t-70.5 -44
q147 -123 283 -370l-431 -432q-10 -10 -10 -23t9 -22l46 -45q10 -10 22 -10q13 0 23 10l401 401q107 -236 107 -410q0 -147 -57 -225.5t-167 -113.5v-174h-768v174q-110 35 -167 113t-57 225z" />
    <glyph glyph-name="chess-knight" unicode="chess&#x2d;knight" horiz-adv-x="1536" 
d="M76 702q-35 15 -55.5 47t-20.5 70v549q0 40 28 68l36 36l-57 114q-7 18 -7 30q0 20 14 34t34 14h592q156 0 298 -61.5t245 -164.5t163.5 -245t60.5 -297l1 -768h-1280v58q0 92 47.5 169t129.5 117l229 115q49 24 77.5 70.5t28.5 100.5v202l-88 -44q-40 -18 -51 -63
l-37 -123q-17 -60 -75 -82l-51 -20q-22 -9 -47 -9q-26 0 -53 11zM208 1280q-33 0 -56.5 -23.5t-23.5 -56.5t23.5 -56.5t56.5 -23.5t56.5 23.5t23.5 56.5t-23.5 56.5t-56.5 23.5zM1344 0q80 0 136 -56t56 -136q0 -26 -19 -45t-45 -19h-1408q-27 0 -45.5 19.5t-18.5 48.5
q0 76 56 132t132 56h1156z" />
    <glyph glyph-name="chess-pawn" unicode="chess&#x2d;pawn" horiz-adv-x="1280" 
d="M420 896q-90 57 -143 150t-53 202q0 174 119 295t293 121q175 0 297.5 -121.5t122.5 -294.5q0 -110 -53 -202.5t-143 -149.5h100q27 0 45.5 -19.5t18.5 -48.5v-128q0 -24 -18.5 -42t-45.5 -18h-64v-22q0 -151 20.5 -270.5t75.5 -219.5h-704q55 100 75.5 219.5t20.5 270.5
v22l-64 4q-27 0 -45.5 16.5t-18.5 43.5v128q0 27 18.5 45.5t45.5 18.5h100zM1088 0q80 0 136 -56t56 -136q0 -26 -19 -45t-45 -19h-1152q-27 0 -45.5 19.5t-18.5 48.5q0 76 56 132t132 56h900z" />
    <glyph glyph-name="spade" unicode="spade" 
d="M1888 1007l-776 735q-37 35 -88.5 35t-91.5 -35l-772 -735q-101 -95 -139.5 -225.5t-7 -263t126.5 -235.5q95 -101 226 -139.5t264 -7t234 126.5l32 31v-294h-128q-53 0 -90.5 -37.5t-37.5 -90.5t37.5 -90.5t90.5 -37.5h512q53 0 90.5 37.5t37.5 90.5t-37.5 90.5
t-90.5 37.5h-128v294l28 -31q103 -95 236.5 -126.5t265 7t226.5 139.5q96 103 127 235.5t-7.5 263t-139.5 225.5z" />
    <glyph glyph-name="club" unicode="club" 
d="M1536 1152h-20q20 59 20 128q0 212 -150 362t-362 150t-362 -150t-150 -362q0 -62 16 -128h-16q-212 0 -362 -150t-150 -362t150 -362t362 -150q113 0 212.5 46t171.5 127v-301h-128q-53 0 -90.5 -37.5t-37.5 -90.5t37.5 -90.5t90.5 -37.5h512q53 0 90.5 37.5t37.5 90.5
t-37.5 90.5t-90.5 37.5h-128v301q72 -81 171.5 -127t212.5 -46q212 0 362 150t150 362t-150 362t-362 150z" />
    <glyph glyph-name="heart" unicode="heart" 
d="M0 1028q0 -124 49.5 -238.5t140.5 -199.5l723 -674q47 -44 111 -44t111 44l723 674q91 84 140.5 198.5t49.5 239.5v24q0 210 -135.5 369.5t-342.5 194.5q-137 23 -269.5 -19.5t-232.5 -140.5l-44 -48l-48 48q-97 98 -230 140.5t-268 19.5q-207 -35 -342.5 -194.5
t-135.5 -369.5v-24z" />
    <glyph glyph-name="diamond" unicode="diamond" 
d="M2001 881l-864 864q-47 47 -113 47t-113 -47l-864 -864q-47 -47 -47 -113t47 -113l864 -864q47 -47 113 -47t113 47l864 864q47 47 47 113t-47 113z" />
    <glyph glyph-name="recycle" unicode="recycle" 
d="M721 820l-84 366q-6 26 -28.5 39.5t-48.5 8.5l-366 -85q-40 -9 -60 -42.5t-12 -72t43 -60.5l97 -61l-203 -326q-39 -62 -52 -132t-1.5 -134t44.5 -123t81.5 -102.5t114.5 -69.5t139 -26h127q53 0 90.5 37.5t37.5 90.5t-37.5 90.5t-90.5 37.5h-128q-49 0 -84.5 32
t-41.5 75.5t18 88.5l203 326l97 -61q54 -34 106.5 3.5t38.5 99.5zM1132 1476q-37 60 -107.5 60.5t-109.5 -60.5l-29 -47q-28 -45 -80 -57t-97 16q-44 28 -56 80t16 96l29 48q55 88 144 134.5t182 46.5t182 -47t144 -135l164 -263l98 60q54 34 106 -3.5t38 -99.5l-84 -365
q-6 -26 -29 -40t-48 -8l-365 84q-40 9 -60.5 42.5t-12.5 72t43 60.5l97 61zM1989 587q58 -93 58 -199t-47 -191t-137 -141t-200 -56h-383v-115q0 -31 -17.5 -54.5t-42 -34t-53.5 -6t-51 26.5l-266 265q-19 19 -19 45.5t19 45.5l266 266q45 45 104.5 20.5t59.5 -88.5v-115
h384q49 0 84.5 32t41.5 75.5t-18 88.5l-68 108q-28 45 -16 97t57 80t96.5 16t79.5 -57z" />
    <glyph glyph-name="dice-one" unicode="dice&#x2d;one" horiz-adv-x="1792" 
d="M1536 1664q106 0 181 -75t75 -181v-1280q0 -106 -75 -181t-181 -75h-1280q-106 0 -181 75t-75 181v1280q0 106 75 181t181 75h1280zM896 640q52 0 90 38t38 90t-38 90t-90 38t-90 -38t-38 -90t38 -90t90 -38z" />
    <glyph glyph-name="dice-two" unicode="dice&#x2d;two" horiz-adv-x="1792" 
d="M1536 1664q106 0 181 -75t75 -181v-1280q0 -106 -75 -181t-181 -75h-1280q-106 0 -181 75t-75 181v1280q0 106 75 181t181 75h1280zM512 1024q52 0 90 38t38 90t-38 90t-90 38t-90 -38t-38 -90t38 -90t90 -38zM1280 256q52 0 90 38t38 90t-38 90t-90 38t-90 -38t-38 -90
t38 -90t90 -38z" />
    <glyph glyph-name="dice-three" unicode="dice&#x2d;three" horiz-adv-x="1792" 
d="M1536 1664q106 0 181 -75t75 -181v-1280q0 -106 -75 -181t-181 -75h-1280q-106 0 -181 75t-75 181v1280q0 106 75 181t181 75h1280zM512 1024q52 0 90 38t38 90t-38 90t-90 38t-90 -38t-38 -90t38 -90t90 -38zM896 640q52 0 90 38t38 90t-38 90t-90 38t-90 -38t-38 -90
t38 -90t90 -38zM1280 256q52 0 90 38t38 90t-38 90t-90 38t-90 -38t-38 -90t38 -90t90 -38z" />
    <glyph glyph-name="dice-four" unicode="dice&#x2d;four" horiz-adv-x="1792" 
d="M1536 1664q106 0 181 -75t75 -181v-1280q0 -106 -75 -181t-181 -75h-1280q-106 0 -181 75t-75 181v1280q0 106 75 181t181 75h1280zM512 256q52 0 90 38t38 90t-38 90t-90 38t-90 -38t-38 -90t38 -90t90 -38zM512 1024q52 0 90 38t38 90t-38 90t-90 38t-90 -38t-38 -90
t38 -90t90 -38zM1280 256q52 0 90 38t38 90t-38 90t-90 38t-90 -38t-38 -90t38 -90t90 -38zM1280 1024q52 0 90 38t38 90t-38 90t-90 38t-90 -38t-38 -90t38 -90t90 -38z" />
    <glyph glyph-name="dice-five" unicode="dice&#x2d;five" horiz-adv-x="1792" 
d="M1536 1664q106 0 181 -75t75 -181v-1280q0 -106 -75 -181t-181 -75h-1280q-106 0 -181 75t-75 181v1280q0 106 75 181t181 75h1280zM512 256q52 0 90 38t38 90t-38 90t-90 38t-90 -38t-38 -90t38 -90t90 -38zM512 1024q52 0 90 38t38 90t-38 90t-90 38t-90 -38t-38 -90
t38 -90t90 -38zM896 640q52 0 90 38t38 90t-38 90t-90 38t-90 -38t-38 -90t38 -90t90 -38zM1280 256q52 0 90 38t38 90t-38 90t-90 38t-90 -38t-38 -90t38 -90t90 -38zM1280 1024q52 0 90 38t38 90t-38 90t-90 38t-90 -38t-38 -90t38 -90t90 -38z" />
    <glyph glyph-name="dice-six" unicode="dice&#x2d;six" horiz-adv-x="1792" 
d="M1536 1664q106 0 181 -75t75 -181v-1280q0 -106 -75 -181t-181 -75h-1280q-106 0 -181 75t-75 181v1280q0 106 75 181t181 75h1280zM512 256q52 0 90 38t38 90t-38 90t-90 38t-90 -38t-38 -90t38 -90t90 -38zM512 640q52 0 90 38t38 90t-38 90t-90 38t-90 -38t-38 -90
t38 -90t90 -38zM512 1024q52 0 90 38t38 90t-38 90t-90 38t-90 -38t-38 -90t38 -90t90 -38zM1280 256q52 0 90 38t38 90t-38 90t-90 38t-90 -38t-38 -90t38 -90t90 -38zM1280 640q52 0 90 38t38 90t-38 90t-90 38t-90 -38t-38 -90t38 -90t90 -38zM1280 1024q52 0 90 38
t38 90t-38 90t-90 38t-90 -38t-38 -90t38 -90t90 -38z" />
    <glyph glyph-name="anchor" unicode="anchor" horiz-adv-x="2304" 
d="M1408 1088h-44q78 54 125 138t47 182q0 159 -112.5 271.5t-271.5 112.5q-161 0 -272.5 -112t-111.5 -272q0 -99 46.5 -183t125.5 -137h-44q-53 0 -90.5 -37.5t-37.5 -90.5t37.5 -90.5t90.5 -37.5h128v-832h-192q-161 0 -272.5 112t-111.5 272v24l28 -24q28 -31 67 -31
t65 31q31 26 31 64.5t-31 67.5l-220 224q-28 28 -68 28t-68 -28l-224 -224q-28 -28 -28 -67t28 -65q28 -31 68 -31t68 31l28 24v-24q0 -130 50.5 -248.5t136.5 -204.5t204.5 -136.5t248.5 -50.5h640q130 0 248.5 50.5t204.5 136.5t136.5 204.5t50.5 248.5v24l28 -24
q28 -31 67 -31t65 31q31 26 31 65t-31 67l-224 224q-26 28 -65 28t-67 -28l-224 -224q-28 -28 -28 -67t28 -65q28 -31 67 -31t65 31l32 24v-24q0 -159 -112.5 -271.5t-271.5 -112.5h-192v832h128q53 0 90.5 37.5t37.5 90.5t-37.5 90.5t-90.5 37.5zM1152 1280
q-53 0 -90.5 37.5t-37.5 90.5t37.5 90.5t90.5 37.5t90.5 -37.5t37.5 -90.5t-37.5 -90.5t-90.5 -37.5z" />
    <glyph glyph-name="swords" unicode="swords" 
d="M1238 234l-1184 1184l-53 313q-4 27 14.5 45.5t45.5 14.5l313 -53l1180 -1184zM2029 -56q19 -18 18 -45.5t-22 -45.5l-90 -90q-19 -19 -45.5 -19t-45.5 19l-237 237l-232 -127q-19 -10 -41 -7t-34 18l-71 71q-19 18 -19 44.5t19 45.5l517 517q19 19 45.5 19t45.5 -19
l70 -70q34 -34 11 -75l-126 -236zM1994 1418l-560 -560l-316 320l556 560l313 53q26 4 45 -14.5t15 -45.5zM614 677l316 -320l-214 -213l99 -99q19 -18 19 -44.5t-19 -45.5l-70 -71q-15 -15 -36 -18t-40 7l-232 127l-237 -237q-19 -19 -45.5 -19t-45.5 19l-90 90
q-19 19 -19 45.5t19 45.5l237 237l-126 236q-20 36 11 75l70 71q18 19 44.5 19t45.5 -19l99 -99z" />
    <glyph glyph-name="scale-balanced" unicode="balance&#x2d;scale" horiz-adv-x="2560" 
d="M2220 1174q295 -589 316 -637q22 -49 24 -83v-6q0 -132 -148 -226t-360 -94q-139 0 -257 43t-186.5 116.5t-68.5 160.5q0 35 11 63q18 50 227 468q56 112 98 195q34 69 103 94.5t138 -0.5t103 -94zM1756 512h577l-289 576zM1024 448q0 -86 -69.5 -160t-187.5 -117
t-255 -43t-254 42.5t-185.5 116.5t-68.5 161q0 35 11 63q18 50 227 468q56 112 98 195q34 69 103 94.5t138 -0.5t103 -94q73 -146 175 -349q124 -245 144.5 -291.5t20.5 -82.5v-3zM512 1088l-288 -576h576zM1980 0q82 0 139 -56t57 -136q0 -26 -19 -45t-45 -19h-1664
q-26 0 -45 19t-19 45q0 80 56 136t136 56h572v1179q-71 31 -120 91.5t-65 137.5h-455q-51 0 -87.5 37.5t-36.5 90.5t37.5 90.5t90.5 37.5h514q42 59 109.5 93.5t144.5 34.5t143.5 -34t110.5 -94h514q51 0 87.5 -37.5t36.5 -90.5q0 -54 -35.5 -91t-88.5 -37h-454
q-16 -77 -65.5 -137.5t-120.5 -91.5v-1179h572z" />
    <glyph glyph-name="flower-daffodil" unicode="flower&#x2d;daffodil" 
d="M1984 516q27 0 47 -22t17 -50q-15 -145 -91 -274.5t-194.5 -223t-277.5 -148t-332 -54.5h-257q-139 0 -269.5 35.5t-238 100t-191 151t-134.5 194t-63 223.5q-3 27 16.5 47.5t47.5 20.5l190 -4q186 0 351.5 -61t290.5 -170v386q-112 -49 -227.5 -11.5t-177.5 143.5
q-61 108 -36 226.5t123 190.5q-76 55 -109.5 143.5t-13.5 180.5q20 91 86 158t155 87q95 19 183.5 -14t144.5 -109q55 75 143 109t181 17q92 -19 158.5 -86t86.5 -159q19 -92 -14 -180t-109 -144q99 -72 124 -191t-37 -225t-177.5 -143.5t-227.5 11.5v-387
q125 109 291 170.5t352 61.5h189zM1024 1028q80 0 136 56t56 136t-56 136t-136 56t-136 -56t-56 -136t56 -136t136 -56z" />
    <glyph glyph-name="gear" unicode="cog" 
d="M1984 1126q-26 69 -63 137l-19 32q-37 63 -88 125q-18 21 -45 28.5t-53 -1.5l-223 -71q-79 60 -176 102l-50 229q-6 27 -26 47t-47 24q-86 14 -170 14t-170 -14q-27 -4 -47 -24t-26 -47l-50 -229q-91 -38 -176 -102l-222 71q-26 9 -53 1.5t-45 -28.5q-54 -66 -89 -125
l-19 -32q-37 -68 -63 -137q-9 -27 -2 -53.5t28 -45.5l173 -157q-7 -58 -7 -102t7 -102l-173 -157q-21 -19 -28 -46t2 -53q26 -69 63 -137l19 -32q31 -53 89 -125q40 -46 98 -28l222 72q85 -64 176 -102l50 -229q12 -55 73 -71q86 -14 166 -14q88 0 174 14q61 16 73 71
l50 229q97 42 176 102l223 -72q58 -18 98 28q54 68 88 125l19 32q37 68 63 137q9 26 2 53t-28 46l-173 157q7 58 7 102t-7 102l173 157q21 19 28 46t-2 53zM1024 448q-133 0 -226.5 94.5t-93.5 229.5q0 130 94 225t226 95t226 -95t94 -225q0 -135 -93.5 -229.5t-226.5 -94.5
z" />
    <glyph glyph-name="atom" unicode="atom" 
d="M1024 896q52 0 90 -38t38 -90q0 -53 -37.5 -90.5t-90.5 -37.5t-92.5 38t-39.5 90t39.5 90t92.5 38zM1881 1280q34 -62 39 -136t-29 -172t-111 -204q77 -105 111.5 -203.5t29.5 -172.5t-40 -136q-24 -43 -60 -75.5t-72.5 -51t-82 -29.5t-79 -14.5t-75 -3t-58 2t-38.5 4.5
q-68 -161 -167 -253t-225 -92t-224.5 91.5t-166.5 252.5q-22 -3 -39 -4.5t-58 -2t-75 3.5t-79.5 15t-82 29.5t-72.5 51t-60 75.5q-35 62 -40 135.5t29.5 172t111.5 204.5q-77 106 -111.5 204t-29.5 172t40 136q15 27 36 50.5t59.5 52t87.5 44t121.5 25t160.5 -3.5
q67 161 166.5 252.5t225.5 91.5t225.5 -91.5t166.5 -252.5q88 13 160.5 3.5t121.5 -25t87.5 -44t59.5 -52t36 -50.5zM381 384q12 -21 58.5 -34t116.5 -10q-19 92 -27 161q-47 38 -88 76q-43 -67 -58 -118.5t-2 -74.5zM529 1036q7 64 27 160q-4 0 -12 1t-11 1
q-61 0 -101 -13.5t-51 -32.5q-13 -23 2 -74.5t58 -118.5q49 46 88 77zM1024 1536q-29 0 -65.5 -39.5t-70.5 -109.5q65 -22 136 -51q71 29 136 51q-35 71 -71 110t-65 39zM1024 0q29 0 65.5 39.5t70.5 109.5q-80 27 -136 51q-71 -29 -136 -51q35 -71 71 -110t65 -39z
M1024 448q132 0 226 94t94 226t-94 226t-226 94t-226 -94t-94 -226t93.5 -226t226.5 -94zM1667 384q13 23 -2 74.5t-58 118.5q-41 -38 -88 -76q-9 -82 -27 -161q70 -3 116.5 10t58.5 34zM1607 959q43 67 58 118.5t2 74.5q-10 19 -50.5 32.5t-101.5 13.5q-3 0 -11 -0.5
t-12 -0.5q18 -79 27 -161q39 -31 88 -77z" />
    <glyph glyph-name="triangle-exclamation" unicode="exclamation&#x2d;triangle" 
d="M2025 124q26 -42 23 -86.5t-23.5 -81.5t-60 -60.5t-87.5 -23.5h-1706q-48 0 -88 23.5t-60 60.5t-23 81.5t23 86.5l853 1456q32 54 90 74.5t116 0t90 -74.5zM928 1120v-512q0 -39 31 -67.5t69 -28.5q37 0 64.5 28.5t27.5 67.5v512q0 40 -28 68t-68 28t-68 -28t-28 -68z
M1024 128q52 0 89 37t37 89t-37 89t-89 37t-89 -37t-37 -89t37 -89t89 -37z" />
    <glyph glyph-name="bolt" unicode="bolt" horiz-adv-x="1536" 
d="M962 896l308 718q18 41 5.5 84.5t-48.5 69.5t-80.5 23.5t-78.5 -31.5l-1024 -896q-30 -26 -40 -64.5t4 -76.5q14 -37 46 -60t70 -23h450l-308 -718q-18 -41 -5.5 -84.5t48.5 -69.5t80.5 -23.5t78.5 31.5l1024 896q30 27 39 65t-7 76q-11 37 -43.5 60t-72.5 23h-446z" />
    <glyph glyph-name="venus-double" unicode="venus&#x2d;double" horiz-adv-x="2560" 
d="M1472 1088q0 -170 -75.5 -317.5t-206.5 -245t-294 -125.5v-141h192q26 0 45 -19t19 -45v-128q0 -26 -19 -45t-45 -19h-192v-192q0 -26 -19 -45t-45 -19h-128q-26 0 -45 19t-19 45v192h-192q-26 0 -45 19t-19 45v128q0 26 19 45t45 19h192v141q-163 28 -294 125.5
t-206.5 245t-75.5 317.5q0 143 55.5 273.5t150 225t225 150t273.5 55.5t273.5 -55.5t225 -150t150 -225t55.5 -273.5zM768 704q159 0 271.5 112.5t112.5 271.5t-112.5 271.5t-271.5 112.5t-271.5 -112.5t-112.5 -271.5t112.5 -271.5t271.5 -112.5zM2496 1088
q0 -170 -75.5 -318t-206.5 -246t-294 -128v-140h192q26 0 45 -19t19 -45v-128q0 -26 -19 -45t-45 -19h-192v-192q0 -26 -19 -45t-45 -19h-128q-26 0 -45 19t-19 45v192h-192q-26 0 -45 19t-19 45v128q0 26 19 45t45 19h192v144q-151 23 -287 123q111 120 168 273
q108 -92 247 -92q159 0 271.5 112.5t112.5 271.5t-112.5 271.5t-271.5 112.5q-136 0 -246 -92q-59 157 -170 275q186 137 416 137q143 0 273.5 -55.5t225 -150t150 -225t55.5 -273.5z" />
    <glyph glyph-name="mars-double" unicode="mars&#x2d;double" horiz-adv-x="2560" 
d="M1283 975q94 -136 117.5 -298t-28 -320.5t-171.5 -278.5q-137 -136 -320.5 -183.5t-366.5 2.5t-318 189q-125 128 -172 302t-7 349.5t160 308.5q119 132 282.5 191t332.5 37.5t310 -118.5l226 226l-118 118q-46 45 -21 104.5t89 59.5h450q27 0 45.5 -17t18.5 -43v-454
q0 -41 -29 -68.5t-65.5 -27t-69.5 28.5l-119 118zM974 304q112 112 112 272t-112 272t-272 112t-272 -112t-112 -272t112 -272t272 -112t272 112zM2492 1664q29 0 48.5 -18.5t19.5 -45.5v-450q0 -42 -29.5 -69t-67.5 -27t-67 29l-119 118l-226 -226q94 -136 117.5 -298
t-28 -320.5t-171.5 -278.5q-102 -101 -231.5 -153.5t-267.5 -52.5q-128 0 -254 49q40 31 76 67q90 90 151 207q3 0 8.5 -1t10 -1.5t8.5 -0.5q159 0 272 113q112 113 112 272t-112 271q-31 31 -78 58v24q20 -4 31 -4q93 0 159 65.5t66 158.5v56l172 176l-118 118
q-46 45 -21 104.5t89 59.5h450z" />
    <glyph glyph-name="venus-mars" unicode="venus&#x2d;mars" horiz-adv-x="2560" 
d="M1024 256q26 0 45 -18.5t19 -42.5v-128q0 -26 -19 -45t-45 -19h-192v-192q0 -26 -19 -45t-45 -19h-128q-26 0 -45 19t-19 45v192h-192q-26 0 -45 19t-19 45v128q0 26 19 45t45 19h192v141q-163 28 -294 125.5t-206.5 245t-75.5 317.5q0 143 55.5 273.5t150 225t225 150
t273.5 55.5t273.5 -55.5t225 -150t150 -225t55.5 -273.5q0 -170 -75.5 -318t-206.5 -246t-294 -128v-140h192zM704 704q159 0 271.5 112.5t112.5 271.5t-112.5 271.5t-271.5 112.5t-271.5 -112.5t-112.5 -271.5t112.5 -271.5t271.5 -112.5zM2496 1792q26 0 45 -19t19 -45
v-450q0 -42 -29 -69t-67 -27q-39 0 -68 29l-118 118l-98 -98q94 -136 117.5 -298t-28 -320.5t-171.5 -278.5q-102 -101 -231.5 -153.5t-266.5 -52.5q-214 0 -393 119q-24 79 -95 116q127 71 227 189q112 -104 261 -104q159 0 271 112q74 74 100 173t0 198t-100 173
q-112 112 -271 112q-40 0 -74 -7q-24 162 -107 302q92 25 181 25q220 0 399 -124l98 98l-118 118q-22 22 -27 51t5 53.5t34 42t55 17.5h450z" />
    <glyph glyph-name="mars-and-venus" unicode="mars&#x2d;and&#x2d;venus" 
d="M1920 1792q26 0 45 -19t19 -45v-450q0 -41 -29 -69t-65.5 -27t-69.5 29l-118 118l-122 -122q84 -149 84 -311q0 -231 -145.5 -406.5t-366.5 -220.5v-77h128q26 0 45 -19t19 -45v-124q0 -26 -19 -45t-45 -19h-128v-128q0 -26 -19 -45t-45 -19h-128q-26 0 -45 19t-19 45
v128h-128q-26 0 -45 19t-19 45v124q0 26 19 45t45 19h128v77q-221 45 -366.5 221t-145.5 406q0 130 51 248.5t136.5 204t204 136.5t248.5 51q212 0 388 -135l109 109l-118 118q-22 22 -27 51t5 53.5t34 42t55 17.5h450zM1024 576q132 0 226 94t94 226t-94 226t-226 94
t-226 -94t-94 -226t94 -226t226 -94z" />
    <glyph glyph-name="mars-stroke" unicode="mars&#x2d;stroke" 
d="M1984 1792q26 0 45 -19t19 -45v-450q0 -41 -29 -69t-65.5 -27t-69.5 29l-118 118l-97 -97l135 -136q19 -19 19 -45.5t-19 -45.5l-90 -90q-19 -19 -45.5 -19t-45.5 19l-135 136l-76 -76q94 -136 117.5 -298t-28 -320.5t-171.5 -278.5q-135 -135 -316.5 -183t-363 0
t-316.5 183t-183 316.5t0 363t183 316.5q120 120 278.5 171.5t320.5 28t298 -117.5l75 75l-135 136q-19 19 -19 45.5t19 45.5l90 90q19 19 45.5 19t45.5 -19l135 -135l98 97l-118 118q-22 22 -27 51t5 53.5t34 42t55 17.5h450zM1104 304q112 112 112 272t-112 272t-272 112
t-272 -112t-112 -272t112 -272t272 -112t272 112z" />
    <glyph glyph-name="transgender" unicode="transgender&#x2d;alt" 
d="M1994 1792q20 0 37 -16t17 -38v-377q0 -54 -50 -74.5t-88 17.5l-84 85l-268 -268q106 -160 106 -353q0 -231 -145.5 -406.5t-366.5 -220.5v-77l64 -4q26 0 45 -19t19 -45v-60q0 -26 -19 -45t-45 -19h-64v-64q0 -26 -19 -45t-45 -19h-128q-26 0 -45 19t-19 45v64l-64 3
q-26 0 -45 19t-19 45v61q0 26 19 45t45 19h64v77q-221 45 -366.5 221t-145.5 406q0 192 106 352l-65 66l-24 -25q-19 -19 -45 -19t-45 19l-46 46q-19 19 -19 45t19 45l25 24l-68 68l-84 -85q-38 -38 -88 -17.5t-50 74.5v377q0 22 16 38t38 16h377q54 0 74.5 -50t-17.5 -88
l-84 -84l67 -68l24 25q19 19 45 19t45 -19l46 -45q19 -19 19 -45.5t-19 -45.5l-25 -24l66 -65q160 106 352 106t352 -106l268 268l-84 84q-38 38 -17.5 88t74.5 50h377zM1024 448q132 0 226 94t94 226t-94 226t-226 94t-226 -94t-94 -226t94 -226t226 -94z" />
    <glyph glyph-name="mars-stroke-up" unicode="mars&#x2d;stroke&#x2d;up" horiz-adv-x="1536" 
d="M896 1140q163 -30 294 -128t206.5 -246t75.5 -318q0 -145 -57 -276t-152.5 -224t-228 -145t-276.5 -45q-179 3 -335 93t-252.5 242.5t-105.5 330.5q-7 133 34.5 257.5t118.5 220.5t186.5 162.5t235.5 89.5v76h-96q-14 0 -23 8t-9 21v60q0 11 9.5 20t22.5 9h96v60h-99
q-49 0 -68 46t16 80l244 244q14 14 35 14t35 -14l244 -244q35 -34 16 -80t-68 -46h-99v-68h96q32 0 32 -28v-68q0 -11 -9.5 -19.5t-22.5 -8.5h-96v-76zM768 68q159 0 271.5 112t112.5 268t-112.5 268t-271.5 112t-271.5 -112t-112.5 -268t112.5 -268t271.5 -112z" />
    <glyph glyph-name="mars-stroke-right" unicode="mars&#x2d;stroke&#x2d;right" horiz-adv-x="2560" 
d="M2477 813q19 -19 19 -45t-19 -45l-329 -311q-45 -45 -104.5 -20.5t-59.5 88.5v160l-135 4v-196q0 -27 -17 -45.5t-43 -18.5h-128q-26 0 -45 19t-19 45v192h-77q-28 -163 -125.5 -294t-245 -206.5t-317.5 -75.5q-143 0 -273.5 55.5t-225 150t-150 225t-55.5 273.5
t56 273.5t150.5 225t225.5 150t275 55.5q168 0 315.5 -75.5t245.5 -206.5t128 -294h76v192q0 26 19 45t45 19h128q24 0 42 -19t18 -45v-192l132 4v156q0 64 59.5 88.5t104.5 -20.5zM832 384q159 0 271 112.5t109 271.5q0 159 -110.5 271.5t-269.5 112.5t-271.5 -112.5
t-112.5 -271.5t112.5 -271.5t271.5 -112.5z" />
    <glyph glyph-name="coffin" unicode="coffin" horiz-adv-x="1792" 
d="M1632 1331q24 -23 33.5 -56t1.5 -66l-349 -1368q-11 -45 -45.5 -71t-80.5 -26h-579q-45 0 -80.5 27t-46.5 70l-348 1369q-18 71 34 121l431 424q39 37 93 37h413q54 0 92 -38z" />
    <glyph glyph-name="neuter" unicode="neuter" horiz-adv-x="1536" 
d="M1472 1088q0 -170 -75.5 -318t-206.5 -246t-294 -128v-588q0 -26 -19 -45t-45 -19h-128q-26 0 -45 19t-19 45v592q-163 28 -294 125.5t-206.5 245t-75.5 317.5q0 143 55.5 273.5t150 225t225 150t273.5 55.5t273.5 -55.5t225 -150t150 -225t55.5 -273.5zM768 704
q159 0 271.5 112.5t112.5 271.5q0 156 -112.5 268t-271.5 112t-271.5 -110.5t-112.5 -269.5t112.5 -271.5t271.5 -112.5z" />
    <glyph glyph-name="futbol" unicode="futbol&#x2d;ball" 
d="M708 878l316 226l312 -226l-118 -366h-386zM1020 1792q209 0 399 -82t327 -220.5t217.5 -328.5t80.5 -397q0 -166 -51 -321.5t-145.5 -281t-219.5 -220t-281 -146t-323 -51.5q-209 0 -398.5 81t-326.5 218t-218 326.5t-81 398.5q0 167 51.5 323.5t146 282t220 220.5
t281 146.5t321.5 51.5zM1666 348q114 173 124 382l-279 196l110 324q-130 161 -324 235l-273 -205l-273 205q-195 -75 -325 -235l111 -324l-279 -196q10 -207 124 -382l341 6l101 -327q102 -27 200 -27t200 27l101 327z" />
    <glyph glyph-name="baseball" unicode="baseball&#x2d;ball" 
d="M1718 700q0 -24 15 -40t28.5 -20t22.5 -4q2 0 12 1t26.5 2t34.5 1q90 0 179 -23q-33 -219 -152 -403.5t-303.5 -304t-403.5 -152.5q-25 97 -25 178q0 23 1.5 42.5t1.5 20.5q0 26 -20 45t-42 19q-25 0 -44.5 -17t-21.5 -42q-3 -34 -3 -68q0 -84 24 -190q-4 0 -12 -0.5
t-12 -0.5q-209 0 -398.5 81t-326.5 218t-218 326.5t-81 398.5q0 4 0.5 13t0.5 11q99 -24 192 -24h14q26 0 42.5 1.5t36.5 7.5t30 20.5t10 37.5q0 31 -21.5 47.5t-44.5 16.5q-2 0 -11.5 -0.5t-25 -1.5t-33.5 -1q-89 0 -178 23q33 219 152 403.5t303.5 304t403.5 152.5
q25 -97 25 -178q0 -17 -1 -32t-1.5 -24t-0.5 -11q0 -31 21 -47.5t43 -16.5q25 0 43.5 17t20.5 42q3 36 3 72q0 91 -24 190q2 0 11 0.5t13 0.5q209 0 398.5 -81t326.5 -218t218 -326.5t81 -398.5q0 -4 -0.5 -12t-0.5 -12q-102 24 -197 24h-12q-26 0 -43 -1.5t-37 -7.5
t-30 -21t-10 -38zM953 1276q0 21 -15.5 43.5t-48.5 24.5q-22 0 -40 -17.5t-33 -46.5t-41 -68.5t-58.5 -79.5t-91.5 -85t-134 -81q-37 -18 -37 -58q0 -27 19 -45.5t45 -18.5q58 0 163.5 84.5t188.5 189t83 158.5zM1590 630q0 25 -18.5 44.5t-45.5 19.5q-57 0 -162 -85.5
t-187.5 -192t-82.5 -160.5q0 -20 15.5 -42t48.5 -22q25 0 45 24.5t44 66.5t56.5 89.5t97.5 103t152 96.5q37 18 37 58z" />
    <glyph glyph-name="cloud-sun" unicode="cloud&#x2d;sun" horiz-adv-x="2560" 
d="M384 960q0 -167 108 -291t270 -150q-79 -65 -127 -156t-56 -196l-43 -30q-22 -16 -47.5 -5.5t-29.5 37.5l-64 354l-354 64q-27 4 -37.5 29.5t5.5 47.5l205 296l-205 296q-16 22 -5.5 47.5t37.5 29.5l354 64l64 354q4 27 29.5 37.5t47.5 -5.5l296 -205l296 205
q22 16 47.5 5.5t29.5 -37.5l64 -354l351 -64q27 -4 37.5 -29.5t-5.5 -47.5l-97 -139q-27 3 -55 3q-121 0 -238 -57q-36 149 -156.5 245t-277.5 96q-120 0 -222.5 -59t-162 -161.5t-59.5 -223.5zM512 960q0 133 93.5 226.5t226.5 93.5q123 0 213.5 -82.5t103.5 -203.5
q-165 -130 -207 -333q-57 -21 -110 -21q-133 0 -226.5 93.5t-93.5 226.5zM2301 490q114 -39 184.5 -138t70.5 -224q0 -159 -112.5 -271.5t-271.5 -112.5h-1088q-160 0 -271 113t-106 271q0 151 103 261t253 121q0 6 -2 17t-2 17q0 183 131.5 313.5t316.5 130.5
q135 0 245 -71t163 -189q64 40 136 40q103 0 178 -75t75 -181q0 -4 -1.5 -11t-1.5 -11z" />
    <glyph glyph-name="cloud-rain" unicode="cloud&#x2d;rain" 
d="M1664 1280q159 0 271.5 -112.5t112.5 -271.5t-112.5 -271.5t-271.5 -112.5h-1280q-159 0 -271.5 112.5t-112.5 271.5q0 126 74 225.5t191 137.5q-9 42 -9 85q0 185 131 316.5t317 131.5q128 0 233.5 -66.5t162.5 -176.5q97 115 244 115q133 0 226.5 -93.5t93.5 -226.5
q0 -34 -6 -65q1 0 3 0.5t3 0.5zM1472 -64q0 47 48 142t96 166l48 72q8 -11 21 -30t46 -72t58 -99t46 -97.5t21 -81.5q0 -80 -56 -136t-136 -56t-136 56t-56 136zM192 -64q0 47 48 142t96 166l48 72q8 -11 21 -30t46 -72t58 -99t46 -97.5t21 -81.5q0 -80 -56 -136t-136 -56
t-136 56t-56 136zM832 -64q0 47 48 142t96 166l48 72q8 -11 21 -30t46 -72t58 -99t46 -97.5t21 -81.5q0 -80 -56 -136t-136 -56t-136 56t-56 136z" />
    <glyph glyph-name="truck" unicode="truck" horiz-adv-x="2560" 
d="M1472 1792h-1280q-80 0 -136 -56t-56 -136v-1280q0 -80 56 -136t136 -56h64q0 -160 111.5 -272t272.5 -112q159 0 271.5 112.5t112.5 271.5h512q0 -160 111.5 -272t272.5 -112q159 0 271.5 112.5t112.5 271.5h128q53 0 90.5 37.5t37.5 90.5t-37.5 90.5t-90.5 37.5v459
q0 106 -75 181l-309 309q-81 75 -181 75h-203v192q0 80 -56 136t-136 56zM1664 1152h203l309 -309v-75h-512v384zM640 320q80 0 136 -56t56 -136t-56 -136t-136 -56t-136 56t-56 136t56 136t136 56zM1920 -64q-80 0 -136 56t-56 136t56 136t136 56t136 -56t56 -136t-56 -136
t-136 -56z" />
    <glyph glyph-name="shield-cross" unicode="shield&#x2d;cross" 
d="M1866 1457q53 -22 85.5 -69.5t32.5 -103.5q0 -211 -42.5 -408t-112 -347.5t-159 -281t-183 -221.5t-183.5 -156t-162 -95.5t-118 -30.5q-39 0 -99.5 24.5t-136 70.5t-157.5 120.5t-163 167t-154 217t-128.5 264t-88.5 314.5t-33 362q0 56 32 103.5t86 69.5l768 320
q38 15 74 15t74 -15zM1685 896q17 77 37 256h-570v325l-128 54l-128 -54v-325h-571q10 -134 39 -256h532v-818q66 -44 128 -72q53 24 128 75v815h533z" />
    <glyph glyph-name="torii-gate" unicode="torii&#x2d;gate" 
d="M0 1472q0 -80 56 -136t136 -56h64v-256h256v256h384v-256h256v256h384v-256h256v256h64q80 0 136 56t56 136v320l-286 -95q-97 -33 -202 -33h-1076q-102 0 -199 33l-285 95v-320zM128 640h128v-768q0 -53 37.5 -90.5t90.5 -37.5t90.5 37.5t37.5 90.5v768h1024v-768
q0 -53 37.5 -90.5t90.5 -37.5t90.5 37.5t37.5 90.5v768h128q53 0 90.5 37.5t37.5 90.5t-37.5 90.5t-90.5 37.5h-1792q-53 0 -90.5 -37.5t-37.5 -90.5t37.5 -90.5t90.5 -37.5z" />
    <glyph glyph-name="church" unicode="church" horiz-adv-x="2560" 
d="M1376 1600v96q0 40 -28 68t-68 28t-68 -28t-28 -68v-96h-128q-40 0 -68 -28t-28 -68t28 -68t68 -28h128v-186l-451 -270q-44 -26 -68.5 -70t-24.5 -95v-1043h384v384q0 106 75 181t181 75t181 -75t75 -181v-384h384v1043q0 51 -24.5 95t-68.5 70l-451 270v186h128
q40 0 68 28t28 68t-28 68t-68 28h-128zM99 471q-46 -25 -72.5 -70.5t-26.5 -98.5v-366q0 -80 56 -136t136 -56h320v954zM2368 -256q80 0 136 56t56 136v366q0 53 -27 98.5t-73 70.5l-412 227v-954h320z" />
    <glyph glyph-name="mountains" unicode="mountains" horiz-adv-x="2560" 
d="M224 -128h2092q101 0 172.5 71.5t71.5 172.5q0 69 -36 128l-528 865q-26 43 -76 43q-24 0 -45 -12t-31 -31l-193 -316l-504 803q-44 68 -123 68q-37 0 -70 -18t-53 -50l-867 -1382q-34 -56 -34 -118q0 -91 66 -157.5t158 -66.5z" />
    <glyph glyph-name="person-skiing" unicode="person&#x2d;skiing" 
d="M1728 1408q-80 0 -136 56t-56 136t56 136t136 56t136 -56t56 -136t-56 -136t-136 -56zM2044 -84q0 -57 -84 -114.5t-192 -57.5q-78 0 -148 32l-1568 811q-52 27 -52 85q0 38 27.5 67t68.5 29q22 0 44 -11l792 -409l183 275l-300 301q-73 73 -73 179q0 25 2 38l425 -212
l161 -162q57 -57 57 -136q0 -58 -33 -106l-196 -295l543 -281q31 -14 63 -14q36 0 63.5 12t41 26t34.5 26t46 12q39 0 67 -27t28 -68zM476 1425l-101 93q-7 6 -7 16q0 9 6.5 15t14.5 6q1 0 4 -1l139 -28l44 87q40 -20 62 -57t22 -81v-4l250 -124l325 129q49 20 97 20
q86 0 152 -54.5t89 -118.5l68 -205l208 -104q33 -16 52 -47.5t19 -67.5q0 -51 -36.5 -89.5t-91.5 -38.5q-29 0 -57 14l-232 112q-72 37 -96 111l-26 77l-130 -52l-458 227l1 1l-189 94q-43 -37 -100 -37q-35 0 -71 17z" />
    <glyph glyph-name="ice-skate" unicode="ice&#x2d;skate" horiz-adv-x="2304" 
d="M256 256q-53 0 -90.5 37.5t-37.5 90.5v831q0 85 51.5 153.5t134.5 92.5l714 203v64q0 26 19 45t45 19h124q26 0 45 -19t19 -45v-320h-192q-26 0 -45 -19t-19 -45t19 -45t45 -19h192v-128h-192q-26 0 -45 -19t-19 -45t19 -45t45 -19h192l477 -120q128 -32 209.5 -135.5
t81.5 -236.5v-148q0 -53 -37.5 -90.5t-90.5 -37.5h-1664zM2208 128q39 0 67.5 -27.5t28.5 -64.5v-36q0 -106 -75 -181t-181 -75h-1984q-6 0 -15 2.5t-20.5 9t-18.5 21t-6 35.5q0 51 36 87.5t88 36.5h256v192h192l4 -192h960v192h192v-192h284q40 0 68 29t28 71
q0 37 28.5 64.5t67.5 27.5z" />
    <glyph glyph-name="campground" unicode="campground" horiz-adv-x="2304" 
d="M1312 1344l192 240q36 41 30 94t-50 86q-39 33 -91 27t-85 -47l-156 -195l-160 195q-31 41 -83 47t-93 -27q-42 -34 -48.5 -86t28.5 -94l192 -240l-939 -1174q-49 -61 -49 -140v-94q0 -80 56 -136t136 -56h1920q80 0 136 56t56 136v94q0 79 -49 140zM1630 0h-956l478 625
z" />
    <glyph glyph-name="gas-pump" unicode="gas&#x2d;pump" 
d="M128 1536v-1536q-53 0 -90.5 -37.5t-37.5 -90.5t37.5 -90.5t90.5 -37.5h1152q53 0 90.5 37.5t37.5 90.5t-37.5 90.5t-90.5 37.5v580h32q66 0 113 -49t47 -115v-128q0 -119 84.5 -203.5t203.5 -84.5t203.5 84.5t84.5 203.5v886q0 106 -75 181l-309 309q-26 26 -64 26
t-64 -26t-26 -64t26 -64l128 -128v-256q0 -89 54.5 -157t137.5 -87v-620q0 -40 -28 -68t-68 -28t-68 28t-28 68v128q0 146 -103 249t-249 103h-32v768q0 106 -75 181t-181 75h-640q-106 0 -181 -75t-75 -181zM384 1088v384q0 26 19 45t45 19h512q26 0 45 -19t19 -45v-384
q0 -26 -19 -45t-45 -19h-512q-26 0 -45 19t-19 45z" />
    <glyph glyph-name="scissors" unicode="cut" 
d="M1587 1587l-567 -559l-154 154q30 79 30 162q0 185 -131 316.5t-317 131.5q-185 0 -316.5 -131.5t-131.5 -316.5q0 -186 131.5 -317t316.5 -131q83 0 162 30l154 -154l-154 -162q-89 34 -162 34q-185 0 -316.5 -133t-131.5 -319t131.5 -317t316.5 -131q186 0 317 131
t131 317q0 83 -30 162l1131 1131q21 21 21 51t-21 51q-85 85 -205 85t-205 -85zM640 1348q0 -82 -56 -137t-136 -55t-136 55t-56 137q0 77 56.5 134.5t135.5 57.5t135.5 -57.5t56.5 -134.5zM448 0q-80 0 -136 56t-56 136t56 136t136 56t136 -56t56 -136t-56 -136t-136 -56z
M1114 422l473 -473q85 -85 205 -85t205 85q21 21 21 51t-21 51l-627 627z" />
    <glyph glyph-name="plane-engines" unicode="plane&#x2d;engines" horiz-adv-x="2304" 
d="M1929 512q71 0 157 33t152 94t66 129q0 66 -65.5 127t-152 95t-157.5 34h-466l-149 260q41 11 67.5 45.5t26.5 78.5q0 53 -37.5 90.5t-90.5 37.5h-110l-109 192q-37 64 -111 64h-225q-32 0 -51.5 -25.5t-10.5 -56.5l197 -686h-412l-173 230q-20 26 -51 26h-168
q-23 0 -39.5 -16.5t-16.5 -39.5q0 -6 2 -16l91 -317q-41 -11 -67 -45.5t-26 -77.5t25.5 -75.5t67.5 -47.5l-91 -317q-2 -10 -2 -12q0 -25 16.5 -42.5t39.5 -17.5h168q31 0 51 26l173 230h412l-197 -686q-9 -31 10.5 -56.5t51.5 -25.5h225q74 0 111 64l109 192h110
q53 0 90.5 37.5t37.5 90.5q0 44 -26.5 78.5t-67.5 45.5l149 260h466z" />
    <glyph glyph-name="envelope" unicode="envelope" 
d="M1856 1536h-1664q-80 0 -136 -56t-56 -136q0 -45 20.5 -86t56.5 -68l870 -652q35 -26 77 -26t77 26l870 652q36 27 56.5 68t20.5 86q0 80 -56 136t-136 56zM870 435l-870 653v-832q0 -106 75 -181t181 -75h1536q106 0 181 75t75 181v832l-870 -653q-68 -51 -154 -51
t-154 51z" />
    <glyph glyph-name="hand-fist" unicode="fist&#x2d;raised" horiz-adv-x="1792" 
d="M896 1070q-49 18 -96 18h-160v576q0 53 37.5 90.5t90.5 37.5t90.5 -37.5t37.5 -90.5v-594zM512 1088h-224q-5 0 -10 -0.5t-11.5 -1.5t-10.5 -1v451q0 53 37.5 90.5t90.5 37.5t90.5 -37.5t37.5 -90.5v-448zM1152 1024q-53 0 -90.5 37.5t-37.5 90.5v384q0 53 37.5 90.5
t90.5 37.5t90.5 -37.5t37.5 -90.5v-384q0 -53 -37.5 -90.5t-90.5 -37.5zM1536 1408q53 0 90.5 -37.5t37.5 -90.5v-256q0 -53 -37.5 -90.5t-90.5 -37.5t-90.5 37.5t-37.5 90.5v256q0 53 37.5 90.5t90.5 37.5zM1404 807q62 -39 132 -39q66 0 128 36v-260q0 -143 -69.5 -265
t-186.5 -195v-340h-896v311l-213 155q-80 59 -125.5 147.5t-45.5 188.5v254q0 66 47 113t113 47h512q66 0 113 -47t47 -113t-47 -113t-113 -47h-288q-26 0 -45 -19t-19 -45t19 -45t45 -19h288q119 0 203.5 84.5t84.5 203.5q0 39 -23 112q43 -16 87 -16q80 0 144 44
q30 -85 108 -133z" />
    <glyph glyph-name="hand" unicode="hand&#x2d;paper" 
d="M1920 1280q0 53 -37.5 90.5t-90.5 37.5t-90.5 -37.5t-37.5 -90.5v-448q0 -26 -19 -45t-45 -19t-45 19t-19 45v704q0 53 -37.5 90.5t-90.5 37.5t-90.5 -37.5t-37.5 -90.5v-704q0 -26 -19 -45t-45 -19t-45 19t-19 45v832q0 53 -37.5 90.5t-90.5 37.5t-90.5 -37.5
t-37.5 -90.5v-832q0 -26 -19 -45t-45 -19t-45 19t-19 45v704q0 53 -37.5 90.5t-90.5 37.5t-90.5 -37.5t-37.5 -90.5v-1118l-239 239q-47 47 -113 47q-67 0 -113.5 -47.5t-46.5 -112.5q0 -66 47 -113l453 -453q113 -113 259 -173.5t306 -60.5h151q191 0 353 94.5t256.5 256.5
t94.5 353v832z" />
    <glyph glyph-name="hand-peace" unicode="hand&#x2d;peace" 
d="M1024 642q-37 72 -106 114.5t-150 42.5v865q0 53 37.5 90.5t90.5 37.5t90.5 -37.5t37.5 -90.5v-1022zM683 787l-217 -67l-328 766q-10 23 -10 50q0 47 34.5 87.5t93.5 40.5q38 0 70.5 -21t47.5 -57l339 -793zM1664 896q53 0 90.5 -37.5t37.5 -90.5v-256
q0 -53 -37.5 -90.5t-90.5 -37.5t-90.5 37.5t-37.5 90.5v256q0 53 37.5 90.5t90.5 37.5zM1280 384q-53 0 -90.5 37.5t-37.5 90.5v384q0 53 37.5 90.5t90.5 37.5t90.5 -37.5t37.5 -90.5v-384q0 -53 -37.5 -90.5t-90.5 -37.5zM1472 344q77 -88 192 -88q56 0 107 24
q-58 -233 -248 -384.5t-435 -151.5h-299q-175 0 -317.5 102.5t-198.5 269.5l-73 217q-8 23 -8 51q0 50 30 93.5t83 59.5l416 128q22 7 47 7q12 0 28.5 -3t40.5 -14t43.5 -27.5t33.5 -46.5t14 -69q0 -53 -33.5 -96t-85.5 -59l-186 -57q-21 -7 -33 -23.5t-12 -37.5
q0 -12 5 -25q7 -18 23.5 -28.5t35.5 -10.5q10 0 19 3l192 59q69 21 118 70t70 115q27 -74 92.5 -120t146.5 -46q115 0 192 88z" />
    <glyph glyph-name="pencil" unicode="pencil&#x2d;alt" 
d="M1687 911l-520 520l-933 -933q-62 -62 -89 -150l-141 -481q-8 -25 -1.5 -50t25.5 -41q40 -44 95 -28l481 142q87 25 150 88l-136 136q-24 -24 -68 -40l-312 -92l92 312q12 40 40 68l14 14v-184q0 -26 19 -45t45 -19h184l-14 -14l136 -136zM1971 1557l-158 158
q-75 75 -181 75t-181 -75l-194 -194l520 -520l194 194q75 75 75 181t-75 181z" />
    <glyph glyph-name="pen-nib" unicode="pen&#x2d;nib" 
d="M1474 1719l-223 -223l501 -501l223 223q65 66 65 158.5t-65 157.5l-185 185q-66 65 -158 65t-158 -65zM1670 896l-522 518l-609 -184q-61 -18 -106.5 -62t-62.5 -102l-355 -1057q-24 -75 29 -130l615 614q-23 48 -23 83q0 79 57.5 135.5t134.5 56.5q82 0 137 -56t55 -136
t-55 -136t-137 -56q-39 0 -79 19l-614 -615q25 -25 60.5 -32.5t69.5 3.5l1057 355q59 19 102.5 64t61.5 105z" />
    <glyph glyph-name="pen-fancy" unicode="pen&#x2d;fancy" 
d="M1494 1684l-726 -829l343 -339l829 722q52 45 80 107.5t28 130.5q0 130 -93 223t-223 93q-68 0 -130.5 -28t-107.5 -80zM1020 425l-339 339l-333 -76q-51 -12 -89.5 -48t-52.5 -84l-199 -714l381 381q-4 15 -4 33q0 53 37.5 90.5t90.5 37.5t90.5 -37.5t37.5 -90.5
t-37.5 -90.5t-90.5 -37.5q-18 0 -33 4l-382 -381l711 199q51 14 87.5 52.5t48.5 89.5z" />
    <glyph glyph-name="check" unicode="check" horiz-adv-x="1792" 
d="M1754 1370q-38 38 -90 38t-90 -38l-938 -933l-417 421q-37 38 -91 38t-91 -38t-37 -90t37 -90l513 -512q38 -38 90 -38t90 38l1024 1024q38 38 38 90t-38 90z" />
    <glyph glyph-name="cross" unicode="cross" horiz-adv-x="1536" 
d="M1532 1152q0 53 -36.5 90.5t-91.5 37.5h-384v384q0 53 -36 90.5t-88 37.5h-256q-52 0 -90 -38t-38 -90v-384h-384q-52 0 -90 -38t-38 -90v-256q0 -53 37.5 -90.5t90.5 -37.5h384v-896q0 -52 38 -90t90 -38h260q50 0 87 38t37 90v896h384q50 0 87 38t37 90v256z" />
    <glyph glyph-name="star-of-david" unicode="star&#x2d;of&#x2d;david" 
d="M1963 410q27 -51 18.5 -99t-50.5 -84t-100 -39h-443l-232 -372q-45 -72 -132 -72t-133 79l-231 373h-442q-43 0 -79 20t-54 51t-20.5 69t20.5 74l220 358l-220 358q-23 36 -20.5 75t20.5 70.5t54 52t79 20.5h442l232 376q45 72 132 72q88 0 132 -76l232 -372h442
q43 0 79 -20.5t54 -52t20.5 -70.5t-20.5 -75l-221 -358zM1024 1497l-94 -153h188zM358 420h164l-82 133zM440 987l82 133h-164zM1024 39l94 153h-188zM1256 420l217 348l-217 348h-464l-217 -348l217 -348h464zM1525 420h165l-82 133zM1604 987l83 133h-165z" />
    <glyph glyph-name="sparkles" unicode="sparkles" 
d="M1310 1451q-30 -10 -30 -43t30 -43l226 -85l85 -226q12 -30 43 -30t43 30l85 226l226 85q30 12 30 43t-30 43l-226 85l-85 226q-12 30 -43 30t-43 -30l-85 -226zM1031 1043l-211 456q-16 37 -58 37t-58 -37l-211 -456l-456 -211q-37 -16 -37 -58t37 -58l456 -211
l211 -456q16 -37 58 -37t58 37l211 456l456 211q37 16 37 58t-37 58zM1621 482l-85 -226l-226 -85q-30 -10 -30 -43t30 -43l226 -85l85 -226q12 -30 43 -30t43 30l85 226l226 85q30 12 30 43t-30 43l-226 85l-85 226q-10 30 -43 30t-43 -30z" />
    <glyph glyph-name="flower" unicode="flower" 
d="M1920 1152q0 -113 -47 -212.5t-130 -171.5q83 -72 130 -171.5t47 -212.5q0 -212 -150 -362t-362 -150q-113 0 -212.5 47t-171.5 130q-72 -83 -171.5 -130t-212.5 -47q-212 0 -362 150t-150 362q0 113 47 212.5t130 171.5q-83 72 -130 171.5t-47 212.5q0 212 150 362
t362 150q113 0 212.5 -47t171.5 -129q72 82 171.5 129t212.5 47q212 0 362 -150t150 -362zM1024 448q132 0 226 94t94 226t-94 226t-226 94t-226 -94t-94 -226t94 -226t226 -94z" />
    <glyph glyph-name="snowflake" unicode="snowflake" 
d="M1902 256q27 46 14 96.5t-59 77.5l-104 61l81 22q38 11 58 45.5t10 72.5q-11 38 -45 57.5t-73 9.5l-264 -71l-242 141l238 141l268 -72q12 -3 25 -3q32 0 57.5 19.5t34.5 51.5q11 38 -9 73t-58 45l-81 22l103 60q46 27 59.5 78t-13.5 97t-78 59.5t-97 -13.5l-100 -58
l21 81q10 38 -10 72t-58 45q-38 10 -72.5 -10t-45.5 -58l-71 -267l-239 -140l-3 282l193 195q28 28 27.5 68t-28.5 68t-67.5 27.5t-67.5 -28.5l-57 -57v118q0 53 -37.5 90.5t-90.5 37.5t-91 -37.5t-38 -90.5l4 -118l-57 57q-28 28 -68 28.5t-68 -27.5t-28.5 -68t27.5 -68
l190 -195v-282l-235 140l-71 267q-13 39 -47 58.5t-75 9.5q-36 -10 -55 -44.5t-9 -72.5l21 -81l-100 59q-46 27 -97.5 13.5t-78.5 -59.5t-13 -97t60 -78l103 -61l-81 -22q-38 -11 -58 -45.5t-10 -72.5q9 -32 35 -51.5t58 -19.5q9 0 25 4l264 71l242 -141l-242 -141l-264 71
q-38 11 -73 -9t-45 -58t10 -72.5t58 -45.5l81 -22l-103 -60q-46 -27 -59.5 -78t13.5 -97q18 -30 47.5 -47t62.5 -17q36 0 61 18l101 58l-22 -81q-10 -38 10 -72t58 -45q16 -4 25 -4q33 0 59 20t34 52l71 267l239 140l4 -282l-194 -195q-28 -28 -27.5 -68t28.5 -68t68 -27.5
t68 28.5l57 57v-118q0 -53 37.5 -90.5t90.5 -37.5t90.5 37.5t37.5 90.5v118l57 -57q29 -29 68 -29q40 0 68 28t28.5 68t-27.5 68l-194 195v282l239 -140l71 -267q8 -32 34 -52t59 -20q9 0 25 4q38 10 58 44.5t10 72.5l-21 81l100 -58q30 -18 65 -18q33 0 62.5 17t47.5 47z
" />
    <glyph glyph-name="square-xmark" unicode="square&#x2d;xmark" horiz-adv-x="1792" 
d="M1536 1664h-1280q-106 0 -181 -75t-75 -181v-1280q0 -106 75 -181t181 -75h1280q106 0 181 75t75 181v1280q0 106 -75 181t-181 75zM572 960q-28 25 -28 64.5t28 67.5t67 28t65 -28l188 -188l192 188q28 28 67 28t65 -28q31 -28 31 -67.5t-31 -64.5l-184 -188l184 -192
q31 -29 31 -67.5t-31 -64.5q-26 -31 -65 -31t-67 31l-192 184l-188 -184q-26 -31 -65 -31t-67 31q-28 26 -28 65t28 67l188 192z" />
    <glyph glyph-name="square-right" unicode="arrow&#x2d;alt&#x2d;square&#x2d;right" horiz-adv-x="1792" 
d="M1792 128q0 -106 -75 -181t-181 -75h-1280q-106 0 -181 75t-75 181v1280q0 106 75 181t181 75h1280q106 0 181 -75t75 -181v-1280zM936 261q39 -16 69 14l448 448q19 19 19 45t-19 45l-448 448q-30 30 -69 14q-40 -17 -40 -59v-256h-384q-53 0 -90.5 -37.5t-37.5 -90.5
v-128q0 -53 37.5 -90.5t90.5 -37.5h384v-256q0 -42 40 -59z" />
    <glyph glyph-name="turn-up" unicode="level&#x2d;up&#x2d;alt" horiz-adv-x="1536" 
d="M1272 1210q11 26 6.5 54t-24.5 49l-416 448q-28 31 -70 31t-70 -31l-416 -448q-42 -45 -18 -100q11 -26 35 -41.5t53 -15.5l288 -4v-1088q0 -26 -19 -45t-45 -19h-448q-53 0 -90.5 -37.5t-37.5 -90.5t37.5 -90.5t90.5 -37.5h448q132 0 226 93.5t94 226.5v1088h288
q29 0 53 16t35 42z" />
    <glyph glyph-name="turn-down" unicode="level&#x2d;down&#x2d;alt" horiz-adv-x="1536" 
d="M1254 223q20 21 24.5 49t-6.5 54t-35 42t-53 16h-288v1088q0 132 -94 226t-226 94h-448q-53 0 -90.5 -37.5t-37.5 -90.5t37.5 -90.5t90.5 -37.5h448q26 0 45 -19t19 -45v-1088h-288q-29 0 -53 -16t-35 -42t-6.5 -54t24.5 -49l416 -448q28 -31 70 -31t70 31z" />
    <glyph glyph-name="square-left" unicode="arrow&#x2d;alt&#x2d;square&#x2d;left" horiz-adv-x="1792" 
d="M0 1408q0 106 75 181t181 75h1280q106 0 181 -75t75 -181v-1280q0 -106 -75 -181t-181 -75h-1280q-106 0 -181 75t-75 181v1280zM856 1275q-39 16 -69 -14l-448 -448q-19 -19 -19 -45t19 -45l448 -448q30 -30 69 -14q40 17 40 59v256h384q53 0 90.5 37.5t37.5 90.5v128
q0 53 -37.5 90.5t-90.5 37.5h-384v256q0 42 -40 59z" />
    <glyph glyph-name="square-up" unicode="arrow&#x2d;alt&#x2d;square&#x2d;up" horiz-adv-x="1792" 
d="M1536 1664q106 0 181 -75t75 -181v-1280q0 -106 -75 -181t-181 -75h-1280q-106 0 -181 75t-75 181v1280q0 106 75 181t181 75h1280zM1403 808q16 39 -14 69l-448 448q-19 19 -45 19t-45 -19l-448 -448q-30 -30 -14 -69q17 -40 59 -40h256v-384q0 -53 37.5 -90.5
t90.5 -37.5h128q53 0 90.5 37.5t37.5 90.5v384h256q42 0 59 40z" />
    <glyph glyph-name="square-down" unicode="arrow&#x2d;alt&#x2d;square&#x2d;down" horiz-adv-x="1792" 
d="M256 -128q-106 0 -181 75t-75 181v1280q0 106 75 181t181 75h1280q106 0 181 -75t75 -181v-1280q0 -106 -75 -181t-181 -75h-1280zM389 728q-16 -39 14 -69l448 -448q19 -19 45 -19t45 19l448 448q30 30 14 69q-17 40 -59 40h-256v384q0 53 -37.5 90.5t-90.5 37.5h-128
q-53 0 -90.5 -37.5t-37.5 -90.5v-384h-256q-42 0 -59 -40z" />
    <glyph glyph-name="square-full" unicode="square&#x2d;full" 
d="M0 1792v-2048h2048v2048h-2048z" />
    <glyph glyph-name="hexagon" unicode="hexagon" 
d="M1368 1664h-692q-73 0 -138 -37t-104 -101l-370 -608q-42 -69 -42 -150t42 -150l370 -608q39 -64 104 -101t138 -37h692q75 0 141 37t105 101l370 608q42 69 42 150t-42 150l-370 608q-39 64 -105 101t-141 37z" />
    <glyph glyph-name="star" unicode="star" horiz-adv-x="2304" 
d="M1525 1191l-257 529q-16 33 -47.5 52.5t-68.5 19.5t-67.5 -19.5t-46.5 -52.5l-258 -529l-574 -85q-36 -5 -64 -28.5t-39 -57.5t-2.5 -70.5t33.5 -61.5l417 -408l-98 -587q-6 -36 7.5 -70t43.5 -55t66.5 -23.5t68.5 14.5l513 274l514 -274q32 -17 68.5 -14.5t66.5 23.5
t43.5 55t7.5 70l-98 587l417 408q25 25 33.5 61.5t-2.5 70.5q-11 35 -38.5 58t-63.5 28z" />
    <glyph glyph-name="right" unicode="arrow&#x2d;alt&#x2d;right" horiz-adv-x="1792" 
d="M1792 768q0 53 -37 90l-640 640q-28 28 -66 35.5t-74 -7.5t-57.5 -47t-21.5 -71v-384h-768q-53 0 -90.5 -37.5t-37.5 -90.5v-256q0 -53 37.5 -90.5t90.5 -37.5h768v-384q0 -39 21.5 -71t57.5 -47t73.5 -7.5t65.5 35.5l640 640q38 38 38 90z" />
    <glyph glyph-name="caravan-simple" unicode="caravan&#x2d;simple" horiz-adv-x="2560" 
d="M1664 1664h-1344q-133 0 -226.5 -93.5t-93.5 -226.5v-896q0 -133 93.5 -226.5t226.5 -93.5h64q0 -160 111.5 -272t272.5 -112q159 0 271.5 112.5t112.5 271.5h1280q53 0 90.5 37.5t37.5 90.5t-37.5 90.5t-90.5 37.5h-128v640q0 130 -50.5 248.5t-136.5 204.5
t-204.5 136.5t-248.5 50.5zM256 896v256q0 53 37.5 90.5t90.5 37.5h512q53 0 90.5 -37.5t37.5 -90.5v-256q0 -53 -37.5 -90.5t-90.5 -37.5h-512q-53 0 -90.5 37.5t-37.5 90.5zM1408 1280h256q53 0 90.5 -37.5t37.5 -90.5v-256q0 -53 -37.5 -90.5t-90.5 -37.5h-256
q-53 0 -90.5 37.5t-37.5 90.5v256q0 53 37.5 90.5t90.5 37.5zM768 320q80 0 136 -56t56 -136t-56 -136t-136 -56t-136 56t-56 136t56 136t136 56z" />
    <glyph glyph-name="cat-space" unicode="cat&#x2d;space" horiz-adv-x="2560" 
d="M2176 1661q118 -90 187 -223t69 -286q0 -228 -145 -404.5t-371 -222.5v-717q0 -27 -18 -45q-19 -19 -46 -19h-128q-27 0 -45 18q-19 19 -19 46v576l-512 -384h125q53 0 90.5 -38t37.5 -90v-64q0 -26 -19 -45t-45 -19h-701q-106 0 -181 75t-75 181v1024q0 52 -38 90
t-90 38t-90 38t-38 90t38 90t90 38q159 0 271.5 -112.5t112.5 -271.5v-344q57 86 128 150.5t144 101t133.5 55.5t122.5 28q-16 74 -16 137q0 152 70.5 285t189.5 224v3l1 -2q174 130 383 130q208 0 382 -130l2 2v-3zM1792 1664q-160 0 -292 -92l164 -164h256l164 164
q-130 92 -292 92zM2012 1152q0 32 -14 46q-18 18 -46 18q-27 0 -45.5 -18.5t-18.5 -45.5q0 -28 16 -46t44 -18q29 0 46.5 18t17.5 46zM1692 1152q0 32 -14 46q-18 18 -46 18q-27 0 -45.5 -18.5t-18.5 -45.5q0 -28 16 -46t44 -18q29 0 46.5 18t17.5 46zM1792 640
q104 0 198.5 40.5t163.5 109.5t109.5 163.5t40.5 198.5q0 187 -128 335v-335q0 -159 -112.5 -271.5t-271.5 -112.5t-271.5 112.5t-112.5 271.5v331q-128 -148 -128 -335q0 -137 68.5 -254t186.5 -185.5t257 -68.5zM648 1517q-12 12 -12 19q0 13 12 19l162 66l63 159
q6 12 19 12q18 0 23 -12l66 -159l159 -66q12 -6 12 -19t-12 -19l-159 -66l-66 -159q-6 -12 -19 -12t-19 12l-67 159z" />
    <glyph glyph-name="coffee-pot" unicode="coffee&#x2d;pot" 
d="M1726 1082q152 -122 237 -296.5t85 -371.5q0 -147 -49.5 -257t-149.5 -215q-65 -70 -165 -70h-1064q-97 0 -166 71q-100 106 -149 215t-49 256q0 197 86 370.5t237 294.5l-109 329h-54q-66 0 -113 -47t-47 -113v-288q0 -27 -18.5 -45.5t-45.5 -18.5h-128
q-27 0 -45.5 18.5t-18.5 45.5v352q0 146 103 249t249 103h1568zM1784 512q-19 114 -81 213.5t-155 170.5h-784q-96 -70 -159 -169t-83 -215h1262z" />
    <glyph glyph-name="comet" unicode="comet" 
d="M1964 1789q34 11 61 -16q27 -26 17 -64q-121 -400 -246 -751q15 -4 41.5 -11.5t36.5 -10.5q30 -10 41 -37q12 -27 -3 -55q-44 -84 -95.5 -175t-130 -220t-169.5 -252.5t-175 -209.5q-2 -2 -6 -7t-6 -7q-112 -112 -257.5 -170.5t-293.5 -59t-293.5 58t-257.5 170.5
t-170.5 258t-58.5 293.5t58.5 293.5t170.5 258q2 2 7 6t7 6q112 109 297.5 235.5t314 200t246.5 134.5q27 14 54 2q29 -13 38 -40l10.5 -35t11.5 -40q376 134 750 245zM1262 591q22 22 14 63q-11 35 -49 41l-279 41l-126 254q-17 34 -54 34q-38 0 -55 -34l-125 -254
l-280 -41q-38 -5 -49 -41q-12 -38 15 -63l203 -198l-48 -278q-6 -38 25 -60.5t64 -4.5l250 132l250 -132q34 -18 65 5q31 22 24 60l-48 278z" />
    <glyph glyph-name="fan-table" unicode="fan&#x2d;table" horiz-adv-x="1792" 
d="M896 1024q27 0 45.5 -18.5t18.5 -45.5t-18.5 -45.5t-45.5 -18.5t-45.5 18.5t-18.5 45.5t18.5 45.5t45.5 18.5zM1280 0q85 0 156.5 -49.5t96.5 -126.5q10 -30 -10 -55t-52 -25h-1150q-32 0 -52 25t-10 54q25 77 96 127t157 50h256v139q-197 31 -358 147t-253.5 293.5
t-92.5 380.5q0 169 66 323t177 265.5t265.5 177.5t323.5 66t323.5 -66t265.5 -177.5t177 -265.5t66 -323q0 -203 -92.5 -380.5t-253.5 -293.5t-358 -147v-139h256zM478 453q95 -50 191.5 -51t185.5 49.5t140 139.5q68 121 42 257l419 -70q36 -7 62 16t26 58q1 111 -58 203.5
t-160 139.5q-100 47 -210 32t-194 -87l-149 396q-10 27 -38.5 42t-69.5 -3q-135 -78 -176 -229q-9 -45 -11.5 -94.5t13.5 -103.5t43.5 -101.5t77.5 -88.5t116 -64l-270 -328q-18 -21 -18 -45.5t11.5 -41.5t26.5 -26z" />
    <glyph glyph-name="faucet" unicode="faucet" 
d="M1408 768q174 0 321.5 -86t233 -233t85.5 -321q0 -53 -37.5 -90.5t-90.5 -37.5h-256q-52 0 -90 38t-38 90t-38 90t-90 38h-51q-63 -115 -186.5 -185.5t-274.5 -70.5t-274.5 70.5t-186.5 185.5h-371q-27 0 -45.5 18.5t-18.5 45.5v384q0 27 18.5 45.5t45.5 18.5h474
q95 81 230 112v190l128 14l128 -14v-190q135 -31 230 -112h154zM327 1152q-29 -3 -50 17t-21 50v121q0 30 21 50t50 17l441 -46v111q0 27 18.5 45.5t45.5 18.5h128q27 0 45.5 -18.5t18.5 -45.5v-111l442 46q28 3 49 -17t21 -50v-120q0 -30 -21 -50.5t-49 -17.5l-570 60z" />
    <glyph glyph-name="faucet-drip" unicode="faucet&#x2d;drip" 
d="M1664 -128q0 31 32 95t64 113l32 48q14 -21 35.5 -53.5t57 -102t35.5 -100.5q0 -52 -38 -90t-90 -38t-90 38t-38 90zM1408 1024q130 0 248.5 -50.5t204.5 -136.5t136.5 -204.5t50.5 -248.5q0 -52 -38 -90t-90 -38h-256q-52 0 -90 38t-38 90t-38 90t-90 38h-51
q-63 -115 -186.5 -185.5t-274.5 -70.5t-274.5 70.5t-186.5 185.5h-371q-27 0 -45.5 18.5t-18.5 45.5v384q0 27 18.5 45.5t45.5 18.5h474q95 81 230 112v190l128 14l128 -14v-190q135 -31 230 -112h154zM327 1408q-28 -3 -49.5 17.5t-21.5 50.5v120q0 30 21 50t50 17l441 -46
v111q0 27 18.5 45.5t45.5 18.5h128q27 0 45.5 -18.5t18.5 -45.5v-111l442 46q28 3 49 -17t21 -50v-120q0 -30 -21 -50.5t-49 -17.5l-570 60z" />
    <glyph glyph-name="galaxy" unicode="galaxy" 
d="M2026 696q31 -132 18 -261q-3 -28 -24.5 -42t-46.5 -7t-36 33q-59 137 -177.5 228t-266.5 114q69 -202 27 -408q-43 -215 -198.5 -376t-369.5 -212q-129 -30 -261 -17q-28 3 -42 24.5t-7 46.5t33 36q137 59 228.5 177t113.5 266q-200 -69 -408 -26q-215 43 -376 198.5
t-212 369.5q-30 129 -17 261q3 27 24.5 41t46.5 7t36 -32q58 -137 176.5 -228t266.5 -114q-71 207 -30 407q45 216 201 377t371 212q129 30 261 17q28 -3 42 -24.5t7 -46.5t-33 -36q-137 -59 -228.5 -177t-113.5 -266q200 69 407 26q215 -43 376 -198.5t212 -369.5z
M1020 576q82 0 139 56t57 136q0 79 -58 135.5t-138 56.5t-136 -56t-56 -136q0 -79 57.5 -135.5t134.5 -56.5z" />
    <glyph glyph-name="garage" unicode="garage" horiz-adv-x="2560" 
d="M161 1344q-73 -29 -117 -94t-44 -143v-1267q0 -40 28 -68t68 -28h192q40 0 68 28t28 68v1060q0 51 37.5 89.5t90.5 38.5h1536q53 0 90.5 -38.5t37.5 -89.5v-1060q0 -40 28 -68t68 -28h192q40 0 68 28t28 68v1267q0 78 -44 143t-117 94l-1071 429q-48 19 -96 0zM512 900
v-384h1536v384h-1536zM512 384v-640h1536v640h-1536zM1088 0q-26 0 -45 19t-19 45t19 45t45 19h384q26 0 45 -19t19 -45t-19 -45t-45 -19h-384z" />
    <glyph glyph-name="garage-car" unicode="garage&#x2d;car" horiz-adv-x="2560" 
d="M0 -160q0 -40 28 -68t68 -28h192q40 0 68 28t28 68v1060q0 51 37.5 89.5t90.5 38.5h1536q53 0 90.5 -38.5t37.5 -89.5v-1060q0 -40 28 -68t68 -28h192q40 0 68 28t28 68v1267q0 78 -44 143t-117 94l-1071 429q-48 19 -96 0l-1071 -429q-73 -29 -117 -94t-44 -143v-1267z
M756 456q-54 -33 -87 -86t-33 -114v-384q0 -53 38.5 -90.5t89.5 -37.5q55 0 91.5 37t36.5 91v64h772v-64q0 -53 37.5 -90.5t90.5 -37.5t90.5 37.5t37.5 90.5v384q0 62 -31.5 115t-84.5 85l-80 226q-23 67 -82 108.5t-129 41.5h-466q-71 0 -130 -41t-85 -109zM969 480l48 138
q8 26 30 26h466q22 0 30 -26l48 -138h-622zM960 96q-40 0 -68 28t-28 68t28 68t68 28t68 -28t28 -68t-28 -68t-68 -28zM1600 288q40 0 68 -28t28 -68t-28 -68t-68 -28t-68 28t-28 68t28 68t68 28z" />
    <glyph glyph-name="garage-open" unicode="garage&#x2d;open" horiz-adv-x="2560" 
d="M161 1344q-73 -29 -117 -94t-44 -143v-1267q0 -40 28 -68t68 -28h192q40 0 68 28t28 68v1060q0 51 37.5 89.5t90.5 38.5h1536q53 0 90.5 -38.5t37.5 -89.5v-1060q0 -40 28 -68t68 -28h192q40 0 68 28t28 68v1267q0 78 -44 143t-117 94l-1071 429q-48 19 -96 0zM976 516
h-200l-20 -60q-53 -32 -84.5 -85t-31.5 -115v-384q0 -53 37.5 -90.5t90.5 -37.5t90.5 37.5t37.5 90.5v64h768v-64q0 -53 37.5 -90.5t90.5 -37.5t90.5 37.5t37.5 90.5v384q0 62 -31.5 115t-84.5 85l-20 60h-204l11 -36h-622zM960 96q-40 0 -68 28t-28 68t28 68t68 28t68 -28
t28 -68t-28 -68t-68 -28zM1600 288q40 0 68 -28t28 -68t-28 -68t-68 -28t-68 28t-28 68t28 68t68 28zM2048 644v256h-1536v-256h1536z" />
    <glyph glyph-name="heat" unicode="heat" horiz-adv-x="1792" 
d="M256 1183q-1 -115 40.5 -222.5t116.5 -190.5q108 -119 165.5 -270t57.5 -314v-183q0 -54 -35.5 -91t-88.5 -37q-54 0 -91 36t-37 89v182q1 115 -41 223t-120 194q-108 119 -165.5 271t-57.5 317v97q0 51 37.5 87.5t90.5 36.5t90.5 -36.5t37.5 -87.5v-101zM1567 769
q109 -120 167 -272t58 -314v-183q0 -53 -38.5 -90.5t-93.5 -37.5q-51 0 -87.5 37.5t-36.5 90.5v182q0 238 -161 421q-108 118 -165.5 270t-57.5 314v97q0 51 37.5 87.5t90.5 36.5t90.5 -37.5t37.5 -90.5v-97q0 -238 159 -414zM832 1183q0 -115 41 -223t116 -194
q108 -119 165.5 -270t57.5 -314v-182q0 -54 -35.5 -91t-88.5 -37q-54 0 -91.5 38.5t-32.5 93.5v182q1 115 -41 223t-120 194q-108 118 -165.5 270t-57.5 314v353q-3 50 34 87t90 37t90.5 -36.5t37.5 -87.5v-357z" />
    <glyph glyph-name="house-chimney-window" unicode="house&#x2d;chimney&#x2d;window" horiz-adv-x="2304" 
d="M2303 770q6 52 -44 96l-211 186v484q0 53 -37.5 90.5t-90.5 37.5h-128q-53 0 -90.5 -37.5t-37.5 -90.5v-147l-426 375q-34 28 -84 28q-56 0 -88 -32l-1026 -894q-40 -40 -40 -96q0 -54 37 -91t91 -37h128v-642q0 -106 75 -181t181 -75h1282q106 0 181 75t75 182l-3 641
h128q52 0 90 37.5t38 90.5zM992 1024h320q40 0 68 -28t28 -68v-320q0 -40 -28 -68t-68 -28h-320q-40 0 -68 28t-28 68v320q0 40 28 68t68 28z" />
    <glyph glyph-name="house-day" unicode="house&#x2d;day" horiz-adv-x="2560" 
d="M807 1554l-110 205q-17 33 -57 33q-39 0 -56 -33l-110 -205l-223 67q-37 11 -64 -16t-16 -64l67 -223l-205 -110q-33 -17 -33 -56q0 -40 33 -57l205 -110l-67 -223q-12 -36 16 -64q28 -27 64 -16l223 67l58 -105l230 208q-47 -20 -122 -20q-133 0 -226.5 92t-93.5 224
q0 133 93.5 226.5t226.5 93.5t226.5 -93.5t93.5 -226.5q0 -75 -35 -145l259 239l-141 76l67 223q11 36 -16 64q-28 28 -64 16zM832 1152q0 80 -56 136t-136 56t-136 -56t-56 -136t56 -136t136 -56t136 56t56 136zM2519 606l-832 768q-37 34 -87 34t-87 -34l-832 -768
q-41 -38 -41 -94q-3 -51 36 -89.5t92 -38.5h128v-448q0 -80 56 -136t136 -56h1024q80 0 136 56t56 136v448h128q52 0 90 38t38 90q-7 63 -41 94zM1408 320v256q0 26 19 45t45 19h256q26 0 45 -19t19 -45v-256q0 -26 -19 -45t-45 -19h-256q-26 0 -45 19t-19 45z" />
    <glyph glyph-name="house-person-leave" unicode="house&#x2d;person&#x2d;depart" horiz-adv-x="2560" 
d="M1427 253l-136 -122l-854 1q-77 0 -132.5 56.5t-55.5 135.5v448h-125q-38 0 -69.5 20.5t-45.5 56.5q-14 37 -5.5 75.5t37.5 65.5l832 768q37 34 87 34t87 -34l493 -455l-12 -5q-181 -74 -266 -247l-27 -55q-46 -94 -12.5 -194t126.5 -148q54 -27 115 -27q41 0 80 12
q13 4 37 16q2 -24 4 -36l-130 -323q-11 -26 -28 -43zM892 704v256q0 27 -18.5 45.5t-45.5 18.5h-256q-26 0 -45 -18.5t-19 -45.5v-256q0 -27 18.5 -45.5t45.5 -18.5h256q27 0 45.5 18.5t18.5 45.5zM1574 248l83 206q8 -11 13 -19q6 -10 134 -150q27 -29 42 -46l-54 -135
q-21 -51 -56 -86l-238 -237q-38 -36 -89.5 -35t-88.5 38t-38 88.5t35 89.5l200 200q40 38 57 86zM2112 1408q-80 0 -137.5 56.5t-54.5 135.5q0 80 56 136t136 56t136 -56t56 -136t-56 -136t-136 -56zM2490 812q47 -24 63.5 -74.5t-6.5 -97.5q-24 -49 -73 -64q-50 -17 -97 6
l-93 48q-95 49 -127 148l-22 66l-69 -275l182 -199q45 -48 60 -111l89 -356q13 -52 -14.5 -97t-79.5 -58q-51 -13 -96.5 14t-58.5 79l-73 293q-15 63 -59 111l-240 262q-44 48 -59.5 110t0.5 125l60 243l-107 -44q-44 -17 -66 -61l-27 -55q-23 -47 -73 -64q-51 -16 -97 7
q-47 24 -63.5 74.5t6.5 97.5l27 54q63 129 199 185q19 8 59.5 24.5t56 22.5t47.5 17.5t51 16t47 10.5t55 8t57 2q139 0 252 -84.5t157 -219.5l39 -117z" />
    <glyph glyph-name="house-night" unicode="house&#x2d;night" horiz-adv-x="2560" 
d="M352 1440q0 88 40 163.5t109 124.5q19 13 16 36.5t-25 25.5q-28 2 -44 2q-185 0 -316.5 -131.5t-131.5 -316.5q0 -186 131.5 -317t316.5 -131q94 0 178.5 37.5t147.5 103.5q16 16 2 35.5t-40 17.5q-16 -2 -32 -2q-146 0 -249 103t-103 249zM1102 1614l-48 129
q-8 21 -30 21t-30 -21l-48 -129l-129 -48q-21 -8 -21 -30t21 -30l129 -48l48 -129q8 -21 30 -21t30 21l48 129l129 48q21 8 21 30t-21 30zM2519 606l-832 768q-37 34 -87 34t-87 -34l-832 -768q-29 -27 -37.5 -65.5t5.5 -75.5q12 -36 45.5 -58.5t73.5 -22.5h128v-448
q0 -80 56 -136t136 -56h1024q80 0 136 56t56 136v448h128q40 0 72.5 22t46.5 59t5.5 75.5t-37.5 65.5zM1408 320v256q0 26 19 45t45 19h256q26 0 45 -19t19 -45v-256q0 -26 -19 -45t-45 -19h-256q-26 0 -45 19t-19 45zM354 463l-48 -129l-129 -48q-21 -8 -21 -30t21 -30
l129 -48l48 -129q7 -21 29.5 -21t30.5 21l48 129l129 48q21 8 21 30t-21 30l-129 48l-48 129q-8 21 -30 21t-30 -21z" />
    <glyph glyph-name="house-person-return" unicode="house&#x2d;person&#x2d;return" horiz-adv-x="2560" 
d="M2525 -38q36 -38 35 -89.5t-38 -88.5t-88.5 -38t-89.5 35l-238 238q-36 35 -57 86l-54 135q173 189 176 195q8 11 14 20l83 -206q20 -50 57 -86zM2126 742q15 -63 -1 -125t-59 -110l-240 -262q-43 -46 -60 -111l-73 -293q-13 -52 -58 -79t-97 -14q-52 14 -79.5 58.5
t-14.5 96.5l89 356q15 63 60 111l182 199l-69 274l-22 -66q-33 -100 -127 -148l-93 -47q-55 -20 -97 -7q-50 17 -73 64q-23 48 -6.5 98t63.5 74l94 48l38 117q44 135 157.5 219.5t252.5 84.5q30 0 56.5 -1.5t55.5 -8t47 -10.5t51 -16t47 -17.5t57 -23t59 -24.5
q135 -54 200 -185l26 -54q24 -47 7 -97.5t-64 -74.5q-56 -20 -97 -7q-50 17 -73 64l-27 55q-22 43 -65 61l-108 44zM1729 1408q-79 0 -135.5 55.5t-56.5 132.5q0 80 56.5 136t135.5 56q80 0 136.5 -56.5t56.5 -135.5q0 -77 -57 -132.5t-136 -55.5zM1501 458l-9 2
q-68 -72 -90 -166l-40 -162h-921q-79 0 -135.5 56t-56.5 136v448h-125q-38 0 -69.5 20.5t-45.5 56.5q-14 37 -5.5 75.5t37.5 65.5l832 768q37 34 87 34t87 -34l508 -469q-139 -108 -193 -273l-22 -67l-47 -24q-93 -48 -126.5 -148t12.5 -194q47 -95 147 -129q40 -13 81 -13
q51 0 94 17zM896 704l1 256q0 27 -18.5 45.5t-45.5 18.5h-257q-27 0 -45.5 -18.5t-18.5 -45.5v-256q0 -27 18.5 -45.5t45.5 -18.5h256q27 0 45.5 18.5t18.5 45.5zM896 704z" />
    <glyph glyph-name="house-signal" unicode="house&#x2d;signal" horiz-adv-x="2304" 
d="M1257 1758l-832 -768q-28 -26 -37 -61q294 -70 510.5 -287.5t287.5 -513.5h670q80 0 136 56t56 136v448h128q40 0 72.5 22t46.5 59t5.5 75.5t-37.5 65.5l-832 768q-37 34 -87 34t-87 -34zM1216 1024h256q26 0 45 -19t19 -45v-256q0 -26 -19 -45t-45 -19h-256
q-27 0 -47.5 19t-20.5 45v256q0 26 20.5 45t47.5 19zM1024 -160q0 189 -73.5 360.5t-198 296t-296 198t-360.5 73.5q-40 0 -68 -28t-28 -68t28 -68t68 -28q150 0 286 -58.5t234.5 -157t157 -234.5t58.5 -286q0 -40 28 -68t68 -28t68 28t28 68zM0 -128q0 -53 37.5 -90.5
t90.5 -37.5t90.5 37.5t37.5 90.5t-37.5 90.5t-90.5 37.5t-90.5 -37.5t-37.5 -90.5zM0 288q0 -40 28 -68t68 -28q146 0 249 -103t103 -249q0 -40 28 -68t68 -28t68 28t28 68q0 148 -73 273t-198 198t-273 73q-40 0 -68 -28t-28 -68z" />
    <glyph glyph-name="lamp-desk" unicode="lamp&#x2d;desk" 
d="M2048 1467q0 -27 -21 -49l-883 -885q-20 -20 -49 -20q-28 0 -49.5 20t-21.5 50l-1 593l-435 -435l212 -741h480q62 0 114.5 -24.5t81.5 -58.5t44.5 -64t15.5 -47q0 -25 -19.5 -43.5t-45.5 -18.5h-1406q-26 0 -45.5 18.5t-19.5 43.5q0 17 15.5 47t44 64t81 58.5
t115.5 24.5h344l-212 743q-4 18 -4 26q0 40 28 68l475 476l-44 44q-73 76 -73 179q0 108 75.5 182t180.5 74q103 0 179 -73l181 -181h591q30 0 50.5 -21.5t20.5 -49.5zM1519 728l314 314q55 -64 55 -146q0 -92 -66 -157q-64 -66 -157 -66q-82 0 -146 55z" />
    <glyph glyph-name="lamp-floor" unicode="lamp&#x2d;floor" horiz-adv-x="1536" 
d="M1024 0q85 0 156.5 -49.5t96.5 -126.5q10 -32 -10 -56t-52 -24h-894q-31 0 -52 25t-14 54q25 77 96 127t157 50h132l-4 769h260v-769h128zM1526 1074q27 -61 -11 -120q-39 -58 -107 -58h-1280q-68 0 -107 58q-38 57 -11 120l275 640q15 36 46.5 57t70.5 21h732
q39 0 70.5 -21t46.5 -57z" />
    <glyph glyph-name="light-ceiling" unicode="light&#x2d;ceiling" 
d="M1152 1143q346 -43 596 -285t299 -581q8 -57 -31.5 -101t-97.5 -44h-1788q-58 0 -97 42t-32 99q32 225 156.5 413.5t317.5 308.5t421 148v649h256v-649zM1024 -252q-107 0 -181.5 74t-74.5 182h512q0 -106 -75 -181t-181 -75z" />
    <glyph glyph-name="light-switch" unicode="light&#x2d;switch" horiz-adv-x="1536" 
d="M1280 1792q106 0 181 -75t75 -181v-1536q0 -106 -75 -181t-181 -75h-1024q-106 0 -181 75t-75 181v1536q0 106 75 181t181 75h1024zM768 1664q-27 0 -45.5 -18.5t-18.5 -45.5t18.5 -45.5t45.5 -18.5t45.5 18.5t18.5 45.5t-18.5 45.5t-45.5 18.5zM768 -128q27 0 45.5 18.5
t18.5 45.5t-18.5 45.5t-45.5 18.5t-45.5 -18.5t-18.5 -45.5t18.5 -45.5t45.5 -18.5zM1152 324v380h-768v-380q0 -80 56 -136t136 -56h384q80 0 136 56t56 136zM1152 832v388q0 77 -56.5 132.5t-135.5 55.5h-384q-80 0 -136 -54.5t-56 -133.5v-388h768z" />
    <glyph glyph-name="light-switch-off" unicode="light&#x2d;switch&#x2d;off" horiz-adv-x="1536" 
d="M1280 1792q106 0 181 -75t75 -181v-1536q0 -106 -75 -181t-181 -75h-1024q-106 0 -181 75t-75 181v1536q0 106 75 181t181 75h1024zM768 1664q-27 0 -45.5 -18.5t-18.5 -45.5t18.5 -45.5t45.5 -18.5t45.5 18.5t18.5 45.5t-18.5 45.5t-45.5 18.5zM768 -128q27 0 45.5 18.5
t18.5 45.5t-18.5 45.5t-45.5 18.5t-45.5 -18.5t-18.5 -45.5t18.5 -45.5t45.5 -18.5zM1152 640v580q0 77 -56.5 132.5t-135.5 55.5h-384q-80 0 -136 -54.5t-56 -133.5v-896q0 -80 56 -136t136 -56h384q80 0 136 56t56 136v316zM512 384v384h512v-384q0 -52 -38 -90t-90 -38
h-256q-52 0 -90 38t-38 90z" />
    <glyph glyph-name="light-switch-on" unicode="light&#x2d;switch&#x2d;on" horiz-adv-x="1536" 
d="M1280 1792q106 0 181 -75t75 -181v-1536q0 -106 -75 -181t-181 -75h-1024q-106 0 -181 75t-75 181v1536q0 106 75 181t181 75h1024zM768 1664q-27 0 -45.5 -18.5t-18.5 -45.5t18.5 -45.5t45.5 -18.5t45.5 18.5t18.5 45.5t-18.5 45.5t-45.5 18.5zM768 -128q27 0 45.5 18.5
t18.5 45.5t-18.5 45.5t-45.5 18.5t-45.5 -18.5t-18.5 -45.5t18.5 -45.5t45.5 -18.5zM1152 832v388q0 80 -56 136t-136 56h-384q-80 0 -136 -56t-56 -136v-896q0 -80 56 -136t136 -56h384q80 0 136 56t56 136v508zM896 1280q52 0 90 -38t38 -90v-384h-512v384q0 52 38 90
t90 38h256z" />
    <glyph glyph-name="microwave" unicode="microwave" horiz-adv-x="2304" 
d="M0 1408v-1152q0 -106 75 -181t181 -75q0 -53 37.5 -90.5t90.5 -37.5t90.5 37.5t37.5 90.5h1280q0 -53 37.5 -90.5t90.5 -37.5t90.5 37.5t37.5 90.5q106 0 181 75t75 181v1152q0 106 -75 181t-181 75h-1792q-106 0 -181 -75t-75 -181zM384 480v704q0 40 28 68t68 28h1088
q40 0 68 -28t28 -68v-704q0 -40 -28 -68t-68 -28h-1088q-40 0 -68 28t-28 68zM1984 1344q26 0 45 -19t19 -45v-896q0 -26 -19 -45t-45 -19t-45 19t-19 45v896q0 26 19 45t45 19z" />
    <glyph glyph-name="outlet" unicode="outlet" horiz-adv-x="1792" 
d="M896 640q40 0 68 -28t28 -68v-96h-192v96q0 40 28 68t68 28zM640 1024q26 0 45 -19t19 -45v-192q0 -26 -19 -45t-45 -19t-45 19t-19 45v192q0 26 19 45t45 19zM1152 1024q26 0 45 -19t19 -45v-192q0 -26 -19 -45t-45 -19t-45 19t-19 45v192q0 26 19 45t45 19zM1536 1668
q105 0 180.5 -76t75.5 -177v-1280q0 -106 -75 -181t-181 -75h-1280q-106 0 -181 75t-75 181v1280q0 104 75 178.5t181 74.5h1280zM1330 278q97 96 151.5 223t54.5 271q0 139 -54.5 264.5t-151.5 221.5q-24 22 -54 22h-760q-27 0 -54 -18q-97 -96 -151.5 -222.5t-54.5 -267.5
q0 -144 54.5 -271t151.5 -223q24 -22 54 -22h759q31 0 55 22z" />
    <glyph glyph-name="oven" unicode="oven" horiz-adv-x="1792" 
d="M0 -128v1152h1792v-1152q0 -52 -38 -90t-90 -38h-1536q-52 0 -90 38t-38 90zM256 768v-768h1280v768h-1280zM1536 1792q106 0 181 -75t75 -181v-384h-1792v384q0 106 75 181t181 75h1280zM320 1376q40 0 68 28t28 68t-28 68t-68 28t-68 -28t-28 -68t28 -68t68 -28z
M704 1376q40 0 68 28t28 68t-28 68t-68 28t-68 -28t-28 -68t28 -68t68 -28zM1088 1376q40 0 68 28t28 68t-28 68t-68 28t-68 -28t-28 -68t28 -68t68 -28zM1472 1376q40 0 68 28t28 68t-28 68t-68 28t-68 -28t-28 -68t28 -68t68 -28zM1344 640q26 0 45 -19t19 -45t-19 -45
t-45 -19h-896q-26 0 -45 19t-19 45t19 45t45 19h896z" />
    <glyph glyph-name="planet-moon" unicode="planet&#x2d;moon" horiz-adv-x="2304" 
d="M2048 1792q106 0 181 -76t75 -180t-75 -178t-181 -74q-107 0 -181.5 73t-74.5 179t75 181t181 75zM896 1536q182 0 348 -71t286 -191t191 -286t71 -348t-71 -348t-191 -286t-286 -191t-348 -71t-348 71t-286 191t-191 286t-71 348t71 348t191 286t286 191t348 71z
M1280 444v68q0 52 -38 90t-90 38h-258q-63 0 -106 43q-36 36 -37.5 87t31.5 88l199 230q43 64 43 142q0 47 -32 80t-78 34h-18q-211 0 -383.5 -114t-257.5 -300q-26 -58 6.5 -110t97.5 -52h100q53 0 91 -38l218 -218v-128q0 -52 38 -90t90 -38v-252q0 -29 21 -48
q22 -19 49 -16q7 1 21 2.5t21 2.5q58 10 83 62l162 323q27 53 27 114z" />
    <glyph glyph-name="planet-ringed" unicode="planet&#x2d;ringed" 
d="M2012 1756q31 -31 35.5 -87.5t-17.5 -132t-66 -166t-111.5 -195t-151.5 -215t-188 -228.5t-219 -233t-233.5 -219t-229 -188t-214.5 -151.5t-195 -111.5t-166.5 -66t-132 -17.5t-87.5 35.5q-67 76 -7.5 251t227.5 417q-62 151 -63.5 313.5t61 318t182.5 276.5
q121 120 276 182.5t317.5 61t313.5 -64.5q241 168 417.5 227.5t251.5 -7.5zM1386 406q256 256 454 524q40 -204 -20.5 -403.5t-207.5 -346.5q-147 -148 -345.5 -208.5t-403.5 -19.5q269 200 523 454z" />
    <glyph glyph-name="police-box" unicode="police&#x2d;box" horiz-adv-x="1536" 
d="M768 1792q-26 0 -45 -19t-19 -45v-64h-320q-53 0 -90.5 -37.5t-37.5 -90.5q-53 0 -90.5 -37.5t-37.5 -90.5v-1472h-32q-40 0 -68 -28t-28 -68t28 -68t68 -28h1344q40 0 68 28t28 68t-28 68t-68 28h-32v1472q0 53 -37.5 90.5t-90.5 37.5q0 53 -37.5 90.5t-90.5 37.5h-320
v64q0 26 -19 45t-45 19zM384 1152v96q0 14 9 23t23 9h96v-128h-128zM384 992v96h128v-128h-96q-14 0 -23 9t-9 23zM672 1280q14 0 23 -9t9 -23v-96h-128v128h96zM576 960v128h128v-96q0 -14 -9 -23t-23 -9h-96zM864 1280h96v-128h-128v96q0 14 9 23t23 9zM960 1088v-128h-96
q-14 0 -23 9t-9 23v96h128zM1024 1152v128h96q14 0 23 -9t9 -23v-96h-128zM1152 1088v-96q0 -14 -9 -23t-23 -9h-96v128h128zM384 576v192q0 26 19 45t45 19h192q26 0 45 -19t19 -45v-192q0 -26 -19 -45t-45 -19h-192q-26 0 -45 19t-19 45z" />
    <glyph glyph-name="person-to-portal" unicode="person&#x2d;to&#x2d;portal" 
d="M1724 1792q66 0 126 -80t103.5 -216t69 -325t25.5 -399q0 -209 -25.5 -399t-68.5 -327t-102 -217.5t-124 -80.5q-80 0 -149.5 118t-113.5 323t-54 455h-91q-55 0 -102 29t-71 78l-81 166l-125 -313l245 -148q56 -33 80.5 -94t6.5 -124l-127 -404q-16 -50 -62.5 -75
t-97.5 -9t-75.5 63t-8.5 97l110 351l-340 201q-83 49 -113 140.5t8 180.5l149 350l-58 17q-55 12 -102 -24l-158 -122q-42 -32 -95 -25.5t-85 48.5q-32 43 -25 95.5t49 84.5l159 122q69 53 154 71t169 -3l281 -80q79 -20 144.5 -74t102.5 -130l104 -213h51q9 248 53.5 452
t114 322t149.5 118zM1088 1408q-80 0 -136 56t-56 136t56 136t136 56q78 0 135 -59t57 -137q0 -77 -56.5 -132.5t-135.5 -55.5zM454 522q52 -112 153 -170l42 -25l-35 -83q-22 -53 -70.5 -84.5t-105.5 -31.5h-310q-53 0 -90.5 37.5t-37.5 90.5q0 54 37.5 93t90.5 39h267z
" />
    <glyph glyph-name="person-from-portal" unicode="person&#x2d;from&#x2d;portal" 
d="M1920 900q53 0 90.5 -40t37.5 -96q0 -50 -38 -87t-90 -37h-216q-55 0 -101.5 29.5t-70.5 78.5l-82 166l-125 -314l245 -144q56 -33 80.5 -94t6.5 -124l-127 -404q-17 -51 -63 -75.5t-97 -8.5q-50 16 -75 63t-9 97l110 351l-340 201q-83 50 -112.5 141t7.5 180l149 350
l-58 17q-55 12 -102 -24l-158 -118q-33 -26 -75.5 -26t-75.5 24q9 -112 9 -234q0 -201 -24 -381h164l59 138q49 -108 152 -170l42 -25l-35 -82q-22 -53 -70.5 -85t-105.5 -32h-252q-45 -179 -110.5 -281.5t-139.5 -102.5q-65 0 -124 81t-102 218t-68.5 326t-25.5 396
t25.5 396t68.5 325.5t102 217.5t124 81q96 0 174 -164.5t117 -433.5q13 16 15 17l159 122q68 52 153.5 70t169.5 -2l285 -84q79 -20 144.5 -74t102.5 -130l104 -213h176zM1472 1408q-80 0 -136 56t-56 136t56 136t136 56q78 0 135 -59t57 -137q0 -77 -56.5 -132.5
t-135.5 -55.5z" />
    <glyph glyph-name="radar" unicode="radar" 
d="M1219 1099l-99 -95q-42 20 -96 20q-106 0 -181 -75t-75 -181t75 -181t181 -75t181 75t75 181q0 52 -20 100l724 728q31 28 31 68t-31 68q-25 28 -64.5 28t-67.5 -28l-175 -175q-136 112 -303 173.5t-350 61.5q-209 0 -398.5 -81t-326.5 -218t-218 -326.5t-81 -398.5
t81 -398.5t218 -326.5t326.5 -218t398.5 -81t398.5 81t326.5 218t218 326.5t81 398.5h-256q0 -267 -163.5 -474t-416.5 -271q-14 -64 -68 -107.5t-120 -43.5q-68 0 -121 43t-67 108q-196 49 -343 189.5t-205 333.5q-69 11 -114.5 65t-45.5 125q0 66 40 118t103 68
q54 265 265 439.5t488 174.5q264 0 471 -161l-91 -92q-170 125 -384 125q-224 0 -397.5 -140.5t-222.5 -356.5q50 -23 79 -70t29 -105q0 -53 -24.5 -97.5t-67.5 -69.5q50 -152 166.5 -263.5t270.5 -154.5q24 47 69.5 76t97.5 29q57 0 103.5 -28.5t71.5 -76.5q205 57 337 228
t132 389h-256q0 -159 -113 -271.5t-275 -112.5q-159 0 -271.5 112.5t-112.5 271.5q0 161 112 272.5t272 111.5q110 0 199 -53z" />
    <glyph glyph-name="raygun" unicode="raygun" horiz-adv-x="2304" 
d="M1280 1664q26 0 45 -18.5t19 -44.5v-1022q0 -26 -19 -44.5t-45 -18.5h-64q-26 0 -45 19t-19 45v60l-462 -800q-39 -68 -116 -90q-78 -20 -146 20l-222 128q-69 39 -89 116q-22 77 19 146l282 483q-176 12 -297 140t-121 305q0 131 70.5 239.5t185.5 163.5v237
q0 38 32.5 56t64.5 -1l411 -247h196q99 0 192 -45v109q0 26 19 45t45 19h64zM448 996q40 0 68 27.5t28 68.5q0 40 -28 68t-68 28t-68 -28t-28 -68t28 -68t68 -28zM832 996q40 0 68 27.5t28 68.5q0 40 -28 68t-68 28t-68 -28t-28 -68t28 -68t68 -28zM2278 1314q26 -20 26 -52
v-334q0 -32 -26 -52q-26 -19 -58 -9l-299 100h-257v-263q0 -26 -18.5 -45t-45.5 -19h-64q-26 0 -45 19t-19 45v768q0 26 19 45t45 19h64q27 0 45.5 -18.5t18.5 -45.5v-249h256l300 100q32 10 58 -9z" />
    <glyph glyph-name="refrigerator" unicode="refrigerator" horiz-adv-x="1536" 
d="M0 1152h1152v324q0 24 19 42t45 18t45 -18t19 -42v-324h256v384q0 106 -75 181t-181 75h-1024q-106 0 -181 -75t-75 -181v-384zM1280 1024h256v-1152q0 -53 -37.5 -90.5t-90.5 -37.5h-1280q-53 0 -90.5 37.5t-37.5 90.5v1152h1152v-704q0 -26 19 -45t45 -19t45 19t19 45
v704z" />
    <glyph glyph-name="rocket-launch" unicode="rocket&#x2d;launch" 
d="M471 1284q-76 0 -142.5 -39t-105.5 -106l-210 -354q-28 -47 0 -97q27 -48 83 -48h459q145 0 241 -96q100 -100 100 -245v-459q0 -57 48 -84t97 2l354 209q66 39 103.5 105t37.5 143v361q109 66 195.5 145.5t142.5 159.5t93.5 169t55.5 170t22.5 166.5t-0.5 155t-18 138.5
q-6 35 -31 59.5t-60 31.5q-69 13 -138.5 18t-155 0.5t-167 -22t-170.5 -55t-169.5 -93t-161 -141t-146.5 -194.5h-357zM1536 1440q66 0 113 -47t47 -113t-47 -113t-113 -47t-113 47t-47 113t47 113t113 47zM666 -88q104 104 104 249t-104 249t-249 104t-249 -104
q-55 -54 -92.5 -142.5t-51.5 -176t-20 -167t-4 -128.5l2 -50q19 -1 51.5 -2t123.5 4t171 19.5t171.5 52t146.5 92.5zM479 223q35 -35 35 -83t-35 -82q-29 -29 -84.5 -43t-96.5 -13h-40q0 6 -0.5 17t1.5 41.5t6.5 57t17.5 57t31 48.5q34 35 82 35t83 -35z" />
    <glyph glyph-name="sensor" unicode="sensor" horiz-adv-x="1792" 
d="M1536 1664q106 0 181 -75t75 -181v-1280q0 -106 -75 -181t-181 -75h-1280q-106 0 -181 75t-75 181v1280q0 106 75 181t181 75h1280zM384 704v640q0 27 -19 45.5t-45 18.5t-45 -18.5t-19 -45.5v-640q0 -27 18.5 -45.5t45.5 -18.5t45.5 18.5t18.5 45.5zM640 704v640
q0 27 -18.5 45.5t-45.5 18.5t-45.5 -18.5t-18.5 -45.5v-640q0 -27 18.5 -45.5t45.5 -18.5t45.5 18.5t18.5 45.5zM896 704v640q0 27 -18.5 45.5t-45.5 18.5t-45.5 -18.5t-18.5 -45.5v-640q0 -27 18.5 -45.5t45.5 -18.5t45.5 18.5t18.5 45.5z" />
    <glyph glyph-name="sensor-triangle-exclamation" unicode="sensor&#x2d;triangle&#x2d;exclamation" horiz-adv-x="2560" 
d="M2532 178q31 -51 27.5 -105t-27.5 -99t-72 -73.5t-105 -28.5h-1127q-57 0 -105 28.5t-72 73.5t-27.5 99t27.5 105l564 977q38 67 107.5 91.5t139 0t107.5 -91.5zM1788 64q41 0 67 27.5t26 68.5q0 40 -27.5 68t-65.5 28t-67 -28.5t-29 -67.5q0 -40 28 -68t68 -28z
M1888 448v320q0 40 -28 68t-68 28t-68 -28t-28 -68v-320q0 -40 28 -68t68 -28t68 28t28 68zM941 242q-45 -76 -46 -165.5t42 -166.5q6 -10 29 -38h-714q-104 0 -178 75t-74 181v1280q0 106 74 181t178 75h1284q104 0 178 -75t74 -181v-23q-87 0 -163.5 -44.5t-120.5 -121.5z
M380 704l-7 640q0 27 -18 45.5t-42 18.5t-42.5 -18.5t-18.5 -45.5v-640q0 -27 18.5 -45.5t45.5 -18.5t45.5 18.5t18.5 45.5zM636 704l-7 640q0 27 -18 45.5t-42 18.5t-42.5 -18.5t-18.5 -45.5v-640q0 -27 19 -45.5t45 -18.5t45 18.5t19 45.5zM828 640q29 0 45.5 18.5
t11.5 45.5v640q0 27 -18 45.5t-42 18.5t-42.5 -18.5t-18.5 -45.5v-640q0 -26 19.5 -45t44.5 -19z" />
    <glyph glyph-name="sensor-fire" unicode="sensor&#x2d;fire" horiz-adv-x="2560" 
d="M1156 530q0 -198 92.5 -373t257.5 -285h-1250q-106 0 -181 75t-75 181v1280q0 106 75 181t181 75h1284q91 0 161 -57.5t91 -148.5q-23 5 -26 5q-50 0 -88 -35q-229 -212 -375.5 -464.5t-146.5 -433.5zM385 704v640q0 27 -18.5 45.5t-45.5 18.5q-26 0 -45 -18.5t-19 -45.5
v-640q0 -27 18.5 -45.5t45.5 -18.5t45.5 18.5t18.5 45.5zM642 704v640q0 27 -19 45.5t-45 18.5q-27 0 -45.5 -18.5t-18.5 -45.5v-640q0 -27 18.5 -45.5t45.5 -18.5q26 0 45 18.5t19 45.5zM898 704v640q0 27 -18.5 45.5t-45.5 18.5q-26 0 -45 -18.5t-19 -45.5v-640
q0 -27 19 -45.5t45 -18.5q27 0 45.5 18.5t18.5 45.5zM2204 1188q148 -138 252 -337.5t104 -320.5q0 -179 -85.5 -330.5t-233 -239.5t-321.5 -88t-321.5 88t-233 239.5t-85.5 330.5q0 155 135 382.5t345 422.5q142 -132 284 -318q77 93 160 171zM2160 200q109 77 136 211
t-36 250q-21 41 -33 60l-176 -201q-277 352 -297 376q-120 -143 -169 -226.5t-49 -165.5q0 -170 112.5 -273t279.5 -103q130 0 232 72z" />
    <glyph glyph-name="sensor-on" unicode="sensor&#x2d;on" horiz-adv-x="2560" 
d="M1536 1664q106 0 181 -75t75 -181v-1280q0 -106 -75 -181t-181 -75h-1280q-106 0 -181 75t-75 181v1280q0 106 75 181t181 75h1280zM384 704v640q0 27 -18.5 45.5t-45.5 18.5t-45.5 -18.5t-18.5 -45.5v-640q0 -27 18.5 -45.5t45.5 -18.5t45.5 18.5t18.5 45.5zM640 704
v640q0 27 -18.5 45.5t-45.5 18.5t-45.5 -18.5t-18.5 -45.5v-640q0 -27 18.5 -45.5t45.5 -18.5t45.5 18.5t18.5 45.5zM896 704v640q0 27 -18.5 45.5t-45.5 18.5t-45.5 -18.5t-18.5 -45.5v-640q0 -27 18.5 -45.5t45.5 -18.5t45.5 18.5t18.5 45.5zM2464 864q40 0 68 -28t28 -68
t-28 -68t-68 -28h-256q-40 0 -68 28t-28 68t28 68t68 28h256zM2144 1216q-32 0 -57.5 19t-34.5 49q-10 31 1 60.5t37 47.5l192 128q47 32 98 8q51 -25 54 -82t-45 -86l-192 -128q-26 -16 -53 -16zM2197 304l192 -128q33 -23 41 -61.5t-14 -71.5t-61 -41t-72 14l-192 128
q-33 23 -41 61.5t14 71.5t61 41t72 -14z" />
    <glyph glyph-name="sensor-cloud" unicode="sensor&#x2d;cloud" horiz-adv-x="2560" 
d="M2290 507q124 -20 201 -118.5t64 -222.5q-10 -124 -102 -209t-217 -85h-892q-130 0 -223 94t-93 226t92 226t224 94h6q-25 122 39 229.5t183 140.5q120 33 232 -20t157 -168q46 57 115 71t131 -21t85.5 -103t-2.5 -134zM1218 622q-116 -33 -199 -119.5t-106 -201.5
q-29 -116 4 -231t118 -198h-775q-104 0 -178.5 75t-74.5 181v1280q0 107 73.5 181.5t179.5 74.5h1276q104 0 178 -75t74 -181v-405q-65 21 -124 21q-174 0 -301 -115t-145 -287zM380 704l-7 640q0 27 -18 45.5t-42 18.5t-42.5 -18.5t-18.5 -45.5v-640q0 -27 19 -45.5
t45 -18.5t45 18.5t19 45.5zM636 704l-7 640q0 27 -16.5 45.5t-43.5 18.5q-24 0 -42.5 -18.5t-18.5 -45.5v-640q0 -26 19.5 -45t44.5 -19q26 0 45 18.5t19 45.5zM828 640q29 0 46.5 18.5t14.5 45.5v640q0 27 -17 45.5t-44 18.5q-24 0 -42 -18.5t-18 -45.5v-640
q0 -27 16.5 -45.5t43.5 -18.5z" />
    <glyph glyph-name="siren" unicode="siren" horiz-adv-x="1792" 
d="M513 1128l-99 -744h-222l100 800q12 93 85 156.5t169 63.5h700q96 0 169 -63.5t85 -156.5l100 -800h-1056l96 723q2 17 -7 24q-9 10 -21 12l-63 12q-12 3 -24 -6q-10 -9 -12 -21zM1728 256q27 0 45.5 -18.5t18.5 -45.5v-256q0 -27 -18.5 -45.5t-45.5 -18.5h-1664
q-27 0 -45.5 18.5t-18.5 45.5v256q0 27 18.5 45.5t45.5 18.5h1664z" />
    <glyph glyph-name="siren-on" unicode="siren&#x2d;on" horiz-adv-x="2560" 
d="M897 1123l-99 -739h-222l100 799q12 96 84.5 160t169.5 64h700q97 0 169.5 -64t84.5 -160l100 -799h-1056l96 722q2 13 -6 24q-9 10 -21 12l-64 9q-12 3 -24 -6q-10 -9 -12 -22zM2144 1343q-32 0 -57.5 19t-34.5 49t1.5 60.5t37.5 47.5l192 128q46 31 96 7q51 -24 54 -81
q3 -58 -44 -86l-192 -128q-26 -16 -53 -16zM363 1359l-192 128q-48 29 -45 86t54 82q51 24 97 -9l192 -128q48 -29 45 -86t-54 -81q-50 -25 -97 8zM448 896q0 -40 -28 -68t-68 -28h-256q-40 0 -68 28t-28 68t28 68t68 28h256q40 0 68 -28t28 -68zM2464 992q40 0 68 -28
t28 -68t-28 -68t-68 -28h-256q-40 0 -68 28t-28 68t28 68t68 28h256zM2112 256q27 0 45.5 -19t18.5 -45v-256q0 -26 -18.5 -45t-45.5 -19h-1664q-27 0 -45.5 19t-18.5 45v256q0 26 18.5 45t45.5 19h1664z" />
    <glyph glyph-name="solar-system" unicode="solar&#x2d;system" 
d="M1567 1311q49 -49 53.5 -118.5t-34.5 -121.5q98 -180 69 -391.5t-178 -360.5q-153 -154 -369 -182t-404 80q-188 106 -271 306.5t-27 409.5q56 210 228.5 342.5t389.5 132.5q153 0 300 -78q56 40 125 35t118 -54zM1341 451q107 107 125.5 258t-54.5 278q-71 7 -117 53
q-45 44 -52 117q-100 56 -213.5 58t-214 -49t-165.5 -144q-100 -144 -76 -316t159 -286q135 -111 310.5 -102t297.5 133zM1020 1024q109 0 184.5 -74.5t75.5 -181.5q0 -106 -74.5 -179t-181.5 -73q-106 0 -181 76t-75 180t73.5 178t178.5 74zM1348 2q27 -85 83 -135
q5 -5 14.5 -12.5t11.5 -9.5q-293 -138 -611 -82t-546 285q-171 170 -246 395t-45 456.5t157 428.5q-34 71 -16 147t80 125q61 49 139.5 48.5t139.5 -49.5q59 -49 77 -125.5t-16 -147.5q-34 -70 -104.5 -103.5t-147.5 -15.5q-99 -160 -120 -345.5t40 -365t198 -316.5
q180 -179 430.5 -227.5t481.5 49.5zM1748 1492q171 -171 246.5 -397t45.5 -458t-159 -429q34 -71 16.5 -147t-79.5 -125t-140 -48.5t-139 49.5t-78.5 125.5t16.5 147.5q34 70 104.5 102.5t148.5 17.5q99 160 120 345t-40 364.5t-198 316.5q-180 179 -430.5 228t-481.5 -49
q-26 79 -83 138q-4 4 -14 11t-13 10q296 138 613 82.5t545 -284.5z" />
    <glyph glyph-name="circle-sort" unicode="circle&#x2d;sort" 
d="M1024 1792q209 0 398.5 -81t326.5 -218t218 -326.5t81 -398.5t-81 -398.5t-218 -326.5t-326.5 -218t-398.5 -81t-398.5 81t-326.5 218t-218 326.5t-81 398.5t81 398.5t218 326.5t326.5 218t398.5 81zM1442 514q35 34 16 80t-68 46h-732q-49 0 -68 -46t16 -80l366 -364
q18 -22 52 -22q29 0 52 21zM1390 896q50 0 68 46t-16 83l-366 365q-22 22 -52 22q-26 0 -52 -26l-366 -364q-35 -34 -16 -80t68 -46h732z" />
    <glyph glyph-name="circle-sort-down" unicode="circle&#x2d;sort&#x2d;down" 
d="M789 1024l235 234l234 -234h-469zM1024 1792q209 0 398.5 -81t326.5 -218t218 -326.5t81 -398.5t-81 -398.5t-218 -326.5t-326.5 -218t-398.5 -81t-398.5 81t-326.5 218t-218 326.5t-81 398.5t81 398.5t218 326.5t326.5 218t398.5 81zM1442 514q35 34 16 80t-68 46h-732
q-49 0 -68 -46t16 -80l366 -364q18 -22 52 -22q29 0 52 21zM1390 900q50 0 68 44t-16 81l-366 365q-22 22 -52 22q-26 0 -52 -26l-366 -361q-35 -35 -16 -80t68 -45h732z" />
    <glyph glyph-name="circle-sort-up" unicode="circle&#x2d;sort&#x2d;up" 
d="M1024 278l-234 234h469zM1024 1792q209 0 398.5 -81t326.5 -218t218 -326.5t81 -398.5t-81 -398.5t-218 -326.5t-326.5 -218t-398.5 -81t-398.5 81t-326.5 218t-218 326.5t-81 398.5t81 398.5t218 326.5t326.5 218t398.5 81zM1442 514q35 34 16 80t-68 46h-732
q-49 0 -68 -46t16 -80l366 -365q17 -21 52 -21q30 0 52 22zM1390 900q50 0 68.5 44t-15.5 81l-367 365q-22 22 -52 22q-21 0 -52 -22l-366 -365q-35 -35 -16 -80t68 -45h732z" />
    <glyph glyph-name="space-station-moon" unicode="space&#x2d;station&#x2d;moon" 
d="M896 1152q0 53 -37.5 90.5t-90.5 37.5t-90.5 -37.5t-37.5 -90.5t37.5 -90.5t90.5 -37.5t90.5 37.5t37.5 90.5zM2048 768q0 209 -81 398.5t-218 326.5t-326.5 218t-398.5 81t-398.5 -81t-326.5 -218t-218 -326.5t-81 -398.5q0 -52 4 -92q463 -164 1020 -164
q558 0 1016 164q8 40 8 92zM768 1472q133 0 226.5 -93.5t93.5 -226.5t-93.5 -226.5t-226.5 -93.5t-226.5 93.5t-93.5 226.5t93.5 226.5t226.5 93.5zM1024 -256q178 0 344.5 60t296.5 164.5t223.5 250.5t132.5 314q-460 -149 -997 -149q-536 0 -997 149q39 -168 132.5 -314
t223.5 -250.5t296.5 -164.5t344.5 -60z" />
    <glyph glyph-name="space-station-moon-construction" unicode="space&#x2d;station&#x2d;moon&#x2d;construction" 
d="M640 1152q0 -53 37.5 -90.5t90.5 -37.5t90.5 37.5t37.5 90.5t-37.5 90.5t-90.5 37.5t-90.5 -37.5t-37.5 -90.5zM1024 512q558 0 1016 164q8 40 8 92q0 61 -8 128h-248v256h-384v256h256v159q-134 108 -297.5 166.5t-342.5 58.5q-209 0 -398.5 -81t-326.5 -218
t-218 -326.5t-81 -398.5q0 -52 4 -92q463 -164 1020 -164zM768 832q-133 0 -226.5 93.5t-93.5 226.5t93.5 226.5t226.5 93.5t226.5 -93.5t93.5 -226.5t-93.5 -226.5t-226.5 -93.5zM1024 384q-536 0 -997 149q39 -168 132.5 -314t223.5 -250.5t296.5 -164.5t344.5 -60
q225 0 424.5 92t343.5 255v165h-256v165q-251 -37 -512 -37z" />
    <glyph glyph-name="sprinkler" unicode="sprinkler" 
d="M1593 768q20 0 37.5 -10.5t26.5 -28.5q19 -39 -7 -75l-270 -312l-100 -100v-498h-512v498l-99 99l-270 313q-26 36 -7 74q20 40 63 40l441 4v640q0 51 37.5 87.5t90.5 36.5q54 0 91 -35.5t37 -88.5v-640zM608 1184q-40 0 -68 28t-28 68t28 68t68 28t68 -28t28 -68
t-28 -68t-68 -28zM352 1408q-40 0 -68 28t-28 68t28 68t68 28t68 -28t28 -68t-28 -68t-68 -28zM448 1056q0 -40 -28 -68t-68 -28t-68 28t-28 68t28 68t68 28t68 -28t28 -68zM96 1376q40 0 68 -28t28 -68t-28 -68t-68 -28t-68 28t-28 68t28 68t68 28zM96 1792q40 0 68 -28
t28 -68t-28 -68t-68 -28t-68 28t-28 68t28 68t68 28zM96 960q40 0 68 -28t28 -68t-28 -68t-68 -28t-68 28t-28 68t28 68t68 28zM1440 1184q-40 0 -68 28t-28 68t28 68t68 28t68 -28t28 -68t-28 -68t-68 -28zM1696 1152q40 0 68 -28t28 -68t-28 -68t-68 -28t-68 28t-28 68
t28 68t68 28zM1696 1600q40 0 68 -28t28 -68t-28 -68t-68 -28t-68 28t-28 68t28 68t68 28zM1952 1376q40 0 68 -28t28 -68t-28 -68t-68 -28t-68 28t-28 68t28 68t68 28zM1952 960q40 0 68 -28t28 -68t-28 -68t-68 -28t-68 28t-28 68t28 68t68 28zM1952 1600q-40 0 -68 28
t-28 68t28 68t68 28t68 -28t28 -68t-28 -68t-68 -28z" />
    <glyph glyph-name="star-shooting" unicode="star&#x2d;shooting" 
d="M1457 723q56 -6 75 -61.5t-20 -95.5l-304 -296l72 -419q10 -56 -36 -89q-21 -16 -47.5 -18t-49.5 11l-375 197l-375 -197q-50 -26 -96.5 7t-37.5 90l69 418l-304 296q-27 26 -28.5 62t20.5 63.5t59 31.5l419 61l188 381q26 52 82 51.5t82 -51.5l188 -381zM1244 992
q-28 26 -28 65t28 67l640 640q28 28 68 28t68 -28t28 -68t-28 -68l-640 -640q-28 -28 -68 -28t-68 32zM992 1408q-40 0 -68 28t-28 68t28 68l192 192q28 28 68 28t68 -28t28 -68t-28 -68l-192 -192q-28 -28 -68 -28zM1884 996q29 28 68 28t68 -28q28 -28 28 -68t-28 -68
l-192 -192q-28 -28 -68 -28t-68 28t-28 68t28 68z" />
    <glyph glyph-name="starfighter" unicode="starfighter" horiz-adv-x="2560" 
d="M1536 768l-121 968q-3 24 -21 40t-42 16h-144q-24 0 -42 -16t-21 -40l-121 -968v-832q0 -26 19 -45t45 -19h384q26 0 45 19t19 45v832zM1152 576v192q0 53 37.5 90.5t90.5 37.5t90.5 -37.5t37.5 -90.5v-192q0 -26 -19 -45t-45 -19h-128q-26 0 -45 19t-19 45zM192 1504
q-40 0 -68 -28t-28 -68v-96q-40 0 -68 -28t-28 -68t28 -68t68 -28v-1120q0 -40 28 -68t68 -28t68 28t28 68v16l352 -106v-38q0 -53 37.5 -90.5t90.5 -37.5t90.5 37.5t37.5 90.5v640q0 53 -37.5 90.5t-90.5 37.5h-128q-53 0 -90.5 -37.5t-37.5 -90.5v-128h-224v736
q40 0 68 28t28 68t-28 68t-68 28v96q0 40 -28 68t-68 28zM2368 1504q-40 0 -68 -28t-28 -68v-96q-40 0 -68 -28t-28 -68t28 -68t68 -28v-736h-224v128q0 53 -37.5 90.5t-90.5 37.5h-128q-53 0 -90.5 -37.5t-37.5 -90.5v-640q0 -53 37.5 -90.5t90.5 -37.5t90.5 37.5
t37.5 90.5v38l352 106v-16q0 -40 28 -68t68 -28t68 28t28 68v1120q40 0 68 28t28 68t-28 68t-68 28v96q0 40 -28 68t-68 28z" />
    <glyph glyph-name="starfighter-twin-ion-engine" unicode="starfighter&#x2d;twin&#x2d;ion&#x2d;engine" horiz-adv-x="2304" 
d="M128 1664q-53 0 -90.5 -37.5t-37.5 -90.5v-1536q0 -53 37.5 -90.5t90.5 -37.5t90.5 37.5t37.5 90.5v589l302 -61q72 -179 233.5 -289.5t360.5 -110.5t360.5 110.5t233.5 289.5l302 61v-589q0 -53 37.5 -90.5t90.5 -37.5t90.5 37.5t37.5 90.5v1536q0 53 -37.5 90.5
t-90.5 37.5t-90.5 -37.5t-37.5 -90.5v-589l-302 61q-72 179 -233.5 289.5t-360.5 110.5t-360.5 -110.5t-233.5 -289.5l-302 -61v589q0 53 -37.5 90.5t-90.5 37.5zM1088 389h-4q-83 15 -154 66l92 93q36 -21 66 -24v-135zM839 546q-51 71 -66 158h131q8 -33 28 -66zM773 832
q15 87 66 158l93 -92q-20 -33 -28 -66h-131zM930 1081q71 51 154 66v-131q-31 -9 -62 -28zM1282 548l92 -93q-71 -51 -158 -66v135q30 3 66 24zM1465 546l-93 92q21 36 24 66h135q-15 -87 -66 -158zM1396 832q-3 30 -24 66l93 92q51 -71 66 -158h-135zM1216 1147
q87 -15 158 -66l-92 -93q-33 20 -66 28v131zM1243 678l-1 -1q-37 -37 -90 -37t-90.5 37.5t-37.5 90.5t37.5 90.5t90.5 37.5t90.5 -37.5t37.5 -90.5t-37 -90z" />
    <glyph glyph-name="starship" unicode="starship" horiz-adv-x="2560" 
d="M1920 768q0 53 -37.5 90.5t-90.5 37.5t-90.5 -37.5t-37.5 -90.5t37.5 -90.5t90.5 -37.5t90.5 37.5t37.5 90.5zM1024 768q0 -209 102 -385.5t279 -279.5t387 -103q209 0 385.5 103t279.5 279.5t103 385.5q0 210 -103 387t-279.5 279t-385.5 102q-158 0 -300 -60.5
t-244.5 -163t-163 -244.5t-60.5 -300zM1792 512q-106 0 -181 75t-75 181t75 181t181 75t181 -75t75 -181t-75 -181t-181 -75zM756 970l-208 186h284q54 0 91 36.5t37 91.5q0 51 -37.5 89.5t-90.5 38.5h-704q-53 0 -90.5 -38.5t-37.5 -89.5q0 -55 37 -91.5t91 -36.5h129
l261 -233l-8 -2q-55 -11 -90.5 -54.5t-35.5 -98.5t35.5 -98.5t90.5 -54.5l8 -2l-261 -229h-129q-53 0 -90.5 -37.5t-37.5 -90.5t37.5 -90.5t90.5 -37.5h704q53 0 90.5 37.5t37.5 90.5t-37.5 90.5t-90.5 37.5h-284l208 182l172 -35q-32 122 -32 237t32 237z" />
    <glyph glyph-name="starship-freighter" unicode="starship&#x2d;freighter" horiz-adv-x="2304" 
d="M704 768q0 -80 56 -136t136 -56t136 56t56 136t-56 136t-136 56t-136 -56t-56 -136zM896 -128q205 0 403 61q39 -61 109 -61h320q80 0 136 56t56 136q0 55 -26 96l328 128q37 14 59.5 47t22.5 73v172q0 25 -19 44.5t-45 19.5h-512q-27 0 -45.5 17.5t-18.5 46.5v128
q0 25 19 44.5t45 19.5h512q27 0 45.5 17.5t18.5 46.5v164q0 40 -22.5 73t-59.5 47l-832 323q-241 93 -494 93q-182 0 -348 -71t-286 -191t-191 -286t-71 -348t71 -348t191 -286t286 -191t348 -71zM896 448q-133 0 -226.5 93.5t-93.5 226.5t93.5 226.5t226.5 93.5
t226.5 -93.5t93.5 -226.5t-93.5 -226.5t-226.5 -93.5zM320 704q-26 0 -45 19t-19 45t19 45t45 19t45 -19t19 -45t-19 -45t-45 -19zM448 1216q26 0 45 -19t19 -45t-19 -45t-45 -19t-45 19t-19 45t19 45t45 19zM448 320q-26 0 -45 19t-19 45t19 45t45 19t45 -19t19 -45
t-19 -45t-45 -19z" />
    <glyph glyph-name="sword-laser" unicode="sword&#x2d;laser" 
d="M38 144l316 316l362 -362l-316 -316q-38 -38 -91 -38t-91 38l-180 181q-38 37 -38 90t38 91zM422 483l90 91l317 -318l-90 -90zM780 845l321 -317q9 -10 9 -23t-9 -22l-45 -45q-9 -9 -22.5 -9t-22.5 9l-317 317q-9 9 -9 22.5t9 22.5l41 45q9 9 22.5 9t22.5 -9zM558 618
l90 91l317 -317l-91 -90zM2016 1764q30 -27 30 -66t-31 -64l-900 -984l-213 212l981 904q29 26 67.5 25.5t65.5 -27.5z" />
    <glyph glyph-name="sword-laser-alt" unicode="sword&#x2d;laser&#x2d;alt" 
d="M512 347l91 -91l-430 -430l-91 91zM377 483l91 -91l-430 -430q-38 38 -38 91t38 90zM1236 768q43 0 59.5 -40t-14.5 -70l-497 -492l-362 362l217 221q19 19 45 19h552zM2016 1764q30 -27 31 -66t-28 -68l-705 -766h-414l983 902q29 26 67.5 25.5t65.5 -27.5zM218 -218
l430 430l91 -91l-340 -339q-37 -38 -90 -38t-91 38z" />
    <glyph glyph-name="swords-laser" unicode="swords&#x2d;laser" horiz-adv-x="2560" 
d="M540 1764q27 27 66 27.5t68 -25.5l766 -704v-414l-902 982q-26 29 -25.5 68t27.5 66zM1645 1025l493 -497l-362 -362l-221 221q-19 19 -19 45v548q0 43 39.5 59.5t69.5 -14.5zM1957 256l90 91l430 -430l-91 -91zM2522 144q38 -38 38 -90.5t-37 -90.5l-431 430l91 90z
M1821 121l90 90l431 -430q-38 -37 -91 -37t-91 37zM1024 539v373l171 -186zM1603 1172h-2q-39 0 -75 -15l-151 139l512 470q28 26 67 26t66 -28t28 -66t-25 -67zM786 894q30 30 70 13.5t40 -59.5v-548q0 -26 -19 -45l-477 -473q-38 -38 -91 -38t-90 38l-181 181
q-38 37 -38 90t38 91l452 452q-38 38 -38 91t38 90t91 37t90 -37zM674 350q27 0 45.5 18t18.5 42t-18.5 42.5t-45.5 18.5t-45.5 -17t-18.5 -44q0 -24 19 -42t45 -18z" />
    <glyph glyph-name="telescope" unicode="telescope" horiz-adv-x="2560" 
d="M2555 925q5 -18 5 -21q0 -20 -11.5 -38t-28.5 -25l-469 -194q-10 -5 -24 -5q-18 0 -35 11.5t-24 27.5l-343 828q-5 10 -5 25q0 18 11.5 35t27.5 24l470 194q10 5 24 5q18 0 35 -12t24 -31zM1522 1423l309 -754l-267 -92v-1q0 -99 -63 -178l186 -526q13 -37 -4 -73
t-55 -50q-14 -5 -32 -5q-27 0 -52 17.5t-38 46.5l-172 486q-28 -6 -58 -6q-29 0 -57 6l-172 -486q-10 -29 -35.5 -46.5t-55.5 -17.5q-15 0 -28 9q-38 14 -54.5 50t-3.5 73l185 522q-1 0 -1 1t-1 2l-508 -175q-26 -9 -50.5 1t-34.5 33l-35 84l-256 -106q-8 -4 -25 -4
q-18 0 -35 11.5t-24 27.5l-80 194q-5 10 -5 24q0 18 11.5 35t28.5 24l256 106l-35 85q-10 26 0.5 49t35.5 35zM1276 484q42 0 69 27t27 69q0 40 -28 68t-68 28t-68 -28t-28 -68t28 -68t68 -28z" />
    <glyph glyph-name="temperature-arrow-down" unicode="temperature&#x2d;arrow&#x2d;down" 
d="M636 500q67 -24 104 -84.5t25 -128.5q-12 -69 -65.5 -114t-123.5 -45q-71 0 -124.5 45t-64.5 114q-12 69 23.5 129t101.5 84l4 80q0 27 16.5 45.5t43.5 18.5q26 0 43 -20t17 -48v-76zM1020 1344v-666q128 -159 128 -358q0 -117 -45 -223.5t-121.5 -184t-182.5 -123
t-223 -45.5t-223.5 45.5t-184 123t-123 184t-45.5 223.5q0 198 128 358v666q0 185 131.5 316.5t316.5 131.5t314.5 -131t129.5 -317zM880 218q33 97 1 196.5t-117 160.5v769q0 80 -54.5 136t-133.5 56q-80 0 -136 -56t-56 -136v-769q-82 -61 -113 -159.5t1 -193.5
q33 -98 116.5 -158t187.5 -60t186.5 58t117.5 156zM1996 420q44 -33 50.5 -86t-26.5 -94l-256 -320q-38 -48 -100 -48q-58 0 -103 48l-256 320q-33 41 -27 94t47 86t93.5 27t85.5 -47l32 -35v1171q0 53 37.5 90.5t90.5 37.5t90.5 -37.5t37.5 -90.5v-1171l25 35
q33 41 85.5 47t93.5 -27z" />
    <glyph glyph-name="temperature-arrow-up" unicode="temperature&#x2d;arrow&#x2d;up" 
d="M636 500q67 -24 104 -84.5t25 -128.5q-12 -69 -65.5 -114t-123.5 -45q-71 0 -124.5 45t-64.5 114q-12 69 23.5 129t101.5 84v844q0 27 18.5 45.5t45.5 18.5t43.5 -18.5t16.5 -45.5v-844zM1020 1344v-666q128 -159 128 -358q0 -117 -45 -223.5t-121.5 -184t-182.5 -123
t-223 -45.5t-223.5 45.5t-184 123t-123 184t-45.5 223.5q0 198 128 358v666q0 185 131.5 316.5t316.5 131.5t314.5 -131t129.5 -317zM880 218q33 97 1 196.5t-117 160.5v769q0 80 -54.5 136t-133.5 56q-80 0 -136 -56t-56 -136v-769q-82 -61 -113 -159.5t1 -193.5
q33 -98 116.5 -158t187.5 -60t186.5 58t117.5 156zM2016 1296q36 -42 31 -94.5t-47 -85.5q-35 -28 -80 -28q-62 0 -100 48l-28 35v-1171q0 -53 -37.5 -90.5t-90.5 -37.5t-90.5 37.5t-37.5 90.5v1171l-32 -35q-33 -41 -85.5 -47t-93.5 27t-47 86t27 94l256 320q37 46 100 46
t99 -46z" />
    <glyph glyph-name="trailer" unicode="trailer" horiz-adv-x="2560" 
d="M1984 1664h-1792q-80 0 -136 -56t-56 -136v-1024q0 -80 56 -136t136 -56h69q23 164 149 274t294 110t294.5 -110t149.5 -274h1284q53 0 90.5 37.5t37.5 90.5t-37.5 90.5t-90.5 37.5h-256v960q0 80 -56 136t-136 56zM256 1344q0 26 19 45t45 19t45 -19t19 -45v-525
q-66 -33 -128 -84v609zM704 896q-32 0 -64 -3v451q0 26 19 45t45 19t45 -19t19 -45v-451q-32 3 -64 3zM1024 819v525q0 26 19 45t45 19t45 -19t19 -45v-609q-62 51 -128 84zM1408 1344q0 26 19 45t45 19t45 -19t19 -45v-768q0 -26 -19 -45t-45 -19t-45 19t-19 45v768z
M1920 1344v-768q0 -26 -19 -45t-45 -19t-45 19t-19 45v768q0 26 19 45t45 19t45 -19t19 -45zM384 192q0 -133 93.5 -226.5t226.5 -93.5t226.5 93.5t93.5 226.5t-93.5 226.5t-226.5 93.5t-226.5 -93.5t-93.5 -226.5zM704 64q-53 0 -90.5 37.5t-37.5 90.5t37.5 90.5t90.5 37.5
t90.5 -37.5t37.5 -90.5t-37.5 -90.5t-90.5 -37.5z" />
    <glyph glyph-name="transporter" unicode="transporter" 
d="M610 686q-34 -41 -86.5 -46t-93.5 29q-40 34 -45 87.5t29 93.5l282 338q76 92 196 92h264q119 0 197 -92l282 -338q34 -41 29 -93t-46 -87q-41 -34 -93.5 -29t-86.5 45l-126 151v-709h-256v384h-64v-384h-256v709zM375 1358q9 -4 9 -14t-9 -14l-119 -50l-50 -119
q-4 -9 -14 -9q-9 0 -14 9l-50 119l-119 50q-9 4 -9 14t9 14l119 50l50 119q5 9 14 9q10 0 15 -9l49 -119zM1024 1408q-80 0 -136 56t-56 136t56 136t136 56t136 -56t56 -136t-56 -136t-136 -56zM1536 0q52 0 90 -38t38 -90v-128h-1280v128q0 52 38 90t90 38h1024zM2039 1614
q9 -5 9 -14t-9 -14l-119 -50l-50 -119q-4 -9 -14 -9t-14 9l-50 119l-119 50q-9 4 -9 14q0 9 9 14l119 50l49 119q5 9 15 9t14 -9l50 -119z" />
    <glyph glyph-name="transporter-1" unicode="transporter&#x2d;&#x31;" 
d="M1344 512q26 0 45 -19t19 -45t-19 -45t-45 -19h-640q-26 0 -45 19t-19 45t19 45t45 19h640zM1344 256q26 0 45 -19t19 -45t-19 -45t-45 -19h-640q-26 0 -45 19t-19 45t19 45t45 19h640zM1024 1408q-80 0 -136 56t-56 136t56 136t136 56t136 -56t56 -136t-56 -136
t-136 -56zM610 686q-34 -41 -86.5 -46t-93.5 29q-40 34 -45 87.5t29 93.5l282 338q76 92 196 92h264q119 0 197 -92l282 -338q34 -41 29 -93t-46 -87q-41 -34 -93.5 -29t-86.5 45l-126 151v-197h-576v197zM2039 1102q9 -5 9 -14t-9 -14l-119 -50l-50 -119q-4 -9 -14 -9
q-9 0 -14 9l-50 119l-119 50q-9 4 -9 14q0 9 9 14l119 50l49 119q5 9 15 9q9 0 14 -9l50 -119zM1536 0q52 0 90 -38t38 -90v-128h-1280v128q0 52 38 90t90 38h1024zM375 334q9 -4 9 -14t-9 -14l-119 -50l-50 -119q-4 -9 -14 -9q-9 0 -14 9l-50 119l-119 50q-9 4 -9 14t9 14
l119 50l49 119q5 9 15 9q9 0 14 -9l50 -119z" />
    <glyph glyph-name="transporter-2" unicode="transporter&#x2d;&#x32;" 
d="M1353 1188l243 -292h-1144l244 292q33 43 86 67.5t110 24.5h264q115 0 197 -92zM448 640q-26 0 -45 19t-19 45t19 45t45 19h1152q26 0 45 -19t19 -45t-19 -45t-45 -19h-1152zM1024 1408q-80 0 -136 56t-56 136t56 136t136 56t136 -56t56 -136t-56 -136t-136 -56z
M1344 512q26 0 45 -19t19 -45t-19 -45t-45 -19h-640q-26 0 -45 19t-19 45t19 45t45 19h640zM1344 256q26 0 45 -19t19 -45t-19 -45t-45 -19h-640q-26 0 -45 19t-19 45t19 45t45 19h640zM1536 0q52 0 90 -38t38 -90v-128h-1280v128q0 52 38 90t90 38h1024zM2039 334
q9 -5 9 -14t-9 -14l-119 -50l-50 -119q-4 -9 -14 -9q-9 0 -14 9l-50 119l-119 50q-9 4 -9 14q0 9 9 14l119 50l50 119q4 9 14 9q9 0 14 -9l50 -119zM375 1614q9 -4 9 -14t-9 -14l-119 -50l-50 -119q-4 -9 -14 -9t-14 9l-50 119l-119 50q-9 4 -9 14t9 14l119 50l50 119
q4 9 14 9t15 -9l49 -119z" />
    <glyph glyph-name="transporter-3" unicode="transporter&#x2d;&#x33;" 
d="M375 1230q9 -4 9 -14t-9 -14l-119 -50l-50 -119q-4 -9 -14 -9q-9 0 -14 9l-50 119l-119 49q-9 5 -9 15t9 14l119 50l50 119q5 9 14 9q10 0 15 -9l49 -119zM576 896q-26 0 -45 19t-19 45t19 45t45 19h896q26 0 45 -19t19 -45t-19 -45t-45 -19h-896zM1024 1408
q-80 0 -136 56t-56 136t56 136t136 56t136 -56t56 -136t-56 -136t-136 -56zM704 1152q-26 0 -45 19t-19 45t19 45t45 19h640q26 0 45 -19t19 -45t-19 -45t-45 -19h-640zM704 384q-26 0 -45 19t-19 45t19 45t45 19h640q26 0 45 -19t19 -45t-19 -45t-45 -19h-640zM1600 768
q26 0 45 -19t19 -45t-19 -45t-45 -19h-1152q-26 0 -45 19t-19 45t19 45t45 19h1152zM2039 1614q9 -5 9 -14t-9 -14l-119 -50l-50 -119q-4 -9 -14 -9t-14 9l-50 119l-119 50q-9 4 -9 14q0 9 9 14l119 50l50 119q4 9 14 9t14 -9l50 -119zM1536 0q52 0 90 -38t38 -90v-128
h-1280v128q0 52 38 90t90 38h1024zM704 128q-26 0 -45 19t-19 45t19 45t45 19h640q26 0 45 -19t19 -45t-19 -45t-45 -19h-640z" />
    <glyph glyph-name="transporter-empty" unicode="transporter&#x2d;empty" horiz-adv-x="1280" 
d="M1152 0q52 0 90 -38t38 -90v-128h-1280v128q0 52 38 90t90 38h1024z" />
    <glyph glyph-name="ufo" unicode="ufo" horiz-adv-x="2560" 
d="M2004 934q-23 127 -89 238t-161 191.5t-218 126.5t-256 46q-177 0 -332 -79t-258 -216t-134 -307q-257 -70 -406.5 -181.5t-149.5 -240.5q0 -139 171.5 -257t466 -186.5t642.5 -68.5t642.5 68.5t466 186.5t171.5 257q0 129 -149.5 240.5t-406.5 181.5zM1280 1344
q175 0 315.5 -101t197.5 -262q31 -88 31 -181q-7 -7 -20 -17.5t-61 -38t-105.5 -48.5t-153.5 -38.5t-204 -17.5t-203.5 16.5t-155 40t-103.5 47t-63 40.5l-19 16q0 93 31 181q57 161 197.5 262t315.5 101zM1280 192q-40 0 -68 28t-28 68t28 68t68 28t68 -28t28 -68t-28 -68
t-68 -28zM512 576q40 0 68 -28t28 -68t-28 -68t-68 -28t-68 28t-28 68t28 68t68 28zM2048 384q-40 0 -68 28t-28 68t28 68t68 28t68 -28t28 -68t-28 -68t-68 -28z" />
    <glyph glyph-name="ufo-beam" unicode="ufo&#x2d;beam" horiz-adv-x="2304" 
d="M566 1346q-260 -60 -413 -161.5t-153 -224.5q0 -122 154 -225t419.5 -163t578.5 -60t578.5 60t419.5 163t154 225q0 123 -153 224.5t-413 161.5q-54 195 -216 320.5t-370 125.5t-370 -125.5t-216 -320.5zM1152 1024q-90 0 -165.5 16.5t-120 40t-75.5 47t-43 40.5l-12 16
q0 59 15.5 117t49.5 112.5t82 95.5t117.5 66t151.5 25t151.5 -25t117.5 -66t82 -95.5t49.5 -112.5t15.5 -117q-4 -7 -12.5 -17.5t-42 -38t-76.5 -48.5t-119 -38.5t-166 -17.5zM384 1056q40 0 68 -28t28 -68t-28 -68t-68 -28t-68 28t-28 68t28 68t68 28zM1920 864
q-40 0 -68 28t-28 68t28 68t68 28t68 -28t28 -68t-28 -68t-68 -28zM1152 864q40 0 68 -28t28 -68t-28 -68t-68 -28t-68 28t-28 68t28 68t68 28zM314 524l-305 -643q-17 -36 -3.5 -73.5t49.5 -54.5t73.5 -3.5t54.5 49.5l315 666q-110 31 -184 59zM1806 465l315 -666
q14 -36 53 -49.5t75 3.5t49.5 54.5t-3.5 73.5l-305 643q-74 -28 -184 -59z" />
    <glyph glyph-name="user-alien" unicode="user&#x2d;alien" horiz-adv-x="1792" 
d="M827 280q-63 48 -124.5 101t-146.5 142t-147.5 175.5t-107.5 194t-45 205.5q0 158 50 289.5t137 219.5t203.5 136.5t249.5 48.5q132 0 249 -48.5t203.5 -136.5t137 -219.5t50.5 -289.5q0 -98 -45 -205.5t-107.5 -194t-147.5 -175.5t-146.5 -142t-124.5 -101
q-31 -23 -69 -23t-69 23zM960 848v-32q0 -20 14 -34t34 -14h96q99 0 169.5 70.5t70.5 169.5v32q0 20 -14 34t-34 14h-96q-99 0 -169.5 -70t-70.5 -170zM448 1008q0 -99 70.5 -169.5t169.5 -70.5h96q20 0 34 14t14 34v32q0 99 -70.5 169.5t-169.5 70.5h-96q-20 0 -34 -14
t-14 -34v-32zM1279 382q214 -8 363.5 -162t149.5 -369q0 -44 -31.5 -75.5t-75.5 -31.5h-1578q-44 0 -75.5 31.5t-31.5 75.5q0 215 149.5 369t363.5 162q109 -107 236 -204q66 -50 147 -50t147 50q127 97 236 204z" />
    <glyph glyph-name="user-robot" unicode="user&#x2d;robot" horiz-adv-x="1792" 
d="M896 1792q-26 0 -45 -19t-19 -45v-192h-256q-106 0 -181 -75t-75 -181v-512q0 -106 75 -181t181 -75h640q106 0 181 75t75 181v512q0 106 -75 181t-181 75h-256v192q0 26 -19 45t-45 19zM640 1024q-53 0 -90.5 37.5t-37.5 90.5t37.5 90.5t90.5 37.5t90.5 -37.5
t37.5 -90.5t-37.5 -90.5t-90.5 -37.5zM1152 1280q53 0 90.5 -37.5t37.5 -90.5t-37.5 -90.5t-90.5 -37.5t-90.5 37.5t-37.5 90.5t37.5 90.5t90.5 37.5zM640 832q26 0 45 -19t19 -45t-19 -45t-45 -19t-45 19t-19 45t19 45t45 19zM896 704q-26 0 -45 19t-19 45t19 45t45 19
t45 -19t19 -45t-19 -45t-45 -19zM1152 832q26 0 45 -19t19 -45t-19 -45t-45 -19t-45 19t-19 45t19 45t45 19zM64 1216v-384q0 -26 19 -45t45 -19t45 19t19 45v384q0 26 -19 45t-45 19t-45 -19t-19 -45zM1664 1280q-26 0 -45 -19t-19 -45v-384q0 -26 19 -45t45 -19t45 19
t19 45v384q0 26 -19 45t-45 19zM1408 384h-1024q-160 0 -272 -111.5t-112 -272.5v-128q0 -53 37.5 -90.5t90.5 -37.5h256v256q0 53 37.5 90.5t90.5 37.5h768q53 0 90.5 -37.5t37.5 -90.5v-256h256q53 0 90.5 37.5t37.5 90.5v128q0 161 -112 272.5t-272 111.5zM704 -256v192
q0 26 -19 45t-45 19t-45 -19t-19 -45v-192h128zM896 0q-26 0 -45 -19t-19 -45v-192h128v192q0 26 -19 45t-45 19zM1216 -256v192q0 26 -19 45t-45 19t-45 -19t-19 -45v-192h128z" />
    <glyph glyph-name="user-visor" unicode="user&#x2d;visor" horiz-adv-x="1792" 
d="M420 1094q-43 10 -71.5 43.5t-28.5 78.5v256q0 52 38 90t90 38h51q72 89 175.5 140.5t221.5 51.5t222 -51.5t175 -140.5h51q52 0 90 -38t38 -90v-256q0 -45 -29 -78.5t-75 -43.5q-55 -145 -183.5 -235.5t-288.5 -90.5t-289.5 90.5t-186.5 235.5zM512 1408v-128h768v128
h-768zM1099 576q141 0 269.5 -55t221 -147.5t147.5 -221t55 -269.5q0 -58 -40.5 -98.5t-98.5 -40.5h-1514q-58 0 -98.5 40.5t-40.5 98.5q0 141 55 269.5t147.5 221t221 147.5t269.5 55h406zM1413 -64q11 3 11 16q-6 215 -120 362q-3 6 -12 6q-8 0 -13 -6
q-119 -139 -143 -358q0 -12 8 -16q9 -4 18 2q114 88 148 99q2 1 5 1q24 -22 80 -100q5 -6 13 -6h5z" />
    <glyph glyph-name="vacuum" unicode="vacuum" horiz-adv-x="2560" 
d="M573 768h262l-165 -768h34q27 0 45.5 -18.5t18.5 -45.5v-128q0 -27 -18.5 -45.5t-45.5 -18.5h-640q-27 0 -45.5 18.5t-18.5 45.5q0 80 56 136t136 56h217zM2560 1280q0 -156 -87.5 -283t-228.5 -186q60 -143 60 -299v-512q0 -106 -75 -181t-181 -75h-512
q-159 0 -271.5 112.5t-112.5 271.5q0 117 66 215q42 61 103 103q39 26 87 43v663q0 52 38 90t90 38q162 0 309.5 -65t256.5 -185q96 21 153 100.5t47 176.5q-11 98 -83.5 163.5t-170.5 65.5h-842q-90 -1 -160.5 -57.5t-89.5 -144.5l-94 -438h-262l106 491
q37 176 178.5 290.5t321.5 114.5h842q139 0 257 -68.5t186.5 -186.5t68.5 -257zM1536 0q53 0 90.5 37.5t37.5 90.5t-37.5 90.5t-90.5 37.5t-90.5 -37.5t-37.5 -90.5t37.5 -90.5t90.5 -37.5z" />
    <glyph glyph-name="vacuum-robot" unicode="vacuum&#x2d;robot" 
d="M1748 1492q146 -146 222 -337t76 -385.5t-76 -386.5t-222 -339q-147 -147 -338.5 -224t-385.5 -77t-385.5 77t-338.5 224t-223.5 339t-76 386.5t77 385.5t222.5 337q146 147 337 223.5t385.5 76t386.5 -77t339 -222.5zM813 211q19 19 19 45t-19 45l-256 256
q-19 19 -45 19t-45 -19t-19 -45t19 -45l256 -256q19 -19 45 -19t45 19zM1133 275q19 19 19 45t-19 45l-512 512q-19 19 -45 19t-45 -19t-19 -45t19 -45l512 -509q18 -18 45 -18q30 0 45 15zM1197 595q19 19 19 45t-19 45l-256 256q-19 19 -45 19t-45 -19t-19 -45t19 -42
l256 -256q18 -18 45 -18q30 0 45 15zM1517 275q101 101 155.5 228t55.5 265q2 140 -51.5 269t-154.5 230t-231 154.5t-268 50.5q-138 -1 -264.5 -55.5t-227.5 -155.5q-19 -19 -19 -45t19 -45t45 -19t45 19q82 82 186.5 126.5t217.5 46.5q239 0 407 -168q83 -83 126 -187.5
t42 -219.5q-2 -113 -46.5 -217.5t-126.5 -186.5q-19 -19 -19 -45t19 -45t45 -19t45 19z" />
    <glyph glyph-name="window-frame" unicode="window&#x2d;frame" 
d="M1984 0q27 0 45.5 -18.5t18.5 -45.5v-128q0 -27 -18.5 -45.5t-45.5 -18.5h-1920q-27 0 -45.5 18.5t-18.5 45.5v128q0 27 18.5 45.5t45.5 18.5h64v1664q0 52 38 90t90 38h1536q52 0 90 -38t38 -90v-1664h64zM1664 896v640h-576v-640h576zM384 1536v-640h576v640h-576z
M384 640v-640h576v640h-576zM1088 0h576v640h-576v-640z" />
    <glyph glyph-name="window-frame-open" unicode="window&#x2d;frame&#x2d;open" 
d="M1920 1664v-1024h-1792v1024q0 52 38 90t90 38h1536q52 0 90 -38t38 -90zM960 896v640h-576v-640h576zM1664 896v640h-576v-640h576zM1984 0q27 0 45.5 -18.5t18.5 -45.5v-128q0 -27 -18.5 -45.5t-45.5 -18.5h-1920q-27 0 -45.5 18.5t-18.5 45.5v128q0 27 18.5 45.5
t45.5 18.5h64v512h256v-512h1280v512h256v-512h64z" />
    <glyph glyph-name="coffin-cross" unicode="coffin&#x2d;cross" horiz-adv-x="1536" 
d="M1498 1331q24 -23 33 -56t1 -66l-348 -1368q-11 -45 -45.5 -71t-80.5 -26h-579q-45 0 -80.5 27t-46.5 70l-349 1368q-18 70 34 122l432 424q39 37 92 37h413q55 0 93 -38zM1152 960v128q0 27 -18.5 45.5t-45.5 18.5h-192v192q0 27 -18.5 45.5t-45.5 18.5h-128
q-27 0 -45.5 -18.5t-18.5 -45.5v-192h-192q-27 0 -45.5 -18.5t-18.5 -45.5v-128q0 -27 18.5 -45.5t45.5 -18.5h192v-448q0 -27 18.5 -45.5t45.5 -18.5h128q27 0 45.5 18.5t18.5 45.5v448h188q29 0 48.5 18.5t19.5 45.5z" />
    <glyph glyph-name="folder-arrow-down" unicode="folder&#x2d;arrow&#x2d;down" 
d="M1856 1408q80 0 136 -56t56 -136v-1152q0 -80 -56 -136t-136 -56h-1664q-80 0 -136 56t-56 136v1408q0 80 56 136t136 56h640l256 -256h768zM636 708q-28 -28 -28 -68t28 -68l320 -320q28 -28 68 -28t68 28l320 320q28 28 28 68t-28 68t-68 28t-68 -28l-156 -156v440
q0 40 -28 68t-68 28t-68 -28t-28 -68v-440l-156 156q-28 28 -68 28t-68 -28z" />
    <glyph glyph-name="folder-arrow-up" unicode="folder&#x2d;arrow&#x2d;up" 
d="M1856 1408q80 0 136 -56t56 -136v-1152q0 -80 -56 -136t-136 -56h-1664q-80 0 -136 56t-56 136v1408q0 80 56 136t136 56h640l256 -256h768zM1408 576q31 26 31 65t-31 70l-320 320q-28 29 -67 29t-68 -29l-320 -320q-29 -29 -29 -68t29 -67t68 -28t67 28l160 152v-440
q0 -40 28 -68t68 -28t68 28t28 68v440l156 -156q28 -28 68 -28q42 0 64 32z" />
    <glyph glyph-name="user-unlock" unicode="user&#x2d;unlock" horiz-adv-x="2560" 
d="M2368 640q80 0 136 -56t56 -136v-512q0 -80 -56 -136t-136 -56h-768q-80 0 -136 56t-56 136v512q0 80 56 136t136 56h64v320q0 142 105 237t248 81q123 -13 205 -111.5t82 -225.5v-45h-192v64q0 52 -38 90t-90 38t-90 -38t-38 -90v-320h512zM1984 64q52 0 90 38t38 90
t-38 90t-90 38t-90 -38t-38 -90t38 -90t90 -38zM896 768q-212 0 -362 150t-150 362t150 362t362 150t362 -150t150 -362t-150 -362t-362 -150zM1280 448v-512q0 -104 65 -192h-1206q-58 0 -98.5 40.5t-40.5 97.5q0 141 55 269.5t147.5 221.5t221 148t269.5 55h406
q102 0 198 -29q-17 -53 -17 -99z" />
    <glyph glyph-name="bacteria" unicode="bacteria" horiz-adv-x="2560" 
d="M2509 883l-46 -14q2 -33 -2.5 -67.5t-9.5 -54.5t-21 -75l41 -14q28 -10 41 -36t3 -54t-36 -41t-54 -3l-42 14q-40 -95 -92 -176l35 -26q24 -20 28.5 -47.5t-12.5 -51.5t-46.5 -28t-53.5 13l-35 26q-70 -83 -140 -142l26 -34q18 -23 13.5 -52.5t-28.5 -46.5t-52.5 -13
t-46.5 27l-26 34q-86 -56 -175 -95l14 -39q10 -28 -3 -54t-41 -36t-54.5 2.5t-36.5 40.5l-13 38q-75 -23 -133 -33q-37 -6 -67 -5l-11 -43q-8 -29 -33.5 -43.5t-53.5 -7.5q-29 8 -43.5 33.5t-7.5 53.5l12 43q-96 48 -146 142l-45 -13q-29 -8 -55 6t-34 42q-8 29 6 54.5
t42 33.5l48 14q-6 106 46 193l-39 35q-22 19 -23.5 48.5t18.5 51.5t50 23t51 -18l40 -36q26 18 51.5 29.5t41.5 16t46 11.5t45 11l-16 36q-12 27 -1 54.5t38 39.5t54 1t39 -38l16 -35q6 3 23.5 15.5t53 46.5t62.5 73l-35 17q-27 13 -37 40.5t3 53.5q19 41 65 41q8 0 16 -2
t12 -3.5t18 -8.5l20 -10q7 22 14.5 59.5t17.5 65t32 61.5l-37 38q-20 21 -19.5 50.5t21.5 49.5q18 17 40 19t36.5 -4.5t23.5 -15.5l35 -35q88 57 195 54l12 44q6 24 25 38.5t43 14.5q41 0 59 -31t11 -58l-12 -44q97 -50 146 -142l45 14q27 8 53 -5t35 -43q8 -29 -6 -54.5
t-42 -33.5zM1664 128q53 0 90.5 37.5t37.5 90.5t-37.5 90.5t-90.5 37.5t-90.5 -37.5t-37.5 -90.5t37.5 -90.5t90.5 -37.5zM1089 886q-27 -12 -54.5 -1t-39.5 38l-15 35q-6 -3 -24 -15.5t-53.5 -46.5t-62.5 -73l36 -17q27 -13 37 -40t-3 -54q-19 -41 -65 -41q-8 0 -16 2
t-12 3.5t-18 8.5l-20 10q-7 -22 -14.5 -59.5t-17.5 -65t-32 -61.5l37 -38q20 -21 19.5 -50.5t-21.5 -49.5q-18 -17 -40 -19.5t-37 4.5t-24 16l-34 36q-89 -58 -195 -55l-11 -44q-6 -24 -25.5 -38.5t-43.5 -14.5q-41 0 -58.5 30.5t-10.5 58.5l11 44q-96 49 -145 142l-45 -14
q-27 -8 -53.5 5t-35.5 43q-8 29 6 54.5t42 33.5l46 14q2 20 -0.5 22.5t0.5 21t2 20.5t3 20t4 20t5 21t6 22t6.5 24t7.5 26l-42 14q-28 9 -41 35.5t-3 54.5t36.5 41t54.5 3l42 -14q40 95 92 176l-36 25q-24 17 -28.5 46.5t12.5 53.5t46.5 28t53.5 -13l35 -26q65 78 140 142
l-26 34q-20 24 -15 52.5t30 46.5q23 17 52.5 13t47.5 -27l25 -34q89 57 176 95l-14 39q-10 28 1.5 54t37.5 36q30 10 57.5 -2.5t37.5 -40.5l13 -38q65 21 133 33q35 6 67 5l11 43q8 29 33.5 43.5t53.5 7.5q29 -8 43.5 -33.5t7.5 -53.5l-11 -43q95 -47 145 -142l45 13
q29 8 55 -6t34 -42q8 -29 -6 -54.5t-42 -33.5l-47 -14q6 -104 -47 -193l39 -35q22 -19 23.5 -48.5t-18.5 -51.5t-50 -23t-51 18l-40 36q-26 -18 -51.5 -29.5t-41.5 -16t-46 -11.5t-45 -11l16 -36q12 -27 1 -54.5t-38 -39.5zM512 768q53 0 90.5 38.5t37.5 93.5
q0 53 -37.5 90.5t-90.5 37.5t-90.5 -37.5t-37.5 -90.5q0 -55 37.5 -93.5t90.5 -38.5zM832 1152q26 0 45 19t19 45t-19 45t-45 19t-45 -19t-19 -45t19 -45t45 -19z" />
    <glyph glyph-name="bacterium" unicode="bacterium" horiz-adv-x="2304" 
d="M2172 1380q11 -37 -7.5 -71.5t-56.5 -45.5l-63 -19q9 -137 -62 -257l52 -47q29 -26 30.5 -65t-24.5 -68q-27 -30 -67 -31.5t-67 24.5l-53 48q-86 -59 -180 -74q-20 -4 -66 -16l21 -49q15 -35 0 -71.5t-49 -52.5q-37 -16 -73 -1.5t-52 49.5l-21 47q-8 -4 -31.5 -20
t-71 -61.5t-83.5 -98.5l47 -22q36 -16 49.5 -53.5t-3.5 -72.5q-12 -25 -35.5 -39.5t-50.5 -14.5q-7 0 -14 1t-12 2.5t-13.5 5t-13 5.5t-17 8t-19.5 9q-13 -44 -20 -83q-14 -84 -65 -165l49 -50q28 -28 27.5 -67.5t-29.5 -66.5q-24 -23 -53 -26t-49 6t-32 22l-46 47
q-123 -80 -260 -73l-15 -58q-8 -32 -34 -51.5t-58 -19.5q-55 0 -78.5 42t-13.5 76l15 59q-128 64 -194 189l-60 -18q-36 -11 -71 7t-47 57q-11 37 7.5 72t56.5 46l62 18q-7 92 41 264l-52 18q-37 13 -54.5 47.5t-4.5 72.5q13 37 48.5 54.5t72.5 4.5l52 -18q49 119 123 235
l-44 32q-32 23 -38 61.5t17 70.5t62 38t71 -17l44 -33q94 112 187 190l-32 43q-24 32 -18.5 70.5t37.5 61.5q31 23 69.5 17.5t64.5 -36.5l31 -42q107 71 235 127l-17 48q-13 37 3.5 72.5t53.5 48.5q39 13 73.5 -4t48.5 -54l17 -48q174 50 267 48l15 57q10 38 44 58t72 10
t58 -43.5t10 -71.5l-16 -58q127 -63 194 -190l61 18q37 11 72 -7.5t46 -56.5zM768 320q80 0 136 56t56 136t-56 136t-136 56t-136 -56t-56 -136t56 -136t136 -56zM1088 864q39 0 65.5 28t26.5 68q0 37 -26.5 64.5t-65.5 27.5q-40 0 -68 -26.5t-28 -65.5q0 -40 28 -68t68 -28
z" />
    <glyph glyph-name="box-tissue" unicode="box&#x2d;tissue" 
d="M1536 640h-1024l-256 1152h566q91 0 164.5 -53t101.5 -139t101.5 -139t164.5 -53h438zM0 -128v256h2048v-256q0 -53 -37.5 -90.5t-90.5 -37.5h-1792q-53 0 -90.5 37.5t-37.5 90.5zM1920 896q53 0 90.5 -37.5t37.5 -90.5v-512h-2048v512q0 53 37.5 90.5t90.5 37.5h196
l57 -256h-61q-26 0 -45 -19t-19 -45t19 -45t45 -19h1408q26 0 45 19t19 45t-19 45t-45 19h-57l85 256h164z" />
    <glyph glyph-name="hand-holding-medical" unicode="hand&#x2d;holding&#x2d;medical" horiz-adv-x="2304" 
d="M2273 447q40 -53 28.5 -119t-69.5 -105l-540 -398q-111 -81 -247 -81h-1385q-24 0 -42 19t-18 45v384q0 26 18.5 47t41.5 21l222 -4l186 151q130 105 296 105h644q59 0 97.5 -45t28.5 -105q-7 -46 -46.5 -76t-86.5 -30h-313q-24 0 -42.5 -19t-18.5 -45q0 -27 17.5 -45.5
t43.5 -18.5h482l479 353q53 40 119 29.5t105 -63.5zM640 1088q-26 0 -45 19t-19 45v256q0 26 19 45t45 19h256v256q0 26 19 45t45 19h256q26 0 45 -19t19 -45v-256h256q26 0 45 -19t19 -45v-256q0 -26 -19 -45t-45 -19h-256v-256q0 -26 -19 -45t-45 -19h-256q-26 0 -45 19
t-19 45v256h-256z" />
    <glyph glyph-name="hand-sparkles" unicode="hand&#x2d;sparkles" horiz-adv-x="2560" 
d="M1792 64q0 -43 24.5 -81.5t68.5 -60.5l37 -15q-195 -163 -450 -163h-151q-161 0 -307 60.5t-259 173.5l-452 453q-47 47 -47 113q0 67 47.5 113.5t112.5 46.5q66 0 113 -47l239 -239v1118q0 53 37.5 90.5t90.5 37.5t90.5 -37.5t37.5 -90.5v-704q0 -26 19 -45t45 -19
t45 19t19 45v832q0 53 37.5 90.5t90.5 37.5t90.5 -37.5t37.5 -90.5v-832q0 -26 19 -45t45 -19t45 19t19 45v704q0 53 37.5 90.5t90.5 37.5t90.5 -37.5t37.5 -90.5v-704q0 -26 19 -45t45 -19t45 19t19 45v448q0 53 37.5 90.5t90.5 37.5t90.5 -37.5t37.5 -90.5v-785
q-52 -24 -78 -76l-63 -151l-158 -66q-38 -20 -61.5 -57.5t-23.5 -80.5zM1399 306q9 11 9 18q0 6 -9 10l-119 50l-50 119q-4 9 -14 9q-12 0 -14 -9l-50 -119l-119 -46q-9 -4 -9 -14q0 -13 9 -15l119 -49l50 -123q4 -9 14 -9q5 0 14 12l50 120zM320 896q-18 0 -24 18l-83 199
l-198 83q-15 8 -15 24q0 12 15 20l198 83l83 198q8 15 24 15t24 -15l83 -199l198 -82q6 -3 15 -24q0 -16 -15 -24l-198 -83l-83 -198q-8 -15 -24 -15zM2556 64q0 -18 -11 -24l-198 -83l-83 -198q-8 -15 -24 -15t-24 15l-83 198l-198 83q-15 8 -15 24t15 24l198 83l83 198
q8 15 24 15q7 0 13 -4.5t7 -10.5l83 -198l199 -83q14 -7 14 -24z" />
    <glyph glyph-name="hands-bubbles" unicode="hands&#x2d;bubbles" horiz-adv-x="2304" 
d="M1664 1536q-53 0 -90.5 36.5t-37.5 87.5q0 53 37.5 90.5t90.5 37.5t90.5 -37.5t37.5 -90.5q0 -51 -37.5 -87.5t-90.5 -36.5zM2076 448q35 0 63 -21.5t35 -55.5q9 -45 -20 -80t-74 -35h-640q-14 0 -23 -9t-9 -23t9 -23t23 -9h508q35 0 63 -21.5t35 -55.5q9 -45 -20 -80
t-74 -35h-512q-14 0 -23 -9t-9 -23t9 -23t23 -9h380q35 0 63 -21.5t35 -55.5q9 -45 -20 -80t-74 -35h-832q-135 0 -248 74q24 59 24 121q0 115 -72.5 203t-183.5 111v103q0 158 94 287t247 180l431 133q38 11 73 -7.5t47 -56.5t-7 -73t-57 -47l-188 -68h796q35 0 63 -21.5
t35 -55.5q9 -45 -20 -80t-74 -35h-512q-14 0 -23 -9t-9 -23t9 -23t23 -9h636zM1246 1078l-64 -19l83 264q11 33 40 53.5t63 16.5q46 -5 70.5 -43.5t10.5 -80.5l-61 -195q-44 14 -76 14q-35 0 -66 -10zM1984 896q-80 0 -136 56t-56 136q0 79 56 133.5t136 54.5
q79 0 135.5 -57.5t56.5 -134.5t-56.5 -132.5t-135.5 -55.5zM375 247q-112 65 -178.5 177t-68.5 244v450q1 40 30.5 68t69.5 28t67.5 -28.5t27.5 -68.5l8 -200l240 759q11 33 40 53.5t63 16.5q46 -5 70.5 -43.5t10.5 -80.5l-154 -488q-6 -12 1 -24t20 -16t24.5 1.5t15.5 18.5
l192 607q11 33 40 53.5t63 16.5q46 -5 70.5 -43.5t10.5 -80.5l-173 -551q-5 -13 1 -24.5t19 -15.5t25 2t16 18l134 426q11 33 39.5 53.5t62.5 16.5q46 -5 71 -43.5t11 -80.5l-137 -433l-295 -91q-192 -64 -310 -227t-118 -365v-102zM448 128q80 0 136 -56t56 -136
q0 -79 -56 -133.5t-136 -54.5q-79 0 -135.5 57.5t-56.5 134.5t56.5 132.5t135.5 55.5z" />
    <glyph glyph-name="handshake-simple-slash" unicode="handshake&#x2d;simple&#x2d;slash" horiz-adv-x="2560" 
d="M1434 1010l108 102q16 18 16 44.5t-15 46.5q-18 17 -44.5 17t-46.5 -17l-262 -239l103 -84l46 42l597 -485q43 -36 45 -97l542 -424q32 -25 37 -64t-20 -71t-64 -37t-71 20l-2368 1856q-32 25 -37 64t20 71q29 37 76 37q33 0 59 -20l492 -386q224 150 483 150h26
l-323 -296l106 -76l373 342q38 33 87 33h34q174 0 334.5 -66t283.5 -189h381q51 0 87.5 -37.5t36.5 -90.5v-643q0 -53 -36 -90.5t-88 -37.5h-327q-16 92 -88 152zM128 1284h32l1477 -1161l-52 -64q-39 -47 -100.5 -53t-108.5 31l-73 61q-64 -82 -168.5 -93t-187.5 56
l-362 327h-457q-50 0 -87 38t-37 90v640q0 53 36 90.5t88 37.5z" />
    <glyph glyph-name="handshake-slash" unicode="handshake&#x2d;slash" horiz-adv-x="2560" 
d="M2172 1279l381 1v-1024h-256q-50 0 -87.5 38t-37.5 90v895zM2364 384q28 0 46 19t15 45q0 24 -17.5 42t-43.5 18q-27 0 -45.5 -17t-18.5 -43t19 -45t45 -19zM0 1279h161l223 -175l-4 -720q0 -53 -37.5 -90.5t-90.5 -37.5h-252v1023zM256 448q0 26 -18 43t-42 17
t-42.5 -17t-18.5 -43t18.5 -45t42.5 -19t42 19t18 45zM512 385v623l1125 -889l-52 -64q-39 -47 -100.5 -53t-108.5 31l-73 61q-64 -82 -168.5 -93t-187.5 56l-362 328h-73zM1981 341l539 -422q31 -25 36 -64.5t-20 -70.5t-64.5 -36t-70.5 20l-2364 1852q-32 25 -37 64t20 71
q29 37 76 37q33 0 59 -20l492 -386q226 150 483 150h27l-324 -296l102 -80l374 346q37 34 86 34h34q174 0 334.5 -66.5t283.5 -189.5v-778q-19 21 -31 31l-583 473l105 95q19 17 19.5 44.5t-15.5 46.5q-17 19 -44.5 20t-46.5 -16l-261 -240l102 -80l46 42l597 -484
q44 -37 46 -97z" />
    <glyph glyph-name="head-side-cough" unicode="head&#x2d;side&#x2d;cough" horiz-adv-x="2560" 
d="M2432 356q40 0 68 -28t28 -68t-28 -68t-68 -28t-68 28t-28 68t28 68t68 28zM1909 692q29 -63 -9 -121.5t-108 -58.5h-128v-128h-384q-53 0 -90.5 -37.5t-37.5 -90.5t37.5 -90.5t90.5 -37.5l380 -4q0 -104 -75 -178t-181 -74h-256v-128h-892v708q-120 108 -188 256.5
t-68 315.5q0 209 103 385.5t279.5 279.5t385.5 103h168q204 0 384 -94t296 -259q43 -61 96.5 -203t109.5 -308t87 -236zM1344 896q52 0 90 38t38 90t-38 90t-90 38t-90 -38t-38 -90t38 -90t90 -38zM1920 356q40 0 68 -28t28 -68q0 -39 -29.5 -67.5t-66.5 -28.5t-64.5 28.5
t-27.5 67.5q0 40 26.5 68t65.5 28zM2432 548q-40 0 -68 28t-28 68t28 68t68 28t68 -28t28 -68t-28 -68t-68 -28zM2176 548q40 0 68 -28t28 -68q0 -39 -29.5 -67.5t-66.5 -28.5t-64.5 28.5t-27.5 67.5q0 40 26.5 68t65.5 28zM2176 164q40 0 68 -28t28 -68q0 -39 -29.5 -67.5
t-66.5 -28.5t-64.5 28.5t-27.5 67.5q0 40 26.5 68t65.5 28zM2432 -28q40 0 68 -28t28 -68t-28 -68t-68 -28t-68 28t-28 68t28 68t68 28z" />
    <glyph glyph-name="head-side-cough-slash" unicode="head&#x2d;side&#x2d;cough&#x2d;slash" horiz-adv-x="2560" 
d="M2428 548q-37 0 -64.5 27.5t-27.5 64.5t26.5 64.5t65.5 27.5t67.5 -27.5t28.5 -64.5t-28.5 -64.5t-67.5 -27.5zM2428 164q-38 0 -67 26.5t-29 65.5q0 40 28 68t68 28t68 -26.5t28 -65.5q0 -40 -28 -68t-68 -28zM2523 -84q32 -25 36 -64t-23 -68q-25 -31 -64.5 -36
t-70.5 20l-2364 1852q-31 25 -36 64.5t20 70.5q29 37 75 37q33 0 59 -20l165 -129q204 149 448 149h168q205 0 385 -95t296 -262q43 -62 97 -203t110 -309t85 -235q28 -61 -10 -118.5t-107 -57.5h-30zM1280 132v-4h346l32 -25q-10 -98 -82.5 -164.5t-171.5 -66.5h-256v-124
h-892v708q-120 108 -188 256.5t-68 315.5q0 163 73 320l1230 -960h-23q-52 0 -88 -40t-36 -92q0 -51 35.5 -87.5t88.5 -36.5zM2172 356q-38 0 -67 26.5t-29 65.5q0 40 28 68t68 28t68 -26.5t28 -65.5q0 -40 -28 -68t-68 -28z" />
    <glyph glyph-name="head-side-mask" unicode="head&#x2d;side&#x2d;mask" 
d="M1 1054q1 45 14 113l881 -641v-782h-640v708q-126 113 -194 269.5t-61 332.5zM1344 320q-27 0 -45 -19t-15 -45q0 -26 19 -45t45 -19h597l-43 -128h-554q-26 0 -45 -19t-19 -45t19 -45t45 -19h508l-2 -17q-26 -79 -93 -127t-150 -48h-583v768h1020l-64 -192h-640z
M2037 692q10 -21 10 -52h-1090l-904 657q88 221 293.5 358t453.5 137h264q204 0 384 -94t296 -259q58 -83 168 -398t125 -349zM1408 896q52 0 88 37.5t36 90.5t-36 90.5t-88 37.5t-90 -38t-38 -90t38 -90t90 -38z" />
    <glyph glyph-name="head-side-virus" unicode="head&#x2d;side&#x2d;virus" 
d="M832 1092q26 0 44.5 -19.5t15.5 -41.5q0 -26 -19.5 -45t-44.5 -19q-24 0 -42 17.5t-18 43.5t19 45t45 19zM1088 836q25 0 45 -19.5t23 -44.5q0 -26 -19 -45t-45 -19t-45 19t-19 45q0 27 17 45.5t43 18.5zM2037 692q29 -64 -10 -122t-111 -58h-128v-260q0 -104 -73.5 -178
t-178.5 -74h-256v-256h-1024v709q-120 107 -188 255.5t-68 315.5q0 209 103 385.5t279.5 279.5t385.5 103h296q204 0 384 -94t296 -259q43 -61 96.5 -203t109.5 -308t87 -236zM1472 832q26 0 43 18.5t17 45.5t-17 45.5t-43 18.5h-48q-41 0 -73 23t-46 56t-7.5 71.5
t35.5 67.5l34 35q19 19 19 45t-19 45t-45 19t-45 -19l-34 -34q-29 -29 -68 -35.5t-72 7.5t-56 46t-23 73v48q0 26 -19 45t-45 19t-45 -19t-19 -45v-48q0 -41 -23 -73t-55.5 -46t-71.5 -7.5t-68 35.5l-35 34q-19 19 -45 19t-45 -19t-19 -45t19 -45l34 -34q29 -29 35.5 -68
t-7.5 -72t-46 -56t-73 -23h-48q-26 0 -45 -19t-19 -45t19 -45t45 -19h48q41 0 73 -23t46 -56t7.5 -72t-35.5 -68l-34 -34q-19 -19 -19 -45t19 -45q18 -19 45 -19q26 0 45 19l34 34q29 29 68 35.5t72 -7.5t56 -46t23 -73v-48q0 -26 19 -45t45 -19t45 19t19 45v48q0 41 23 73
t56 46t72 7.5t68 -35.5l34 -34q18 -19 45 -19q26 0 45 19t19 45t-19 45l-34 34q-29 29 -35.5 68t7.5 72t46 56t73 23h48z" />
    <glyph glyph-name="house-chimney-user" unicode="house&#x2d;chimney&#x2d;user" horiz-adv-x="2304" 
d="M2047 642h128q52 0 90 37.5t38 90.5q6 52 -44 96l-211 186v484q0 53 -37.5 90.5t-90.5 37.5h-128q-53 0 -90.5 -37.5t-37.5 -90.5v-147l-426 375q-34 28 -84 28q-56 0 -88 -32l-1026 -894q-40 -40 -40 -96q0 -54 37 -91t91 -37h128v-642q0 -106 75 -181t181 -75h1282
q106 0 181 75t75 182zM1152 640q-106 0 -181 75t-75 181t75 181t181 75t181 -75t75 -181t-75 -181t-181 -75zM768 128q-26 0 -45 19t-19 45q0 133 93.5 226.5t226.5 93.5h256q133 0 226.5 -93.5t93.5 -226.5q0 -26 -19 -45t-45 -19h-768z" />
    <glyph glyph-name="house-laptop" unicode="house&#x2d;laptop" horiz-adv-x="2560" 
d="M873 1758l-832 -768q-29 -27 -37.5 -65.5t5.5 -75.5t46.5 -59t72.5 -22h128v-448q0 -80 56 -136t136 -56h636v512h-252q-26 0 -45 19t-19 45v256q0 26 19 45t45 19h256q26 0 45 -19t19 -45v-151q77 87 192 87h576q0 56 -41 94l-832 768q-37 34 -87 34t-87 -34zM1344 768
q-54 0 -93 -37.5t-39 -90.5v-640h-128q-25 0 -44.5 -19t-19.5 -45q0 -79 57.5 -135.5t134.5 -56.5h1156q80 0 136 56t56 136q0 26 -19 45t-45 19h-128v640q0 53 -37.5 90.5t-90.5 37.5h-896zM1408 576h768v-576h-768v576z" />
    <glyph glyph-name="lungs-virus" unicode="lungs&#x2d;virus" horiz-adv-x="2560" 
d="M782 14q56 -56 136 -56q16 0 31 3q-81 -105 -210 -139l-238 -64q-76 -18 -148.5 -12.5t-136.5 37.5t-112 79.5t-76 113t-28 137.5q0 61 16 118q129 487 408 924q6 9 25.5 40.5t25 40t23.5 34.5t26.5 34.5t26.5 28.5t30.5 27t32 19t38.5 16.5t42.5 8.5t49.5 4
q116 0 198 -77t82 -186v-111q-47 32 -106 32q-80 0 -136 -56t-56 -136t56 -136l34 -34h-48q-80 0 -136 -56t-56 -136t56 -136t136 -56h48l-34 -35q-56 -56 -56 -135.5t56 -135.5zM1372 1189q-40 27 -99 27q-49 0 -93 -27l4 539q0 27 18.5 45.5t45.5 18.5h64q27 0 45.5 -18.5
t18.5 -45.5zM1687 105q-19 -19 -45 -19t-45 19l-34 34q-29 29 -68 35.5t-72 -7.5t-56 -46t-23 -73v-48q0 -26 -19 -45t-45 -19t-45 19t-19 45v48q0 41 -23 73t-56 46t-72 7.5t-68 -35.5l-34 -34q-18 -19 -45 -19q-26 0 -45 19t-19 45t19 45l34 34q29 29 35.5 68t-7.5 72
t-46 56t-73 23h-48q-26 0 -45 19t-19 45t19 45t45 19h49q41 0 73 23t45.5 55.5t7 71.5t-35.5 68l-34 35q-19 19 -19 45t19 45t45 19t45 -19l34 -34q29 -29 68 -35.5t72 7.5t56 46t23 73v48q0 24 19 42t45 18q27 0 45.5 -17t18.5 -43v-48q0 -41 23 -73t56 -46t72 -7.5
t68 35.5l34 34q19 19 45 19t45 -19t19 -45t-19 -45l-34 -34q-29 -29 -35.5 -68t7.5 -72t46 -56t73 -23h48q26 0 45 -19t19 -45t-19 -45t-45 -19h-49q-41 0 -73 -23t-45.5 -55.5t-7 -71.5t35.5 -68l34 -35q19 -19 19 -45t-19 -45zM1152 580q26 0 45 19.5t19 44.5t-19 44.5
t-45 19.5q-25 0 -44.5 -21.5t-19.5 -46.5q0 -24 19 -42t45 -18zM1408 324q27 0 45.5 17t18.5 43t-19 45t-45 19q-27 0 -45.5 -17t-18.5 -43t19 -45t45 -19zM2544 232q16 -62 16 -119q0 -72 -28 -137.5t-76 -113t-112 -79.5t-136.5 -37.5t-148.5 12.5l-238 64
q-129 34 -210 139q15 -3 31 -3q80 0 136 56t56 136t-56 136l-34 34h48q80 0 136 56t56 136t-56 136t-136 56h-48l34 34q56 56 56 136t-56 136t-136 56q-59 0 -106 -32v111q0 109 82 186t198 77q47 0 87.5 -13.5t64.5 -26t57.5 -52.5t44 -55.5t46.5 -73.5q13 -20 20 -31
q279 -437 408 -924z" />
    <glyph glyph-name="people-arrows-left-right" unicode="people&#x2d;arrows&#x2d;left&#x2d;right" horiz-adv-x="2304" 
d="M384 576q0 -80 55 -128l201 -190v-386q0 -53 -37.5 -90.5t-90.5 -37.5h-256q-53 0 -90.5 37.5t-37.5 90.5l-4 512q-51 0 -87.5 37.5t-36.5 90.5v384q0 106 75 181t181 75h256q79 0 143 -44.5t95 -117.5q-3 -2 -11 -6.5t-12 -7.5l-288 -272q-55 -52 -55 -128zM1920 1280
q-106 0 -181 75t-75 181t75 181t181 75t181 -75t75 -181t-75 -181t-181 -75zM384 1280q-106 0 -181 75t-75 181t75 181t181 75t181 -75t75 -181t-75 -181t-181 -75zM1778 611q14 -14 14 -35t-14 -35l-289 -273q-23 -22 -52 -9t-29 44v145h-512v-144q0 -33 -29 -45
q-28 -12 -52 10l-289 272q-14 14 -14 35.5t14 34.5l289 272q18 22 52 9q29 -13 29 -44v-144h512v144q0 31 29 44t52 -9zM2048 1152q106 0 181 -75t75 -181v-384q0 -53 -37.5 -90.5t-90.5 -37.5v-512q0 -53 -37.5 -90.5t-90.5 -37.5h-256q-53 0 -90.5 37.5t-37.5 90.5v386
l201 190q55 52 55 128t-55 128l-288 272q-4 3 -12 7.5t-11 6.5q29 72 94.5 117t143.5 45h256z" />
    <glyph glyph-name="plane-slash" unicode="plane&#x2d;slash" horiz-adv-x="2560" 
d="M952 1147l-797 625q-32 25 -71 20t-64 -37t-20 -71t37 -64l2368 -1856q32 -25 71 -20t64 37t20 71t-37 64l-761 596h295q71 0 157 33t152 94t66 129q0 66 -65.5 127t-152 95t-157.5 34h-466l-402 704q-37 64 -111 64h-225q-32 0 -51.5 -25.5t-10.5 -56.5zM166 1277
q-38 -12 -38 -53q0 -6 2 -16l126 -436l-126 -444q-2 -10 -2 -12q0 -25 16.5 -42.5t39.5 -17.5h168q31 0 51 26l173 234h412l-197 -690q-9 -31 10.5 -56.5t51.5 -25.5h225q74 0 111 64l261 458z" />
    <glyph glyph-name="pump-medical" unicode="pump&#x2d;medical" horiz-adv-x="1536" 
d="M1517 1416q19 -19 19 -45.5t-19 -45.5l-90 -90q-19 -19 -45.5 -19t-45.5 19l-173 173h-267v-128h-512l-4 384q0 53 37.5 90.5t90.5 37.5h260q53 0 90.5 -37.5t37.5 -90.5h267q100 0 181 -75zM942 1152q99 0 172.5 -67t79.5 -166l81 -896q10 -112 -66 -195.5t-189 -83.5
h-764q-113 0 -189 83.5t-66 195.5l82 896q9 99 82 166t172 67h605zM956 459h4v106q0 22 -15.5 38t-37.5 16h-160v160q0 22 -16 37.5t-38 15.5h-106q-23 0 -38.5 -14.5t-15.5 -38.5v-160h-160q-22 0 -37.5 -16t-15.5 -38v-106q0 -22 15.5 -38t37.5 -16h157v-160
q0 -22 15.5 -37.5t37.5 -15.5h107q22 0 37.5 15.5t15.5 37.5v160h160q22 0 37.5 16t15.5 38zM956 459z" />
    <glyph glyph-name="pump-soap" unicode="pump&#x2d;soap" horiz-adv-x="1536" 
d="M942 1152q99 0 172.5 -67t79.5 -166l81 -896q10 -112 -66 -195.5t-189 -83.5h-764q-113 0 -189 83.5t-66 195.5l82 896q9 99 82 166t172 67h605zM636 128q109 0 184.5 68.5t75.5 166.5q0 65 -70.5 177t-151.5 212q-13 16 -34 16t-34 -16q-81 -100 -151.5 -212t-70.5 -177
q0 -97 74 -166t178 -69zM1517 1416q19 -19 19 -45.5t-19 -45.5l-90 -90q-19 -19 -45.5 -19t-45.5 19l-173 173h-267v-128h-512l-4 384q0 53 37.5 90.5t90.5 37.5h260q53 0 90.5 -37.5t37.5 -90.5h267q100 0 181 -75z" />
    <glyph glyph-name="shield-virus" unicode="shield&#x2d;virus" 
d="M1152 772q26 0 45 -19.5t19 -44.5q0 -24 -19 -42.5t-45 -18.5q-27 0 -45.5 17.5t-18.5 43.5t19 45t45 19zM896 1028q26 0 44.5 -20t15.5 -44q0 -26 -19.5 -45t-44.5 -19q-24 0 -42 19t-18 45t19 45t45 19zM1866 1457q54 -23 86 -71t32 -106q0 -185 -32.5 -359t-88 -313
t-128 -263t-153.5 -217t-163 -167.5t-157.5 -121t-136.5 -71t-101 -24.5q-39 0 -99.5 24.5t-136 70.5t-157.5 120.5t-163 167t-154 217t-128.5 264t-88.5 314.5t-33 362q0 56 32 103.5t86 69.5l768 320q38 15 74 15t74 -15zM1536 772q26 0 45 20t19 47q0 26 -19 45t-45 19
h-48q-56 0 -92.5 39t-36.5 90q0 52 38 90l34 34q19 18 19 45q0 24 -18.5 42.5t-45.5 18.5q-26 0 -45 -19l-34 -34q-38 -38 -90 -38t-90.5 36t-38.5 92v49q0 26 -19 45t-45 19t-45 -19t-19 -45v-53q0 -56 -38.5 -92t-90.5 -36q-51 0 -89 38l-35 31q-17 18 -45 18t-46 -17
t-18 -43q0 -27 19 -45l34 -31q38 -38 38 -89t-36.5 -90t-92.5 -39h-48q-26 0 -45 -19t-19 -45t19 -45t45 -19h49q56 0 92 -38.5t36 -90.5t-38 -90l-34 -34q-19 -18 -19 -45q0 -24 18.5 -42.5t45.5 -18.5q26 0 45 19l35 34q38 38 89 38q52 0 90.5 -36t38.5 -92v-49
q0 -26 19 -45t45 -19t45 19t19 45v49q0 56 38.5 92t90.5 36t90 -38l34 -34q18 -19 45 -19q28 0 46 17.5t18 43.5t-19 45l-34 34q-38 38 -38 90q0 51 36.5 90t92.5 39h48z" />
    <glyph glyph-name="sink" unicode="sink" 
d="M1984 640q26 0 45 -19t19 -45v-128q0 -26 -19 -45t-45 -19h-1920q-26 0 -45 19t-19 45v128q0 26 19 45t45 19h384v128h-256q-27 0 -45.5 19.5t-18.5 48.5v60q0 26 19 45t45 19h320q53 0 90.5 -37.5t37.5 -90.5v-192h256v753q0 141 86.5 253.5t221.5 141.5
q119 23 226.5 -23t170.5 -141t63 -212v-64q0 -26 -19 -45t-45 -19h-128q-26 0 -45 19t-19 45v64q0 53 -37.5 90.5t-90.5 37.5t-90.5 -37.5t-37.5 -90.5v-768h256v188q0 53 37.5 90.5t90.5 37.5l320 -7q26 0 45 -19t19 -45v-61q0 -24 -19 -42t-45 -18h-256v-128h384zM128 128
v128h1792v-128q0 -159 -112.5 -271.5t-271.5 -112.5h-1024q-159 0 -271.5 112.5t-112.5 271.5z" />
    <glyph glyph-name="soap" unicode="soap" 
d="M1280 768q-106 0 -181 75t-75 181t75 181t181 75t181 -75t75 -181t-75 -181t-181 -75zM640 640h768q106 0 181 -75t75 -181t-75 -181t-181 -75h-768q-106 0 -181 75t-75 181t75 181t181 75zM1536 1536q-53 0 -90.5 37.5t-37.5 90.5t37.5 90.5t90.5 37.5t90.5 -37.5
t37.5 -90.5t-37.5 -90.5t-90.5 -37.5zM832 1408q-80 0 -136 56t-56 136t56 136t136 56t136 -56t56 -136t-56 -136t-136 -56zM1664 1024q160 0 272 -111.5t112 -272.5v-512q0 -159 -112.5 -271.5t-271.5 -112.5h-1280q-159 0 -271.5 112.5t-112.5 271.5v512q0 161 112 272.5
t272 111.5h512q0 -138 100 -256h-356q-159 0 -271.5 -112.5t-112.5 -271.5t112.5 -271.5t271.5 -112.5h768q159 0 271.5 112.5t112.5 271.5q0 122 -70 220t-182 139q58 54 91 126.5t33 154.5z" />
    <glyph glyph-name="stopwatch-20" unicode="stopwatch&#x2d;&#x32;&#x30;" horiz-adv-x="1792" 
d="M1104 768v-384q0 -20 14 -34t34 -14t34 14t14 34v384q0 20 -14 34t-34 14t-34 -14t-14 -34zM1088 1792h-384q-53 0 -90.5 -37.5t-37.5 -90.5t37.5 -90.5t90.5 -37.5h64v-138q-148 -23 -278 -96.5t-224 -181t-148 -249.5t-54 -295q0 -169 66 -323.5t177 -265.5t265.5 -177
t323.5 -66t323.5 66t265.5 177t177 265.5t66 323.5q0 248 -134 453l96 97q38 38 38 90t-38 90t-90 38t-90 -38l-87 -86q-175 144 -399 178v138h64q53 0 90.5 37.5t37.5 90.5t-37.5 90.5t-90.5 37.5zM1152 976q86 0 147 -61t61 -147v-384q0 -86 -61 -147t-147 -61t-147 61
t-61 147v384q0 86 61 147t147 61zM688 766h-4q0 21 -12.5 35.5t-33.5 14.5q-36 0 -48 -34l-6 -7q-8 -32 -37 -46t-60 -1q-31 7 -46.5 36t-4.5 61l2 7q22 65 77 104.5t123 39.5q87 0 146.5 -61.5t59.5 -148.5v-9q0 -89 -51 -146l-157 -175q-37 -41 -43 -100h175
q34 0 57 -22.5t23 -57.5q0 -33 -23.5 -56.5t-56.5 -23.5h-256q-35 0 -57.5 23t-22.5 57v63q0 127 85 223l156 176q15 16 15 39v9z" />
    <glyph glyph-name="shop-slash" unicode="store&#x2d;alt&#x2d;slash" horiz-adv-x="2560" 
d="M297 1661l-142 111q-32 25 -71 20t-64 -37t-20 -71t37 -64l2368 -1856q32 -25 71 -20t64 37t20 71t-37 64l-219 171v809h-256v-604l-512 397v207h-256v-6l-171 134h1304q61 0 104 43t43 104q0 45 -25 82l-302 453q-27 40 -69.5 63t-90.5 23h-1586q-48 0 -90.5 -23
t-69.5 -63zM0 1171q0 -61 43 -104t104 -43h340l-403 318l-59 -89q-25 -37 -25 -82zM1280 256h-768v640h-256v-960q0 -80 56 -136t136 -56h896q80 0 136 56t56 136v262l-256 202v-144z" />
    <glyph glyph-name="store-slash" unicode="store&#x2d;slash" horiz-adv-x="2560" 
d="M380 1596l-225 176q-32 25 -71 20t-64 -37t-20 -71t37 -64l2368 -1856q32 -25 71 -20t64 37t20 71t-37 64l-347 272v594q-28 -7 -49 -10q-28 -4 -65 -4q-74 0 -142 21v-401l-715 561q39 24 75 63q106 -116 260 -116q76 0 144 31t117 85q49 -54 117 -85t144 -31q24 0 48 3
q81 11 142.5 61t90 118.5t24 149t-48.5 149.5l-229 362q-32 53 -95 53h-1428q-63 0 -95 -53zM449 899q24 -3 49 -3q63 0 123 22l-425 336q-19 -125 53 -231t200 -124zM640 256v534q-71 -22 -142 -22q-38 0 -66 4h-4q-15 2 -44 10v-782q0 -106 75 -181t181 -75h1280
q77 0 140 41l-598 471h-822z" />
    <glyph glyph-name="toilet-paper-slash" unicode="toilet&#x2d;paper&#x2d;slash" horiz-adv-x="2560" 
d="M256 1028q0 76 10 169l1263 -983q-7 -68 -23.5 -139.5t-28.5 -112t-40 -123.5q-16 -40 -48.5 -64t-72.5 -24h-1124q-33 0 -52 25t-9 56q12 36 38 112.5t33.5 99.5t22.5 73.5t19 77t8 65t4 79.5v689zM2523 -84q32 -25 36 -64t-23 -68q-25 -31 -64.5 -36t-70.5 20
l-2364 1852q-32 25 -37 64t20 71q29 37 76 37q33 0 59 -20l228 -179q52 94 117 146.5t136 52.5h1138q-112 -114 -177 -315.5t-65 -448.5v-335l227 -177q-99 221 -99 512q0 207 51.5 383t140 278.5t192.5 102.5t193 -103t141.5 -279.5t53.5 -385.5q0 -197 -46 -366
t-126 -274.5t-176 -123.5zM1916 1028q0 -107 38.5 -181.5t89.5 -74.5q55 0 91.5 74.5t36.5 181.5q0 106 -37.5 181t-90.5 75t-90.5 -75t-37.5 -181z" />
    <glyph glyph-name="users-slash" unicode="users&#x2d;slash" horiz-adv-x="2560" 
d="M2048 1152q-133 0 -226.5 93.5t-93.5 226.5t93.5 226.5t226.5 93.5t226.5 -93.5t93.5 -226.5t-93.5 -226.5t-226.5 -93.5zM1960 1024h248q146 0 249 -109t103 -264q0 -31 -21 -53t-50 -22h-798q132 153 132 352q0 10 -1 20.5t-2.5 23t-2.5 19.5q69 33 143 33zM1586 650
l934 -731q31 -25 36 -64.5t-20 -70.5t-64.5 -36t-70.5 20l-2364 1852q-31 25 -36 64.5t20 70.5q29 37 75 37q33 0 59 -20l117 -92q96 112 240 112q133 0 226.5 -93.5t93.5 -226.5q0 -100 -60 -184l168 -129q57 85 147 135t196 50q170 0 291 -122t121 -294q0 -159 -109 -278z
M1080 384h223l735 -576q-14 -29 -42 -46.5t-62 -17.5h-1308q-47 0 -80.5 31.5t-33.5 75.5q0 145 76 267.5t207 194t285 71.5zM744 819q35 -138 124 -243h-798q-29 0 -49.5 22t-20.5 53q0 155 103 264t249 109h134z" />
    <glyph glyph-name="virus" unicode="virus" 
d="M1152 1618v46q0 53 -37.5 90.5t-90.5 37.5t-90.5 -37.5t-37.5 -90.5v-46q0 -72 -40 -128t-97.5 -80t-125.5 -13t-119 62l-33 33q-37 38 -90 38t-91 -38t-38 -91t38 -90l33 -33q51 -51 62 -119t-13 -125.5t-80 -97.5t-128 -40h-46q-53 0 -90.5 -37.5t-37.5 -90.5
t37.5 -90.5t90.5 -37.5h46q72 0 128 -40t80 -97.5t13 -125.5t-62 -119l-33 -33q-38 -37 -38 -90t38 -91t91 -38t90 38l33 32q51 51 119 62t125.5 -12.5t97.5 -79.5t40 -128v-46q0 -53 37.5 -90.5t90.5 -37.5t90.5 37.5t37.5 90.5v46q0 72 40 128t97.5 79.5t125.5 12.5
t119 -62l33 -32q37 -38 90 -38t91 38t38 91t-38 90l-32 33q-51 51 -62 119t12.5 125.5t79.5 97.5t128 40h46q53 0 90.5 37.5t37.5 90.5t-37.5 90.5t-90.5 37.5h-46q-72 0 -128 40t-79.5 97.5t-12.5 125.5t62 119l32 33q38 37 38 90t-38 91t-91 38t-90 -38l-33 -33
q-51 -51 -119 -62t-125.5 13t-97.5 80t-40 128zM896 1088q80 0 136 -56t56 -136t-56 -136t-136 -56t-136 56t-56 136t56 136t136 56zM1216 480q-40 0 -68 28t-28 68t28 68t68 28t68 -28t28 -68t-28 -68t-68 -28z" />
    <glyph glyph-name="virus-slash" unicode="virus&#x2d;slash" horiz-adv-x="2560" 
d="M452 882q85 0 148 53l981 -769q-79 -15 -133 -75t-54 -147v-86q0 -47 -33.5 -80.5t-80.5 -33.5t-80.5 33.5t-33.5 80.5v86q0 59 -26.5 108.5t-69.5 77.5t-93.5 38.5t-104 -6t-94.5 -57.5l-61 -61q-34 -34 -81 -34q-46 0 -80 34q-33 33 -33 80.5t33 80.5l61 61
q41 41 57.5 94.5t6 104t-38.5 93.5t-77.5 69.5t-108.5 26.5h-86q-47 0 -80.5 33.5t-33.5 80.5t33.5 80.5t80.5 33.5h82zM2523 -84q32 -25 36 -64t-23 -68q-25 -31 -64.5 -36t-70.5 20l-2364 1852q-32 25 -37 64t20 71q29 37 76 37q33 0 59 -20l385 -302q10 16 16 22
q33 33 80.5 33t80.5 -33l61 -61q41 -41 94.5 -57.5t104 -6t93.5 38.5t69.5 77.5t26.5 108.5v86q0 47 32.5 80.5t77.5 33.5q49 0 83.5 -33.5t34.5 -80.5v-86q0 -59 26.5 -108.5t69.5 -77.5t93.5 -38.5t104 6t94.5 57.5l61 61q33 33 80.5 33t80.5 -33t33 -80.5t-33 -80.5
l-61 -61q-41 -41 -57.5 -94.5t-6 -104t38.5 -93.5t77.5 -69.5t108.5 -26.5h86q47 0 80.5 -33.5t33.5 -80.5t-33.5 -80.5t-80.5 -33.5h-86q-100 0 -164 -70t-62 -163zM1336 846q4 16 4 54q0 77 -54.5 132.5t-133.5 55.5q-52 0 -94 -24z" />
    <glyph glyph-name="viruses" unicode="viruses" horiz-adv-x="2560" 
d="M1386 939q-55 0 -97.5 -30.5t-60.5 -74.5t-10 -96t47 -91l46 -45q25 -25 25 -60.5t-25 -60.5t-60 -25q-36 0 -61 25l-45 46q-39 39 -91 47.5t-96 -10t-74.5 -61t-30.5 -97.5v-65q0 -35 -25 -60t-60 -25t-60 25t-25 60v65q0 55 -30.5 97.5t-74.5 61t-96 10t-91 -47.5
l-45 -46q-25 -25 -61 -25q-35 0 -60 25t-25 60.5t25 60.5l46 45q39 39 47.5 91t-10 96t-61 74.5t-97.5 30.5h-65q-35 0 -60 25t-25 60t25 60t60 25h65q55 0 97.5 30.5t61 74.5t10 96t-47.5 91l-46 45q-25 25 -25 60.5t25 60.5t60.5 25t60.5 -25l45 -46q39 -39 91 -47.5
t96 10t74.5 61t30.5 97.5v65q0 35 25 60t60 25t60 -25t25 -60v-65q0 -55 30.5 -97.5t74.5 -61t96 -10t91 47.5l45 46q25 25 60.5 25t60.5 -25t25 -60.5t-25 -60.5l-46 -45q-39 -39 -47.5 -91t10 -96t61 -74.5t97.5 -30.5h65q35 0 60 -25t25 -60t-25 -60t-60 -25h-65z
M640 1024q53 0 90.5 37.5t37.5 90.5t-37.5 90.5t-90.5 37.5t-90.5 -37.5t-37.5 -90.5t37.5 -90.5t90.5 -37.5zM960 896q26 0 45 19t19 45t-19 45t-45 19t-45 -19t-19 -45t19 -45t45 -19zM2496 384q26 0 45 -19t19 -45t-19 -45t-45 -19h-48q-41 0 -73 -23t-46 -56t-7.5 -71.5
t35.5 -67.5l34 -35q19 -19 19 -45t-19 -45q-21 -19 -45 -19q-26 0 -45 19l-34 34q-29 29 -68 35.5t-72 -7.5t-56 -46t-23 -73v-48q0 -26 -19 -45t-45 -19t-45 19t-19 45v48q0 41 -23 73t-56 46t-71.5 7.5t-67.5 -35.5l-35 -34q-18 -19 -45 -19q-26 0 -45 19t-19 45t19 45
l34 34q29 29 35.5 68t-7.5 72t-46 56t-73 23h-48q-26 0 -45 19t-19 45t19 45t45 19h48q41 0 73 23t46 56t7.5 71.5t-35.5 67.5l-34 35q-19 19 -19 45t19 45t45 19t45 -19l34 -34q29 -29 68 -35.5t72 7.5t56 46t23 73v48q0 26 19 45t45 19t45 -19t19 -45v-48q0 -41 23 -73
t56 -46t72 -7.5t68 35.5l34 34q19 19 45 19t45 -19t19 -45t-19 -45l-34 -34q-29 -29 -35.5 -68t7.5 -72t46 -56t73 -23h48zM1920 256q53 0 90.5 37.5t37.5 90.5t-37.5 90.5t-90.5 37.5t-90.5 -37.5t-37.5 -90.5t37.5 -90.5t90.5 -37.5z" />
    <glyph glyph-name="vest" unicode="vest" horiz-adv-x="1792" 
d="M1749 832q43 -65 43 -142v-818q0 -53 -37.5 -90.5t-90.5 -37.5h-768v896l295 886q-143 -79 -295 -79t-295 79l228 -684l-54 -162q-7 -23 -7 -40v-896h-640q-53 0 -90.5 37.5t-37.5 90.5v818q0 78 43 142l213 320v512q0 53 37.5 90.5t90.5 37.5h128q27 0 53 -16l100 -67
q105 -71 231 -71t231 71l100 67q26 16 53 16h128q53 0 90.5 -37.5t37.5 -90.5v-512zM525 307q19 19 19 45t-19 45t-45 19t-45 -19l-192 -192q-19 -19 -19 -45t19 -45q18 -19 45 -19q26 0 45 19zM1549 115q19 19 19 45t-19 45l-192 192q-19 19 -45 19t-45 -19t-19 -45t19 -45
l192 -192q18 -19 45 -19q26 0 45 19z" />
    <glyph glyph-name="vest-patches" unicode="vest&#x2d;patches" horiz-adv-x="1792" 
d="M1749 832q43 -65 43 -142v-818q0 -53 -37.5 -90.5t-90.5 -37.5h-768v896l295 886q-143 -79 -295 -79t-295 79l228 -684l-54 -162q-7 -23 -7 -40v-896h-640q-53 0 -90.5 37.5t-37.5 90.5v818q0 78 43 142l213 320v512q0 53 37.5 90.5t90.5 37.5h128q27 0 53 -16l100 -67
q105 -71 231 -71t231 71l100 67q26 16 53 16h128q53 0 90.5 -37.5t37.5 -90.5v-512zM254 702l62 -62l-62 -62q-14 -14 -14 -34t14 -34t34 -14t34 14l62 62l62 -62q14 -14 34 -14t34 14t14 34t-14 34l-62 62l62 62q14 14 14 34t-14 34t-34 14t-34 -14l-62 -62l-62 62
q-14 14 -34 14t-34 -14t-14 -34t14 -34zM384 -32q66 0 113 47t47 113t-47 113t-113 47t-113 -47t-47 -113t47 -113t113 -47zM1437 449q44 0 73.5 32.5t25.5 76.5q-4 38 -33.5 63t-68.5 25h-20v20q0 39 -25 68.5t-63 33.5q-44 4 -76 -25.5t-33 -73.5l-1 -194q-3 -11 5 -19
t22 -8z" />
    <glyph glyph-name="airplay" unicode="airplay" horiz-adv-x="2304" 
d="M1920 1664q159 0 271.5 -112.5t112.5 -271.5v-768q0 -152 -104.5 -262t-255.5 -120q-23 41 -46 64l-184 190h206q53 0 90.5 37.5t37.5 90.5v768q0 53 -37.5 90.5t-90.5 37.5h-1536q-53 0 -90.5 -37.5t-37.5 -90.5v-768q0 -53 37.5 -90.5t90.5 -37.5h206l-185 -188
q-29 -29 -49 -66q-149 10 -252.5 120t-103.5 262v768q0 159 112.5 271.5t271.5 112.5h1536zM1230 608l530 -547q25 -25 30.5 -58.5t-6.5 -62t-39.5 -48.5t-62.5 -20h-1059q-35 0 -63 20t-39.5 48t-6.5 61.5t30 58.5l530 548q31 32 78 32q46 0 78 -32z" />
    <glyph glyph-name="alt" unicode="alt" horiz-adv-x="2560" 
d="M1664 128q0 53 37.5 90.5t90.5 37.5h640q53 0 90.5 -37.5t37.5 -90.5t-37.5 -90.5t-90.5 -37.5h-640q-53 0 -90.5 37.5t-37.5 90.5zM2560 1408q0 -53 -37.5 -90.5t-90.5 -37.5h-578l-986 -1232q-38 -48 -100 -48h-640q-53 0 -90.5 37.5t-37.5 90.5t37.5 90.5t90.5 37.5
h578l986 1232q38 48 100 48h640q53 0 90.5 -37.5t37.5 -90.5z" />
    <glyph glyph-name="angle" unicode="angle" horiz-adv-x="1792" 
d="M335 128l675 1351q24 47 7 97t-64 74t-97 7t-74 -64l-768 -1536q-32 -63 5 -124q17 -28 46.5 -44.5t62.5 -16.5h1536q53 0 90.5 37.5t37.5 90.5t-37.5 90.5t-90.5 37.5h-1329zM962 1095l-88 -175q129 -105 225 -242l163 101q-129 186 -300 316zM1284 256l196 4
q-43 219 -150 411l-164 -102q81 -148 118 -313z" />
    <glyph glyph-name="angle-90" unicode="angle&#x2d;&#x39;&#x30;" horiz-adv-x="1792" 
d="M1250 256q-39 171 -125 319l164 98q116 -199 158 -417h-197zM1054 682q-103 141 -244 244l99 166q181 -130 311 -311zM1664 128q53 0 90.5 -37.5t37.5 -90.5t-37.5 -90.5t-90.5 -37.5h-1536q-53 0 -90.5 37.5t-37.5 90.5v1540q0 51 37.5 87.5t90.5 36.5t90.5 -36.5
t37.5 -87.5v-1412h1408zM801 1161l-98 -164q-148 86 -319 125v197q218 -42 417 -158z" />
    <glyph glyph-name="apple-core" unicode="apple&#x2d;core" horiz-adv-x="1536" 
d="M1152 1664q0 -133 -93.5 -226.5t-226.5 -93.5h-128v128q0 133 93.5 226.5t226.5 93.5h128v-128zM1148 576q0 -177 83.5 -329.5t225.5 -250.5q-87 -117 -197 -184.5t-236 -67.5q-55 0 -105.5 16t-88 32t-62.5 16t-62.5 -16t-88 -32t-105.5 -16q-243 0 -436 252
q140 97 222 250t82 330q0 187 -88.5 345t-239.5 252q110 107 268 107q90 0 214.5 -38t229.5 -90q104 52 231 90t218 38q156 0 267 -108q-153 -98 -242.5 -254.5t-89.5 -341.5z" />
    <glyph glyph-name="arrow-down-from-dotted-line" unicode="arrow&#x2d;down&#x2d;from&#x2d;dotted&#x2d;line" horiz-adv-x="1792" 
d="M1280 1412q-53 0 -90.5 37.5t-37.5 90.5t37.5 90.5t90.5 37.5t90.5 -37.5t37.5 -90.5t-37.5 -90.5t-90.5 -37.5zM896 1412q-53 0 -90.5 37.5t-37.5 90.5t37.5 90.5t90.5 37.5t90.5 -37.5t37.5 -90.5t-37.5 -90.5t-90.5 -37.5zM1664 1412q-53 0 -90.5 37.5t-37.5 90.5
t37.5 90.5t90.5 37.5t90.5 -37.5t37.5 -90.5t-37.5 -90.5t-90.5 -37.5zM294 422q-38 38 -38 90t38 90q42 42 90 42t90 -42l294 -290v716q0 53 37.5 90.5t90.5 37.5t90.5 -37.5t37.5 -90.5v-719l294 294q38 37 91 37t90 -37t37 -90t-37 -91l-512 -512q-37 -38 -90 -38t-91 38
zM512 1412q-53 0 -90.5 37.5t-37.5 90.5t37.5 90.5t90.5 37.5t90.5 -37.5t37.5 -90.5t-37.5 -90.5t-90.5 -37.5zM128 1412q-53 0 -90.5 37.5t-37.5 90.5t37.5 90.5t90.5 37.5t90.5 -37.5t37.5 -90.5t-37.5 -90.5t-90.5 -37.5z" />
    <glyph glyph-name="arrow-down-left" unicode="arrow&#x2d;down&#x2d;left" horiz-adv-x="1280" 
d="M1242 1190q38 38 38 90t-37 90t-90 38t-91 -38l-806 -805v587q0 53 -37.5 90.5t-90.5 37.5t-90.5 -37.5t-37.5 -90.5v-896q0 -53 37.5 -90.5t90.5 -37.5h896q53 0 90.5 37.5t37.5 90.5t-37.5 90.5t-90.5 37.5h-587z" />
    <glyph glyph-name="arrow-down-left-and-arrow-up-right-to-center" unicode="arrow&#x2d;down&#x2d;left&#x2d;and&#x2d;arrow&#x2d;up&#x2d;right&#x2d;to&#x2d;center" 
d="M219 -218q-38 -38 -91 -38t-91 37q-37 37 -37 90t37 91l486 486h-203q-53 0 -90.5 37.5t-37.5 90.5t37.5 90.5t90.5 37.5h512q26 0 49 -10q49 -20 69 -69q10 -27 10 -49v-512q0 -53 -37.5 -90.5t-90.5 -37.5t-90.5 37.5t-37.5 90.5v203zM1098 911q-10 23 -10 53v508
q0 53 37.5 90.5t90.5 37.5t90.5 -37.5t37.5 -90.5v-203l486 486q38 37 91 37t90 -37t37 -90t-37 -91l-486 -486h203q53 0 90.5 -37.5t37.5 -90.5t-37.5 -90.5t-90.5 -37.5h-512q-26 0 -49 10q-49 20 -69 69z" />
    <glyph glyph-name="arrow-down-right" unicode="arrow&#x2d;down&#x2d;right" horiz-adv-x="1280" 
d="M1280 1152q0 53 -37.5 90.5t-90.5 37.5t-90.5 -37.5t-37.5 -90.5v-587l-806 806q-38 37 -90 37t-90 -37t-38 -90t38 -91l805 -806h-587q-53 0 -90.5 -37.5t-37.5 -90.5t37.5 -90.5t90.5 -37.5h896q53 0 90.5 37.5t37.5 90.5v896z" />
    <glyph glyph-name="arrow-down-to-bracket" unicode="arrow&#x2d;down&#x2d;to&#x2d;bracket" horiz-adv-x="1792" 
d="M1792 128q0 -159 -112.5 -271.5t-271.5 -112.5h-1024q-159 0 -271.5 112.5t-112.5 271.5v256q0 53 37.5 90.5t90.5 37.5t90.5 -37.5t37.5 -90.5v-256q0 -53 37.5 -90.5t90.5 -37.5h1024q53 0 90.5 37.5t37.5 90.5v256q0 53 37.5 90.5t90.5 37.5t90.5 -37.5t37.5 -90.5
v-256zM986 422q-38 -38 -90.5 -38t-90.5 37l-512 512q-37 37 -37 90t37 91t90 38t91 -38l294 -293v843q0 53 37.5 90.5t90.5 37.5t90.5 -37.5t37.5 -90.5v-843l293 294q37 37 90 37t91 -37t38 -90t-38 -91z" />
    <glyph glyph-name="arrow-down-to-dotted-line" unicode="arrow&#x2d;down&#x2d;to&#x2d;dotted&#x2d;line" horiz-adv-x="1792" 
d="M512 128q53 0 90.5 -37.5t37.5 -90.5t-37.5 -90.5t-90.5 -37.5t-90.5 37.5t-37.5 90.5t37.5 90.5t90.5 37.5zM896 128q53 0 90.5 -37.5t37.5 -90.5t-37.5 -90.5t-90.5 -37.5t-90.5 37.5t-37.5 90.5t37.5 90.5t90.5 37.5zM128 128q53 0 90.5 -37.5t37.5 -90.5t-37.5 -90.5
t-90.5 -37.5t-90.5 37.5t-37.5 90.5t37.5 90.5t90.5 37.5zM294 870q-38 38 -38 90t38 90q42 42 90 42t90 -42l294 -293v719q0 53 37.5 90.5t90.5 37.5t90.5 -37.5t37.5 -90.5v-719l294 294q38 37 91 37t90 -37t37 -90t-37 -91l-512 -512q-37 -38 -90 -38t-91 38zM1280 128
q53 0 90.5 -37.5t37.5 -90.5t-37.5 -90.5t-90.5 -37.5t-90.5 37.5t-37.5 90.5t37.5 90.5t90.5 37.5zM1664 128q53 0 90.5 -37.5t37.5 -90.5t-37.5 -90.5t-90.5 -37.5t-90.5 37.5t-37.5 90.5t37.5 90.5t90.5 37.5z" />
    <glyph glyph-name="arrow-down-to-square" unicode="arrow&#x2d;down&#x2d;to&#x2d;square" 
d="M1792 1408q106 0 181 -75t75 -181v-1152q0 -106 -75 -181t-181 -75h-1536q-106 0 -181 75t-75 181v1152q0 106 75 181t181 75h256v-256h-256v-1152h1536v1152h-256v256h256zM930 297l-352 384q-36 39 -33.5 92t41.5 89t91.5 33.5t88.5 -41.5l130 -141v951q0 53 37.5 90.5
t90.5 37.5t90.5 -37.5t37.5 -90.5v-951l126 141q35 38 87 41.5t94 -33.5q39 -36 41.5 -89t-33.5 -92l-349 -384q-37 -40 -94.5 -40t-93.5 40z" />
    <glyph glyph-name="arrow-trend-down" unicode="arrow&#x2d;trend&#x2d;down" horiz-adv-x="2304" 
d="M1867 384h-331q-53 0 -90.5 -37.5t-37.5 -90.5t37.5 -90.5t90.5 -37.5h640q53 0 90.5 37.5t37.5 90.5v644q0 51 -37.5 89.5t-90.5 38.5t-90.5 -38.5t-37.5 -89.5v-335l-678 677q-38 38 -90 38t-90 -38l-426 -421l-545 549q-37 38 -91 38t-91 -38t-37 -90t37 -90l641 -640
q38 -38 90 -38t90 38l422 421z" />
    <glyph glyph-name="arrow-trend-up" unicode="arrow&#x2d;trend&#x2d;up" horiz-adv-x="2304" 
d="M1536 1152l331 4l-587 -591l-422 421q-38 38 -90 38t-90 -38l-641 -640q-37 -38 -37 -90t37 -90t91 -38t91 38l545 549l426 -421q38 -38 90 -38t90 38l678 677v-331q0 -53 37.5 -90.5t90.5 -37.5t90.5 37.5t37.5 90.5v640q0 53 -37.5 90.5t-90.5 37.5h-640
q-53 0 -90.5 -37.5t-37.5 -90.5t37.5 -90.5t90.5 -37.5z" />
    <glyph glyph-name="arrow-up-arrow-down" unicode="arrow&#x2d;up&#x2d;arrow&#x2d;down" horiz-adv-x="1792" 
d="M74 1059q-39 36 -41 89t36 92l349 384q37 40 94.5 40t93.5 -40l352 -384q36 -39 33.5 -92t-41.5 -89t-91.5 -33.5t-88.5 41.5l-130 141v-1208q0 -53 -37.5 -90.5t-90.5 -37.5t-90.5 37.5t-37.5 90.5v1208l-130 -141q-35 -38 -87 -41.5t-93 33.5zM842 477q39 36 91.5 33.5
t88.5 -41.5l130 -141v1208q0 53 37.5 90.5t90.5 37.5t90.5 -37.5t37.5 -90.5v-1208l123 141q35 38 87 41.5t93 -33.5q39 -36 41.5 -89t-33.5 -92l-348 -384q-37 -40 -95 -40t-94 40l-348 384q-36 39 -33.5 92t41.5 89z" />
    <glyph glyph-name="arrow-up-from-bracket" unicode="arrow&#x2d;up&#x2d;from&#x2d;bracket" horiz-adv-x="1792" 
d="M1536 384q0 53 37.5 90.5t90.5 37.5t90.5 -37.5t37.5 -90.5v-256q0 -159 -112.5 -271.5t-271.5 -112.5h-1024q-159 0 -271.5 112.5t-112.5 271.5v256q0 53 37.5 90.5t90.5 37.5t90.5 -37.5t37.5 -90.5v-256q0 -53 37.5 -90.5t90.5 -37.5h1024q53 0 90.5 37.5t37.5 90.5
v256zM806 1754q38 38 91 38t90 -38l512 -512q37 -38 37 -91t-37 -90t-90 -37t-91 37l-294 294v-843q0 -53 -37.5 -90.5t-90.5 -37.5t-90.5 37.5t-37.5 90.5v843l-293 -293q-37 -38 -90 -38t-91 38t-38 90t38 90z" />
    <glyph glyph-name="arrow-up-from-dotted-line" unicode="arrow&#x2d;up&#x2d;from&#x2d;dotted&#x2d;line" horiz-adv-x="1792" 
d="M512 128q53 0 90.5 -37.5t37.5 -90.5t-37.5 -90.5t-90.5 -37.5t-90.5 37.5t-37.5 90.5t37.5 90.5t90.5 37.5zM896 128q53 0 90.5 -37.5t37.5 -90.5t-37.5 -90.5t-90.5 -37.5t-90.5 37.5t-37.5 90.5t37.5 90.5t90.5 37.5zM128 128q53 0 90.5 -37.5t37.5 -90.5t-37.5 -90.5
t-90.5 -37.5t-90.5 37.5t-37.5 90.5t37.5 90.5t90.5 37.5zM1498 1114q38 -38 38 -90t-38 -90t-90 -38q-53 0 -90 37l-294 294v-715q0 -53 -37.5 -90.5t-90.5 -37.5t-90.5 37.5t-37.5 90.5v715l-294 -294q-38 -37 -91 -37t-90 37t-37 90t37 91l512 512q37 38 90 38t91 -38z
M1280 128q53 0 90.5 -37.5t37.5 -90.5t-37.5 -90.5t-90.5 -37.5t-90.5 37.5t-37.5 90.5t37.5 90.5t90.5 37.5zM1664 128q53 0 90.5 -37.5t37.5 -90.5t-37.5 -90.5t-90.5 -37.5t-90.5 37.5t-37.5 90.5t37.5 90.5t90.5 37.5z" />
    <glyph glyph-name="arrow-up-from-square" unicode="arrow&#x2d;up&#x2d;from&#x2d;square" 
d="M671 1153q-53 0 -90.5 38t-32.5 90q0 51 33 87l349 384q36 40 94 40q55 0 98 -40l348 -384q34 -37 34 -87q0 -53 -37.5 -90.5t-90.5 -37.5q-56 0 -94 42l-130 141v-824q0 -53 -37.5 -90.5t-90.5 -37.5t-90.5 37.5t-37.5 90.5v824l-130 -141q-39 -42 -95 -42zM1792 1408
q106 0 181 -75t75 -181v-1152q0 -106 -75 -181t-181 -75h-1536q-106 0 -181 75t-75 181v1152q0 106 75 181t181 75h128v-256h-128v-1152h1536v1152h-128v256h128z" />
    <glyph glyph-name="arrow-up-left" unicode="arrow&#x2d;up&#x2d;left" horiz-adv-x="1280" 
d="M1242 166q38 38 38 90t-37 90l-806 806h587q53 0 90.5 37.5t37.5 90.5t-37.5 90.5t-90.5 37.5h-896q-53 0 -90.5 -37.5t-37.5 -90.5v-896q0 -53 37.5 -90.5t90.5 -37.5t90.5 37.5t37.5 90.5v587l806 -805q38 -38 90 -38t90 38z" />
    <glyph glyph-name="arrow-up-left-from-circle" unicode="arrow&#x2d;up&#x2d;left&#x2d;from&#x2d;circle" 
d="M1333 448q-37 -38 -90 -38t-91 38l-896 907v-331q0 -53 -37 -88.5t-91 -35.5t-91 35.5t-37 88.5v644q0 50 37 87t91 37h640q53 0 89 -38t39 -94q0 -51 -37.5 -87.5t-90.5 -36.5h-331l896 -907q37 -37 37 -90t-37 -91zM1301 1524q214 -36 384.5 -162t266.5 -315.5
t96 -406.5q0 -182 -71 -348t-191 -286t-286 -191t-348 -71q-217 0 -406.5 96t-315.5 266.5t-162 384.5q-9 52 21.5 95t83.5 52t96 -21.5t52 -83.5q39 -232 217.5 -382.5t413.5 -150.5q130 0 248.5 51t204 136.5t136.5 204t51 248.5q0 235 -150.5 413.5t-382.5 217.5
q-53 9 -83.5 52t-21.5 95q9 53 52 84t95 22z" />
    </font>
</defs>
</svg>
