<?xml version="1.0" standalone="no"?>
<!DOCTYPE svg PUBLIC "-//W3C//DTD SVG 1.1//EN" "http://www.w3.org/Graphics/SVG/1.1/DTD/svg11.dtd" >
<svg xmlns="http://www.w3.org/2000/svg" xmlns:xlink="http://www.w3.org/1999/xlink" version="1.1">
<metadata>
Created by FontForge 20201107 at Fri Sep  6 19:03:43 2024
 By 
Copyright (c) Font Awesome
</metadata>
<defs>
<font id="FontAwesome6Pro-Light" horiz-adv-x="2048" >
  <font-face 
    font-family="Font Awesome 6 Pro Light"
    font-weight="300"
    font-stretch="normal"
    units-per-em="2048"
    panose-1="2 0 4 3 0 0 0 0 0 0"
    ascent="1792"
    descent="-256"
    x-height="1660"
    bbox="-128 -320 2561.8 1796.72"
    underline-thickness="0"
    underline-position="0"
    unicode-range="U+0020-1FAE5"
  />
<missing-glyph horiz-adv-x="1536" 
d="M1344 1792q80 0 136 -56t56 -136v-1664q0 -80 -56 -136t-136 -56h-1152q-80 0 -136 56t-56 136v1664q0 80 56 136t136 56h1152zM1408 1554l-561 -786l561 -786v1572zM768 878l561 786h-1122zM689 768l-561 786v-1572zM768 658l-561 -786h1122z" />
    <glyph glyph-name="exclamation" unicode="exclamation" horiz-adv-x="512" 
d="M256 192q53 0 90.5 -37.5t37.5 -90.5t-37.5 -90.5t-90.5 -37.5t-90.5 37.5t-37.5 90.5t37.5 90.5t90.5 37.5zM256 384q-26 0 -45 19t-19 45v1152q0 26 19 45t45 19t45 -19t19 -45v-1152q0 -26 -19 -45t-45 -19z" />
    <glyph glyph-name="ditto" unicode="ditto" horiz-adv-x="1280" 
d="M256 1664q122 0 196 -92q78 -97 56 -219l-101 -581q-10 -57 -53 -94.5t-98 -37.5t-98 37.5t-53 94.5l-101 580q-22 123 56 220q74 92 196 92zM281 794l101 581q11 65 -30 117q-35 44 -96 44t-96 -43q-41 -52 -30 -118l101 -581q5 -26 25 -26q19 0 25 26zM1220 1572
q78 -98 52 -219l-101 -581q-10 -56 -53.5 -94t-97.5 -38q-53 0 -95.5 37.5t-55.5 94.5l-100 581q-22 123 55 219q74 92 196 92q126 0 200 -92zM1049 794l97 581q11 66 -29 117q-35 44 -97 44q-56 0 -96 -43q-40 -51 -29 -118l101 -581q5 -26 24 -26q11 0 19 7.5t10 18.5z
" />
    <glyph glyph-name="hashtag" unicode="hashtag" horiz-adv-x="1792" 
d="M1728 1216q27 0 45.5 -19.5t18.5 -48.5q0 -26 -19 -45t-45 -19h-372l-148 -636h392q26 0 45 -19t19 -45t-19 -45t-45 -19h-422l-92 -398q-5 -24 -22 -37t-40 -13q-4 0 -14 2q-26 6 -40 28.5t-8 47.5l85 370h-509l-92 -398q-5 -24 -22 -37t-40 -13q-4 0 -14 2
q-26 6 -40 28.5t-8 47.5l85 370h-343q-26 0 -45 19t-19 45t19 45t45 19h372l148 640h-392q-26 0 -45 19t-19 45t19 45t45 19h422l92 406q6 24 28 37t48 7t40 -29t8 -48l-85 -369h509l92 398q6 24 28 37t48 7t40 -28.5t8 -47.5l-85 -370h343zM1076 448l148 640h-508
l-152 -640h512z" />
    <glyph glyph-name="dollar-sign" unicode="dollar&#x2d;sign" horiz-adv-x="1280" 
d="M704 1533v195q0 26 -19 45t-45 19t-45 -19t-19 -45v-190q-38 0 -75 -3q-164 -14 -270 -83q-129 -86 -159 -244q-23 -123 22 -215q41 -83 134 -143q50 -32 123.5 -60.5t123.5 -42.5t142 -38l7 -2q94 -25 142 -39t112 -38.5t105 -50.5q64 -41 87 -90q27 -55 12 -135
q-25 -127 -171 -184q-159 -62 -392 -29q-203 31 -366 101q-24 10 -48.5 0t-35.5 -34q-11 -22 -0.5 -48t34.5 -36q175 -75 397 -109q10 -1 36 -3.5t40 -5.5v-198q0 -26 19 -45t45 -19t45 19t19 45v194q143 5 254 48q100 39 165.5 110t84.5 170q21 115 -22 215
q-46 86 -134 142q-49 32 -122 60.5t-125.5 43.5t-141.5 38l-7 2q-98 26 -143 39t-110 37.5t-106 50.5q-65 42 -88 91q-27 55 -12 135q21 107 104 161q79 51 211 62q198 16 497 -56q26 -6 48.5 8t28.5 39q6 26 -8 48.5t-39 28.5q-191 45 -335 58z" />
    <glyph glyph-name="percent" unicode="percentage" horiz-adv-x="1536" 
d="M1517 1517q19 -19 19 -45t-19 -45l-1408 -1408q-18 -19 -45 -19q-24 0 -45 19q-19 19 -19 45t19 45l1408 1408q19 19 45 19t45 -19zM256 1024q-105 0 -180.5 78t-75.5 182t75 178t181 74t181 -75t75 -181t-75 -181t-181 -75zM256 1408q-53 0 -90.5 -37.5t-37.5 -90.5
t37.5 -90.5t90.5 -37.5t90.5 37.5t37.5 90.5t-37.5 90.5t-90.5 37.5zM1280 512q106 0 181 -75t75 -181t-75 -181t-181 -75t-181 75t-75 181t75 181t181 75zM1280 128q53 0 90.5 37.5t37.5 90.5t-37.5 90.5t-90.5 37.5t-90.5 -37.5t-37.5 -90.5t37.5 -90.5t90.5 -37.5z" />
    <glyph glyph-name="ampersand" unicode="ampersand" horiz-adv-x="1536" 
d="M1518 -20q18 -19 17 -45.5t-22 -44.5q-24 -18 -45 -18t-46 20l-268 278l-56 -81q-68 -101 -180.5 -159t-236.5 -58h-266q-172 0 -293.5 119.5t-121.5 287.5q0 93 40.5 175.5t114.5 141.5l333 266l-193 201q-107 115 -107 268q0 137 101.5 235t242.5 98h216
q140 0 238.5 -97t101.5 -236q0 -76 -33 -144t-94 -116l-279 -221l460 -479l277 397q15 22 41 26.5t48 -10.5t26.5 -41t-10.5 -48l-292 -418zM392 1151l200 -209l290 229q78 61 78 160q0 85 -62 145t-150 60h-216q-88 0 -151.5 -60.5t-60.5 -144.5q0 -103 72 -180zM996 162
l71 102l-486 506l-347 -275q-106 -83 -106 -216q0 -115 84 -197t203 -82h266q94 0 178 43t137 119z" />
    <glyph glyph-name="apostrophe" unicode="apostrophe" horiz-adv-x="768" 
d="M448 1664q133 0 226.5 -93.5t93.5 -226.5v-384q0 -185 -131.5 -316.5t-316.5 -131.5q-26 0 -45 19t-19 45t19 45t45 19q132 0 226 94t94 226v129q-86 -65 -192 -65q-133 0 -226.5 93.5t-93.5 226.5t93.5 226.5t226.5 93.5zM448 1152q80 0 136 56t56 136t-56 136t-136 56
t-136 -56t-56 -136t56 -136t136 -56z" />
    <glyph glyph-name="bracket-round" unicode="bracket&#x2d;round" horiz-adv-x="768" 
d="M486 -12q-180 142 -276 365q-82 190 -82 408q0 105 19.5 204.5t48.5 173t69 141.5t73.5 111t70.5 80.5t52 49.5l25 20q22 16 26 42t-12 47q-16 22 -42 26t-48 -11q-7 -4 -28.5 -21t-60 -57t-80 -90.5t-85.5 -126.5t-78 -160.5t-56 -196t-22 -229.5t22.5 -230t55.5 -195
t78.5 -160t84.5 -125.5t80.5 -90.5t59.5 -57t29 -22q16 -12 38 -12q32 0 52 26q16 21 12 47.5t-26 42.5z" />
    <glyph glyph-name="bracket-round-right" unicode="bracket&#x2d;round&#x2d;right" horiz-adv-x="768" 
d="M636 772q0 -106 -19.5 -206t-48 -174t-68 -142.5t-72.5 -111.5t-69.5 -80.5t-51.5 -50t-25 -19.5q-22 -16 -26 -42.5t12 -47.5q20 -26 52 -26q22 0 38 16q7 4 28.5 21t60 56t80 89.5t85.5 126t78 160t56 196.5t22 231t-22.5 231.5t-55.5 196t-78.5 160.5t-85 126t-81 91
t-59.5 56.5t-29 22.5q-21 15 -47 11.5t-42 -25.5q-15 -22 -11.5 -47.5t22.5 -38.5q10 -7 25 -19.5t52 -50t70.5 -80.5t73.5 -111t68.5 -142t48 -173t19.5 -204z" />
    <glyph glyph-name="asterisk" unicode="asterisk" horiz-adv-x="1792" 
d="M1655 320q13 23 7 48t-29 39l-611 361l611 364q23 14 29 40t-7 48q-14 23 -39 29.5t-48 -6.5l-608 -359v716q0 26 -19 45t-45 19t-45 -19t-19 -45v-716l-607 355q-23 13 -48.5 6.5t-39.5 -29.5q-13 -23 -7 -48t29 -39l611 -361l-611 -361q-23 -13 -29 -39t7 -49
q19 -31 55 -31q17 0 32 9l608 359v-720q0 -25 21.5 -44.5t46.5 -19.5q24 0 42 19t18 45v720l604 -359q15 -9 32 -9q40 0 59 32z" />
    <glyph glyph-name="plus" unicode="add" horiz-adv-x="1792" 
d="M1728 768q0 26 -19 45t-45 19h-704v704q0 26 -19 45t-45 19t-45 -19t-19 -45v-704h-704q-26 0 -45 -19t-19 -45t19 -45t45 -19h704v-704q0 -26 19 -45t45 -19t45 19t19 45v704h704q26 0 45 19t19 45z" />
    <glyph glyph-name="comma" unicode="comma" horiz-adv-x="768" 
d="M626 482q38 -108 -19 -201l-271 -461q-20 -34 -53.5 -53t-72.5 -19q-35 0 -46 5q-50 18 -76.5 63.5t-17.5 97.5l90 527q19 112 118 169q51 30 115 30q75 0 141 -43.5t92 -114.5zM496 342q28 47 9 97q-11 31 -44.5 52t-71.5 21q-29 0 -51 -13q-45 -26 -55 -80l-91 -527
q-2 -14 12 -19h5q12 0 17 8z" />
    <glyph glyph-name="hyphen" unicode="hyphen" horiz-adv-x="1280" 
d="M1280 768q0 26 -19 45t-45 19h-1152q-26 0 -45 -19t-19 -45t19 -45t45 -19h1152q26 0 45 19t19 45z" />
    <glyph glyph-name="period" unicode="period" horiz-adv-x="512" 
d="M256 384q106 0 181 -75t75 -181t-75 -181t-181 -75t-181 75t-75 181t75 181t181 75zM256 0q53 0 90.5 37.5t37.5 90.5t-37.5 90.5t-90.5 37.5t-90.5 -37.5t-37.5 -90.5t37.5 -90.5t90.5 -37.5z" />
    <glyph glyph-name="slash-forward" unicode="slash&#x2d;forward" horiz-adv-x="1280" 
d="M1249 1783q23 -13 29 -39.5t-7 -48.5l-1152 -1920q-19 -31 -55 -31q-18 0 -33 9q-22 13 -29 39t7 49l1152 1920q13 23 39 29t49 -7z" />
    <glyph glyph-name="colon" unicode="colon" horiz-adv-x="512" 
d="M256 1024q-106 0 -181 75t-75 181t75 181t181 75t181 -75t75 -181t-75 -181t-181 -75zM256 1408q-53 0 -90.5 -37.5t-37.5 -90.5t37.5 -90.5t90.5 -37.5t90.5 37.5t37.5 90.5t-37.5 90.5t-90.5 37.5zM256 512q106 0 181 -75t75 -181t-75 -181t-181 -75t-181 75t-75 181
t75 181t181 75zM256 128q53 0 90.5 37.5t37.5 90.5t-37.5 90.5t-90.5 37.5t-90.5 -37.5t-37.5 -90.5t37.5 -90.5t90.5 -37.5z" />
    <glyph glyph-name="semicolon" unicode="semicolon" horiz-adv-x="768" 
d="M384 1024q-106 0 -180.5 75.5t-71.5 180.5q0 106 73.5 181t178.5 75q106 0 181 -75t75 -181t-75 -181t-181 -75zM380 1408q-50 0 -87 -38t-37 -90t37 -90t87 -38q53 0 90.5 37.5t37.5 90.5t-37.5 90.5t-90.5 37.5zM389 644q76 0 143 -44.5t93 -113.5q39 -107 -18 -205
l-271 -461q-20 -34 -53.5 -53t-72.5 -19q-37 0 -50 8q-49 18 -76 64t-18 98l90 526q19 112 118 169q53 31 115 31zM496 342q28 47 9 97q-11 31 -44.5 52t-71.5 21q-29 0 -51 -13q-45 -26 -55 -80l-91 -527q-2 -14 12 -19h5q12 0 17 8z" />
    <glyph glyph-name="less-than" unicode="less&#x2d;than" horiz-adv-x="1536" 
d="M1530 102q11 24 1.5 49.5t-36.5 38.5l-1276 582l1276 578q24 11 33.5 36t-1.5 49t-36 33t-49 -2l-1405 -640q-37 -16 -37 -58q0 -35 37 -58l1405 -640q13 -6 26 -6q45 0 62 38z" />
    <glyph glyph-name="equals" unicode="equals" horiz-adv-x="1792" 
d="M64 1088q-26 0 -45 19t-19 45t19 45t45 19h1664q26 0 45 -19t19 -45t-19 -45t-45 -19h-1664zM1728 448q26 0 45 -19t19 -45t-19 -45t-45 -19h-1664q-26 0 -45 19t-19 45t19 45t45 19h1664z" />
    <glyph glyph-name="greater-than" unicode="greater&#x2d;than" horiz-adv-x="1536" 
d="M6 1435q-12 -24 -2 -49.5t37 -36.5l1277 -581l-1277 -582q-24 -11 -33.5 -35.5t1.5 -48.5t36 -33.5t49 1.5l1405 640q37 16 37 58q0 40 -41 62l-1404 640q-13 6 -27 6q-39 0 -58 -41z" />
    <glyph glyph-name="question" unicode="question" horiz-adv-x="1280" 
d="M852 1664q177 0 302.5 -125.5t125.5 -302.5q0 -115 -58.5 -215.5t-159.5 -156.5l-389 -219q-33 -18 -33 -56v-141q0 -26 -19 -45t-45 -19t-45 19t-19 45v141q0 52 26.5 96.5t71.5 70.5l389 219q71 40 112 110t41 151q0 124 -87.5 212t-211.5 88h-426q-124 0 -211.5 -87.5
t-87.5 -211.5v-85q0 -27 -19 -45.5t-45 -18.5t-45 19t-19 45v85q0 176 125.5 301.5t301.5 125.5h425zM576 192q53 0 90.5 -37.5t37.5 -90.5t-37.5 -90.5t-90.5 -37.5t-90.5 37.5t-37.5 90.5t37.5 90.5t90.5 37.5z" />
    <glyph glyph-name="at" unicode="at" 
d="M1039 1728q196 -3 370.5 -79t300 -204t199.5 -304.5t75 -373.5v-84q0 -136 -87 -240.5t-219 -121.5q-112 -15 -208 37.5t-147 147.5q-62 -87 -157.5 -137.5t-205.5 -50.5q-101 0 -191.5 44t-151.5 115.5t-89 170t-9 202.5q24 134 121 232.5t229 124.5q116 22 223 -13
t184 -114v71q0 26 19 45t45 19t45 -19t19 -45v-480q0 -106 83.5 -174.5t191.5 -44.5q76 17 124.5 81t48.5 144v90q0 175 -66.5 331t-180 267.5t-270.5 175t-331 59.5q-176 -4 -332.5 -77.5t-265 -193.5t-166.5 -283.5t-47 -339.5q10 -157 73 -295t164 -239t239 -163.5
t295 -72.5q25 -2 42.5 -20t17.5 -43q0 -28 -20.5 -47.5t-48.5 -17.5q-235 15 -429 128t-313.5 302t-143.5 422q-14 140 12.5 277.5t86 255t150.5 218t202 171t244.5 109.5t274.5 37zM960 447q133 0 226.5 93.5t93.5 226.5t-94 226.5t-226 93.5t-226 -93.5t-94 -226.5
t93.5 -226.5t226.5 -93.5z" />
    <glyph glyph-name="bracket-square" unicode="bracket&#x2d;square" horiz-adv-x="768" 
d="M192 1536q-26 0 -45 -19t-19 -45v-1408q0 -26 19 -45t45 -19h384q26 0 45 -19t19 -45t-19 -45t-45 -19h-384q-80 0 -136 56t-56 136v1408q0 80 56 136t136 56h384q26 0 45 -19t19 -45t-19 -45t-45 -19h-384z" />
    <glyph glyph-name="slash-back" unicode="slash&#x2d;back" horiz-adv-x="1280" 
d="M119 1761l1152 -1920q13 -22 7 -48.5t-29 -39.5q-15 -9 -33 -9q-36 0 -55 31l-1152 1920q-14 22 -7 48.5t29 39.5q23 13 48.5 7t39.5 -29z" />
    <glyph glyph-name="bracket-square-right" unicode="bracket&#x2d;square&#x2d;right" horiz-adv-x="768" 
d="M640 1472q0 26 -19 45t-45 19h-384q-26 0 -45 19t-19 45t19 45t45 19h384q80 0 136 -56t56 -136v-1408q0 -80 -56 -136t-136 -56h-384q-26 0 -45 19t-19 45t19 45t45 19h384q26 0 45 19t19 45v1408z" />
    <glyph glyph-name="accent-grave" unicode="accent&#x2d;grave" horiz-adv-x="768" 
d="M161 1430q-58 100 -15 204q23 71 89.5 114.5t143.5 43.5q64 0 115 -30q99 -57 118 -169l90 -527q9 -52 -17.5 -97.5t-76.5 -63.5q-24 -9 -50 -9q-39 0 -72.5 19t-53.5 53zM263 1591q-19 -50 9 -97l270 -461q5 -8 17 -8h5q14 5 12 19l-91 527q-10 54 -55 80q-22 13 -51 13
q-38 0 -71.5 -21t-44.5 -52z" />
    <glyph glyph-name="bracket-curly" unicode="bracket&#x2d;curly&#x2d;left" horiz-adv-x="1024" 
d="M384 1182q0 -122 -53 -231t-148 -183q95 -74 148 -183t53 -231v-162q0 -80 56 -136t136 -56h256q26 0 45 -19t19 -45t-19 -45t-45 -19h-256q-132 0 -226 94t-94 226v162q0 114 -59.5 210t-161.5 147q-35 17 -35 57t35 57q102 51 161.5 147t59.5 210v162q0 132 94 226
t226 94h256q26 0 45 -19t19 -45t-19 -45t-45 -19h-256q-80 0 -136 -56t-56 -136v-162z" />
    <glyph glyph-name="pipe" unicode="pipe" horiz-adv-x="256" 
d="M192 1728q0 26 -19 45t-45 19t-45 -19t-19 -45v-1920q0 -26 19 -45t45 -19t45 19t19 45v1920z" />
    <glyph glyph-name="bracket-curly-right" unicode="bracket&#x2d;curly&#x2d;right" horiz-adv-x="1024" 
d="M841 768q-95 75 -148 183.5t-53 230.5v162q0 80 -56 136t-136 56h-256q-26 0 -45 19t-19 45t19 45t45 19h256q132 0 226 -94t94 -226v-162q0 -114 59.5 -210t161.5 -147q35 -17 35 -57t-35 -57q-102 -51 -161.5 -147t-59.5 -210v-162q0 -132 -94 -226t-226 -94h-256
q-26 0 -45 19t-19 45t19 45t45 19h256q80 0 136 56t56 136v162q0 122 53 230.5t148 183.5z" />
    <glyph glyph-name="tilde" unicode="tilde" horiz-adv-x="1792" 
d="M1792 1088q0 26 -19 45t-45 19t-45 -19t-19 -45v-320q0 -110 -65 -197.5t-171 -113.5q-91 -24 -180 10.5t-144 112.5l-301 434q-64 93 -162 147.5t-208 54.5q-179 -2 -306 -129t-127 -307v-332q0 -26 19 -45t45 -19t45 19t19 45v320q0 109 63.5 197t164.5 114
q97 24 187 -10.5t145 -112.5l301 -434q64 -93 162 -147.5t208 -54.5q179 2 306 129t127 306v333z" />
    <glyph glyph-name="sterling-sign" unicode="gbp" horiz-adv-x="1280" 
d="M0 704q0 -26 19 -45t45 -19h896q26 0 45 19t19 45t-19 45t-45 19h-896q-26 0 -45 -19t-19 -45zM672 1536h28q54 0 108 -18l324 -107q26 -8 49.5 4t31.5 37q6 26 -5.5 49.5t-35.5 31.5l-320 106q-77 25 -152 25h-28q-130 0 -240.5 -64.5t-175 -175t-64.5 -240.5v-504
q0 -376 -180 -705l-4 -8q-18 -33 1 -64q20 -31 55 -31h1152q26 0 45 19t19 45t-19 45t-45 19h-1048q152 322 152 680v504q0 146 103 249t249 103z" />
    <glyph glyph-name="yen-sign" unicode="cny" horiz-adv-x="1280" 
d="M640 910l-524 727q-16 22 -41.5 26.5t-47.5 -11.5t-26.5 -41.5t11.5 -47.5l480 -667h-300q-26 0 -45 -19t-19 -45t19 -45t45 -19h384v-256h-384q-26 0 -45 -19t-19 -45t19 -45t45 -19h384v-448q0 -26 19 -45t45 -19t45 19t19 45v448h384q26 0 45 19t19 45t-19 45t-45 19
h-384v256h384q26 0 45 19t19 45t-19 45t-45 19h-304l480 667q18 22 14.5 47.5t-24.5 41.5q-22 16 -48 11.5t-42 -26.5z" />
    <glyph glyph-name="copyright" unicode="copyright" 
d="M1024 1792q209 0 398.5 -81t326.5 -218t218 -326.5t81 -398.5t-81 -398.5t-218 -326.5t-326.5 -218t-398.5 -81t-398.5 81t-326.5 218t-218 326.5t-81 398.5t81 398.5t218 326.5t326.5 218t398.5 81zM1024 -128q182 0 348 71t286 191t191 286t71 348t-71 348t-191 286
t-286 191t-348 71t-348 -71t-286 -191t-191 -286t-71 -348t71 -348t191 -286t286 -191t348 -71zM1296 1040q-109 109 -272 109t-272 -109q-112 -108 -112 -272q0 -166 112 -272q109 -109 272 -109t272 109q19 19 45 19t45 -19t19 -45t-19 -45q-150 -150 -362 -150t-362 150
t-150 362t150 362q95 95 228.5 129t267 0t228.5 -129q19 -19 19 -45t-19 -45t-45 -19t-45 19z" />
    <glyph glyph-name="angles-left" unicode="angle&#x2d;double&#x2d;left" horiz-adv-x="1792" 
d="M811 1456q20 -18 21 -45.5t-16 -45.5l-538 -597l538 -594q18 -20 16.5 -46t-21.5 -44t-46.5 -16.5t-44.5 21.5l-576 636q-16 19 -16 43.5t16 42.5l576 640q18 20 44.5 21.5t46.5 -16.5zM1046 768l538 -590q18 -20 16.5 -46t-21.5 -44t-46.5 -17t-44.5 21l-576 637
q-16 19 -16 43.5t16 42.5l576 636q18 20 44.5 21.5t46.5 -16.5t21 -45.5t-16 -45.5z" />
    <glyph glyph-name="registered" unicode="registered" 
d="M1024 1792q209 0 398.5 -81t326.5 -218t218 -326.5t81 -398.5t-81 -398.5t-218 -326.5t-326.5 -218t-398.5 -81t-398.5 81t-326.5 218t-218 326.5t-81 398.5t81 398.5t218 326.5t326.5 218t398.5 81zM1024 -128q182 0 348 71t286 191t191 286t71 348t-71 348t-191 286
t-286 191t-348 71t-348 -71t-286 -191t-191 -286t-71 -348t71 -348t191 -286t286 -191t348 -71zM1472 928q0 -109 -61.5 -198t-160.5 -129l149 -248q13 -23 7 -48.5t-29 -39.5q-15 -9 -33 -9q-36 0 -55 31l-173 289h-348v-256q0 -26 -19 -45t-45 -19t-45 19t-19 45v768
q0 80 56 136t136 56h288q146 0 249 -103t103 -249zM1120 704q93 0 158.5 65.5t65.5 158.5t-65.5 158.5t-158.5 65.5h-288q-26 0 -45 -19t-19 -45v-384h352z" />
    <glyph glyph-name="paragraph" unicode="paragraph" horiz-adv-x="1792" 
d="M1728 1664q26 0 45 -19t19 -45t-19 -45t-45 -19h-192v-1600q0 -26 -19 -45t-45 -19t-45 19t-19 45v1600h-256v-1600q0 -26 -19 -45t-45 -19t-45 19t-19 45v448h-234q-169 0 -316.5 78t-240.5 215.5t-104 304.5q-9 132 35.5 257t135.5 222t212.5 150t251.5 53h964z
M1020 512v1024h-256q-212 0 -362 -150t-150 -362t150 -362t362 -150h256z" />
    <glyph glyph-name="angles-right" unicode="angle&#x2d;double&#x2d;right" horiz-adv-x="1792" 
d="M304 1451l576 -644q16 -19 16 -43.5t-16 -42.5l-576 -636q-18 -20 -44.5 -21.5t-46.5 16.5t-21 45.5t16 45.5l538 597l-538 597q-18 20 -16.5 46.5t21.5 44.5t46.5 16.5t44.5 -21.5zM1648 811q16 -18 16 -43.5t-16 -46.5l-576 -636q-18 -20 -44.5 -21.5t-46.5 16.5
t-21 45.5t16 45.5l538 597l-538 597q-18 20 -16.5 46.5t21.5 44.5t46.5 16.5t44.5 -21.5z" />
    <glyph glyph-name="xmark" unicode="close" horiz-adv-x="1280" 
d="M1261 147q19 19 19 45t-19 45l-531 531l531 531q19 19 19 45t-19 45t-45 19t-45 -19l-531 -531l-531 531q-19 19 -45 19t-45 -19t-19 -45t19 -45l531 -531l-531 -531q-19 -19 -19 -45t19 -45t45 -19t45 19l531 531l531 -531q19 -19 45 -19t45 19z" />
    <glyph glyph-name="empty-set" unicode="empty&#x2d;set" 
d="M1965 1709q19 -19 19 -45t-19 -45l-310 -310q96 -111 148.5 -250t52.5 -291q0 -169 -66 -323t-177 -265.5t-265.5 -177.5t-323.5 -66q-306 0 -541 201l-310 -310q-18 -19 -45 -19q-26 0 -45 19t-19 45t19 45l310 310q-96 111 -148.5 250t-52.5 291q0 169 66 323.5
t177 265.5t265.5 177t323.5 66q306 0 541 -201l310 310q19 19 45 19t45 -19zM320 768q0 -255 163 -450l991 991q-195 163 -450 163q-191 0 -353 -94.5t-256.5 -256.5t-94.5 -353zM1728 768q0 127 -43 243.5t-120 206.5l-991 -991q195 -163 450 -163q191 0 353 94.5
t256.5 256.5t94.5 353z" />
    <glyph glyph-name="divide" unicode="divide" horiz-adv-x="1792" 
d="M1728 832q26 0 45 -19t19 -45t-19 -45t-45 -19h-1664q-26 0 -45 19t-19 45t19 45t45 19h1664zM896 1024q-106 0 -181 75t-75 181t75 181t181 75t181 -75t75 -181t-75 -181t-181 -75zM896 1408q-52 0 -90 -38t-38 -90q0 -53 37.5 -90.5t90.5 -37.5t90.5 37.5t37.5 90.5
t-37.5 90.5t-90.5 37.5zM896 512q106 0 181 -75t75 -181t-75 -181t-181 -75t-181 75t-75 181t75 181t181 75zM896 128q53 0 90.5 37.5t37.5 90.5t-37.5 90.5t-90.5 37.5t-90.5 -37.5t-37.5 -90.5t37.5 -90.5t90.5 -37.5z" />
    <glyph glyph-name="minus" unicode="minus" horiz-adv-x="1792" 
d="M1728 768q0 26 -19 45t-45 19h-1536q-26 0 -45 -19t-19 -45t19 -45t45 -19h1536q26 0 45 19t19 45z" />
    <glyph glyph-name="horizontal-rule" unicode="horizontal&#x2d;rule" horiz-adv-x="2560" 
d="M2496 704q26 0 45 19t19 45t-19 45t-45 19h-2432q-26 0 -45 -18.5t-19 -45.5t19 -45.5t45 -18.5h2432z" />
    <glyph glyph-name="quote-left" unicode="quote&#x2d;left&#x2d;alt" horiz-adv-x="1792" 
d="M384 893q159 0 271.5 -112.5t112.5 -271.5t-112.5 -271.5t-271.5 -112.5t-271.5 112.5t-112.5 271.5v384q0 104 40.5 198.5t109.5 163.5t163.5 109.5t198.5 40.5h64q26 0 45 -19t19 -45t-19 -45t-45 -19h-64q-159 0 -271.5 -112.5t-112.5 -271.5v-99q110 99 256 99z
M384 253q105 0 180.5 76t75.5 180q0 106 -75 181t-181 75t-181 -75t-75 -181t75 -181t181 -75zM1408 893q159 0 271.5 -112.5t112.5 -271.5t-112.5 -271.5t-271.5 -112.5t-271.5 112.5t-112.5 271.5v384q0 104 40.5 198.5t109.5 163.5t163.5 109.5t198.5 40.5h64
q26 0 45 -19t19 -45t-19 -45t-45 -19h-64q-159 0 -271.5 -112.5t-112.5 -271.5v-99q110 99 256 99zM1408 253q105 0 180.5 76t75.5 180q0 106 -75 181t-181 75t-181 -75t-75 -181t75 -181t181 -75z" />
    <glyph glyph-name="quote-right" unicode="quote&#x2d;right&#x2d;alt" horiz-adv-x="1792" 
d="M1408 1408q160 0 272 -111.5t112 -272.5v-384q0 -104 -40.5 -198.5t-109.5 -163.5t-163.5 -109.5t-198.5 -40.5h-64q-26 0 -45 19t-19 45t19 45t45 19h64q159 0 271.5 112.5t112.5 271.5v100q-111 -100 -256 -100q-159 0 -271.5 112.5t-112.5 271.5t112.5 271.5
t271.5 112.5zM1408 768q106 0 181 75t75 181t-75 181t-181 75t-181 -75t-75 -181t75 -181t181 -75zM384 1408q160 0 272 -111.5t112 -272.5v-384q0 -104 -40.5 -198.5t-109.5 -163.5t-163.5 -109.5t-198.5 -40.5h-64q-26 0 -45 19t-19 45t19 45t45 19h64q159 0 271.5 112.5
t112.5 271.5v100q-111 -100 -256 -100q-160 0 -272 111.5t-112 272.5t112 272.5t272 111.5zM384 768q106 0 181 75t75 181t-75 181t-181 75t-181 -75t-75 -181t75 -181t181 -75z" />
    <glyph glyph-name="angle-left" unicode="angle&#x2d;left" horiz-adv-x="1024" 
d="M816 171l-538 597l538 594q17 18 16 45t-21 45t-46.5 16.5t-44.5 -21.5l-576 -636q-16 -19 -16 -43.5t16 -42.5l576 -640q18 -20 44.5 -21.5t46.5 16.5t21.5 44.5t-16.5 46.5z" />
    <glyph glyph-name="angle-right" unicode="angle&#x2d;right" horiz-adv-x="1024" 
d="M880 725q16 18 16 43t-16 46l-576 637q-18 20 -44.5 21.5t-46.5 -16.5t-21.5 -44.5t16.5 -46.5l538 -597l-538 -597q-17 -18 -16 -45.5t21 -45.5t46.5 -16.5t44.5 21.5z" />
    <glyph glyph-name="lira-sign" unicode="lira&#x2d;sign" horiz-adv-x="1280" 
d="M320 896v288q0 146 103 249t249 103h28q54 0 108 -18l324 -107q26 -8 49.5 4t31.5 37q6 26 -5.5 49.5t-35.5 31.5l-320 106q-77 25 -152 25h-28q-130 0 -240.5 -64.5t-175 -175t-64.5 -240.5v-288h-128q-26 0 -45 -19t-19 -45t19 -45t45 -19h128v-88q0 -75 -10 -168h-118
q-26 0 -45 -19t-19 -45t19 -45t45 -19h98q-43 -213 -150 -409l-4 -8q-18 -33 1 -64q20 -31 55 -31h1152q26 0 45 19t19 45t-19 45t-45 19h-1048q86 185 124 384h668q26 0 45 19t19 45t-19 45t-45 19h-649q9 84 9 168v88h640q26 0 45 19t19 45t-19 45t-45 19h-640z" />
    <glyph glyph-name="rupee-sign" unicode="rupee&#x2d;sign" horiz-adv-x="1792" 
d="M0 1472v-1536q0 -26 19 -45t45 -19t45 19t19 45v576h320q6 0 16.5 0.5t15.5 0.5l228 -600q10 -23 34 -33.5t49 0.5q23 7 33.5 30.5t-0.5 48.5l-216 576q183 56 299.5 207.5t116.5 345.5q0 117 -45.5 223.5t-123 184t-184 123t-223.5 45.5h-256q-80 0 -136 -56t-56 -136z
M128 640v832q0 26 19 45t45 19h256q186 0 317 -131t131 -317t-131 -317t-317 -131h-320zM1194 664q-14 42 -7 86q13 77 91 116q88 45 212 23q91 -16 144 -32q26 -8 49 5.5t30 41.5q8 23 -5 46t-38 30q-73 21 -157 35q-165 29 -294 -31q-138 -76 -158 -214q-13 -87 15 -156
q27 -62 86 -108q59 -48 232 -106l11 -4q79 -27 125 -47t78 -46q33 -27 46 -61q15 -39 7 -95q-18 -86 -90 -121q-83 -40 -213 -18q-27 9 -104 31q-35 13 -76 29q-8 3 -21 7.5t-15 5.5q-25 9 -49 -1.5t-33 -35.5t2 -49t36 -33q5 -2 16 -6.5t16 -6.5q60 -22 81 -30
q79 -28 124 -37q172 -29 291 28q137 66 161 217q15 88 -13 162q-22 62 -85 113q-72 58 -243 116q-159 53 -206 90q-31 23 -46 56z" />
    <glyph glyph-name="won-sign" unicode="krw" 
d="M387 768l-262 851q-7 25 -30.5 37.5t-49.5 4.5q-25 -7 -37.5 -30.5t-4.5 -49.5l250 -813h-189q-26 0 -45 -19t-19 -45t19 -45t45 -19h228l223 -723q6 -20 23.5 -32t38.5 -9q21 -2 38 10t23 33l190 721h388l194 -721q5 -20 22.5 -32.5t38.5 -10.5q21 -3 38.5 9t23.5 32
l223 723h228q26 0 45 19t19 45t-19 45t-45 19h-189l250 813q8 26 -4.5 49.5t-37.5 30.5q-26 8 -49.5 -4.5t-30.5 -37.5l-262 -851h-347l-228 849q-5 21 -22.5 34t-39.5 13t-39.5 -13t-22.5 -34l-228 -849h-347zM426 640h273l-131 -473zM866 768l158 586l158 -586h-316z
M1349 640h273l-146 -473z" />
    <glyph glyph-name="shekel-sign" unicode="ils" horiz-adv-x="1792" 
d="M768 1664h-448q-80 0 -136 -56t-56 -136v-1536q0 -26 19 -45t45 -19t45 19t19 45v1536q0 26 19 45t45 19h448q133 0 226.5 -93.5t93.5 -226.5v-768q0 -26 19 -45t45 -19t45 19t19 45v768q0 185 -131 316.5t-317 131.5zM768 -128h448q186 0 317 131t131 317v1280
q0 26 -19 45t-45 19t-45 -19t-19 -45v-1280q0 -133 -93.5 -226.5t-226.5 -93.5h-448q-26 0 -45 19t-19 45v1024q0 26 -19 45t-45 19t-45 -19t-19 -45v-1024q0 -80 56 -136t136 -56z" />
    <glyph glyph-name="euro-sign" unicode="euro&#x2d;sign" horiz-adv-x="1536" 
d="M192 896h73q-9 -63 -9 -128t9 -128h-73q-26 0 -45 -19t-19 -45t19 -45t45 -19h101q41 -138 124 -256t194 -203t251 -133t290 -48h192q29 0 46.5 18.5t17.5 45.5t-17.5 45.5t-46.5 18.5h-192q-247 0 -445 142.5t-279 369.5h788q26 0 45 19t19 45t-19 45t-45 19h-821
q-11 66 -11 128t11 128h821q26 0 45 19t19 45t-19 45t-45 19h-788q81 227 279 369.5t445 142.5h192q29 0 46.5 18.5t17.5 45.5t-17.5 45.5t-46.5 18.5h-192q-150 0 -290 -48t-251 -133t-194 -203t-124 -256h-101q-26 0 -45 -19t-19 -45t19 -45t45 -19z" />
    <glyph glyph-name="hryvnia-sign" unicode="hryvnia&#x2d;sign" horiz-adv-x="1536" 
d="M356 1419l43 29q130 88 291 88h234q121 0 206.5 -84.5t85.5 -203.5q0 -137 -104 -224h-1048q-26 0 -45 -19t-19 -45t19 -45t45 -19h817l-457 -228q-20 -10 -47 -28h-313q-26 0 -45 -19t-19 -45t19 -45t45 -19h190q-62 -101 -62 -220q0 -171 122.5 -295.5t293.5 -124.5
h238q199 0 362 110l44 29q22 15 27 40.5t-10 48.5q-15 22 -40.5 27t-48.5 -10l-43 -29q-130 -88 -291 -88h-238q-119 0 -203.5 85.5t-84.5 206.5q0 133 100 220h1052q26 0 45 19t19 45t-19 45t-45 19h-817l453 228q22 9 51 28h313q26 0 45 19t19 45t-19 45t-45 19h-190
q62 101 62 224q0 171 -124.5 293.5t-295.5 122.5h-234q-196 0 -366 -110l-39 -29q-22 -15 -27.5 -41t9.5 -48t41 -27t48 10z" />
    <glyph glyph-name="tenge-sign" unicode="tenge&#x2d;sign" horiz-adv-x="1536" 
d="M0 1600q0 -26 19 -45t45 -19h1408q26 0 45 19t19 45t-19 45t-45 19h-1408q-26 0 -45 -19t-19 -45zM0 1088q0 -26 19 -45t45 -19h640v-1088q0 -26 19 -45t45 -19t45 19t19 45v1088h640q26 0 45 19t19 45t-19 45t-45 19h-1408q-26 0 -45 -19t-19 -45z" />
    <glyph glyph-name="ruble-sign" unicode="ruble&#x2d;sign" horiz-adv-x="1536" 
d="M960 1664h-541q-67 0 -115 -48t-48 -115v-861h-192q-26 0 -45 -19t-19 -45t19 -45t45 -19h192v-256h-192q-26 0 -45 -19t-19 -45t19 -45t45 -19h192v-192q0 -26 19 -45t45 -19t45 19t19 45v192h832q26 0 45 19t19 45t-19 45t-45 19h-832v256h576q117 0 223.5 45.5
t184 123t123 184t45.5 223.5t-45.5 223.5t-123 184t-184 123t-223.5 45.5zM384 640v861q0 14 10.5 24.5t24.5 10.5h541q186 0 317 -131t131 -317t-131 -317t-317 -131h-576z" />
    <glyph glyph-name="trademark" unicode="trademark" horiz-adv-x="2560" 
d="M960 1408q27 0 45.5 -19.5t18.5 -48.5q0 -24 -19 -42t-45 -18h-384v-1084q0 -26 -19 -45t-45 -19t-45 19t-19 45v1084h-384q-27 0 -45.5 19t-18.5 48q0 24 19 42.5t45 18.5h896zM2518 1404q42 -15 42 -60v-1156q0 -24 -19 -42t-45 -18t-45 19t-19 45v975l-527 -632
q-18 -22 -49 -22t-49 22l-527 632v-979q0 -24 -19 -42t-45 -18q-27 0 -45.5 19.5t-18.5 48.5v1148q0 45 42 60q37 15 71 -19l591 -709l591 709q13 16 32.5 21t38.5 -2z" />
    <glyph glyph-name="square-info" unicode="info&#x2d;square" horiz-adv-x="1792" 
d="M896 1056q-40 0 -68 28t-28 68t28 68t68 28t68 -28t28 -68t-28 -68t-68 -28zM1536 1664q106 0 181 -75t75 -181v-1280q0 -106 -75 -181t-181 -75h-1280q-106 0 -181 75t-75 181v1280q0 106 75 181t181 75h1280zM1664 128v1280q0 53 -37.5 90.5t-90.5 37.5h-1280
q-53 0 -90.5 -37.5t-37.5 -90.5v-1280q0 -53 37.5 -90.5t90.5 -37.5h1280q53 0 90.5 37.5t37.5 90.5zM1088 384q26 0 45 -19t19 -45t-19 -45t-45 -19h-384q-26 0 -45 19t-19 45t19 45t45 19h128v384h-64q-26 0 -45 19t-19 45t19 45t45 19h128q26 0 45 -19t19 -45v-448h128z
" />
    <glyph glyph-name="arrow-left" unicode="arrow&#x2d;left" horiz-adv-x="1792" 
d="M1792 768q0 26 -19 45t-47 19h-1510l563 597q19 20 17.5 46t-21.5 44t-47.5 17t-46.5 -21l-664 -704q-17 -18 -17 -43t17 -43l664 -704q19 -21 49 -21q26 0 45 16q20 18 21.5 44.5t-17.5 46.5l-563 597h1510q28 0 47 19t19 45z" />
    <glyph glyph-name="arrow-up" unicode="arrow&#x2d;up" horiz-adv-x="1536" 
d="M1519 889q18 20 17 47.5t-21 46.5l-704 664q-18 17 -43 17t-43 -17l-704 -664q-20 -19 -21 -46.5t17 -47.5q17 -20 44 -20t46 16l597 563v-1510q0 -27 21.5 -46.5t46.5 -19.5q24 0 42 19.5t18 46.5v1510l597 -563q17 -17 43 -17q29 0 47 21z" />
    <glyph glyph-name="arrow-right" unicode="arrow&#x2d;right" horiz-adv-x="1792" 
d="M1775 725q17 18 17 43t-17 43l-664 704q-19 20 -46.5 21.5t-47.5 -16.5t-21.5 -44.5t17.5 -46.5l563 -597h-1510q-27 0 -46.5 -21.5t-19.5 -46.5q0 -24 19.5 -42t46.5 -18h1510l-563 -597q-19 -20 -17.5 -46t21.5 -44q20 -17 45 -17q30 0 49 21z" />
    <glyph glyph-name="arrow-down" unicode="arrow&#x2d;down" horiz-adv-x="1536" 
d="M1515 553q20 19 21 46.5t-17 47.5t-44.5 21t-45.5 -17l-597 -563v1510q0 27 -21.5 46.5t-46.5 19.5q-24 0 -42 -19.5t-18 -46.5v-1510l-597 563q-19 18 -45.5 17t-44.5 -21t-17 -47.5t21 -46.5l704 -664q17 -17 43 -17t43 17z" />
    <glyph glyph-name="left-right" unicode="arrows&#x2d;alt&#x2d;h" 
d="M2017 838q31 -29 31 -66q0 -45 -31 -74l-448 -416q-21 -20 -49 -24.5t-54 6.5t-42 35t-16 53v352h-768v-348q0 -29 -16 -53t-42 -35q-58 -25 -103 17l-448 416q-31 29 -31 71q0 38 31 66l448 416q21 20 49 24.5t54 -6.5t42 -35t16 -53v-352h768v352q0 29 16 53t42 35
t54 6.5t49 -24.5zM512 425v686l-369 -343zM1536 425l369 343l-369 343v-686z" />
    <glyph glyph-name="up-down" unicode="arrows&#x2d;alt&#x2d;v" horiz-adv-x="1024" 
d="M928 384q29 0 52 -16t32 -42q25 -58 -17 -103l-416 -448q-29 -31 -71 -31q-41 0 -70 31l-412 448q-20 21 -24.5 49t6.5 54t35 42t53 16h348l4 768h-352q-29 0 -53 16t-35 42t-6.5 54t24.5 49l416 448q29 31 66 31q48 0 67 -31l416 -448q39 -42 18 -103q-9 -26 -32.5 -42
t-52.5 -16h-348v-768h352zM169 1280h686l-343 369zM512 -113l343 369h-686z" />
    <glyph glyph-name="square-up-right" unicode="external&#x2d;link&#x2d;square&#x2d;alt" horiz-adv-x="1792" 
d="M1536 1664q106 0 181 -75t75 -181v-1280q0 -106 -75 -181t-181 -75h-1280q-106 0 -181 75t-75 181v1280q0 106 75 181t181 75h1280zM1536 1536h-1280q-53 0 -90.5 -37.5t-37.5 -90.5v-1280q0 -53 37.5 -90.5t90.5 -37.5h1280q53 0 90.5 37.5t37.5 90.5v1280
q0 53 -37.5 90.5t-90.5 37.5zM652 1213l538 9q65 0 112.5 -47.5t47.5 -113.5l-9 -533q0 -49 -27 -89t-72 -59t-92 -9.5t-82 44.5l-82 81l-203 -203q-47 -47 -113 -47t-113 47l-136 136q-47 47 -47 113t47 113l200 203l-81 82q-35 35 -44.5 82t9.5 92t58.5 72t88.5 27z
M656 1085q-21 0 -29 -19.5t7 -35.5l171 -171l-294 -295q-9 -9 -9 -22.5t9 -22.5l136 -135q9 -9 22.5 -9t22.5 9l294 294l172 -172q14 -15 34.5 -7.5t20.5 31.5l9 532q0 16 -10.5 24t-20.5 8z" />
    <glyph glyph-name="arrow-left-from-line" unicode="arrow&#x2d;left&#x2d;from&#x2d;line" horiz-adv-x="1792" 
d="M1408 832q26 0 45 -19t19 -45t-19 -45t-45 -19h-1189l466 -467q19 -19 19 -45t-19 -45t-45 -19t-45 19l-576 576q-19 18 -19 45t19 45l576 576q19 19 45 19t45 -19t19 -45t-19 -45l-466 -467h1189zM1728 1536q26 0 45 -19t19 -45v-1408q0 -26 -19 -45t-45 -19t-45 19
t-19 45v1408q0 26 19 45t45 19z" />
    <glyph glyph-name="arrow-up-from-line" unicode="arrow&#x2d;up&#x2d;from&#x2d;line" horiz-adv-x="1536" 
d="M237 979q-19 -19 -45 -19t-45 19t-19 45t19 45l576 576q18 19 45 19t45 -19l576 -576q19 -19 19 -45t-19 -45t-45 -19t-45 19l-467 466v-1189q0 -26 -19 -45t-45 -19t-45 19t-19 45v1189zM1472 0q26 0 45 -19t19 -45t-19 -45t-45 -19h-1408q-26 0 -45 19t-19 45t19 45
t45 19h1408z" />
    <glyph glyph-name="arrow-right-from-line" unicode="arrow&#x2d;right&#x2d;from&#x2d;line" horiz-adv-x="1792" 
d="M1773 813q19 -19 19 -45t-19 -45l-576 -576q-19 -19 -45 -19t-45 19t-19 45t19 45l467 467h-1190q-26 0 -45 19t-19 45t19 45t45 19h1190l-467 467q-19 19 -19 45t19 45t45 19t45 -19zM64 1536q26 0 45 -19t19 -45v-1408q0 -26 -19 -45t-45 -19t-45 19t-19 45v1408
q0 26 19 45t45 19z" />
    <glyph glyph-name="arrow-down-from-line" unicode="arrow&#x2d;down&#x2d;from&#x2d;line" horiz-adv-x="1536" 
d="M1299 557q19 19 45 19t45 -19t19 -45t-19 -45l-576 -576q-18 -19 -45 -19q-26 0 -45 19l-576 576q-19 19 -19 45t19 45t45 19t45 -19l467 -467v1190q0 26 19 45t45 19t45 -19t19 -45v-1190zM1472 1664q26 0 45 -19t19 -45t-19 -45t-45 -19h-1408q-26 0 -45 19t-19 45
t19 45t45 19h1408z" />
    <glyph glyph-name="arrow-rotate-left" unicode="arrow&#x2d;rotate&#x2d;backward" 
d="M1920 768q0 182 -71 348t-191 286t-286 191t-348 71q-238 0 -442 -117t-326 -321v374q0 26 -19 45t-45 19t-45 -19t-19 -45v-512q0 -26 19 -45t45 -19h512q26 0 45 19t19 45t-19 45t-45 19h-343q103 178 280 281t383 103q156 0 298 -61t245 -164t164 -245t61 -298
q0 -208 -103 -385t-280 -280t-385 -103q-179 0 -337.5 77t-268.5 218q-17 21 -42.5 24t-46.5 -13q-21 -17 -24 -42.5t13 -46.5q128 -164 313 -254.5t393 -90.5q182 0 348 71t286 191t191 286t71 348z" />
    <glyph glyph-name="arrow-rotate-right" unicode="arrow&#x2d;rotate&#x2d;forward" 
d="M1024 1664q-182 0 -348 -71t-286 -191t-191 -286t-71 -348t71 -348t191 -286t285.5 -191t347.5 -71q208 0 393.5 90.5t313.5 254.5q16 21 13 46.5t-24 42.5q-21 16 -47 13t-43 -24q-109 -141 -267.5 -218t-337.5 -77q-208 0 -385 103t-280 280t-103 385q0 209 103 385.5
t279.5 279.5t385.5 103q206 0 383 -103t280 -281h-343q-26 0 -45 -19t-19 -45t19 -45t45 -19h512q26 0 45 19t19 45v512q0 26 -19 45t-45 19t-45 -19t-19 -45v-374q-121 204 -325.5 321t-442.5 117z" />
    <glyph glyph-name="arrow-right-arrow-left" unicode="arrow&#x2d;right&#x2d;arrow&#x2d;left" 
d="M64 1152q-26 0 -45 19t-19 45t19 45t45 19h1766l-403 403q-19 19 -19 45t19 45t45 19t45 -19l512 -512q19 -18 19 -45q0 -26 -19 -45l-512 -512q-19 -19 -45 -19t-45 19t-19 45t19 45l403 403h-1766zM1984 384q26 0 45 -19t19 -45t-19 -45t-45 -19h-1765l402 -403
q19 -19 19 -45t-19 -45t-45 -19t-45 19l-512 512q-19 18 -19 45t19 45l512 512q19 19 45 19t45 -19t19 -45t-19 -45l-402 -403h1765z" />
    <glyph glyph-name="arrow-left-to-line" unicode="arrow&#x2d;left&#x2d;to&#x2d;line" horiz-adv-x="1792" 
d="M1728 832q26 0 45 -19t19 -45t-19 -45t-45 -19h-1190l467 -467q19 -19 19 -45t-19 -45t-45 -19t-45 19l-576 576q-19 18 -19 45q0 26 19 45l576 576q19 19 45 19t45 -19t19 -45t-19 -45l-467 -467h1190zM64 1536q26 0 45 -19t19 -45v-1408q0 -26 -19 -45t-45 -19t-45 19
t-19 45v1408q0 26 19 45t45 19z" />
    <glyph glyph-name="arrow-right-to-line" unicode="arrow&#x2d;right&#x2d;to&#x2d;line" horiz-adv-x="1792" 
d="M1728 1536q26 0 45 -19t19 -45v-1408q0 -26 -19 -45t-45 -19t-45 19t-19 45v1408q0 26 19 45t45 19zM877 1389l576 -576q19 -18 19 -45q0 -26 -19 -45l-576 -576q-19 -19 -45 -19t-45 19t-19 45t19 45l467 467h-1190q-26 0 -45 19t-19 45t19 45t45 19h1190l-467 467
q-19 19 -19 45t19 45t45 19t45 -19z" />
    <glyph glyph-name="sigma" unicode="sigma" horiz-adv-x="1536" 
d="M1340 1216q0 -26 20.5 -45t47.5 -19q26 0 45 19t19 45v320q0 27 -19.5 45.5t-48.5 18.5h-1280q-16 0 -31.5 -10t-22.5 -27q-17 -37 9 -68l669 -727l-672 -727q-27 -32 -10 -68q16 -37 58 -37h1284q26 0 45 19t19 45v320q0 26 -19 45t-45 19t-45 -19t-19 -45v-256h-1078
l611 662q15 18 15 41.5t-15 41.5l-615 663h1078v-256z" />
    <glyph glyph-name="square-root" unicode="square&#x2d;root" horiz-adv-x="2304" 
d="M768 -117q68 -26 129 6t79 98l404 1501q6 21 23 34.5t39 13.5h798q26 0 45 19t19 45t-19 45t-45 19h-798q-65 0 -117 -39.5t-68 -102.5l-404 -1502q-5 -16 -24.5 -18t-26.5 13l-325 705q-24 51 -71.5 81.5t-103.5 30.5h-238q-26 0 -45 -19t-19 -45t19 -45t45 -19h238
q19 0 34.5 -10t19.5 -27l328 -702q28 -61 84 -82z" />
    <glyph glyph-name="infinity" unicode="infinity" horiz-adv-x="2560" 
d="M1956 1408q164 0 303.5 -86t220 -233t80.5 -321t-80.5 -321t-220 -233t-303.5 -86q-94 0 -187 36.5t-163 90t-137.5 126.5t-109.5 132t-79 121q-37 -62 -79 -121t-109.5 -132t-137.5 -126.5t-163 -90t-187 -36.5q-123 0 -234.5 51t-192.5 136.5t-129 204t-48 248.5
t48 248.5t129 204t192.5 136.5t234.5 51q94 0 187 -36.5t163.5 -89.5t137.5 -126.5t109 -132t79 -121.5q37 62 79 121t109.5 132t137.5 126.5t163 90t187 36.5zM604 256q88 0 177 44t153.5 103t126 138.5t92 129.5t55.5 97q-25 47 -55.5 97t-92 129.5t-126 138.5t-153.5 103
t-177 44q-129 0 -238.5 -68.5t-173.5 -186.5t-64 -257t64 -257t173.5 -186.5t238.5 -68.5zM1956 256q129 0 238.5 68.5t173.5 186.5t64 257t-64 257t-173.5 186.5t-238.5 68.5q-88 0 -177 -44t-153.5 -103t-126 -138.5t-92 -129.5t-55.5 -97q25 -47 55.5 -97t92 -129.5
t126 -138.5t153.5 -103t177 -44z" />
    <glyph glyph-name="wave-sine" unicode="wave&#x2d;sine" horiz-adv-x="2560" 
d="M2493 686q8 26 -4.5 49t-38.5 30q-20 7 -45.5 -3t-34.5 -40q-24 -77 -57 -158t-83.5 -173t-106 -162.5t-126.5 -117.5t-143 -47q-63 0 -118.5 27.5t-104.5 88t-85.5 117t-78 156.5t-64.5 161.5t-63 174.5q-38 109 -59 166.5t-63 158t-74 156.5t-82.5 128t-100.5 109.5
t-116 65t-139 27.5q-82 0 -160.5 -38.5t-137.5 -96t-114.5 -137t-92 -150t-68 -146.5t-45 -115t-21.5 -67q-8 -25 4.5 -48.5t38.5 -30.5q20 -7 45.5 3t34.5 40q24 77 57 158t83.5 173t106 162.5t126.5 117.5t143 47q63 0 118.5 -27.5t104.5 -88t85.5 -117t78 -156.5
t64.5 -161.5t63 -174.5q38 -109 59 -166.5t63 -158t74 -156.5t82.5 -128t100.5 -109.5t116 -65t139 -27.5q82 0 160.5 38.5t138 96t114.5 137t91.5 149.5t68 147t45 115.5t21.5 66.5z" />
    <glyph glyph-name="intersection" unicode="intersection" horiz-adv-x="1536" 
d="M1536 896q0 208 -103 385t-280 280t-385 103t-385 -103t-280 -280t-103 -385v-960q0 -26 19 -45t45 -19t45 19t19 45v960q0 130 51 248.5t136.5 204t204 136.5t248.5 51t248.5 -51t204 -136.5t136.5 -204t51 -248.5v-960q0 -26 19 -45t45 -19t45 19t19 45v960z" />
    <glyph glyph-name="union" unicode="union" horiz-adv-x="1536" 
d="M0 640q0 -208 103 -384t280 -278t385 -102t385 102t280 278t103 384v960q0 26 -19 45t-45 19t-45 -19t-19 -45v-960q0 -130 -51 -248.5t-136.5 -204t-204 -136.5t-248.5 -51t-248.5 51t-204 136.5t-136.5 204t-51 248.5v960q0 26 -19 45t-45 19t-45 -19t-19 -45v-960z
" />
    <glyph glyph-name="angle-up" unicode="angle&#x2d;up" horiz-adv-x="1536" 
d="M1456 469q18 19 15 46t-27 45l-637 576q-19 16 -43 16t-42 -16l-637 -576q-20 -18 -21.5 -44.5t16.5 -46.5t44.5 -21.5t46.5 16.5l597 538l597 -538q18 -17 45.5 -16t45.5 21z" />
    <glyph glyph-name="angle-down" unicode="angle&#x2d;down" horiz-adv-x="1536" 
d="M1451 976q20 20 21.5 45.5t-16.5 45.5t-44.5 21.5t-46.5 -16.5l-597 -538l-597 538q-18 17 -45.5 16t-45.5 -21t-16.5 -45.5t21.5 -45.5l644 -576q19 -16 43 -16t42 16z" />
    <glyph glyph-name="watch" unicode="watch" horiz-adv-x="1536" 
d="M832 802v286q0 26 -19 45t-45 19t-45 -19t-19 -45v-320q0 -34 28 -53l192 -128q23 -15 48.5 -10t40.5 27q15 23 10 48.5t-27 40.5zM256 1536v-192h4q-122 -108 -191 -257.5t-69 -318.5t69 -318.5t191 -257.5h-4v-192q0 -106 75 -181t181 -75h512q106 0 181 75t75 181v192
h-8q124 108 194 257.5t70 318.5t-70 318.5t-194 257.5h8v192q0 106 -75 181t-181 75h-512q-106 0 -181 -75t-75 -181zM512 1664h512q53 0 90.5 -37.5t37.5 -90.5v-103q-179 103 -384 103t-384 -103v103q0 53 37.5 90.5t90.5 37.5zM1152 103v-103q0 -53 -37.5 -90.5
t-90.5 -37.5h-512q-53 0 -90.5 37.5t-37.5 90.5v103q179 -103 384 -103t384 103zM768 1408q130 0 248.5 -50.5t204.5 -136.5t136.5 -204.5t50.5 -248.5t-50.5 -248.5t-136.5 -204.5t-204.5 -136.5t-248.5 -50.5t-248.5 50.5t-204.5 136.5t-136.5 204.5t-50.5 248.5
t50.5 248.5t136.5 204.5t204.5 136.5t248.5 50.5z" />
    <glyph glyph-name="hourglass-end" unicode="hourglass&#x2d;end" horiz-adv-x="1536" 
d="M1140 101l-320 448q-19 27 -52 27q-37 0 -56 -27l-316 -448q-21 -30 -5 -66q18 -35 57 -35h640q16 0 32.5 10t24.5 25q13 40 -5 66zM964 128h-392l196 274zM0 1728q0 -26 19 -45t45 -19h64v-179q0 -196 118 -349l282 -368l-282 -368q-118 -149 -118 -349v-179h-64
q-26 0 -45 -19t-19 -45t19 -45t45 -19h1408q26 0 45 19t19 45t-19 45t-45 19h-64v179q0 200 -118 349l-282 368l282 368q118 153 118 349v179h64q26 0 45 19t19 45t-19 45t-45 19h-1408q-26 0 -45 -19t-19 -45zM256 1485v179h1024v-179q0 -153 -96 -272l-307 -406
q-29 -37 0 -78l307 -406q96 -119 96 -272v-179h-1024v179q0 152 92 272l311 406q29 41 0 78l-311 406q-92 120 -92 272z" />
    <glyph glyph-name="keyboard" unicode="keyboard" horiz-adv-x="2304" 
d="M720 1056q-20 0 -34 14t-14 34v96q0 20 14 34t34 14h96q20 0 34 -14t14 -34v-96q0 -20 -14 -34t-34 -14h-96zM1104 672q-20 0 -34 14t-14 34v96q0 20 14 34t34 14h96q20 0 34 -14t14 -34v-96q0 -20 -14 -34t-34 -14h-96zM720 672q-20 0 -34 14t-14 34v96q0 20 14 34
t34 14h96q20 0 34 -14t14 -34v-96q0 -20 -14 -34t-34 -14h-96zM1488 1056q-20 0 -34 14t-14 34v96q0 20 14 34t34 14h96q20 0 34 -14t14 -34v-96q0 -20 -14 -34t-34 -14h-96zM1104 1056q-20 0 -34 14t-14 34v96q0 20 14 34t34 14h96q20 0 34 -14t14 -34v-96q0 -20 -14 -34
t-34 -14h-96zM432 480q20 0 34 -14t14 -34v-96q0 -20 -14 -34t-34 -14h-96q-20 0 -34 14t-14 34v96q0 20 14 34t34 14h96zM1488 672q-20 0 -34 14t-14 34v96q0 20 14 34t34 14h96q20 0 34 -14t14 -34v-96q0 -20 -14 -34t-34 -14h-96zM432 1248q20 0 34 -14t14 -34v-96
q0 -20 -14 -34t-34 -14h-96q-20 0 -34 14t-14 34v96q0 20 14 34t34 14h96zM1968 864q20 0 34 -14t14 -34v-96q0 -20 -14 -34t-34 -14h-96q-20 0 -34 14t-14 34v96q0 20 14 34t34 14h96zM432 864q20 0 34 -14t14 -34v-96q0 -20 -14 -34t-34 -14h-96q-20 0 -34 14t-14 34v96
q0 20 14 34t34 14h96zM2048 1536q106 0 181 -75t75 -181v-1024q0 -106 -75 -181t-181 -75h-1792q-106 0 -181 75t-75 181v1024q0 106 75 181t181 75h1792zM2176 256v1024q0 53 -37.5 90.5t-90.5 37.5h-1792q-53 0 -90.5 -37.5t-37.5 -90.5v-1024q0 -53 37.5 -90.5
t90.5 -37.5h1792q53 0 90.5 37.5t37.5 90.5zM1968 1248q20 0 34 -14t14 -34v-96q0 -20 -14 -34t-34 -14h-96q-20 0 -34 14t-14 34v96q0 20 14 34t34 14h96zM1600 448q26 0 45 -19t19 -45t-19 -45t-45 -19h-896q-26 0 -45 19t-19 45t19 45t45 19h896zM1968 480q20 0 34 -14
t14 -34v-96q0 -20 -14 -34t-34 -14h-96q-20 0 -34 14t-14 34v96q0 20 14 34t34 14h96z" />
    <glyph glyph-name="chevron-left" unicode="chevron&#x2d;left" horiz-adv-x="1280" 
d="M939 1647q-19 18 -46.5 17t-47.5 -20l-768 -832q-17 -19 -17 -43.5t17 -43.5l768 -832q18 -20 44.5 -21t46.5 17q19 18 20 45t-17 46l-724 788l728 789q17 19 17 43q0 28 -21 47z" />
    <glyph glyph-name="chevron-right" unicode="chevron&#x2d;right" horiz-adv-x="1280" 
d="M341 -111q20 -18 46 -17t44 21l768 832q17 19 17 43t-17 43l-768 832q-18 20 -44 21t-46 -17t-21 -44t17 -46l724 -789l-724 -789q-17 -19 -17 -43q0 -28 21 -47z" />
    <glyph glyph-name="delete-left" unicode="backspace" horiz-adv-x="2304" 
d="M1709 979q19 19 19 45t-19 45t-45 19t-45 -19l-215 -211l-207 211q-19 19 -45 19t-45 -19t-19 -45t19 -45l211 -211l-211 -211q-19 -19 -19 -45t19 -45t45 -19t45 19l207 211l215 -211q19 -19 45 -19t45 19t19 45t-19 45l-211 211zM2048 1536h-1227q-106 0 -181 -75
l-603 -603q-37 -37 -37 -90t37 -90l603 -603q75 -75 181 -75h1227q106 0 181 75t75 181v1024q0 106 -75 181t-181 75zM2176 1280v-1024q0 -53 -37.5 -90.5t-90.5 -37.5h-1227q-53 0 -91 38l-606 602l606 602q38 38 91 38h1227q53 0 90.5 -37.5t37.5 -90.5z" />
    <glyph glyph-name="print" unicode="print" 
d="M1664 512q53 0 90.5 -37.5t37.5 -90.5v-512q0 -53 -37.5 -90.5t-90.5 -37.5h-1280q-53 0 -90.5 37.5t-37.5 90.5v512q0 53 37.5 90.5t90.5 37.5h1280zM1664 -128v512h-1280v-512h1280zM1792 1024q106 0 181 -75t75 -181v-448q0 -26 -19 -45t-45 -19t-45 19t-19 45v448
q0 53 -37.5 90.5t-90.5 37.5h-1536q-53 0 -90.5 -37.5t-37.5 -90.5v-448q0 -26 -19 -45t-45 -19t-45 19t-19 45v448q0 106 75 181t181 75v512q0 106 75 181t181 75h998q48 0 90 -37l154 -155q38 -38 38 -91v-485zM1664 1024v485l-154 155h-998q-53 0 -90.5 -37.5
t-37.5 -90.5v-512h1280zM1728 800q40 0 68 -28t28 -68t-28 -68t-68 -28t-68 28t-28 68t28 68t68 28z" />
    <glyph glyph-name="eject" unicode="eject" horiz-adv-x="1792" 
d="M192 388q-48 0 -89 21t-65 56t-33.5 76t2 85.5t44.5 79.5l704 768q57 62 141 62t142 -58l700 -769q41 -45 48 -102t-14 -105t-68.5 -81t-107.5 -33h-1404zM145 619q-27 -30 -11 -69q16 -38 58 -38h1404q42 0 59 38q16 39 -11 69l-701 769q-18 20 -47 20q-28 0 -47 -20z
M1728 128q26 0 45 -19t19 -45t-19 -45t-45 -19h-1664q-26 0 -45 19t-19 45t19 45t45 19h1664z" />
    <glyph glyph-name="forward" unicode="forward" 
d="M727 908l-599 502v-1284l599 502q20 17 46.5 14.5t43.5 -23.5q17 -20 14.5 -47t-22.5 -43l-611 -502q-33 -27 -75 -27q-50 0 -86.5 36.5t-36.5 91.5v1280q0 54 36.5 91t86.5 37q41 0 75 -28l610 -501q20 -16 23 -43t-14 -47t-43.5 -22.5t-46.5 13.5zM2001 869
q47 -38 47 -101q0 -60 -47 -104l-779 -636q-34 -28 -76 -28q-41 0 -81.5 32t-40.5 96v1280q0 64 40.5 96t81.5 32q44 0 76 -31zM1152 126l766 642l-766 642v-1284z" />
    <glyph glyph-name="backward" unicode="backward" 
d="M1926 1536q49 0 85.5 -37t36.5 -91v-1276q0 -57 -36.5 -94.5t-85.5 -37.5q-48 0 -76 28l-610 501q-20 16 -23 43t14 47t43.5 23t46.5 -14l599 -502v1284l-599 -502q-20 -16 -46.5 -13.5t-43.5 22.5t-14 47t23 43l610 501q34 28 76 28zM902 1536q40 0 79.5 -32t42.5 -96
v-1280q0 -64 -40.5 -96t-81.5 -32q-51 0 -76 31l-779 636q-47 38 -47 101t47 101l779 639q28 28 76 28zM896 126v1284l-766 -642z" />
    <glyph glyph-name="forward-fast" unicode="forward&#x2d;fast" 
d="M727 908l-599 502v-1284l599 502q20 17 46.5 14.5t43.5 -23.5q17 -20 14.5 -47t-22.5 -43l-611 -502q-33 -27 -75 -27q-50 0 -86.5 36.5t-36.5 91.5v1280q0 54 36.5 91t86.5 37q41 0 75 -28l610 -501q20 -16 23 -43t-14 -47t-43.5 -22.5t-46.5 13.5zM1984 1536
q26 0 45 -19t19 -45v-1408q0 -26 -19 -45t-45 -19t-45 19t-19 45v537l-698 -573q-34 -28 -76 -28q-41 0 -81.5 32t-40.5 96v1280q0 64 40.5 96t81.5 32q42 0 76 -28l698 -573v537q0 26 19 45t45 19zM1152 126l766 642l-766 642v-1284z" />
    <glyph glyph-name="backward-fast" unicode="backward&#x2d;fast" 
d="M902 1536q41 0 81.5 -32t40.5 -96v-1276q0 -66 -40.5 -99t-81.5 -33q-48 0 -76 28l-698 573v-537q0 -26 -19 -45t-45 -19t-45 19t-19 45v1408q0 26 19 45t45 19t45 -19t19 -45v-537l698 573q28 28 76 28zM896 126v1284l-766 -642zM1926 1536q49 0 85.5 -37t36.5 -91
v-1276q0 -57 -36.5 -94.5t-85.5 -37.5q-48 0 -76 28l-610 501q-20 16 -23 43t14 47t43.5 23t46.5 -14l599 -502v1284l-599 -502q-20 -16 -46.5 -13.5t-43.5 22.5t-14 47t23 43l610 502q33 27 76 27z" />
    <glyph glyph-name="alarm-clock" unicode="alarm&#x2d;clock" 
d="M369 1792q-153 0 -261 -108t-108 -261q0 -106 58 -198q14 -22 40 -27.5t48 8.5q23 14 28.5 39.5t-8.5 48.5q-38 59 -38 129q0 100 70.5 170.5t170.5 70.5q94 0 163 -64q19 -18 46 -17t45 20t17 46t-20 45q-106 98 -251 98zM1428 1694q-19 -18 -20 -45t17 -46t45 -20
t46 17q69 64 163 64q100 0 170.5 -70.5t70.5 -170.5q0 -70 -38 -129q-14 -23 -8.5 -48.5t28.5 -39.5q19 -14 46.5 -8.5t41.5 27.5q58 92 58 198q0 153 -108 261t-261 108q-145 0 -251 -98zM1088 608v480q0 27 -19.5 45.5t-48.5 18.5q-25 0 -44.5 -19t-19.5 -45v-512
q0 -28 30 -51l256 -192q21 -16 47 -12t42 25t12 47t-25 42zM147 -237q19 -19 45 -19t45 19l200 200q120 -104 271 -161.5t316 -57.5t316 57.5t271 161.5l200 -200q19 -19 45 -19t45 19t19 45t-19 45l-200 200q104 120 161.5 271.5t57.5 319.5q0 242 -120 448t-326.5 327
t-449.5 121t-449.5 -121t-326.5 -327t-120 -448q0 -168 57.5 -319.5t161.5 -271.5l-200 -200q-19 -19 -19 -45t19 -45zM1020 -128q-209 0 -385.5 103t-279.5 279.5t-103 385.5q0 210 103 387t279.5 279t385.5 102q158 0 301 -60.5t246 -162.5t164 -244.5t61 -300.5
q0 -209 -103 -385.5t-281 -279.5t-388 -103z" />
    <glyph glyph-name="stopwatch" unicode="stopwatch" horiz-adv-x="1792" 
d="M960 512v448q0 27 -19.5 45.5t-48.5 18.5q-25 0 -44.5 -19t-19.5 -45v-448q0 -26 19.5 -45t44.5 -19q29 0 48.5 18.5t19.5 45.5zM508 1728h4q0 -26 19 -45t45 -19h256v-258q-159 -12 -301 -82.5t-244.5 -180.5t-162.5 -258t-60 -309q0 -169 66 -323.5t177 -265.5
t265.5 -177t323.5 -66t323.5 66t265.5 177t177 265.5t66 323.5q0 283 -172 506l153 153q19 19 19 45t-19 45t-45 19t-45 -19l-148 -147q-220 206 -511 228v258h256q26 0 45 19t19 45t-19 45t-45 19h-644q-25 0 -44.5 -19t-19.5 -45zM892 -128q-142 0 -272 56t-224.5 150
t-151 224.5t-56.5 273.5t56.5 273.5t151 224.5t224.5 150t272 56q144 0 275.5 -55.5t226 -150t150.5 -225t56 -273.5t-56 -273.5t-150.5 -225t-226 -150t-275.5 -55.5z" />
    <glyph glyph-name="hourglass" unicode="hourglass&#x2d;half" horiz-adv-x="1536" 
d="M718 988q18 -28 50 -28t50 28l256 320q26 28 8 64q-16 36 -58 36h-512q-42 0 -58 -36q-18 -36 8 -64zM768 1126l-123 154h246zM960 384h-388q-36 0 -53 -35l-128 -256q-16 -33 3 -63t50 -30h644q35 0 54 30t3 63l-128 256q-17 35 -57 35zM984 128h-432l64 128h304z
M64 -256h1408q26 0 45 19t19 45t-19 45t-45 19h-64v179q0 200 -118 349l-282 368l282 368q118 153 118 349v179h64q26 0 45 19t19 45t-19 45t-45 19h-1408q-26 0 -45 -19t-19 -45t19 -45t45 -19h64v-179q0 -196 118 -349l282 -368l-282 -368q-118 -149 -118 -349v-179h-64
q-26 0 -45 -19t-19 -45t19 -45t45 -19zM1280 51v-179h-1024v179q0 152 92 272l311 406q29 41 0 78l-311 406q-92 120 -92 272v179h1024v-179q0 -153 -96 -272l-307 -406q-29 -37 0 -78l307 -406q96 -119 96 -272z" />
    <glyph glyph-name="pause" unicode="pause" horiz-adv-x="1280" 
d="M192 1540q26 0 45 -20.5t19 -47.5v-1408q0 -26 -19 -45t-45 -19t-45 19t-19 45v1408q0 27 19 47.5t45 20.5zM1088 1540q26 0 45 -19.5t19 -44.5v-1408q0 -26 -19 -45t-45 -19t-45 19t-19 45v1408q0 26 19 45t45 19z" />
    <glyph glyph-name="stop" unicode="stop" horiz-adv-x="1536" 
d="M1280 1536q106 0 181 -75t75 -181v-1020q0 -106 -75 -181t-181 -75h-1024q-106 0 -181 75t-75 181v1020q0 106 75 181t181 75h1024zM1408 256v1024q0 53 -37.5 90.5t-90.5 37.5h-1024q-53 0 -90.5 -37.5t-37.5 -90.5v-1024q0 -53 37.5 -90.5t90.5 -37.5h1024
q53 0 90.5 37.5t37.5 90.5z" />
    <glyph glyph-name="power-off" unicode="power&#x2d;off" 
d="M1088 704v1024q0 26 -19 45t-45 19t-45 -19t-19 -45v-1024q0 -26 19 -45t45 -19t45 19t19 45zM224 768q0 229 118.5 419t314.5 292q23 12 31.5 37.5t-3.5 48.5t-38 31.5t-49 -3.5q-227 -117 -364.5 -338.5t-137.5 -486.5q0 -189 73.5 -360.5t198 -296t296 -198
t360.5 -73.5t360.5 73.5t296 198t198 296t73.5 360.5q0 264 -138 485.5t-364 339.5q-23 12 -49 3.5t-38 -31.5t-3.5 -48.5t31.5 -37.5q197 -101 315 -291.5t118 -419.5q0 -163 -63.5 -311t-170.5 -255t-255 -170.5t-311 -63.5t-311 63.5t-255 170.5t-170.5 255t-63.5 311z
" />
    <glyph glyph-name="moon" unicode="moon" 
d="M1713 322q17 -28 14.5 -60.5t-22.5 -57.5q-128 -158 -307.5 -245t-381.5 -87q-180 0 -344.5 71t-283.5 191t-189.5 286t-70.5 348t70.5 348t189.5 286t283.5 191t344.5 71q87 0 162 -15q32 -6 54.5 -29t27.5 -55t-8.5 -61.5t-41.5 -45.5q-136 -78 -215 -215.5t-79 -295.5
q0 -133 55.5 -252t157.5 -203q100 -83 225 -115t252 -7q32 6 61 -7t46 -41zM1016 0q155 0 296.5 61t249.5 173q-139 -13 -272.5 28t-241.5 131q-124 103 -192 248t-68 306q0 175 79.5 330t220.5 255q-52 4 -72 4q-206 0 -381 -103t-277 -280t-102 -385t102 -385t277 -280
t381 -103z" />
    <glyph glyph-name="circle-h" unicode="circle&#x2d;h" 
d="M1024 1792q209 0 398.5 -81t326.5 -218t218 -326.5t81 -398.5t-81 -398.5t-218 -326.5t-326.5 -218t-398.5 -81t-398.5 81t-326.5 218t-218 326.5t-81 398.5t81 398.5t218 326.5t326.5 218t398.5 81zM1024 -128q182 0 348 71t286 191t191 286t71 348t-71 348t-191 286
t-286 191t-348 71t-348 -71t-286 -191t-191 -286t-71 -348t71 -348t191 -286t286 -191t348 -71zM1344 1280q26 0 45 -19t19 -45v-896q0 -26 -19 -45t-45 -19t-45 19t-19 45v384h-512v-384q0 -26 -19 -45t-45 -19t-45 19t-19 45v896q0 26 19 45t45 19t45 -19t19 -45v-384h512
v384q0 26 19 45t45 19z" />
    <glyph glyph-name="square" unicode="square" horiz-adv-x="1792" 
d="M1536 1664h-1280q-106 0 -181 -75t-75 -181v-1280q0 -106 75 -181t181 -75h1280q106 0 181 75t75 181v1280q0 106 -75 181t-181 75zM1536 1536q53 0 90.5 -37.5t37.5 -90.5v-1280q0 -53 -37.5 -90.5t-90.5 -37.5h-1280q-53 0 -90.5 37.5t-37.5 90.5v1280q0 53 37.5 90.5
t90.5 37.5h1280z" />
    <glyph glyph-name="rectangle" unicode="rectangle&#x2d;landscape" 
d="M1792 1536h-1536q-106 0 -181 -75t-75 -181v-1024q0 -106 75 -181t181 -75h1536q106 0 181 75t75 181v1024q0 106 -75 181t-181 75zM1792 1408q53 0 90.5 -37.5t37.5 -90.5v-1024q0 -53 -37.5 -90.5t-90.5 -37.5h-1536q-53 0 -90.5 37.5t-37.5 90.5v1024q0 53 37.5 90.5
t90.5 37.5h1536z" />
    <glyph glyph-name="triangle" unicode="triangle" 
d="M1052 1520l864 -1468q10 -22 0 -32q-9 -20 -28 -20h-1728q-19 0 -28 20q-10 10 0 32l864 1468l-110 65l-864 -1472q-22 -37 -22.5 -80t21.5 -81q21 -37 58.5 -58.5t80.5 -21.5h1728q43 0 80.5 21.5t58.5 58.5t21 80.5t-22 80.5l-864 1472q-22 37 -58.5 58t-79.5 21
t-79.5 -21t-58.5 -58l110 -65q10 16 28 16t28 -16z" />
    <glyph glyph-name="play" unicode="play" horiz-adv-x="1536" 
d="M98 1639q-46 -25 -72 -70t-26 -97v-1408q0 -53 26 -98t72 -70q45 -26 97.5 -24t96.5 32l1152 704q43 24 67.5 67t24.5 93t-24.5 94t-67.5 70l-1152 704q-44 27 -96 28t-98 -25zM225 1527l1152 -704q31 -20 31 -55t-31 -55l-1152 -704q-33 -20 -64 3q-33 13 -33 52v1408
q0 38 33 56t64 -1z" />
    <glyph glyph-name="circle" unicode="circle" 
d="M2048 768q0 209 -81 398.5t-218 326.5t-326.5 218t-398.5 81t-398.5 -81t-326.5 -218t-218 -326.5t-81 -398.5t81 -398.5t218 -326.5t326.5 -218t398.5 -81t398.5 81t326.5 218t218 326.5t81 398.5zM1024 1664q182 0 348 -71t286 -191t191 -286t71 -348t-71 -348
t-191 -286t-286 -191t-348 -71t-348 71t-286 191t-191 286t-71 348t71 348t191 286t286 191t348 71z" />
    <glyph glyph-name="circle-half-stroke" unicode="adjust" 
d="M2048 768q0 209 -81 398.5t-218 326.5t-326.5 218t-398.5 81t-398.5 -81t-326.5 -218t-218 -326.5t-81 -398.5t81 -398.5t218 -326.5t326.5 -218t398.5 -81t398.5 81t326.5 218t218 326.5t81 398.5zM960 -126q-229 16 -420 139t-301.5 322.5t-110.5 432.5t110.5 432.5
t301.5 322.5t420 139v-1788zM1088 1662q229 -16 420 -139t301.5 -322.5t110.5 -432.5t-110.5 -432.5t-301.5 -322.5t-420 -139v1788z" />
    <glyph glyph-name="sun" unicode="sun" 
d="M1024 1280q138 0 255.5 -69.5t185 -187t67.5 -255.5q0 -137 -67.5 -254t-184.5 -185.5t-256 -68.5q-138 0 -255.5 69.5t-185 187t-67.5 255.5q0 137 67.5 254t184.5 185.5t256 68.5zM1024 388q160 0 270 111.5t110 275.5q0 157 -109.5 269t-270.5 112q-162 0 -272.5 -113
t-107.5 -275q0 -157 111 -268.5t269 -111.5zM1815 768l211 -305q38 -55 13 -115q-26 -62 -91 -73l-365 -66l-66 -365q-11 -65 -73 -91q-60 -25 -115 13l-305 211l-305 -211q-33 -22 -69 -22q-24 0 -46 9q-62 26 -73 91l-66 365l-365 66q-65 11 -91 73q-25 60 13 115l211 305
l-211 305q-38 55 -13 115q26 62 91 73l365 66l66 365q11 65 73 91q60 25 115 -13l305 -211l305 211q55 38 115 13q62 -26 73 -91l66 -365l365 -66q65 -11 91 -73q25 -60 -13 -115zM1517 327l398 72l-231 333q-25 37 0 73l237 341l-404 63q-19 4 -33.5 18.5t-18.5 33.5
l-74 409l-331 -242q-36 -25 -73 0l-341 237l-63 -404q-4 -19 -18 -33.5t-34 -18.5l-409 -74l242 -331q25 -36 0 -73l-237 -341l404 -63q19 -4 33.5 -18.5t18.5 -33.5l74 -409l331 242q36 25 73 0l341 -237l63 404q4 19 18.5 33.5t33.5 18.5z" />
    <glyph glyph-name="cloud" unicode="cloud" horiz-adv-x="2560" 
d="M1856 1408q-103 0 -192 -43q-98 138 -249.5 218.5t-326.5 80.5q-186 0 -344.5 -89.5t-254.5 -244t-104 -338.5q-170 -60 -277.5 -209t-107.5 -335q0 -117 45.5 -223.5t123 -184t184 -123t223.5 -45.5h1472q212 0 362 150t150 362q0 145 -74.5 266t-198.5 187
q17 66 17 123q0 186 -131 317t-317 131zM1719 1249q65 31 137 31q133 0 226.5 -93.5t93.5 -226.5q0 -48 -12 -84q-12 -46 5 -87t58 -65q93 -49 149 -140t56 -200q0 -159 -112.5 -271.5t-271.5 -112.5h-1472q-185 0 -316.5 131t-131.5 317q0 144 83.5 260t215.5 163
q38 16 61 46.5t24 68.5q5 113 52.5 215t124 175.5t181 116.5t218.5 43q144 0 267.5 -66t203.5 -179q27 -38 72.5 -50t87.5 8z" />
    <glyph glyph-name="snowman" unicode="snowman" 
d="M1024 352q39 0 65.5 -28.5t26.5 -67.5t-26.5 -67.5t-65.5 -28.5t-65.5 28.5t-26.5 67.5t26.5 67.5t65.5 28.5zM1024 672q39 0 65.5 -28.5t26.5 -67.5t-26.5 -67.5t-65.5 -28.5t-65.5 28.5t-26.5 67.5t26.5 67.5t65.5 28.5zM1024 992q39 0 65.5 -28.5t26.5 -67.5
t-26.5 -67.5t-65.5 -28.5t-67.5 28.5t-28.5 67.5t28.5 67.5t67.5 28.5zM960 1476q0 -29 -18.5 -46.5t-45.5 -17.5q-25 0 -41 19.5t-16 44.5q0 24 17.5 42t43.5 18q24 0 42 -17t18 -43zM1148 1540q27 0 44 -18t17 -43q0 -24 -17.5 -42t-43.5 -18q-23 0 -41.5 18.5t-18.5 41.5
q0 24 17.5 42.5t42.5 18.5zM2040 1174q12 -25 1.5 -49t-38.5 -33l-506 -190q0 -4 1 -12t1.5 -14t0.5 -12q0 -80 -16 -134q86 -89 133 -204t47 -238q0 -161 -76 -302.5t-210 -230.5q-17 -11 -36 -11q-32 0 -56 29q-15 22 -10 47.5t27 40.5q107 71 168 184.5t61 242.5
q0 108 -43 205.5t-125 171.5q-33 30 -17 71q25 62 25 128q0 152 -113 257q-18 16 -20 41t12 44q57 79 57 170q0 120 -82.5 204t-201.5 84t-203.5 -84.5t-84.5 -203.5q0 -94 57 -170q14 -19 12 -44t-20 -41q-113 -105 -113 -257q0 -66 25 -128q17 -42 -16 -71
q-82 -74 -125.5 -171.5t-43.5 -205.5q0 -129 61 -242.5t168 -184.5q22 -15 27.5 -40.5t-9.5 -47.5q-15 -23 -40.5 -28t-48.5 10q-134 89 -210 230.5t-76 302.5q0 123 47 238t133 204q-20 68 -20 134q0 7 2 20t2 18l-506 190q-25 9 -36 33t-2 49t33.5 36.5t49.5 1.5l169 -64
v196q0 25 21.5 44.5t46.5 19.5q24 0 42 -19t18 -45v-244l190 -71q32 84 86 147q-52 95 -52 200q0 172 120.5 294t291.5 122q172 0 294 -122t122 -294q0 -111 -45 -200q56 -65 87 -147l190 71v244q0 27 17 45.5t43 18.5q24 0 42 -19t18 -45v-196l170 64q25 10 49 -1.5
t33 -36.5zM1024 1184q-27 0 -45 19t-15 45v64q0 26 18 45t42 19t42 -19t18 -45v-64q0 -27 -17 -45.5t-43 -18.5z" />
    <glyph glyph-name="meteor" unicode="meteor" 
d="M2040 1665q22 54 -22 98q-41 41 -98 25q-434 -135 -669 -236q-7 19 -9 32q-25 59 -71 78q-56 23 -106 -5q-85 -44 -174.5 -95t-215 -127.5t-243.5 -165t-200 -170.5q-152 -152 -206 -356.5t0 -409.5t206 -357q151 -152 355 -206.5t408.5 0t356.5 206.5q82 82 170.5 200
t165 243t127.5 215.5t95 174.5q27 52 5 106q-30 56 -78 70q-30 9 -32 10q113 263 235 670zM1904 1649q-135 -437 -242 -667l-32 -68l72 -20q78 -22 98 -25q-41 -80 -91.5 -169t-123.5 -208.5t-158 -233t-162 -191.5q-128 -128 -299.5 -173.5t-343.5 0t-299 173.5
t-172.5 299.5t0 343.5t172.5 300q218 218 797 536l50 -172l68 32q235 110 666 243zM1312 548q-1 137 -69.5 255t-185.5 187.5t-254 69.5t-254 -68.5t-185.5 -186.5t-68.5 -257t68.5 -257t185.5 -186.5t254 -68.5q103 0 197 40.5t162.5 109.5t109 163.5t40.5 198.5zM1184 548
q-2 -160 -114 -272t-270 -112q-159 0 -271.5 112.5t-112.5 271.5t112.5 271.5t271.5 112.5t271.5 -112.5t112.5 -271.5zM832 676q0 34 -28 68q-22 28 -65 28q-37 0 -64.5 -28.5t-27.5 -67.5q0 -40 26.5 -68t65.5 -28q37 0 65 28.5t28 67.5zM960 388q0 24 -18.5 42.5
t-42.5 21.5q-26 0 -44.5 -19t-18.5 -45q0 -27 17 -45.5t43 -18.5q27 0 45.5 18.5t18.5 45.5z" />
    <glyph glyph-name="phone-rotary" unicode="phone&#x2d;rotary" 
d="M1024 832q132 0 226 -94t94 -226t-94 -226t-226 -94t-226 94t-94 226t93.5 226t226.5 94zM1024 320q80 0 136 56t56 136t-56 136t-136 56t-136 -56t-56 -136t56 -136t136 -56zM2001 1319q49 -39 43 -100v-259q0 -26 -19 -45t-45 -19h-252q-26 0 -45 19t-19 45t19 45
t45 19h188v195q-187 154 -417 235.5t-475 81.5q-245 -1 -475.5 -82t-421.5 -234l1 -196h192q26 0 45 -19t19 -45t-19 -45t-45 -19h-256q-26 0 -45 19t-19 45v259q-2 61 47 100q206 166 459 255.5t518 89.5t518 -89.5t459 -255.5zM1482 1023l401 -708q33 -59 33 -127v-60
q0 -106 -75 -181t-181 -75h-1276q-106 0 -181 75t-75 181v60q0 67 34 127l404 708q31 55 85 88t118 38q0 1 -1 3v128q0 26 19 45t45 19t45 -19t19 -45v-128h256v128q0 26 19 45t45 19t45 -19t19 -45v-128v-3q64 -5 117.5 -38t84.5 -88zM1788 128h4v60q0 35 -17 64l-404 708
q-37 64 -111 64h-471q-35 0 -64.5 -18t-46.5 -50l-405 -704q-17 -29 -17 -64v-60q0 -53 37.5 -90.5t90.5 -37.5h1276q53 0 90.5 37.5t37.5 90.5zM1788 128z" />
    <glyph glyph-name="square-check" unicode="check&#x2d;square" horiz-adv-x="1792" 
d="M813 467l512 512q19 19 19 45t-19 45t-45 19t-45 -19l-467 -467l-211 211q-19 19 -45 19t-45 -19t-19 -45t19 -45l256 -256q19 -19 45 -19t45 19zM0 1408v-1280q0 -106 75 -181t181 -75h1280q106 0 181 75t75 181v1280q0 106 -75 181t-181 75h-1280q-106 0 -181 -75
t-75 -181zM128 1408q0 53 37.5 90.5t90.5 37.5h1280q53 0 90.5 -37.5t37.5 -90.5v-1280q0 -53 -37.5 -90.5t-90.5 -37.5h-1280q-53 0 -90.5 37.5t-37.5 90.5v1280z" />
    <glyph glyph-name="mug-hot" unicode="mug&#x2d;hot" 
d="M1600 1024q185 0 316.5 -131.5t131.5 -316.5t-131.5 -316.5t-316.5 -131.5h-64q0 -159 -112.5 -271.5t-271.5 -112.5h-768q-159 0 -271.5 112.5t-112.5 271.5v768q0 53 37.5 90.5t90.5 37.5h1472zM1408 128v768h-1280v-768q0 -106 75 -181t181 -75h768q106 0 181 75
t75 181zM1600 256q132 0 226 94t94 226t-94 226t-226 94h-64v-640h64zM419 1415q-76 37 -119.5 108t-43.5 156v49q0 26 19 45t45 19t45 -19t19 -45v-49q0 -48 25 -88t68 -62q76 -37 119.5 -108t43.5 -156v-49q0 -26 -19 -45t-45 -19t-45 19t-19 45v49q0 48 -25 88t-68 62z
M931 1415q-75 38 -119 108.5t-44 155.5v49q0 26 19 45t45 19t45 -19t19 -45v-49q0 -48 25 -88t68 -62q76 -37 119.5 -108t43.5 -156v-49q0 -26 -19 -45t-45 -19t-45 19t-19 45v49q0 48 -25 88t-68 62z" />
    <glyph glyph-name="hand-point-up" unicode="hand&#x2d;point&#x2d;up" horiz-adv-x="1792" 
d="M1440 1024q93 0 158.5 -65.5t65.5 -158.5v-550q-1 -137 -73 -253.5t-193.5 -184.5t-264.5 -68h-348q-136 0 -257 66l-243 134q-73 40 -115 112t-42 155v237q0 77 34.5 144.5t93.5 111.5v864q0 93 65.5 158.5t158.5 65.5t158.5 -65.5t65.5 -158.5v-310q46 22 96 22
q74 0 132.5 -43.5t80.5 -111.5q51 27 107 27q74 0 132.5 -43.5t80.5 -111.5q51 27 107 27zM1024 928v-256q0 -40 28 -68t68 -28t68 28t28 68v256q0 40 -28 68t-68 28t-68 -28t-28 -68zM704 1056v-288h64q66 0 128 -36v324q0 40 -28 68t-68 28t-68 -28t-28 -68zM384 1568
v-806q31 6 64 6h128v800q0 40 -28 68t-68 28t-68 -28t-28 -68zM1536 256v118q-46 -22 -96 -22q-66 0 -121 35.5t-82 94.5q-55 -34 -117 -34q-50 0 -100 25q-14 -92 -85.5 -154.5t-166.5 -62.5h-192q-26 0 -45 19t-19 45t19 45t45 19h192q53 0 90.5 37.5t37.5 90.5
t-37.5 90.5t-90.5 37.5h-320q-80 0 -136 -56t-56 -136v-237q0 -49 24.5 -90t66.5 -64l243 -135q91 -50 195 -50h348q162 0 282.5 111.5t120.5 272.5zM1536 576v224q0 40 -28 68t-68 28t-68 -28t-28 -68v-224q0 -40 28 -68t68 -28t68 28t28 68z" />
    <glyph glyph-name="skull-crossbones" unicode="skull&#x2d;crossbones" horiz-adv-x="1792" 
d="M832 1248q0 40 -28 68t-68 28t-68 -28t-28 -68t28 -68t68 -28t68 28t28 68zM960 1248q0 -40 28 -68t68 -28t68 28t28 68t-28 68t-68 28t-68 -28t-28 -68zM1088 640q80 0 136 56t56 136v66q91 75 141.5 173t50.5 209q0 139 -77 257t-210 186.5t-289 68.5t-289 -68.5
t-210 -186.5t-77 -257q0 -111 50.5 -209t141.5 -173v-66q0 -80 56 -136t136 -56h384zM1344 1280q0 -78 -38 -152.5t-106 -129.5l-48 -34v-128q0 -29 -18.5 -46.5t-45.5 -17.5h-384q-27 0 -45.5 17.5t-18.5 46.5v128l-48 34q-68 55 -106 129.5t-38 152.5q0 153 128.5 268.5
t319.5 115.5t319.5 -115.5t128.5 -268.5zM1755 518q24 11 33 36t-2 49t-36 33t-49 -2l-805 -372l-805 372q-24 11 -49 2t-36 -33t-2 -49t33 -36l706 -326l-706 -326q-24 -11 -33 -36t2 -49t36 -33t49 2l805 372l805 -372q24 -11 49 -2t36 33t2 49t-33 36l-706 326z" />
    <glyph glyph-name="circle-radiation" unicode="circle&#x2d;radiation" 
d="M1225 610l168 -269q31 -51 17 -106q-15 -59 -65 -87q-148 -84 -321 -84q-174 0 -321 84q-52 31 -66 88q-14 55 18 106l168 268q14 23 39.5 28.5t48.5 -8.5t28.5 -39.5t-8.5 -48.5l-167 -268q-5 -7 4 -16q114 -65 255 -65t258 66q9 6 3 15l-167 268q-14 23 -8.5 48.5
t28.5 39.5t48.5 8.5t39.5 -28.5zM844 739q4 -26 -13.5 -45.5t-44.5 -20.5l-320 -11q-59 0 -97 38q-20 19 -31.5 47t-11.5 54q1 168 88 319q86 150 233 236q47 28 110 16q54 -15 82 -68l149 -283q13 -23 4.5 -48t-31.5 -38t-48 -5t-38 31l-149 279q-5 9 -16 5
q-114 -67 -185 -189q-69 -120 -71 -256q0 -7 12 -10l316 11q30 -1 47 -18.5t15 -43.5zM1634 1120q88 -151 88 -319q0 -59 -45 -102q-39 -37 -94 -37l-322 11q-26 1 -44 20.5t-17 45.5q1 25 20.5 42.5t45.5 19.5l316 -11q13 -1 12 10v1q-2 136 -71 255q-70 122 -187 190
q-8 4 -14 -6l-148 -278q-13 -23 -38.5 -31.5t-48.5 4.5t-31 38.5t5 48.5l148 279q29 52 84 68q57 16 108 -13q149 -88 233 -236zM1024 1728q195 0 373 -76t306.5 -204.5t204.5 -306.5t76 -373t-76 -373t-204.5 -306.5t-306.5 -204.5t-373 -76t-373 76t-306.5 204.5
t-204.5 306.5t-76 373t76 373t204.5 306.5t306.5 204.5t373 76zM1024 -64q169 0 323 66t265.5 177.5t177.5 265.5t66 323t-66 323t-177.5 265.5t-265.5 177.5t-323 66t-323 -66t-265.5 -177.5t-177.5 -265.5t-66 -323t66 -323t177.5 -265.5t265.5 -177.5t323 -66zM928 768
q0 40 28 68t68 28t68 -28t28 -68t-28 -68t-68 -28t-68 28t-28 68z" />
    <glyph glyph-name="biohazard" unicode="biohazard" horiz-adv-x="2304" 
d="M1152 800q40 0 68 -28t28 -68t-28 -68t-68 -28t-68 28t-28 68t28 68t68 28zM1153 1408q-104 0 -205 -31q-38 50 -52 118q128 41 256 41q129 0 257 -41q-11 -63 -53 -117q-101 30 -203 30zM1630 188q182 169 218 410h3q60 0 121 -32q-47 -278 -252 -469q-53 31 -90 91z
M2299 686q10 -31 -0.5 -62.5t-37.5 -49.5q-29 -17 -62.5 -12t-56.5 31q-48 54 -95 81q-138 81 -292 39q-77 -21 -140 -68.5t-98 -115.5q-52 -99 -52.5 -201t51.5 -195.5t143 -147.5q43 -28 113 -42q33 -7 54 -33.5t21 -60.5q-1 -34 -22.5 -60t-54.5 -32q-123 -24 -249 -3
t-230 84q-88 58 -139 109q-80 -75 -139 -109q-161 -94 -348 -94q-61 0 -132 13q-33 7 -54 32.5t-22 59.5q-1 33 21 59.5t53 34.5q69 15 116 43q140 83 181.5 241.5t-38.5 301.5q-82 142 -238 184q-156 43 -293 -39q-49 -28 -94 -81q-23 -26 -56.5 -31.5t-62.5 11.5
q-29 18 -40.5 49.5t-0.5 63.5q41 119 122 218t187 163q73 42 161 66q-21 83 -21 164q0 126 44 245.5t126 216.5q22 25 55.5 31t62.5 -11q29 -16 41.5 -48t1.5 -64q-22 -69 -22 -124q0 -164 114.5 -280t275.5 -116t275 116.5t114 279.5q0 59 -22 125q-11 32 1 63.5t41 47.5
q30 17 63 11.5t56 -31.5q82 -98 126 -217t44 -245q0 -81 -21 -164q81 -21 160 -66q108 -64 187.5 -162t121.5 -219zM1718 837q204 55 390 -52q-71 106 -183 172q-92 50 -187 66l-74 13l24 71q34 104 34 190q0 129 -53 244q0 -106 -41.5 -202.5t-110.5 -166.5t-164.5 -111.5
t-200.5 -41.5q-140 0 -258.5 70t-188 190t-70.5 262q-53 -115 -53 -244q0 -92 34 -190l25 -71l-74 -13q-104 -18 -188 -67q-111 -65 -182 -171q118 69 256 69q71 0 133 -17q208 -56 316 -246q52 -92 64.5 -197t-13 -201t-87.5 -180.5t-153 -137.5l-2 -1q128 11 237 75
q84 49 154 135l50 62l50 -61q83 -95 153 -136q113 -65 238 -74h-2q-91 55 -153 139.5t-87.5 180.5t-13 200.5t64.5 196.5t133.5 155t182.5 90zM675 189q-35 -58 -90 -91q-205 197 -249 469q53 32 117 32q1 0 2 -0.5t2 -0.5q38 -243 218 -409z" />
    <glyph glyph-name="ankh" unicode="ankh" horiz-adv-x="1280" 
d="M1216 640q26 0 45 -19t19 -45t-19 -45t-45 -19h-512v-704q0 -26 -19 -45t-45 -19t-45 19t-19 45v704h-512q-26 0 -45 19t-19 45t19 45t45 19h354q-120 117 -205 283.5t-85 320.5q0 123 40.5 227t109.5 173.5t162.5 108.5t199.5 39t199.5 -39t162.5 -108.5t109.5 -173.5
t40.5 -227q0 -154 -85.5 -320.5t-205.5 -283.5h355zM641 640q25 2 71 37.5t99.5 97t101 134.5t79.5 163.5t32 171.5q0 185 -107.5 302.5t-276.5 117.5t-276.5 -117.5t-107.5 -302.5q0 -82 32 -172t80 -163t101 -134.5t99.5 -97t72.5 -37.5z" />
    <glyph glyph-name="star-and-crescent" unicode="star&#x2d;and&#x2d;crescent" 
d="M2014 936q24 -3 32 -26.5t-10 -40.5l-221 -216l52 -304q4 -19 -8.5 -33t-30.5 -14q-12 0 -19 5l-273 144l-274 -144q-8 -5 -18 -5q-18 0 -30 14t-9 33l52 304l-221 216q-18 17 -10 41t32 27l305 44l137 277q13 22 36 22q25 0 36 -22l136 -277zM1726 745l93 90l-195 29
l-88 177l-88 -177l-195 -29l141 -137l-33 -195l175 92l175 -92l-33 195zM1351 43q50 0 85.5 -35t35.5 -85q0 -39 -22.5 -70.5t-59.5 -43.5q-174 -65 -358 -65q-210 0 -401 81t-329 218.5t-220 327t-82 397.5t82 397.5t220 327t329 218.5t401 81q188 0 358 -66
q41 -16 62.5 -54.5t13.5 -81.5q-9 -43 -42.5 -70t-76.5 -27l-35 2q-147 0 -282 -57.5t-233 -155t-156 -232t-58 -282.5q0 -197 98.5 -364.5t267 -265t367.5 -97.5zM1032 -128q134 0 268 41q-172 3 -328.5 72t-269.5 183.5t-180 271t-67 328.5q0 229 113.5 424.5t308 311
t424.5 119.5q-134 41 -269 41q-183 0 -350.5 -71t-288.5 -191t-193 -286t-72 -348t72 -348t193 -286t288.5 -191t350.5 -71z" />
    <glyph glyph-name="khanda" unicode="khanda" horiz-adv-x="2304" 
d="M1791 1532q223 -124 323.5 -354t33.5 -476q-50 -170 -165 -303l-210 -245q-19 -22 -49 -22q-16 0 -30 7l-317 169l-117 -81l189 -131q12 4 20 4q40 0 68 -28t28 -68t-28 -68t-68 -28q-36 0 -62.5 24t-31.5 59l-163 114v-121q64 -38 64 -108q0 -51 -36 -88t-88 -37
q-51 0 -88 36.5t-37 88.5q0 71 64 108v120l-162 -113q-5 -35 -31.5 -59t-62.5 -24q-40 0 -68 26.5t-28 65.5q0 40 28 68t68 28q5 0 17 -4l188 131l-117 82l-317 -169q-16 -8 -30 -8q-30 0 -49 22l-224 262q-83 97 -122 196q-53 133 -53.5 272t44.5 259t131.5 221t203.5 165
q15 9 33 9q29 0 47 -20q15 -16 18.5 -36.5t-7.5 -39.5q-101 -161 -101 -350q1 -160 76 -299.5t208 -228.5l303 -214v80l-172 144q-24 26 -16 61l35 73q-103 59 -165 162t-62 226q0 119 58.5 219.5t159.5 159.5l-21 46q-14 37 14 64l237 211l235 -215q14 -10 17.5 -27.5
t-3.5 -32.5l-20 -46q100 -61 159 -162t59 -221q0 -123 -62 -226t-166 -162l28 -69q14 -36 -11 -61l-176 -144v-81l306 213q133 89 208.5 229.5t76.5 300.5q0 189 -101 350q-26 41 8 78q18 20 46 20q6 0 12.5 -0.5t13 -2t9.5 -1.5zM591 272l210 114l-97 68
q-156 106 -245 274.5t-90 359.5q0 93 20 176q-102 -125 -126.5 -285.5t37.5 -323.5q33 -82 100 -160zM1324 1354l-55 -128q-53 -150 1 -302l48 -108q70 44 111.5 116t41.5 156q0 82 -39.5 152t-107.5 114zM1151 1620l-115 -100l115 -244l112 244zM984 816l49 108
q54 150 0 302l-58 128q-66 -44 -105 -114t-39 -152q0 -85 41.5 -157t111.5 -115zM1151 538l112 92l-115 244l-112 -244zM2024 730q39 146 10 283.5t-119 248.5q20 -88 20 -174q-1 -192 -92.5 -361t-253.5 -275l-94 -66l214 -114l177 207q105 123 138 251z" />
    <glyph glyph-name="peace" unicode="peace" 
d="M1024 1792q209 0 398.5 -81t326.5 -218t218 -326.5t81 -398.5t-81 -398.5t-218 -326.5t-326.5 -218t-398.5 -81t-398.5 81t-326.5 218t-218 326.5t-81 398.5t81 398.5t218 326.5t326.5 218t398.5 81zM1920 768q0 174 -65 333.5t-176.5 278t-265.5 194t-325 87.5v-862
l673 -535q159 224 159 504zM960 1661q-173 -12 -327 -87.5t-265 -194t-175.5 -278t-64.5 -333.5q0 -277 159 -508l673 539v862zM367 160q114 -123 267 -197.5t326 -87.5v760zM1088 -125q173 13 326 87.5t267 197.5l-593 475v-760z" />
    <glyph glyph-name="yin-yang" unicode="yin&#x2d;yang" 
d="M1024 1792q209 0 398.5 -81t326.5 -218t218 -326.5t81 -398.5t-81 -398.5t-218 -326.5t-326.5 -218t-398.5 -81t-398.5 81t-326.5 218t-218 326.5t-81 398.5t81 398.5t218 326.5t326.5 218t398.5 81zM128 768q0 -240 118.5 -444t317.5 -324q-84 136 -84 288q0 148 73 273
t198 198t273 73q172 0 294 122t122 294t-122 294t-294 122q-182 0 -348 -71t-286 -191t-191 -286t-71 -348zM1024 -128q182 0 348 71t286 191t191 286t71 348q0 240 -118.5 444t-317.5 324q84 -136 84 -288q0 -148 -73 -273t-198 -198t-273 -73q-172 0 -294 -122t-122 -294
t122 -294t294 -122zM1024 1152q-40 0 -68 28t-28 68t28 68t68 28t68 -28t28 -68t-28 -68t-68 -28zM1024 384q40 0 68 -28t28 -68t-28 -68t-68 -28t-68 28t-28 68t28 68t68 28z" />
    <glyph glyph-name="dharmachakra" unicode="dharmachakra" 
d="M1984 832q26 0 45 -19t19 -45t-19 -45t-45 -19h-131q-21 -272 -198 -477l93 -93q19 -19 19 -45t-19 -45q-18 -19 -45 -19t-46 19l-93 93q-206 -177 -476 -198v-131q0 -26 -19 -45t-45 -19t-45 19t-19 45v131q-272 21 -477 198l-93 -93q-18 -19 -45 -19q-26 0 -45 19
t-19 45t19 45l93 93q-177 205 -198 477h-131q-26 0 -45 19t-19 45t19 45t45 19h131q21 272 198 477l-93 93q-19 19 -19 45t19 45t45 19t45 -19l94 -93q206 177 476 198v131q0 26 19 45t45 19t45 -19t19 -45v-131q272 -21 477 -198l93 93q19 19 45 19t45 -19t19 -45t-19 -45
l-93 -93q177 -205 198 -477h131zM1725 832q-19 217 -160 386l-229 -228q51 -71 66 -158h323zM1024 512q106 0 181 75t75 181t-75 181t-181 75t-181 -75t-75 -181t75 -181t181 -75zM1474 1309q-167 141 -386 160v-323q87 -15 158 -66zM960 1469q-219 -19 -386 -160l228 -229
q71 51 158 66v323zM483 1218q-141 -167 -160 -386h323q15 87 66 158zM323 704q19 -217 160 -386l229 228q-51 71 -66 158h-323zM574 227q167 -141 386 -160v323q-87 15 -158 66zM1088 67q217 19 386 160l-228 229q-71 -51 -158 -66v-323zM1565 318q141 167 160 386h-323
q-15 -87 -66 -158z" />
    <glyph glyph-name="face-frown" unicode="face&#x2d;frown" 
d="M557 195q26 -8 49.5 4.5t30.5 37.5q37 120 144 197.5t243 77.5t243 -77.5t144 -197.5q7 -25 30.5 -37.5t49.5 -4.5q25 7 37.5 30.5t4.5 49.5q-50 161 -190.5 263t-318.5 102t-318.5 -102t-190.5 -263q-8 -26 4.5 -49.5t37.5 -30.5zM802 960q0 40 -28 68t-68 28t-68 -28
t-28 -68t28 -68t68 -28t68 28t28 68zM1250 960q0 -40 28 -68t68 -28t68 28t28 68t-28 68t-68 28t-68 -28t-28 -68zM2048 768q0 209 -81 398.5t-218 326.5t-326.5 218t-398.5 81t-398.5 -81t-326.5 -218t-218 -326.5t-81 -398.5t81 -398.5t218 -326.5t326.5 -218t398.5 -81
t398.5 81t326.5 218t218 326.5t81 398.5zM1024 1664q182 0 348 -71t286 -191t191 -286t71 -348t-71 -348t-191 -286t-286 -191t-348 -71t-348 71t-286 191t-191 286t-71 348t71 348t191 286t286 191t348 71z" />
    <glyph glyph-name="mercury" unicode="mercury" horiz-adv-x="1536" 
d="M1472 900q0 -182 -85 -338.5t-231.5 -253.5t-323.5 -113v-131h192q26 0 45 -19t19 -45t-19 -45t-45 -19h-192v-128q0 -26 -19 -45t-45 -19q-27 0 -45.5 19.5t-18.5 48.5v128h-192q-26 0 -45 19t-19 45t19 45t45 19h192v131q-177 16 -323.5 112.5t-231.5 252.5t-85 336
q0 208 114 381t298 257q-117 57 -202 146q-18 19 -17.5 45.5t19.5 44.5q20 18 46 17.5t44 -19.5q162 -168 402 -168t405 172q18 19 44.5 20t46.5 -18q19 -19 19.5 -45.5t-17.5 -45.5q-87 -91 -206 -146q184 -84 298 -257.5t114 -383.5zM192 900q0 -118 45.5 -225t123 -184
t184 -122t223.5 -45t223.5 45.5t184 123t123 184t45.5 223.5t-45.5 223.5t-123 184t-184 123t-223.5 45.5t-223.5 -45.5t-184 -123t-123 -184t-45.5 -223.5z" />
    <glyph glyph-name="venus" unicode="venus" horiz-adv-x="1536" 
d="M1472 1088q0 -135 -50 -259.5t-135 -217t-203.5 -152.5t-251.5 -72v-195h256q26 0 45 -19t19 -45t-19 -45t-45 -19h-256v-256q0 -26 -19 -45t-45 -19t-45 19t-19 45v256h-256q-26 0 -45 19t-19 45t19 45t45 19h256v195q-133 12 -251.5 72t-203.5 152.5t-135 217
t-50 259.5q0 143 55.5 273.5t150 225t225 150t273.5 55.5t273.5 -55.5t225 -150t150 -225t55.5 -273.5zM192 1088q0 -117 45.5 -223.5t123 -184t184 -123t223.5 -45.5t223.5 45.5t184 123t123 184t45.5 223.5t-45.5 223.5t-123 184t-184 123t-223.5 45.5t-223.5 -45.5
t-184 -123t-123 -184t-45.5 -223.5z" />
    <glyph glyph-name="mars" unicode="mars" horiz-adv-x="1792" 
d="M1787 1624q5 -13 5 -24v-512q0 -26 -19 -45t-45 -19t-45 19t-19 45v357l-419 -419q163 -195 163 -450q0 -143 -55.5 -273.5t-150 -225t-225 -150t-273.5 -55.5t-273.5 55.5t-225 150t-150 225t-55.5 273.5t55.5 273.5t150 225t225 150t273.5 55.5q255 0 450 -163l420 419
h-358q-26 0 -45 19t-19 45t19 45t45 19h512q12 0 25 -5q24 -9 34 -35zM1280 576q0 117 -45.5 223.5t-123 184t-184 123t-223.5 45.5t-223.5 -45.5t-184 -123t-123 -184t-45.5 -223.5t45.5 -223.5t123 -184t184 -123t223.5 -45.5t223.5 45.5t184 123t123 184t45.5 223.5z" />
    <glyph glyph-name="chess-king" unicode="chess&#x2d;king" horiz-adv-x="1792" 
d="M1468 0q82 0 139 -56t57 -136q0 -26 -19 -45t-45 -19t-45 19t-19 45t-19 45t-45 19h-1152q-26 0 -45 -19t-19 -45t-19 -45t-45 -19q-27 0 -45.5 19.5t-18.5 48.5q0 77 56.5 132.5t135.5 55.5h1148zM1693 1071q57 -81 24 -175l-257 -726q-7 -20 -29.5 -35t-52.5 -4
q-25 9 -36.5 33t-2.5 49l257 725q11 32 -8 59t-51 27h-1282q-32 0 -51 -27t-8 -59l247 -726q8 -25 -3.5 -49t-36.5 -32t-49 3.5t-32 36.5l-247 725q-16 43 -9.5 90t33.5 85t68.5 59.5t87.5 21.5h577v256h-192q-27 0 -47.5 19t-20.5 45t20.5 45t47.5 19h192v192q0 26 19 45
t45 19t45 -19t19 -45v-192h192q26 0 45 -19t19 -45t-19 -45t-45 -19h-192v-256h577q46 0 87.5 -21.5t68.5 -59.5z" />
    <glyph glyph-name="chess-queen" unicode="chess&#x2d;queen" 
d="M1596 0q82 0 137 -56t55 -136q0 -26 -19.5 -45t-44.5 -19q-24 0 -42 19t-18 45t-19 45t-45 19h-1152q-26 0 -45 -19t-19 -45t-19 -45t-45 -19t-45.5 19.5t-22.5 48.5q0 77 56.5 132.5t135.5 55.5h1152zM1927 1072q40 -27 52.5 -71.5t-7.5 -84.5l-359 -752
q-17 -36 -58 -36q-15 0 -28 6q-24 11 -32.5 36t2.5 49l359 752l-92 46q-36 -52 -97.5 -76.5t-126.5 -11.5q-77 14 -130 77t-58 146h-105q-21 -76 -82.5 -123.5t-140.5 -47.5t-140.5 47.5t-82.5 123.5h-105q-6 -91 -67.5 -156t-148.5 -71q-60 -4 -113.5 21t-88.5 73l-84 -53
l357 -746q11 -24 2 -49.5t-33 -36.5t-49 -2.5t-36 32.5l-359 752q-20 40 -8 84.5t50 69.5l103 58q36 26 83.5 16.5t77.5 -50.5q16 -21 39.5 -32.5t46.5 -8.5q40 3 68 36.5t28 78.5q0 46 34.5 79t80.5 33h135q39 0 70 -24.5t38 -61.5q8 -38 36.5 -61.5t65.5 -23.5t65.5 23.5
t36.5 61.5q7 37 38 61.5t70 24.5h135q45 0 76.5 -32t34.5 -79q0 -42 24 -74.5t60 -39.5q62 -13 102 40q30 40 77.5 49t87.5 -18zM1024 1344q-93 0 -160.5 65.5t-67.5 158.5t67.5 158.5t160.5 65.5t158.5 -65.5t65.5 -158.5t-65.5 -158.5t-158.5 -65.5zM1024 1664
q-40 0 -68 -28t-28 -68t28 -68t68 -28t68 28t28 68t-28 68t-68 28z" />
    <glyph glyph-name="chess-rook" unicode="chess&#x2d;rook" horiz-adv-x="1536" 
d="M1344 1664q80 0 136 -56t56 -136v-448q0 -26 -19 -45l-237 -238v-44v-45t0.5 -41.5t1 -45.5t2 -45t3.5 -52t5.5 -53.5t7.5 -63.5t9.5 -68.5t12.5 -80.5q4 -26 -11.5 -47t-41.5 -26q-9 -2 -22 0t-30 15.5t-21 37.5q-22 138 -32 246.5t-11 157.5t-1 182q0 26 19 45l237 237
v422q0 26 -19 45t-45 19h-256v-256q0 -26 -19 -45t-45 -19t-45 19t-19 45v256h-384v-256q0 -26 -19 -45t-45 -19t-45 19t-19 45v256h-256q-26 0 -45 -19t-19 -45v-422l237 -237q19 -19 19 -45q0 -117 -1.5 -176.5t-11.5 -164.5t-31 -245q-5 -26 -26.5 -41.5t-46.5 -11.5
q-26 5 -41.5 26t-11.5 47q7 42 12.5 80.5t9.5 68.5t7.5 63.5t5.5 53.5t3.5 52t2 44.5t1 45.5t0.5 41.5v45v44.5l-237 238q-19 19 -19 45v448q0 80 56 136t136 56h1152zM1344 0q80 0 136 -56t56 -136q0 -26 -19 -45t-45 -19t-45 19t-19 45t-19 45t-45 19h-1152q-26 0 -45 -19
t-19 -45t-19 -45t-45 -19q-27 0 -45.5 19.5t-18.5 48.5q0 76 56 132t132 56h1156zM896 512h-256q-26 0 -45 19t-19 45v256q0 80 56 136t136 56t136 -56t56 -136v-256q0 -26 -19 -45t-45 -19zM704 832v-192h128v192q0 26 -19 45t-45 19t-45 -19t-19 -45z" />
    <glyph glyph-name="chess-bishop" unicode="chess&#x2d;bishop" horiz-adv-x="1280" 
d="M256 304q-109 32 -182.5 125t-73.5 227q0 127 75 305.5t185.5 335t215.5 239.5h328q105 -83 215.5 -239.5t185.5 -335t75 -305.5q0 -135 -73.5 -228t-182.5 -124v-112q0 -26 -19 -45t-45 -19t-45 19t-19 45v164q0 19 13 35t33 22l46 14q68 20 116 78t48 151
q0 124 -91 314l-312 -311q-18 -19 -45 -19q-26 0 -45 19t-19 45t19 45l339 340q-120 208 -241 319h-234q-140 -129 -267.5 -364.5t-127.5 -387.5q0 -93 48 -151t116 -78l46 -14q20 -6 33 -23t13 -38v-160q0 -26 -19 -45t-45 -19t-45 19t-19 45v112zM448 1664
q-27 0 -45.5 18.5t-18.5 45.5t18.5 45.5t45.5 18.5h384q27 0 45.5 -18.5t18.5 -45.5t-18.5 -45.5t-45.5 -18.5h-384zM1088 0q80 0 136 -56t56 -136q0 -26 -19 -45t-45 -19t-45 19t-19 45t-19 45t-45 19h-896q-26 0 -45 -19t-19 -45t-19 -45t-45 -19t-45 19t-19 45
q0 80 56 136t136 56h896z" />
    <glyph glyph-name="chess-knight" unicode="chess&#x2d;knight" horiz-adv-x="1536" 
d="M256 1136q0 33 23.5 56.5t56.5 23.5t56.5 -23.5t23.5 -56.5t-23.5 -56.5t-56.5 -23.5t-56.5 23.5t-23.5 56.5zM142 586q-64 28 -103 87.5t-39 130.5v476q0 60 30 109l-10 22q-26 50 -18 108q9 63 59.5 104t115.5 41h335q182 0 348 -71t286 -191t191 -286t71 -348v-576
q0 -26 -19 -45t-45 -19t-45 19t-19 45v576q0 209 -103 385.5t-279.5 279.5t-385.5 103h-342q-23 0 -36 -21t0 -47l50 -98l-14 -14l-14 -14t-11 -12.5t-9.5 -14.5t-5 -15.5t-2.5 -19.5v-476q0 -33 18 -60.5t48 -41.5l141 -62q42 -19 85 -2l45 18q51 25 65 71l32 106
q3 38 44 55l65 38v-249q0 -47 -25 -87.5t-67 -61.5q-190 -112 -225 -137q-69 -50 -86 -103q-12 -35 -12 -96q0 -26 -19 -45t-45 -19t-45 19t-19 45q0 78 15 124q36 114 161 199q-13 4 -162 71zM1344 0q80 0 136 -56t56 -136q0 -26 -19 -45t-45 -19t-45 19t-19 45t-19 45
t-45 19h-1152q-26 0 -45 -19t-19 -45t-19 -45t-45 -19q-27 0 -45.5 19.5t-18.5 48.5q0 76 56 132t132 56h1156z" />
    <glyph glyph-name="chess-pawn" unicode="chess&#x2d;pawn" horiz-adv-x="1280" 
d="M1088 0q80 0 136 -56t56 -136q0 -26 -19 -45t-45 -19t-45 19t-19 45t-19 45t-45 19h-896q-26 0 -45 -19t-19 -45t-19 -45t-45 -19q-27 0 -45.5 19.5t-18.5 48.5q0 76 56 132t132 56h900zM320 960h21q-117 122 -117 288q0 173 119 294.5t293 121.5t297 -122t123 -294
q0 -80 -31 -155.5t-86 -132.5h21q26 0 45 -19t19 -45t-19 -45t-45 -19h-80l142 -626q7 -29 -11.5 -53.5t-50.5 -24.5q-21 0 -39 15t-23 35l-149 654h-218l-149 -654q-5 -22 -22.5 -36t-39.5 -14q-32 0 -50.5 24.5t-11.5 53.5l142 626h-80q-26 0 -45 19t-19 45t19 45t45 19z
M640 1536q-119 0 -203.5 -84.5t-84.5 -203.5t84.5 -203.5t203.5 -84.5t203.5 84.5t84.5 203.5t-84.5 203.5t-203.5 84.5z" />
    <glyph glyph-name="spade" unicode="spade" 
d="M1853 123q121 106 169 257.5t12.5 305.5t-145.5 268l-771 799q-39 39 -93.5 39t-90.5 -39l-775 -799q-110 -114 -145 -268t13.5 -305.5t171.5 -257.5q162 -136 373.5 -121t364.5 164l9 9l14 15v-318h-256q-26 0 -45 -19t-19 -45t19 -45t45 -19h640q26 0 45 19t19 45
t-19 45t-45 19h-256v318l14 -15q2 -2 5 -5.5t5 -5.5q100 -97 231 -138t267 -17t243 114zM1797 865q85 -88 112.5 -207.5t-9 -236.5t-130.5 -197q-125 -106 -290.5 -94.5t-284.5 132.5l-74 82q-39 42 -93 42q-58 1 -95 -39l-79 -83q-120 -121 -286.5 -134.5t-284.5 89.5l-1 1
q-95 82 -132.5 199.5t-10.5 237t112 208.5l775 799l1 -1z" />
    <glyph glyph-name="club" unicode="club" 
d="M1559 1149q9 51 5 88q0 2 2 5.5t2 5.5q0 148 -73 273t-198 198t-273 73t-273 -73t-198 -198t-73 -273v-11q1 -44 9 -88q-48 -5 -87 -16q-176 -47 -289 -192.5t-113 -332.5q0 -148 73 -273t198 -198t273 -73q116 0 219.5 46t179.5 128q3 3 5.5 6t6 7.5t5.5 6.5v-386h-256
q-26 0 -45 -19t-19 -45t19 -45t45 -19h640q26 0 45 19t19 45t-19 45t-45 19h-256v386q1 -1 7 -8.5t10 -11.5q76 -82 179.5 -128t219.5 -46q148 0 273 73t198 199.5t73 275.5q0 184 -113 329t-289 192q-39 11 -87 16zM1440 1252q0 -38 -7 -80q-10 -57 24 -100q33 -44 89 -50
q158 -16 266 -133.5t108 -276.5q0 -175 -121.5 -297.5t-294.5 -122.5q-118 0 -216 60.5t-151 163.5q-17 29 -48 46.5t-69 17.5q-33 0 -62.5 -17.5t-46.5 -46.5q-53 -103 -152 -163.5t-219 -60.5q-170 0 -293 123t-123 297q0 158 110 276t268 134q56 6 89 50q34 43 24 100
q-7 42 -7 80q0 170 122 293t294 123t294 -123t122 -293z" />
    <glyph glyph-name="heart" unicode="heart" 
d="M1020 1408l-44 48q-97 98 -230 140.5t-268 19.5q-207 -35 -342.5 -194.5t-135.5 -369.5v-24q0 -124 49.5 -238.5t140.5 -199.5l723 -674q47 -44 111 -44t111 44l723 674q91 84 140.5 198.5t49.5 239.5v24q0 210 -135.5 369.5t-342.5 194.5q-137 23 -269.5 -19.5
t-232.5 -140.5zM1020 1227l142 139q76 76 177.5 108.5t209.5 14.5q161 -27 266 -150.5t105 -286.5v-24q0 -98 -39 -187.5t-111 -156.5l-722 -675q-9 -9 -28 -9q-11 0 -20 9l-722 675q-72 68 -113 157.5t-41 186.5v24q0 162 107 286t268 151q106 18 208.5 -14.5t178.5 -108.5
z" />
    <glyph glyph-name="diamond" unicode="diamond" 
d="M2001 881l-864 864q-47 47 -113 47t-113 -47l-864 -864q-47 -47 -47 -113t47 -113l864 -864q47 -47 113 -47t113 47l864 864q47 47 47 113t-47 113zM137 791l864 864q10 9 23 9t23 -9l864 -864q9 -10 9 -23t-9 -23l-864 -864q-10 -9 -23 -9t-23 9l-864 864q-9 10 -9 23
t9 23z" />
    <glyph glyph-name="recycle" unicode="recycle" 
d="M640 128q26 0 43 -18.5t17 -45.5t-17 -45.5t-43 -18.5h-319q-89 0 -163 43.5t-117 119.5q-42 77 -40 160t45 159l281 461l-206 -60q-25 -7 -48 5.5t-31 38.5q-7 25 5.5 48t38.5 31l348 101q24 8 48 -5q23 -12 31 -39l100 -348q8 -26 -5 -49t-38 -30q-6 -2 -18 -2
q-21 0 -38.5 12.5t-23.5 33.5l-56 194l-278 -459q-57 -94 -3 -189q26 -46 70.5 -72t97.5 -26h319zM2002 482q45 -74 46.5 -158.5t-41.5 -160.5q-44 -77 -118.5 -120t-162.5 -43h-484l144 -147q19 -19 19 -45t-19 -45q-18 -19 -46 -19q-20 0 -41 19l-256 256q-19 19 -19 45
t19 45l256 256q19 19 45 19t45 -19t19 -45t-19 -45l-147 -147h484q53 0 98 26t71 72q54 95 -3 189l-155 255q-14 22 -7 48.5t29 39.5q22 14 48.5 7.5t39.5 -28.5zM1190 1571q-26 43 -70.5 68t-95.5 25t-95 -24.5t-70 -67.5l-120 -197q-13 -23 -39 -29t-49 7
q-22 13 -28.5 39.5t7.5 48.5l119 197q44 72 117 113t158 41t158 -41t117 -113l217 -357l62 215q8 26 31.5 38.5t48.5 5.5t38 -30.5t5 -49.5l-100 -347q-8 -27 -31 -39q-16 -8 -31 -8q-9 0 -18 3l-347 101q-26 8 -38.5 31t-5.5 48q8 26 31 38.5t48 5.5l182 -53z" />
    <glyph glyph-name="dice-one" unicode="dice&#x2d;one" horiz-adv-x="1792" 
d="M1536 1664q106 0 181 -75t75 -181v-1280q0 -106 -75 -181t-181 -75h-1280q-106 0 -181 75t-75 181v1280q0 106 75 181t181 75h1280zM1664 128v1280q0 52 -38 90t-90 38h-1280q-52 0 -90 -38t-38 -90v-1280q0 -52 38 -90t90 -38h1280q52 0 90 38t38 90zM896 864
q40 0 68 -28t28 -68t-28 -68t-68 -28t-68 28t-28 68t28 68t68 28z" />
    <glyph glyph-name="dice-two" unicode="dice&#x2d;two" horiz-adv-x="1792" 
d="M1536 1664q106 0 181 -75t75 -181v-1280q0 -106 -75 -181t-181 -75h-1280q-106 0 -181 75t-75 181v1280q0 106 75 181t181 75h1280zM1664 128v1280q0 52 -38 90t-90 38h-1280q-52 0 -90 -38t-38 -90v-1280q0 -52 38 -90t90 -38h1280q52 0 90 38t38 90zM512 1248
q40 0 68 -28t28 -68t-28 -68t-68 -28t-68 28t-28 68t28 68t68 28zM1280 480q40 0 68 -28t28 -68t-28 -68t-68 -28t-68 28t-28 68t28 68t68 28z" />
    <glyph glyph-name="dice-three" unicode="dice&#x2d;three" horiz-adv-x="1792" 
d="M1536 1664q106 0 181 -75t75 -181v-1280q0 -106 -75 -181t-181 -75h-1280q-106 0 -181 75t-75 181v1280q0 106 75 181t181 75h1280zM1664 128v1280q0 52 -38 90t-90 38h-1280q-52 0 -90 -38t-38 -90v-1280q0 -52 38 -90t90 -38h1280q52 0 90 38t38 90zM512 1248
q40 0 68 -28t28 -68t-28 -68t-68 -28t-68 28t-28 68t28 68t68 28zM896 864q40 0 68 -28t28 -68t-28 -68t-68 -28t-68 28t-28 68t28 68t68 28zM1280 480q40 0 68 -28t28 -68t-28 -68t-68 -28t-68 28t-28 68t28 68t68 28z" />
    <glyph glyph-name="dice-four" unicode="dice&#x2d;four" horiz-adv-x="1792" 
d="M1536 1664q106 0 181 -75t75 -181v-1280q0 -106 -75 -181t-181 -75h-1280q-106 0 -181 75t-75 181v1280q0 106 75 181t181 75h1280zM1664 128v1280q0 52 -38 90t-90 38h-1280q-52 0 -90 -38t-38 -90v-1280q0 -52 38 -90t90 -38h1280q52 0 90 38t38 90zM512 1248
q40 0 68 -28t28 -68t-28 -68t-68 -28t-68 28t-28 68t28 68t68 28zM512 480q40 0 68 -28t28 -68t-28 -68t-68 -28t-68 28t-28 68t28 68t68 28zM1280 1248q40 0 68 -28t28 -68t-28 -68t-68 -28t-68 28t-28 68t28 68t68 28zM1280 480q40 0 68 -28t28 -68t-28 -68t-68 -28
t-68 28t-28 68t28 68t68 28z" />
    <glyph glyph-name="dice-five" unicode="dice&#x2d;five" horiz-adv-x="1792" 
d="M1536 1664q106 0 181 -75t75 -181v-1280q0 -106 -75 -181t-181 -75h-1280q-106 0 -181 75t-75 181v1280q0 106 75 181t181 75h1280zM1664 128v1280q0 52 -38 90t-90 38h-1280q-52 0 -90 -38t-38 -90v-1280q0 -52 38 -90t90 -38h1280q52 0 90 38t38 90zM512 1248
q40 0 68 -28t28 -68t-28 -68t-68 -28t-68 28t-28 68t28 68t68 28zM896 864q40 0 68 -28t28 -68t-28 -68t-68 -28t-68 28t-28 68t28 68t68 28zM512 480q40 0 68 -28t28 -68t-28 -68t-68 -28t-68 28t-28 68t28 68t68 28zM1280 1248q40 0 68 -28t28 -68t-28 -68t-68 -28t-68 28
t-28 68t28 68t68 28zM1280 480q40 0 68 -28t28 -68t-28 -68t-68 -28t-68 28t-28 68t28 68t68 28z" />
    <glyph glyph-name="dice-six" unicode="dice&#x2d;six" horiz-adv-x="1792" 
d="M1536 1664q106 0 181 -75t75 -181v-1280q0 -106 -75 -181t-181 -75h-1280q-106 0 -181 75t-75 181v1280q0 106 75 181t181 75h1280zM1664 128v1280q0 52 -38 90t-90 38h-1280q-52 0 -90 -38t-38 -90v-1280q0 -52 38 -90t90 -38h1280q52 0 90 38t38 90zM512 1248
q40 0 68 -28t28 -68t-28 -68t-68 -28t-68 28t-28 68t28 68t68 28zM512 864q40 0 68 -28t28 -68t-28 -68t-68 -28t-68 28t-28 68t28 68t68 28zM1280 864q40 0 68 -28t28 -68t-28 -68t-68 -28t-68 28t-28 68t28 68t68 28zM512 480q40 0 68 -28t28 -68t-28 -68t-68 -28t-68 28
t-28 68t28 68t68 28zM1280 1248q40 0 68 -28t28 -68t-28 -68t-68 -28t-68 28t-28 68t28 68t68 28zM1280 480q40 0 68 -28t28 -68t-28 -68t-68 -28t-68 28t-28 68t28 68t68 28z" />
    <glyph glyph-name="anchor" unicode="anchor" horiz-adv-x="2304" 
d="M1472 1472q0 133 -94.5 226.5t-229.5 93.5q-130 0 -225 -94t-95 -226q0 -115 74.5 -203t185.5 -111v-6v-128h-260q-25 0 -44.5 -19t-19.5 -45t19.5 -45t44.5 -19h260v-1024h-132q-155 0 -287.5 77t-210.5 210t-78 289v102l151 -147q19 -19 45 -19t45 19t19 45t-19 45
l-256 256q-19 19 -45 19t-45 -19l-256 -256q-19 -19 -19 -45t19 -45t45 -19t45 19l143 147v-102q0 -143 56.5 -273.5t151.5 -225t226 -150t274 -55.5h384q143 0 273.5 55.5t225 150t150 225t55.5 273.5v102l147 -147q19 -19 45 -19t45 19t19 45t-19 45l-256 256
q-19 19 -45 19t-45 -19l-256 -256q-19 -19 -19 -45t19 -45t45 -19t45 19l147 147v-102q0 -117 -45.5 -223.5t-123 -184t-184 -123t-223.5 -45.5h-128v1024h256q26 0 45 19t19 45t-19 45t-45 19h-256v128v6q111 23 183.5 111t72.5 203zM1152 1280q-80 0 -136 56t-56 136
t56 136t136 56t136 -56t56 -136t-56 -136t-136 -56z" />
    <glyph glyph-name="swords" unicode="swords" 
d="M1250 1197q-19 -17 -45 -17t-45 17q-19 19 -19 45.5t19 45.5l440 440l375 64q30 4 53 -18t19 -55l-63 -375l-441 -440q-19 -19 -45 -19t-45 19t-19 45t19 45l411 411l42 245l-245 -42zM1154 344q-18 -19 -45 -18.5t-45 21.5l-1000 997l-63 375q-5 30 17 53t55 16l375 -64
l1000 -996q19 -19 19 -45.5t-19 -45.5t-45.5 -19t-45.5 19l-970 971l-245 42l42 -245l970 -971q19 -19 19 -45t-19 -45zM845 179l96 -96q19 -19 19 -45t-19 -45l-138 -138q-19 -19 -45 -19q-18 0 -35 11l-229 138l-203 -204q-37 -37 -90 -37t-90 37l-74 74q-37 37 -37 90
t37 90l204 204l-138 228q-13 19 -10.5 41.5t18.5 38.5l138 142q19 19 45 19q24 0 45 -23l96 -96l32 32q19 19 45 19t45 -19t19 -45t-19 -45l-32 -32l230 -230l32 32q19 19 45 19t45 -19t19 -45t-19 -45zM748 -19l57 57l-511 511l-57 -57l165 -273l-274 -274l74 -73l272 274z
M2011 35q32 -30 37 -90q0 -53 -37 -90l-75 -74q-38 -37 -90 -37t-89 37l-204 203l-228 -137q-19 -13 -41.5 -10.5t-38.5 18.5l-139 138q-18 18 -18 45t18 45l603 602q19 19 45 19t45 -19l138 -138q18 -18 18 -45q0 -19 -10 -35l-138 -229zM1847 -128l73 74l-274 272l165 274
l-57 57l-511 -511l57 -57l273 165z" />
    <glyph glyph-name="scale-balanced" unicode="balance&#x2d;scale" horiz-adv-x="2560" 
d="M2112 -128q27 0 45 -19t15 -45q0 -26 -19 -45t-45 -19h-1664q-26 0 -45 19t-19 45t19 45t45 19h765v1417q-81 21 -135 90t-54 157h-576q-26 0 -45 19t-19 45t19 45t45 19h616q0 2 6 13t25.5 32t45.5 39q64 44 143 44q81 0 139 -44q26 -18 45.5 -39t25.5 -32t6 -13h612
q26 0 45 -19t19 -45t-19 -45t-45 -19h-576q0 -89 -52.5 -157.5t-135.5 -89.5v-1417h768zM1148 1536q0 -53 39.5 -90.5t92.5 -37.5q52 0 88 37.5t36 90.5q0 52 -38 90t-90 38t-90 -38t-38 -90zM2538 676q25 -36 22 -79q-17 -198 -164 -333.5t-348 -135.5t-348 136.5
t-163 336.5q-3 42 22 78l436 701q19 28 53 28q35 0 54 -32zM2048 256q122 0 221.5 71.5t139.5 184.5h-724q40 -113 140 -184.5t223 -71.5zM1687 640h725l-364 583zM1024 597q-17 -198 -164.5 -333.5t-351.5 -135.5q-199 0 -345.5 136t-162.5 333q-3 43 22 79l436 704
q19 28 50 28q39 0 58 -32l436 -700q25 -36 22 -79zM508 1223l-357 -583h721zM149 512q40 -113 140 -184.5t223 -71.5q122 0 221 71.5t140 184.5h-724z" />
    <glyph glyph-name="flower-daffodil" unicode="flower&#x2d;daffodil" 
d="M1152 1216q0 -52 -38 -90t-90 -38t-90 38t-38 90t38 90t90 38t90 -38t38 -90zM1984 640q27 0 47 -23.5t17 -54.5q-15 -169 -91 -320.5t-194.5 -260.5t-277.5 -173t-332 -64h-257q-173 0 -332 63.5t-277.5 172.5t-195 260.5t-91.5 320.5q-3 31 16.5 55t47.5 24h189
q207 0 393.5 -90.5t313.5 -253.5v386q-75 -42 -164 -42q-147 0 -249.5 102t-102.5 246q0 124 86 228q-86 97 -86 228q0 144 102.5 246t249.5 102q131 0 228 -86q97 86 228 86q144 0 246 -102t102 -246q0 -132 -85 -228q85 -96 85 -228q0 -144 -101.5 -246t-246.5 -102
q-89 0 -164 42v-386q127 163 313.5 253.5t393.5 90.5h189zM956 -128q0 12 0.5 48t0 48t-2.5 40.5t-6.5 44.5t-13 39.5t-20.5 45.5q-104 174 -280.5 274t-379.5 100h-118q30 -179 138.5 -325.5t272.5 -230.5t349 -84h60zM1024 926l52 -68q31 -42 77.5 -66t98.5 -24
q92 0 156 64t64 156q0 52 -23.5 98.5t-65.5 77.5l-69 52l69 55q42 28 65.5 74t23.5 99q0 92 -64 156t-156 64q-52 0 -98.5 -23.5t-77.5 -65.5l-52 -69l-52 68q-31 42 -77.5 66t-98.5 24q-92 0 -158 -64.5t-66 -155.5q0 -52 25 -98.5t68 -77.5l69 -52l-69 -52
q-42 -31 -65.5 -77.5t-23.5 -98.5q0 -92 64 -156t156 -64q52 0 98.5 24t77.5 66zM1152 -128q139 0 268.5 49t230 134t170 203.5t92.5 253.5h-118q-203 0 -379.5 -99.5t-280.5 -273.5q-11 -19 -19.5 -37t-13.5 -39t-8.5 -34.5t-4.5 -39t-1.5 -36t0 -41t0.5 -40.5h64z" />
    <glyph glyph-name="gear" unicode="cog" 
d="M672 772q0 -148 103 -252t249 -104t249 104t103 252q0 144 -103.5 248t-248.5 104t-248.5 -104t-103.5 -248zM1024 996q92 0 158 -66.5t66 -157.5q0 -95 -65 -159.5t-159 -64.5t-159 64.5t-65 159.5q0 91 66 157.5t158 66.5zM263 870q-7 -58 -7 -98q0 -48 7 -106
l-162 -147q-33 -30 -40 -74.5t16 -83.5l121 -210q22 -39 64 -55.5t85 -2.5l208 67q85 -64 176 -102l47 -213q10 -44 45 -72.5t80 -28.5h242q45 0 80 28.5t45 72.5l47 213q97 42 176 102l208 -67q43 -14 85 2.5t64 55.5l121 210q23 39 16 83.5t-40 74.5l-162 147q7 58 7 106
q0 40 -7 98l162 147q33 30 40 74.5t-16 83.5l-121 210q-22 39 -64 55.5t-85 2.5l-208 -67q-79 60 -176 102l-47 213q-10 44 -45 72.5t-80 28.5h-242q-45 0 -80 -28.5t-45 -72.5l-47 -213q-91 -38 -176 -102l-208 67q-43 14 -85 -2.5t-64 -55.5l-121 -210q-23 -39 -16 -83.5
t40 -74.5zM634 1275q66 51 146 85l62 26l61 278h242l61 -278l58 -26q81 -32 150 -85l54 -41l272 87l120 -210l-210 -192l8 -66q6 -42 6 -85t-6 -85l-8 -66l210 -192l-120 -210l-272 87l-54 -41q-73 -56 -150 -81l-58 -30l-61 -278h-242l-61 278l-62 30q-75 26 -146 81
l-54 41l-271 -87l-121 210l210 192l-8 66q-6 42 -6 89q0 39 6 81l8 66l-210 192l121 210l271 -87z" />
    <glyph glyph-name="atom" unicode="atom" 
d="M1780 768q96 -126 127 -244q36 -137 -25 -241q-46 -78 -142.5 -118t-229.5 -40q-15 0 -44.5 3t-36.5 4q-75 -182 -179 -285t-226 -103q-124 0 -230.5 105t-174.5 287q-7 -1 -36.5 -4t-44.5 -3q-133 0 -229 40t-143 118q-61 102 -24 241q29 113 126 240q-97 127 -126 240
q-37 139 24 241q53 90 172 128.5t282 24.5q70 182 175.5 286t228.5 104q122 0 227.5 -103.5t176.5 -285.5q162 14 281 -25t173 -129q61 -102 24 -241q-30 -114 -126 -240zM276 353q31 -51 110 -76t192 -19q-35 128 -50 256q-95 73 -173 154q-77 -107 -90 -173
q-23 -86 11 -142zM514 693q0 12 -1 37t-1 38t1 38t1 37q-45 -42 -77 -75q32 -33 77 -75zM528 1022q15 126 50 255q-7 0 -21 1t-20 1q-98 0 -165.5 -25t-95.5 -71q-34 -56 -11 -142q13 -66 90 -173q78 81 173 154zM1375 1124q-4 19 -17.5 69t-17.5 69q-75 -15 -146 -36
q52 -26 78 -40t103 -62zM1024 1664q-72 0 -144.5 -74t-128.5 -206q143 -29 273 -81q130 52 273 81q-56 132 -128.5 206t-144.5 74zM708 1262q-13 -32 -35 -138q77 48 103 62t78 40q-71 21 -146 36zM673 412q13 -64 35 -138q87 17 149 36q-10 5 -37.5 18.5t-42.5 21.5
q-36 20 -104 62zM1024 -128q72 0 145.5 75t128.5 207q-143 29 -274 81q-132 -53 -273 -81q56 -133 128.5 -207.5t144.5 -74.5zM1340 274q25 85 35 138q-68 -42 -104 -62q-14 -8 -41.5 -21t-38.5 -19q58 -18 149 -36zM1400 584q4 39 4 184t-4 184q-104 75 -190 122
q-87 49 -186 91q-101 -42 -185 -95q-94 -52 -190 -122q-9 -83 -9 -180q0 -78 9 -184q104 -75 190 -122q110 -60 185 -90q96 39 186 90q94 52 190 122zM1508 1279q-6 0 -42 -2q37 -135 51 -256q99 -76 173 -153q66 91 89 173q23 87 -10 142q-28 46 -95.5 71t-165.5 25z
M1534 843q2 -50 2 -75q0 -13 -0.5 -38t-0.5 -37q36 33 76 75q-32 33 -77 75zM1772 353q34 56 11 142q-21 77 -90 173q-83 -86 -173 -154q-15 -128 -50 -256q113 -6 192 19t110 76zM1024 864q40 0 68 -28t28 -68t-28 -68t-68 -28t-68 28t-28 68t28 68t68 28z" />
    <glyph glyph-name="triangle-exclamation" unicode="exclamation&#x2d;triangle" 
d="M1024 352q40 0 67.5 -28.5t24.5 -67.5q0 -40 -26.5 -68t-65.5 -28q-37 0 -64.5 28.5t-27.5 67.5q0 40 26.5 68t65.5 28zM1024 512q-26 0 -45 19t-19 45v576q0 26 19.5 45t44.5 19q24 0 42 -19t18 -45v-576q0 -27 -17 -45.5t-43 -18.5zM2017 203q30 -51 30.5 -108.5
t-28.5 -109.5q-30 -53 -81.5 -83t-113.5 -30h-1600q-62 0 -113.5 30t-81.5 83q-29 52 -29 109.5t30 108.5l800 1352q31 52 82 80.5t112 28.5t112.5 -29.5t81.5 -80.5zM1904 52q27 34 3 85l-800 1352q-28 47 -83 47q-56 0 -84 -47l-799 -1352q-26 -43 -1 -89q27 -48 84 -48
h1596q63 0 84 52z" />
    <glyph glyph-name="bolt" unicode="bolt" horiz-adv-x="1536" 
d="M1099 1767l-1064 -947q-35 -32 -35 -77q0 -43 30 -73t73 -30h446l-272 -763q-17 -49 12.5 -91t81.5 -42q37 0 65 25l1064 938q36 31 36 81q0 45 -32.5 76.5t-79.5 31.5h-437l272 763q17 49 -12 91t-81 42q-39 0 -67 -25zM1102 1597l-266 -743q-10 -29 8 -59
q19 -27 52 -27h479l-941 -830l266 744q11 32 -8 59t-52 27h-472z" />
    <glyph glyph-name="venus-double" unicode="venus&#x2d;double" horiz-adv-x="2560" 
d="M1472 1088q0 -180 -85 -335.5t-231.5 -252.5t-323.5 -113v-195h256q26 0 45 -19t19 -45t-19 -45t-45 -19h-256v-256q0 -26 -19 -45t-45 -19t-45 19t-19 45v256h-256q-26 0 -45 19t-19 45t19 45t45 19h256v195q-177 16 -323.5 112.5t-231.5 252.5t-85 336q0 191 94.5 353
t256.5 256.5t353 94.5t353 -94.5t256.5 -256.5t94.5 -353zM768 512q117 0 223.5 45.5t184 123t123 184t45.5 223.5t-45.5 223.5t-123 184t-184 123t-223.5 45.5t-223.5 -45.5t-184 -123t-123 -184t-45.5 -223.5t45.5 -223.5t123 -184t184 -123t223.5 -45.5zM2496 1088
q0 -180 -85 -335.5t-231.5 -252.5t-323.5 -113v-195h256q26 0 45 -19t19 -45t-19 -45t-45 -19h-256v-256q0 -26 -19 -45t-45 -19t-45 19t-19 45v256h-256q-26 0 -45 19t-19 45t19 45t45 19h256v195q-114 11 -218 56q-24 11 -33.5 35.5t0.5 48.5t35.5 34t49.5 -1
q110 -48 230 -48q117 0 223.5 45.5t184 123t123 184t45.5 223.5t-45.5 223.5t-123 184t-184 123t-223.5 45.5q-120 0 -230 -48q-24 -11 -49.5 -1t-35.5 34t-0.5 48.5t33.5 35.5q135 59 282 59q191 0 353 -94.5t256.5 -256.5t94.5 -353z" />
    <glyph glyph-name="mars-double" unicode="mars&#x2d;double" horiz-adv-x="2560" 
d="M1245 1024q163 -195 163 -450q0 -143 -55.5 -273t-150 -224t-225 -149.5t-273.5 -55.5t-273.5 55.5t-225 149.5t-150 224t-55.5 273t55.5 273t150 224t225 149.5t273.5 55.5q254 0 450 -162l420 418h-294q-26 0 -45 19t-19 45t19 45t45 19h448q11 0 24 -5q25 -10 35 -35
q5 -13 5 -24v-447q0 -26 -19 -45t-45 -19t-45 19t-19 45v293zM704 0q156 0 289 77t210 209t77 288q0 117 -45.5 223.5t-123 183.5t-184 122.5t-223.5 45.5t-223.5 -45.5t-184 -122.5t-123 -183.5t-45.5 -223.5q0 -156 77 -288t210 -209t289 -77zM2538 1643q22 -20 22 -47
v-447q0 -26 -19 -45t-45 -19t-45 19t-19 45v302l-423 -422q167 -196 167 -455q0 -143 -56 -273t-150 -224t-224.5 -149.5t-273.5 -55.5q-69 0 -141 14q-26 5 -40.5 27t-9.5 48t27.5 40.5t48.5 9.5q52 -11 115 -11q156 0 289 77t210 209t77 288q0 117 -44.5 223t-128.5 188
q-19 19 -19 45q-5 21 19 45l458 457h-285q-26 0 -45 19t-19 45t19 45t45 19h420q39 15 69 -15l1 -1v-1z" />
    <glyph glyph-name="venus-mars" unicode="venus&#x2d;mars" horiz-adv-x="2560" 
d="M1024 192q26 0 45 -19t19 -45t-19 -45t-45 -19h-256v-256q0 -26 -19 -45t-45 -19t-45 19t-19 45v256h-256q-26 0 -45 19t-19 45t19 45t45 19h256v195q-177 16 -323.5 112.5t-231.5 252.5t-85 336q0 191 94.5 353t256.5 256.5t353 94.5t353 -94.5t256.5 -256.5t94.5 -353
q0 -180 -85 -336t-231.5 -252.5t-323.5 -112.5v-195h256zM704 512q117 0 223.5 45.5t184 123t123 184t45.5 223.5t-45.5 223.5t-123 184t-184 123t-223.5 45.5t-223.5 -45.5t-184 -123t-123 -184t-45.5 -223.5t45.5 -223.5t123 -184t184 -123t223.5 -45.5zM2555 1752
q5 -13 5 -24v-512q0 -26 -19 -45t-45 -19t-45 19t-19 45v357l-291 -291q163 -195 163 -450q0 -191 -94.5 -353t-256.5 -256.5t-353 -94.5q-234 0 -423 141q-21 16 -24.5 42t12.5 47t42 25t47 -12q153 -115 346 -115q117 0 223.5 45.5t184 123t123 184t45.5 223.5
t-45.5 223.5t-123 184t-184 123t-223.5 45.5q-30 0 -58 -3q-26 -2 -46.5 15t-23.5 43q-2 26 15 47t43 23q34 3 70 3q255 0 450 -163l292 291h-358q-26 0 -45 19t-19 45t19 45t45 19h512q12 0 25 -5q24 -9 34 -35z" />
    <glyph glyph-name="mars-and-venus" unicode="mars&#x2d;and&#x2d;venus" 
d="M1979 1752q5 -13 5 -24v-448q0 -26 -19 -45t-45 -19t-45 19t-19 45v293l-264 -263q136 -186 136 -414q0 -180 -85 -336t-231.5 -252.5t-323.5 -112.5v-131h192q26 0 45 -19t19 -45t-19 -45t-45 -19h-192v-128q0 -26 -19 -45t-45 -19t-45 19t-19 45v128h-192q-26 0 -45 19
t-19 45t19 45t45 19h192v131q-177 16 -323.5 112.5t-231.5 252.5t-85 336q0 144 55.5 274.5t149.5 224.5t224.5 149.5t274.5 55.5q138 0 263 -51t221 -143l258 258h-294q-26 0 -45 19t-19 45t19 45t45 19h448q12 0 25 -5q24 -9 34 -35zM1024 320q117 0 223.5 45.5t184 123
t123 184t45.5 223.5t-45.5 223.5t-123 184t-184 123t-223.5 45.5t-223.5 -45.5t-184 -123t-123 -184t-45.5 -223.5t45.5 -223.5t123 -184t184 -123t223.5 -45.5z" />
    <glyph glyph-name="mars-stroke" unicode="mars&#x2d;stroke" 
d="M2043 1752q5 -13 5 -24v-512q0 -26 -19 -45t-45 -19t-45 19t-19 45v357l-294 -293l147 -147q19 -19 19 -45t-19 -45q-18 -19 -45 -19q-26 0 -45 19l-147 147l-163 -164q163 -195 163 -450q0 -143 -55.5 -273.5t-150 -225t-225 -150t-273.5 -55.5t-273.5 55.5t-225 150
t-150 225t-55.5 273.5t55.5 273.5t150 225t225 150t273.5 55.5q255 0 450 -163l164 163l-147 147q-19 19 -19 45t19 45t45 19t45 -19l147 -147l294 294h-358q-26 0 -45 19t-19 45t19 45t45 19h512q12 0 25 -5q24 -9 34 -35zM1408 576q0 117 -45.5 223.5t-123 184t-184 123
t-223.5 45.5t-223.5 -45.5t-184 -123t-123 -184t-45.5 -223.5t45.5 -223.5t123 -184t184 -123t223.5 -45.5t223.5 45.5t184 123t123 184t45.5 223.5z" />
    <glyph glyph-name="transgender" unicode="transgender&#x2d;alt" 
d="M2043 1752q5 -13 5 -24v-448q0 -27 -19 -45.5t-45 -18.5t-45 19t-19 45v293l-337 -337q113 -170 113 -372q0 -128 -47.5 -246t-128.5 -205.5t-193.5 -145t-238.5 -69.5v-134h192q26 0 45 -19t19 -45t-19 -45t-45 -19h-192v-128q0 -26 -19 -45t-45 -19t-45 19t-19 45v128
h-192q-26 0 -45 19t-19 45t19 45t45 19h192v134q-168 16 -307.5 108t-220 239.5t-80.5 318.5q0 202 113 372l-81 82l-51 -51q-18 -19 -45 -19q-26 0 -45 19t-19 45t19 45l51 51l-166 165v-293q0 -26 -19 -45t-45 -19t-45 19t-19 45v448q0 11 5 24q10 25 35 35q13 5 24 5h448
q26 0 45 -19t19 -45t-19 -45t-45 -19h-293l165 -166l51 51q19 19 45 19t45 -19t19 -45t-19 -45l-51 -51l72 -72q94 94 217 147t261 53q137 0 260 -53t217 -147l329 328h-294q-26 0 -45 19t-19 45t19 45t45 19h448q12 0 25 -5q24 -9 34 -35zM1024 320q148 0 273 73t198 198
t73 273t-73 273t-198 198t-273 73t-273 -73t-198 -198t-73 -273t73 -273t198 -198t273 -73z" />
    <glyph glyph-name="mars-stroke-up" unicode="mars&#x2d;stroke&#x2d;up" horiz-adv-x="1536" 
d="M1266 946q135 -135 183 -316.5t0 -363t-183 -316.5t-316.5 -183t-363 0t-316.5 183t-183 316.5t0 363t183 316.5q174 174 430 210v67h-192q-24 0 -42 18.5t-18 42.5q0 25 17 42.5t43 17.5h192v251l-216 -173q-20 -14 -47 -12t-43 22q-17 21 -14 47.5t24 42.5l324 256
q17 14 40 14t40 -14l320 -260q21 -16 24 -42.5t-14 -47.5q-22 -20 -50 -20q-21 0 -40 14l-216 173v-258h192q24 0 42 -18.5t18 -42.5q0 -25 -17 -42.5t-43 -17.5h-192v-67q121 -11 233 -62.5t201 -140.5zM1175 41q109 110 147.5 258.5t0 297t-147.5 258.5
q-110 111 -258.5 150t-296.5 0t-259 -150q-111 -110 -150 -258.5t0 -296.5t150 -259q110 -111 258.5 -150t296.5 0t259 150z" />
    <glyph glyph-name="mars-stroke-right" unicode="mars&#x2d;stroke&#x2d;right" horiz-adv-x="2560" 
d="M2427 792q10 -27 0 -48q-4 -11 -14 -21l-362 -362q-19 -19 -45 -19t-45 19t-19 45t19 45l252 253h-357v-192q0 -26 -19 -45t-45 -19t-45 19t-19 45v192h-195q-11 -121 -62.5 -233t-140.5 -201q-135 -135 -316.5 -183t-363 0t-316.5 183t-183 316.5t0 363t183 316.5
t316.5 183t363 0t316.5 -183q89 -89 140.5 -201t62.5 -233h195v192q0 26 19 45t45 19t45 -19t19 -45v-192h357l-252 253q-19 19 -19 45t19 45t45 19t45 -19l362 -362q10 -10 14 -21zM1239 361q109 110 147.5 258.5t0 297t-147.5 258.5q-110 111 -258.5 150t-296.5 0
t-259 -150q-111 -110 -150 -258.5t0 -296.5t150 -259q110 -111 258.5 -150t296.5 0t259 150z" />
    <glyph glyph-name="coffin" unicode="coffin" horiz-adv-x="1792" 
d="M1611 1341q34 -34 46.5 -80.5t0.5 -93.5l-319 -1283q-15 -62 -64.5 -101t-113.5 -39h-530q-63 0 -113 39t-65 100l-320 1283q-12 47 1 93.5t47 81.5l395 397q54 54 130 54h380q76 0 130 -54zM1215 -86l319 1283q7 32 -15 54l-395 397q-16 16 -39 16h-379q-22 0 -39 -17
l-395 -396q-22 -22 -15 -53l320 -1284q4 -19 19 -30.5t35 -11.5h530q19 0 34.5 11.5t19.5 30.5z" />
    <glyph glyph-name="neuter" unicode="neuter" horiz-adv-x="1536" 
d="M1472 1088q0 -135 -50 -259.5t-135 -217t-203.5 -152.5t-251.5 -72v-579q0 -26 -19 -45t-45 -19t-45 19t-19 45v579q-133 12 -251.5 72t-203.5 152.5t-135 217t-50 259.5q0 143 55.5 273.5t150 225t225 150t273.5 55.5t273.5 -55.5t225 -150t150 -225t55.5 -273.5z
M768 512q117 0 223.5 45.5t184 123t123 184t45.5 223.5t-45.5 223.5t-123 184t-184 123t-223.5 45.5t-223.5 -45.5t-184 -123t-123 -184t-45.5 -223.5t45.5 -223.5t123 -184t184 -123t223.5 -45.5z" />
    <glyph glyph-name="futbol" unicode="futbol&#x2d;ball" 
d="M1020 1792q209 0 399 -82t327 -220.5t217.5 -328.5t80.5 -397q0 -166 -51 -321.5t-145.5 -281t-219.5 -220t-281 -146t-323 -51.5q-209 0 -398.5 81t-326.5 218t-218 326.5t-81 398.5q0 167 51.5 323.5t146 282t220 220.5t281 146.5t321.5 51.5zM337 1011l-76 224
q-105 -171 -127 -367zM423 915l-292 -206q13 -205 114 -382l369 5l99 130l-129 394zM711 880l120 -367h387l119 367l-313 226zM1464 856l-128 -395l97 -129l369 -6q102 178 115 383l-292 206zM1711 1011l203 -143q-22 196 -127 367zM1695 1364q-142 156 -338 235l-269 -201
v-180l334 -238l162 59zM1205 1646q-88 18 -181 18q-92 0 -181 -18l181 -136zM691 1599q-196 -79 -338 -235l111 -328l162 -60l334 242v180zM332 200q142 -173 349 -259l-81 263zM829 -106q94 -22 195 -22q96 0 195 22l112 362l-98 129h-417l-99 -129zM1367 -59
q210 90 349 259l-268 4z" />
    <glyph glyph-name="baseball" unicode="baseball&#x2d;ball" 
d="M1024 1792q209 0 398.5 -81t326.5 -218t218 -326.5t81 -398.5t-81 -398.5t-218 -326.5t-326.5 -218t-398.5 -81t-398.5 81t-326.5 218t-218 326.5t-81 398.5t81 398.5t218 326.5t326.5 218t398.5 81zM1821 605q-26 -2 -47 14.5t-23 42.5t14.5 46.5t42.5 23.5q51 4 110 1
q0 6 1 17.5t1 17.5q0 182 -71 348t-191 286t-286 191t-348 71q-6 0 -17.5 -1t-16.5 -1q2 -20 2 -29q0 -36 -3 -72q-2 -25 -20.5 -42t-43.5 -17h-9q-24 2 -40.5 22.5t-14.5 46.5q3 30 3 62q0 3 -0.5 8t-0.5 8q-274 -50 -472 -248t-248 -472q14 1 41 1t40 1q27 2 47.5 -14
t22.5 -44q2 -26 -15 -47t-43 -23q-38 -3 -75 -3q-11 0 -31 2q0 -5 -1 -16.5t-1 -17.5q0 -182 71 -348t191 -286t286 -191t348 -71q6 0 17.5 1t16.5 1q-2 20 -2 29q0 33 3 68q2 26 22.5 43.5t46.5 15.5t43 -22.5t15 -46.5q-2 -19 -2 -58q0 -2 0.5 -7.5t0.5 -8.5
q181 33 333 134t253 253t134 333q-49 2 -84 -2zM884 1367q22 -12 32 -36.5t-1 -48.5q-93 -202 -278 -332q-61 -42 -123 -71q-14 -6 -27 -6q-41 0 -58 36q-11 24 -2.5 49.5t32.5 36.5q59 28 105 60q154 108 235 281q11 24 36 33t49 -2zM1530 655q24 12 49.5 3t36.5 -33t2 -49
t-33 -36q-58 -28 -101 -59q-155 -109 -236 -284q-17 -37 -58 -37q-16 0 -27 5q-24 11 -33.5 36t1.5 49q93 203 280 335q54 38 119 70z" />
    <glyph glyph-name="cloud-sun" unicode="cloud&#x2d;sun" horiz-adv-x="2560" 
d="M374 500q29 4 51.5 -15t22.5 -48q0 -23 -14.5 -40.5t-37.5 -22.5l-95 -18q-4 -1 -12 -1q-28 0 -46 18q-24 25 -17 58l61 305l-259 173q-28 19 -28 53t28 53l259 172l-60 305q-7 34 17 58q25 25 58 17l304 -60l173 258q18 27 53 27t53 -27l173 -258l304 61q36 7 54 -18
q24 -26 18 -57l-56 -284q-5 -26 -27 -41t-48 -10t-41 27.5t-10 48.5l42 189l-253 -50q-43 -8 -66 28l-143 214l-143 -214q-23 -36 -66 -28l-253 50l50 -253q7 -44 -27 -65l-214 -144l214 -143q36 -23 28 -65l-50 -253h3zM2175 575q161 -12 273 -131.5t112 -283.5
q0 -172 -122 -294t-294 -122h-1216q-172 0 -294 122t-122 294q0 126 70 230t186 152v2q0 130 64.5 240.5t175 175t240.5 64.5q112 0 211.5 -50t167.5 -139q88 61 197 61q135 0 237 -93t114 -228zM2144 -128q119 0 203.5 84t84.5 203t-84.5 203.5t-203.5 84.5q-7 0 -30 -2
q-31 -3 -52 18.5t-17 52.5q3 26 3 31q-4 82 -58 145t-133 74q-115 17 -197 -71q-22 -24 -55 -19.5t-48 33.5q-47 86 -129.5 136.5t-179.5 50.5q-146 0 -249 -103t-103 -249q0 -6 4 -38q3 -23 -10.5 -43t-36.5 -26q-114 -31 -174 -133.5t-29 -219.5q25 -95 106.5 -153.5
t181.5 -58.5h1206zM652 653q-82 47 -130.5 129.5t-48.5 179.5q0 148 105.5 253.5t253.5 105.5q97 0 179 -49t130 -130q-59 -11 -127 -39q-72 90 -182 90q-95 0 -163 -68t-68 -163q0 -54 24 -102t66 -80q-27 -62 -39 -127z" />
    <glyph glyph-name="cloud-rain" unicode="cloud&#x2d;rain" 
d="M1659 1343q163 -11 276 -130.5t113 -284.5q0 -172 -122 -294t-294 -122h-1216q-172 0 -294 122t-122 294q0 126 70.5 230.5t186.5 152.5q-1 11 -1 33q0 185 131.5 316.5t316.5 131.5q109 0 206 -51t160 -140q95 63 210 63q142 0 249 -92t130 -229zM1632 640
q119 0 203.5 84.5t84.5 203.5t-84.5 203.5t-203.5 84.5h-32q-26 0 -45 19t-19 45q0 106 -75 181t-181 75q-105 0 -182 -77q-24 -24 -57 -18q-32 5 -47 36q-39 85 -118 136t-172 51q-132 0 -226 -94t-94 -226q0 -27 7 -64q5 -25 -8.5 -46t-38.5 -28q-95 -25 -155.5 -102.5
t-60.5 -175.5q0 -119 84.5 -203.5t203.5 -84.5h1216zM971 356q18 26 53 26t53 -26q34 -50 68 -104t74 -139.5t40 -133.5q0 -97 -69 -166t-166 -69t-166 69t-69 166q0 48 40 133.5t74 139.5t68 104zM1024 -128q44 0 75.5 31.5t31.5 75.5q0 51 -107 224q-107 -172 -107 -224
q0 -44 31.5 -75.5t75.5 -31.5zM331 356q18 26 53 26t53 -26q34 -50 68 -104t74 -139.5t40 -133.5q0 -97 -69 -166t-166 -69t-166 69t-69 166q0 48 40 133.5t74 139.5t68 104zM384 -128q44 0 75.5 31.5t31.5 75.5q0 51 -107 224q-107 -172 -107 -224q0 -44 31.5 -75.5
t75.5 -31.5zM1611 356q18 26 53 26t53 -26q34 -50 68 -104t74 -139.5t40 -133.5q0 -97 -69 -166t-166 -69t-166 69t-69 166q0 48 40 133.5t74 139.5t68 104zM1664 -128q44 0 75.5 31.5t31.5 75.5q0 51 -107 224q-107 -172 -107 -224q0 -44 31.5 -75.5t75.5 -31.5z" />
    <glyph glyph-name="truck" unicode="truck" horiz-adv-x="2560" 
d="M256 128h-4q0 -159 112.5 -271.5t271.5 -112.5q161 0 272.5 112t111.5 272h516q0 -160 111.5 -272t272.5 -112q159 0 271.5 112.5t112.5 271.5h192q26 0 45 19t19 45t-19 45t-45 19h-64v593q0 71 -46 125l-315 367q-56 67 -146 67h-261v128q0 106 -75 181t-181 75h-1152
q-106 0 -181 -75t-75 -181v-1152q0 -106 75 -181t181 -75zM128 1536q0 53 37.5 90.5t90.5 37.5h1152q53 0 90.5 -37.5t37.5 -90.5v-1280h-534q-39 113 -138.5 184.5t-223.5 71.5t-223 -71.5t-139 -184.5h-22q-53 0 -90.5 37.5t-37.5 90.5v1152zM2284 896h-620v384h261
q30 0 49 -22zM1664 768h640v-512h-22q-39 113 -138.5 184.5t-223.5 71.5q-73 0 -140.5 -26t-115.5 -72v354zM640 384q106 0 181 -75t75 -181t-75 -181t-181 -75t-181 75t-75 181t75 181t181 75zM1920 -128q-106 0 -181 75t-75 181t75 181t181 75t181 -75t75 -181t-75 -181
t-181 -75z" />
    <glyph glyph-name="shield-cross" unicode="shield&#x2d;cross" 
d="M1866 1457q53 -22 85.5 -69.5t32.5 -103.5q0 -168 -26.5 -326.5t-72 -288t-106.5 -247t-130.5 -209t-143 -169.5t-145 -132.5t-136 -93t-115.5 -56.5t-85 -18q-35 0 -86.5 18.5t-116.5 57t-136 93.5t-144.5 133.5t-142.5 170t-130 209.5t-106 247t-71.5 286.5
t-26.5 324.5q0 56 32 103.5t86 69.5l768 320q36 15 74 15t74 -15zM1856 1279q0 44 -40 60l-768 320q-13 5 -24 5q-12 0 -25 -5l-768 -320q-39 -16 -39 -59q0 -145 23 -284t62.5 -255t92.5 -223.5t113 -193t124 -159t125.5 -126.5t117.5 -91t100.5 -56.5t73.5 -19.5
q37 0 98.5 30t139 92t159.5 147.5t160 206t139 257.5t98.5 313t37.5 361zM1536 1088q26 0 45 -19t19 -45t-19 -45t-45 -19h-448v-832q0 -26 -19 -45t-45 -19t-45 19t-19 45v832h-448q-26 0 -45 19t-19 45t19 45t45 19h448v320q0 26 19 45t45 19t45 -19t19 -45v-320h448z" />
    <glyph glyph-name="torii-gate" unicode="torii&#x2d;gate" 
d="M64 640h192v-832q0 -26 19 -45t45 -19t45 19t19 45v832h1280v-832q0 -26 19 -45t45 -19t45 19t19 45v832h192q26 0 45 19t19 45t-19 45t-45 19h-192v320q106 0 181 75t75 181v448l-286 -95q-97 -33 -202 -33h-1076q-102 0 -199 33l-285 95v-448q0 -106 75 -181t181 -75
v-320h-192q-26 0 -45 -19t-19 -45t19 -45t45 -19zM256 1216q-53 0 -90.5 37.5t-37.5 90.5v270l117 -39q117 -39 239 -39h1076q126 0 243 39l117 39v-270q0 -53 -37.5 -90.5t-90.5 -37.5h-1536zM960 1088v-320h-576v320h576zM1664 768h-576v320h576v-320z" />
    <glyph glyph-name="church" unicode="church" horiz-adv-x="2560" 
d="M1344 1600v128q0 26 -19 45t-45 19t-45 -19t-19 -45v-128h-160q-26 0 -45 -19t-19 -45t19 -45t45 -19h160v-158l-462 -308q-53 -36 -83.5 -92.5t-30.5 -120.5v-921h-384q-53 0 -90.5 37.5t-37.5 90.5v280q0 68 58 107l326 211v152l-395 -256q-55 -35 -86 -92t-31 -122
v-280q0 -106 75 -181t181 -75h2048q106 0 181 75t75 181v280q0 64 -32 121t-85 93l-395 256v-152l326 -211q58 -39 58 -107v-280q0 -53 -37.5 -90.5t-90.5 -37.5h-384v921q0 64 -30.5 120.5t-83.5 92.5l-462 308v158h160q26 0 45 19t19 45t-19 45t-45 19h-160zM1792 793
v-921h-256v384q0 106 -75 181t-181 75t-181 -75t-75 -181v-384h-256v921q0 75 57 107l455 303l455 -303q57 -32 57 -107zM1280 384q53 0 90.5 -37.5t37.5 -90.5v-384h-256v384q0 53 37.5 90.5t90.5 37.5z" />
    <glyph glyph-name="mountains" unicode="mountains" horiz-adv-x="2560" 
d="M34 214q-34 -56 -34 -118q0 -91 66 -157.5t158 -66.5h2092q101 0 172.5 71.5t71.5 172.5q0 69 -36 128l-528 865q-26 43 -76 43q-24 0 -45 -12t-31 -31l-193 -316l-504 803q-42 68 -127 68q-35 0 -67 -18.5t-52 -49.5zM1905 146q15 -23 15 -50q0 -40 -28 -68t-68 -28
h-1600q-40 0 -70 28.5t-30 67.5q0 22 19 50l867 1382q5 8 10 8q13 0 18 -8zM1727 672l193 316l495 -811q17 -28 17 -61q0 -46 -35 -81t-81 -35h-290q22 46 22 96q0 62 -34 118z" />
    <glyph glyph-name="person-skiing" unicode="person&#x2d;skiing" 
d="M1692 1344q-90 0 -155 66t-65 158q0 93 63 158.5t157 65.5t157.5 -65.5t63.5 -158.5t-64.5 -158.5t-156.5 -65.5zM1692 1664q-37 0 -64.5 -28.5t-27.5 -67.5t27.5 -67.5t64.5 -28.5t65 28.5t28 67.5q0 40 -27 68t-66 28zM418 1479q-23 12 -31 38t4 49t38 31.5t49 -4.5
l69 -36l36 72q12 24 37 32t49 -4t32 -37t-4 -49l-37 -74l289 -151l239 120q78 38 156 7q80 -31 110 -112l131 -348l237 -124q23 -12 31 -38t-4 -49q-17 -34 -57 -34q-16 0 -30 7l-236 124q-18 3 -33 18l-890 466l-34 -68q-17 -35 -57 -35q-16 0 -29 7q-24 12 -32 37t4 49
l35 69zM1245 1351l-157 -78l326 -171l-80 214q-9 27 -37 38q-24 10 -52 -3zM1043 275q-19 18 -18.5 45t21.5 45l199 199l-281 176q-90 56 -141 148.5t-51 199.5q0 27 17 45.5t43 18.5q24 0 42 -19t18 -45q0 -72 36 -135.5t97 -103.5l349 -219q27 -17 30 -47q3 -31 -18 -52
l-253 -256q-19 -19 -45 -19t-45 19zM2041 -105q12 -24 3.5 -49t-31.5 -37q-129 -65 -275 -65q-154 0 -296 74l-1408 766q-23 13 -31 38t5 48t38.5 31t48.5 -5l1411 -766q105 -57 224 -58t225 52q24 12 49 3.5t37 -32.5z" />
    <glyph glyph-name="ice-skate" unicode="ice&#x2d;skate" horiz-adv-x="2304" 
d="M2240 128q26 0 45 -19t19 -45q0 -133 -93.5 -226.5t-226.5 -93.5h-1920q-25 0 -42.5 21.5t-17.5 46.5t17 42.5t43 17.5h320l4 64q0 27 17 45.5t43 18.5t45 -19t19 -45v-64h1024l4 64q0 27 17 45.5t43 18.5t45 -19t19 -45v-64h320q80 0 136 56t56 136q0 26 19 45t45 19z
M384 128q-106 0 -181 75t-75 181v894q0 59 33 107.5t88 70.5l186 75q333 133 693 133h24v64q0 26 19 45t45 19t45 -19t19 -45v-704l477 -120q128 -32 209.5 -136t81.5 -236v-148q0 -106 -75 -181t-181 -75h-1408zM256 1278v-894q0 -52 38 -90t90 -38h1408q52 0 90 38t38 90
v149q0 88 -54 158t-139 89l-462 116h-305q-25 0 -44.5 21.5t-19.5 46.5q0 24 19 42t45 18h192v128h-192q-25 0 -44.5 21.5t-19.5 46.5q0 24 19 42t45 18h192v256q-361 0 -694 -134l-162 -65q-40 -17 -40 -59z" />
    <glyph glyph-name="campground" unicode="campground" horiz-adv-x="2304" 
d="M1577 1777q-20 17 -46.5 14.5t-43.5 -22.5l-339 -399l-331 399q-17 20 -43.5 22.5t-46.5 -14.5t-22.5 -43.5t14.5 -46.5l349 -417l-895 -1067q-45 -53 -45 -123v-144q0 -80 56 -136t136 -56h1664q80 0 136 56t56 136v144q0 70 -45 123l-895 1067l349 417q17 20 14.5 46.5
t-22.5 43.5zM256 80q0 23 15 41l881 1050l881 -1050q15 -18 15 -41v-144q0 -26 -19 -45t-45 -19h-200l-582 744q-19 24 -50 24t-50 -24l-582 -744h-200q-26 0 -45 19t-19 45v144zM682 -128l470 604l470 -604h-940z" />
    <glyph glyph-name="gas-pump" unicode="gas&#x2d;pump" 
d="M380 1792h4q-106 0 -181 -75t-75 -181v-1664h-64q-26 0 -45 -19t-19 -45t19 -45t45 -19h1280q26 0 45 19t19 45t-19 45t-45 19h-64v768h64q80 0 136 -56t56 -136v-192q0 -106 75 -181t181 -75t181 75t75 181v908q0 111 -83 188l-322 295q-20 18 -46 17t-44 -21t-17 -46
t21 -44l107 -98v-303q0 -106 75 -181t181 -75v-640q0 -53 -37.5 -90.5t-90.5 -37.5t-90.5 37.5t-37.5 90.5v192q0 133 -93.5 226.5t-226.5 93.5h-64v768q0 106 -76 181t-184 75h-640zM1020 1664q55 0 93.5 -37.5t38.5 -90.5v-512h-900v512q0 53 38.5 90.5t89.5 37.5h640z
M1152 896v-1024h-900v1024h900zM1920 1024q-53 0 -90.5 37.5t-37.5 90.5v185l86 -79q42 -39 42 -94v-140z" />
    <glyph glyph-name="scissors" unicode="cut" 
d="M1942 15q20 -17 47 -15t44 22t15 47t-22 44l-608 517q-20 17 -47 14.5t-44 -22.5t-15 -46.5t22 -43.5zM1943 1521l-795 -669l-314 264q62 105 62 228q0 185 -131 316.5t-317 131.5q-185 0 -316.5 -131.5t-131.5 -316.5q0 -186 131.5 -317t316.5 -131q178 0 306 120
l295 -248l-295 -248q-128 120 -306 120q-185 0 -316.5 -131t-131.5 -317t131.5 -317t316.5 -131q186 0 317 131t131 317q0 123 -62 228l1191 1003q20 17 22.5 43.5t-14.5 46.5t-43.5 22.5t-46.5 -14.5zM128 1344q0 133 93.5 226.5t226.5 93.5t226.5 -93.5t93.5 -226.5
t-93.5 -226.5t-226.5 -93.5t-226.5 93.5t-93.5 226.5zM448 -128q-133 0 -226.5 93.5t-93.5 226.5t93.5 226.5t226.5 93.5t226.5 -93.5t93.5 -226.5t-93.5 -226.5t-226.5 -93.5z" />
    <glyph glyph-name="plane-engines" unicode="plane&#x2d;engines" horiz-adv-x="2304" 
d="M2137 531q71 42 119 102.5t48 134.5q0 72 -53 139q-42 51 -114 96q-63 38 -138 61.5t-134 23.5h-387l-44 75q46 17 74 58t28 91v64q0 66 -47 113t-113 47h-164l-114 193q-17 29 -46.5 46t-63.5 17h-305q-48 0 -76.5 -38.5t-15.5 -84.5l172 -581h-219l-154 205
q-38 51 -102 51h-168q-50 0 -85 -35t-35 -85q0 -15 5 -33l85 -301q-40 -12 -65 -45.5t-25 -76.5t25 -76.5t65 -45.5l-85 -301q-5 -18 -5 -29q0 -52 35 -88t85 -36h168q64 0 102 51l154 205h219l-172 -581q-13 -46 15.5 -84.5t76.5 -38.5h305q34 0 63.5 17t46.5 46l114 193
h164q66 0 113 47t47 113v64q0 53 -28 92t-74 57l44 75h387q62 0 135.5 22.5t136.5 60.5zM1360 256h16q14 0 23 -9t9 -23v-64q0 -14 -9 -23t-23 -9h-88zM1408 1312q0 -14 -9 -23t-23 -9h-16l-72 128h88q14 0 23 -9t9 -23v-64zM1441 960h424q42 0 99 -17.5t107 -48.5
q51 -30 80 -67q25 -28 25 -59q0 -63 -105 -127q-50 -30 -107 -47.5t-99 -17.5h-424q-39 0 -55 -31l-398 -673h-262l184 622q8 26 -14 56q-15 26 -48 26h-336q-32 0 -51 -26l-173 -230h-157l123 430q4 18 0 36l-123 430h157l173 -230q19 -26 51 -26h336q33 0 48 26
q22 30 14 56l-184 622h262l398 -673q20 -31 55 -31z" />
    <glyph glyph-name="envelope" unicode="envelope" 
d="M0 1280v-1024q0 -106 75 -181t181 -75h1536q106 0 181 75t75 181v1024q0 106 -75 181t-181 75h-1536q-106 0 -181 -75t-75 -181zM128 1280h-4q0 53 38.5 90.5t89.5 37.5h1540q53 0 90.5 -37.5t37.5 -90.5v-160l-782 -573q-51 -37 -114 -37t-114 37l-782 573v160zM128 962
l707 -518q85 -62 189 -62t189 62l707 518v-706q0 -53 -37.5 -90.5t-90.5 -37.5h-1536q-53 0 -90.5 37.5t-37.5 90.5v706z" />
    <glyph glyph-name="hand-fist" unicode="fist&#x2d;raised" horiz-adv-x="1792" 
d="M1440 1536q93 0 158.5 -65.5t65.5 -158.5v-672q0 -148 -67.5 -278t-188.5 -216v-338q0 -26 -19 -45t-45 -19t-45 19t-19 45v372q0 35 30 54q106 67 166 174.5t60 231.5v150q-46 -22 -96 -22q-94 0 -160 68q-66 -68 -160 -68q-50 0 -100 25q-14 -92 -85.5 -154.5
t-166.5 -62.5h-192q-26 0 -45 19t-19 45t19 45t45 19h192q53 0 90.5 37.5t37.5 90.5t-37.5 90.5t-90.5 37.5h-320q-80 0 -136 -56t-56 -136v-258q0 -93 74 -151l135 -105q1 -1 7 -4.5t9 -5.5t8.5 -6.5t8.5 -9l7 -10.5t5.5 -13.5t1.5 -15.5v-381q0 -26 -19 -45t-45 -19
t-45 19t-19 45v347l-132 103q-59 46 -91.5 112t-32.5 140v258q0 158 128 254v418q0 93 65.5 158.5t158.5 65.5q56 0 108 -29q22 69 80 113t132 44q72 0 131.5 -44t81.5 -113q52 29 107 29q72 0 131.5 -44t81.5 -113q52 29 107 29zM384 1082q31 6 64 6h128v352q0 40 -28 68
t-68 28t-68 -28t-28 -68v-358zM768 1088q66 0 128 -36v516q0 40 -28 68t-68 28t-68 -28t-28 -68v-480h64zM1216 992v448q0 40 -28 68t-68 28t-68 -28t-28 -68v-448q0 -40 28 -68t68 -28t68 28t28 68zM1440 896q40 0 68 28t28 68v320q0 40 -28 68t-68 28t-68 -28t-28 -68
v-320q0 -40 28 -68t68 -28z" />
    <glyph glyph-name="hand" unicode="hand&#x2d;paper" 
d="M1692 1475q95 0 161.5 -66t66.5 -159v-865q0 -130 -51 -248.5t-136.5 -204.5t-204 -137t-248.5 -51h-407q-143 0 -271 66t-210 182l-345 454q-47 62 -47 139q0 93 64 155t154 62q51 0 96.5 -22.5t76.5 -63.5l121 -156v880q0 92 65.5 158t158.5 66q56 0 108 -29
q22 69 80 113t132 44q71 0 129.5 -43.5t80.5 -111.5q51 27 106 27q92 0 157 -61.5t67 -149.5q46 22 96 22zM1788 385v865q0 40 -28 68.5t-68 28.5t-68 -28.5t-28 -68.5v-416q0 -26 -19 -45t-45 -19t-45 19t-19 45v606q0 40 -28 68t-68 28t-68 -28t-28 -68l1 -608
q0 -26 -19.5 -45t-45.5 -19t-44.5 19t-18.5 45l-1 736q0 40 -28 68t-68 28t-68 -28t-28 -68v-127l4 -609q0 -26 -19 -45t-45 -19t-45 19t-19 45l-7 608q0 39 -28 67.5t-65 28.5t-64.5 -28.5t-27.5 -67.5v-928v-4q0 -33 -14 -55.5t-35 -32t-35.5 -13t-24.5 -3.5
q-63 0 -102 51l-140 184q-27 36 -72 36q-36 0 -62.5 -25.5t-26.5 -64.5q0 -33 21 -62l346 -455q66 -92 166 -144t212 -52h403q140 0 258 69t186 187t68 257zM1788 385z" />
    <glyph glyph-name="hand-peace" unicode="hand&#x2d;peace" 
d="M1568 1088q93 0 158.5 -65.5t65.5 -158.5v-512q0 -123 -48.5 -236t-129.5 -194t-194 -129.5t-236 -48.5h-316q-218 0 -393 134l-184 144q-99 77 -99 202v256q0 83 49.5 149.5t128.5 92.5l-289 698q-17 43 -17 86q0 95 66.5 159.5t157.5 64.5q67 0 123.5 -37t83.5 -101
l226 -546l48 542q7 87 72.5 145.5t151.5 58.5q55 0 100 -22.5t70.5 -57.5t39 -72.5t13.5 -71.5l-31 -363q37 11 63 11q74 0 132.5 -44t80.5 -113q52 29 107 29zM1152 992v-384q0 -40 28 -68t68 -28t68 28t28 68v384q0 40 -28 68t-68 28t-68 -28t-28 -68zM896 1577l-66 -754
l13 3q21 5 51 5q66 0 126 -33l4 43v151q0 48 22 94l42 474v8q0 41 -28.5 68.5t-67.5 27.5q-37 0 -65 -25t-31 -62zM199 1469l297 -717l194 41q-6 9 -7 11l-306 738q-11 27 -35.5 43.5t-53.5 16.5q-41 0 -68.5 -28.5t-27.5 -67.5q0 -20 7 -37zM1184 -128q177 0 310.5 115
t161.5 287q-40 -18 -88 -18q-74 0 -132.5 43.5t-80.5 112.5q-50 -28 -107 -28q-79 0 -140 50q-59 -87 -158 -109l-297 -63q-4 -1 -13 -1q-25 0 -44.5 18t-19.5 46q0 23 14.5 40.5t36.5 21.5l296 64q45 10 73 45t28 80q0 56 -39.5 91.5t-89.5 35.5q-17 0 -26 -2l-448 -96
q-44 -10 -72.5 -46t-28.5 -79v-256q0 -63 49 -101l184 -143q141 -108 315 -108h316zM1664 480h-4v384q0 40 -28 68t-68 28q-37 0 -64.5 -28.5t-27.5 -67.5v-384q0 -40 28 -68t68 -28t68 28t28 68zM1664 480z" />
    <glyph glyph-name="pencil" unicode="pencil&#x2d;alt" 
d="M1493 1724l-1251 -1251q-71 -72 -97 -163l-142 -484q-12 -37 16 -63q22 -22 63 -16l484 142q91 26 163 97l1251 1251q66 66 66 159t-66 158l-170 170q-66 65 -158.5 65t-158.5 -65zM1719 1634l171 -171q28 -28 28 -67.5t-28 -68.5l-220 -215l-306 302l219 220
q29 28 68 28t68 -28zM438 182l-51 256l887 886l302 -306l-882 -887zM282 311l39 -195q4 -19 17.5 -33t32.5 -18l196 -39q-14 -7 -37 -14l-371 -110l109 372q7 23 14 37z" />
    <glyph glyph-name="pen-nib" unicode="pen&#x2d;nib" 
d="M1119 1401l-551 -150q-80 -22 -139 -79t-83 -138l-330 -1100q-11 -37 -1.5 -74.5t36.5 -64.5t64.5 -36.5t74.5 1.5l1100 330q80 24 137.5 84t79.5 142l150 547l301 300q75 75 75 181t-75 181l-177 176q-75 75 -181 75t-181 -75zM1242 1344l268 267q38 37 90 37t90 -37
l177 -176q37 -37 37 -90t-37 -91l-267 -268zM1133 1272l395 -395l-144 -531q-14 -48 -48 -84t-82 -50l-993 -297l441 441q59 -36 130 -36q106 0 181 75t75 181t-75 181t-181 75t-181 -75t-75 -181q0 -64 36 -130l-441 -441l297 993q14 48 50 82t84 48zM832 704
q53 0 90.5 -37.5t37.5 -90.5t-37.5 -90.5t-90.5 -37.5t-90.5 37.5t-37.5 90.5t37.5 90.5t90.5 37.5z" />
    <glyph glyph-name="pen-fancy" unicode="pen&#x2d;fancy" 
d="M2048 1462q0 136 -97 233t-233 97q-147 0 -245 -109l-773 -859l-304 -94q-59 -18 -103.5 -61.5t-64.5 -102.5l-216 -648q-16 -48 4.5 -92.5t65 -65t92.5 -4.5l648 220q58 16 102 60t62 104l90 304l863 773q109 97 109 245zM824 770l744 827q61 67 150 67
q83 0 142.5 -59.5t59.5 -142.5q0 -89 -67 -150l-827 -740zM952 462l-92 -285q-14 -62 -78 -83l-513 -172l270 274q1 0 2.5 -2t2.5 -2q40 0 68 28t28 68t-28 68t-68 28t-68 -28t-28 -68v-5l-270 -270l171 513q10 29 32.5 51t51.5 31l285 88z" />
    <glyph glyph-name="check" unicode="check" horiz-adv-x="1792" 
d="M1773 1389q-19 19 -45 19t-45 -19l-1043 -1043l-531 531q-19 19 -45 19t-45 -19t-19 -45t19 -45l576 -576q19 -19 45 -19t45 19l1088 1088q19 19 19 45t-19 45z" />
    <glyph glyph-name="cross" unicode="cross" horiz-adv-x="1536" 
d="M1404 1280q55 0 91.5 -37.5t33.5 -90.5v-256q0 -53 -36.5 -90.5t-88.5 -37.5h-384v-896q0 -53 -36 -90.5t-88 -37.5h-256q-52 0 -90 38t-38 90v896h-384q-52 0 -90 38t-38 90v256q0 52 37 90t87 38h384v384q0 52 39.5 90t92.5 38h256q50 0 87 -38t37 -90v-384h384z
M1408 896v256h-448q-26 0 -45 19t-19 45v448h-256v-448q0 -26 -19 -45t-45 -19h-448v-256h448q26 0 45 -19t19 -45v-960h256v960q0 26 19 45t45 19h448z" />
    <glyph glyph-name="star-of-david" unicode="star&#x2d;of&#x2d;david" 
d="M1742 768l221 -361q44 -73 0 -146t-132 -73h-443l-232 -372q-45 -72 -132 -72t-133 79l-231 373h-442q-43 0 -79 20t-54 51t-20.5 69t20.5 74l220 358l-220 358q-23 36 -20.5 75t20.5 70.5t54 52t79 20.5h442l232 376q45 72 132 72q88 0 132 -76l232 -372h442
q43 0 79 -20.5t54 -52t20.5 -70.5t-20.5 -75zM1830 1216h-363l198 -323l184 298q5 5 0 15q-7 10 -19 10zM1588 768l-276 448h-576l-276 -448l276 -448h576zM1006 1654l-192 -310h420l-192 310q-7 10 -18 10q-12 0 -18 -10zM199 1191l184 -298l198 323h-363q-12 0 -19 -10
q-5 -10 0 -15zM218 320h363l-198 323l-184 -298q-5 -5 0 -15q7 -10 19 -10zM1042 -118l188 310h-416l191 -310q7 -10 19 -10q11 0 18 10zM1850 330q4 8 -1 15l-184 298l-198 -323h363q13 0 20 10z" />
    <glyph glyph-name="sparkles" unicode="sparkles" 
d="M1728 1664q-26 0 -45 -19t-19 -45v-192h-192q-26 0 -45 -19t-19 -45t19 -45t45 -19h192v-192q0 -26 19 -45t45 -19t45 19t19 45v192h192q26 0 45 19t19 45t-19 45t-45 19h-192v192q0 26 -19 45t-45 19zM1728 512q-26 0 -45 -19t-19 -45v-192h-192q-26 0 -45 -19t-19 -45
t19 -45t45 -19h192v-192q0 -26 19 -45t45 -19t45 19t19 45v192h192q26 0 45 19t19 45t-19 45t-45 19h-192v192q0 26 -19 45t-45 19zM493 505l211 -456q16 -37 58 -37t58 37l211 456l456 211q37 16 37 58t-37 58l-456 211l-211 456q-16 37 -58 37t-58 -37l-211 -456
l-456 -211q-37 -16 -37 -58t37 -58zM217 774l330 152q43 20 63 63l152 330l153 -330q20 -44 62 -63l331 -152l-331 -153q-42 -20 -62 -62l-153 -331l-152 331q-19 42 -63 62z" />
    <glyph glyph-name="flower" unicode="flower" 
d="M1846 768q95 -82 148.5 -196t53.5 -243q0 -159 -78.5 -293.5t-213 -213t-293.5 -78.5q-129 0 -243 53.5t-196 148.5q-86 -95 -198.5 -148.5t-240.5 -53.5q-159 0 -293.5 78.5t-213 213t-78.5 293.5q0 129 53.5 243t148.5 196q-95 82 -148.5 196t-53.5 243
q0 159 78.5 293.5t213 213t293.5 78.5q129 0 243 -53.5t196 -148.5q82 95 196 148.5t243 53.5q159 0 293.5 -78.5t213 -213t78.5 -293.5q0 -129 -53.5 -243t-148.5 -196zM1463 -128q189 0 323 134t134 323q0 98 -41.5 186.5t-116.5 156.5l-110 96l110 97q158 138 158 342
q0 189 -134 323t-323 134q-99 0 -187.5 -41t-155.5 -117l-96 -110l-97 110q-138 158 -342 158q-189 0 -323 -134t-134 -323q0 -210 158 -343l110 -96l-110 -97q-158 -133 -158 -342q0 -189 134 -323t323 -134q99 0 187.5 41t155.5 117l96 110l97 -110q133 -158 342 -158z
M1024 1152q159 0 271.5 -113t112.5 -271t-112.5 -271t-271.5 -113t-271.5 112.5t-112.5 271.5t112.5 271.5t271.5 112.5zM1024 512q106 0 181 75t75 181t-75 181t-181 75t-181 -75t-75 -181t75 -181t181 -75z" />
    <glyph glyph-name="snowflake" unicode="snowflake" 
d="M1911 256q14 23 6 48.5t-33 38.5l-254 147l201 54q25 7 38.5 29.5t6.5 48.5q-7 25 -29.5 38.5t-48.5 7.5l-325 -87l-325 187l329 187l324 -86q1 0 7 -1.5t10 -1.5q21 0 38.5 13.5t23.5 34.5q7 25 -6.5 48t-39.5 30l-200 54l254 147q23 13 30 38.5t-7 48.5q-13 23 -39 30
t-48 -7l-254 -146l53 200q7 26 -6.5 49t-38.5 30q-26 6 -48.5 -7.5t-29.5 -38.5l-87 -324l-325 -187v375l237 237q19 19 19 45t-19 45t-45 19t-45 -19l-147 -147v294q0 26 -19 45t-45 19t-45 -19t-19 -45v-294l-147 147q-19 19 -45 19t-45 -19t-19 -45t19 -45l237 -237v-375
l-325 187l-87 324q-7 25 -29.5 38.5t-48.5 7.5q-28 -7 -40 -30t-5 -49l53 -200l-254 146q-23 14 -48.5 7t-38.5 -30q-14 -23 -7 -48.5t30 -38.5l254 -144l-200 -53q-26 -10 -39 -33.5t-6 -48.5q6 -22 23 -35t38 -13q11 0 17 2l324 87l325 -187l-325 -187l-324 87
q-25 6 -48 -8t-30 -38t6.5 -47.5t38.5 -30.5l200 -54l-254 -147q-23 -13 -30 -38.5t7 -48.5q19 -32 55 -32q17 0 32 9l254 146l-53 -200q-7 -26 6.5 -49t38.5 -30q12 -2 17 -2q21 0 38 13.5t23 34.5l87 324l325 187v-375l-237 -237q-19 -19 -19 -45t19 -45t45 -19t45 19
l147 147v-294q0 -26 19 -45t45 -19t45 19t19 45v294l143 -147q18 -19 45 -19q30 0 49 19t19 45t-19 45l-237 237v375l325 -187l87 -324q6 -21 23.5 -34.5t38.5 -13.5q4 0 16 2q25 7 38.5 30t6.5 49l-53 200l254 -146q15 -9 32 -9q36 0 55 32z" />
    <glyph glyph-name="square-xmark" unicode="square&#x2d;xmark" horiz-adv-x="1792" 
d="M595 1069q-19 -19 -19 -45t19 -45l211 -211l-211 -211q-19 -19 -19 -45t19 -45t45 -19t45 19l211 211l211 -211q19 -19 45 -19t45 19t19 45t-19 45l-211 211l211 211q19 19 19 45t-19 45t-45 19t-45 -19l-211 -211l-211 211q-19 19 -45 19t-45 -19zM0 1408v-1280
q0 -106 75 -181t181 -75h1280q106 0 181 75t75 181v1280q0 106 -75 181t-181 75h-1280q-106 0 -181 -75t-75 -181zM128 1408q0 53 37.5 90.5t90.5 37.5h1280q53 0 90.5 -37.5t37.5 -90.5v-1280q0 -53 -37.5 -90.5t-90.5 -37.5h-1280q-53 0 -90.5 37.5t-37.5 90.5v1280z" />
    <glyph glyph-name="square-right" unicode="arrow&#x2d;alt&#x2d;square&#x2d;right" horiz-adv-x="1792" 
d="M1792 128q0 -106 -75 -181t-181 -75h-1280q-106 0 -181 75t-75 181v1280q0 106 75 181t181 75h1280q106 0 181 -75t75 -181v-1280zM256 0h1280q53 0 90.5 37.5t37.5 90.5v1280q0 53 -37.5 90.5t-90.5 37.5h-1280q-53 0 -90.5 -37.5t-37.5 -90.5v-1280q0 -53 37.5 -90.5
t90.5 -37.5zM1425 655l-384 -371q-35 -34 -82 -43.5t-92 8.5q-45 19 -72 59t-27 89v115h-288q-66 0 -113 47t-47 113v192q0 66 47 113t113 47h288v115q0 49 27 89t72 59t92 9.5t82 -44.5l383 -370q46 -46 46 -114t-45 -113zM896 397q0 -22 20.5 -29.5t34.5 7.5l384 371
q7 7 9 18.5t-9 26.5l-384 370q-17 16 -36 7t-19 -29v-243h-416q-14 0 -23 -9t-9 -23v-192q0 -14 9 -23t23 -9h416v-243z" />
    <glyph glyph-name="turn-up" unicode="level&#x2d;up&#x2d;alt" horiz-adv-x="1536" 
d="M1254 1313q38 -41 11 -103q-11 -26 -35 -42t-53 -16h-352v-1088q0 -132 -94 -226t-226 -94h-445q-24 0 -42 19t-18 45t19 45t45 19h448q77 0 132.5 56.5t55.5 135.5v1088h-348q-29 0 -53 16t-35 42t-6.5 54t24.5 49l416 448q29 31 66 31q46 0 74 -31zM425 1280h686
l-343 369z" />
    <glyph glyph-name="turn-down" unicode="level&#x2d;down&#x2d;alt" horiz-adv-x="1536" 
d="M1272 326q12 -26 6.5 -54t-27.5 -49l-416 -448q-29 -31 -71 -31q-37 0 -66 31l-416 448q-20 21 -24.5 49t6.5 54t35 42t53 16h352v1088q0 80 -56 136t-136 56h-448q-26 0 -45 19t-19 45t19 45t45 19h444q135 0 229.5 -94t94.5 -226v-1088h352q29 0 53 -16t35 -42z
M1111 256h-686l343 -369z" />
    <glyph glyph-name="square-left" unicode="arrow&#x2d;alt&#x2d;square&#x2d;left" horiz-adv-x="1792" 
d="M0 1408q0 106 75 181t181 75h1280q106 0 181 -75t75 -181v-1280q0 -106 -75 -181t-181 -75h-1280q-106 0 -181 75t-75 181v1280zM1536 1536h-1280q-53 0 -90.5 -37.5t-37.5 -90.5v-1280q0 -53 37.5 -90.5t90.5 -37.5h1280q53 0 90.5 37.5t37.5 90.5v1280q0 53 -37.5 90.5
t-90.5 37.5zM367 881l384 371q35 34 82 43.5t92 -8.5q45 -19 72 -59t27 -89v-115h288q66 0 113 -47t47 -113v-192q0 -66 -47 -113t-113 -47h-288v-115q0 -49 -27 -89t-72 -59t-92 -9.5t-82 44.5l-383 370q-46 49 -46.5 115.5t45.5 111.5zM896 1139q0 22 -22 30.5t-34 -8.5
l-384 -371q-7 -7 -8.5 -18.5t9.5 -26.5l384 -370q17 -16 36 -7t19 29v243h416q14 0 23 9t9 23v192q0 14 -9 23t-23 9h-416v243z" />
    <glyph glyph-name="square-up" unicode="arrow&#x2d;alt&#x2d;square&#x2d;up" horiz-adv-x="1792" 
d="M1536 1664q106 0 181 -75t75 -181v-1280q0 -106 -75 -181t-181 -75h-1280q-106 0 -181 75t-75 181v1280q0 106 75 181t181 75h1280zM1664 128v1280q0 53 -37.5 90.5t-90.5 37.5h-1280q-53 0 -90.5 -37.5t-37.5 -90.5v-1280q0 -53 37.5 -90.5t90.5 -37.5h1280
q53 0 90.5 37.5t37.5 90.5zM1009 1297l371 -384q34 -35 43.5 -82t-8.5 -92q-19 -45 -59 -72t-89 -27h-115v-288q0 -66 -47 -113t-113 -47h-192q-66 0 -113 47t-47 113v288h-115q-49 0 -89 27t-59 72t-9.5 92t44.5 82l370 383q46 46 114 46t113 -45zM1267 768q22 0 29.5 22
t-8.5 34l-370 384q-7 7 -18.5 8.5t-26.5 -9.5l-370 -383q-17 -15 -7.5 -35.5t29.5 -20.5h243v-416q0 -14 9 -23t23 -9h192q14 0 23 9t9 23v416h243z" />
    <glyph glyph-name="square-down" unicode="arrow&#x2d;alt&#x2d;square&#x2d;down" horiz-adv-x="1792" 
d="M256 -128q-106 0 -181 75t-75 181v1280q0 106 75 181t181 75h1280q106 0 181 -75t75 -181v-1280q0 -106 -75 -181t-181 -75h-1280zM128 1408v-1280q0 -53 37.5 -90.5t90.5 -37.5h1280q53 0 90.5 37.5t37.5 90.5v1280q0 53 -37.5 90.5t-90.5 37.5h-1280q-53 0 -90.5 -37.5
t-37.5 -90.5zM783 239l-371 384q-34 35 -43.5 82t8.5 92q19 45 59 72t89 27h115v288q0 66 47 113t113 47h192q66 0 113 -47t47 -113v-288h115q49 0 89 -27t59 -72t9.5 -92t-44.5 -82l-370 -383q-46 -46 -114 -46t-113 45zM525 768q-23 0 -31 -20.5t9 -34.5l371 -384
q7 -7 18.5 -9t26.5 9l370 384q16 17 7 36t-29 19h-243v416q0 14 -9 23t-23 9h-192q-14 0 -23 -9t-9 -23v-416h-243z" />
    <glyph glyph-name="square-full" unicode="square&#x2d;full" 
d="M2048 1792h-2048v-2048h2048v2048zM1920 1664v-1792h-1792v1792h1792z" />
    <glyph glyph-name="hexagon" unicode="hexagon" 
d="M676 1664q-73 0 -138 -37t-104 -101l-370 -608q-42 -69 -42 -150t42 -150l370 -608q39 -64 104 -101t138 -37h692q75 0 141 37t105 101l370 608q42 69 42 150t-42 150l-370 608q-39 64 -105 101t-141 37h-692zM173 851l370 608q22 36 58 56.5t75 20.5h692q40 0 78 -21
t59 -56l370 -608q23 -36 23 -82t-23 -84l-370 -608q-21 -35 -59 -56t-78 -21h-692q-39 0 -75 20.5t-58 56.5l-370 608q-23 38 -23 84t23 82z" />
    <glyph glyph-name="star" unicode="star" horiz-adv-x="2304" 
d="M1152 48l548 -292q22 -13 50.5 -11.5t50.5 17.5t33 41.5t6 52.5l-106 622l445 441q42 40 24 98q-9 26 -29.5 43.5t-47.5 21.5l-614 91l-274 565q-12 25 -35 39.5t-51 14.5t-51.5 -14.5t-35.5 -39.5l-274 -565l-613 -91q-27 -4 -48 -21.5t-29 -43.5q-18 -58 23 -98
l445 -441l-109 -622q-3 -62 42 -94q22 -16 49 -17.5t49 11.5zM906 1117l246 506l245 -506q11 -28 37 -47t60 -24l550 -81l-400 -395q-47 -46 -36 -113l94 -558l-490 262q-60 32 -121 0l-490 -262l94 558q11 66 -36 113l-399 395l550 81q67 10 96 71z" />
    <glyph glyph-name="right" unicode="arrow&#x2d;alt&#x2d;right" horiz-adv-x="1792" 
d="M128 448q-53 0 -90.5 37.5t-37.5 90.5v384q0 53 37.5 90.5t90.5 37.5h704v320q0 53 36.5 90.5t87.5 37.5q58 0 94 -38l704 -640q38 -38 38 -90q0 -55 -41 -90l-704 -640q-38 -38 -91 -38q-51 0 -87.5 37.5t-36.5 90.5v320h-704zM128 960v-384h832v-444l704 636l-700 636
l-4 -444h-832z" />
    <glyph glyph-name="caravan-simple" unicode="caravan&#x2d;simple" horiz-adv-x="2560" 
d="M1024 1280h-512q-53 0 -90.5 -37.5t-37.5 -90.5v-256q0 -53 37.5 -90.5t90.5 -37.5h512q53 0 90.5 37.5t37.5 90.5v256q0 53 -37.5 90.5t-90.5 37.5zM1024 1152v-256h-512v256h512zM1280 1152v-256q0 -53 37.5 -90.5t90.5 -37.5h256q53 0 90.5 37.5t37.5 90.5v256
q0 53 -37.5 90.5t-90.5 37.5h-256q-53 0 -90.5 -37.5t-37.5 -90.5zM1408 896v256h256v-256h-256zM384 128q0 -160 111.5 -272t272.5 -112q159 0 271.5 112.5t112.5 271.5h1344q26 0 45 19t19 45t-19 45t-45 19h-192v768q0 130 -50.5 248.5t-136.5 204.5t-204.5 136.5
t-248.5 50.5h-1344q-133 0 -226.5 -93.5t-93.5 -226.5v-896q0 -133 93.5 -226.5t226.5 -93.5h64zM128 1344q0 80 56 136t136 56h1344q212 0 362 -150t150 -362v-768h-1046q-39 113 -138.5 184.5t-223.5 71.5t-223.5 -71.5t-138.5 -184.5h-86q-80 0 -136 56t-56 136v896z
M768 384q106 0 181 -75t75 -181t-75 -181t-181 -75t-181 75t-75 181t75 181t181 75z" />
    <glyph glyph-name="cat-space" unicode="cat&#x2d;space" horiz-adv-x="2560" 
d="M2304 1661q119 -90 187.5 -223t68.5 -286q0 -228 -144 -404.5t-368 -222.5v-589q0 -80 -56 -136t-136 -56t-136 56t-56 136v350l-357 -159q96 -12 161.5 -82.5t67.5 -166.5q1 -55 -37.5 -94.5t-93.5 -39.5h-829q-133 0 -226.5 93.5t-93.5 226.5v1024q0 80 -56 136
t-136 56q-27 0 -45.5 18.5t-18.5 45.5t18.5 45.5t45.5 18.5q133 0 226.5 -94t93.5 -226v-513q39 72 91 141.5t134 146t176.5 135t224 100t270.5 49.5v5q0 154 68.5 287t187.5 222v3l2 -1q171 129 382 129q210 0 382 -130l2 2v-3zM1920 1664q-148 0 -275 -82l147 -110h256
l147 110q-127 82 -275 82zM2176 1408l-85 -64h-341l-86 64v-256q0 -106 75 -181t181 -75t181 75t75 181v256zM1916 -64l4 576q-227 0 -404 143.5t-226 366.5q-150 -8 -279 -52.5t-220.5 -111t-164.5 -153t-118 -175t-75 -180t-41.5 -165t-10.5 -132.5q1 -76 57.5 -128.5
t133.5 -52.5h836q0 52 -38 90t-90 38h-192v212q0 72 -44 130t-114 90q-20 11 -30 31.5t-5 42.5q7 30 35 43t56 -1q95 -44 156 -130.5t71 -192.5l489 217q31 14 60.5 -4.5t29.5 -53.5l-4 -448q0 -26 19 -45t45 -19t45 19t19 45zM1920 640q104 0 198.5 40.5t163.5 109.5
t109.5 163.5t40.5 198.5q0 187 -128 335v-335q0 -159 -112.5 -271.5t-271.5 -112.5t-271.5 112.5t-112.5 271.5v335q-128 -148 -128 -335q0 -139 68.5 -257t186.5 -186.5t257 -68.5zM1728 1152q0 28 18 46t46 18q27 0 45.5 -18.5t18.5 -45.5t-18.5 -45.5t-45.5 -18.5
t-45.5 18.5t-18.5 45.5zM2048 1088q-27 0 -45 18q-19 19 -19 46t18.5 45.5t45.5 18.5t45.5 -18.5t18.5 -45.5t-18.5 -45.5t-45.5 -18.5zM704 1472q-26 0 -45 19t-19 45t19 45t45 19h128v128q0 26 18.5 43t45.5 17t45.5 -17t18.5 -43v-128h128q25 0 44.5 -21.5t19.5 -46.5
q0 -24 -19 -42t-45 -18h-128v-128q0 -26 -19 -45t-45 -19t-45 19t-19 45v128h-128z" />
    <glyph glyph-name="coffee-pot" unicode="coffee&#x2d;pot" 
d="M1726 1082q152 -122 237 -296.5t85 -371.5q0 -147 -49.5 -256.5t-149.5 -215.5q-67 -70 -165 -70h-1064q-100 0 -166 71q-100 106 -149 215t-49 256q0 197 86 370.5t237 295.5l-153 456h-106q-80 0 -136 -56t-56 -136v-384q0 -26 -19 -45t-45 -19t-45 19t-19 45v384
q0 133 93.5 226.5t226.5 93.5h1511q33 0 52.5 -26.5t8.5 -57.5zM562 1536l128 -384h925l128 384h-1181zM714 1024q-94 -76 -133 -117q-108 -115 -159 -267h1461q-19 59 -48.5 112.5t-52.5 87t-63.5 74t-56.5 54t-57 46.5q-8 7 -12 10h-879zM1756 30q90 95 127 182t37 202
q0 53 -7 98h-1521q-6 -40 -8 -98q0 -115 37 -202.5t127 -181.5q28 -30 72 -30h1064q44 0 72 30z" />
    <glyph glyph-name="comet" unicode="comet" 
d="M2019 1763q43 -41 25 -98q-131 -424 -236 -670l15 -4q15 -4 24.5 -8t24.5 -12.5t26.5 -22.5t19.5 -33q22 -56 -4 -106q-44 -84 -95 -174.5t-127.5 -215.5t-165 -243t-170.5 -200q-152 -152 -357 -206.5t-409.5 0t-357.5 206.5q-152 152 -206.5 356.5t0 409.5t206.5 357
q82 82 200.5 170.5t243.5 165t215.5 127.5t174.5 95q50 27 105 5q16 -7 28.5 -17.5t20.5 -20t14.5 -22.5t9 -21t5.5 -18t3 -11q235 101 669 236q57 16 98 -25zM1631 914q15 31 41 90t98.5 250.5t134.5 393.5q-217 -67 -401 -135.5t-259 -103.5l-75 -35l-50 172
q-23 -13 -63.5 -35.5t-151.5 -89t-208 -129t-204.5 -142t-169.5 -141.5q-128 -127 -173 -299t0.5 -343.5t172.5 -299.5t299 -173.5t343.5 0t299.5 173.5q62 62 140 167t144.5 211.5t125 203.5t91.5 159l34 61zM887 1097l121 -254l283 -41q39 -7 50 -42q13 -36 -16 -63
l-202 -197l48 -279q6 -36 -24 -60q-31 -23 -65 -4l-250 130l-250 -130q-13 -8 -29 -8q-27 0 -46 22t-14 50l48 279l-202 197q-27 27 -16 63q11 35 49 42l280 41l125 254q19 34 55 34q38 0 55 -34zM986 545l150 150l-213 31l-95 192l-95 -192l-208 -31l154 -150l-36 -212
l189 100l190 -100z" />
    <glyph glyph-name="fan-table" unicode="fan&#x2d;table" horiz-adv-x="1792" 
d="M1792 896q0 -174 -65 -334t-176 -278t-265 -193.5t-326 -87.5v-131h512q26 0 45 -19t19 -45t-19.5 -45t-45.5 -19h-1150q-26 0 -45.5 19t-19.5 45t19 45t45 19h512v131q-172 12 -326 87.5t-265 193.5t-176 278t-65 334q0 182 71 348t191 286t286 191t348 71t348 -71
t286 -191t191 -286t71 -348zM896 138q154 0 294.5 60t242 161.5t161.5 242t60 294.5t-60 294.5t-161.5 242t-242 161.5t-294.5 60t-294.5 -60t-242 -161.5t-161.5 -242t-60 -294.5t60 -294.5t161.5 -242t242 -161.5t294.5 -60zM896 954q24 0 41 -17t17 -41t-17 -41t-41 -17
t-41 17t-17 41t17 41t41 17zM1533 818q0 -76 -57.5 -120t-124.5 -33q-55 9 -133 22t-103 17q-10 -78 -50 -148q-61 -104 -158 -154t-195 -50q-109 0 -203 54q-63 36 -76 107q-14 70 33 127l149 185q-66 50 -104 118q-41 71 -51 152.5t10 156t69.5 140.5t120.5 107
q67 37 133 11.5t91 -91.5l88 -224q94 38 195 28t186 -67q84 -56 132 -146t48 -192zM1374 791q14 0 22.5 8t8.5 19q0 76 -39 142t-106 103t-142.5 34.5t-140.5 -43.5q-27 -18 -59 -8q-29 9 -42 40l-108 288q-15 28 -41 15q-100 -59 -130 -169.5t28 -211.5q39 -68 112 -106
q28 -15 36.5 -44.5t-12.5 -59.5l-196 -238q-8 -11 -5.5 -23.5t12.5 -18.5q65 -38 142 -38q17 0 38 3.5t59.5 15t77 42.5t65.5 78q39 68 36 149q-2 30 18 52t50 22q4 0 158.5 -25.5t157.5 -25.5z" />
    <glyph glyph-name="faucet" unicode="faucet" 
d="M2048 128q0 130 -50.5 248.5t-136.5 204.5t-204.5 136.5t-248.5 50.5h-71q-59 103 -158 170t-219 82v196h512q26 0 45 19t19 45t-19 45t-45 19h-512v128q0 26 -19 45t-45 19t-45 -19t-19 -45v-128h-512q-26 0 -45 -19t-19 -45t19 -45t45 -19h512v-196q-119 -15 -218 -82
t-159 -170h-391q-26 0 -45 -19t-19 -45t19 -45t45 -19h472q40 114 138.5 185t221.5 71t221.5 -71t138.5 -185h152q104 0 198.5 -40.5t163.5 -109.5t109.5 -163.5t40.5 -198.5h-256q0 106 -75 181t-181 75h-152q-40 -114 -138.5 -185t-221.5 -71t-221.5 71t-138.5 185h-472
q-26 0 -45 -19t-19 -45t19 -45t45 -19h391q68 -117 185 -186.5t256 -69.5t256.5 70t184.5 186h77q52 0 87 -38t39 -92q-1 -52 35 -89t89 -37h256q52 0 88.5 37.5t39.5 90.5z" />
    <glyph glyph-name="faucet-drip" unicode="faucet&#x2d;drip" 
d="M1739 228q18 26 53 26t53 -26q139 -202 139 -292q0 -80 -56 -136t-136 -56t-136 56t-56 136q0 90 139 292zM1792 -128q26 0 45 19t19 45q-2 33 -64 137q-62 -105 -64 -137q0 -26 19 -45t45 -19zM1408 1152q174 0 321.5 -86t233 -233.5t85.5 -321.5q0 -52 -37.5 -89.5
t-90.5 -37.5h-256q-53 0 -90 37t-38 89q-1 54 -35.5 92t-86.5 38h-77q-68 -117 -185 -186.5t-256 -69.5t-256 69.5t-185 186.5h-391q-26 0 -45 19t-19 45t19 45t45 19h472q40 -114 138.5 -185t221.5 -71t221.5 71t138.5 185h152q106 0 181 -75t75 -181h256
q0 104 -40.5 198.5t-109.5 163.5t-163.5 109.5t-198.5 40.5h-152q-40 114 -138.5 185t-221.5 71t-221.5 -71t-138.5 -185h-472q-26 0 -45 19t-19 45t19 45t45 19h391q59 103 158 170t219 82v132h-512q-26 0 -45 19t-19 45t19 45t45 19h512v64q0 26 19 45t45 19t45 -19
t19 -45v-64h512q26 0 45 -19t19 -45t-19 -45t-45 -19h-512v-132q119 -15 218 -82t159 -170h71z" />
    <glyph glyph-name="galaxy" unicode="galaxy" 
d="M1020 1024q108 0 182 -74.5t74 -181.5q0 -106 -75 -181t-181 -75t-181 75t-75 181t76 181t180 75zM1020 640q54 0 87.5 37t33.5 91q0 53 -36 90.5t-88 37.5q-50 0 -87.5 -38t-37.5 -90t38.5 -90t89.5 -38zM2026 724q32 -131 18 -267q-7 -72 -64.5 -108.5t-123 -19
t-93.5 84.5q-60 135 -184 203q12 -126 -11 -243q-44 -220 -206 -387.5t-382 -220.5q-97 -22 -188 -22q-57 0 -100.5 13t-66.5 34.5t-35.5 48.5t-9.5 55.5t13.5 54.5t31 47t45.5 32q133 59 203 184q-45 -5 -83 -5q-73 0 -164 16q-220 44 -387.5 206t-219.5 381
q-32 135 -19 268q5 54 42 89t82 42t90.5 -15.5t66.5 -72.5q60 -135 184 -203q-12 123 12 243q44 221 205.5 388.5t381.5 219.5q97 22 188 22q58 0 102 -13t67.5 -34.5t36 -48.5t10 -55.5t-13 -54.5t-31 -47t-45.5 -32q-133 -59 -203 -183q37 4 82 4q84 0 161 -16
q220 -44 388 -206.5t220 -381.5zM1916 470q16 170 -49 323.5t-190 257t-284 135.5q-41 8 -82 11.5t-64.5 2.5t-46.5 -2.5t-25 -1.5q-74 0 -111 63.5t-1 127.5q93 164 265 238q13 6 11 20q-4 16 -17 16q-129 13 -251 -22.5t-216 -107.5t-160 -174.5t-89 -219.5
q-21 -100 -10 -205q8 -78 -57 -120.5t-133 -4.5q-164 91 -239 265q-6 14 -20 11t-16 -17q-12 -111 16 -225q43 -183 182.5 -318.5t321.5 -172.5q41 -8 81.5 -11.5t64.5 -2.5t46.5 3t25.5 2q74 0 111 -63.5t1 -127.5q-91 -163 -265 -238q-10 -5 -8 -21q4 -16 17 -16
q112 -12 226 16q184 43 319 183t172 325q21 101 10 205q-8 77 57 120t132 5q164 -91 239 -265q6 -14 20 -11t16 17z" />
    <glyph glyph-name="garage" unicode="garage" horiz-adv-x="2560" 
d="M1305 1648l1049 -442q36 -15 57 -46t21 -72v-1280q0 -26 19 -45t45 -19t45 19t19 45v1280q0 77 -43 141.5t-114 94.5l-1049 442q-74 31 -148 0l-1049 -442q-71 -30 -114 -94.5t-43 -141.5v-1280q0 -26 19 -45t45 -19t45 19t19 45v1280q0 41 21 72t57 46l1049 442
q25 11 50 0zM384 896v-1088q0 -26 19 -45t45 -19t45 19t19 45v576h1536v-576q0 -26 19 -45t45 -19t45 19t19 45v1088q0 53 -37.5 90.5t-90.5 37.5h-1536q-53 0 -90.5 -37.5t-37.5 -90.5zM512 516v380h1536v-380h-1536zM1472 128h-384q-26 0 -45 -19t-19 -45t19 -45t45 -19
h384q26 0 45 19t19 45t-19 45t-45 19z" />
    <glyph glyph-name="garage-car" unicode="garage&#x2d;car" horiz-adv-x="2560" 
d="M1305 1648l1049 -442q36 -15 57 -46t21 -72v-1280q0 -26 19 -45t45 -19t45 19t19 45v1280q0 77 -43 141.5t-114 94.5l-1049 442q-74 31 -148 0l-1049 -442q-71 -30 -114 -94.5t-43 -141.5v-1280q0 -26 19 -45t45 -19t45 19t19 45v1280q0 41 21 72t57 46l1049 442
q25 11 50 0zM384 896v-1088q0 -26 19 -45t45 -19t45 19t19 45v1088h1536v-1088q0 -26 19 -45t45 -19t45 19t19 45v1088q0 53 -37.5 90.5t-90.5 37.5h-1536q-53 0 -90.5 -37.5t-37.5 -90.5zM1056 128q0 26 -19 45t-45 19t-45 -19t-19 -45t19 -45t45 -19t45 19t19 45z
M1504 128q0 -26 19 -45t45 -19t45 19t19 45t-19 45t-45 19t-45 -19t-19 -45zM1670 635q-20 60 -70.5 98.5t-112.5 38.5h-414q-62 0 -112.5 -38.5t-70.5 -98.5l-82 -254q-47 -31 -75.5 -81t-28.5 -108v-384q0 -26 19 -45t45 -19t45 19t19 45v64h896v-64q0 -26 19 -45t45 -19
t45 19t19 45v384q0 58 -28.5 108t-75.5 81zM954 416l58 180q7 20 24 34t37 14h414q20 0 37 -14t24 -34l58 -180h-652zM832 0v192q0 40 28 68t68 28h704q40 0 68 -28t28 -68v-192h-896z" />
    <glyph glyph-name="garage-open" unicode="garage&#x2d;open" horiz-adv-x="2560" 
d="M206 1206l1049 442q25 11 50 0l1049 -442q36 -15 57 -46t21 -72v-1280q0 -26 19 -45t45 -19t45 19t19 45v1280q0 77 -43 141.5t-114 94.5l-1049 442q-74 31 -148 0l-1049 -442q-71 -30 -114 -94.5t-43 -141.5v-1280q0 -26 19 -45t45 -19t45 19t19 45v1280q0 41 21 72
t57 46zM2048 1024h-1536q-53 0 -90.5 -37.5t-37.5 -90.5v-1088q0 -26 19 -45t45 -19t45 19t19 45v832h1536v-832q0 -26 19 -45t45 -19t45 19t19 45v1088q0 53 -37.5 90.5t-90.5 37.5zM2048 768h-1536v128h1536v-128zM928 128q0 -26 19 -45t45 -19t45 19t19 45t-19 45t-45 19
t-45 -19t-19 -45zM1632 128q0 26 -19 45t-45 19t-45 -19t-19 -45t19 -45t45 -19t45 19t19 45zM985 512h-135l-42 -131q-47 -31 -75.5 -81t-28.5 -108v-384q0 -26 19 -45t45 -19t45 19t19 45v64h896v-64q0 -26 19 -45t45 -19t45 19t19 45v384q0 58 -28.5 108t-75.5 81
l-42 131h-135l31 -96h-652zM1632 288q40 0 68 -28t28 -68v-192h-896v192q0 40 28 68t68 28h704z" />
    <glyph glyph-name="heat" unicode="heat" horiz-adv-x="1792" 
d="M768 1178q0 -252 183 -461q97 -111 149 -249t52 -285v-247q0 -27 -18.5 -45.5t-45.5 -18.5t-45.5 18.5t-18.5 45.5v251q0 252 -183 461q-97 111 -149 249.5t-52 285.5v417q0 27 18.5 45.5t45.5 18.5t45.5 -18.5t18.5 -45.5v-422zM256 1262q0 -276 183 -524
q201 -274 201 -610v-192q0 -27 -18.5 -45.5t-45.5 -18.5t-45.5 18.5t-18.5 45.5v210q0 276 -183 524q-201 274 -201 610v64q0 27 18.5 45.5t45.5 18.5t45.5 -18.5t18.5 -45.5v-82zM1463 738q201 -274 201 -610v-192q0 -27 -18.5 -45.5t-45.5 -18.5t-45.5 18.5t-18.5 45.5
v210q0 275 -183 528q-201 274 -201 610v60q0 27 18.5 45.5t45.5 18.5t45.5 -18.5t18.5 -45.5v-82q0 -278 183 -524z" />
    <glyph glyph-name="house-chimney-window" unicode="house&#x2d;chimney&#x2d;window" horiz-adv-x="2304" 
d="M1344 1024h-388q-51 0 -89.5 -37.5t-38.5 -90.5v-384q0 -53 38.5 -90.5t89.5 -37.5h388q53 0 90.5 37.5t37.5 90.5v384q0 53 -37.5 90.5t-90.5 37.5zM956 512v384h388v-384h-388zM1110 1776l-1088 -960q-20 -17 -21.5 -42.5t15.5 -47.5q18 -20 43.5 -21t46.5 19l150 132
v-792q0 -133 93.5 -226.5t226.5 -93.5h1152q133 0 226.5 93.5t93.5 226.5v792l150 -132q20 -20 45.5 -19t40.5 21q20 23 19 47.5t-21 42.5l-234 207v545q0 40 -28.5 70t-67.5 30h-320q-39 0 -67.5 -30t-28.5 -70v-93l-342 301q-18 16 -42 16t-42 -16zM1920 1536v-400
l-256 226v174h256zM384 965l768 678l768 -678v-901q0 -80 -56 -136t-136 -56h-1152q-80 0 -136 56t-56 136v901z" />
    <glyph glyph-name="house-day" unicode="house&#x2d;day" horiz-adv-x="2560" 
d="M768 1536v192q0 26 -19 45t-45 19t-45 -19t-19 -45v-192q0 -26 19 -45t45 -19t45 19t19 45zM256 1152h-192q-26 0 -45 -19t-19 -45t19 -45t45 -19h192q26 0 45 19t19 45t-19 45t-45 19zM1107 1581l-128 -128q-19 -19 -19 -45t19 -45t45 -19t45 19l128 128q19 19 19 45
t-19 45t-45 19t-45 -19zM1344 576v-256q0 -53 37.5 -90.5t90.5 -37.5h256q53 0 90.5 37.5t37.5 90.5v256q0 53 -37.5 90.5t-90.5 37.5h-256q-53 0 -90.5 -37.5t-37.5 -90.5zM1728 576v-256h-256v256h256zM2538 624l-896 769q-18 16 -42 16t-42 -16l-896 -769
q-22 -18 -22 -48q-5 -17 16 -42q17 -20 43.5 -21.5t46.5 15.5l150 128v-656q0 -106 75 -181t181 -75h896q106 0 181 75t75 181v656l150 -128q20 -17 46.5 -15.5t43.5 21.5q16 19 16 42q-8 37 -22 48zM2176 766v-766q0 -53 -37.5 -90.5t-90.5 -37.5h-896q-53 0 -90.5 37.5
t-37.5 90.5v766l576 494zM661 967q-38 14 -61.5 46.5t-23.5 74.5q0 53 37.5 90.5t90.5 37.5q42 0 74.5 -23.5t46.5 -61.5q9 -25 32.5 -36.5t48.5 -2.5t37 33.5t3 47.5q-27 76 -93 123.5t-149 47.5q-106 0 -181 -75t-75 -181q0 -83 47.5 -149t123.5 -93q23 -9 47.5 3t33.5 37
t-2.5 48.5t-36.5 32.5zM301 595l128 128q19 19 19 45t-19 45t-45 19t-45 -19l-128 -128q-19 -19 -19 -45t19 -45t45 -19t45 19zM211 1581q-19 -19 -19 -45t19 -45l128 -128q19 -19 45 -19t45 19t19 45t-19 45l-128 128q-19 19 -45 19t-45 -19z" />
    <glyph glyph-name="house-person-leave" unicode="house&#x2d;person&#x2d;depart" horiz-adv-x="2560" 
d="M1363 1363q-18 -18 -44.5 -19t-50.5 16l-315 283l-573 -505l4 -818q-3 -26 15 -45t45 -19h708q26 0 45 -19t19 -45t-19 -45t-45 -19h-704q-77 0 -132.5 56.5t-55.5 135.5v707l-150 -132q-20 -17 -46.5 -15.5t-43.5 21.5q-18 20 -16 46.5t22 44.5l892 784q18 16 42 16
t42 -16l358 -320q20 -18 21 -45.5t-18 -47.5zM725 1152h341q35 0 60.5 -25t25.5 -61v-341q0 -36 -25 -60.5t-61 -24.5h-341q-35 0 -60 25t-25 60v341q0 36 24.5 61t60.5 25zM1020 768v256h-256v-256h256zM1750 384q25 -12 36 -36.5t2 -49.5l-93 -253q-6 -14 -18 -25
l-290 -260q-17 -16 -43 -16q-30 0 -48 25q-18 20 -16.5 46t21.5 44l279 249l88 238q9 25 33 36t49 2zM2534 691q21 -16 24.5 -42t-14.5 -47q-20 -26 -52 -26q-6 0 -20 5.5t-22 7.5l-252 192q-26 19 -26 51v154q0 47 -31.5 83t-78.5 43l-148 22l-88 -351q-14 -54 4 -107.5
t61 -88.5l317 -257q52 -43 66 -107l89 -401q6 -26 -8.5 -48t-40.5 -28q-10 -2 -14 -2q-20 0 -37.5 14t-24.5 36l-89 401q-5 22 -22 36l-316 257q-72 59 -101.5 147.5t-7.5 178.5l80 322q-40 -8 -61 -16l-107 -43q-91 -37 -115 -131l-33 -129q-7 -26 -29.5 -39.5t-47.5 -7.5
q-26 7 -40 30t-7 48l33 129q19 74 69.5 132.5t121.5 86.5l107 43q109 44 222 27l186 -27q94 -14 156.5 -86t62.5 -167v-122zM2140 1344q-90 0 -155 65.5t-65 158.5q0 94 63 159t157 65q95 0 159.5 -65t64.5 -159q0 -93 -65.5 -158.5t-158.5 -65.5zM2140 1664
q-37 0 -66.5 -28.5t-29.5 -67.5q0 -40 28 -68t68 -28t68 28t28 68t-28 68t-68 28z" />
    <glyph glyph-name="house-night" unicode="house&#x2d;night" horiz-adv-x="2560" 
d="M508 1788q-27 4 -60 4q-185 0 -316.5 -131.5t-131.5 -316.5q0 -186 131.5 -317t316.5 -131q183 0 314 129l4 4l4 4q16 16 33 38q18 24 26 37q12 18 -3.5 35.5t-37.5 12.5q-4 -1 -9 -1.5t-11.5 -1t-9.5 -0.5q-4 0 -11 -0.5t-11 -0.5q-17 0 -26 1q-1 0 -2.5 0.5t-2.5 0.5
q-109 11 -183 93t-74 193q0 124 92 211l3 3q12 11 38 29q2 1 11.5 7t14.5 8q20 10 22.5 32t-17.5 31t-44 15q-18 5 -49 10q-8 2 -11 2zM320 1440q0 -130 72.5 -235.5t189.5 -151.5q-63 -29 -134 -29q-133 0 -226.5 93.5t-93.5 226.5q0 115 71.5 202.5t181.5 110.5
q-61 -99 -61 -217zM1344 576v-256q0 -53 37.5 -90.5t90.5 -37.5h256q53 0 90.5 37.5t37.5 90.5v256q0 53 -37.5 90.5t-90.5 37.5h-256q-53 0 -90.5 -37.5t-37.5 -90.5zM1728 576v-256h-256v256h256zM2538 624l-896 769q-18 16 -42 16t-42 -16l-896 -769q-20 -17 -21.5 -43.5
t15.5 -46.5t43.5 -21.5t46.5 15.5l150 128v-656q0 -106 75 -181t181 -75h896q106 0 181 75t75 181v656l150 -128q20 -17 47 -15.5t44 21.5t15 46.5t-22 43.5zM2176 766v-766q0 -53 -37.5 -90.5t-90.5 -37.5h-896q-53 0 -90.5 37.5t-37.5 90.5v766l576 494zM1024 1792
q-26 0 -45 -19t-19 -45v-128h-128q-26 0 -45 -19t-19 -45t19 -45t45 -19h128v-128q0 -26 19 -45t45 -19t45 19t19 45v128h128q26 0 45 19t19 45t-19 45t-45 19h-128v128q0 26 -19 45t-45 19zM384 512q-26 0 -45 -19t-19 -45v-128h-128q-26 0 -45 -19t-19 -45t19 -45t45 -19
h128v-128q0 -26 19 -45t45 -19t45 19t19 45v128h128q26 0 45 19t19 45t-19 45t-45 19h-128v128q0 26 -19 45t-45 19z" />
    <glyph glyph-name="house-person-return" unicode="house&#x2d;person&#x2d;arrive" horiz-adv-x="2560" 
d="M726 1152h341q35 0 60 -25t25 -61v-341q0 -36 -25 -60.5t-60 -24.5h-341q-35 0 -60.5 25t-25.5 60v341q0 35 25 60.5t61 25.5zM1020 768v256h-256v-256h256zM1363 1363q-18 -18 -44 -19t-48 16l-315 283l-572 -505v-818q-3 -26 15 -45t45 -19h708q26 0 45 -19t19 -45
t-19 -45t-45 -19h-704q-80 0 -136 56t-56 136v707l-150 -132q-20 -17 -46.5 -15.5t-43.5 21.5q-18 20 -16 46.5t22 44.5l896 784q18 16 42 16t42 -16l358 -320q20 -18 21 -45.5t-18 -47.5zM1696 1344q-93 0 -158.5 65.5t-65.5 158.5t65.5 158.5t158.5 65.5t158.5 -65.5
t65.5 -158.5t-65.5 -158.5t-158.5 -65.5zM1696 1664q-40 0 -68 -28t-28 -68t28 -68t68 -28t68 28t28 68t-28 68t-68 28zM2538 -144q20 -18 21 -44t-19 -47t-48 -21q-22 0 -39 16l-291 259q-10 9 -17 26l-93 253q-9 25 2 49t36 33t49 -2t33 -36l87 -238zM2135 814
q22 -90 -7.5 -178.5t-101.5 -147.5l-317 -257q-17 -14 -22 -36l-89 -401q-5 -22 -22.5 -36t-39.5 -14q-9 0 -14 1q-26 6 -40.5 28.5t-8.5 48.5l89 401q14 65 67 107l316 257q43 35 61 88.5t4 107.5l-87 351l-149 -22q-47 -7 -78.5 -43t-31.5 -83v-154q0 -34 -29 -51
l-253 -192q-17 -13 -38 -13q-33 0 -51 26q-16 21 -12 47t25 42l230 173v121q0 95 63 167.5t157 86.5l185 26q115 17 222 -26l107 -43q71 -28 122 -87t70 -133l32 -129q7 -25 -7 -47.5t-40 -29.5q-26 -6 -48 7.5t-29 38.5l-32 129q-11 45 -41.5 80t-73.5 52l-107 43
q-20 8 -62 16z" />
    <glyph glyph-name="house-signal" unicode="house&#x2d;signal" horiz-adv-x="2304" 
d="M1302 1777l-896 -769q-18 -12 -21.5 -36.5t8.5 -43.5q65 -16 84 -25q8 4 13 9l150 128v-208q69 -37 128 -80v398l576 494l576 -494v-766q0 -53 -37.5 -90.5t-90.5 -37.5h-646q27 -71 40 -128h606q106 0 181 75t75 181v656l150 -128q20 -17 46.5 -15.5t43.5 21.5
t15.5 46.5t-21.5 43.5l-896 769q-18 16 -42 16t-42 -16zM1472 1088h-256q-53 0 -90.5 -37.5t-37.5 -90.5v-256q0 -53 37.5 -90.5t90.5 -37.5h256q53 0 90.5 37.5t37.5 90.5v256q0 53 -37.5 90.5t-90.5 37.5zM1216 704v256h256v-256h-256zM1024 -192q0 195 -76 373
t-204.5 306.5t-306.5 204.5t-373 76q-26 0 -45 -19t-19 -45t19 -45t45 -19q169 0 323.5 -66t265.5 -177t177 -265.5t66 -323.5q0 -26 19 -45t45 -19t45 19t19 45zM0 -128q0 -53 37.5 -90.5t90.5 -37.5t90.5 37.5t37.5 90.5t-37.5 90.5t-90.5 37.5t-90.5 -37.5t-37.5 -90.5z
M0 320q0 -26 19 -45t45 -19q185 0 316.5 -131t131.5 -317q0 -26 19 -45t45 -19t45 19t19 45q0 117 -45.5 223.5t-123 184t-184 123t-223.5 45.5q-26 0 -45 -19t-19 -45z" />
    <glyph glyph-name="lamp-desk" unicode="lamp&#x2d;desk" 
d="M2048 1465q0 -29 -20 -49l-242 -240q70 -81 70 -184q0 -119 -84.5 -203.5t-203.5 -84.5q-101 0 -187 70l-241 -241q-20 -20 -49 -20t-50 20.5t-21 49.5l4 500l-53 53l-391 -387l249 -859q2 -8 2 -13v-5h641q26 0 45 -19t19 -45t-19.5 -45t-45.5 -19h-1406q-26 0 -45.5 19
t-19.5 45t19 45t45 19h637l-254 878q-3 9 -3 18q0 22 23 45l413 414l-19 19q-93 93 -93 226q0 135 95 227.5t225 92.5q133 0 226 -93l162 -163h502q29 0 49.5 -21.5t20.5 -49.5zM1568 832q66 0 113 47t47 113q0 50 -32 93l-222 -222q42 -31 94 -31zM1152 722l686 686h-414
l-200 200q-56 55 -135 55q-81 0 -136.5 -57t-55.5 -135q0 -77 55 -135l200 -200v-414z" />
    <glyph glyph-name="lamp-floor" unicode="lamp&#x2d;floor" horiz-adv-x="1536" 
d="M1526 1074q26 -62 -11 -120q-39 -58 -107 -58h-576v-1024h384q26 0 45 -19t19 -45t-19.5 -45t-45.5 -19h-894q-26 0 -45.5 19t-19.5 45t19 45t45 19h384v1024h-576q-68 0 -107 58q-38 57 -11 120l275 640q15 36 46.5 57t70.5 21h732q39 0 70.5 -21t46.5 -57zM128 1028
l1280 -4l-275 640h-731z" />
    <glyph glyph-name="light-ceiling" unicode="light&#x2d;ceiling" 
d="M1088 1149q242 -15 450 -133t341.5 -311.5t167.5 -427.5q8 -58 -31 -101.5t-98 -43.5h-1788q-60 0 -98.5 43.5t-30.5 102.5q35 234 169 428t341 311t449 132v579q0 26 19 45t45 19t45 -19t19 -45v-579zM127 256h1791q-23 161 -103 304t-198.5 244.5t-273 160.5t-319.5 59
q-221 0 -415.5 -100t-322.5 -276t-159 -392zM1296 62q26 -7 39.5 -30t6.5 -48q-29 -106 -117.5 -173t-200.5 -67t-200.5 67t-117.5 173q-7 25 6.5 48t39.5 30q25 7 48 -6.5t30 -39.5q17 -64 71 -104t123 -40t123.5 40t70.5 104q7 26 30 39.5t48 6.5z" />
    <glyph glyph-name="light-switch" unicode="light&#x2d;switch" horiz-adv-x="1536" 
d="M960 1412q78 0 135 -57t57 -132v-896q0 -79 -56 -135.5t-136 -56.5h-384q-80 0 -136 56.5t-56 135.5v896q0 77 56.5 133t135.5 56h384zM1024 320v384h-512v-384q0 -26 19 -45t45 -19h384q26 0 45 19t19 45zM1024 832v384q0 26 -19 45t-45 19h-384q-26 0 -45 -19t-19 -45
v-384h512zM1280 1792q106 0 181 -75t75 -181v-1536q0 -106 -75 -181t-181 -75h-1024q-106 0 -181 75t-75 181v1536q0 106 75 181t181 75h1024zM1408 0v1536q0 52 -38 90t-90 38h-448v-64q0 -26 -19 -45t-45 -19t-45 19t-19 45v64h-448q-52 0 -90 -38t-38 -90v-1536
q0 -52 38 -90t90 -38h448v64q0 26 19 45t45 19t45 -19t19 -45v-64h448q52 0 90 38t38 90z" />
    <glyph glyph-name="light-switch-off" unicode="light&#x2d;switch&#x2d;off" horiz-adv-x="1536" 
d="M1280 1792q106 0 181 -75t75 -181v-1536q0 -106 -75 -181t-181 -75h-1024q-106 0 -181 75t-75 181v1536q0 106 75 181t181 75h1024zM1408 0v1536q0 52 -38 90t-90 38h-448v-64q0 -26 -19 -45t-45 -19t-45 19t-19 45v64h-448q-52 0 -90 -38t-38 -90v-1536q0 -52 38 -90
t90 -38h448v64q0 26 19 45t45 19t45 -19t19 -45v-64h448q52 0 90 38t38 90zM960 1412q78 0 135 -57t57 -132v-896q0 -79 -56 -135.5t-136 -56.5h-384q-80 0 -136 56.5t-56 135.5v896q0 77 56.5 133t135.5 56h384zM1024 320v384h-512v-384q0 -26 19 -45t45 -19h384
q26 0 45 19t19 45zM1024 832v384q0 26 -19 45t-45 19h-384q-26 0 -45 -19t-19 -45v-384h512zM704 384q-26 0 -45 19t-19 45t19 45t45 19h128q26 0 45 -19t19 -45t-19 -45t-45 -19h-128z" />
    <glyph glyph-name="light-switch-on" unicode="light&#x2d;switch&#x2d;on" horiz-adv-x="1536" 
d="M256 -252q-106 0 -181 74t-75 182v1536q0 106 75 181t181 75h1024q106 0 181 -75t75 -181v-1536q0 -106 -75 -181t-181 -75h-1024zM128 1536v-1536q0 -52 38 -90t90 -38h448v64q0 26 19 45t45 19t45 -19t19 -45v-64h448q52 0 90 38t38 90v1536q0 52 -38 90t-90 38h-448
v-64q0 -26 -19 -45t-45 -19t-45 19t-19 45v64h-448q-52 0 -90 -38t-38 -90zM576 132q-80 0 -136 55.5t-56 139.5v893q0 80 56 136t136 56h384q80 0 136 -56t56 -136v-896q0 -80 -56 -136t-136 -56h-384zM512 1216v-384h512v384q0 26 -19 45t-45 19h-384q-26 0 -45 -19
t-19 -45zM512 704v-384q0 -26 19 -45t45 -19h384q26 0 45 19t19 45v384h-512zM832 1152q26 0 45 -19t19 -45t-19 -45t-45 -19h-128q-26 0 -45 19t-19 45t19 45t45 19h128z" />
    <glyph glyph-name="microwave" unicode="microwave" horiz-adv-x="2304" 
d="M1856 1280v-896q0 -26 19 -45t45 -19t45 19t19 45v896q0 26 -19 45t-45 19t-45 -19t-19 -45zM384 1184v-704q0 -40 28 -68t68 -28h1088q40 0 68 28t28 68v704q0 40 -28 68t-68 28h-1088q-40 0 -68 -28t-28 -68zM1536 512h-1024v640h1024v-640zM384 0h1536v-64
q0 -26 19 -45t45 -19t45 19t19 45v64q106 0 181 75t75 181v1152q0 106 -75 181t-181 75h-1792q-106 0 -181 -75t-75 -181v-1152q0 -106 75 -181t181 -75v-64q0 -26 19 -45t45 -19t45 19t19 45v64zM2048 1536q53 0 90.5 -37.5t37.5 -90.5v-1152q0 -53 -37.5 -90.5
t-90.5 -37.5h-1792q-53 0 -90.5 37.5t-37.5 90.5v1152q0 53 37.5 90.5t90.5 37.5h1792z" />
    <glyph glyph-name="outlet" unicode="outlet" horiz-adv-x="1792" 
d="M1536 1668q105 0 180.5 -76t75.5 -177v-1280q0 -106 -75 -181t-181 -75h-1280q-106 0 -181 75t-75 181v1280q0 104 75 178.5t181 74.5h1280zM1664 128v1280q0 53 -37.5 90.5t-90.5 37.5h-1280q-53 0 -90.5 -37.5t-37.5 -90.5v-1280q0 -53 37.5 -90.5t90.5 -37.5h1280
q53 0 90.5 37.5t37.5 90.5zM896 640q40 0 68 -28t28 -68v-96h-192v96q0 40 28 68t68 28zM704 1024q26 0 45 -19t19 -45v-192q0 -26 -19 -45t-45 -19t-45 19t-19 45v192q0 26 19 45t45 19zM1088 1024q26 0 45 -19t19 -45v-192q0 -26 -19 -45t-45 -19t-45 19t-19 45v192
q0 26 19 45t45 19zM1277 1280q30 0 53 -18q97 -96 151.5 -222.5t54.5 -267.5q0 -144 -54.5 -271t-151.5 -220q-22 -21 -54 -21h-760q-32 0 -54 21q-97 96 -151.5 223t-54.5 268q0 139 54.5 264.5t151.5 221.5q22 22 53 22h761h1zM1255 388q74 75 113.5 173.5t39.5 206.5
q0 224 -153 380h-718q-74 -75 -113.5 -173.5t-39.5 -206.5q0 -106 39.5 -205.5t113.5 -174.5h718z" />
    <glyph glyph-name="oven" unicode="oven" horiz-adv-x="1792" 
d="M1408 1792q159 0 271.5 -112.5t112.5 -271.5v-1408q0 -106 -75 -181t-181 -75h-1280q-106 0 -181 75t-75 181v1408q0 159 112.5 271.5t271.5 112.5h1024zM1664 0v1024h-1536v-1024q0 -53 37.5 -90.5t90.5 -37.5h1280q53 0 90.5 37.5t37.5 90.5zM1664 1152v256
q0 106 -75 181t-181 75h-1024q-106 0 -181 -75t-75 -181v-256h1536zM384 0q-53 0 -90.5 37.5t-37.5 90.5v640q0 53 37.5 90.5t90.5 37.5h1024q53 0 90.5 -37.5t37.5 -90.5v-640q0 -53 -37.5 -90.5t-90.5 -37.5h-1024zM384 768v-640h1024v640h-1024zM1216 640q26 0 45 -19
t19 -45t-19 -45t-45 -19h-640q-26 0 -45 19t-19 45t19 45t45 19h640zM320 1408q26 0 45 -19t19 -45t-19 -45t-45 -19t-45 19t-19 45t19 45t45 19zM704 1408q26 0 45 -19t19 -45t-19 -45t-45 -19t-45 19t-19 45t19 45t45 19zM1088 1408q26 0 45 -19t19 -45t-19 -45t-45 -19
t-45 19t-19 45t19 45t45 19zM1472 1408q26 0 45 -19t19 -45t-19 -45t-45 -19t-45 19t-19 45t19 45t45 19z" />
    <glyph glyph-name="planet-moon" unicode="planet&#x2d;moon" horiz-adv-x="2304" 
d="M896 1536q182 0 348 -71t286 -191t191 -286t71 -348t-71 -348t-191 -286t-286 -191t-348 -71t-348 71t-286 191t-191 286t-71 348t71 348t191 286t286 191t348 71zM220 980q-18 -40 5.5 -78t69.5 -38h100q66 0 113 -47l228 -227v-142q0 -40 28 -68t68 -28h32v-220
q0 -13 9 -22.5t23 -10.5q6 1 43 6q42 8 60 44l161 259q24 48 24 100v68q0 40 -28 68t-68 28h-258q-72 0 -124 49q-47 43 -47.5 113t42.5 118l192 221q35 55 35 121q0 35 -24.5 58t-71.5 24q-200 0 -365 -107.5t-247 -288.5zM896 -128q209 0 385.5 103t279.5 279.5t103 385.5
q0 186 -83.5 348.5t-228.5 269.5t-323 138q27 -47 27 -102q0 -108 -59 -196l-4 -5l-203 -234q-19 -23 2 -44q15 -15 38 -15h258q93 0 158.5 -65.5t65.5 -158.5v-68q0 -81 -37 -157l-161 -259q-22 -45 -63 -75t-91 -38q-48 -8 -64 -8q-66 0 -113 47t-47 113v114
q-59 29 -93.5 84t-34.5 119v88l-191 190q-10 10 -22 10h-100q-95 0 -150 64q-17 -82 -17 -160q0 -208 103 -385t280 -280t385 -103zM2048 1792q106 0 181 -76t75 -180t-75 -178t-181 -74q-107 0 -181.5 73t-74.5 179t75 181t181 75zM2048 1408q52 0 90 38t38 90t-38 90
t-90 38t-90 -38t-38 -90t38 -90t90 -38z" />
    <glyph glyph-name="planet-ringed" unicode="planet&#x2d;ringed" 
d="M1994 1738q138 -138 -87 -535q-40 -66 -106 -164q48 -138 48 -274q0 -168 -65.5 -321t-176.5 -264.5t-264.5 -177.5t-322.5 -66q-136 0 -274 48q-80 -58 -164 -106q-236 -134 -382 -134q-96 0 -142 58q-132 132 58 488q13 23 38.5 31t48.5 -5t31 -38t-5 -48
q-36 -68 -59.5 -127t-31 -101t-5 -70t14.5 -40q15 -15 54 -16.5t124.5 26.5t195.5 91q23 13 94 57q-192 110 -306 302t-114 420q0 168 65.5 321t176 264t264 177t322.5 66q228 0 420.5 -114t301.5 -306q49 78 57 93q63 110 91 196t26.5 125t-16.5 54q-12 12 -40 14.5t-70 -5
t-101 -31t-127 -59.5q-23 -13 -48.5 -5t-38.5 31t-4.5 48.5t31.5 38.5q356 190 488 58zM320 772q0 -210 114 -384t299 -256q247 177 500 430q251 251 430 501q-85 185 -257 298.5t-382 113.5q-143 0 -273.5 -55.5t-224.5 -150t-150 -224.5t-56 -273zM1728 772q0 59 -15 142
q-168 -220 -389 -442q-212 -213 -443 -389q69 -15 143 -15q191 0 353 94.5t256.5 256.5t94.5 353z" />
    <glyph glyph-name="police-box" unicode="police&#x2d;box" horiz-adv-x="1536" 
d="M352 704v-256q0 -26 19 -45t45 -19h256q26 0 45 19t19 45v256q0 26 -19 45t-45 19h-256q-26 0 -45 -19t-19 -45zM640 480h-192v192h192v-192zM672 1280h-256q-26 0 -45 -19t-19 -45v-256q0 -26 19 -45t45 -19h256q26 0 45 19t19 45v256q0 26 -19 45t-45 19zM448 1184h80
v-80h-80v80zM560 1184h80v-80h-80v80zM560 1072h80v-80h-80v80zM528 992h-80v80h80v-80zM800 1216v-256q0 -26 19 -45t45 -19h256q26 0 45 19t19 45v256q0 26 -19 45t-45 19h-256q-26 0 -45 -19t-19 -45zM976 992h-80v80h80v-80zM1008 992v80h80v-80h-80zM1008 1104v80h80
v-80h-80zM976 1184v-80h-80v80h80zM832 1664v64q0 26 -19 45t-45 19t-45 -19t-19 -45v-64h-320q-53 0 -90.5 -37.5t-37.5 -90.5v-3q-55 -11 -91.5 -55.5t-36.5 -101.5v-1504h-64q-26 0 -45 -19t-19 -45t19 -45t45 -19h1408q26 0 45 19t19 45t-19 45t-45 19h-64v1504
q0 57 -36.5 101.5t-91.5 55.5v3q0 53 -37.5 90.5t-90.5 37.5h-320zM1248 1408q14 0 23 -9t9 -23v-1504h-1024v1504q0 14 9 23t23 9h32q26 0 45 19t19 45v64h768v-64q0 -26 19 -45t45 -19h32z" />
    <glyph glyph-name="person-to-portal" unicode="person&#x2d;to&#x2d;portal" 
d="M1724 1792q79 0 142.5 -88.5t102.5 -236t59 -325.5t20 -370q0 -191 -20 -370.5t-58.5 -327.5t-101 -238.5t-140.5 -91.5q-56 0 -104 45t-79 111t-56 158t-38 169t-22 160q-3 26 13.5 47t42.5 24t47 -13.5t24 -42.5q13 -113 32.5 -207.5t39 -152t40 -98t35.5 -56.5t25 -16
q18 0 42 35.5t50.5 111t48.5 177.5t36.5 253t14.5 319q0 169 -14.5 319.5t-36.5 252.5t-48.5 177.5t-50.5 111t-42 35.5q-11 0 -27 -17.5t-38 -61.5t-43 -107.5t-41 -167t-32 -227.5q-2 -26 -22.5 -43.5t-47.5 -14.5q-26 2 -43 23t-15 47q6 63 15 125.5t25 147.5t39.5 155.5
t54.5 133.5t75 99t96 36zM885 1179l-153 -306q-32 -63 -14 -133t76 -110l459 -322q38 -28 25 -70l-128 -448q-6 -21 -23.5 -33.5t-38.5 -12.5q-8 0 -17 3q-26 8 -38.5 31t-5.5 48l115 404l-422 295q-97 67 -126 183.5t24 221.5l140 281q-38 5 -44 5h-159q-21 0 -39 -13
l-222 -166q-21 -16 -47 -12t-42 25t-12 47t25 42l222 167q50 38 115 38h158q134 0 254 -60q170 -86 253 -253l82 -163q18 -36 58 -36h240q26 0 43 -18.5t17 -45.5t-17 -45.5t-43 -18.5h-241q-55 0 -101 28.5t-71 77.5l-81 164q-65 130 -197 196zM541 441q24 -12 32 -37.5
t-4 -48.5l-64 -128q-17 -35 -57 -35h-384q-26 0 -45 19t-19 45t19 45t45 19h344l47 93q12 24 37 32t49 -4zM1120 1344q-93 0 -158.5 65.5t-65.5 158.5t65.5 158.5t158.5 65.5t158.5 -65.5t65.5 -158.5t-65.5 -158.5t-158.5 -65.5zM1120 1664q-40 0 -68 -28t-28 -68t28 -68
t68 -28t68 28t28 68t-28 68t-68 28z" />
    <glyph glyph-name="person-from-portal" unicode="person&#x2d;from&#x2d;portal" 
d="M1504 1344q-93 0 -158.5 65.5t-65.5 158.5t65.5 158.5t158.5 65.5t158.5 -65.5t65.5 -158.5t-65.5 -158.5t-158.5 -65.5zM1504 1664q-40 0 -68 -28t-28 -68t28 -68t68 -28t68 28t28 68t-28 68t-68 28zM925 441q24 -12 32 -37.5t-4 -48.5l-64 -128q-17 -35 -57 -35h-384
q-26 0 -45 19t-19 45t19 45t45 19h344l47 93q12 24 37 32t49 -4zM1984 832q26 0 45 -19t19 -45t-19 -45t-45 -19h-241q-55 0 -101 28.5t-71 77.5l-82 164q-31 63 -82 113.5t-114 82.5l-24 9l-153 -306q-32 -63 -14 -133t76 -110l459 -322q38 -28 25 -70l-128 -448
q-6 -21 -23.5 -33.5t-38.5 -12.5q-9 0 -18 3q-25 7 -38 30t-5 49l115 404l-422 295q-97 67 -126 183t24 222l140 281q-38 5 -44 5h-159q-19 0 -39 -9l-222 -167q-20 -15 -47 -12q9 -128 9 -256q0 -94 -5 -201q-1 -26 -21 -43.5t-47 -16.5q-26 2 -43.5 21.5t-16.5 45.5
q5 102 5 190q0 168 -14.5 319t-36.5 253t-48.5 177.5t-50.5 111t-42 35.5t-42 -35.5t-50.5 -111t-48.5 -177.5t-36.5 -253t-14.5 -319t14.5 -319t36.5 -253t48.5 -177.5t50.5 -111t42 -35.5q7 0 20 12t37 56.5t45 113.5q8 26 31.5 37.5t48.5 3.5q26 -8 38 -31.5t4 -48.5
q-84 -264 -224 -264q-79 0 -142 89.5t-101 238t-57.5 326t-19.5 367.5t19.5 367.5t57.5 325.5t101 237.5t142 89.5q59 0 109 -50t86.5 -138.5t62.5 -201t41 -246.5l205 150q50 38 115 38h158q134 0 254 -60q170 -86 253 -253l82 -163q18 -36 58 -36h240z" />
    <glyph glyph-name="radar" unicode="radar" 
d="M1024 -128q-182 0 -348 71t-286 191t-191 286t-71 348t71 348t191 286t286 191t348 71q165 0 316 -57.5t271 -161.5l-137 -136q-195 163 -450 163q-213 0 -387.5 -116.5t-257.5 -305.5q-11 -24 -1 -49.5t34 -35.5q24 -11 48 -1t32 34q70 156 212.5 251t319.5 95
q202 0 360 -126l-138 -137q-102 71 -222 71q-162 0 -273 -111t-111 -273q0 -160 111.5 -272t272.5 -112q159 0 271.5 112.5t112.5 271.5q0 26 -19 45t-45 19t-45 -19t-19 -45q0 -106 -75 -181t-181 -75t-181 75t-75 181t75 181t181 75q64 0 130 -36l-175 -175
q-19 -19 -19 -45t19 -45t45 -19t45 19l896 896q19 19 19 45t-19 45t-45 19t-45 -19l-173 -173q-139 122 -313 189t-365 67q-209 0 -398.5 -81t-326.5 -218t-218 -326.5t-81 -398.5t81 -398.5t218 -326.5t326.5 -218t398.5 -81t398.5 81t326.5 218t218 326.5t81 398.5
q0 26 -19 45t-45 19t-45 -19t-19 -45q0 -182 -71 -348t-191 -286t-286 -191t-348 -71zM1664 832q-26 0 -45 -19t-19 -45q0 -175 -95.5 -317.5t-250.5 -210.5q-24 -11 -33.5 -34t0.5 -50q10 -24 35.5 -34t49.5 1q189 82 305.5 256.5t116.5 388.5q0 26 -19 45t-45 19zM412 571
q-24 -10 -34 -35.5t1 -49.5q54 -123 147 -216.5t216 -146.5q24 -11 49.5 -1t35.5 34q10 27 0.5 50t-33.5 34q-99 43 -177 120.5t-125 177.5q-8 24 -32 34t-48 -1zM480 768q0 40 -28 68t-68 28t-68 -28t-28 -68t28 -68t68 -28t68 28t28 68zM928 128q0 -40 28 -68t68 -28
t68 28t28 68t-28 68t-68 28t-68 -28t-28 -68z" />
    <glyph glyph-name="raygun" unicode="raygun" horiz-adv-x="2304" 
d="M448 1152q26 0 43.5 -18t20.5 -46q0 -26 -19 -45t-45 -19t-45 18.5t-19 45.5q0 26 18.5 45t45.5 19zM2212 1401q31 16 62 -3q30 -19 30 -54v-512q0 -38 -30 -55q-28 -19 -62 -2l-384 192q-36 18 -36 57h-128v-320q0 -27 -18.5 -45.5t-45.5 -18.5t-45.5 18.5t-18.5 45.5
v320h-128v-448q0 -27 -18.5 -45.5t-45.5 -18.5t-45.5 18.5t-18.5 45.5v199q-4 -4 -62 -53l-510 -882q-40 -70 -116 -90q-77 -21 -146 20l-222 128q-68 39 -90 116q-21 77 20 146l278 482q-181 7 -306.5 136t-125.5 310q0 182 128 312v328q0 34 29 53q30 19 61 5l564 -250
h178q90 0 173.5 -35t146.5 -100v199q0 26 18.5 45t45.5 19t45.5 -18.5t18.5 -45.5v-448h128v320q0 26 18.5 45t45.5 19t45.5 -18.5t18.5 -45.5v-320h128q0 41 36 57zM256 1629v-138q90 43 192 45h19zM598 -96l424 736h-443l-315 -544q-13 -18 -7 -46t31 -42l222 -128
q27 -14 51.5 -6t36.5 30zM960 768q132 0 226 94t94 226t-93.5 226t-226.5 94h-512q-132 0 -226 -94t-94 -226t94 -226t226 -94h512zM2176 935v305l-256 -128v-49zM704 1152q27 0 45.5 -18.5t18.5 -45.5t-18.5 -45.5t-45.5 -18.5t-45.5 18.5t-18.5 45.5t18.5 45.5t45.5 18.5z
M960 1152q27 0 45.5 -19t18.5 -45q0 -27 -18.5 -45.5t-45.5 -18.5t-45.5 18.5t-18.5 45.5t18.5 45.5t45.5 18.5z" />
    <glyph glyph-name="refrigerator" unicode="refrigerator" horiz-adv-x="1536" 
d="M1152 1792q159 0 271.5 -112.5t112.5 -271.5v-1408q0 -106 -75 -181t-181 -75h-1024q-106 0 -181 75t-75 181v1408q0 159 112.5 271.5t271.5 112.5h768zM1408 0v1024h-256v-704q0 -26 -19 -45t-45 -19t-45 19t-19 45v704h-896v-1024q0 -53 37.5 -90.5t90.5 -37.5h1024
q53 0 90.5 37.5t37.5 90.5zM1408 1152v256q0 106 -75 181t-181 75h-768q-106 0 -181 -75t-75 -181v-256h896v192q0 26 19 45t45 19t45 -19t19 -45v-192h256z" />
    <glyph glyph-name="rocket-launch" unicode="rocket&#x2d;launch" 
d="M1696 1220q0 91 -66 157.5t-158 66.5t-158 -66.5t-66 -157.5q0 -95 65 -159.5t159 -64.5t159 64.5t65 159.5zM1472 1124q-40 0 -68 27t-28 69q0 38 28.5 67t67.5 29t67.5 -29t28.5 -67q0 -42 -28 -69t-68 -27zM1394 -46q65 33 103.5 94.5t38.5 134.5v393
q109 66 195.5 145.5t142.5 159.5t93.5 169t55.5 170t22.5 166.5t-0.5 155t-18 138.5q-6 35 -31 59.5t-60 31.5q-69 13 -138.5 18t-155 0.5t-167 -22t-170.5 -55t-169.5 -93t-161 -141t-146.5 -194.5h-389q-72 0 -134 -40t-95 -106l-203 -405q-16 -33 3 -63t54 -30h459
q155 0 264 -109t109 -264v-459q0 -35 30 -54t63 -3zM974 486q-35 73 -97 135t-135 97q154 627 542 842q271 149 619 87q62 -348 -87 -619q-216 -388 -842 -542zM1024 -88v355q0 43 -10 101q213 48 394 135v-320q0 -37 -19 -67.5t-52 -43.5zM620 758q-53 10 -97 10h-355
l156 313q17 34 48 54.5t67 20.5h320q-82 -170 -139 -398zM666 -88q104 104 104 249t-104 249t-249 104t-249 -104q-55 -54 -92.5 -142.5t-51.5 -176t-20 -167t-4 -128.5l2 -50q19 -1 51.5 -2t123.5 4t171 19.5t171.5 52t146.5 92.5zM576 320q66 -66 66 -159t-66 -159
q-92 -92 -331 -120q-36 -4 -116 -9q2 53 9 116q28 239 120 331q66 66 158 66t160 -66z" />
    <glyph glyph-name="sensor" unicode="sensor" horiz-adv-x="1792" 
d="M1536 1664q106 0 181 -75t75 -181v-1280q0 -106 -75 -181t-181 -75h-1280q-106 0 -181 75t-75 181v1280q0 106 75 181t181 75h1280zM1664 128v1280q0 52 -38 90t-90 38h-1280q-52 0 -90 -38t-38 -90v-1280q0 -52 38 -90t90 -38h1280q52 0 90 38t38 90zM448 1280
q27 0 45.5 -18.5t18.5 -45.5v-512q0 -27 -18.5 -45.5t-45.5 -18.5t-45.5 18.5t-18.5 45.5v512q0 27 18.5 45.5t45.5 18.5zM704 1280q27 0 45.5 -18.5t18.5 -45.5v-512q0 -27 -18.5 -45.5t-45.5 -18.5t-45.5 18.5t-18.5 45.5v512q0 27 18.5 45.5t45.5 18.5zM960 1280
q27 0 45.5 -18.5t18.5 -45.5v-512q0 -27 -18.5 -45.5t-45.5 -18.5t-45.5 18.5t-18.5 45.5v512q0 27 18.5 45.5t45.5 18.5z" />
    <glyph glyph-name="sensor-triangle-exclamation" unicode="sensor&#x2d;triangle&#x2d;exclamation" horiz-adv-x="2560" 
d="M896 1216q0 27 18.5 45.5t45.5 18.5t45.5 -18.5t18.5 -45.5v-512q0 -27 -18.5 -45.5t-45.5 -18.5q-28 0 -47.5 19t-16.5 45v512zM640 1216q0 27 18.5 45.5t45.5 18.5t45.5 -18.5t18.5 -45.5l-4 -512q0 -27 -16.5 -45.5t-43.5 -18.5q-28 0 -47.5 19t-16.5 45v512zM936 0
q2 -5 7.5 -20t9.5 -23q26 -44 65 -85h-766q-104 0 -178 75t-74 181v1280q0 106 74 181t178 75h1284q104 0 178 -75t74 -181q-59 0 -124 -20v20q0 52 -38 90t-90 38h-1280q-52 0 -90 -38t-38 -90v-1280q0 -52 38 -90t90 -38h680zM2516 319q42 -69 43 -149t-39 -149
q-40 -70 -109 -109.5t-149 -39.5h-940q-80 0 -149 39.5t-109 109.5q-40 69 -40 149t40 149l469 812q41 69 110.5 109t148.5 40q80 0 149 -40t106 -109zM2262 0q48 0 87.5 24t59.5 61t23 82.5t-23 87.5l-469 812q-23 39 -63 62t-85 23q-46 0 -85.5 -22.5t-62.5 -62.5
l-469 -812q-26 -42 -23 -87.5t23 -82.5t59.5 -61t87.5 -24h940zM384 1216q0 27 18.5 45.5t45.5 18.5t45.5 -18.5t18.5 -45.5l-4 -512q0 -27 -16.5 -45.5t-43.5 -18.5q-28 0 -47.5 19t-16.5 45v512zM1792 288q40 0 68 -28t28 -68t-28 -68t-68 -28t-68 28t-28 68t28 68t68 28z
M1788 384q-24 0 -42 19t-18 45v384q0 26 19 45t45 19t45 -19t19 -45v-384q0 -27 -19.5 -45.5t-48.5 -18.5z" />
    <glyph glyph-name="sensor-fire" unicode="sensor&#x2d;fire" horiz-adv-x="2560" 
d="M2176 1174q23 -20 53.5 -50.5t94 -105.5t111.5 -148.5t86.5 -172t38.5 -185.5q0 -130 -51 -248.5t-136.5 -204t-204 -136.5t-248.5 -51t-248.5 51t-204 136.5t-136.5 204t-51 248.5q0 30 5 66t33.5 116t77 163.5t147.5 203.5t233 241q145 -127 258 -264q46 49 142 136z
M1920 0q104 0 198.5 40.5t163.5 109.5t109.5 163.5t40.5 198.5q0 80 -73 226t-184 261q-60 -60 -95 -102l-52 -62l-48 65q-92 122 -204 228q-160 -155 -264 -328.5t-104 -287.5q0 -139 68.5 -257t186.5 -186.5t257 -68.5zM640 1216q0 27 18.5 45.5t45.5 18.5t45.5 -18.5
t18.5 -45.5v-512q0 -27 -18.5 -45.5t-45.5 -18.5t-45.5 18.5t-18.5 45.5v512zM256 0h1093q69 -75 148 -128h-1241q-106 0 -181 75t-75 181v1280q0 106 75 181t181 75h1280q88 0 157.5 -55.5t90.5 -141.5q-90 -66 -120 -93v34q0 52 -38 90t-90 38h-1280q-52 0 -90 -38
t-38 -90v-1280q0 -52 38 -90t90 -38zM896 1216q0 27 18.5 45.5t45.5 18.5t45.5 -18.5t18.5 -45.5v-512q0 -27 -18.5 -45.5t-45.5 -18.5t-45.5 18.5t-18.5 45.5v512zM384 1216q0 27 18.5 45.5t45.5 18.5t45.5 -18.5t18.5 -45.5v-512q0 -27 -18.5 -45.5t-45.5 -18.5t-45 18.5
t-18 45.5zM2096 764q110 -178 112 -181q56 -104 29.5 -218.5t-122.5 -178.5q-85 -58 -191 -58q-141 0 -235.5 90.5t-94.5 225.5q0 78 40 141.5t158 200.5q27 31 41 48q108 -121 159 -185zM1924 256q67 0 121 38.5t69.5 104.5t-36.5 153l-91 -100q-142 176 -152 188
q-62 -72 -87.5 -113.5t-25.5 -82.5q0 -85 58 -136.5t144 -51.5z" />
    <glyph glyph-name="sensor-on" unicode="sensor&#x2d;on" horiz-adv-x="2560" 
d="M448 1280q27 0 45.5 -18.5t18.5 -45.5v-512q0 -27 -18.5 -45.5t-45.5 -18.5t-45.5 18.5t-18.5 45.5v512q0 27 18.5 45.5t45.5 18.5zM704 1280q27 0 45.5 -18.5t18.5 -45.5v-512q0 -27 -18.5 -45.5t-45.5 -18.5t-45.5 18.5t-18.5 45.5v512q0 27 18.5 45.5t45.5 18.5z
M960 1280q27 0 45.5 -18.5t18.5 -45.5v-512q0 -27 -18.5 -45.5t-45.5 -18.5t-45.5 18.5t-18.5 45.5v512q0 27 18.5 45.5t45.5 18.5zM1536 1664q106 0 181 -75t75 -181v-1280q0 -106 -75 -181t-181 -75h-1280q-106 0 -181 75t-75 181v1280q0 106 75 181t181 75h1280z
M1664 128v1280q0 52 -38 90t-90 38h-1280q-52 0 -90 -38t-38 -90v-1280q0 -52 38 -90t90 -38h1280q52 0 90 38t38 90zM2401 119q23 -13 29 -39.5t-7 -48.5q-19 -31 -55 -31q-18 0 -33 9l-320 192q-23 13 -29 39t7 49t39 29t49 -7zM2052 1220q-36 0 -55 31q-13 23 -6.5 48.5
t29.5 39.5l315 188q22 13 48.5 7t39.5 -29t7 -48.5t-29 -39.5l-316 -188q-15 -9 -33 -9zM2496 832q26 0 45 -19t19 -45t-19 -45t-45 -19h-384q-26 0 -45 19t-19 45t19 45t45 19h384z" />
    <glyph glyph-name="sensor-cloud" unicode="sensor&#x2d;cloud" horiz-adv-x="2560" 
d="M2345 618q121 -62 178.5 -186.5t25.5 -257.5t-139 -217.5t-244 -84.5h-748q-145 0 -255.5 94t-133.5 238q-23 143 52.5 267.5t213.5 170.5q16 113 88.5 199.5t180.5 120.5q107 35 217 7.5t189 -108.5q41 14 89 14q110 0 192 -73.5t94 -183.5zM2166 0q104 0 180.5 70.5
t84.5 174.5t-56.5 186t-167.5 98q22 55 2.5 111.5t-71.5 86.5q-52 29 -110.5 17t-94.5 -59q-38 97 -131 142.5t-193 15.5t-153 -119t-32 -191q-1 0 -3 0.5t-3 0.5q-72 1 -134 -35t-99 -98t-37 -134t37 -134t99 -98t134 -35h748zM896 1216q0 27 18.5 45.5t45.5 18.5
t45.5 -18.5t18.5 -45.5v-512q0 -27 -18.5 -45.5t-45.5 -18.5t-45.5 18.5t-18.5 45.5v512zM256 0h716q44 -73 108 -128h-817q-104 0 -178 75t-74 181v1280q0 107 73 181.5t179 74.5h1277q104 0 178 -75t74 -181v-310q-53 12 -106 12q-4 0 -11.5 -1t-10.5 -1v300
q0 53 -37.5 90.5t-90.5 37.5h-1280q-52 0 -90 -38t-38 -90v-1280q0 -53 37.5 -90.5t90.5 -37.5zM640 1216q0 27 18.5 45.5t45.5 18.5t45.5 -18.5t18.5 -45.5v-512q0 -27 -18.5 -45.5t-45.5 -18.5t-45.5 18.5t-18.5 45.5v512zM384 1216q0 27 16.5 45.5t43.5 18.5t45.5 -18.5
t18.5 -45.5v-512q0 -27 -17 -45.5t-43 -18.5t-45 18.5t-19 45.5v512z" />
    <glyph glyph-name="siren" unicode="siren" horiz-adv-x="1792" 
d="M1664 256q53 0 90.5 -37.5t37.5 -90.5v-128q0 -53 -37.5 -90.5t-90.5 -37.5h-1536q-53 0 -90.5 37.5t-37.5 90.5v128q0 53 37.5 90.5t90.5 37.5h1536zM1664 0v128h-1536v-128h1536zM208 384q-29 0 -48 22t-15 53l84 669q15 120 105.5 200t211.5 80h700q121 0 212 -80
t106 -200l84 -672q4 -28 -15.5 -50t-48.5 -22q-24 0 -42.5 17t-21.5 39l-83 672q-9 72 -63.5 120t-127.5 48h-700q-73 0 -127.5 -48t-63.5 -120l-83 -672q-3 -24 -21.5 -40t-42.5 -16zM513 1098q4 26 25.5 42t47.5 11q26 -4 41.5 -25.5t11.5 -47.5l-96 -640q-4 -24 -22 -39
t-41 -15q-2 0 -5 0.5t-4 0.5q-26 4 -42 25.5t-12 47.5z" />
    <glyph glyph-name="siren-on" unicode="siren&#x2d;on" horiz-adv-x="2560" 
d="M2112 1408q-22 0 -39.5 13.5t-22.5 32.5q-5 21 4.5 41.5t29.5 30.5l256 128q24 11 49 3t37 -32q11 -23 2.5 -48.5t-32.5 -37.5l-256 -124q-16 -7 -28 -7zM164 1543q-24 12 -32.5 37.5t3.5 51.5q12 24 37 32.5t49 -3.5l256 -128q24 -12 32.5 -37t-3.5 -49t-37 -32.5
t-49 3.5zM2496 1024q27 0 45.5 -18.5t18.5 -45.5t-18.5 -45.5t-45.5 -18.5h-256q-27 0 -45.5 19.5t-18.5 48.5q0 24 18.5 42t45.5 18h256zM320 1024q27 0 45.5 -18.5t18.5 -45.5t-18.5 -45.5t-45.5 -18.5h-256q-27 0 -45.5 18.5t-18.5 45.5t18.5 45.5t45.5 18.5h256z
M2048 256q53 0 90.5 -37.5t37.5 -90.5v-128q0 -53 -37.5 -90.5t-90.5 -37.5h-1536q-53 0 -90.5 37.5t-37.5 90.5v128q0 53 37.5 90.5t90.5 37.5h1536zM2048 0v128h-1536v-128h1536zM592 384q-29 0 -48 22t-15 53l84 669q15 120 105.5 199.5t211.5 79.5h700q121 0 212 -79.5
t106 -199.5l84 -672q4 -28 -15.5 -50t-48.5 -22q-24 0 -42.5 17t-21.5 39l-83 672q-9 72 -63.5 120t-127.5 48h-700q-73 0 -127.5 -48t-63.5 -120l-83 -672q-3 -24 -21.5 -40t-42.5 -16zM897 1098q4 26 25.5 42t47.5 11q26 -4 41.5 -25.5t11.5 -47.5l-96 -640
q-4 -24 -22 -39t-41 -15q-2 0 -5 0.5t-4 0.5q-26 4 -42 25.5t-12 47.5z" />
    <glyph glyph-name="solar-system" unicode="solar&#x2d;system" 
d="M1522 1297q34 -34 43.5 -81t-8.5 -92q122 -183 106 -402t-164 -383q-148 -163 -365 -201t-411 66q-196 103 -284.5 304t-34.5 416q53 213 226.5 348.5t393.5 135.5q163 0 312 -84q44 24 96.5 17t89.5 -44zM1386 406q126 125 147 301t-73 327q-44 -16 -88.5 -5.5
t-76.5 42.5q-62 62 -39 151q-121 58 -231 58q-156 0 -285.5 -86t-188.5 -230q-59 -143 -29 -295.5t140 -262.5q95 -95 228.5 -129t267 0t228.5 129zM1748 1492q171 -171 246.5 -394t46.5 -453t-156 -429q45 -71 32.5 -154t-75.5 -138q-64 -56 -148 -56t-147 56
q-63 54 -74.5 137.5t31.5 154.5q46 71 126.5 95.5t156.5 -10.5q155 250 130.5 543t-217.5 515q-185 211 -456.5 279t-531.5 -30q-4 -2 -14 -4t-29 4.5t-32 26.5q-18 28 -8.5 54.5t38.5 37.5q279 106 573.5 42.5t507.5 -277.5zM1696 4q39 0 66 28t27 68t-27 68t-66 28
q-37 0 -64.5 -28.5t-27.5 -67.5q0 -40 26.5 -68t65.5 -28zM1405 -100q17 -35 6 -58.5t-36 -35.5q-278 -103 -570.5 -38.5t-504.5 276.5q-170 170 -245.5 394.5t-47 455.5t155.5 428q-44 70 -32 153.5t76 138.5t148 54.5t147 -55.5q64 -55 76.5 -138t-32.5 -154t-126 -95.5
t-157 10.5q-135 -220 -135 -468q3 -228 109.5 -426.5t294.5 -322.5q178 -117 389.5 -141t409.5 48q21 7 41.5 0t32.5 -26zM352 1536q-40 0 -66 -26t-26 -66t26.5 -68t65.5 -28q40 0 66 26t26 66t-26.5 68t-65.5 28zM1024 1092q132 0 226 -95t94 -225q0 -132 -94 -226
t-226 -94q-133 0 -226.5 93.5t-93.5 226.5q0 132 93.5 226t226.5 94zM1024 580q79 0 134 56t55 136t-55 136t-134 56q-77 0 -132.5 -56.5t-55.5 -135.5q0 -80 54.5 -136t133.5 -56z" />
    <glyph glyph-name="circle-sort" unicode="circle&#x2d;sort" 
d="M1388 640q49 0 68 -46t-16 -80l-364 -365q-21 -21 -52 -21q-30 0 -52 22l-365 364q-35 34 -16.5 80t67.5 46h730zM1024 278l233 234h-467zM1076 1386l365 -364q35 -34 16 -80t-68 -46h-731q-49 0 -67.5 46t16.5 80l365 364q26 26 52 26q31 0 52 -26zM790 1024h467
l-233 234zM1024 1792q209 0 398.5 -81t326.5 -218t218 -326.5t81 -398.5t-81 -398.5t-218 -326.5t-326.5 -218t-398.5 -81t-398.5 81t-326.5 218t-218 326.5t-81 398.5t81 398.5t218 326.5t326.5 218t398.5 81zM1024 -128q182 0 348 71t286 191t191 286t71 348t-71 348
t-191 286t-286 191t-348 71t-348 -71t-286 -191t-191 -286t-71 -348t71 -348t191 -286t286 -191t348 -71z" />
    <glyph glyph-name="circle-sort-down" unicode="circle&#x2d;sort&#x2d;down" 
d="M1390 640q49 0 67.5 -46t-16.5 -80l-365 -364q-20 -22 -52 -22q-30 0 -52 22l-364 364q-35 34 -16 80t68 46h730zM1024 278l234 234h-467zM1069 1389l384 -384q18 -19 18 -45t-19 -44t-44.5 -18.5t-44.5 17.5l-339 339l-339 -339q-19 -18 -44.5 -17.5t-44.5 18.5
q-18 18 -18.5 44t17.5 45l384 384q19 19 45 19t45 -19zM1024 1792q209 0 398.5 -81t326.5 -218t218 -326.5t81 -398.5t-81 -398.5t-218 -326.5t-326.5 -218t-398.5 -81t-398.5 81t-326.5 218t-218 326.5t-81 398.5t81 398.5t218 326.5t326.5 218t398.5 81zM1024 -128
q182 0 348 71t286 191t191 286t71 348t-71 348t-191 286t-286 191t-348 71t-348 -71t-286 -191t-191 -286t-71 -348t71 -348t191 -286t286 -191t348 -71z" />
    <glyph glyph-name="circle-sort-up" unicode="circle&#x2d;sort&#x2d;up" 
d="M658 900q-50 0 -68 44t17 78l365 364q26 26 52 26q31 0 52 -26l364 -364q35 -34 16 -80t-68 -46zM1024 1258l-234 -234h467zM1363 621q19 18 45 18t44 -19t18.5 -44.5t-17.5 -44.5l-384 -384q-19 -19 -45 -19t-45 19l-384 384q-18 19 -17.5 45t18.5 44t44 18.5t45 -17.5
l339 -339zM1024 1792q209 0 398.5 -81t326.5 -218t218 -326.5t81 -398.5t-81 -398.5t-218 -326.5t-326.5 -218t-398.5 -81t-398.5 81t-326.5 218t-218 326.5t-81 398.5t81 398.5t218 326.5t326.5 218t398.5 81zM1024 -128q182 0 348 71t286 191t191 286t71 348t-71 348
t-191 286t-286 191t-348 71t-348 -71t-286 -191t-191 -286t-71 -348t71 -348t191 -286t286 -191t348 -71z" />
    <glyph glyph-name="space-station-moon" unicode="space&#x2d;station&#x2d;moon" 
d="M672 1152q0 -40 28 -68t68 -28t68 28t28 68t-28 68t-68 28t-68 -28t-28 -68zM1120 1152q0 146 -103 249t-249 103t-249 -103t-103 -249t103 -249t249 -103t249 103t103 249zM768 1376q93 0 158.5 -65.5t65.5 -158.5t-65.5 -158.5t-158.5 -65.5t-158.5 65.5t-65.5 158.5
t65.5 158.5t158.5 65.5zM2048 768q0 209 -81 398.5t-218 326.5t-326.5 218t-398.5 81t-398.5 -81t-326.5 -218t-218 -326.5t-81 -398.5t81 -398.5t218 -326.5t326.5 -218t398.5 -81t398.5 81t326.5 218t218 326.5t81 398.5zM145 595q-17 87 -17 173q0 182 71 348t191 286
t286 191t348 71t348 -71t286 -191t191 -286t71 -348q0 -86 -17 -173q-8 -3 -26 -9q-81 -29 -136.5 -46t-167 -44t-250.5 -40.5t-299 -13.5t-299 13.5t-250.5 40.5t-167 44t-136.5 46q-18 6 -26 9zM189 443q375 -129 835 -129t835 129q-99 -254 -326.5 -412.5t-508.5 -158.5
t-508.5 158.5t-326.5 412.5z" />
    <glyph glyph-name="space-station-moon-construction" unicode="space&#x2d;station&#x2d;moon&#x2d;construction" 
d="M145 595q-17 87 -17 173q0 182 71 348t191 286t286 191t348 71q180 0 341.5 -67.5t285.5 -188.5h-179q-26 0 -45 -18t-19 -42q0 -29 18.5 -46.5t45.5 -17.5h320q41 0 57 32q17 34 -6 66q-143 190 -357.5 300t-461.5 110q-209 0 -398.5 -81t-326.5 -218t-218 -326.5
t-81 -398.5t81 -398.5t218 -326.5t326.5 -218t398.5 -81q269 0 498.5 129.5t367.5 348.5q20 33 2 65q-18 33 -56 33h-172q-26 0 -45 -19t-19 -45t19 -45t45 -19h46q-125 -150 -304 -235t-382 -85q-281 0 -508.5 158.5t-326.5 412.5q375 -129 835 -129q136 0 264.5 11.5
t211 25t179.5 39.5t132.5 38t107.5 37q38 13 53 18q8 3 19 10l7 5q18 13 23 37q27 113 27 233q0 45 -2 68q-1 25 -19.5 42.5t-44.5 17.5h-254q-26 0 -45 -19t-19 -45t19 -45t45 -19h192q0 -86 -17 -173q-8 -3 -26 -9q-81 -29 -136.5 -46t-167 -44t-250.5 -40.5t-299 -13.5
t-299 13.5t-250.5 40.5t-167 44t-136.5 46q-18 6 -26 9zM864 1152q0 40 -28 68t-68 28t-68 -28t-28 -68t28 -68t68 -28t68 28t28 68zM1120 1152q0 146 -103 249t-249 103t-249 -103t-103 -249t103 -249t249 -103t249 103t103 249zM768 1376q93 0 158.5 -65.5t65.5 -158.5
t-65.5 -158.5t-158.5 -65.5t-158.5 65.5t-65.5 158.5t65.5 158.5t158.5 65.5zM1792 1152h-320q-26 0 -45 -19t-19 -45t19 -45t45 -19h320q26 0 45 19t19 45t-19 45t-45 19z" />
    <glyph glyph-name="sprinkler" unicode="sprinkler" 
d="M64 1280q27 0 45.5 -18.5t18.5 -45.5t-18.5 -45.5t-45.5 -18.5t-45.5 18.5t-18.5 45.5t18.5 45.5t45.5 18.5zM64 768q27 0 45.5 -18.5t18.5 -45.5t-18.5 -45.5t-45.5 -18.5t-45.5 18.5t-18.5 45.5t18.5 45.5t45.5 18.5zM64 1792q27 0 45.5 -18.5t18.5 -45.5t-18.5 -45.5
t-45.5 -18.5t-45.5 18.5t-18.5 45.5t18.5 45.5t45.5 18.5zM320 1024q27 0 45.5 -18.5t18.5 -45.5t-19 -45.5t-45 -18.5t-45 18.5t-19 45.5t19 45.5t45 18.5zM1472 1152q-27 0 -45.5 18.5t-18.5 45.5t18.5 45.5t45.5 18.5t45.5 -18.5t18.5 -45.5t-18.5 -45.5t-45.5 -18.5z
M576 1152q-27 0 -45.5 18.5t-18.5 45.5t18.5 45.5t45.5 18.5t45.5 -18.5t18.5 -45.5t-18.5 -45.5t-45.5 -18.5zM1984 1664q-27 0 -45.5 18.5t-18.5 45.5t18.5 45.5t45.5 18.5t45.5 -18.5t18.5 -45.5t-18.5 -45.5t-45.5 -18.5zM1728 1536q27 0 45.5 -18.5t18.5 -45.5
t-18.5 -45.5t-45.5 -18.5t-45.5 19t-18.5 45t18.5 45t45.5 19zM1984 768q27 0 45.5 -18.5t18.5 -45.5t-18.5 -45.5t-45.5 -18.5t-45.5 18.5t-18.5 45.5t18.5 45.5t45.5 18.5zM320 1536q27 0 45.5 -18.5t18.5 -45.5t-19 -45.5t-45 -18.5t-45 19t-19 45t19 45t45 19z
M1984 1280q27 0 45.5 -18.5t18.5 -45.5t-18.5 -45.5t-45.5 -18.5t-45.5 18.5t-18.5 45.5t18.5 45.5t45.5 18.5zM1593 768q44 0 64 -40q19 -38 -7 -74l-370 -412v-434q0 -26 -19 -45t-45 -19t-45 19t-19 45v487l317 345h-889l316 -345v-487q0 -26 -19 -45t-45 -19t-45 19
t-19 45v434l-369 412q-26 36 -7 74q20 40 63 40h505v704q0 26 19 45t45 19t45 -19t19 -45v-704h505zM1728 1024q27 0 45.5 -18.5t18.5 -45.5t-18.5 -45.5t-45.5 -18.5t-45.5 18.5t-18.5 45.5t18.5 45.5t45.5 18.5z" />
    <glyph glyph-name="star-shooting" unicode="star&#x2d;shooting" 
d="M1457 723q37 -4 59 -31.5t20 -63.5t-28 -62l-303 -296l71 -419q6 -43 -20 -74q-27 -33 -70 -33q-19 0 -43 11l-375 197l-375 -197q-20 -11 -43 -11q-45 0 -67 33q-28 31 -20 75l69 418l-304 296q-40 41 -22.5 95t73.5 62l419 61l188 381q24 51 82 51q56 0 82 -51
l188 -381zM1067 315l300 293l-414 60l-185 375l-186 -375l-413 -60l299 -293l-71 -413l370 195l370 -195zM960 1408q-27 0 -45 19q-19 19 -19 45t19 45l256 256q19 19 45 19t45 -19t19 -45t-19 -45l-256 -256q-18 -19 -45 -19zM1299 1043q-19 19 -19 45t19 45l640 640
q19 19 45 19t45 -19t19 -45t-19 -45l-640 -640q-18 -19 -45 -19q-26 0 -45 19zM1939 1005q19 19 45 19t45 -19t19 -45t-19 -45l-256 -256q-18 -19 -45 -19q-26 0 -45 19t-19 45t19 45z" />
    <glyph glyph-name="starfighter" unicode="starfighter" horiz-adv-x="2560" 
d="M1344 832q0 26 -19 45t-45 19t-45 -19t-19 -45v-256q0 -26 19 -45t45 -19t45 19t19 45v256zM1078 1651l-118 -975v-612q0 -80 56 -136t136 -56h256q80 0 136 56t56 136v612l-118 975q-7 60 -53.5 100.5t-105.5 40.5h-86q-61 0 -108 -41t-51 -100zM1237 1664h86
q12 0 21.5 -8t10.5 -20l117 -964v-608q0 -26 -19 -45t-45 -19h-256q-26 0 -45 19t-19 45v608l117 964q1 12 10.5 20t21.5 8zM256 1280v128q0 26 -19 45t-45 19t-45 -19t-19 -45v-128h-64q-26 0 -45 -19t-19 -45t19 -45t45 -19h64v-1152q0 -26 19 -45t45 -19t45 19t19 45v77
l288 -120q26 -39 68.5 -62t91.5 -23h64v-64q0 -26 19 -45t45 -19t45 19t19 45v128q0 26 -19 45t-45 19h-128q-26 0 -45 19t-19 45v512q0 26 19 45t45 19h128q26 0 45 19t19 45t-19 45t-45 19h-128q-80 0 -136 -56t-56 -136v-64h-256v640h64q26 0 45 19t19 45t-19 45t-45 19
h-64zM512 109l-256 107v168h256v-275zM2432 1280v128q0 26 -19 45t-45 19t-45 -19t-19 -45v-128h-64q-26 0 -45 -19t-19 -45t19 -45t45 -19h64v-640h-256v64q0 80 -56 136t-136 56h-128q-26 0 -45 -19t-19 -45t19 -45t45 -19h128q26 0 45 -19t19 -45v-512q0 -26 -19 -45
t-45 -19h-128q-26 0 -45 -19t-19 -45v-128q0 -26 19 -45t45 -19t45 19t19 45v64h64q49 0 91.5 23t68.5 62l288 120v-77q0 -26 19 -45t45 -19t45 19t19 45v1152h64q26 0 45 19t19 45t-19 45t-45 19h-64zM2048 384h256v-168l-256 -107v275z" />
    <glyph glyph-name="starfighter-twin-ion-engine" unicode="starfighter&#x2d;twin&#x2d;ion&#x2d;engine" horiz-adv-x="2304" 
d="M768 704h136q8 -33 28 -66l-97 -96q-19 -19 -19 -44.5t19 -46.5q19 -19 45.5 -19t45.5 19l96 97q36 -21 66 -24v-140q0 -26 19 -45t45 -19t45 19t19 45v140q30 3 66 24l96 -97q19 -19 45.5 -19t45.5 19t19 45.5t-19 45.5l-97 96q21 36 24 66h140q26 0 45 19t19 45t-19 45
t-45 19h-140q-3 30 -24 66l97 96q19 19 19 45.5t-19 45.5t-45.5 19t-45.5 -19l-96 -97q-33 20 -66 28v136q0 26 -19 45t-45 19t-45 -19t-19 -45v-136q-33 -8 -66 -28l-96 97q-19 19 -45.5 19t-45.5 -19t-19 -45.5t19 -45.5l97 -96q-20 -33 -28 -66h-136q-26 0 -45 -19
t-19 -45t19 -45t45 -19zM1152 640q-53 0 -90.5 37.5t-37.5 90.5t37.5 90.5t90.5 37.5t90.5 -37.5t37.5 -90.5t-37.5 -90.5t-90.5 -37.5zM64 1664q-26 0 -45 -19t-19 -45v-1664q0 -26 19 -45t45 -19t45 19t19 45v596l466 -77q84 -149 232.5 -238t325.5 -89t325.5 89
t232.5 238l466 77v-596q0 -26 19 -45t45 -19t45 19t19 45v1664q0 26 -19 45t-45 19t-45 -19t-19 -45v-596l-466 77q-84 149 -232.5 238t-325.5 89t-325.5 -89t-232.5 -238l-466 -77v596q0 26 -19 45t-45 19zM1768 594q24 82 24 174q0 91 -24 174l408 -68v-212zM128 662v212
l404 68q-20 -92 -20 -174t20 -174zM1152 1280q212 0 362 -150t150 -362t-150 -362t-362 -150t-362 150t-150 362t150 362t362 150z" />
    <glyph glyph-name="starship" unicode="starship" horiz-adv-x="2560" 
d="M2048 768q0 106 -75 181t-181 75t-181 -75t-75 -181t75 -181t181 -75t181 75t75 181zM1792 896q53 0 90.5 -37.5t37.5 -90.5t-37.5 -90.5t-90.5 -37.5t-90.5 37.5t-37.5 90.5t37.5 90.5t90.5 37.5zM0 1344q0 -80 56 -136t136 -56h235l225 -164l-86 -11q-78 -10 -130 -70
t-52 -139t52 -139t130 -70l86 -11l-225 -164h-235q-80 0 -136 -56t-56 -136t56 -136t136 -56h640q80 0 136 56t56 136t-56 136t-136 56h-187l190 138l237 -32q88 -218 283.5 -354t436.5 -136q209 0 385.5 103t279.5 279.5t103 385.5q0 210 -103 387t-279.5 279t-385.5 102
q-241 0 -436.5 -136t-283.5 -354l-237 -32l-190 138h187q80 0 136 56t56 136t-56 136t-136 56h-640q-80 0 -136 -56t-56 -136zM192 1408h640q26 0 45 -19t19 -45t-19 -45t-45 -19h-640q-26 0 -45 19t-19 45t19 45t45 19zM512 768q0 31 20.5 54t51.5 28l454 62
q-14 -72 -14 -144t14 -144l-454 62q-31 5 -51.5 28t-20.5 54zM192 128q-26 0 -45 19t-19 45t19 45t45 19h640q26 0 45 -19t19 -45t-19 -45t-45 -19h-640zM1792 128q-130 0 -248.5 50.5t-204.5 136.5t-136.5 204.5t-50.5 248.5t50.5 248.5t136.5 204.5t204.5 136.5
t248.5 50.5t248.5 -50.5t204.5 -136.5t136.5 -204.5t50.5 -248.5t-50.5 -248.5t-136.5 -204.5t-204.5 -136.5t-248.5 -50.5z" />
    <glyph glyph-name="starship-freighter" unicode="starship&#x2d;freighter" horiz-adv-x="2304" 
d="M256 768q0 -26 19 -45t45 -19t45 19t19 45t-19 45t-45 19t-45 -19t-19 -45zM512 1152q0 26 -19 45t-45 19t-45 -19t-19 -45t19 -45t45 -19t45 19t19 45zM384 384q0 -26 19 -45t45 -19t45 19t19 45t-19 45t-45 19t-45 -19t-19 -45zM1920 -32q0 105 -80 172l382 148
q37 14 59.5 47t22.5 73v172q0 51 -37.5 89.5t-90.5 38.5h-386q2 18 2 64q0 38 -2 59v5h386q54 0 91 36.5t37 91.5v164q0 40 -22.5 73t-59.5 47l-832 323q-241 93 -494 93q-182 0 -348 -71t-286 -191t-191 -286t-71 -348t71 -348t191 -286t286 -191t348 -71q169 0 339 43
l54 -77q32 -44 80 -69t103 -25h224q93 0 158.5 65.5t65.5 158.5zM1508 304l-246 348q18 54 18 116q0 161 -112 272.5t-272 111.5q-162 0 -273 -111t-111 -273q0 -160 111.5 -272t272.5 -112q1 0 3.5 2t3.5 2l243 -346q-121 -42 -250 -42q-210 0 -387 103t-279 279.5
t-102 385.5q0 158 60.5 300t163 244.5t244.5 163t300 60.5q154 0 294.5 -59t243 -159t164.5 -238.5t66 -291.5q-2 0 -1 -10l1 -10v-21q-6 -240 -156 -443zM2176 408l-554 -216h-38l1 4q140 168 186 380h405v-168zM2176 960h-405q-51 232 -209 407l614 -239v-168zM896 1024
q106 0 181 -75t75 -181t-75 -181t-181 -75t-181 75t-75 181t75 181t181 75zM1472 -128q-50 0 -79 42l-344 502q92 40 152 118l322 -470h173q40 0 68 -28t28 -68t-28 -68t-68 -28h-224z" />
    <glyph glyph-name="sword-laser" unicode="sword&#x2d;laser" 
d="M1075 530l61 -62q9 -9 9 -22.5t-9 -22.5l-45 -46q-9 -9 -23 -9t-23 9l-22 23l-227 -226q9 -9 9 -23t-9 -23l-320 -320q-64 -64 -154.5 -64t-154.5 64l-103 103q-64 64 -64 154.5t64 154.5l321 320q9 9 22.5 9t22.5 -9h4l227 222l-23 23q-9 9 -9 22.5t9 22.5l46 46
q9 9 22.5 9t22.5 -9zM386 -101l256 249l-231 231l-253 -253q-26 -24 -26 -61t26 -63l103 -103q24 -26 61.5 -26t63.5 26zM706 264l45 45l-181 181l-45 -45zM796 355l46 49l-181 181l-45 -45zM887 446l45 44l-181 181l-45 -45zM2010 1748q38 -44 38 -101t-38 -96l-804 -874
q-19 -20 -45.5 -20.5t-46.5 18.5q-18 18 -18.5 44t16.5 45l803 873q5 5 5 13t-5 12q-3 6 -11 6q-5 0 -15 -10l-873 -802q-19 -17 -45 -16.5t-44 18.5q-19 20 -18.5 47.5t20.5 45.5l874 803q43 38 102 38h3q59 -3 102 -44z" />
    <glyph glyph-name="sword-laser-alt" unicode="sword&#x2d;laser&#x2d;alt" 
d="M2010 1744q38 -41 38 -98t-38 -99l-582 -630q-19 -21 -47 -21q-42 0 -58.5 38t11.5 69l582 631q10 11 -1 24q-13 11 -26 1l-818 -746q-19 -17 -44 -17q-44 0 -59.5 41t16.5 70l819 747q50 39 105 38q62 -3 102 -48zM1289 766q39 -5 52.5 -41.5t-14.5 -65.5l-851 -851
q-64 -64 -154.5 -64t-154.5 64l-103 103q-64 64 -64 154.5t64 154.5l529 530q18 18 45 18h653zM155 2l23 -23l325 324l-87 87l-261 -260q-27 -27 -27 -64t27 -64zM386 -101l264 261l-87 87l-325 -325l23 -23q24 -27 61 -27t64 27zM736 250l391 390h-462l-159 -160z" />
    <glyph glyph-name="swords-laser" unicode="swords&#x2d;laser" horiz-adv-x="2560" 
d="M1888 1659l-378 -347q-18 -17 -43 -17t-43 17q-21 19 -21 47t21 47l378 348q43 38 103 38h3q41 -2 76 -27.5t52 -62.5q17 -39 9.5 -80t-35.5 -67l-299 -325q-22 -25 -57 -20q0 1 -1 1q-37 6 -50 41.5t13 63.5l300 325q4 2 4 9t-5 12q-3 6 -11 6q-4 0 -16 -9zM1052 699
q22 21 50.5 21t47.5 -21q16 -18 16 -43.5t-16 -43.5l-76 -82l62 -61q10 -10 10 -19q0 -12 -10 -22l-45 -49q-9 -10 -22 -10.5t-23 9.5l-23 23l-227 -226q10 -10 10 -22q0 -13 -10 -23l-320 -320q-64 -64 -154.5 -64t-154.5 64l-103 103q-64 64 -64 154t64 154l320 321
q10 9 23.5 9t22.5 -9l4 -5l227 226l-23 26q-9 9 -9 23t9 19l45 49q9 10 22.5 10t23.5 -10l57 -60l90 83q20 18 46.5 17t44.5 -21t17 -46t-21 -44l-87 -80l104 -108zM386 -96l252 245l-230 231l-254 -253q-26 -20 -26 -60q0 -33 26 -64l104 -99q26 -26 63.5 -26t64.5 26z
M706 266l46 45l-181 181l-46 -45zM796 360l46 41l-181 181l-45 -45zM887 446l46 46l-181 181l-46 -45zM2492 220q68 -63 68 -155q0 -84 -64 -154l-103 -103q-65 -64 -155 -64t-154 64l-529 529q-19 19 -19 45v88l-2 -1l-984 1077q-40 44 -38 105q1 42 26 77t64 52
q39 16 81 9t74 -36l778 -721q5 39 41.5 52.5t65.5 -14.5zM1536 656v204l-866 798q-12 17 -24 0q-5 -5 -5 -14t4 -12zM1664 408l159 -158l231 230l-390 390v-462zM2302 -101l23 23l-324 325l-87 -88l260 -260q27 -26 64 -26t64 26zM2406 2q27 26 26.5 63.5t-27.5 63.5
l-261 261l-87 -87l325 -325z" />
    <glyph glyph-name="telescope" unicode="telescope" horiz-adv-x="2560" 
d="M1696 722q28 9 52.5 -3t32.5 -38q8 -25 -3.5 -49t-36.5 -32l-181 -60q-14 -102 -85 -170l181 -542q8 -25 -4 -49t-37 -32q-11 -3 -20 -3q-21 0 -37.5 12t-23.5 32l-171 515q-47 -15 -88 -15q-40 0 -87 15l-172 -515q-7 -20 -23.5 -32t-37.5 -12q-11 0 -20 4
q-25 8 -36.5 32t-3.5 49l180 541q-12 12 -22 25l-527 -157q-23 -7 -41 -7q-37 0 -68.5 20t-45.5 54q-7 18 -70.5 177.5t-75.5 188.5q-18 44 0.5 90t63.5 68l1116 573q24 12 49 4t37 -32q10 -24 2.5 -49t-30.5 -37l-1121 -573q124 -313 144 -361l506 157q-8 34 -8 66
q0 119 84.5 203.5t203.5 84.5q93 0 167 -54.5t104 -140.5zM1275 416q66 0 113 47t47 113t-47 113.5t-113 47.5t-113 -47.5t-47 -113.5t47 -113t113 -47zM123 502l73 -175q10 -25 0 -49t-35 -35q-11 -4 -24 -4q-43 0 -59 39l-73 176q-10 25 -0.5 48.5t34.5 34.5q24 10 48.5 0
t35.5 -35zM2551 980q9 -25 9 -45q0 -35 -21 -67t-54 -45l-417 -173q-21 -9 -47 -9q-35 0 -66 21t-45 53l-306 738q-9 20 -9 46q0 35 21.5 66.5t53.5 45.5l418 173q45 18 92.5 -2.5t65.5 -63.5zM2024 768l402 174l-302 731l-409 -177z" />
    <glyph glyph-name="temperature-arrow-down" unicode="temperature&#x2d;arrow&#x2d;down" 
d="M636 373q67 -24 104 -84t25 -126q-11 -69 -64.5 -114t-124.5 -45t-124.5 44t-64.5 115q-12 68 24.5 129t100.5 85v203q0 24 20 42t44 18t42 -19t18 -45v-203zM892 1472l4 -967q129 -132 127.5 -316.5t-132.5 -314.5t-315 -130t-315 130t-132.5 314.5t127.5 316.5v967
q0 132 94 226t226 94t224 -94t92 -226zM880 92q32 98 1.5 196t-113.5 160v1024q0 80 -56 136t-136 56t-136 -56t-56 -136v-1024q-82 -61 -112.5 -160t1.5 -196q32 -98 116 -158.5t187 -60.5t185.5 60.5t118.5 158.5zM2029 365q19 -19 19 -45t-19 -45l-384 -384
q-19 -19 -45 -19t-45 19l-384 384q-19 19 -19 45t19 45q18 19 45 19q26 0 45 -19l275 -275v1510q0 26 19 45t45 19t45 -19t19 -45v-1510l275 275q19 19 45 19t45 -19z" />
    <glyph glyph-name="temperature-arrow-up" unicode="temperature&#x2d;arrow&#x2d;up" 
d="M892 1472l4 -967q129 -132 127.5 -316.5t-132.5 -314.5t-315 -130t-315 130t-132.5 314.5t127.5 316.5v967q0 132 94 226t226 94t224 -94t92 -226zM880 92q32 98 1.5 196t-113.5 160v1024q0 80 -56 136t-136 56t-136 -56t-56 -136v-1024q-82 -61 -112.5 -160t1.5 -196
q32 -98 116 -158.5t187 -60.5t185.5 60.5t118.5 158.5zM636 373q67 -24 104 -84t25 -126q-11 -69 -64.5 -114t-124.5 -45t-124.5 43.5t-64.5 112.5q-12 68 24.5 128.5t100.5 84.5v1099q0 26 19.5 45t44.5 19q24 0 42 -19t18 -45v-1099zM2029 1261q19 -19 19 -45t-19 -45
q-18 -19 -45 -19q-26 0 -45 19l-275 274v-1509q0 -26 -19 -45t-45 -19t-45 19t-19 45v1509l-275 -274q-19 -19 -45 -19t-45 19t-19 45t19 45l384 384q19 19 45 19t45 -19z" />
    <glyph glyph-name="trailer" unicode="trailer" horiz-adv-x="2560" 
d="M448 1408q-26 0 -45 -19t-19 -45v-512q0 -26 19 -45t45 -19t45 19t19 45v512q0 26 -19 45t-45 19zM832 1408q-26 0 -45 -19t-19 -45v-512q0 -26 19 -45t45 -19t45 19t19 45v512q0 26 -19 45t-45 19zM1216 1408q-26 0 -45 -19t-19 -45v-640q0 -26 19 -45t45 -19t45 19
t19 45v640q0 26 -19 45t-45 19zM1600 1408q-26 0 -45 -19t-19 -45v-640q0 -26 19 -45t45 -19t45 19t19 45v640q0 26 -19 45t-45 19zM768 -128q159 0 271.5 112.5t112.5 271.5h1312q26 0 45 19t19 45t-19 45t-45 19h-416v1056q0 93 -65.5 158.5t-158.5 65.5h-1600
q-93 0 -158.5 -65.5t-65.5 -158.5v-960q0 -93 65.5 -158.5t158.5 -65.5h160q0 -160 111.5 -272t272.5 -112zM224 1536h1600q40 0 68 -28t28 -68v-1056h-790q-39 113 -138.5 184.5t-223.5 71.5t-223.5 -71.5t-138.5 -184.5h-182q-40 0 -68 28t-28 68v960q0 40 28 68t68 28z
M512 256q0 106 75 181t181 75t181 -75t75 -181t-75 -181t-181 -75t-181 75t-75 181z" />
    <glyph glyph-name="transporter" unicode="transporter" 
d="M497 663q-16 -20 -43 -22.5t-47 14.5t-22.5 43.5t14.5 46.5l205 246q65 77 154 119t186 42h156q100 0 190 -42t154 -119l205 -246q17 -20 14.5 -46.5t-22.5 -43.5q-18 -15 -41 -15q-29 0 -49 23l-205 246q-26 31 -66 58v-775q0 -26 -19 -45t-45 -19t-45 19t-19 45v826
q-34 6 -55 6h-153q-14 0 -48 -6v-826q0 -26 -19 -45t-45 -19t-45 19t-19 45v775q-34 -20 -66 -58zM1024 1280q-106 0 -181 75t-75 181t75 181t181 75t181 -75t75 -181t-75 -181t-181 -75zM1024 1664q-53 0 -90.5 -37.5t-37.5 -90.5t37.5 -90.5t90.5 -37.5t90.5 37.5
t37.5 90.5t-37.5 90.5t-90.5 37.5zM320 1408q26 0 45 -19t19 -45t-19 -45t-45 -19h-64v-64q0 -26 -19 -45t-45 -19t-45 19t-19 45v64h-64q-26 0 -45 19t-19 45t19 45t45 19h64v64q0 26 19 45t45 19t45 -19t19 -45v-64h64zM1984 1664q26 0 45 -19t19 -45t-19 -45t-45 -19h-64
v-64q0 -26 -19 -45t-45 -19t-45 19t-19 45v64h-64q-26 0 -45 19t-19 45t19 45t45 19h64v64q0 26 19 45t45 19t45 -19t19 -45v-64h64zM1472 0q80 0 136 -56t56 -136q0 -26 -19 -45t-45 -19t-45 19t-19 45t-19 45t-45 19h-896q-26 0 -45 -19t-19 -45t-19 -45t-45 -19t-45 19
t-19 45q0 80 56 136t136 56h896z" />
    <glyph glyph-name="transporter-1" unicode="transporter&#x2d;&#x31;" 
d="M497 663q-17 -20 -43.5 -22.5t-46.5 14.5t-22.5 43.5t14.5 46.5l205 246q65 77 154 119t186 42h156q100 0 190 -42t154 -119l205 -246q17 -20 14.5 -46.5t-22.5 -43.5q-18 -15 -41 -15q-29 0 -49 23l-205 246q-26 31 -66 58v-263q0 -26 -19 -45t-45 -19t-45 19t-19 45
v314q-34 6 -55 6h-153q-14 0 -48 -6v-314q0 -26 -19 -45t-45 -19t-45 19t-19 45v263q-34 -20 -66 -58zM1344 512q26 0 45 -19t19 -45t-19 -45t-45 -19h-640q-26 0 -45 19t-19 45t19 45t45 19h640zM1984 1152q26 0 45 -19t19 -45t-19 -45t-45 -19h-64v-64q0 -26 -19 -45
t-45 -19t-45 19t-19 45v64h-64q-26 0 -45 19t-19 45t19 45t45 19h64v64q0 26 19 45t45 19t45 -19t19 -45v-64h64zM1024 1280q-106 0 -181 75t-75 181t75 181t181 75t181 -75t75 -181t-75 -181t-181 -75zM1024 1664q-53 0 -90.5 -37.5t-37.5 -90.5t37.5 -90.5t90.5 -37.5
t90.5 37.5t37.5 90.5t-37.5 90.5t-90.5 37.5zM1472 0q80 0 136 -56t56 -136q0 -26 -19 -45t-45 -19t-45 19t-19 45t-19 45t-45 19h-896q-26 0 -45 -19t-19 -45t-19 -45t-45 -19t-45 19t-19 45q0 80 56 136t136 56h896zM1344 256q26 0 45 -19t19 -45t-19 -45t-45 -19h-640
q-26 0 -45 19t-19 45t19 45t45 19h640zM320 384q26 0 45 -19t19 -45t-19 -45t-45 -19h-64v-64q0 -26 -19 -45t-45 -19t-45 19t-19 45v64h-64q-26 0 -45 19t-19 45t19 45t45 19h64v64q0 26 19 45t45 19t45 -19t19 -45v-64h64z" />
    <glyph glyph-name="transporter-2" unicode="transporter&#x2d;&#x32;" 
d="M448 640q-26 0 -45 19t-19 45t19 45t45 19h1152q26 0 45 -19t19 -45t-19 -45t-45 -19h-1152zM702 909q-17 -20 -44 -22.5t-50 14.5q-18 17 -19 43.5t15 46.5q65 77 154 119t186 42h156q101 0 190.5 -42.5t150.5 -118.5q17 -20 14.5 -46.5t-22.5 -43.5q-18 -15 -41 -15
q-30 0 -50 23q-46 55 -110 85t-135 30h-153q-69 0 -132.5 -30t-109.5 -85zM1024 1280q-106 0 -181 75t-75 181t75 181t181 75t181 -75t75 -181t-75 -181t-181 -75zM1024 1664q-53 0 -90.5 -37.5t-37.5 -90.5t37.5 -90.5t90.5 -37.5t90.5 37.5t37.5 90.5t-37.5 90.5
t-90.5 37.5zM1344 512q26 0 45 -19t19 -45t-19 -45t-45 -19h-640q-26 0 -45 19t-19 45t19 45t45 19h640zM320 1664q26 0 45 -19t19 -45t-19 -45t-45 -19h-64v-64q0 -26 -19 -45t-45 -19t-45 19t-19 45v64h-64q-26 0 -45 19t-19 45t19 45t45 19h64v64q0 26 19 45t45 19
t45 -19t19 -45v-64h64zM1984 384q26 0 45 -19t19 -45t-19 -45t-45 -19h-64v-64q0 -26 -19 -45t-45 -19t-45 19t-19 45v64h-64q-26 0 -45 19t-19 45t19 45t45 19h64v64q0 26 19 45t45 19t45 -19t19 -45v-64h64zM1472 0q80 0 136 -56t56 -136q0 -26 -19 -45t-45 -19t-45 19
t-19 45t-19 45t-45 19h-896q-26 0 -45 -19t-19 -45t-19 -45t-45 -19t-45 19t-19 45q0 80 56 136t136 56h896zM1344 256q26 0 45 -19t19 -45t-19 -45t-45 -19h-640q-26 0 -45 19t-19 45t19 45t45 19h640z" />
    <glyph glyph-name="transporter-3" unicode="transporter&#x2d;&#x33;" 
d="M576 896q-26 0 -45 19t-19 45t19 45t45 19h896q26 0 45 -19t19 -45t-19 -45t-45 -19h-896zM704 1152q-26 0 -45 19t-19 45t19 45t45 19h640q26 0 45 -19t19 -45t-19 -45t-45 -19h-640zM320 1280q26 0 45 -19t19 -45t-19 -45t-45 -19h-64v-64q0 -26 -19 -45t-45 -19
t-45 19t-19 45v64h-64q-26 0 -45 19t-19 45t19 45t45 19h64v64q0 26 19 45t45 19t45 -19t19 -45v-64h64zM864 1412q-25 -9 -49 2.5t-33 36.5q-14 38 -14 85q0 106 75 181t181 75t181 -75t75 -181q0 -47 -14 -85q-7 -19 -24 -31t-37 -12q-7 0 -21 4q-25 9 -36.5 32.5
t-2.5 48.5q7 20 7 43q0 53 -37.5 90.5t-90.5 37.5t-90.5 -37.5t-37.5 -90.5q0 -23 7 -43q9 -25 -2.5 -48.5t-36.5 -32.5zM1600 768q26 0 45 -19t19 -45t-19 -45t-45 -19h-1152q-26 0 -45 19t-19 45t19 45t45 19h1152zM1472 0q80 0 136 -56t56 -136q0 -26 -19 -45t-45 -19
t-45 19t-19 45t-19 45t-45 19h-896q-26 0 -45 -19t-19 -45t-19 -45t-45 -19t-45 19t-19 45q0 80 56 136t136 56h896zM704 384q-26 0 -45 19t-19 45t19 45t45 19h640q26 0 45 -19t19 -45t-19 -45t-45 -19h-640zM1984 1664q26 0 45 -19t19 -45t-19 -45t-45 -19h-64v-64
q0 -26 -19 -45t-45 -19t-45 19t-19 45v64h-64q-26 0 -45 19t-19 45t19 45t45 19h64v64q0 26 19 45t45 19t45 -19t19 -45v-64h64zM704 128q-26 0 -45 19t-19 45t19 45t45 19h640q26 0 45 -19t19 -45t-19 -45t-45 -19h-640z" />
    <glyph glyph-name="transporter-empty" unicode="transporter&#x2d;empty" horiz-adv-x="1280" 
d="M1088 0q80 0 136 -56t56 -136q0 -26 -19 -45t-45 -19t-45 19t-19 45t-19 45t-45 19h-896q-26 0 -45 -19t-19 -45t-19 -45t-45 -19t-45 19t-19 45q0 80 56 136t136 56h896z" />
    <glyph glyph-name="ufo" unicode="ufo" horiz-adv-x="2560" 
d="M604 544q0 40 -27 68t-69 28q-38 0 -67 -28.5t-29 -67.5t29 -67.5t67 -28.5q42 0 69 28t27 68zM1376 352q0 40 -29 68t-71 28q-38 0 -67 -28.5t-29 -67.5t29 -67.5t67 -28.5q42 0 71 28t29 68zM1952 544q0 -40 28 -68t68 -28t68 28t28 68t-28 68t-68 28t-68 -28t-28 -68z
M2360 892q-173 120 -469 192q-62 201 -231.5 326.5t-379.5 125.5t-379.5 -125.5t-231.5 -326.5q-294 -70 -468 -192q-201 -140 -201 -316q0 -131 114 -245q101 -101 281 -176q175 -73 404 -114t481 -41t480.5 41t404.5 114q181 76 281 176q114 112 114 245q0 177 -200 316z
M706 839l-46 -44l-4 -1h4h1q1 0 1 -1t1 -2q6 -6 8 -7q8 -8 28 -23q33 -28 111 -64q193 -89 470 -89t470 89q61 28 111 64q20 15 28 23q2 2 4.5 4t3.5 3l1 1q0 2 1 2h-3h4v1v0l-46 44l46 -44q16 16 18 38q5 58 0 113q227 -61 368 -159q146 -103 146 -211q0 -78 -77 -154
q-83 -83 -240 -149q-163 -68 -378.5 -106.5t-456.5 -38.5t-456.5 38.5t-378.5 106.5q-157 66 -240 149q-77 76 -77 154q0 108 146 211q141 98 368 159q-5 -55 0 -113q2 -22 18 -38zM1807 883v-1l1 1h-1zM1276 1408q106 0 203 -41.5t167 -112.5t110 -172t36 -213q-4 -4 -7 -1
q-31 -28 -88 -54q-170 -78 -421 -78q-243 0 -413 78q-57 26 -88 54q-3 -3 -7 1q-4 112 35.5 213t109 172t165 112.5t198.5 41.5z" />
    <glyph glyph-name="ufo-beam" unicode="ufo&#x2d;beam" horiz-adv-x="2304" 
d="M1056 800q0 -40 28 -68t68 -28t68 28t28 68t-28 68t-68 28t-68 -28t-28 -68zM480 992q0 40 -28 68t-68 28t-68 -28t-28 -68t28 -68t68 -28t68 28t28 68zM1824 992q0 -40 28 -68t68 -28t68 28t28 68t-28 68t-68 28t-68 -28t-28 -68zM1152 1792q-195 0 -356 -109t-222 -285
q-244 -56 -389 -147q-185 -117 -185 -265q0 -113 107 -208q95 -84 253 -138q326 -128 792 -128q469 0 788 128q162 53 257 138q107 102 107 208q0 149 -185 265q-152 92 -389 147q-61 176 -222 285t-356 109zM546 1165q2 -22 19 -40l45 46l-45 -46v0h1v-1l3 -2q1 1 4 -3
q2 -3 3 -4q12 -10 27 -20q46 -32 105 -57q183 -78 444 -78t444 78q59 25 105 57q15 10 27 20q1 1 2.5 3.5t2.5 3.5t2 0l3 2v1h1l-45 46l45 -46q17 17 19 40q4 39 0 95q181 -48 293 -118q125 -79 125 -156q0 -56 -68 -112q-82 -71 -209 -118q-307 -116 -747 -116t-747 116
q-124 46 -213 118q-64 57 -64 112q0 77 125 156q112 70 293 118q-4 -56 0 -95zM672 1203q-4 126 60 232.5t176 167.5t244 61t243.5 -61t175 -167t61.5 -233l-4 -3q-44 -28 -82 -44q-161 -68 -394 -68t-394 68q-38 16 -82 44zM415 440q-23 13 -48.5 5.5t-38.5 -30.5
l-320 -576q-13 -21 -5.5 -47t30.5 -36q23 -15 48.5 -9t38.5 30l316 576q15 23 9 48.5t-30 38.5zM1889 440q-23 -13 -30.5 -38.5t5.5 -48.5l320 -576q13 -24 38.5 -30t48.5 9q23 11 30 36.5t-9 46.5l-320 576q-10 23 -36 30.5t-47 -5.5z" />
    <glyph glyph-name="user-alien" unicode="user&#x2d;alien" horiz-adv-x="1792" 
d="M827 280q-63 48 -124.5 101t-146.5 142t-147.5 175.5t-107.5 194t-45 205.5q0 158 50 289.5t137 219.5t203.5 136.5t249.5 48.5q132 0 249 -48.5t203.5 -136.5t137 -219.5t50.5 -289.5q0 -98 -44.5 -205.5t-107.5 -194t-147.5 -174.5t-147.5 -141.5t-124 -99.5
q-29 -23 -69 -23q-44 0 -69 20zM896 1664q-230 0 -371 -156t-141 -410q0 -81 41.5 -174t99.5 -169.5t135 -155.5t131 -125t105 -86q52 40 105 85.5t130.5 125t135 155.5t99.5 169.5t42 174.5q0 254 -141 410t-371 156zM768 896q-10 0 -20 3l-192 64q-25 8 -37 31.5t-4 49.5
q8 25 31.5 37t49.5 4l192 -64q25 -8 37 -31.5t4 -49.5q-7 -20 -23.5 -32t-37.5 -12zM1024 896q-21 0 -37.5 12t-23.5 32q-8 26 4 49.5t37 31.5l192 64q26 8 49.5 -4t31.5 -37q8 -26 -4 -49.5t-37 -31.5l-192 -64q-11 -3 -20 -3zM1280 384q104 0 198.5 -40.5t163.5 -109.5
t109.5 -163.5t40.5 -198.5q0 -53 -37.5 -90.5t-90.5 -37.5h-1536q-53 0 -90.5 38.5t-37.5 93.5q0 209 150.5 358.5t361.5 149.5q26 0 45 -19t19 -45t-19 -45t-45 -19q-159 0 -271.5 -112.5t-112.5 -271.5h1536q0 159 -112.5 271.5t-271.5 112.5q-26 0 -45 19t-19 45t19 45
t45 19z" />
    <glyph glyph-name="user-robot" unicode="user&#x2d;robot" horiz-adv-x="1792" 
d="M448 1152q0 -80 56 -136t136 -56t136 56t56 136t-56 136t-136 56t-136 -56t-56 -136zM640 1216q26 0 45 -19t19 -45t-19 -45t-45 -19t-45 19t-19 45t19 45t45 19zM1344 1152q0 80 -56 136t-136 56t-136 -56t-56 -136t56 -136t136 -56t136 56t56 136zM1152 1088
q-26 0 -45 19t-19 45t19 45t45 19t45 -19t19 -45t-19 -45t-45 -19zM960 1536v192q0 26 -19 45t-45 19t-45 -19t-19 -45v-192h-256q-133 0 -226.5 -93.5t-93.5 -226.5v-384q0 -133 93.5 -226.5t226.5 -93.5h640q133 0 226.5 93.5t93.5 226.5v384q0 133 -93.5 226.5
t-226.5 93.5h-256zM384 832v384q0 80 56 136t136 56h640q80 0 136 -56t56 -136v-384q0 -80 -56 -136t-136 -56v128q0 26 -19 45t-45 19t-45 -19t-19 -45v-128h-128v128q0 26 -19 45t-45 19t-45 -19t-19 -45v-128h-128v128q0 26 -19 45t-45 19t-45 -19t-19 -45v-128
q-80 0 -136 56t-56 136zM128 1216q0 26 -19 45t-45 19t-45 -19t-19 -45v-384q0 -26 19 -45t45 -19t45 19t19 45v384zM1792 832v384q0 26 -19 45t-45 19t-45 -19t-19 -45v-384q0 -26 19 -45t45 -19t45 19t19 45zM192 -256h384q0 -26 19 -45t45 -19t45 19t19 45h896
q80 0 136 56t56 136v64q0 161 -112 272.5t-272 111.5h-1024q-160 0 -272 -111.5t-112 -272.5v-64q0 -80 56 -136t136 -56zM384 256h1024q106 0 181 -75t75 -181v-64q0 -26 -19 -45t-45 -19h-128v128q0 53 -37.5 90.5t-90.5 37.5h-896q-53 0 -90.5 -37.5t-37.5 -90.5v-128
h-128q-26 0 -45 19t-19 45v64q0 106 75 181t181 75zM832 0v-128h-128v128h128zM448 -128v128h128v-128h-128zM960 -128v128h128v-128h-128zM1344 0v-128h-128v128h128z" />
    </font>
</defs>
</svg>
