<?xml version="1.0" standalone="no"?>
<!DOCTYPE svg PUBLIC "-//W3C//DTD SVG 1.1//EN" "http://www.w3.org/Graphics/SVG/1.1/DTD/svg11.dtd" >
<svg xmlns="http://www.w3.org/2000/svg" xmlns:xlink="http://www.w3.org/1999/xlink" version="1.1">
<metadata>
Created by FontForge 20201107 at Fri Sep  6 19:03:51 2024
 By 
Copyright (c) Font Awesome
</metadata>
<defs>
<font id="FontAwesome6Pro-Regular" horiz-adv-x="2048" >
  <font-face 
    font-family="Font Awesome 6 Pro Regular"
    font-weight="400"
    font-stretch="normal"
    units-per-em="2048"
    panose-1="2 0 5 3 0 0 0 0 0 0"
    ascent="1792"
    descent="-256"
    x-height="1657.5"
    bbox="-7 -288 2561.39 1856"
    underline-thickness="0"
    underline-position="0"
    unicode-range="U+0020-1FAE5"
  />
<missing-glyph horiz-adv-x="1536" 
d="M1344 1792q80 0 136 -56t56 -136v-1664q0 -80 -56 -136t-136 -56h-1152q-80 0 -136 56t-56 136v1664q0 80 56 136t136 56h1152zM1344 1431l-459 -663l459 -663v1326zM768 937l459 663h-918zM651 768l-459 663v-1326zM768 599l-459 -663h918z" />
    <glyph glyph-name="exclamation" unicode="exclamation" horiz-adv-x="512" 
d="M256 320q-40 0 -68 28t-28 68v1152q0 40 28 68t68 28t68 -28t28 -68v-1152q0 -40 -28 -68t-68 -28zM256 128q53 0 90.5 -37.5t37.5 -90.5t-37.5 -90.5t-90.5 -37.5t-90.5 37.5t-37.5 90.5t37.5 90.5t90.5 37.5z" />
    <glyph glyph-name="ditto" unicode="ditto" horiz-adv-x="1280" 
d="M256 1664q122 0 196 -92q78 -97 56 -219l-101 -581q-10 -57 -53 -94.5t-98 -37.5t-98 37.5t-53 94.5l-101 580q-22 123 56 220q74 92 196 92zM252 1025l67 361q6 39 -17 67q-15 19 -46 19t-46 -19q-23 -28 -17 -67zM1220 1572q78 -98 52 -219l-101 -581
q-10 -56 -53.5 -94t-97.5 -38q-53 0 -95.5 37.5t-55.5 94.5l-100 581q-22 123 55 219q74 92 196 92q126 0 200 -92zM1020 1025l63 361q7 40 -16 67q-15 19 -47 19q-27 0 -46 -19q-23 -27 -16 -67z" />
    <glyph glyph-name="hashtag" unicode="hashtag" horiz-adv-x="1792" 
d="M1696 1248q40 0 68 -29t28 -71q0 -37 -28.5 -64.5t-67.5 -27.5l-331 -4l-103 -576h306q40 0 68 -28t28 -68q0 -37 -28.5 -64.5t-67.5 -27.5h-341l-61 -337q-6 -34 -32.5 -56.5t-61.5 -22.5q-11 0 -17 1q-39 7 -62 40t-16 72l55 303h-445l-61 -337q-6 -34 -32.5 -56.5
t-61.5 -22.5q-11 0 -17 1q-39 7 -61.5 40t-15.5 72l54 303h-296q-40 0 -68 28t-28 68t28 68t68 28h331l103 576h-306q-40 0 -68 28t-28 68t28 68t68 28h341l61 337q7 39 39.5 62t71.5 16t62 -40t16 -72l-55 -303h445l60 337q8 39 40.5 62t71.5 16t61.5 -40t15.5 -72
l-54 -303h296zM1067 484l103 576h-444l-104 -576h445z" />
    <glyph glyph-name="dollar-sign" unicode="dollar&#x2d;sign" horiz-adv-x="1280" 
d="M736 1498v198q0 40 -28 68t-68 28t-68 -28t-28 -68v-191q-6 -1 -18.5 -1t-18.5 -1q-164 -14 -269 -81q-136 -87 -166 -247q-25 -124 24 -220q43 -86 140 -145q49 -30 120.5 -57.5t117.5 -40.5t133 -35l9 -2q246 -61 327 -112q51 -31 69 -67q19 -38 8 -99
q-18 -93 -138 -139q-140 -54 -351 -24q-75 11 -173.5 36t-158.5 52q-36 16 -73 2t-54 -50q-16 -36 -1.5 -73t50.5 -54q74 -33 185.5 -62t193.5 -41h4q7 -1 20 -2.5t20 -2.5v-199q0 -40 28 -68t68 -28t68 28t28 68v194q122 8 214 44q101 38 169.5 109.5t88.5 173.5
q20 135 -24 220q-43 86 -140 145q-49 30 -120.5 57.5t-117.5 40.5t-133 35l-9 2q-242 59 -327 112q-51 31 -69 67q-19 39 -8 99q16 79 81 121q59 41 181 51q179 15 456 -50q39 -9 73 11.5t43 59.5q9 41 -12 74t-60 42q-152 36 -286 50z" />
    <glyph glyph-name="percent" unicode="percentage" horiz-adv-x="1536" 
d="M1504 1508q30 -28 31 -68t-27 -68l-1344 -1344q-28 -28 -68 -28q-39 0 -71 28q-29 28 -29 68t29 68l1344 1344q29 28 68 28t67 -28zM256 1088q-80 0 -136 56t-56 136t56 136t136 56t136 -56t56 -136t-56 -136t-136 -56zM1280 448q80 0 136 -56t56 -136t-56 -136t-136 -56
t-136 56t-56 136t56 136t136 56z" />
    <glyph glyph-name="ampersand" unicode="ampersand" horiz-adv-x="1536" 
d="M1440 -128q38 0 67 27q29 28 29.5 67.5t-27.5 68.5l-272 279l283 433q22 33 13.5 72t-41.5 61t-71.5 14t-60.5 -41l-260 -398l-346 356l246 181q71 53 111.5 132.5t40.5 167.5q0 154 -109 263t-263 109h-216q-154 0 -263 -109t-109 -263q0 -180 125 -307l145 -150
l-293 -214q-79 -58 -124 -147t-45 -188q0 -171 121.5 -292.5t293.5 -121.5h309q105 0 197 50t150 138l58 90l242 -249q29 -29 69 -29zM597 696l395 -405l-82 -126q-31 -47 -80 -74t-106 -27h-309q-92 0 -157.5 65t-65.5 157q0 53 24 100.5t67 79.5zM564 1472h212
q77 0 130.5 -52.5t53.5 -127.5q0 -90 -74 -145l-268 -197l-164 169q-70 73 -70 173q0 74 53 127t127 53z" />
    <glyph glyph-name="apostrophe" unicode="apostrophe" horiz-adv-x="768" 
d="M384 1664q159 0 271.5 -112.5t112.5 -271.5v-416q0 -130 -64.5 -240.5t-175 -175t-240.5 -64.5h-64q-40 0 -68 28t-28 68t28 68t68 28h64q119 0 203.5 84.5t84.5 203.5v85q-92 -53 -192 -53q-159 0 -271.5 112.5t-112.5 271.5t112.5 271.5t271.5 112.5zM384 1088
q80 0 136 56t56 136t-56 136t-136 56t-136 -56t-56 -136t56 -136t136 -56z" />
    <glyph glyph-name="bracket-round" unicode="bracket&#x2d;round" horiz-adv-x="768" 
d="M626 -81q20 37 10.5 74t-43.5 57q-13 8 -28 18.5t-57.5 46t-79.5 74.5t-82.5 102.5t-77.5 130.5t-54 158.5t-22 187.5t22 187t54 158.5t77 130.5t82 102t79 74t58.5 46.5t28.5 18.5q34 20 44 59t-10 73t-58.5 43.5t-73.5 -10.5q-14 -9 -34.5 -22.5t-72 -56t-97.5 -90.5
t-101.5 -125.5t-95.5 -160.5t-67 -195.5t-27 -231.5t27 -231.5t67 -195.5t95.5 -160.5t101.5 -125.5t97.5 -90.5t72 -56t34.5 -22.5q23 -14 49 -14q54 0 82 47z" />
    <glyph glyph-name="bracket-round-right" unicode="bracket&#x2d;round&#x2d;right" horiz-adv-x="768" 
d="M175 50q-34 -20 -43.5 -57t10.5 -74q28 -47 82 -47q26 0 49 14q14 9 34.5 22.5t72 56t97.5 90.5t101.5 125.5t95.5 160.5t67 195.5t27 231.5t-27 231.5t-67 195.5t-95.5 160.5t-101.5 126t-97.5 91t-72 56.5t-34.5 22q-35 20 -73 10t-58 -44t-10.5 -72.5t43.5 -58.5
q10 -6 28.5 -18.5t59 -46.5t79 -74.5t82.5 -103t76.5 -130.5t54 -158.5t21.5 -186.5t-22 -187.5t-54 -158.5t-77.5 -130.5t-82.5 -102.5t-79.5 -74.5t-57.5 -46t-28 -18.5z" />
    <glyph glyph-name="asterisk" unicode="asterisk" horiz-adv-x="1792" 
d="M1668 320q23 34 12.5 73t-47.5 58l-549 317l549 317q34 19 44.5 58t-9.5 73q-17 35 -54.5 45t-72.5 -10l-549 -317v634q0 40 -28 68t-68 28t-68 -28t-28 -68v-634l-549 317q-35 20 -73.5 10t-61.5 -45q-18 -34 -6.5 -73t45.5 -58l549 -317l-549 -317q-34 -19 -44.5 -58
t9.5 -73q28 -48 83 -48q9 0 48 13l549 317v-634q0 -39 31 -67.5t69 -28.5q37 0 64.5 28.5t27.5 67.5v634l545 -317q22 -13 48 -13q55 0 83 48z" />
    <glyph glyph-name="plus" unicode="add" horiz-adv-x="1792" 
d="M1728 768q0 40 -28 68t-68 28h-640v640q0 40 -28 68t-68 28t-68 -28t-28 -68v-640h-640q-40 0 -68 -28t-28 -68t28 -68t68 -28h640v-640q0 -40 28 -68t68 -28t68 28t28 68v640h640q40 0 68 28t28 68z" />
    <glyph glyph-name="comma" unicode="comma" horiz-adv-x="768" 
d="M626 482q38 -108 -19 -201l-271 -461q-20 -34 -53.5 -53t-72.5 -19q-35 0 -46 5q-50 18 -76.5 63.5t-17.5 97.5l90 527q19 112 118 169q51 30 115 30q75 0 141 -43.5t92 -114.5zM441 375q12 19 4 46q-4 13 -21 22t-35 9q-3 -2 -9.5 -4.5t-8.5 -3.5q-20 -12 -25 -35
l-48 -278z" />
    <glyph glyph-name="hyphen" unicode="hyphen" horiz-adv-x="1280" 
d="M1280 768q0 40 -28 68t-68 28h-1088q-40 0 -68 -28t-28 -68t28 -68t68 -28h1088q40 0 68 28t28 68z" />
    <glyph glyph-name="period" unicode="period" horiz-adv-x="512" 
d="M256 384q106 0 181 -75t75 -181t-75 -181t-181 -75t-181 75t-75 181t75 181t181 75zM256 64q26 0 45 19t19 45t-19 45t-45 19t-45 -19t-19 -45t19 -45t45 -19z" />
    <glyph glyph-name="slash-forward" unicode="slash&#x2d;forward" horiz-adv-x="1280" 
d="M96 -256q55 0 83 47l1088 1856q20 35 10 73.5t-45 58.5t-73 10t-58 -45l-1088 -1856q-20 -35 -10 -73t45 -58q22 -13 48 -13z" />
    <glyph glyph-name="colon" unicode="colon" horiz-adv-x="512" 
d="M256 1024q-106 0 -181 75t-75 181t75 181t181 75t181 -75t75 -181t-75 -181t-181 -75zM256 1344q-26 0 -45 -19t-19 -45t19 -45t45 -19t45 19t19 45t-19 45t-45 19zM256 512q106 0 181 -75t75 -181t-75 -181t-181 -75t-181 75t-75 181t75 181t181 75zM256 192q26 0 45 19
t19 45t-19 45t-45 19t-45 -19t-19 -45t19 -45t45 -19z" />
    <glyph glyph-name="semicolon" unicode="semicolon" horiz-adv-x="768" 
d="M389 644q76 0 143 -44.5t93 -113.5q39 -107 -18 -205l-271 -461q-20 -34 -53.5 -53t-72.5 -19q-37 0 -50 8q-49 18 -76 64t-18 98l90 526q19 112 118 169q53 31 115 31zM441 375q12 20 4 42q-4 13 -21 22t-35 9q-10 0 -18 -4q-20 -12 -25 -35l-48 -278zM384 1024
q-106 0 -180.5 75.5t-71.5 180.5q0 106 73.5 181t178.5 75q106 0 181 -75t75 -181t-75 -181t-181 -75zM384 1344q-26 0 -45 -19t-19 -45t19 -45t45 -19t45 19t19 45t-19 45t-45 19z" />
    <glyph glyph-name="less-than" unicode="less&#x2d;than" horiz-adv-x="1536" 
d="M1481 1321q36 20 49.5 56t-3.5 72t-55.5 49.5t-76.5 -3.5l-1344 -640q-25 -12 -39.5 -35.5t-14.5 -51.5t14.5 -51.5t39.5 -35.5l1344 -640q19 -9 41 -9q29 0 54 15.5t37 39.5q17 36 3.5 73.5t-49.5 54.5l-1162 553z" />
    <glyph glyph-name="equals" unicode="equals" horiz-adv-x="1792" 
d="M1632 480q40 0 68 -28t28 -68t-28 -68t-68 -28h-1472q-40 0 -68 28t-28 68t28 68t68 28h1472zM160 1056q-40 0 -68 28t-28 68t28 68t68 28h1472q40 0 68 -28t28 -68t-28 -68t-68 -28h-1472z" />
    <glyph glyph-name="greater-than" unicode="greater&#x2d;than" horiz-adv-x="1536" 
d="M1536 768q0 59 -55 86l-1344 640q-36 17 -73.5 4t-54.5 -49t-3.5 -73.5t49.5 -54.5l1162 -553l-1162 -553q-36 -17 -49.5 -54.5t3.5 -73.5q12 -26 35.5 -40.5t51.5 -14.5q24 0 41 9l1344 640q25 12 40 35.5t15 51.5z" />
    <glyph glyph-name="question" unicode="question" horiz-adv-x="1280" 
d="M576 128q53 0 90.5 -37.5t37.5 -90.5t-37.5 -90.5t-90.5 -37.5t-90.5 37.5t-37.5 90.5t37.5 90.5t90.5 37.5zM845 1664q180 0 307.5 -127.5t127.5 -307.5q0 -121 -63 -225t-170 -160l-289 -153q-40 -21 -63 -58.5t-23 -82.5v-70q0 -40 -28 -68t-68 -28t-68 28t-28 68v70
q0 99 49.5 182.5t138.5 128.5l290 153q60 32 95 89.5t35 125.5q0 101 -71 172t-172 71h-429q-93 0 -158.5 -65.5t-65.5 -158.5v-64q0 -40 -28 -68t-68 -28t-68 28t-28 68v64q0 172 122 294t294 122h429z" />
    <glyph glyph-name="at" unicode="at" 
d="M1054 1728q189 -4 361 -86.5t296.5 -217t198.5 -317t74 -380.5v-69q0 -153 -108 -261.5t-260 -108.5q-95 0 -176 46t-132 124q-131 -131 -316 -131q-121 0 -224.5 60t-163.5 162.5t-60 222.5t60 222t163.5 162t224.5 60q146 0 259 -87q5 35 31 58t62 23q40 0 68 -27
t28 -66v-466q0 -74 51.5 -126t124.5 -52t124.5 52t51.5 126v76q0 160 -59 307.5t-159 255.5t-237.5 174.5t-288.5 71.5q-158 5 -301 -50.5t-256 -165.5t-174 -254t-61 -303q0 -187 85 -352.5t235 -274.5t334 -137q39 -6 63 -38t18 -71q-5 -36 -32 -59t-63 -23q-9 0 -14 1
q-172 26 -324 112.5t-260.5 212.5t-171 290t-62.5 339q0 198 75.5 377.5t217.5 316.5q141 137 321.5 207t375.5 64zM992 512q106 0 181 74t75 178t-75 178.5t-181 74.5t-181 -74t-75 -179q0 -104 75 -178t181 -74z" />
    <glyph glyph-name="bracket-square" unicode="bracket&#x2d;square" horiz-adv-x="768" 
d="M480 1664q40 0 68 -28t28 -68t-28 -68t-68 -28h-288v-1408h288q39 0 67.5 -31t28.5 -69q0 -37 -28.5 -64.5t-67.5 -27.5h-352q-52 0 -90 38t-38 90v1536q0 52 38 90t90 38h352z" />
    <glyph glyph-name="slash-back" unicode="slash&#x2d;back" horiz-adv-x="1280" 
d="M1184 -256q27 0 49 13q34 20 44 59t-10 73l-1088 1856q-20 34 -58.5 44t-72.5 -10q-35 -20 -45 -58.5t10 -73.5l1088 -1856q27 -47 83 -47z" />
    <glyph glyph-name="bracket-square-right" unicode="bracket&#x2d;square&#x2d;right" horiz-adv-x="768" 
d="M192 1572q0 37 28.5 64.5t67.5 27.5h352q52 0 90 -38t38 -90v-1536q0 -52 -38 -90t-90 -38h-352q-39 0 -67.5 31t-28.5 69q0 37 27.5 64.5t64.5 27.5h292v1408h-292q-37 0 -64.5 29t-27.5 71z" />
    <glyph glyph-name="accent-grave" unicode="accent&#x2d;grave" horiz-adv-x="768" 
d="M161 1430q-58 100 -15 204q23 71 89.5 114.5t143.5 43.5q64 0 115 -30q99 -57 118 -169l90 -527q9 -52 -17.5 -97.5t-76.5 -63.5q-24 -9 -50 -9q-39 0 -72.5 19t-53.5 53zM323 1569q-8 -22 4 -42l143 -244l-48 277q-5 25 -24 36q-6 4 -19 4q-18 0 -35 -9t-21 -22z" />
    <glyph glyph-name="bracket-curly" unicode="bracket&#x2d;curly&#x2d;left" horiz-adv-x="1024" 
d="M800 1664q40 0 68 -28t28 -68t-28 -68t-68 -28h-320q-14 0 -23 -9t-9 -23v-310q0 -148 -104 -250l-112 -112l112 -112q104 -104 104 -250v-310q0 -14 9 -23t23 -9h320q40 0 68 -28t28 -68t-28 -68t-68 -28h-320q-93 0 -158.5 65.5t-65.5 158.5v310q0 66 -47 113l-181 181
q-28 28 -28 68t28 68l181 181q47 47 47 113v310q0 93 65.5 158.5t158.5 65.5h320z" />
    <glyph glyph-name="pipe" unicode="pipe" horiz-adv-x="256" 
d="M128 -256q40 0 68 28t28 68v1856q0 40 -28 68t-68 28t-68 -28t-28 -68v-1856q0 -40 28 -68t68 -28z" />
    <glyph glyph-name="bracket-curly-right" unicode="bracket&#x2d;curly&#x2d;right" horiz-adv-x="1024" 
d="M128 1572q0 37 27.5 64.5t64.5 27.5h324q93 0 158.5 -65.5t65.5 -158.5v-310q0 -66 47 -113l181 -181q28 -28 28 -68t-28 -68l-181 -181q-47 -47 -47 -113v-310q0 -93 -65.5 -158.5t-158.5 -65.5h-324q-36 0 -64 31t-28 69q0 37 27.5 64.5t64.5 27.5h324q14 0 23 9t9 23
v310q0 146 104 250l112 112l-112 112q-104 104 -104 250v310q0 14 -9 23t-23 9h-324q-37 0 -64.5 29t-27.5 71z" />
    <glyph glyph-name="tilde" unicode="tilde" horiz-adv-x="1792" 
d="M1792 1056q0 40 -28 68t-68 28t-68 -28t-28 -68v-355q0 -104 -74.5 -178.5t-178.5 -74.5q-66 0 -123.5 32.5t-91.5 88.5l-308 499q-60 98 -162 155t-217 57q-121 0 -223.5 -59.5t-162 -162t-59.5 -223.5v-355q0 -40 28 -68t68 -28t68 28t28 68v355q0 105 74 179t179 74
q65 0 122.5 -32t92.5 -88l308 -500q60 -98 162 -155t217 -57q90 0 172.5 35.5t142 95t95 142t35.5 172.5v355z" />
    <glyph glyph-name="sterling-sign" unicode="gbp" horiz-adv-x="1280" 
d="M384 896v259q0 131 93 224t224 93q53 0 100 -16l321 -107q36 -10 72.5 7t48.5 54q10 38 -7 73t-54 48l-320 107q-80 26 -161 26q-212 0 -360.5 -149t-148.5 -360v-259h-96q-40 0 -68 -28t-28 -68t28 -68t68 -28h96v-254q0 -105 -51 -199l-129 -237q-25 -46 1 -95
q28 -47 83 -47h1088q40 0 68 28t28 68t-28 68t-68 28h-926l52 96q74 134 74 290v254h544q40 0 68 28t28 68t-28 68t-68 28h-544z" />
    <glyph glyph-name="yen-sign" unicode="cny" horiz-adv-x="1280" 
d="M640 939l-465 683q-22 33 -61 40.5t-72 -15.5q-33 -22 -40.5 -61t15.5 -72l420 -618h-277q-40 0 -68 -28t-28 -68t28 -68t68 -28h384v-192h-384q-40 0 -68 -28t-28 -68t28 -68t68 -28h384v-352q0 -40 28 -68t68 -28t68 28t28 68v352h384q40 0 68 28t28 68t-28 68t-68 28
h-384v192h384q40 0 68 28t28 68t-28 68t-68 28h-277l420 618q23 33 15.5 72t-40.5 61q-33 23 -72 15.5t-61 -40.5z" />
    <glyph glyph-name="copyright" unicode="copyright" 
d="M1024 1792q209 0 398.5 -81t326.5 -218t218 -326.5t81 -398.5t-81 -398.5t-218 -326.5t-326.5 -218t-398.5 -81t-398.5 81t-326.5 218t-218 326.5t-81 398.5t81 398.5t218 326.5t326.5 218t398.5 81zM1024 -64q169 0 323 66t265.5 177.5t177.5 265.5t66 323t-66 323
t-177.5 265.5t-265.5 177.5t-323 66t-323 -66t-265.5 -177.5t-177.5 -265.5t-66 -323t66 -323t177.5 -265.5t265.5 -177.5t323 -66zM1020 1088q-130 0 -223 -93q-93 -94 -93 -227t93 -227q93 -93 223 -93q131 0 224 93q28 28 68 28.5t68 -27.5t28 -67.5t-28 -68.5
q-72 -73 -165 -111.5t-195 -38.5q-211 0 -359 150q-97 98 -132 230t0 264t132 230q148 150 359 150q102 0 195 -38.5t165 -111.5q28 -29 28 -68.5t-28 -67.5t-68 -28t-68 28q-94 94 -224 94z" />
    <glyph glyph-name="angles-left" unicode="angle&#x2d;double&#x2d;left" horiz-adv-x="1792" 
d="M856 240q27 -29 23.5 -68.5t-35.5 -63.5q-32 -26 -70.5 -24t-64.5 32l-540 608q-25 27 -25 64t25 64l543 604q26 29 66.5 31.5t72.5 -23.5q29 -31 29 -72q0 -36 -25 -64l-486 -544zM936 852l548 604q26 30 66 32t69 -24q29 -31 29 -72q0 -36 -25 -64l-486 -544l483 -540
q26 -29 24 -69.5t-32 -66.5q-32 -26 -70.5 -24t-64.5 32l-541 608q-25 27 -25 64t25 64z" />
    <glyph glyph-name="registered" unicode="registered" 
d="M1024 1792q209 0 398.5 -81t326.5 -218t218 -326.5t81 -398.5t-81 -398.5t-218 -326.5t-326.5 -218t-398.5 -81t-398.5 81t-326.5 218t-218 326.5t-81 398.5t81 398.5t218 326.5t326.5 218t398.5 81zM1024 -64q169 0 323 66t265.5 177.5t177.5 265.5t66 323t-66 323
t-177.5 265.5t-265.5 177.5t-323 66t-323 -66t-265.5 -177.5t-177.5 -265.5t-66 -323t66 -323t177.5 -265.5t265.5 -177.5t323 -66zM1408 960q0 -83 -40 -154t-108 -115l139 -298q17 -36 3.5 -74t-49.5 -54q-19 -9 -41 -9q-28 0 -51.5 14.5t-35.5 40.5l-154 329h-239v-288
q0 -40 -28 -68t-68 -28t-68 28t-28 68v832q0 40 28 68t68 28h352q132 0 226 -93.5t94 -226.5zM1088 832q53 0 90.5 37.5t37.5 90.5t-37.5 90.5t-90.5 37.5h-256v-256h256z" />
    <glyph glyph-name="paragraph" unicode="paragraph" horiz-adv-x="1792" 
d="M1696 1664q40 0 68 -28t28 -68t-28 -68t-68 -28h-160v-1504q0 -40 -28 -68t-68 -28t-68 28t-28 68v1504h-192v-1504q0 -40 -28 -68t-68 -28t-68 28t-28 68v416h-192q-133 0 -253.5 53t-207 141.5t-135.5 211.5t-44 257q6 170 96.5 312.5t239 223.5t319.5 81h913zM960 576
v896h-192q-186 0 -317 -131t-131 -317t131 -317t317 -131h192z" />
    <glyph glyph-name="angles-right" unicode="angle&#x2d;double&#x2d;right" horiz-adv-x="1792" 
d="M952 1332q-26 27 -24 65.5t29 65.5q32 26 70.5 24.5t64.5 -31.5l541 -608q25 -27 25 -64t-25 -64l-541 -608q-26 -30 -66 -32t-69 24q-29 31 -29 72q0 36 25 64l486 544zM872 720l-548 -608q-26 -30 -66 -32t-69 24q-29 31 -29 72q0 36 25 64l486 544l-486 548
q-26 27 -24.5 66.5t31.5 65.5t70 23.5t66 -31.5l544 -608q25 -27 25 -64t-25 -64z" />
    <glyph glyph-name="xmark" unicode="close" horiz-adv-x="1280" 
d="M1248 292l-472 476l476 476q28 28 28 68t-28 68t-68 28t-68 -28l-476 -476l-476 479q-28 28 -68 28t-68 -28t-28 -67.5t28 -67.5l476 -480l-476 -476q-28 -28 -28 -68t28 -68t68 -28t68 28l476 476l473 -476q28 -28 67.5 -28t67.5 28t28 68t-28 68z" />
    <glyph glyph-name="empty-set" unicode="empty&#x2d;set" 
d="M2016 1764q30 -28 31 -68t-27 -68l-298 -298q198 -246 198 -562q0 -182 -71 -348t-191 -286t-286 -191t-348 -71q-158 0 -303 52t-259 146l-298 -298q-28 -28 -68 -28t-68 28t-28 68t28 68l298 298q-198 246 -198 562q0 182 71 348t191 286t286 191t348 71
q157 0 300.5 -51.5t257.5 -146.5l299 298q29 28 68 28t67 -28zM320 768q0 -236 144 -425l984 985q-189 144 -424 144q-191 0 -353 -94.5t-256.5 -256.5t-94.5 -353zM1728 768q0 236 -144 425l-984 -985q189 -144 424 -144q191 0 353 94.5t256.5 256.5t94.5 353z" />
    <glyph glyph-name="divide" unicode="divide" horiz-adv-x="1792" 
d="M1696 864q40 0 68 -28t28 -68t-28 -68t-68 -28h-1600q-40 0 -68 28t-28 68t28 68t68 28h1600zM896 1216q-80 0 -136 56t-56 136t56 136t136 56t136 -56t56 -136t-56 -136t-136 -56zM896 320q80 0 136 -56t56 -136t-56 -136t-136 -56t-136 56t-56 136t56 136t136 56z" />
    <glyph glyph-name="minus" unicode="minus" horiz-adv-x="1792" 
d="M1728 768q0 40 -28 68t-68 28h-1472q-40 0 -68 -28t-28 -68t28 -68t68 -28h1472q40 0 68 28t28 68z" />
    <glyph glyph-name="horizontal-rule" unicode="horizontal&#x2d;rule" horiz-adv-x="2560" 
d="M2464 672q40 0 68 28t28 68t-28 68t-68 28h-2368q-40 0 -68 -28t-28 -68t28 -68t68 -28h2368z" />
    <glyph glyph-name="quote-left" unicode="quote&#x2d;left&#x2d;alt" horiz-adv-x="1792" 
d="M384 128q-159 0 -271.5 112.5t-112.5 271.5v416q0 130 64.5 240.5t175 175t240.5 64.5h64q40 0 68 -28t28 -68t-28 -68t-68 -28h-64q-119 0 -203.5 -84.5t-84.5 -203.5v-85q92 53 192 53q159 0 271.5 -112.5t112.5 -271.5t-112.5 -271.5t-271.5 -112.5zM384 704
q-80 0 -136 -56t-56 -136t56 -136t136 -56t136 56t56 136t-56 136t-136 56zM1408 128q-161 0 -272.5 112t-111.5 272v416q0 130 64.5 240.5t175 175t240.5 64.5h64q40 0 68 -28t28 -68t-28 -68t-68 -28h-64q-119 0 -203.5 -84.5t-84.5 -203.5v-85q92 53 192 53
q159 0 271.5 -112.5t112.5 -271.5t-112.5 -271.5t-271.5 -112.5zM1408 704q-80 0 -136 -56t-56 -136t56 -136t136 -56t136 56t56 136t-56 136t-136 56z" />
    <glyph glyph-name="quote-right" unicode="quote&#x2d;right&#x2d;alt" horiz-adv-x="1792" 
d="M1408 1408q160 0 272 -111.5t112 -272.5v-416q0 -130 -64.5 -240.5t-175 -175t-240.5 -64.5h-64q-40 0 -68 28t-28 68t28 68t68 28h64q119 0 203.5 84.5t84.5 203.5v85q-92 -53 -192 -53q-159 0 -271.5 112.5t-112.5 271.5t112.5 271.5t271.5 112.5zM1408 832
q80 0 136 56t56 136t-56 136t-136 56t-136 -56t-56 -136t56 -136t136 -56zM384 1408q160 0 272 -111.5t112 -272.5v-416q0 -130 -64.5 -240.5t-175 -175t-240.5 -64.5h-64q-40 0 -68 28t-28 68t28 68t68 28h64q119 0 203.5 84.5t84.5 203.5v85q-92 -53 -192 -53
q-160 0 -272 111.5t-112 272.5t112 272.5t272 111.5zM384 832q80 0 136 56t56 136t-56 136t-136 56t-136 -56t-56 -136t56 -136t136 -56z" />
    <glyph glyph-name="angle-left" unicode="angle&#x2d;left" horiz-adv-x="1024" 
d="M666 94q28 -29 67.5 -30t68.5 26q29 28 29.5 68t-26.5 68l-513 542l513 542q27 28 26.5 68.5t-29.5 67.5t-69 26t-67 -30l-572 -608q-27 -29 -27 -66q0 -39 27 -66z" />
    <glyph glyph-name="angle-right" unicode="angle&#x2d;right" horiz-adv-x="1024" 
d="M358 1442q-27 29 -67.5 30t-68.5 -26q-29 -28 -30 -68t26 -68l514 -542l-514 -542q-27 -28 -26 -68.5t30 -67.5t69 -26t67 30l572 608q26 29 26 66q0 40 -26 66z" />
    <glyph glyph-name="lira-sign" unicode="lira&#x2d;sign" horiz-adv-x="1280" 
d="M384 1024v131q0 131 93 224t224 93q53 0 100 -16l321 -107q36 -10 72.5 7t48.5 54q10 38 -7 73t-54 48l-320 107q-80 26 -161 26q-212 0 -360.5 -149t-148.5 -360v-131h-96q-40 0 -68 -28t-28 -68t28 -68t68 -28h96v-192h-96q-40 0 -68 -28t-28 -68t28 -68t68 -28h96v-18
q0 -116 -59 -214l-119 -199q-29 -48 -2 -96q28 -49 84 -49h1088q40 0 68 28t28 68t-28 68t-68 28h-918l31 53q87 143 87 313v18h544q40 0 68 28t28 68t-28 68t-68 28h-544v192h544q40 0 68 28t28 68t-28 68t-68 28h-544z" />
    <glyph glyph-name="rupee-sign" unicode="rupee&#x2d;sign" horiz-adv-x="1792" 
d="M0 1568v-1600q0 -40 28 -68t68 -28t68 28t28 68v608h274l244 -642q14 -37 50.5 -53.5t73.5 -2.5t53.5 50.5t2.5 73.5l-230 604q161 56 262.5 197t101.5 317q0 148 -73 273t-198 198t-273 73h-384q-40 0 -68 -28t-28 -68zM192 768v704h288q146 0 249 -103t103 -249
t-103 -249t-249 -103h-288zM1255 663q-11 26 -5 63q8 52 66 85.5t156 14.5q65 -9 127 -29q38 -12 73.5 6.5t47.5 56.5q12 37 -6.5 72.5t-56.5 47.5q-67 21 -146 35q-103 19 -199 -3t-166.5 -89.5t-85.5 -168.5q-17 -82 16 -163q23 -57 89 -116q63 -50 216 -105l12 -4
q128 -46 169 -80q12 -11 31 -42q11 -29 5 -74q-7 -52 -61 -86q-64 -32 -165 -14q-8 2 -36.5 12.5t-49.5 15.5q-7 2 -30.5 12.5t-35.5 13.5q-15 7 -33 14q-37 14 -73.5 -2t-50.5 -53q-15 -37 1 -73.5t53 -50.5q3 -1 12.5 -5t15.5 -6l29 -11q29 -11 45 -19q61 -25 117 -36h1
q167 -30 287 30q134 67 164 230q14 93 -14 168q-26 69 -87 122q-72 61 -226 114l-4 1q-135 48 -172 78q-21 17 -30 38z" />
    <glyph glyph-name="won-sign" unicode="krw" 
d="M516 772l-232 822q-10 38 -45 57.5t-73 8.5q-38 -10 -57.5 -45t-8.5 -73l216 -774h-220q-40 0 -68 -28t-28 -68t28 -68t68 -28h274l178 -634q9 -30 35.5 -49.5t58.5 -16.5q32 -2 57.5 18t33.5 52l152 630h278l152 -630q8 -32 33.5 -52t57.5 -18q32 -3 58.5 16.5
t35.5 49.5l178 634h274q40 0 68 28t28 68t-28 68t-68 28h-220l216 774q11 38 -8.5 73t-57.5 45q-38 11 -73 -8.5t-45 -57.5l-232 -822h-217l-198 818q-7 32 -33.5 53t-59.5 21t-59.5 -21t-33.5 -53l-198 -818h-217zM570 580h117l-54 -230zM931 772l93 385l93 -385h-186z
M1361 580h117l-63 -230z" />
    <glyph glyph-name="shekel-sign" unicode="ils" horiz-adv-x="1792" 
d="M736 1664h-576q-40 0 -68 -28t-28 -68v-1600q0 -40 28 -68t68 -28t68 28t28 68v1504h480q119 0 203.5 -84.5t84.5 -203.5v-736q0 -40 28 -68t68 -28t68 28t28 68v736q0 130 -64.5 240.5t-175 175t-240.5 64.5zM672 -128h576q130 0 240.5 64.5t175 175t64.5 240.5v1216
q0 40 -28 68t-68 28t-68 -28t-28 -68v-1216q0 -119 -84.5 -203.5t-203.5 -84.5h-480v992q0 40 -28 68t-68 28t-68 -28t-28 -68v-1088q0 -40 28 -68t68 -28z" />
    <glyph glyph-name="euro-sign" unicode="euro&#x2d;sign" horiz-adv-x="1536" 
d="M224 832h98q-2 -42 -2 -64t2 -64h-98q-40 0 -68 -28t-28 -68t28 -68t68 -28h133q41 -138 124 -256t194 -203t251 -133t290 -48h96q40 0 68 28t28 68t-28 68t-68 28h-96q-220 0 -399.5 124t-260.5 324h628q40 0 68 28t28 68t-28 68t-68 28h-669q-3 31 -3 64t3 64h669
q40 0 68 28t28 68t-28 68t-68 28h-628q81 200 260.5 324t399.5 124h96q40 0 68 28t28 68t-28 68t-68 28h-96q-150 0 -290 -48t-251 -133t-194 -203t-124 -256h-133q-40 0 -68 -28t-28 -68t28 -68t68 -28z" />
    <glyph glyph-name="hryvnia-sign" unicode="hryvnia&#x2d;sign" horiz-adv-x="1536" 
d="M408 1365l15 9q123 98 280 98h205q101 0 172.5 -71.5t71.5 -172.5q0 -62 -29.5 -116t-80.5 -88h-946q-40 0 -68 -28t-28 -68t28 -68t68 -28h588l-261 -139q-54 -29 -78 -53h-249q-40 0 -68 -28t-28 -68t28 -68t68 -28h119q-23 -67 -23 -140q0 -181 127.5 -308.5
t308.5 -127.5h205q225 0 400 140l7 9q33 25 38.5 64.5t-19.5 70.5q-25 32 -64 37t-71 -22l-11 -9q-122 -98 -280 -98h-205q-101 0 -172.5 71.5t-71.5 172.5q0 77 44 140h1012q40 0 68 28t28 68t-28 68t-68 28h-708l356 192h352q40 0 68 28t28 68t-28 68t-68 28h-147
q51 96 51 204q0 181 -127.5 308.5t-308.5 127.5h-205q-225 0 -400 -140l-11 -9q-31 -25 -35.5 -63.5t20.5 -67.5q25 -33 64 -38.5t67 19.5z" />
    <glyph glyph-name="tenge-sign" unicode="tenge&#x2d;sign" horiz-adv-x="1536" 
d="M0 1568q0 -40 28 -68t68 -28h1344q40 0 68 28t28 68t-28 68t-68 28h-1344q-40 0 -68 -28t-28 -68zM0 1056q0 -40 28 -68t68 -28h576v-992q0 -40 28 -68t68 -28t68 28t28 68v992h576q40 0 68 28t28 68t-28 68t-68 28h-1344q-40 0 -68 -28t-28 -68z" />
    <glyph glyph-name="ruble-sign" unicode="ruble&#x2d;sign" horiz-adv-x="1536" 
d="M960 1664h-515q-78 0 -133.5 -55t-55.5 -134v-771h-160q-40 0 -68 -28t-28 -68t28 -68t68 -28h160v-192h-160q-40 0 -68 -28t-28 -68t28 -68t68 -28h160v-160q0 -40 28 -68t68 -28t68 28t28 68v160h736q40 0 68 28t28 68t-28 68t-68 28h-736v192h512q117 0 223.5 45.5
t184 123t123 184t45.5 223.5t-45.5 223.5t-123 184t-184 123t-223.5 45.5zM1344 1088q0 -159 -112.5 -271.5t-271.5 -112.5h-512v768h512q160 0 272 -111.5t112 -272.5z" />
    <glyph glyph-name="trademark" unicode="trademark" horiz-adv-x="2560" 
d="M928 1408q40 0 68 -28t28 -68t-28 -68t-68 -28h-322q0 -2 1 -6.5t1 -6.5v-979q0 -40 -28 -68t-68 -28t-68 28t-28 68v979q0 1 3 13h-323q-40 0 -68 28t-28 68t28 68t68 28h832zM2494 1403q29 -10 47.5 -35t18.5 -56v-1088q0 -40 -28 -68t-68 -28t-68 28t-28 68v798
l-435 -580q-27 -36 -77 -36t-77 36l-435 580v-798q0 -40 -28 -68t-68 -28t-68 28t-28 68v1088q0 31 18.5 56t47.5 35q30 9 59 0.5t48 -33.5l531 -713l531 712q19 25 48.5 34t58.5 0z" />
    <glyph glyph-name="square-info" unicode="info&#x2d;square" horiz-adv-x="1792" 
d="M1536 1664q106 0 181 -75t75 -181v-1280q0 -106 -75 -181t-181 -75h-1280q-106 0 -181 75t-75 181v1280q0 106 75 181t181 75h1280zM1600 128v1280q0 26 -19 45t-45 19h-1280q-26 0 -45 -19t-19 -45v-1280q0 -26 19 -45t45 -19h1280q26 0 45 19t19 45zM1056 448
q40 0 68 -28t28 -68t-28 -68t-68 -28h-320q-40 0 -68 28t-28 68t28 68t68 28h64v256h-32q-40 0 -68 28t-28 68t28 68t68 28h128q40 0 68 -28t28 -68v-352h64zM896 1024q-53 0 -90.5 37.5t-37.5 90.5t37.5 90.5t90.5 37.5t90.5 -37.5t37.5 -90.5t-37.5 -90.5t-90.5 -37.5z
" />
    <glyph glyph-name="arrow-left" unicode="arrow&#x2d;left" horiz-adv-x="1792" 
d="M1788 768q0 40 -26.5 68t-65.5 28h-1360l530 506q29 28 30.5 67.5t-26.5 68.5t-67.5 30t-68.5 -26l-704 -672q-30 -28 -30 -70q0 -41 30 -69l704 -672q29 -28 68.5 -27t67.5 30t26.5 68.5t-30.5 67.5l-530 506h1356q40 0 68 28t28 68z" />
    <glyph glyph-name="arrow-up" unicode="arrow&#x2d;up" horiz-adv-x="1536" 
d="M26 930q-27 -29 -26 -68.5t30 -67.5q29 -27 68.5 -26t67.5 30l506 530v-1360q0 -38 31 -65t69 -27q37 0 64.5 26.5t27.5 65.5v1360l507 -530q28 -29 67 -30.5t68 26.5t30 67.5t-26 68.5l-672 704q-28 30 -70 30t-70 -30z" />
    <glyph glyph-name="arrow-right" unicode="arrow&#x2d;right" horiz-adv-x="1792" 
d="M1058 1509q-31 27 -69.5 26t-66.5 -29q-27 -29 -26 -68.5t30 -67.5l530 -506h-1360q-40 0 -68 -28t-28 -68t28 -68t68 -28h1361l-531 -507q-29 -28 -30 -67t27 -68t67 -30t68 26l704 672q30 28 30 70q0 41 -30 69z" />
    <glyph glyph-name="arrow-down" unicode="arrow&#x2d;down" horiz-adv-x="1536" 
d="M1510 606q27 31 26 69.5t-30 66.5t-68.5 26.5t-67.5 -30.5l-506 -530v1360q0 39 -31 67.5t-69 28.5q-37 0 -64.5 -28.5t-27.5 -67.5v-1360l-506 530q-28 29 -67.5 30.5t-68.5 -26.5t-30 -66t26 -70l672 -704q28 -30 70 -30t70 30z" />
    <glyph glyph-name="left-right" unicode="arrows&#x2d;alt&#x2d;h" 
d="M2017 838q30 -27 29.5 -70t-32.5 -70l-448 -416q-28 -26 -66 -26q-15 0 -34 8q-26 11 -42 35t-16 53v320h-768v-320q0 -29 -16 -53t-42 -35q-19 -8 -38 -8q-37 0 -65 26l-448 416q-29 27 -29 70t29 70l448 416q28 26 65 26q21 0 35 -8q26 -11 41.5 -35t15.5 -53v-320h768
v320q0 29 16 53t42 35q19 8 38 8q41 0 69 -26z" />
    <glyph glyph-name="up-down" unicode="arrows&#x2d;alt&#x2d;v" horiz-adv-x="1024" 
d="M1016 326q12 -26 6.5 -54t-27.5 -49l-416 -448q-27 -30 -71 -30q-43 0 -70 30l-412 448q-20 21 -24.5 49t6.5 54t35 42t53 16h320v768h-320q-29 0 -53 16t-35 42t-6.5 54t24.5 49l416 448q27 30 70 30q44 0 67 -30l416 -448q42 -45 17 -103q-9 -26 -32 -42t-52 -16h-320
v-768h320q29 0 53 -16t35 -42z" />
    <glyph glyph-name="square-up-right" unicode="external&#x2d;link&#x2d;square&#x2d;alt" horiz-adv-x="1792" 
d="M511 564l258 262l-165 166q-20 18 -26 46t5 55t35.5 43t53.5 16h512q40 0 68 -28t28 -68v-512q0 -29 -16 -53.5t-43 -35.5q-17 -7 -37 -7q-41 0 -68 28l-166 166l-258 -259q-28 -28 -68 -28t-68 28l-45 46q-28 28 -28 67.5t28 67.5zM0 1408q0 106 75 181t181 75h1280
q106 0 181 -75t75 -181v-1280q0 -106 -75 -181t-181 -75h-1280q-106 0 -181 75t-75 181v1280zM192 1408v-1280q0 -26 19 -45t45 -19h1280q26 0 45 19t19 45v1280q0 26 -19 45t-45 19h-1280q-26 0 -45 -19t-19 -45z" />
    <glyph glyph-name="arrow-left-from-line" unicode="arrow&#x2d;left&#x2d;from&#x2d;line" horiz-adv-x="1792" 
d="M1596 1440q0 40 27.5 68t68.5 28q42 0 71 -28t29 -68v-1344q0 -39 -30 -67.5t-70 -28.5t-68 28t-28 68v1344zM705 326q27 -28 28.5 -67.5t-24.5 -68.5q-27 -29 -66.5 -30t-68.5 26l-545 512q-29 27 -29 70t29 70l545 512q28 27 68 26t67 -30q26 -27 26 -66q0 -42 -30 -70
l-368 -346h975q40 0 68 -28t28 -68t-28 -68t-68 -28h-975z" />
    <glyph glyph-name="arrow-up-from-line" unicode="arrow&#x2d;up&#x2d;from&#x2d;line" horiz-adv-x="1536" 
d="M1440 68q39 0 67.5 -30t28.5 -70t-28 -68t-68 -28h-1344q-40 0 -68 29t-28 71q0 40 28 68t68 28h1344zM326 959q-28 -27 -67 -28.5t-69 24.5q-29 27 -30 67t26 69l512 544q27 29 70 29t70 -29l512 -544q27 -29 26 -69t-30 -67q-27 -26 -66 -26q-42 0 -70 30l-346 368
v-975q0 -40 -28 -68t-68 -28t-68 28t-28 68v975z" />
    <glyph glyph-name="arrow-right-from-line" unicode="arrow&#x2d;right&#x2d;from&#x2d;line" horiz-adv-x="1792" 
d="M192 96q0 -40 -28 -68t-68 -28t-68 28t-28 68v1344q0 40 28 68t68 28t68 -28t28 -68v-1344zM1087 1210q-29 27 -30.5 67t26.5 69q27 29 67 30t69 -26l544 -512q29 -27 29 -70t-29 -70l-544 -512q-29 -27 -69 -26t-67 30q-26 27 -26 66q0 42 30 70l368 346h-975
q-40 0 -68 28t-28 68t28 68t68 28h975z" />
    <glyph glyph-name="arrow-down-from-line" unicode="arrow&#x2d;down&#x2d;from&#x2d;line" horiz-adv-x="1536" 
d="M96 1472q-40 0 -68 28t-28 68t28 68t68 28h1344q40 0 68 -28t28 -68t-28 -68t-68 -28h-1344zM1210 577q27 29 66.5 30.5t65.5 -26.5q29 -27 30 -67t-26 -69l-512 -544q-27 -29 -69.5 -29t-69.5 29l-509 544q-27 29 -26 69t30 67q27 26 66 26q42 0 70 -30l346 -368v975
q0 40 28 68t68 28t68 -28t28 -68v-975z" />
    <glyph glyph-name="arrow-rotate-left" unicode="arrow&#x2d;rotate&#x2d;backward" 
d="M160 1728q-40 0 -68 -28t-28 -68v-640q0 -40 28 -68t68 -28h640q40 0 68 28t28 68t-28 68t-68 28h-402q90 175 259 279.5t367 104.5q191 0 353 -94.5t256.5 -256.5t94.5 -353t-94.5 -353t-256.5 -256.5t-353 -94.5q-123 0 -240 42t-211 121q-31 26 -70.5 22.5
t-64.5 -34.5q-26 -31 -22.5 -71t34.5 -65q121 -100 269 -153.5t305 -53.5q182 0 348 71t286 191t191 286t71 348t-71 348t-191 286t-286 191t-348 71q-237 0 -442 -119t-326 -321v408q0 40 -28 68t-68 28z" />
    <glyph glyph-name="arrow-rotate-right" unicode="arrow&#x2d;rotate&#x2d;forward" 
d="M1984 1632q0 40 -28 68t-68 28t-68 -28t-28 -68v-405q-121 200 -326.5 318.5t-441.5 118.5q-182 0 -348 -71t-286 -191t-191 -286t-71 -348t71 -348t191 -286t285.5 -191t347.5 -71q157 0 305 53.5t269 154.5q31 26 34.5 65t-21.5 70t-65 34.5t-71 -22.5
q-196 -163 -450 -163q-143 0 -273 55.5t-224.5 149t-150.5 224.5t-56 275t55.5 274.5t149.5 224.5t224.5 149.5t274.5 55.5q198 0 367 -104.5t259 -279.5h-402q-40 0 -68 -28t-28 -68t28 -68t68 -28h640q40 0 68 28t28 68v640z" />
    <glyph glyph-name="arrow-right-arrow-left" unicode="arrow&#x2d;right&#x2d;arrow&#x2d;left" 
d="M1952 416q40 0 68 -28t28 -68t-28 -68t-68 -28h-1635l297 -318q27 -29 26 -69t-30 -67q-29 -26 -66 -26q-41 0 -70 31l-448 480q-26 28 -26 65.5t26 65.5l448 480q27 29 67 30t69 -26t30 -66.5t-26 -68.5l-297 -319h1635zM96 1120q-40 0 -68 28t-28 68t28 68t68 28h1635
l-297 318q-27 29 -26 69t30 67q29 26 66 26q41 0 70 -31l448 -480q26 -28 26 -65.5t-26 -65.5l-448 -480q-27 -29 -66.5 -30t-68.5 26t-30.5 66.5t25.5 68.5l297 319h-1635z" />
    <glyph glyph-name="arrow-left-to-line" unicode="arrow&#x2d;left&#x2d;to&#x2d;line" horiz-adv-x="1792" 
d="M192 96q0 -40 -28 -68t-68 -28t-68 28t-28 68v1344q0 40 28 68t68 28t68 -28t28 -68v-1344zM1089 326q29 -27 30.5 -67t-26.5 -72q-27 -29 -66.5 -30t-68.5 26l-545 512q-29 27 -29 69.5t29 69.5l545 512q29 27 68.5 26t66.5 -30q26 -27 26 -66q0 -40 -30 -69l-368 -347
h975q40 0 68 -26.5t28 -65.5q0 -40 -28 -68t-68 -28h-975z" />
    <glyph glyph-name="arrow-right-to-line" unicode="arrow&#x2d;right&#x2d;to&#x2d;line" horiz-adv-x="1792" 
d="M1596 1440q0 39 29 67.5t67 28.5q42 0 71 -28t29 -68v-1344q0 -40 -29 -68t-71 -28q-40 0 -68 28t-28 68v1344zM703 1210q-31 27 -32 67.5t27 68.5q27 29 67 30.5t69 -26.5l545 -512q29 -27 29 -70t-29 -70l-545 -512q-29 -27 -68.5 -26t-66.5 30q-27 28 -27 66
q0 41 31 70l367 346h-974q-40 0 -68 28t-28 68t28 68t68 28h975z" />
    <glyph glyph-name="sigma" unicode="sigma" horiz-adv-x="1536" 
d="M1340 1248q0 -39 29 -67.5t67 -28.5q42 0 71 28t29 68v320q0 40 -28 68t-68 28h-1344q-29 0 -53.5 -16.5t-35.5 -43.5t-5 -56t27 -49l761 -731l-761 -731q-21 -20 -27 -49t5 -56t35.5 -43.5t53.5 -16.5h1344q40 0 68 28t28 68v320q0 40 -28 68t-68 28t-68 -28t-28 -68
v-224h-1010l657 635q29 27 29 69q0 44 -26 69l-660 635h1006v-224z" />
    <glyph glyph-name="square-root" unicode="square&#x2d;root" horiz-adv-x="2304" 
d="M2304 1696q0 40 -28 68t-68 28h-928q-33 0 -59 -21t-34 -53l-384 -1589l-332 712q-12 25 -35.5 40t-51.5 15h-288q-40 0 -68 -28t-28 -68t28 -68t68 -28h227l422 -905q12 -25 35.5 -40t51.5 -15q2 0 5 0.5t4 0.5q31 3 53.5 23t30.5 50l431 1782h852q40 0 68 28t28 68z
" />
    <glyph glyph-name="infinity" unicode="infinity" horiz-adv-x="2560" 
d="M1938 1408q169 0 312.5 -86t226.5 -233t83 -321t-83 -321t-226.5 -233t-312.5 -86q-89 0 -176.5 30.5t-155.5 76t-133 109t-109 118.5t-84 116q-40 -61 -84 -116t-109 -118.5t-133 -109t-155.5 -76t-176.5 -30.5q-126 0 -241.5 51t-198.5 136.5t-132.5 204t-49.5 248.5
t49.5 248.5t132.5 204t198.5 136.5t241.5 51q89 0 176.5 -30.5t155.5 -76t133 -109t109 -118.5t84 -116q40 61 84 116t109 118.5t133 109t155.5 76t176.5 30.5zM622 320q65 0 129.5 24t119 66t101.5 88.5t87.5 101.5t65.5 93t46 75q-25 45 -56.5 93t-87 115t-114 117.5
t-136.5 86.5t-155 36q-178 0 -304 -131.5t-126 -316.5t126 -316.5t304 -131.5zM1938 320q178 0 304 131.5t126 316.5t-126 316.5t-304 131.5q-65 0 -129.5 -24t-119 -66t-101.5 -88.5t-87.5 -101.5t-65.5 -93t-46 -75q25 -45 56.5 -93t87 -115t114 -117.5t136.5 -86.5
t155 -36z" />
    <glyph glyph-name="wave-sine" unicode="wave&#x2d;sine" horiz-adv-x="2560" 
d="M2556 679q12 35 -7 70q-19 36 -60 47q-14 4 -26 4q-30 0 -57 -16t-37 -50q-25 -77 -60.5 -157.5t-85 -163t-104 -146t-120.5 -104t-130 -40.5q-171 0 -311 246q-71 124 -177 406q-2 6 -9 25q-40 107 -62.5 164.5t-66.5 156t-78.5 154t-89 126.5t-108 108t-125.5 64
t-151 27q-90 0 -175 -38t-148.5 -95t-123 -136.5t-98 -148.5t-72.5 -145.5t-47.5 -113.5t-22.5 -66q-12 -35 7 -70q19 -36 60 -47q14 -4 26 -4q29 0 56 16t38 50q25 77 60.5 157.5t85 163t104 146t120.5 104t130 40.5q171 0 311 -246q71 -124 177 -406q2 -6 9 -25
q40 -107 62.5 -164.5t66.5 -156t78.5 -154t89 -126.5t108 -108t125.5 -64t151 -27q90 0 175 38t148.5 95t123 136.5t98 148.5t72.5 145.5t47.5 113.5t22.5 66z" />
    <glyph glyph-name="intersection" unicode="intersection" horiz-adv-x="1536" 
d="M1536 896q0 208 -103 385t-280 280t-385 103t-385 -103t-280 -280t-103 -385v-928q0 -40 28 -68t68 -28t68 28t28 68v928q0 117 45.5 223.5t123 184t184 123t223.5 45.5t223.5 -45.5t184 -123t123 -184t45.5 -223.5v-928q0 -40 28 -68t68 -28t68 28t28 68v928z" />
    <glyph glyph-name="union" unicode="union" horiz-adv-x="1536" 
d="M0 640q0 -208 103 -384t280 -278t385 -102t385 102t280 278t103 384v928q0 40 -28 68t-68 28t-68 -28t-28 -68v-928q0 -117 -45.5 -223.5t-123 -184t-184 -123t-223.5 -45.5t-223.5 45.5t-184 123t-123 184t-45.5 223.5v928q0 40 -28 68t-68 28t-68 -28t-28 -68v-928z
" />
    <glyph glyph-name="angle-up" unicode="angle&#x2d;up" horiz-adv-x="1536" 
d="M94 614q-29 -28 -30 -67t26 -65q28 -29 68 -30t68 26l542 513l542 -513q28 -27 68.5 -26t67.5 30t26 68.5t-30 66.5l-608 573q-28 26 -66 26q-40 0 -66 -30z" />
    <glyph glyph-name="angle-down" unicode="angle&#x2d;down" horiz-adv-x="1536" 
d="M1442 922q29 28 30 67.5t-26 68.5q-28 29 -68 30t-68 -26l-542 -514l-542 514q-28 27 -68 26t-68 -30q-27 -28 -26 -68t30 -68l608 -576q28 -26 66 -26q40 0 66 30z" />
    <glyph glyph-name="watch" unicode="watch" horiz-adv-x="1536" 
d="M864 819v273q0 38 -28.5 67t-67.5 29t-67.5 -29t-28.5 -67v-320q0 -58 43 -80l192 -128q33 -24 71 -17t58 40q24 33 17 71.5t-40 61.5zM1088 1792h-640q-80 0 -136 -56t-56 -136v-256h4q-122 -108 -191 -257.5t-69 -318.5t69 -318.5t191 -257.5h-4v-256q0 -80 56 -136
t136 -56h640q80 0 136 56t56 136v256h-8q124 108 194 257.5t70 318.5t-70 318.5t-194 257.5h8v256q0 80 -56 136t-136 56zM768 1344q117 0 223.5 -45.5t184 -123t123 -184t45.5 -223.5t-45.5 -223.5t-123 -184t-184 -123t-223.5 -45.5t-223.5 45.5t-184 123t-123 184
t-45.5 223.5t45.5 223.5t123 184t184 123t223.5 45.5z" />
    <glyph glyph-name="hourglass-end" unicode="hourglass&#x2d;end" horiz-adv-x="1536" 
d="M0 1696q0 -40 28 -68t68 -28h32v-76q0 -246 178 -430l326 -326l-326 -326q-85 -85 -131.5 -197t-46.5 -233v-76h-32q-40 0 -68 -28t-28 -68t28 -68t68 -28h1344q40 0 68 28t28 68t-28 68t-68 28h-32v76q0 119 -47 231t-131 199l-326 326l326 326q84 90 131 201t47 229v76
h32q40 0 68 28t28 68t-28 68t-68 28h-1344q-40 0 -68 -28t-28 -68zM1216 1524q0 -172 -122 -294l-326 -326l-326 326q-122 122 -122 294v76h896v-76z" />
    <glyph glyph-name="keyboard" unicode="keyboard" horiz-adv-x="2304" 
d="M2048 1536q106 0 181 -75t75 -181v-1024q0 -106 -75 -181t-181 -75h-1792q-106 0 -181 75t-75 181v1024q0 106 75 181t181 75h1792zM2112 256v1024q0 26 -19 45t-45 19h-1792q-26 0 -45 -19t-19 -45v-1024q0 -26 19 -45t45 -19h1792q26 0 45 19t19 45zM560 1184
q20 0 34 -14t14 -34v-96q0 -20 -14 -34t-34 -14h-96q-20 0 -34 14t-14 34v96q0 20 14 34t34 14h96zM784 992q-20 0 -34 14t-14 34v96q0 20 14 34t34 14h96q20 0 34 -14t14 -34v-96q0 -20 -14 -34t-34 -14h-96zM1104 992q-20 0 -34 14t-14 34v96q0 20 14 34t34 14h96
q20 0 34 -14t14 -34v-96q0 -20 -14 -34t-34 -14h-96zM1424 992q-20 0 -34 14t-14 34v96q0 20 14 34t34 14h96q20 0 34 -14t14 -34v-96q0 -20 -14 -34t-34 -14h-96zM1840 1184q20 0 34 -14t14 -34v-96q0 -20 -14 -34t-34 -14h-96q-20 0 -34 14t-14 34v96q0 20 14 34t34 14h96
zM560 864q20 0 34 -14t14 -34v-96q0 -20 -14 -34t-34 -14h-96q-20 0 -34 14t-14 34v96q0 20 14 34t34 14h96zM784 672q-20 0 -34 14t-14 34v96q0 20 14 34t34 14h96q20 0 34 -14t14 -34v-96q0 -20 -14 -34t-34 -14h-96zM1104 672q-20 0 -34 14t-14 34v96q0 20 14 34t34 14
h96q20 0 34 -14t14 -34v-96q0 -20 -14 -34t-34 -14h-96zM1424 672q-20 0 -34 14t-14 34v96q0 20 14 34t34 14h96q20 0 34 -14t14 -34v-96q0 -20 -14 -34t-34 -14h-96zM1840 864q20 0 34 -14t14 -34v-96q0 -20 -14 -34t-34 -14h-96q-20 0 -34 14t-14 34v96q0 20 14 34t34 14
h96zM1600 512q27 0 45.5 -18.5t18.5 -45.5v-64q0 -27 -18.5 -45.5t-45.5 -18.5h-896q-27 0 -45.5 18.5t-18.5 45.5v64q0 27 18.5 45.5t45.5 18.5h896z" />
    <glyph glyph-name="chevron-left" unicode="chevron&#x2d;left" horiz-adv-x="1280" 
d="M827 -66q27 -29 66.5 -30t68.5 27t30 67t-27 68l-672 702l669 698q28 29 27 69t-30 67q-29 28 -68.5 27t-67.5 -30l-732 -765q-27 -27 -27 -66q0 -35 30 -70z" />
    <glyph glyph-name="chevron-right" unicode="chevron&#x2d;right" horiz-adv-x="1280" 
d="M453 1602q-27 29 -66.5 30t-68.5 -27t-30 -67t27 -68l672 -695l-672 -701q-28 -29 -27 -69t30 -67q29 -28 68 -27t67 30l733 764q26 26 26 67q0 40 -26 66z" />
    <glyph glyph-name="delete-left" unicode="backspace" horiz-adv-x="2304" 
d="M1728 960q31 25 31 64.5t-31 67.5q-26 28 -65 28t-67 -28l-188 -188l-192 188q-26 28 -65 28t-67 -28t-28 -67.5t28 -64.5l188 -192l-188 -188q-28 -28 -28 -67t28 -65q28 -31 67 -31t65 31l192 184l188 -184q28 -31 67 -31t65 31q31 26 31 64.5t-31 67.5l-184 188z
M2048 1536h-1227q-106 0 -181 -75l-603 -603q-37 -37 -37 -90t37 -90l603 -603q75 -75 181 -75h1227q106 0 181 75t75 181v1024q0 106 -75 181t-181 75zM2112 1280v-1024q0 -26 -19 -45t-45 -19h-1227q-26 0 -45 19l-557 557l557 557q19 19 45 19h1227q26 0 45 -19t19 -45z
" />
    <glyph glyph-name="print" unicode="print" 
d="M444 1600l4 -448h-192v119v329q0 79 55.5 135.5t132.5 56.5h1020q80 0 136 -56l136 -136q56 -56 56 -136v-312h-192v312l-139 136h-1017zM1760 1024q119 0 203.5 -84.5t84.5 -203.5v-448q0 -40 -28 -68t-68 -28h-224v-320q0 -53 -37.5 -90.5t-90.5 -37.5h-1152
q-53 0 -90.5 37.5t-37.5 90.5v320h-224q-40 0 -68 28t-28 68v448q0 119 84.5 203.5t203.5 84.5h1472zM1536 -64v384h-1024v-384h1024zM1856 384v352q0 40 -28 68t-68 28h-1472q-40 0 -68 -28t-28 -68v-352h128q0 53 37.5 90.5t90.5 37.5h1152q53 0 90.5 -37.5t37.5 -90.5
h128z" />
    <glyph glyph-name="eject" unicode="eject" horiz-adv-x="1792" 
d="M192 388q-48 0 -89 21t-65 56t-33.5 76t2 85.5t44.5 79.5l704 768q57 62 141 62t142 -58l700 -769q41 -45 48 -102t-14 -105t-68.5 -81t-107.5 -33h-1404zM896 1344l-704 -768h1404zM1696 192q40 0 68 -28t28 -68t-28 -68t-68 -28h-1600q-40 0 -68 28t-28 68t28 68t68 28
h1600z" />
    <glyph glyph-name="forward" unicode="forward" 
d="M1024 1408q0 56 38.5 92t90.5 36q48 0 81 -37l768 -636q46 -38 46 -98.5t-46 -98.5l-768 -636q-38 -30 -81 -30q-52 0 -90.5 36t-38.5 92v1280zM1216 1272v-1008l604 504zM0 1408q0 35 18 65t49 47q67 36 130 -4l654 -417q34 -21 42.5 -59.5t-12.5 -72.5t-60 -42.5
t-73 12.5l-556 354v-1046l556 354q34 21 73 12.5t60 -41.5q21 -34 13 -73t-42 -60l-655 -417q-32 -20 -69 -20q-32 0 -62 16q-31 16 -48.5 46.5t-17.5 65.5v1280z" />
    <glyph glyph-name="backward" unicode="backward" 
d="M895 1536q51 0 88.5 -36t40.5 -92v-1280q0 -56 -38.5 -92t-90.5 -36q-47 0 -81 33l-768 636q-46 38 -46 98.5t46 98.5l768 640q38 30 81 30zM828 264h4v1008l-604 -504zM1982 1520q66 -37 66 -112v-1276q0 -37 -17.5 -68.5t-48.5 -48.5q-28 -15 -62 -15q-37 0 -69 20
l-654 416q-34 21 -42.5 60t12.5 73t60 42t73 -13l556 -354v1047l-556 -354q-34 -21 -73 -12.5t-60 42.5t-12.5 72.5t42.5 59.5l654 417q63 40 131 4z" />
    <glyph glyph-name="forward-fast" unicode="fast&#x2d;forward" 
d="M0 1408q0 56 38.5 92t90.5 36q43 0 81 -30l686 -626v528q0 56 38.5 92t90.5 36q47 0 85 -33l686 -626v559q0 40 28 68t68 28q37 0 64.5 -26.5t27.5 -65.5v-1344q0 -40 -28 -68t-68 -28t-68 28t-28 68v555l-686 -621q-38 -30 -81 -30q-52 0 -90.5 36t-38.5 92v523
l-686 -621q-38 -30 -81 -30q-52 0 -90.5 36t-38.5 92v1280zM1088 1263v-991l545 494zM192 1263v-991l545 494z" />
    <glyph glyph-name="backward-fast" unicode="backward&#x2d;fast" 
d="M1919 1536q52 0 90.5 -36t38.5 -92v-1276q0 -58 -38.5 -95t-90.5 -37q-47 0 -81 30l-686 621v-519q0 -58 -38.5 -95t-90.5 -37q-47 0 -81 30l-686 621v-551q0 -40 -28 -68t-68 -28t-68 28t-28 68v1343q0 37 28.5 65t67.5 28q40 0 68 -28t28 -68v-560l686 626q38 30 81 30
q52 0 90.5 -36t38.5 -92v-528l686 626q38 30 81 30zM960 272v991l-545 -497zM1856 272v991l-545 -497z" />
    <glyph glyph-name="alarm-clock" unicode="alarm&#x2d;clock" 
d="M640 1690q-110 102 -259 102q-157 0 -269 -112t-112 -269q0 -113 59 -205zM1120 680v376q0 40 -28 68t-68 28t-68 -28t-28 -68v-416q0 -42 28 -64l192 -192q28 -31 67 -31t65 31q31 26 31 64.5t-31 67.5zM462 -58q246 -198 562 -198t562 198l170 -166q28 -31 67 -31
t65 31q31 26 31 64.5t-31 67.5l-166 170q198 246 198 562q0 182 -71 348t-191 286t-286 191t-348 71t-348 -71t-286 -191t-191 -286t-71 -348q0 -316 198 -562l-170 -170q-28 -28 -28 -67t28 -65q28 -31 68 -31t68 31zM1024 -64q-143 0 -273.5 55.5t-225 150t-150 225
t-55.5 273.5t55.5 273.5t150 225t225 150t273.5 55.5t273.5 -55.5t225 -150t150 -225t55.5 -273.5t-55.5 -273.5t-150 -225t-225 -150t-273.5 -55.5zM1988 1206q60 93 60 205q0 157 -112 269t-269 112q-74 0 -142.5 -27t-116.5 -75z" />
    <glyph glyph-name="stopwatch" unicode="stopwatch" horiz-adv-x="1792" 
d="M992 512v416q0 40 -28 68t-68 28t-68 -28t-28 -68v-416q0 -40 28 -68t68 -28t68 28t28 68zM576 1696q0 -40 28 -68t68 -28h128v-197q-153 -18 -289 -90t-234.5 -181t-155.5 -254t-57 -302q0 -169 66 -323.5t177 -265.5t265.5 -177t323.5 -66t323.5 66t265.5 177
t177 265.5t66 323.5q0 265 -152 480l120 128q31 26 31 64.5t-31 67.5q-26 28 -65 28t-67 -28l-117 -117q-196 174 -455 204v197h128q40 0 68 28t28 68t-28 68t-68 28h-448q-40 0 -68 -28t-28 -68zM896 -64q-130 0 -248.5 50.5t-204.5 136.5t-136.5 204.5t-50.5 248.5
t50.5 248.5t136.5 204.5t204.5 136.5t248.5 50.5t248.5 -50.5t204.5 -136.5t136.5 -204.5t50.5 -248.5t-50.5 -248.5t-136.5 -204.5t-204.5 -136.5t-248.5 -50.5z" />
    <glyph glyph-name="hourglass" unicode="hourglass&#x2d;half" horiz-adv-x="1536" 
d="M0 1696q0 -40 28 -68t68 -28h32v-76q0 -246 178 -430l326 -326l-326 -326q-85 -85 -131.5 -197t-46.5 -233v-76h-32q-40 0 -68 -28t-28 -68t28 -68t68 -28h1344q40 0 68 28t28 68t-28 68t-68 28h-32v76q0 119 -47 231t-131 199l-326 326l326 326q84 90 131 201t47 229v76
h32q40 0 68 28t28 68t-28 68t-68 28h-1344q-40 0 -68 -28t-28 -68zM399 256q7 14 43 50l326 326l326 -326q25 -25 43 -50h-738zM1137 1280h-738q-79 108 -79 244v76h896v-76q0 -129 -79 -244z" />
    <glyph glyph-name="pause" unicode="pause" horiz-adv-x="1280" 
d="M224 1536q40 0 68 -28t28 -68v-1344q0 -40 -28 -68t-68 -28t-68 28t-28 68v1344q0 40 28 68t68 28zM1056 1536q40 0 68 -28t28 -68v-1344q0 -40 -28 -68t-68 -28t-68 28t-28 68v1344q0 40 28 68t68 28z" />
    <glyph glyph-name="stop" unicode="stop" horiz-adv-x="1536" 
d="M1280 1536q106 0 181 -75t75 -181v-1020q0 -106 -75 -181t-181 -75h-1024q-106 0 -181 75t-75 181v1020q0 106 75 181t181 75h1024zM1344 256v1024q0 26 -19 45t-45 19h-1024q-26 0 -45 -19t-19 -45v-1024q0 -26 19 -45t45 -19h1024q26 0 45 19t19 45z" />
    <glyph glyph-name="power-off" unicode="power&#x2d;off" 
d="M1120 736v960q0 40 -28 68t-68 28t-68 -28t-28 -68v-960q0 -40 28 -68t68 -28t68 28t28 68zM224 744h-4q0 186 85.5 348.5t231.5 270.5q32 23 38 62.5t-18 71.5q-23 32 -63 37.5t-71 -17.5q-181 -133 -286 -336t-105 -437q0 -195 76 -373t204.5 -306.5t306.5 -204.5
t373 -76t373 76t306.5 204.5t204.5 306.5t76 373q0 234 -105 437t-286 336q-31 23 -71 17.5t-63 -37.5q-24 -32 -18 -71.5t38 -62.5q145 -107 229 -269.5t84 -349.5q0 -209 -103 -385.5t-279.5 -279.5t-385.5 -103q-210 0 -387 103t-279 279.5t-102 385.5z" />
    <glyph glyph-name="moon" unicode="moon" 
d="M1686 272q24 0 36 -22t-4 -46q-127 -156 -308.5 -244t-386.5 -88q-182 0 -348 71t-285.5 191t-190.5 286t-71 348t71 348.5t191 287t287 191t350 69.5q79 0 163 -15q29 -5 33.5 -34.5t-20.5 -43.5q-165 -94 -259.5 -257t-94.5 -353q0 -144 56 -275t149.5 -224t222 -148
t268.5 -55q68 0 133 13q0 1 4 0h4zM1023 64q129 0 249 46q-273 88 -446 322t-173 529q0 253 134 470q-207 -75 -337 -256t-130 -407q0 -143 55.5 -273.5t150 -224.5t224.5 -150t273 -56z" />
    <glyph glyph-name="circle-h" unicode="circle&#x2d;h" 
d="M1024 1792q209 0 398.5 -81t326.5 -218t218 -326.5t81 -398.5t-81 -398.5t-218 -326.5t-326.5 -218t-398.5 -81t-398.5 81t-326.5 218t-218 326.5t-81 398.5t81 398.5t218 326.5t326.5 218t398.5 81zM1024 -64q169 0 323 66t265.5 177.5t177.5 265.5t66 323t-66 323
t-177.5 265.5t-265.5 177.5t-323 66t-323 -66t-265.5 -177.5t-177.5 -265.5t-66 -323t66 -323t177.5 -265.5t265.5 -177.5t323 -66zM1376 1280q40 0 68 -28t28 -68v-832q0 -40 -28 -68t-68 -28t-68 28t-28 68v320h-512v-320q0 -40 -28 -68t-68 -28t-68 28t-28 68v832
q0 40 28 68t68 28t68 -28t28 -68v-320h512v320q0 40 28 68t68 28z" />
    <glyph glyph-name="square" unicode="square" horiz-adv-x="1792" 
d="M1536 1664h-1280q-106 0 -181 -75t-75 -181v-1280q0 -106 75 -181t181 -75h1280q106 0 181 75t75 181v1280q0 106 -75 181t-181 75zM1536 1472q26 0 45 -19t19 -45v-1280q0 -26 -19 -45t-45 -19h-1280q-26 0 -45 19t-19 45v1280q0 26 19 45t45 19h1280z" />
    <glyph glyph-name="rectangle" unicode="rectangle&#x2d;landscape" 
d="M1792 1536h-1536q-106 0 -181 -75t-75 -181v-1024q0 -106 75 -181t181 -75h1536q106 0 181 75t75 181v1024q0 106 -75 181t-181 75zM1792 1344q26 0 45 -19t19 -45v-1024q0 -26 -19 -45t-45 -19h-1536q-26 0 -45 19t-19 45v1024q0 26 19 45t45 19h1536z" />
    <glyph glyph-name="triangle" unicode="triangle" 
d="M1024 1664q-43 0 -79.5 -21t-58.5 -58l-864 -1472q-22 -37 -22.5 -80t21.5 -81q21 -37 58.5 -58.5t80.5 -21.5h1728q43 0 80.5 21.5t58.5 58.5t21 80.5t-22 80.5l-864 1472q-22 37 -58.5 58t-79.5 21zM1024 1441l808 -1377h-1616zM1052 1488zM1052 1488l-28 16z
M1052 1488z" />
    <glyph glyph-name="play" unicode="play" horiz-adv-x="1536" 
d="M98 1639q-46 -25 -72 -70t-26 -97v-1408q0 -53 26 -98t72 -70q45 -26 97.5 -24t96.5 32l1152 704q43 24 67.5 67t24.5 93t-24.5 94t-67.5 70l-1152 704q-44 27 -96 28t-98 -25zM192 64v1408l1152 -704z" />
    <glyph glyph-name="circle" unicode="circle" 
d="M2048 768q0 209 -81 398.5t-218 326.5t-326.5 218t-398.5 81t-398.5 -81t-326.5 -218t-218 -326.5t-81 -398.5t81 -398.5t218 -326.5t326.5 -218t398.5 -81t398.5 81t326.5 218t218 326.5t81 398.5zM1024 1600q169 0 323.5 -66t265.5 -177t177 -265.5t66 -323.5
t-66 -323.5t-177 -265.5t-265.5 -177t-323.5 -66t-323.5 66t-265.5 177t-177 265.5t-66 323.5t66 323.5t177 265.5t265.5 177t323.5 66z" />
    <glyph glyph-name="circle-half-stroke" unicode="adjust" 
d="M2048 768q0 209 -81 398.5t-218 326.5t-326.5 218t-398.5 81t-398.5 -81t-326.5 -218t-218 -326.5t-81 -398.5t81 -398.5t218 -326.5t326.5 -218t398.5 -81t398.5 81t326.5 218t218 326.5t81 398.5zM1024 1600q169 0 323.5 -66t265.5 -177t177 -265.5t66 -323.5
t-66 -323.5t-177 -265.5t-265.5 -177t-323.5 -66v1664z" />
    <glyph glyph-name="sun" unicode="sun" 
d="M2021 493q47 -66 15 -144q-15 -36 -45 -60t-68 -31l-329 -60l-60 -330q-14 -80 -91 -112q-29 -12 -58 -12q-47 0 -86 27l-275 191l-275 -191q-68 -47 -145 -15q-76 32 -90 113l-60 329l-329 60q-38 7 -68 31t-45 60q-32 76 15 144l191 275l-191 275q-47 66 -15 144
q15 36 45 60t68 31l329 60l60 330q14 80 90 112t145 -15l275 -191l275 191q69 47 145 15t90 -113l60 -329l329 -60q38 -7 68 -31t45 -60q32 -76 -15 -144l-191 -275zM1827 435l-231 337l231 329l-398 72l-72 398l-333 -231l-333 231l-72 -398l-398 -72l231 -329l-231 -337
l398 -72l72 -398l333 231l333 -231l72 398zM1024 1220q184 0 314 -132t130 -313q0 -183 -130.5 -313.5t-313.5 -130.5q-120 0 -222.5 59t-162 161.5t-59.5 223.5q0 120 59 222.5t161.5 162.5t223.5 60zM1024 516q105 0 180.5 76t75.5 180t-75 178t-181 74t-181 -73.5
t-75 -178.5q0 -106 75 -181t181 -75z" />
    <glyph glyph-name="cloud" unicode="cloud" horiz-adv-x="2560" 
d="M2048 -127q215 13 363.5 169.5t148.5 373.5q0 165 -90 300t-236 199q6 38 6 77q0 130 -64.5 240.5t-175 175t-240.5 64.5q-104 0 -195 -41q-95 109 -227 171t-282 62q-182 0 -337 -90t-245 -245t-90 -337v-1q-170 -58 -277 -207.5t-107 -335.5q0 -117 45.5 -223.5
t123 -184t184 -123t223.5 -45.5h1472v1zM1513 1197l130 58q55 25 117 25q119 0 203.5 -84.5t84.5 -203.5q0 -17 -4 -47l-24 -147l137 -59q95 -41 153 -128.5t58 -194.5q0 -140 -96 -241.5t-235 -109.5l-11 -1h-1450q-159 0 -271.5 112.5t-112.5 271.5q0 123 70.5 222.5
t181.5 139.5l132 46v140q0 129 64 238.5t175 173.5t241 64q107 0 202 -44.5t162 -122.5zM576 996z" />
    <glyph glyph-name="snowman" unicode="snowman" 
d="M1020 640q28 0 46 -18.5t18 -45.5q0 -26 -19 -45t-45 -19t-45 19t-19 45t19 45t45 19zM1020 896q28 0 46 -18.5t18 -45.5q0 -26 -19 -45t-45 -19t-45 19t-19 45t19 45t45 19zM892 1440q28 0 46 -18.5t18 -45.5q0 -26 -19 -45t-45 -19t-45 19t-19 45t19 45t45 19z
M1020 383q28 0 46 -18.5t18 -45.5q0 -26 -19 -45t-45 -19t-45 19t-19 45t19 45t45 19zM2044 1055q10 -25 -0.5 -49t-35.5 -33l-441 -179q0 -2 0.5 -5.5t0.5 -4.5q0 -48 -8 -89q76 -111 100 -242q34 -190 -38 -364.5t-230 -284.5q-84 -60 -189 -60h-360q-95 0 -165 44
q-142 90 -221.5 234t-79.5 311q0 199 111 363q-8 41 -8 88q0 2 0.5 5t0.5 5l-441 179q-25 10 -35 34t0 48l23 58q10 25 34 35t49 -1l113 -46v116q0 26 19 44.5t45 18.5h60q26 0 45 -18.5t19 -44.5v-188q0 -1 -0.5 -3t-0.5 -3l105 -43q22 58 55 107q-47 100 -47 209
q0 206 144.5 351t351.5 145q136 0 250.5 -66.5t181 -180.5t68.5 -249q0 -111 -46 -209q31 -46 55 -106l104 43q0 1 -0.5 3t-0.5 3v187q0 26 19 44.5t45 18.5h64q26 0 45 -18.5t19 -44.5v-116l113 46q24 10 48.5 0t34.5 -34zM1283 -36q112 75 162.5 197t25.5 257
q-18 104 -90 196l-30 37l12 46q12 50 12 87q0 132 -88 231l-48 55l39 61q49 77 49 165q0 126 -89 215.5t-215 89.5t-215 -89.5t-89 -215.5q0 -86 46 -165l40 -61l-48 -55q-89 -102 -89 -231q0 -36 12 -86l15 -43l-29 -37q-97 -123 -97 -282q0 -116 56 -217.5t156 -164.5
q22 -15 62 -15h359q44 0 81 25zM1148 1440q28 0 46 -18.5t18 -45.5q0 -26 -19 -45t-45 -19t-45 19t-19 45t19 45t45 19zM1020 1280q28 0 46 -18.5t18 -45.5q0 -16 -16 -48t-32 -56l-16 -25q-64 94 -64 129q0 26 19 45t45 19z" />
    <glyph glyph-name="meteor" unicode="meteor" 
d="M2042 1621q11 35 2 70.5t-35 58.5q-57 55 -132 33q-354 -105 -613 -209q-20 57 -90 89q-61 28 -126 -5q-83 -43 -170.5 -92.5t-210 -124.5t-238 -161.5t-195.5 -166.5q-154 -153 -208.5 -360t0 -414t208.5 -360q154 -154 360.5 -209t413.5 0t361 209q80 80 166.5 195.5
t161 237.5t124.5 210t93 171q32 63 8 126q-25 64 -90 89q105 265 210 613zM1574 885l104 -30q43 -13 45 -14q-268 -505 -490 -726q-85 -86 -197 -132.5t-234 -46.5q-121 0 -233 46.5t-198 132.5q-117 117 -158.5 274t0 314.5t158.5 274.5q218 219 726 489l44 -149l100 42
q223 96 585 210q-114 -362 -209 -585zM1244 548q0 184 -130.5 316t-317.5 132q-185 0 -316.5 -131.5t-131.5 -316.5t131.5 -316.5t316.5 -131.5t316.5 131t131.5 317zM796 644q0 -50 -28 -68q-28 -28 -68 -28t-68 28t-28 68t28 68t68 28t68 -28t28 -68zM924 356
q0 -29 -17.5 -46.5t-46.5 -17.5q-26 0 -45 18.5t-19 45.5t19 45.5t45 18.5t45 -18.5t19 -45.5z" />
    <glyph glyph-name="phone-rotary" unicode="phone&#x2d;rotary" 
d="M1482 1023l421 -737q17 -31 17 -64v-222q0 -52 -38 -90t-90 -38h-1536q-52 0 -90 38t-38 90v222q0 34 17 63l421 738q35 60 94 94.5t128 34.5h472q68 0 126.5 -34t95.5 -95zM1728 64v141l-413 723q-19 32 -55 32h-472q-36 0 -55 -32l-413 -723v-141h1408zM1024 768
q106 0 181 -75t75 -181t-75 -181t-181 -75t-181 75t-75 181t75 181t181 75zM2024 1300q24 -19 24 -50v-226q0 -27 -18.5 -45.5t-45.5 -18.5h-280q-18 0 -34.5 10t-23.5 26l-110 284q-223 96 -512 96t-512 -96l-110 -284q-16 -36 -57 -36h-281q-27 0 -45.5 18.5t-18.5 45.5
v226q0 32 23 50q209 175 468.5 269.5t532.5 94.5t532 -94.5t468 -269.5z" />
    <glyph glyph-name="square-check" unicode="check&#x2d;square" horiz-adv-x="1792" 
d="M847 433l512 512q33 33 33 79t-33 79t-79 33t-79 -33l-433 -433l-177 177q-33 33 -79 33t-79 -33t-33 -79t33 -79l256 -256q33 -33 79 -33t79 33zM0 1408v-1280q0 -106 75 -181t181 -75h1280q106 0 181 75t75 181v1280q0 106 -75 181t-181 75h-1280q-106 0 -181 -75
t-75 -181zM192 1408q0 26 19 45t45 19h1280q26 0 45 -19t19 -45v-1280q0 -26 -19 -45t-45 -19h-1280q-26 0 -45 19t-19 45v1280z" />
    <glyph glyph-name="mug-hot" unicode="mug&#x2d;hot" 
d="M1600 1024q185 0 316.5 -131.5t131.5 -316.5t-131.5 -316.5t-316.5 -131.5h-64q0 -159 -112.5 -271.5t-271.5 -112.5h-768q-159 0 -271.5 112.5t-112.5 271.5v768q0 53 37.5 90.5t90.5 37.5h1472zM1344 128v704h-1152v-704q0 -80 56 -136t136 -56h768q80 0 136 56t56 136
zM1600 320q106 0 181 75t75 181t-75 181t-181 75h-64v-512h64zM432 1389q-81 47 -128.5 129.5t-47.5 176.5q0 40 28 68t68 28t68 -28t28 -68q0 -43 21.5 -80.5t58.5 -59.5q81 -47 128.5 -129.5t47.5 -176.5q0 -38 -28.5 -67.5t-67.5 -29.5q-40 0 -68 28t-28 68
q0 44 -21.5 83t-58.5 58zM880 1389q-81 47 -128.5 129.5t-47.5 176.5q0 40 28 68.5t68 28.5t68 -28.5t28 -68.5q0 -43 21.5 -80.5t58.5 -59.5q81 -47 128.5 -129.5t47.5 -176.5q0 -38 -28.5 -67t-67.5 -29q-40 0 -68 27.5t-28 67.5q0 44 -21.5 83t-58.5 58z" />
    <glyph glyph-name="hand-point-up" unicode="hand&#x2d;point&#x2d;up" horiz-adv-x="1792" 
d="M1504 1024q119 0 203.5 -84.5t84.5 -203.5v-416q0 -156 -75 -289t-204.5 -210t-281.5 -77h-432q-141 0 -269 71l-223 125q-83 47 -131 129.5t-48 178.5v200q0 80 34 150.5t94 120.5v785q0 119 84.5 203.5t203.5 84.5t203.5 -84.5t84.5 -203.5v-226q20 2 32 2
q77 0 142 -37.5t104 -100.5q40 10 74 10q77 0 142 -37.5t104 -100.5q40 10 74 10zM1088 864v-192q0 -40 28 -68t68 -28t68 28t28 68v192q0 40 -28 68t-68 28t-68 -28t-28 -68zM768 992v-192h48q71 0 137 -34q7 19 7 34v192q0 40 -28 68t-68 28t-68 -28t-28 -68zM448 1504
v-704v-1q1 -1 1 -2q30 3 31 3h160v704q0 40 -28 68t-68 28t-68 -28t-28 -68zM1231 -64q131 0 232 86t128 217q-47 -15 -87 -15q-88 0 -157 46.5t-104 122.5q-43 -9 -59 -9q-40 0 -82 13q-31 -91 -109.5 -148t-176.5 -57h-208q-40 0 -68 28t-28 68t28 68t68 28h208
q46 0 79 33t33 79t-33 79t-79 33h-336q-66 0 -113 -47t-47 -113v-200q0 -44 22 -82t59 -59l223 -125q83 -46 175 -46h432zM1600 512v224q0 40 -28 68t-68 28t-68 -28t-28 -68v-224q0 -40 28 -68t68 -28t68 28t28 68z" />
    <glyph glyph-name="skull-crossbones" unicode="skull&#x2d;crossbones" horiz-adv-x="1792" 
d="M828 1248q0 40 -27 68t-69 28q-38 0 -67 -28.5t-29 -67.5t29 -67.5t67 -28.5q42 0 69 28t27 68zM956 1248q0 -39 29 -67.5t67 -28.5q42 0 69 28t27 68t-27 68t-69 28q-38 0 -67 -28.5t-29 -67.5zM1052 640q95 0 159.5 65t64.5 159v34q192 153 192 382q0 139 -76 257
t-209 186.5t-291 68.5q-155 0 -287.5 -68.5t-210.5 -186.5t-78 -257q0 -110 51.5 -208t140.5 -174v-34q0 -92 66.5 -158t157.5 -66h320zM1276 1280q0 -139 -116 -231l-76 -58v-127q0 -14 -8.5 -23t-23.5 -9h-320q-11 0 -21.5 9.5t-10.5 22.5v127l-68 58q-124 99 -124 231
q0 123 109.5 221.5t274.5 98.5q86 0 160 -28t122 -73.5t75 -102.5t27 -116zM11 716q-18 -35 -6 -73t47 -56l632 -331l-632 -331q-35 -18 -47 -56t6 -73t56 -47t73 6l752 393l760 -393q35 -18 73 -6t56 47t6 73t-47 56l-636 331l636 331q35 18 47 56t-6 73t-56 47t-73 -6
l-760 -389l-752 389q-35 18 -73 6t-56 -47z" />
    <glyph glyph-name="circle-radiation" unicode="circle&#x2d;radiation" 
d="M1024 1728q195 0 373 -76t306.5 -204.5t204.5 -306.5t76 -373t-76 -373t-204.5 -306.5t-306.5 -204.5t-373 -76t-373 76t-306.5 204.5t-204.5 306.5t-76 373t76 373t204.5 306.5t306.5 204.5t373 76zM1024 0q208 0 385 103t280 280t103 385q0 156 -61 298t-164 245
t-245 164t-298 61t-298 -61t-245 -164t-164 -245t-61 -298q0 -208 103 -385t280 -280t385 -103zM906 958q-48 -31 -77 -81t-29 -109h-316q-29 0 -48.5 22.5t-15.5 51.5q15 118 73.5 221t149.5 176q22 19 51 14.5t45 -29.5zM1024 640q-53 0 -90.5 37.5t-37.5 90.5t37.5 90.5
t90.5 37.5t90.5 -37.5t37.5 -90.5t-37.5 -90.5t-90.5 -37.5zM1142 579l168 -267q16 -25 6.5 -53t-36.5 -41q-122 -58 -256 -58t-256 58q-27 13 -36 40.5t7 52.5l167 268q54 -35 118 -35q58 0 118 35zM1406 1239q91 -74 148.5 -176t72.5 -221q4 -29 -15 -51.5t-48 -22.5h-316
q0 59 -28.5 108.5t-76.5 80.5l166 267q16 25 45.5 29.5t51.5 -14.5z" />
    <glyph glyph-name="biohazard" unicode="biohazard" horiz-adv-x="2304" 
d="M1148 1344q-104 0 -206 -38q-82 63 -118 163q154 67 328 67q173 0 326 -67q-36 -100 -118 -163q-111 38 -212 38zM1551 208q99 80 161 194t74 243q60 19 107 19q46 0 88 -12q-11 -185 -99 -345.5t-233 -268.5q-71 70 -98 170zM655 38q-144 108 -232.5 268.5t-101.5 344.5
q49 13 90 13q47 0 106 -19q12 -131 74 -244.5t162 -193.5q-24 -97 -98 -169zM2302 658q10 -25 -14 -39q-22 -14 -40 6q-55 64 -117 101q-172 101 -364 48.5t-292 -228.5q-49 -86 -60.5 -184.5t12 -188.5t81.5 -169t143 -129q61 -36 143 -54q26 -7 26 -32q0 -27 -26 -32
q-246 -48 -460 79q-102 59 -182 159q-78 -99 -181 -159q-215 -127 -461 -79q-26 5 -26 32q0 25 25 32q82 17 144 54q113 68 177 183.5t63 240.5t-65 247q-49 87 -126 146t-165 83t-184 12.5t-180 -61.5q-57 -34 -117 -101q-17 -19 -40 -6q-22 14 -14 39q40 117 116.5 213
t180.5 157q99 58 221 79q-40 118 -40 225q0 254 164 449q17 20 40 7q22 -13 15 -39q-27 -83 -27 -154q0 -133 64 -246.5t175 -179.5t241 -66t241 66t175 179.5t64 246.5q0 75 -26 154q-7 26 14 39q23 13 40 -7q164 -195 164 -449q0 -107 -40 -225q119 -20 221 -80
q104 -60 180.5 -156t116.5 -213zM1148 512q82 0 137 56t55 136t-56 136t-136 56t-136 -56t-56 -136t56 -136t136 -56z" />
    <glyph glyph-name="ankh" unicode="ankh" horiz-adv-x="1280" 
d="M1184 704q40 0 68 -28t28 -68t-28 -68t-68 -28h-448v-676q0 -37 -28.5 -64.5t-67.5 -27.5q-40 0 -68 28t-28 68v672h-452q-36 0 -64 31t-28 69q0 37 27.5 64.5t64.5 27.5h279q-95 119 -157 263t-62 277q0 246 140 397t348 151t347.5 -151t139.5 -397q0 -134 -62 -278
t-157 -262h276zM640 1600q-133 0 -214.5 -98t-81.5 -258q0 -76 32.5 -165.5t79.5 -162.5t96.5 -128.5t87.5 -77.5q38 22 87.5 77.5t96.5 128.5t79.5 162.5t32.5 165.5q0 160 -81.5 258t-214.5 98z" />
    <glyph glyph-name="star-and-crescent" unicode="star&#x2d;and&#x2d;crescent" 
d="M1362 -74q26 0 43.5 -17.5t17.5 -41.5q0 -19 -11.5 -35t-29.5 -22q-176 -66 -358 -66q-208 0 -397.5 81.5t-326.5 218.5t-218.5 326.5t-81.5 397.5t81.5 397.5t218.5 326.5t326.5 218.5t397.5 81.5q184 0 359 -66q21 -7 32 -26.5t6 -41.5q-4 -21 -21 -34.5t-38 -13.5
q-2 0 -17 1t-20 1q-171 0 -327 -67t-269 -180t-180 -269.5t-67 -327.5t67 -327.5t180 -269.5t269 -180t327 -67q5 0 20 1t17 1zM188 768q0 -206 96.5 -385.5t260.5 -294.5q-121 139 -188 314t-67 366t66 365.5t185 310.5q-163 -112 -258 -290.5t-95 -385.5zM2014 936
q24 -1 32 -25.5t-10 -41.5l-221 -216l52 -304q4 -19 -8.5 -33t-30.5 -14q-12 0 -19 5l-273 144l-274 -144q-8 -5 -18 -5q-20 0 -31 13.5t-8 33.5l52 304l-221 216q-18 17 -10 41t32 27l305 44l137 277q13 22 36 22q25 0 36 -22l136 -277zM1680 791l-99 15l-45 90l-45 -91
l-100 -15l73 -70l-18 -100l90 47l89 -47l-17 100z" />
    <glyph glyph-name="khanda" unicode="khanda" horiz-adv-x="2304" 
d="M1791 1532q223 -124 323.5 -354t33.5 -476q-50 -170 -165 -303l-210 -245q-19 -22 -49 -22q-16 0 -30 7l-317 169l-117 -81l189 -131q12 4 20 4q40 0 68 -28t28 -68t-28 -68t-68 -28q-36 0 -62.5 24t-31.5 59l-163 114v-121q64 -38 64 -108q0 -51 -36 -88t-88 -37
q-51 0 -88 36.5t-37 88.5q0 71 64 108v120l-162 -113q-5 -35 -31.5 -59t-62.5 -24q-40 0 -68 26.5t-28 65.5q0 40 28 68t68 28q5 0 17 -4l188 131l-117 82l-317 -169q-16 -8 -30 -8q-30 0 -49 22l-224 262q-83 97 -122 196q-53 133 -53.5 272t44.5 259t131.5 221t203.5 165
q15 9 33 9q29 0 47 -20q15 -16 18.5 -36.5t-7.5 -39.5q-101 -161 -101 -350q1 -160 76 -299.5t208 -228.5l303 -214v80l-172 144q-24 26 -16 61l35 69q-103 59 -165 162t-62 226q0 120 59 221t159 162l-21 46q-15 37 14 64l237 211l235 -215q14 -10 17.5 -26.5t-3.5 -33.5
l-20 -46q100 -61 159 -162t59 -221q0 -123 -62 -226t-166 -162l28 -69q14 -36 -11 -61l-176 -144v-81l306 213q133 89 208.5 229.5t76.5 300.5q0 189 -101 350q-26 41 8 78q18 20 46 20q6 0 12.5 -0.5t13 -2t9.5 -1.5zM606 353l76 41l-11 8q-137 91 -227.5 227.5
t-122.5 296.5q-9 -125 39 -248q26 -69 89 -142zM1439 1088q0 72 -34 134.5t-91 102.5l-45 -98q-54 -150 1 -303l35 -78q61 39 97.5 103t36.5 139zM863 1088q0 -75 36.5 -139t97.5 -103l36 78q54 150 0 302l-45 99q-58 -40 -91.5 -102.5t-33.5 -134.5zM1966 746q23 89 17 177
q-33 -159 -124.5 -296t-229.5 -228l-7 -5l76 -41l143 167q95 111 125 226z" />
    <glyph glyph-name="peace" unicode="peace" 
d="M1024 1792q209 0 398.5 -81t326.5 -218t218 -326.5t81 -398.5t-81 -398.5t-218 -326.5t-326.5 -218t-398.5 -81t-398.5 81t-326.5 218t-218 326.5t-81 398.5t81 398.5t218 326.5t326.5 218t398.5 81zM1856 768q0 157 -57 301.5t-155.5 253.5t-234.5 181t-289 90v-780
l608 -486q128 205 128 440zM928 -58v626l-489 -391q204 -202 489 -235zM1120 568v-626q140 16 265.5 77t223.5 158zM928 1594q-153 -18 -289 -90t-234.5 -181t-155.5 -253.5t-57 -301.5q0 -235 128 -440l608 486v780z" />
    <glyph glyph-name="yin-yang" unicode="yin&#x2d;yang" 
d="M1024 448q53 0 90.5 -37.5t37.5 -90.5t-37.5 -90.5t-90.5 -37.5t-90.5 37.5t-37.5 90.5t37.5 90.5t90.5 37.5zM1024 1088q-53 0 -90.5 37.5t-37.5 90.5t37.5 90.5t90.5 37.5t90.5 -37.5t37.5 -90.5t-37.5 -90.5t-90.5 -37.5zM1024 1792q209 0 398.5 -81t326.5 -218
t218 -326.5t81 -398.5t-81 -398.5t-218 -326.5t-326.5 -218t-398.5 -81t-398.5 81t-326.5 218t-218 326.5t-81 398.5t81 398.5t218 326.5t326.5 218t398.5 81zM492 126q-28 98 -28 178q0 152 75 281t204 204t281 75t260 108t108 260t-108 260t-260 108q-169 0 -323 -66
t-265.5 -177.5t-177.5 -265.5t-66 -323q0 -190 80 -357.5t220 -284.5zM1024 -64q169 0 323 66t265.5 177.5t177.5 265.5t66 323q0 190 -81 357.5t-223 284.5q32 -94 32 -178q0 -152 -75 -281t-204 -204t-281 -75t-260 -108t-108 -260t108 -260t260 -108z" />
    <glyph glyph-name="dharmachakra" unicode="dharmachakra" 
d="M1997 864q21 1 36 -13.5t15 -35.5v-94q0 -21 -15 -35.5t-36 -13.5l-82 6q-27 -262 -195 -470l60 -56q15 -14 16 -35t-14 -36l-67 -67q-15 -15 -36 -14t-35 16l-56 56q-208 -169 -470 -195l2 -82q1 -21 -13.5 -36t-35.5 -15h-94q-21 0 -35.5 15t-13.5 36l6 79
q-262 28 -470 195l-56 -57q-14 -15 -35 -15.5t-36 14.5l-67 66q-15 15 -14 36t16 35l56 56q-169 208 -195 470l-82 -2q-21 -1 -36 13.5t-15 35.5v94q0 21 15 35.5t36 13.5l78 -2q28 262 195 470l-56 56q-15 14 -15.5 35t14.5 36l66 67q15 14 36 13.5t35 -15.5l56 -60
q208 167 470 195l-2 82q-1 21 13.5 36t35.5 15h94q21 0 35.5 -15t13.5 -36l-2 -82q265 -28 466 -195l56 60q14 15 35 15.5t36 -14.5l67 -66q15 -15 14 -36t-16 -35l-60 -56q171 -205 199 -470zM1722 856q-24 190 -143 344l-234 -221q40 -62 55 -133zM1024 576q80 0 136 56
t56 136t-56 136t-136 56t-136 -56t-56 -136t56 -136t136 -56zM1456 1323q-153 119 -344 143l-10 -322q71 -15 133 -55zM936 1466q-189 -23 -344 -143l222 -235q65 42 132 56zM469 1200q-119 -154 -143 -344l318 -10q23 79 59 133zM326 680q24 -190 143 -344l235 222
q-42 65 -56 132zM592 213q155 -120 344 -143l10 322q-71 15 -133 55zM1112 70q191 24 344 143l-221 235q-64 -42 -133 -56zM1579 336q119 154 143 344l-322 10q-15 -71 -55 -133z" />
    <glyph glyph-name="face-frown" unicode="face&#x2d;frown" 
d="M576 198q37 -13 72.5 3.5t49.5 54.5q29 80 118 136t208 56t208 -56t118 -136q14 -38 49.5 -54.5t72.5 -3.5q38 14 54.5 49.5t3.5 72.5q-52 144 -192.5 232t-313.5 88t-313.5 -88t-192.5 -232q-13 -37 3.5 -72.5t54.5 -49.5zM834 960q0 53 -37.5 90.5t-90.5 37.5
t-90.5 -37.5t-37.5 -90.5t37.5 -90.5t90.5 -37.5t90.5 37.5t37.5 90.5zM1218 960q0 -53 37.5 -90.5t90.5 -37.5t90.5 37.5t37.5 90.5t-37.5 90.5t-90.5 37.5t-90.5 -37.5t-37.5 -90.5zM2048 768q0 209 -81 398.5t-218 326.5t-326.5 218t-398.5 81t-398.5 -81t-326.5 -218
t-218 -326.5t-81 -398.5t81 -398.5t218 -326.5t326.5 -218t398.5 -81t398.5 81t326.5 218t218 326.5t81 398.5zM1024 1600q169 0 323.5 -66t265.5 -177t177 -265.5t66 -323.5t-66 -323.5t-177 -265.5t-265.5 -177t-323.5 -66t-323.5 66t-265.5 177t-177 265.5t-66 323.5
t66 323.5t177 265.5t265.5 177t323.5 66z" />
    <glyph glyph-name="mercury" unicode="mercury" horiz-adv-x="1536" 
d="M1472 900q0 -177 -80 -329.5t-219 -250.5t-309 -121v-103h128q40 0 68 -28t28 -68t-28 -68t-68 -28h-128v-64q0 -40 -28 -68t-68 -28t-68 29t-28 71v64h-128q-40 0 -68 28t-28 68t28 68t68 28h128v103q-127 17 -239.5 79t-193.5 153.5t-128 212.5t-47 252
q0 193 98.5 356.5t263.5 254.5q-80 52 -144 120q-27 29 -25.5 69.5t30.5 69.5q29 27 68.5 25.5t66.5 -30.5q95 -102 220.5 -138.5t251 0t220.5 138.5q27 29 66.5 30.5t68.5 -25.5t30.5 -67t-25.5 -69q-64 -68 -144 -120q165 -92 263.5 -255.5t98.5 -358.5zM256 900
q0 -140 69 -258t186.5 -186t256.5 -68q104 0 198.5 40.5t163.5 109.5t109.5 163.5t40.5 198.5t-40.5 198.5t-109.5 163.5t-163.5 109.5t-198.5 40.5t-198.5 -40.5t-163.5 -109.5t-109.5 -163.5t-40.5 -198.5z" />
    <glyph glyph-name="venus" unicode="venus" horiz-adv-x="1536" 
d="M1472 1088q0 -131 -47 -252t-128 -212.5t-193.5 -153.5t-239.5 -79v-167h192q40 0 68 -28t28 -68t-28 -68t-68 -28h-192v-192q0 -40 -28 -68t-68 -28t-68 28t-28 68v192h-192q-40 0 -68 28t-28 68t28 68t68 28h192v167q-127 17 -239.5 79t-193.5 153.5t-128 212.5
t-47 252q0 143 55.5 273.5t150 225t225 150t273.5 55.5t273.5 -55.5t225 -150t150 -225t55.5 -273.5zM256 1088q0 -104 40.5 -198.5t109.5 -163.5t163.5 -109.5t198.5 -40.5t198.5 40.5t163.5 109.5t109.5 163.5t40.5 198.5t-40.5 198.5t-109.5 163.5t-163.5 109.5
t-198.5 40.5t-198.5 -40.5t-163.5 -109.5t-109.5 -163.5t-40.5 -198.5z" />
    <glyph glyph-name="mars" unicode="mars" horiz-adv-x="1792" 
d="M1696 1664q40 0 68 -28t28 -68v-448q0 -40 -28 -68t-68 -28t-68 28t-28 68v216l-337 -337q104 -137 133.5 -303.5t-21 -330t-174.5 -287.5q-208 -206 -497 -206q-140 0 -268.5 52t-229.5 154q-135 135 -183 316.5t0 363t183 316.5q101 101 229.5 153.5t268.5 52.5
q232 0 423 -145l337 337h-216q-40 0 -68 28t-28 68t28 68t68 28h448zM1066 214q98 98 133 230t0 264t-133 230v0q-150 150 -362 150t-362 -150q-98 -98 -133 -230t0 -264t133 -230q150 -150 362 -150t362 150z" />
    <glyph glyph-name="chess-king" unicode="chess&#x2d;king" horiz-adv-x="1792" 
d="M1568 -64q38 0 63.5 -30.5t25.5 -69.5q0 -37 -27 -64.5t-66 -27.5h-1340q-39 0 -66 31t-27 69q0 37 27 64.5t66 27.5h1344zM1792 928q0 -39 -14 -67l-260 -797h-203l284 856q1 2 1 8q0 10 -8.5 21t-24.5 11h-1343q-14 0 -23 -10t-9 -22q0 -7 1 -10l283 -854h-202
l-263 796q-11 35 -11 68q0 92 65.5 158t158.5 66h572v224h-124q-40 0 -68 28t-28 68t28 68t68 28h128v132q0 38 25.5 65t66.5 27t70.5 -27t32.5 -65v-132h125q39 0 65.5 -28t26.5 -68t-28 -68t-68 -28h-124v-224h577q54 0 101 -24t78 -67q44 -59 44 -133z" />
    <glyph glyph-name="chess-queen" unicode="chess&#x2d;queen" 
d="M1024 1344q-93 0 -160.5 65.5t-67.5 158.5t67.5 158.5t160.5 65.5t158.5 -65.5t65.5 -158.5t-65.5 -158.5t-158.5 -65.5zM2044 1002q0 -23 -3 -28l-432 -910h-213l372 782q-48 -14 -104 -14q-63 0 -118.5 18.5t-91 43t-65.5 57.5t-42.5 52.5t-21.5 37.5
q-55 -69 -134 -107t-167 -38t-169 39t-132 107q-31 -61 -78 -104.5t-85.5 -63t-85 -30.5t-61 -11.5t-29.5 -0.5q-57 0 -105 14l373 -782h-212l-433 910q-7 13 -7 28q0 34 28 53l115 64q16 11 34 11q35 0 50 -29q58 -77 154 -77q49 0 87.5 21t60 53t32.5 65t11 63
q0 23 16 38.5t41 15.5h155q18 0 32.5 -11t15.5 -29q14 -67 67 -109.5t121 -42.5q70 0 124 42.5t68 109.5q4 18 18.5 29t32.5 11h155q19 0 35 -15.5t19 -37.5q0 -72 43.5 -129t112.5 -70q24 -4 36 -4q95 0 153 77q19 29 55 29q18 0 34 -11l110 -64q28 -19 28 -53zM1696 -64
q39 0 67.5 -31t28.5 -69q0 -37 -28.5 -64.5t-67.5 -27.5h-1344q-39 0 -67.5 31t-28.5 69q0 37 28.5 64.5t67.5 27.5h1344z" />
    <glyph glyph-name="chess-rook" unicode="chess&#x2d;rook" horiz-adv-x="1536" 
d="M1440 -64q40 0 68 -28t28 -68t-28 -68t-68 -28h-1348q-36 0 -64 31t-28 69q0 37 27.5 64.5t64.5 27.5h1348zM1380 1664q66 0 111 -44.5t45 -107.5v-558q0 -58 -44 -97l-148 -128v-105q0 -299 48 -560h-196q-44 259 -44 587v188l192 167v466h-256v-192h-192v192h-256v-192
h-192v192h-256v-466l192 -167v-189q0 -325 -44 -586h-196q48 261 48 559v106l-148 129q-44 38 -44 96v558q0 63 44 107.5t104 44.5h1232zM768 896q52 0 90 -38t38 -90v-256h-256v256q0 52 38 90t90 38z" />
    <glyph glyph-name="chess-bishop" unicode="chess&#x2d;bishop" horiz-adv-x="1280" 
d="M1184 -64q40 0 68 -28t28 -68t-29 -68t-71 -28h-1088q-36 0 -64 31t-28 69q0 37 27.5 64.5t64.5 27.5h1092zM0 576q0 141 76.5 338t188.5 368.5t217 259.5q-43 11 -70.5 44.5t-27.5 77.5q0 52 38 90t90 38h256q52 0 90 -38t38 -90q0 -44 -27.5 -77.5t-70.5 -44.5
q105 -88 217 -259.5t188.5 -368.5t76.5 -338q0 -147 -73.5 -248t-182.5 -136v-128h-192v268l134 43q51 16 86.5 67t35.5 134q0 117 -76 300l-218 -217q-18 -19 -45 -19q-26 0 -45 19l-45 45q-19 18 -19 45q0 26 19 45l265 265q-31 56 -74.5 124.5t-107.5 143.5t-100 75
q-24 0 -76.5 -52.5t-115.5 -142.5t-121.5 -194t-97.5 -223t-39 -214q0 -83 35.5 -134t86.5 -67l134 -42v-269h-192v128q-109 35 -182.5 136t-73.5 248z" />
    <glyph glyph-name="chess-knight" unicode="chess&#x2d;knight" horiz-adv-x="1536" 
d="M176 510q-80 35 -128 108.5t-48 161.5v450q0 57 20 104q-20 44 -20 98q0 96 68 164t164 68h420q167 0 318.5 -65t261 -175t173.5 -262t63 -318v-780h-192v780q0 128 -49 244t-132.5 200.5t-199 134t-243.5 49.5h-420q-16 0 -28 -12t-12 -28q0 -12 6 -24l46 -93l-29 -29
q-23 -25 -23 -56v-450q0 -31 17 -57t45 -39l133 -59q21 -9 43 -9q19 0 38 8l42 17q47 17 62 67l30 100q10 36 41 52l62 36v-235q0 -45 -23.5 -83t-63.5 -58l-153 -93q-67 -34 -106 -97.5t-39 -137.5v-128h-192v130q0 164 106 290zM320 1136q0 33 23.5 56.5t56.5 23.5
t56.5 -23.5t23.5 -56.5t-23.5 -56.5t-56.5 -23.5t-56.5 23.5t-23.5 56.5zM1440 -64q40 0 68 -28t28 -68t-28 -68t-68 -28h-1348q-36 0 -64 31t-28 69q0 37 27.5 64.5t64.5 27.5h1348z" />
    <glyph glyph-name="chess-pawn" unicode="chess&#x2d;pawn" horiz-adv-x="1280" 
d="M1184 -60q38 0 63.5 -30.5t25.5 -69.5q0 -37 -27 -64.5t-66 -27.5h-1088q-37 0 -64.5 28.5t-27.5 67.5q0 40 26.5 68t65.5 28h1092zM220 644q-38 0 -65 27t-27 69q0 38 27.5 67t64.5 29h96q-74 67 -115 158t-41 194q0 128 64 238t174 174t238 64q97 0 178.5 -31.5
t131 -76t86 -99t51.5 -93t20 -65.5q13 -56 13 -115q0 -101 -40 -191t-112 -157h96q37 0 64.5 -28.5t27.5 -67.5q0 -42 -28 -69t-68 -27h-96v-122q0 -142 19.5 -254.5t74.5 -203.5h-214q-72 178 -72 458v118h-256v-118q0 -276 -72 -454h-214q55 91 74.5 203.5t19.5 254.5v118
h-100zM640 1476q-120 0 -204 -83.5t-84 -204.5t84 -204.5t204 -83.5q119 0 203.5 84.5t84.5 203.5t-84.5 203.5t-203.5 84.5z" />
    <glyph glyph-name="spade" unicode="spade" 
d="M934 1753l-775 -799q-110 -114 -145 -268t13.5 -305.5t171.5 -257.5q150 -126 342.5 -122.5t347.5 123.5q28 22 39 33v-221h-192q-40 0 -68 -28t-28 -68t28 -68t68 -28h576q40 0 68 28t28 68t-28 68t-68 28h-192v221q20 -19 41 -35q154 -119 345.5 -121.5t346.5 122.5
q121 106 169 257.5t12.5 305.5t-145.5 268l-771 799q-39 39 -93.5 39t-90.5 -39zM1750 820q111 -114 105 -279t-127 -272q-103 -86 -244 -76t-243 113l-73 81q-57 63 -140 63q-84 2 -141 -59l-83 -79q-66 -70 -155 -99t-174.5 -14t-149.5 69h-1q-82 70 -114 171t-9 203
t96 178l729 752z" />
    <glyph glyph-name="club" unicode="club" 
d="M1472 64q117 0 223.5 45.5t184 123t123 184t45.5 223.5q0 204 -127.5 361t-324.5 201q0 2 2 7t2 7q0 117 -45.5 223.5t-123 184t-184 123t-223.5 45.5t-223.5 -45.5t-184 -123t-123 -184t-45.5 -223.5v-14q-194 -44 -321 -201t-127 -361q0 -117 45.5 -223.5t123 -184
t184 -123t223.5 -45.5q165 0 304 87q7 4 48 37v-252h-192q-40 0 -68 -28t-28 -68t28 -68t68 -28h576q40 0 68 28t28 68t-28 68t-68 28h-192v252q7 -6 22 -19t22 -18q146 -87 308 -87zM1408 1216q0 -2 -2 -5t-2 -5q1 -68 44 -122.5t110 -69.5q129 -30 213.5 -134.5
t84.5 -239.5q0 -159 -112.5 -271.5t-271.5 -112.5q-89 0 -168.5 38.5t-130.5 104.5q-57 71 -149 71t-149 -71q-54 -67 -132 -105t-167 -38q-159 0 -271.5 112.5t-112.5 271.5q0 135 85 239.5t214 134.5q67 15 109 69.5t40 122.5v10q0 160 111.5 272t272.5 112
q159 0 271.5 -112.5t112.5 -271.5z" />
    <glyph glyph-name="heart" unicode="heart" 
d="M976 1456v0q-97 98 -230 140.5t-268 19.5q-207 -35 -342.5 -194.5t-135.5 -369.5v-24q0 -124 49.5 -238.5t140.5 -199.5l723 -674q47 -44 111 -44t111 44l723 674q91 84 140.5 198.5t49.5 239.5v24q0 210 -135.5 369.5t-342.5 194.5q-137 23 -269.5 -19.5t-232.5 -140.5
l-48 -48zM1020 1136l188 188q66 63 153.5 90t177.5 12q137 -23 227 -129t90 -245v-24q0 -85 -33.5 -162t-95.5 -135l-703 -656l-703 656q-129 120 -129 297v24q0 139 90 245t227 129q90 15 177.5 -12t153.5 -90z" />
    <glyph glyph-name="diamond" unicode="diamond" 
d="M911 1745l-864 -864q-47 -47 -47 -113t47 -113l864 -864q47 -47 113 -47t113 47l864 864q47 47 47 113t-47 113l-864 864q-47 47 -113 47t-113 -47zM1024 1587l819 -819l-819 -819l-819 819z" />
    <glyph glyph-name="recycle" unicode="recycle" 
d="M674 1175l91 -375q10 -39 -10.5 -72.5t-59.5 -43.5q-8 -2 -23 -2q-33 0 -59 20t-34 53l-34 138l-271 -452q-37 -61 -5 -125l10 -20q17 -33 48.5 -52.5t68.5 -19.5h148q40 0 68 -28t28 -68t-28 -68t-68 -28h-148q-92 0 -169.5 47.5t-118.5 130.5l-10 20q-37 74 -34 156.5
t46 153.5l258 430l-115 -43q-38 -14 -73.5 3t-49.5 54q-14 38 2.5 74t53.5 49l361 135q40 15 78 -5q40 -21 49 -62zM712 1358q-34 20 -43.5 58.5t10.5 72.5l69 115q44 72 118 114t158 42t158.5 -41.5t117.5 -114.5l218 -363l19 115q7 40 39 63t72 16q39 -7 62.5 -39.5
t16.5 -71.5l-64 -380q-8 -41 -44 -65q-24 -15 -51 -15q-15 0 -27 4l-370 108q-38 11 -57 47t-8 72q11 38 46 57t73 8l142 -41l-232 386q-23 38 -67.5 52t-89 0t-66.5 -52l-68 -114q-20 -34 -59 -43.5t-73 10.5zM1938 540q42 -70 44.5 -153.5t-32.5 -156.5l-10 -20
q-41 -83 -118.5 -130.5t-169.5 -47.5h-504l100 -88q30 -26 32 -66t-24 -70q-29 -32 -72 -32q-37 0 -64 24l-288 256q-32 29 -32 72q0 44 33 72l288 256q29 26 68.5 24t66.5 -32q26 -30 24 -70t-32 -66l-99 -88h503q37 0 68.5 19.5t48.5 52.5l10 20q32 64 -5 125l-90 149
q-20 34 -10.5 73t43.5 59q35 20 73.5 10.5t58.5 -43.5z" />
    <glyph glyph-name="dice-one" unicode="dice&#x2d;one" horiz-adv-x="1792" 
d="M896 896q52 0 90 -38t38 -90t-38 -90t-90 -38t-90 38t-38 90t38 90t90 38zM1536 1664q106 0 181 -75t75 -181v-1280q0 -106 -75 -181t-181 -75h-1280q-106 0 -181 75t-75 181v1280q0 106 75 181t181 75h1280zM1600 128v1280q0 27 -18.5 45.5t-45.5 18.5h-1280
q-27 0 -45.5 -18.5t-18.5 -45.5v-1280q0 -27 18.5 -45.5t45.5 -18.5h1280q27 0 45.5 18.5t18.5 45.5z" />
    <glyph glyph-name="dice-two" unicode="dice&#x2d;two" horiz-adv-x="1792" 
d="M512 1280q52 0 90 -38t38 -90t-38 -90t-90 -38t-90 38t-38 90t38 90t90 38zM1536 1664q106 0 181 -75t75 -181v-1280q0 -106 -75 -181t-181 -75h-1280q-106 0 -181 75t-75 181v1280q0 106 75 181t181 75h1280zM1600 128v1280q0 27 -18.5 45.5t-45.5 18.5h-1280
q-27 0 -45.5 -18.5t-18.5 -45.5v-1280q0 -27 18.5 -45.5t45.5 -18.5h1280q27 0 45.5 18.5t18.5 45.5zM1280 512q52 0 90 -38t38 -90t-38 -90t-90 -38t-90 38t-38 90t38 90t90 38z" />
    <glyph glyph-name="dice-three" unicode="dice&#x2d;three" horiz-adv-x="1792" 
d="M512 1280q52 0 90 -38t38 -90t-38 -90t-90 -38t-90 38t-38 90t38 90t90 38zM896 896q52 0 90 -38t38 -90t-38 -90t-90 -38t-90 38t-38 90t38 90t90 38zM1536 1664q106 0 181 -75t75 -181v-1280q0 -106 -75 -181t-181 -75h-1280q-106 0 -181 75t-75 181v1280q0 106 75 181
t181 75h1280zM1600 128v1280q0 27 -18.5 45.5t-45.5 18.5h-1280q-27 0 -45.5 -18.5t-18.5 -45.5v-1280q0 -27 18.5 -45.5t45.5 -18.5h1280q27 0 45.5 18.5t18.5 45.5zM1280 512q52 0 90 -38t38 -90t-38 -90t-90 -38t-90 38t-38 90t38 90t90 38z" />
    <glyph glyph-name="dice-four" unicode="dice&#x2d;four" horiz-adv-x="1792" 
d="M1536 1664q106 0 181 -75t75 -181v-1280q0 -106 -75 -181t-181 -75h-1280q-106 0 -181 75t-75 181v1280q0 106 75 181t181 75h1280zM1600 128v1280q0 27 -18.5 45.5t-45.5 18.5h-1280q-27 0 -45.5 -18.5t-18.5 -45.5v-1280q0 -27 18.5 -45.5t45.5 -18.5h1280
q27 0 45.5 18.5t18.5 45.5zM512 1280q52 0 90 -38t38 -90t-38 -90t-90 -38t-90 38t-38 90t38 90t90 38zM1280 512q52 0 90 -38t38 -90t-38 -90t-90 -38t-90 38t-38 90t38 90t90 38zM1280 1280q52 0 90 -38t38 -90t-38 -90t-90 -38t-90 38t-38 90t38 90t90 38zM512 512
q52 0 90 -38t38 -90t-38 -90t-90 -38t-90 38t-38 90t38 90t90 38z" />
    <glyph glyph-name="dice-five" unicode="dice&#x2d;five" horiz-adv-x="1792" 
d="M512 1280q52 0 90 -38t38 -90t-38 -90t-90 -38t-90 38t-38 90t38 90t90 38zM512 512q52 0 90 -38t38 -90t-38 -90t-90 -38t-90 38t-38 90t38 90t90 38zM1280 512q52 0 90 -38t38 -90t-38 -90t-90 -38t-90 38t-38 90t38 90t90 38zM1280 1280q52 0 90 -38t38 -90t-38 -90
t-90 -38t-90 38t-38 90t38 90t90 38zM1536 1664q106 0 181 -75t75 -181v-1280q0 -106 -75 -181t-181 -75h-1280q-106 0 -181 75t-75 181v1280q0 106 75 181t181 75h1280zM1600 128v1280q0 27 -18.5 45.5t-45.5 18.5h-1280q-27 0 -45.5 -18.5t-18.5 -45.5v-1280
q0 -27 18.5 -45.5t45.5 -18.5h1280q27 0 45.5 18.5t18.5 45.5zM896 896q52 0 90 -38t38 -90t-38 -90t-90 -38t-90 38t-38 90t38 90t90 38z" />
    <glyph glyph-name="dice-six" unicode="dice&#x2d;six" horiz-adv-x="1792" 
d="M512 1280q52 0 90 -38t38 -90t-38 -90t-90 -38t-90 38t-38 90t38 90t90 38zM512 896q52 0 90 -38t38 -90t-38 -90t-90 -38t-90 38t-38 90t38 90t90 38zM512 512q52 0 90 -38t38 -90t-38 -90t-90 -38t-90 38t-38 90t38 90t90 38zM1536 1664q106 0 181 -75t75 -181v-1280
q0 -106 -75 -181t-181 -75h-1280q-106 0 -181 75t-75 181v1280q0 106 75 181t181 75h1280zM1600 128v1280q0 27 -18.5 45.5t-45.5 18.5h-1280q-27 0 -45.5 -18.5t-18.5 -45.5v-1280q0 -27 18.5 -45.5t45.5 -18.5h1280q27 0 45.5 18.5t18.5 45.5zM1280 1280q52 0 90 -38
t38 -90t-38 -90t-90 -38t-90 38t-38 90t38 90t90 38zM1280 512q52 0 90 -38t38 -90t-38 -90t-90 -38t-90 38t-38 90t38 90t90 38zM1280 896q52 0 90 -38t38 -90t-38 -90t-90 -38t-90 38t-38 90t38 90t90 38z" />
    <glyph glyph-name="anchor" unicode="anchor" horiz-adv-x="2304" 
d="M1472 1472q0 133 -93.5 226.5t-226.5 93.5t-226.5 -93.5t-93.5 -226.5q0 -107 63 -191.5t162 -114.5q-1 -5 -1 -14v-128h-192q-40 0 -68 -28t-28 -68t28 -68t68 -28h192v-896h-96q-145 0 -268.5 70t-197.5 191.5t-78 265.5l66 -56q30 -25 69.5 -22t65.5 33q25 30 22 69.5
t-33 65.5l-224 192q-27 23 -62 23t-62 -23l-224 -192q-30 -26 -33.5 -65.5t22.5 -69.5t65.5 -33t69.5 22l66 57q3 -147 62.5 -280.5t158 -229.5t233 -153t282.5 -57h384q148 0 282.5 57t232.5 153t156.5 229.5t60.5 280.5l70 -57q30 -25 69.5 -22t65.5 33q25 30 22 69.5
t-33 65.5l-224 192q-27 23 -62 23t-62 -23l-224 -192q-30 -26 -33 -65.5t22 -69.5q26 -30 65.5 -33t69.5 22l66 56q-4 -144 -78 -265.5t-197.5 -191.5t-268.5 -70h-96v896h192q40 0 68 28t28 68t-28 68t-68 28h-192v128q0 9 -1 14q99 30 162 114.5t63 191.5zM1152 1344
q-53 0 -90.5 37.5t-37.5 90.5t37.5 90.5t90.5 37.5t90.5 -37.5t37.5 -90.5t-37.5 -90.5t-90.5 -37.5z" />
    <glyph glyph-name="swords" unicode="swords" 
d="M2029 -56q19 -18 17.5 -45.5t-24.5 -45.5l-90 -90q-19 -19 -45.5 -19t-45.5 19l-237 237l-233 -127q-41 -23 -75 11l-70 71q-19 19 -19 45t19 45l66 67l-1228 1232l-63 375q-4 35 18.5 56t53.5 16l375 -63l1232 -1232l66 66q19 19 45.5 19t45.5 -19l70 -70q34 -34 11 -75
l-126 -236zM1428 248l116 112l-1188 1189l-136 23l23 -136zM1692 1549l-446 -442l-132 135l486 486l375 63q32 4 54.5 -18.5t17.5 -53.5l-63 -375l-486 -486l-135 136l442 442l23 136zM798 429l132 -136l-182 -181l67 -67q19 -19 19 -45t-19 -45l-70 -71q-15 -15 -36 -18
t-40 7l-232 127l-237 -237q-19 -19 -45.5 -19t-45.5 19l-90 90q-19 19 -19 45.5t19 45.5l237 237l-126 236q-23 41 11 75l70 71q19 19 45 19t45 -19l67 -67l182 181l136 -136l-182 -181l113 -113z" />
    <glyph glyph-name="scale-balanced" unicode="balance&#x2d;scale" horiz-adv-x="2560" 
d="M1024 448q0 -86 -70.5 -160t-189.5 -117t-256 -43t-254 42.5t-185.5 116.5t-68.5 161v4q0 33 18.5 75t142.5 289q104 207 179 358q26 51 72.5 78.5t99.5 27.5t100 -27.5t72 -78.5q73 -146 175 -349q124 -245 144.5 -291.5t20.5 -82.5v-3zM512 1088l-288 -576h576z
M2076 -64q43 0 69.5 -28.5t23.5 -71.5q0 -37 -27 -64.5t-66 -27.5h-1596q-38 0 -65 31t-27 69q0 37 26.5 64.5t65.5 27.5h704v1232q-83 26 -142 90.5t-76 149.5h-486q-38 0 -65 31t-27 69q0 37 26.5 64.5t65.5 27.5h507q37 86 116.5 139t176.5 53t176 -53t114 -139h506
q42 0 69 -28.5t27 -71.5q0 -37 -26.5 -64.5t-65.5 -27.5h-486q-17 -85 -76 -149.5t-142 -90.5v-1232h700zM1280 1344q52 0 88 37.5t36 90.5q0 52 -37 90t-87 38t-87 -38t-37 -90q0 -53 36 -90.5t88 -37.5zM2556 448q0 -132 -148 -226t-360 -94q-139 0 -257 43t-186.5 116.5
t-68.5 160.5v4q0 33 20.5 80t139.5 287q102 206 176 355q25 51 72 78.5t100 27.5q54 0 101.5 -28t70.5 -78q73 -146 175 -349q124 -245 144.5 -291.5t20.5 -82.5v-3zM1756 512h577l-289 576z" />
    <glyph glyph-name="flower-daffodil" unicode="flower&#x2d;daffodil" 
d="M1984 640q27 0 47 -23.5t17 -54.5q-15 -169 -91 -320.5t-194.5 -260.5t-277.5 -173t-332 -64h-257q-173 0 -332 63.5t-277.5 172.5t-195 260.5t-91.5 320.5q-3 32 16.5 55.5t47.5 23.5h189q199 0 373.5 -82t297.5 -226v328q-80 -29 -168 -16.5t-160 63.5t-112 129
t-40 166q0 111 70 214q-70 96 -70 214q0 150 108 256t258 106q120 0 214 -70q94 70 214 70q150 0 256 -106t106 -256q0 -120 -70 -214q70 -96 70 -214t-71 -214t-183.5 -131.5t-225.5 3.5v-328q127 144 302 226t373 82h189zM896 -64h64l-100 168q-99 165 -261 254.5
t-383 89.5q63 -223 253 -367.5t427 -144.5zM947 902l77 103l77 -103q51 -70 137 -70q70 0 120 50t50 120q0 87 -69 137l-104 77l104 77q69 50 69 137q0 70 -50 120t-120 50q-41 0 -77.5 -18.5t-59.5 -51.5l-77 -103l-77 103q-51 70 -137 70q-71 0 -122 -50.5t-48 -120.5
q0 -85 70 -136l103 -77l-103 -77q-40 -30 -59 -76.5t-11 -96.5q14 -50 49.5 -85t84.5 -45q47 -11 95.5 7.5t77.5 58.5zM1152 -64q237 0 427 144t254 368q-222 0 -383.5 -89.5t-261.5 -253.5l-101 -169h65zM1152 1216q0 -52 -38 -90t-90 -38t-90 38t-38 90t38 90t90 38
t90 -38t38 -90z" />
    <glyph glyph-name="gear" unicode="cog" 
d="M640 768q0 -160 111.5 -272t272.5 -112q159 0 271.5 112.5t112.5 271.5q0 161 -112 272.5t-272 111.5q-162 0 -273 -111t-111 -273zM1024 960q80 0 136 -56t56 -136t-56 -136t-136 -56t-136 56t-56 136t56 136t136 56zM1172 1792h-296q-67 0 -119 -41t-68 -106l-31 -130
q-59 -29 -98 -56l-132 38q-61 19 -122.5 -6t-94.5 -82l-148 -257q-33 -58 -23.5 -124t57.5 -112l97 -88q-2 -44 -2 -56q0 -24 2 -60l-97 -92q-48 -46 -57.5 -112t23.5 -124l148 -256q33 -58 94.5 -83t122.5 -6l132 38q39 -27 98 -56l31 -130q16 -65 68 -106t119 -41h296
q67 0 119 41t68 106l31 130q59 29 98 56l128 -38q64 -19 126 6t95 83l148 256q33 58 23.5 124t-57.5 112l-97 92q2 36 2 56q0 16 -2 60l97 88q48 46 57.5 112t-23.5 124l-148 257q-33 58 -95 82.5t-126 5.5l-128 -38q-39 27 -98 56l-31 130q-16 65 -68 106t-119 41z
M822 1378l54 222h296l54 -222l45 -19q74 -30 141 -82l38 -29l220 64l149 -256l-166 -158l6 -48q5 -34 5 -82t-5 -82l-6 -48l166 -158l-149 -256l-220 64l-38 -29q-67 -52 -141 -82l-45 -19l-54 -222h-296l-54 222l-45 19q-74 30 -141 82l-38 29l-220 -64l-149 256l166 158
l-6 48q-5 45 -5 82t5 82l6 48l-166 158l149 256l220 -64l38 29q67 52 141 82z" />
    <glyph glyph-name="atom" unicode="atom" 
d="M1024 896q52 0 90 -38t38 -90t-38 -90t-90 -38q-53 0 -92.5 38t-39.5 90t39.5 90t92.5 38zM1885 1280q52 -103 22.5 -235t-133.5 -277q104 -145 134.5 -276.5t-23.5 -235.5q-46 -82 -143 -123.5t-230 -41.5q-54 0 -113 8q-70 -166 -167.5 -260.5t-207.5 -94.5t-207.5 94
t-167.5 260q-61 -8 -113 -8q-133 0 -230 42t-143 124q-54 104 -23.5 235t134.5 277q-104 146 -134.5 277t23.5 235q46 82 142.5 124t229.5 42q54 0 113 -8q70 166 167.5 260t208.5 94q110 0 207.5 -94t167.5 -260q61 8 113 8q133 0 230 -42t143 -124zM1024 1600
q-44 0 -93.5 -52.5t-94.5 -147.5q111 -31 188 -64q91 37 188 64q-44 95 -94.5 147.5t-93.5 52.5zM536 282q9 0 26.5 2.5t23.5 2.5q-25 97 -39 197q-80 65 -148 134q-57 -86 -76 -157t2 -109q18 -32 75 -51t136 -19zM547 1052q14 100 39 197q-8 0 -26 2.5t-24 2.5
q-79 0 -136 -19t-75 -51q-22 -38 -2.5 -108.5t76.5 -157.5q75 75 148 134zM1024 -64q44 0 93.5 52.5t94.5 147.5q-111 31 -188 64q-84 -34 -188 -68q45 -92 95 -144t93 -52zM1024 384q157 0 270.5 113t113.5 271q0 159 -112.5 271.5t-271.5 112.5t-271.5 -112.5
t-112.5 -271.5t112.5 -271.5t271.5 -112.5zM1724 352q19 40 -1 111t-78 156q-37 -42 -144 -135q-31 -170 -38 -197q8 0 26 -2.5t24 -2.5q79 0 136 19t75 51zM1649 918q56 84 75 157t-1 109q-18 32 -74.5 50.5t-136.5 18.5q-9 0 -26.5 -2.5t-23.5 -2.5q11 -40 39 -196
q80 -65 148 -134z" />
    <glyph glyph-name="triangle-exclamation" unicode="exclamation&#x2d;triangle" 
d="M2025 124q26 -42 23 -86.5t-23.5 -81.5t-60 -60.5t-87.5 -23.5h-1706q-48 0 -88 23.5t-60 60.5t-24 81.5t21 86.5l852 1456q26 41 66.5 62.5t85.5 21.5q98 0 148 -84zM210 64h1628l-818 1389zM1024 444q52 0 89 -37t37 -89t-37 -89t-89 -37t-89 37t-37 89t37 89t89 37z
M928 1056q0 40 28 68t68 28t68 -28t28 -68v-384q0 -40 -28 -68t-68 -28t-68 28t-28 68v384z" />
    <glyph glyph-name="bolt" unicode="bolt" horiz-adv-x="1536" 
d="M1159 1792q-42 0 -75 -28l-1037 -886q-47 -41 -47 -103q0 -56 39.5 -95.5t95.5 -39.5h346l-214 -750q-16 -55 18.5 -100.5t91.5 -45.5q43 0 75 27l1035 879q49 43 49 106q0 58 -41 99t-99 41h-341l215 750q16 55 -19 100.5t-92 45.5zM1014 1452l-178 -626q-13 -47 15 -84
q28 -38 77 -38h326l-733 -622l179 628q13 47 -15 84q-29 38 -77 38h-319z" />
    <glyph glyph-name="venus-double" unicode="venus&#x2d;double" horiz-adv-x="2560" 
d="M2496 1088q0 -131 -47 -252t-128 -212.5t-193.5 -153.5t-239.5 -79v-167h192q40 0 68 -28t28 -68t-28 -68t-68 -28h-192v-192q0 -40 -28 -68t-68 -28t-68 28t-28 68v192h-192q-40 0 -68 28t-28 68t28 68t68 28h192v168q-179 24 -321 129q66 71 115 156q138 -101 302 -101
q104 0 198.5 40.5t163.5 109.5t109.5 163.5t40.5 198.5t-40.5 198.5t-109.5 163.5t-163.5 109.5t-198.5 40.5q-164 0 -302 -101q-50 88 -114 156q186 137 416 137q143 0 273.5 -55.5t225 -150t150 -225t55.5 -273.5zM1472 1088q0 -131 -47 -252t-128 -212.5t-193.5 -153.5
t-239.5 -79v-167h192q40 0 68 -28t28 -68t-28 -68t-68 -28h-192v-192q0 -40 -28 -68t-68 -28t-68 28t-28 68v192h-192q-40 0 -68 28t-28 68t28 68t68 28h192v167q-127 17 -239.5 79t-193.5 153.5t-128 212.5t-47 252q0 143 55.5 273.5t150 225t225 150t273.5 55.5
t273.5 -55.5t225 -150t150 -225t55.5 -273.5zM768 576q104 0 198.5 40.5t163.5 109.5t109.5 163.5t40.5 198.5t-40.5 198.5t-109.5 163.5t-163.5 109.5t-198.5 40.5t-198.5 -40.5t-163.5 -109.5t-109.5 -163.5t-40.5 -198.5t40.5 -198.5t109.5 -163.5t163.5 -109.5
t198.5 -40.5z" />
    <glyph glyph-name="mars-double" unicode="mars&#x2d;double" horiz-adv-x="2560" 
d="M2464 1664q40 0 68 -28t28 -68v-448q0 -39 -30.5 -67.5t-68.5 -28.5q-37 0 -65 28.5t-28 67.5v216l-337 -337q104 -137 133.5 -303.5t-21 -330t-174.5 -287.5q-102 -101 -231 -153.5t-266 -52.5q-130 0 -256 49q47 38 76 67q36 36 75 87q53 -11 105 -11q212 0 362 150
q98 98 133 230t0 264t-133 230q-28 28 -28 68t28 68l402 398h-216q-37 0 -65 28.5t-28 67.5q0 40 27 68t66 28h444zM1263 999q102 -137 131.5 -303.5t-20 -330t-173.5 -287.5q-208 -206 -497 -206q-292 0 -498 210q-135 135 -183 316t0 362.5t183 316.5q102 101 231.5 154
t266.5 53q227 0 423 -149l337 337h-216q-37 0 -64.5 28.5t-27.5 67.5q0 40 26.5 68t65.5 28h444q40 0 68 -28t28 -68v-448q0 -40 -28 -68t-68 -28q-37 0 -64.5 28.5t-27.5 67.5v216zM1066 214q98 98 133 230t0 264t-133 230q-150 150 -362 150t-362 -150q-98 -98 -133 -230
t0 -264t133 -230q150 -150 362 -150t362 150z" />
    <glyph glyph-name="venus-mars" unicode="venus&#x2d;mars" horiz-adv-x="2560" 
d="M992 224q40 0 68 -28t28 -68t-28 -68t-68 -28h-192v-192q0 -40 -28 -68t-68 -28t-68 28t-28 68v192h-192q-40 0 -68 28t-28 68t28 68t68 28h192v167q-127 17 -239.5 79t-193.5 153.5t-128 212.5t-47 252q0 143 55.5 273.5t150 225t225 150t273.5 55.5t273.5 -55.5
t225 -150t150 -225t55.5 -273.5q0 -131 -47 -252t-128 -212.5t-193.5 -153.5t-239.5 -79v-167h192zM704 576q104 0 198.5 40.5t163.5 109.5t109.5 163.5t40.5 198.5t-40.5 198.5t-109.5 163.5t-163.5 109.5t-198.5 40.5t-198.5 -40.5t-163.5 -109.5t-109.5 -163.5
t-40.5 -198.5t40.5 -198.5t109.5 -163.5t163.5 -109.5t198.5 -40.5zM2464 1792q40 0 68 -28t28 -68v-448q0 -40 -28 -68t-68 -28t-68 28t-28 68v216l-209 -209q104 -137 133.5 -303.5t-20.5 -330t-174 -287.5q-102 -101 -231.5 -153.5t-266.5 -52.5q-140 0 -268.5 52.5
t-229.5 153.5q-2 2 -6 8t-7 9q84 44 160 110q149 -141 351 -141q212 0 362 150q98 98 133 230t0 264t-133 230q-150 150 -362 150q-46 0 -101 -10q-26 85 -79 176q96 26 180 26q232 0 423 -145l209 209h-216q-40 0 -68 28t-28 68t28 68t68 28h448z" />
    <glyph glyph-name="mars-and-venus" unicode="mars&#x2d;and&#x2d;venus" 
d="M1888 1792q40 0 68 -28t28 -68v-384q0 -40 -28 -68t-68 -28t-68 28t-28 68v152l-181 -180q117 -176 117 -388q0 -131 -47 -252t-128 -212.5t-193.5 -153.5t-239.5 -79v-103h96q40 0 68 -28t28 -68t-28 -68t-68 -28h-96v-64q0 -40 -28 -68t-68 -28t-68 28t-28 68v64h-96
q-40 0 -68 28t-28 68t28 68t68 28h96v103q-127 17 -239.5 79t-193.5 153.5t-128 212.5t-47 252q0 143 55.5 273.5t150 225t225 150t273.5 55.5q262 0 460 -172l172 172h-152q-40 0 -68 28t-28 68t28 68t68 28h384zM1024 384q104 0 198.5 40.5t163.5 109.5t109.5 163.5
t40.5 198.5t-40.5 198.5t-109.5 163.5t-163.5 109.5t-198.5 40.5t-198.5 -40.5t-163.5 -109.5t-109.5 -163.5t-40.5 -198.5t40.5 -198.5t109.5 -163.5t163.5 -109.5t198.5 -40.5z" />
    <glyph glyph-name="mars-stroke" unicode="mars&#x2d;stroke" 
d="M1952 1792q40 0 68 -28t28 -68v-448q0 -40 -28 -68t-68 -28t-68 28t-28 68v216l-216 -216l124 -124q28 -28 28 -68t-28 -68t-68 -28t-68 28l-124 124l-113 -113q104 -137 133.5 -303.5t-20.5 -330t-174 -287.5q-208 -206 -498 -206q-140 0 -268.5 52t-229.5 154
q-135 135 -183 316.5t0 363t183 316.5q101 101 229.5 153.5t268.5 52.5q232 0 423 -145l113 113l-124 124q-28 28 -28 68t28 68t68 28t68 -28l124 -124l216 216h-216q-40 0 -68 28t-28 68t28 68t68 28h448zM1194 214q98 98 133 230t0 264t-133 230v0q-150 150 -362 150
t-362 -150q-98 -98 -133 -230t0 -264t133 -230q150 -150 362 -150t362 150z" />
    <glyph glyph-name="transgender" unicode="transgender&#x2d;alt" 
d="M1952 1792q40 0 68 -28t28 -68v-320q0 -40 -28 -68t-68 -28t-68 28t-28 68v88l-318 -318q126 -178 126 -378q0 -238 -155.5 -416t-388.5 -214v-74l96 -4q40 0 68 -26.5t28 -65.5q0 -40 -28 -68t-68 -28h-96v-32q0 -40 -28 -68t-68 -28t-68 28t-28 68v32l-96 4
q-39 0 -67.5 29.5t-28.5 66.5t28.5 64.5t67.5 27.5h96v74q-233 36 -388.5 213.5t-155.5 416.5q0 207 126 378l-62 62l-60 -60q-28 -28 -68 -28t-68 28t-28 68t28 68l60 60l-120 120v-88q0 -40 -28 -68t-68 -28t-68 28t-28 68v320q0 40 28 68t68 28h320q40 0 68 -28t28 -68
t-28 -68t-68 -28h-88l120 -120l60 60q28 28 68 28t68 -28t28 -68t-28 -68l-60 -60l62 -62q171 126 378 126q200 0 378 -126l318 318h-88q-40 0 -68 28t-28 68t28 68t68 28h320zM1024 320q185 0 316.5 131.5t131.5 316.5q0 183 -130 315q0 1 -1 1h-1v1q0 1 -1 1
q-132 130 -315 130t-315 -130q1 -1 -5 2q4 -5 2 -5q-130 -132 -130 -315q0 -185 131.5 -316.5t316.5 -131.5z" />
    <glyph glyph-name="mars-stroke-up" unicode="mars&#x2d;stroke&#x2d;up" horiz-adv-x="1536" 
d="M864 1145q127 -17 239.5 -78.5t193.5 -153t128 -213.5t47 -256q0 -142 -55.5 -271.5t-150 -223.5t-225 -149.5t-273.5 -55.5t-273.5 55.5t-225 150t-150 225t-55.5 273.5q0 177 80 328.5t219 248.5t309 120v39h-128q-39 0 -67.5 31t-28.5 69q0 37 28.5 64.5t67.5 27.5
h128v128l-102 -77q-32 -24 -71.5 -18.5t-63.5 37.5t-18.5 71.5t37.5 63.5l256 188q26 19 58 19t58 -19l256 -188q32 -24 37.5 -63.5t-18.5 -71.5q-29 -38 -77 -38q-33 0 -58 19l-102 77v-128h128q39 0 67.5 -31t28.5 -69q0 -37 -28.5 -64.5t-67.5 -27.5h-128v-39zM768 -64
q211 0 361.5 149.5t150.5 358.5q0 103 -40.5 197t-109.5 162.5t-163.5 109t-198.5 40.5t-198.5 -40.5t-163.5 -109t-109.5 -162.5t-40.5 -197q0 -209 150.5 -358.5t361.5 -149.5z" />
    <glyph glyph-name="mars-stroke-right" unicode="mars&#x2d;stroke&#x2d;right" horiz-adv-x="2560" 
d="M2468 836q28 -28 28 -68t-28 -68l-319 -320q-28 -28 -68 -28q-41 0 -69 28t-28 68t28 69l155 155h-311v-192q0 -40 -28 -68t-68 -28t-68 28t-28 68v192h-135q-17 -127 -79 -239.5t-153.5 -193.5t-212.5 -128t-252 -47q-143 0 -273.5 55.5t-225 150t-150 225t-55.5 273.5
t55.5 273.5t150 225t225 150t273.5 55.5q131 0 252 -47t212.5 -128t153.5 -193.5t79 -239.5h135v192q0 40 28 68t68 28t68 -28t28 -68v-192h311l-155 155q-28 29 -28 69t28 68t68 28t69 -28zM832 256q104 0 198.5 40.5t163.5 109.5t109.5 163.5t40.5 198.5t-40.5 198.5
t-109.5 163.5t-163.5 109.5t-198.5 40.5t-198.5 -40.5t-163.5 -109.5t-109.5 -163.5t-40.5 -198.5t40.5 -198.5t109.5 -163.5t163.5 -109.5t198.5 -40.5z" />
    <glyph glyph-name="coffin" unicode="coffin" horiz-adv-x="1792" 
d="M1626 1331q52 -52 34 -122l-348 -1368q-11 -45 -45.5 -71t-80.5 -26h-579q-45 0 -81 27t-46 70l-348 1369q-17 70 34 121l431 423q40 38 93 38h412q56 0 93 -37zM1138 -64l327 1284l-387 380h-364l-387 -380l327 -1284h484z" />
    <glyph glyph-name="neuter" unicode="neuter" horiz-adv-x="1536" 
d="M1472 1088q0 -131 -47 -252t-128 -212.5t-193.5 -153.5t-239.5 -79v-551q0 -40 -28 -68t-68 -28t-68 28t-28 68v551q-127 17 -239.5 79t-193.5 153.5t-128 212.5t-47 252q0 143 55.5 273.5t150 225t225 150t273.5 55.5t273.5 -55.5t225 -150t150 -225t55.5 -273.5z
M768 576q104 0 198.5 40.5t163.5 109.5t109.5 163.5t40.5 198.5t-40.5 198.5t-109.5 163.5t-163.5 109.5t-198.5 40.5t-198.5 -40.5t-163.5 -109.5t-109.5 -163.5t-40.5 -198.5t40.5 -198.5t109.5 -163.5t163.5 -109.5t198.5 -40.5z" />
    <glyph glyph-name="futbol" unicode="futbol&#x2d;ball" 
d="M708 878l316 226l312 -226l-118 -366h-386zM1020 1792q209 0 399 -82t327 -220.5t217.5 -328.5t80.5 -397q0 -166 -51 -321.5t-145.5 -281t-219.5 -220t-281 -146t-323 -51.5q-209 0 -398.5 81t-326.5 218t-218 326.5t-81 398.5q0 167 51.5 323.5t146 282t220 220.5
t281 146.5t321.5 51.5zM1741 348q88 148 111 339l-341 239l134 393q-122 138 -288 211l-333 -250l-333 250q-167 -74 -288 -210l134 -394l-341 -240q18 -181 111 -338l416 6l123 -398q88 -20 178 -20t179 20l122 398z" />
    <glyph glyph-name="baseball" unicode="baseball&#x2d;ball" 
d="M1024 1792q209 0 398.5 -81t326.5 -218t218 -326.5t81 -398.5t-81 -398.5t-218 -326.5t-326.5 -218t-398.5 -81t-398.5 81t-326.5 218t-218 326.5t-81 398.5t81 398.5t218 326.5t326.5 218t398.5 81zM1185 -48q247 49 426.5 228t228.5 426h-26q-12 0 -21 -1t-13 -1
q-45 0 -69.5 32t-24.5 65q0 37 25 64t62 31q17 2 51 2h30q-6 160 -71 305t-171 251.5t-251 172t-305 71.5q0 -36 -3 -72q-3 -37 -31 -62.5t-65 -25.5q-46 0 -71 31t-25 65q0 4 0.5 7t1 13.5t0.5 29.5q-247 -49 -426.5 -228t-228.5 -426h25q10 0 18 0.5t11 0.5q9 0 23 -4
t31.5 -13t29.5 -29.5t12 -49.5q0 -33 -14.5 -54.5t-40 -30.5t-45.5 -11.5t-47 -2.5h-17q8 -213 116 -393.5t288.5 -288.5t393.5 -116q0 34 3 68q3 37 31 62.5t65 25.5q45 0 70.5 -31.5t25.5 -64.5q0 -3 -0.5 -12.5t-1.5 -33.5zM985 1276q0 -66 -89.5 -179.5t-202 -200.5
t-174.5 -87q-31 0 -64 23.5t-33 72.5q0 36 24.5 60.5t66.5 47.5t89 53.5t102.5 95t97.5 155.5q12 26 35.5 40.5t51.5 14.5q49 0 72.5 -33t23.5 -63zM1526 726q30 0 63 -24t33 -73q0 -36 -24 -60.5t-65.5 -47.5t-88.5 -53.5t-102 -95.5t-97 -156q-12 -26 -36 -41t-51 -15
q-49 0 -72.5 33t-23.5 63q0 66 88.5 180t201 202t174.5 88z" />
    <glyph glyph-name="cloud-sun" unicode="cloud&#x2d;sun" horiz-adv-x="2560" 
d="M512 960q0 133 93.5 226.5t226.5 93.5q95 0 173.5 -51.5t116.5 -135.5q-92 -65 -159.5 -155t-100.5 -197q-50 -38 -89 -95q-112 21 -186.5 109t-74.5 205zM384 960q0 -150 89 -267t227 -160q-60 -136 -60 -277q0 -9 2 -24t2 -20l-108 -75q-22 -16 -47.5 -5.5t-29.5 37.5
l-64 354l-354 64q-27 4 -37.5 29.5t5.5 47.5l205 296l-205 296q-16 22 -5.5 47.5t37.5 29.5l354 64l64 354q4 27 29.5 37.5t47.5 -5.5l296 -205l296 205q22 16 47.5 5.5t29.5 -37.5l64 -354l354 -64q27 -4 37.5 -29.5t-5.5 -47.5l-35 -51q-60 11 -116 11q-136 0 -271 -61
q-56 114 -163.5 183.5t-237.5 69.5q-185 0 -316.5 -131t-131.5 -317zM2331 606q105 -62 167 -168t62 -230q0 -192 -136 -328t-328 -136h-816q-139 0 -257 68.5t-186.5 186.5t-68.5 257q0 122 54.5 230.5t151.5 180.5q42 182 191 301.5t339 119.5q203 0 355 -132q27 4 61 4
q155 0 271.5 -101.5t139.5 -252.5zM2096 -64q112 0 192 80t80 192q0 103 -67 178.5t-168 89.5q11 40 11 68q0 93 -65.5 158.5t-158.5 65.5q-63 0 -119 -35q-48 75 -126.5 119t-170.5 44q-144 0 -246.5 -101.5t-104.5 -245.5q-87 -37 -140 -116.5t-53 -176.5
q0 -133 93.5 -226.5t226.5 -93.5h816z" />
    <glyph glyph-name="cloud-rain" unicode="cloud&#x2d;rain" 
d="M1643 1375q169 -11 287 -135.5t118 -295.5q0 -178 -127 -305t-305 -127h-1184q-178 0 -305 127t-127 305q0 129 70.5 236t186.5 158q11 190 149.5 322t329.5 132q103 0 195 -41.5t160 -117.5q78 31 157 31q135 0 244.5 -80.5t150.5 -208.5zM1616 704q99 0 169.5 70.5
t70.5 169.5t-70 169.5t-170 70.5h-138l-9 86q-8 86 -71.5 144t-149.5 58q-68 0 -129 -41l-84 -60l-53 88q-40 66 -105 103.5t-141 37.5q-119 0 -203.5 -84.5t-84.5 -203.5q0 -3 1 -8.5t1 -7.5l11 -100l-83 -19q-82 -19 -134 -84t-52 -149q0 -99 70.5 -169.5t169.5 -70.5
h1184zM1472 -64q0 47 48 142t96 166l48 72q8 -11 21 -30t46 -72t58 -99t46 -97.5t21 -81.5q0 -80 -56 -136t-136 -56t-136 56t-56 136zM192 -64q0 47 48 142t96 166l48 72q8 -11 21 -30t46 -72t58 -99t46 -97.5t21 -81.5q0 -80 -56 -136t-136 -56t-136 56t-56 136zM832 -64
q0 47 48 142t96 166l48 72q8 -11 21 -30t46 -72t58 -99t46 -97.5t21 -81.5q0 -80 -56 -136t-136 -56t-136 56t-56 136z" />
    <glyph glyph-name="truck" unicode="truck" horiz-adv-x="2560" 
d="M1024 128h512q0 -160 111.5 -272t272.5 -112q159 0 271.5 112.5t112.5 271.5h160q40 0 68 28t28 68t-28 68t-68 28h-32v491q0 92 -66 158l-373 373q-66 66 -158 66h-171v128q0 106 -75 181t-181 75h-1152q-106 0 -181 -75t-75 -181v-1152q0 -106 75 -181t181 -75
q0 -160 111.5 -272t272.5 -112q159 0 271.5 112.5t112.5 271.5zM1408 1600q26 0 45 -19t19 -45v-1152q0 -26 -19 -45t-45 -19h-435q-50 88 -139 140t-194 52t-194 -52t-139 -140h-51q-26 0 -45 19t-19 45v1152q0 26 19 45t45 19h1152zM1858 1207l373 -373l1 -2h-568v384h171
q14 0 23 -9zM640 320q80 0 136 -56t56 -136t-56 -136t-136 -56t-136 56t-56 136t56 136t136 56zM1920 -64q-80 0 -136 56t-56 136t56 136t136 56t136 -56t56 -136t-56 -136t-136 -56z" />
    <glyph glyph-name="shield-cross" unicode="shield&#x2d;cross" 
d="M1866 1457q53 -22 85.5 -69.5t32.5 -103.5q0 -168 -26.5 -326.5t-72 -288t-106.5 -247t-130.5 -209t-143 -169.5t-145 -132.5t-136 -93t-115.5 -56.5t-85 -18q-35 0 -86.5 18.5t-116.5 57t-136 93.5t-144.5 133.5t-142.5 170t-130 209.5t-106 247t-71.5 286.5
t-26.5 324.5q0 56 32 103.5t86 69.5l768 320q36 15 74 15t74 -15zM928 1560l-672 -280q0 -77 8 -160h664v440zM292 928q34 -163 98 -312t148.5 -267t183 -210t206.5 -155v944h-636zM1120 -12q104 59 201.5 148.5t183 207t151.5 268t100 316.5h-636v-940zM1784 1120
q8 90 8 160l-672 280v-440h664z" />
    <glyph glyph-name="torii-gate" unicode="torii&#x2d;gate" 
d="M0 1344q0 -106 75 -181t181 -75v-256h-160q-40 0 -68 -28t-28 -68t28 -68t68 -28h160v-800q0 -40 28 -68t68 -28t68 28t28 68v800h1152v-800q0 -40 28 -68t68 -28t68 28t28 68v800h160q40 0 68 28t28 68t-28 68t-68 28h-160v256q106 0 181 75t75 181v448l-286 -95
q-97 -33 -202 -33h-1076q-102 0 -199 33l-285 95v-448zM256 1280q-26 0 -45 19t-19 45v182l33 -11q131 -43 259 -43h1076q132 0 263 43l33 11v-182q0 -26 -19 -45t-45 -19h-1536zM448 832v256h480v-256h-480zM1120 1088h480v-256h-480v256z" />
    <glyph glyph-name="church" unicode="church" horiz-adv-x="2560" 
d="M1376 1600v96q0 40 -28 68t-68 28t-68 -28t-28 -68v-96h-128q-40 0 -68 -28t-28 -68t28 -68t68 -28h128v-108l-412 -267q-62 -40 -97 -104t-35 -137v-856h-352q-40 0 -68 28t-28 68v280q0 50 44 84l276 175v229l-380 -247q-62 -40 -97 -104t-35 -137v-280
q0 -119 84.5 -203.5t203.5 -84.5h1984q119 0 203.5 84.5t84.5 203.5v280q0 73 -35 137t-97 104l-380 247v-229l276 -175q44 -33 44 -84v-280q0 -40 -28 -68t-68 -28h-352v856q0 73 -35 137t-97 104l-412 267v108h128q40 0 68 28t28 68t-28 68t-68 28h-128zM1280 1134
l404 -258q44 -33 44 -84v-856h-256v384q0 80 -56 136t-136 56t-136 -56t-56 -136v-384h-256v856q0 49 40 84z" />
    <glyph glyph-name="mountains" unicode="mountains" horiz-adv-x="2560" 
d="M34 214q-34 -56 -34 -118q0 -91 66 -157.5t158 -66.5h2092q101 0 172.5 71.5t71.5 172.5q0 69 -36 128l-528 865q-26 43 -76 43q-24 0 -45 -12t-31 -31l-193 -316l-504 803q-42 68 -127 68q-35 0 -67 -18.5t-52 -49.5zM1851 112q5 -8 5 -16q0 -14 -9 -23t-23 -9h-1600
q-13 0 -24.5 9.5t-11.5 22.5q0 1 9 16l823 1319z" />
    <glyph glyph-name="person-skiing" unicode="person&#x2d;skiing" 
d="M1728 1408q-80 0 -136 56t-56 136t56 136t136 56t136 -56t56 -136t-56 -136t-136 -56zM476 1425l-101 93q-7 6 -7 16q0 8 5 13q6 8 16 8q1 0 4 -1l139 -28l44 87q40 -20 62 -57t22 -81v-4l288 -144l299 120q42 16 82 16q12 0 26.5 -1.5t43.5 -10.5t53.5 -23.5t50 -45.5
t39.5 -72l73 -218l220 -111q25 -13 39.5 -36t14.5 -50q0 -40 -28 -68t-68 -28q-21 0 -43 11l-233 116q-59 29 -80 92l-56 169l-245 -97l-531 265q-43 -37 -100 -37q-35 0 -71 17zM2044 -84q0 -57 -83 -114.5t-193 -57.5q-78 0 -148 32l-1568 811q-52 27 -52 85q0 38 27.5 67
t68.5 29q30 0 44 -11l820 -424l196 294l-319 320q-64 64 -64 156q0 15 1 23l308 -152l225 -229q47 -47 47 -113q0 -48 -27 -89l-199 -298l573 -296q31 -14 63 -14q37 0 64.5 12t40.5 26t34 26t46 12q40 0 67.5 -27.5t27.5 -67.5z" />
    <glyph glyph-name="ice-skate" unicode="ice&#x2d;skate" horiz-adv-x="2304" 
d="M2208 128q39 0 67.5 -27.5t28.5 -64.5l-4 -36q0 -106 -75 -181t-181 -75h-1952q-36 0 -64 31.5t-28 68.5t27.5 64.5t64.5 27.5h292v192q-106 0 -181 75t-75 181v937q0 40 22 72.5t58 46.5l514 206q47 18 95 18h399v36q0 37 28.5 64.5t67.5 27.5q40 0 68 -28t28 -68v-640
l349 -88q128 -32 209.5 -136t81.5 -236v-212q0 -106 -75 -181t-181 -75h-60v-192h284q40 0 68 29t28 71q0 37 28.5 64.5t67.5 27.5zM320 384q0 -26 19 -45t45 -19h1408q26 0 45 19t19 45v212q0 66 -40.5 117.5t-104.5 68.5l-454 114h-297q-27 0 -45.5 19.5t-18.5 48.5
q0 24 19 42t45 18h256v128h-256q-27 0 -45.5 19.5t-18.5 48.5q0 24 19 42t45 18l256 4v188h-399q-14 0 -23 -4l-474 -190v-894zM576 128v-192h960v192h-960z" />
    <glyph glyph-name="campground" unicode="campground" horiz-adv-x="2304" 
d="M1502 1770q-31 26 -71 22.5t-65 -34.5l-214 -257l-214 257q-25 31 -65 34.5t-71 -22.5q-31 -25 -34.5 -65t22.5 -71l237 -282l-943 -1128q-52 -61 -52 -140v-116q0 -93 65.5 -158.5t158.5 -65.5h1792q93 0 158.5 65.5t65.5 158.5v116q0 79 -56 140l-939 1128l237 282
q26 31 22.5 71t-34.5 65zM224 84q0 9 7 17l921 1101l920 -1101q8 -10 8 -17v-116q0 -14 -9 -23t-23 -9h-252l-568 731q-29 37 -76 37t-76 -37l-572 -731h-248q-14 0 -23 9t-9 23v116zM744 -64l408 516l404 -516h-812z" />
    <glyph glyph-name="gas-pump" unicode="gas&#x2d;pump" 
d="M384 1792q-106 0 -181 -75t-75 -181v-1600h-32q-40 0 -68 -28t-28 -68t28 -68t68 -28h1216q40 0 68 28t28 68t-28 68t-68 28h-32v640h32q66 0 113 -47t47 -113v-128q0 -119 84.5 -203.5t203.5 -84.5t203.5 84.5t84.5 203.5v880q0 118 -84 208l-300 292q-25 28 -64.5 28
t-67.5 -28t-28 -68t28 -68l132 -132v-248q0 -89 54.5 -157t137.5 -87v-620q0 -40 -28 -68t-68 -28t-68 28t-28 68v128q0 146 -103 249t-249 103h-32v768q0 106 -75 181t-181 75h-640zM1024 1600q26 0 45 -19t19 -45v-512h-768v512q0 26 19 45t45 19h640zM1088 832v-896h-768
v896h768z" />
    <glyph glyph-name="scissors" unicode="cut" 
d="M1890 22q30 -26 70.5 -22.5t65.5 34.5q26 30 22.5 70.5t-34.5 65.5l-615 514l-149 -125zM448 1792q-185 0 -316.5 -131.5t-131.5 -316.5q0 -186 131.5 -317t316.5 -131q158 0 281 99l271 -227l-271 -227q-123 99 -281 99q-185 0 -316.5 -131t-131.5 -317t131.5 -317
t316.5 -131q186 0 317 131t131 317q0 107 -46 199l1164 975q31 25 34.5 65t-22.5 71q-25 31 -65.5 34.5t-70.5 -22.5l-740 -621l-300 252q46 92 46 199q0 185 -131 316.5t-317 131.5zM192 1344q0 106 75 181t181 75t181 -75t75 -181t-75 -181t-181 -75t-181 75t-75 181z
M448 448q106 0 181 -75t75 -181t-75 -181t-181 -75t-181 75t-75 181t75 181t181 75z" />
    <glyph glyph-name="plane-engines" unicode="plane&#x2d;engines" horiz-adv-x="2304" 
d="M1525 1088l-127 204q74 40 74 116q0 53 -37.5 90.5t-90.5 37.5h-99l-119 192q-12 27 -43.5 45.5t-64.5 18.5h-260q-65 0 -104 -52q-18 -24 -23.5 -54.5t3.5 -57.5l172 -540h-196l-156 204q-39 52 -100 52h-227q-27 0 -54.5 -14t-45.5 -38q-37 -49 -24 -108l87 -294
q-40 -12 -65 -45.5t-25 -76.5t25.5 -77t65.5 -46l-84 -293q-18 -61 20 -112q36 -48 100 -48h227q64 0 100 48l156 208h196l-172 -540q-9 -27 -3.5 -59.5t23.5 -56.5q36 -48 104 -48h260q74 0 112 64l119 192h95q53 0 90.5 37.5t37.5 90.5q0 37 -19.5 68t-51.5 47l128 205
h328q47 0 105 14t118 42.5t110 66t82 89.5t32 108q0 55 -32 106.5t-82 89.5t-110.5 66.5t-119.5 43t-107 14.5h-328zM1421 640l-439 -704h-136l220 704h-552l-191 -256h-108l112 384l-112 384h108l191 -256h552l-220 704h136l439 -704h432q73 0 160.5 -47.5t94.5 -80.5
q-2 -22 -42.5 -52t-101 -53t-111.5 -23h-432z" />
    <glyph glyph-name="envelope" unicode="envelope" 
d="M0 1280v-1024q0 -106 75 -181t181 -75h1536q106 0 181 75t75 181v1024q0 106 -75 181t-181 75h-1536q-106 0 -181 -75t-75 -181zM192 1280v4q0 25 19 44.5t45 19.5h1536q26 0 45 -19.5t19 -44.5v-92l-690 -567q-62 -51 -142 -51t-142 51l-690 567v88zM192 943l564 -466
q118 -95 267.5 -95t264.5 95l568 466v-687q0 -26 -19 -45t-45 -19h-1536q-26 0 -45 19t-19 45v687z" />
    <glyph glyph-name="hand-fist" unicode="fist&#x2d;raised" horiz-adv-x="1792" 
d="M1376 1536q119 0 203.5 -84.5t84.5 -203.5v-704q0 -151 -67.5 -285t-188.5 -225v-194q0 -40 -28 -68t-68 -28t-68 28t-28 68v244q0 25 12.5 48.5t32.5 33.5q99 62 155 162.5t56 215.5v178q-49 -18 -96 -18q-88 0 -160 49q-72 -49 -160 -49q-40 0 -82 13
q-31 -91 -109.5 -148t-176.5 -57h-208q-40 0 -68 28t-28 68t28 68t68 28h208q46 0 79 33t33 79t-33 79t-79 33h-336q-66 0 -113 -47t-47 -113v-354q0 -77 62 -126l134 -104q60 -36 60 -91v-253q0 -40 -28 -68t-68 -28t-68 28t-28 68v203l-120 94q-65 50 -100.5 122.5
t-35.5 154.5v354q0 84 37.5 157t101.5 122q-11 44 -11 73v256q0 119 84.5 203.5t203.5 84.5q41 0 75 -10q39 64 104 101t141 37t141.5 -37t103.5 -101q34 10 75 10q76 0 141.5 -37t103.5 -101q34 10 75 10zM640 1504v-384h48q71 0 137 -34q7 19 7 34v384q0 40 -28 68t-68 28
t-68 -28t-28 -68zM320 1120v-1q1 -1 1 -2q30 3 31 3h160v256q0 40 -28 68t-68 28t-68 -28t-28 -68v-256zM1152 992v384q0 40 -28 68t-68 28t-68 -28t-28 -68v-384q0 -40 28 -68t68 -28t68 28t28 68zM1376 896q40 0 68 28t28 68v256q0 40 -28 68t-68 28t-68 -28t-28 -68v-256
q0 -40 28 -68t68 -28z" />
    <glyph glyph-name="hand" unicode="hand&#x2d;paper" 
d="M1632 1472q119 0 203.5 -84.5t84.5 -203.5v-672q0 -209 -103 -385.5t-279.5 -279.5t-385.5 -103h-132q-172 0 -331.5 69.5t-277.5 195.5l-325 349q-86 92 -86 218q0 134 94 227t226 93q32 0 64 -6v486q0 119 84.5 203.5t203.5 84.5q34 0 74 -10q39 63 104 100.5t142 37.5
t141.5 -37t103.5 -100q40 10 75 10q94 0 169 -55t104 -142q20 4 47 4zM1728 512h-11v672q0 40 -26.5 68t-65.5 28q-37 0 -65 -28.5t-28 -67.5v-420q0 -25 -17 -42.5t-43 -17.5t-46 17.5t-25 42.5v609q0 40 -27 68t-66 28q-37 0 -64.5 -28.5t-27.5 -67.5v-609q0 -24 -19 -42
t-45 -18t-46 18.5t-25 45.5v736q0 40 -27 68t-66 28q-37 0 -64.5 -28.5t-27.5 -67.5l-4 -740q0 -25 -17 -42.5t-43 -17.5t-46 18.5t-25 45.5v608q0 40 -27 68t-66 28q-37 0 -64.5 -28.5t-27.5 -67.5v-806q0 -14 -9.5 -23t-22.5 -9q-12 0 -24 7l-106 115q-37 40 -94 40
q-46 0 -85.5 -32t-39.5 -93q0 -53 37 -93l319 -342q91 -98 213.5 -151t255.5 -53h136q155 0 286.5 77t208.5 210t77 289zM1728 512z" />
    <glyph glyph-name="hand-peace" unicode="hand&#x2d;peace" 
d="M1648 1152q110 0 191 -79.5t81 -193.5v-430q0 -142 -56 -272t-150.5 -224.5t-225 -150.5t-273.5 -55l-315 1q-232 0 -413 141l-184 143q-52 40 -81.5 101t-29.5 127v320q0 82 45 151.5t119 104.5l-199 415q-29 61 -29 125q0 118 83.5 203t204.5 85q82 0 152.5 -43.5
t107.5 -119.5l18 -38l14 87q17 106 98 174t186 68q125 0 206.5 -87.5t81.5 -200.5q0 -16 -4 -46l-44 -276q62 34 128 34q107 0 193 -81q46 17 95 17zM1280 943v-222q0 -34 22.5 -57.5t57.5 -23.5q33 0 56.5 23.5t23.5 57.5v222q0 34 -23.5 57.5t-56.5 23.5
q-35 0 -57.5 -23.5t-22.5 -57.5zM992 1600q-34 0 -61.5 -22.5t-33.5 -54.5l-97 -603l42 7q30 5 54 5q41 0 98 -22l93 579q1 5 1 15q0 42 -29 69t-67 27zM316 1376q0 -12 14 -42l219 -456l195 31l-245 509q-12 25 -35.5 39.5t-51.5 14.5q-40 0 -68 -28t-28 -68zM1215 -64
q130 0 242 61t182.5 166t83.5 233q-41 -12 -75 -12q-114 0 -193 81q-46 -17 -95 -17q-116 0 -196 87q-25 -66 -77.5 -113t-121.5 -62q-4 -1 -129.5 -18t-132.5 -17q-15 0 -34 6t-40 29.5t-21 60.5q0 35 23.5 62.5t59.5 32.5l232 35q29 7 49 33t20 59q0 42 -29 69.5t-67 27.5
q-2 0 -9 -2t-11 -1l-422 -65q-29 -6 -49.5 -32.5t-20.5 -59.5v-320q0 -51 37 -80l184 -143q131 -101 295 -101h315zM1728 657v222q0 34 -23.5 57.5t-56.5 23.5q-35 0 -57.5 -23.5t-22.5 -57.5v-222q0 -34 23.5 -57.5t56.5 -23.5t56.5 24t23.5 57z" />
    <glyph glyph-name="pencil" unicode="pencil&#x2d;alt" 
d="M145 348l-141 -481q-8 -25 -1.5 -50t25.5 -41q40 -44 95 -28l481 142q88 32 134 73q4 5 9.5 9.5t6.5 5.5l1217 1217q65 65 74 156.5t-41 165.5q-17 25 -33 40l-158 158q-75 75 -181 75t-181 -75l-1217 -1217q-62 -62 -89 -150zM238 -18l92 312q4 13 11 28l29 -146
q4 -24 21 -40.5t41 -21.5l146 -30q-5 -1 -15.5 -5t-12.5 -5zM723 219l-211 41l-37 207l805 813l252 -252z" />
    <glyph glyph-name="pen-nib" unicode="pen&#x2d;nib" 
d="M1474 1719l-330 -326l-592 -163q-54 -15 -94.5 -52.5t-58.5 -89.5l-371 -1056q-19 -56 -6 -112.5t54 -95.5q41 -44 99 -58t113 6l1056 371q52 18 89.5 58.5t52.5 94.5l163 596l326 326q65 66 65 158.5t-65 157.5l-185 185q-66 65 -158 65t-158 -65zM1188 1205l273 -273
l-160 -586q-5 -18 -20 -22l-941 -330l409 409q40 -19 83 -19q80 0 136 56t56 136t-56 136t-136 56t-136 -56t-56 -136q0 -43 19 -83l-409 -409l330 941q5 16 22 20z" />
    <glyph glyph-name="pen-fancy" unicode="pen&#x2d;fancy" 
d="M2048 1451q0 141 -100 241t-241 100q-147 0 -250 -109l-774 -831l-294 -90q-68 -21 -119 -72t-72 -119l-190 -619q-18 -59 7 -113.5t79 -79.5t114 -7l619 190q68 21 119 72t72 119l90 294l831 774q52 48 80.5 114.5t28.5 135.5zM869 770l729 782q49 52 109 52
q61 0 105 -45.5t44 -107.5q0 -64 -48 -109l-782 -729zM915 453l-81 -264q-15 -48 -63 -63l-431 -133l199 203q2 -1 1 -4q42 0 69 28t27 68t-27 68t-69 28q-38 0 -67 -28.5t-29 -67.5q0 -1 2 -2.5t2 -2.5l-199 -199l133 431q15 48 63 63l264 81z" />
    <glyph glyph-name="check" unicode="check" horiz-adv-x="1792" 
d="M1760 1380q-26 28 -65 28t-67 -28l-988 -988l-476 476q-28 28 -68 28t-68 -28t-28 -67t28 -65l544 -544q28 -31 67 -31t65 31l1056 1056q31 26 31 64.5t-31 67.5z" />
    <glyph glyph-name="cross" unicode="cross" horiz-adv-x="1536" 
d="M1340 1344q82 0 137 -56t55 -136v-256q0 -80 -56 -136t-136 -56h-252v-768q0 -80 -56 -136t-136 -56h-256q-80 0 -136 56t-56 136v768h-260q-77 0 -132.5 56.5t-55.5 135.5v256q0 79 55.5 135.5t132.5 56.5h260v256q0 80 56 136t136 56h256q80 0 136 -56t56 -136v-256
h252zM1340 896v256h-444v448h-256v-448h-452v-256h452v-960h256v960h444z" />
    <glyph glyph-name="star-of-david" unicode="star&#x2d;of&#x2d;david" 
d="M1742 768l221 -361q44 -73 0 -146t-132 -73h-443l-232 -372q-45 -72 -132 -72t-133 79l-231 373h-442q-43 0 -79 20t-54 51t-20.5 69t20.5 74l220 358l-220 358q-23 36 -20.5 75t20.5 70.5t54 52t79 20.5h442l232 376q45 72 132 72q88 0 132 -76l232 -372h442
q43 0 79 -20.5t54 -52t20.5 -70.5t-20.5 -75zM1744 1152h-238l121 -196zM1512 768l-237 384h-502l-237 -384l237 -384h502zM1024 1560l-133 -216h266zM300 1152l121 -196l121 196h-242zM300 384h242l-121 196zM1024 -24l133 216h-266zM1506 384h238l-117 197z" />
    <glyph glyph-name="sparkles" unicode="sparkles" 
d="M1310 1451q-30 -10 -30 -43t30 -43l226 -85l85 -226q12 -30 43 -30t43 30l85 226l226 85q30 12 30 43t-30 43l-226 85l-85 226q-12 30 -43 30t-43 -30l-85 -226zM704 1499l-211 -456l-456 -211q-37 -16 -37 -58t37 -58l456 -211l211 -456q16 -37 58 -37t58 37l211 456
l456 211q37 16 37 58t-37 58l-456 211l-211 456q-16 37 -58 37t-58 -37zM668 962l94 205l95 -205q24 -62 93 -94l205 -94l-205 -95q-31 -12 -56 -37t-37 -56l-95 -205l-94 205q-32 69 -94 93l-205 95l205 94q64 30 94 94zM1621 482l-85 -226l-226 -85q-30 -10 -30 -43
t30 -43l226 -85l85 -226q12 -30 43 -30t43 30l85 226l226 85q30 12 30 43t-30 43l-226 85l-85 226q-10 30 -43 30t-43 -30z" />
    <glyph glyph-name="flower" unicode="flower" 
d="M1920 1111q0 -193 -121 -343q121 -150 121 -343q0 -111 -44.5 -213.5t-118.5 -176.5t-176.5 -118.5t-213.5 -44.5q-193 0 -343 121q-150 -121 -343 -121q-150 0 -277.5 75t-201.5 202t-74 276q0 193 121 343q-121 150 -121 343q0 112 44 214.5t118 176.5t176.5 118
t214.5 44q193 0 343 -121q150 121 343 121q149 0 276 -74t202 -201.5t75 -277.5zM1603 696l-83 72l83 72q125 109 125 271q0 149 -106 255t-255 106q-161 0 -271 -125l-72 -83l-72 83q-108 125 -271 125q-149 0 -255 -106t-106 -255q0 -162 125 -271l83 -72l-83 -72
q-125 -109 -125 -271q0 -149 106 -255t255 -106q161 0 271 125l72 83l72 -83q108 -125 271 -125q149 0 255 106t106 255q0 162 -125 271zM1024 1088q132 0 226 -94t94 -226t-94 -226t-226 -94t-226 94t-94 226t94 226t226 94zM1024 640q53 0 90.5 37.5t37.5 90.5t-37.5 90.5
t-90.5 37.5t-90.5 -37.5t-37.5 -90.5q0 -52 38 -90t90 -38z" />
    <glyph glyph-name="snowflake" unicode="snowflake" 
d="M1938 614q-13 39 -47 60.5t-71 11.5l-311 -83l-293 169l293 165l311 -83q38 -11 73 9t45 58t-10 72.5t-58 45.5l-126 34l132 76q34 19 44.5 58t-9.5 73q-19 34 -58 44.5t-73 -9.5l-132 -76l34 126q10 38 -10 73t-58 45t-72.5 -10t-45.5 -58l-83 -312l-293 -169v338
l228 228q28 28 28 68t-28 68t-68 28t-68 -28l-92 -92v152q0 40 -28 68t-68 28t-68 -28t-28 -68v-152l-92 92q-28 28 -68 28t-68 -28t-28 -68t28 -68l228 -228v-338l-293 169l-83 312q-10 38 -45 58t-73 9t-58 -45t-10 -72l34 -126l-132 76q-34 20 -73 9.5t-58 -44.5
q-20 -34 -9.5 -73t44.5 -58l132 -76l-126 -34q-38 -11 -58 -45t-10 -72q11 -38 45.5 -58t72.5 -10l311 83l293 -165l-293 -173l-311 83q-38 11 -73 -9t-45 -58t10 -72.5t58 -45.5l126 -34l-132 -76q-35 -20 -45 -58t10 -73q20 -34 58.5 -44.5t72.5 9.5l132 76l-34 -126
q-10 -38 10 -72.5t58 -45.5q38 -10 72.5 10t45.5 58l83 312l293 169v-338l-228 -228q-28 -28 -28 -68t28 -68t68 -28t68 28l92 92v-152q0 -40 28 -68t68 -28t68 28t28 68v152l92 -92q28 -28 68 -28t68 28t28 68t-28 68l-228 228v338l293 -169l83 -312q10 -38 45 -58t73 -9
t58 45t10 72l-34 126l132 -76q35 -20 73 -10t58 45q20 34 9.5 73t-44.5 58l-132 76l126 34q38 10 58 45t10 72z" />
    <glyph glyph-name="square-xmark" unicode="square&#x2d;xmark" horiz-adv-x="1792" 
d="M572 1092q-28 -28 -28 -67.5t28 -64.5l188 -188l-188 -192q-28 -28 -28 -67t28 -65q28 -31 67 -31t65 31l188 184l192 -184q28 -31 67 -31t65 31q31 26 31 64.5t-31 67.5l-184 192l184 188q31 25 31 64.5t-31 67.5q-26 28 -65 28t-67 -28l-192 -188l-188 188
q-26 28 -65 28t-67 -28zM0 1408v-1280q0 -106 75 -181t181 -75h1280q106 0 181 75t75 181v1280q0 106 -75 181t-181 75h-1280q-106 0 -181 -75t-75 -181zM192 1408q0 26 19 45t45 19h1280q26 0 45 -19t19 -45v-1280q0 -26 -19 -45t-45 -19h-1280q-26 0 -45 19t-19 45v1280z
" />
    <glyph glyph-name="square-right" unicode="arrow&#x2d;alt&#x2d;square&#x2d;right" horiz-adv-x="1792" 
d="M993 1191l384 -349q30 -27 31 -71q0 -44 -31 -67l-384 -355q-45 -42 -103 -17q-26 11 -42 35t-16 53v224l-352 -4q-40 0 -68 28t-28 68v64q0 40 28 68t68 28l352 4v224q0 25 16.5 48.5t40.5 35.5q23 12 53 7t51 -24zM1536 1664q106 0 181 -75t75 -181v-1280
q0 -106 -75 -181t-181 -75h-1280q-106 0 -181 75t-75 181v1280q0 106 75 181t181 75h1280zM1600 128v1280q0 26 -19 45t-45 19h-1280q-26 0 -45 -19t-19 -45v-1280q0 -26 19 -45t45 -19h1280q26 0 45 19t19 45z" />
    <glyph glyph-name="turn-up" unicode="level&#x2d;up&#x2d;alt" horiz-adv-x="1536" 
d="M1272 1210q11 26 6.5 54t-24.5 49l-416 448q-28 31 -70 31t-70 -31l-416 -448q-42 -45 -18 -100q11 -26 35 -41.5t53 -15.5h320v-1216h-576q-40 0 -68 -28t-28 -68t28 -68t68 -28h672q40 0 68 28t28 68v1312l320 -4q29 0 53 16t35 42z" />
    <glyph glyph-name="turn-down" unicode="level&#x2d;down&#x2d;alt" horiz-adv-x="1536" 
d="M1254 223q20 21 24.5 49t-6.5 54t-35 42t-53 16h-320v1312q0 40 -28 68t-68 28h-672q-40 0 -68 -28t-28 -68t28 -68t68 -28h576v-1216h-320q-29 0 -53 -16t-35 -42t-6.5 -54t24.5 -49l416 -448q28 -31 70 -31t70 31z" />
    <glyph glyph-name="square-left" unicode="arrow&#x2d;alt&#x2d;square&#x2d;left" horiz-adv-x="1792" 
d="M1312 896q40 0 68 -28t28 -68v-64q0 -40 -28 -68t-68 -28h-352v-224q0 -29 -15.5 -53t-41.5 -35t-54.5 -6.5t-49.5 23.5l-384 349q-30 27 -31 71q0 42 31 70l384 355q21 20 49 24.5t54 -6.5t42 -35t16 -53v-224h352zM1536 1664q106 0 181 -75t75 -181v-1280
q0 -106 -75 -181t-181 -75h-1280q-106 0 -181 75t-75 181v1280q0 106 75 181t181 75h1280zM1600 128v1280q0 26 -19 45t-45 19h-1280q-26 0 -45 -19t-19 -45v-1280q0 -26 19 -45t45 -19h1280q26 0 45 19t19 45z" />
    <glyph glyph-name="square-up" unicode="arrow&#x2d;alt&#x2d;square&#x2d;up" horiz-adv-x="1792" 
d="M964 1249l351 -384q42 -45 17 -103q-11 -26 -35 -42t-53 -16h-224l4 -352q0 -40 -28 -68t-68 -28h-64q-40 0 -68 28t-28 68l-4 352h-224q-26 0 -49 15.5t-35 41.5q-26 57 17 104l349 384q21 29 71 31q43 0 71 -31zM1536 1664q106 0 181 -75t75 -181v-1280
q0 -106 -75 -181t-181 -75h-1280q-106 0 -181 75t-75 181v1280q0 106 75 181t181 75h1280zM1600 128v1280q0 26 -19 45t-45 19h-1280q-26 0 -45 -19t-19 -45v-1280q0 -26 19 -45t45 -19h1280q26 0 45 19t19 45z" />
    <glyph glyph-name="square-down" unicode="arrow&#x2d;alt&#x2d;square&#x2d;down" horiz-adv-x="1792" 
d="M1248 832q29 0 53 -15.5t35 -41.5t6.5 -54.5t-23.5 -49.5l-349 -384q-27 -30 -71 -31q-42 0 -70 31l-355 384q-20 21 -24.5 49t6.5 54t35 42t53 16h224v352q0 40 28 68t68 28h64q40 0 68 -28t28 -68v-352h224zM1536 1664q106 0 181 -75t75 -181v-1280q0 -106 -75 -181
t-181 -75h-1280q-106 0 -181 75t-75 181v1280q0 106 75 181t181 75h1280zM1600 128v1280q0 26 -19 45t-45 19h-1280q-26 0 -45 -19t-19 -45v-1280q0 -26 19 -45t45 -19h1280q26 0 45 19t19 45z" />
    <glyph glyph-name="square-full" unicode="square&#x2d;full" 
d="M2048 1792h-2048v-2048h2048v2048zM1856 1600v-1664h-1664v1664h1664z" />
    <glyph glyph-name="hexagon" unicode="hexagon" 
d="M64 918q-42 -69 -42 -150t42 -150l370 -608q39 -64 104 -101t138 -37h692q75 0 141 37t105 101l370 608q42 69 42 150t-42 150l-370 608q-39 64 -105 101t-141 37h-692q-73 0 -138 -37t-104 -101zM228 818l370 608q27 46 78 46h692q55 0 82 -46l370 -608q31 -50 0 -100
l-370 -608q-28 -46 -82 -46h-692q-50 0 -78 46l-370 608q-31 50 0 100zM1614 1526l-164 -100zM64 618l164 100zM64 618z" />
    <glyph glyph-name="star" unicode="star" horiz-adv-x="2304" 
d="M1152 1792q-28 0 -51.5 -14.5t-35.5 -39.5l-274 -565l-613 -91q-27 -4 -48 -21.5t-29 -43.5q-18 -58 23 -98l445 -441l-109 -622q-3 -62 42 -94q22 -16 49 -17.5t49 11.5l552 292l548 -292q22 -13 50.5 -11.5t50.5 17.5t33 41.5t6 52.5l-106 622l445 441q42 40 24 98
q-9 26 -29.5 43.5t-47.5 21.5l-614 91l-274 565q-12 25 -35 39.5t-51 14.5zM1152 1476l210 -433q23 -45 72 -53l474 -70l-344 -340q-35 -35 -27 -84l81 -479l-421 225q-45 24 -91 0l-420 -225l80 479q8 50 -26 84l-344 340l473 70q51 8 73 53z" />
    <glyph glyph-name="right" unicode="arrow&#x2d;alt&#x2d;right" horiz-adv-x="1792" 
d="M911 1526q36 15 74 7.5t65 -35.5l704 -640q38 -38 38 -90q0 -53 -37 -90l-704 -640q-28 -28 -66 -35.5t-74 7.5t-57.5 47t-21.5 71v320h-640q-80 0 -136 56t-56 136v256q0 80 56 136t136 56h640v320q0 39 21.5 71t57.5 47zM1574 768l-550 486v-358h-832v-256h832v-358z
" />
    <glyph glyph-name="caravan-simple" unicode="caravan&#x2d;simple" horiz-adv-x="2560" 
d="M384 1152v-256q0 -53 37.5 -90.5t90.5 -37.5h512q53 0 90.5 37.5t37.5 90.5v256q0 53 -37.5 90.5t-90.5 37.5h-512q-53 0 -90.5 -37.5t-37.5 -90.5zM1664 1280h-256q-53 0 -90.5 -37.5t-37.5 -90.5v-256q0 -53 37.5 -90.5t90.5 -37.5h256q53 0 90.5 37.5t37.5 90.5v256
q0 53 -37.5 90.5t-90.5 37.5zM384 128q0 -160 111.5 -272t272.5 -112q159 0 271.5 112.5t112.5 271.5h1312q40 0 68 28t28 68t-28 68t-68 28h-160v704q0 130 -50.5 248.5t-136.5 204.5t-204.5 136.5t-248.5 50.5h-1344q-133 0 -226.5 -93.5t-93.5 -226.5v-896
q0 -133 93.5 -226.5t226.5 -93.5h64zM192 1344q0 53 37.5 90.5t90.5 37.5h1344q186 0 317 -131t131 -317v-704h-1011q-50 88 -139 140t-194 52t-194 -52t-139 -140h-115q-53 0 -90.5 37.5t-37.5 90.5v896zM768 320q80 0 136 -56t56 -136t-56 -136t-136 -56t-136 56t-56 136
t56 136t136 56z" />
    <glyph glyph-name="cat-space" unicode="cat&#x2d;space" horiz-adv-x="2560" 
d="M810 1451l-162 66q-12 12 -12 19q0 13 12 19l162 66l67 159q6 12 15 12q18 0 23 -12l66 -159l159 -66q12 -6 12 -19t-12 -19l-159 -66l-66 -159q-6 -12 -19 -12t-19 12zM1852 1792q144 0 275 -55.5t225.5 -150t150.5 -225t57 -273.5q0 -221 -124.5 -399.5t-323.5 -256.5
v-496q0 -80 -56 -136t-136 -56h-128q-80 0 -136 56t-56 136v280l-328 -192q7 -51 7 -88h61q52 0 90 -38t38 -90q0 -31 -15 -46q-18 -18 -45 -18h-736q-152 0 -252 119t-100 332v849q0 69 -46 121t-112 51q-55 -2 -84 46q-29 49 -2 97q27 49 80 49q146 0 249 -103t103 -249
v-372q116 154 281.5 255.5t359.5 133.5q0 2 -0.5 7t-0.5 8q0 143 55.5 273.5t150 225t225 150t273.5 55.5zM1852 1600q-153 0 -292 -92l164 -164h256l164 164q-130 92 -292 92zM2076 1088q0 24 -18 42t-46 18q-27 0 -45.5 -17t-18.5 -43q0 -28 17.5 -46t46.5 -18t46.5 18
t17.5 46zM1756 1088q0 24 -18 42t-46 18q-27 0 -45.5 -17t-18.5 -43q0 -28 17.5 -46t46.5 -18t46.5 18t17.5 46zM1213 212l377 223q-149 60 -257 177t-154 270q-192 -31 -345.5 -142t-239.5 -280t-86 -364q0 -66 47 -113t113 -47h419q-5 110 -54.5 206t-136.5 160
q-19 15 -23.5 40t7.5 46l30 53q14 24 40.5 31t49.5 -8q141 -100 213 -252zM1916 -64v451q-77 -6 -144 2q16 -30 16 -61v-392h128zM1852 576q141 0 259.5 68.5t186 185.5t66.5 254q0 187 -128 335v-335q0 -159 -112.5 -269.5t-271.5 -110.5t-271.5 112.5t-112.5 271.5v335
q-128 -148 -128 -335q0 -139 68.5 -257t186.5 -186.5t257 -68.5z" />
    <glyph glyph-name="coffee-pot" unicode="coffee&#x2d;pot" 
d="M1712 1092q158 -121 247 -299t89 -379q0 -147 -49.5 -256.5t-149.5 -215.5q-67 -70 -165 -70h-1064q-97 0 -166 71q-100 106 -149 215t-49 256q0 202 90 378t247 298l-139 382h-102q-66 0 -113 -47t-47 -113v-320q0 -39 -31 -67.5t-69 -28.5q-37 0 -64.5 28.5t-27.5 67.5
v320q0 146 103 249t249 103h1568zM1646 1472h-988l116 -320h756zM456 512h1391q-20 136 -93 252.5t-186 195.5h-823q-116 -79 -192 -195.5t-97 -252.5z" />
    <glyph glyph-name="comet" unicode="comet" 
d="M1234 740q32 -10 43 -40q10 -32 -13 -55l-178 -173l42 -244q5 -33 -21 -52q-28 -20 -57 -4l-218 116l-219 -116q-30 -16 -57 4t-21 52l42 244l-177 173q-24 23 -14 55q11 30 44 40l245 36l109 222q15 30 48 30t48 -30l110 -222zM2010 1753q25 -26 34 -61t-2 -68
q-107 -355 -209 -612q63 -24 89 -90q25 -64 -7 -126q-61 -117 -131 -239t-190.5 -296t-224.5 -278q-154 -154 -360.5 -209t-413.5 0t-361 209q-154 153 -208.5 360t0 413.5t208.5 360.5q80 80 195.5 166.5t238 161.5t210 124.5t170.5 92.5q62 27 126 4q64 -24 90 -89
q259 104 613 209q35 11 71 2t62 -35zM1723 841q-8 2 -18.5 5t-22.5 6.5t-42 12.5t-67 20l43 100q99 232 210 585q-365 -115 -586 -210l-100 -42q-24 86 -44 149q-110 -59 -219 -122.5t-263 -170t-244 -196.5q-117 -117 -158.5 -274.5t0 -314.5t158.5 -274q86 -86 198 -132.5
t234 -46.5t234 46.5t197 132.5q217 217 490 726z" />
    <glyph glyph-name="fan-table" unicode="fan&#x2d;table" horiz-adv-x="1792" 
d="M1412 727l-384 65q25 -127 -40 -238q-73 -126 -213 -164t-266 35q-14 8 -24.5 24t-10.5 38.5t16 42.5l250 304q-61 22 -108 60t-72 82.5t-40 94.5t-12.5 96t10.5 87q37 138 164 213q38 17 64.5 3t35.5 -39l134 -367q81 66 181.5 79.5t193.5 -29.5t148 -129t55 -189
q0 -34 -25 -54q-25 -21 -57 -15zM896 832q27 0 45.5 18.5t18.5 45.5t-18.5 45.5t-45.5 18.5t-45.5 -18.5t-18.5 -45.5t18.5 -45.5t45.5 -18.5zM1440 -64q40 0 68 -28t28 -68t-28 -68t-68 -28h-1088q-40 0 -68 28t-28 68t28 68t68 28h448v70q-133 14 -255.5 66t-220.5 135
t-171.5 189t-113 235t-39.5 265q0 182 71 348t191 286t286 191t348 71t348 -71t286 -191t191 -286t71 -348q0 -136 -39.5 -265t-112.5 -235t-171.5 -189t-221 -135t-255.5 -66v-70h448zM192 896q0 -191 94.5 -353t256.5 -256.5t353 -94.5t353 94.5t256.5 256.5t94.5 353
t-94.5 353t-256.5 256.5t-353 94.5t-353 -94.5t-256.5 -256.5t-94.5 -353z" />
    <glyph glyph-name="faucet" unicode="faucet" 
d="M2048 320q0 117 -45.5 223.5t-123 184t-184 123t-223.5 45.5h-180q-118 147 -300 183v123q474 -50 480 -50q26 0 45 19.5t19 47.5v121q0 28 -19 48t-45 20h-1q-1 0 -12 -1q-122 -15 -467 -53v118q0 26 -19 45t-45 19h-64q-26 0 -45 -19t-19 -45v-118q-477 54 -480 54
q-26 0 -45 -20t-19 -48v-120q0 -28 19 -48t45 -20l480 50v-124q-182 -36 -300 -182h-404q-40 0 -68 -28t-28 -68t28 -68t68 -28h507q38 87 118 139.5t175 52.5t175 -52.5t118 -139.5h283q159 0 271.5 -112.5t112.5 -271.5v-128h-256v128q0 52 -38 90t-90 38h-283
q-38 -87 -118 -139.5t-175 -52.5t-175 52.5t-118 139.5h-507q-40 0 -68 -28t-28 -68t28 -68t68 -28h404q72 -89 175 -140.5t221 -51.5t221 51.5t175 140.5h116v-64q0 -80 56 -136t136 -56h256q80 0 136 56t56 136v128z" />
    <glyph glyph-name="faucet-drip" unicode="faucet&#x2d;drip" 
d="M1664 -128q0 31 32 95t64 113l32 48q14 -21 35.5 -53.5t57 -102t35.5 -100.5q0 -52 -38 -90t-90 -38t-90 38t-38 90zM1472 1152q117 0 223.5 -45.5t184 -123t123 -184t45.5 -223.5v-128q0 -80 -56 -136t-136 -56h-256q-80 0 -136 56t-56 136v64h-115
q-72 -89 -175.5 -140.5t-221.5 -51.5t-221.5 51.5t-178.5 140.5h-404q-36 0 -64 31t-28 69q0 37 27.5 64.5t64.5 27.5h511q38 -87 118 -139.5t175 -52.5t175 52.5t118 139.5h283q52 0 90 -38t38 -90v-128h256v128q0 159 -112.5 271.5t-271.5 112.5h-283q-38 87 -118 139.5
t-175 52.5t-175 -52.5t-118 -139.5h-511q-36 0 -64 31t-28 69q0 37 27.5 64.5t64.5 27.5h408q120 149 300 183v123q-474 -50 -480 -50q-26 0 -45 20t-19 48v120q0 28 19 48t45 20q2 0 480 -54v118q0 26 19 45t45 19h64q26 0 45 -19t19 -45v-118q345 38 467 53q11 1 12 1h1
q26 0 45 -20t19 -48v-120q0 -28 -19 -48t-45 -20l-480 50v-124q181 -34 300 -182h180z" />
    <glyph glyph-name="galaxy" unicode="galaxy" 
d="M2026 724q32 -131 18 -268q-5 -49 -39.5 -85t-84.5 -44t-94 16.5t-63 70.5q-60 135 -184 203q12 -126 -11 -243q-44 -220 -206 -387.5t-382 -220.5q-97 -22 -188 -22q-27 0 -79 4q-50 4 -86.5 39t-44.5 85t17 94t71 63q133 59 203 183q-123 -12 -244 12
q-220 44 -387.5 206.5t-219.5 381.5q-32 132 -18 267q4 50 39 86.5t85 44.5q49 8 93 -16.5t64 -71.5q60 -135 184 -203q-12 127 11 244q44 220 205.5 387t381.5 220q137 31 268 18q50 -4 86 -39t44 -85t-16 -93.5t-71 -63.5q-133 -59 -203 -183q123 12 243 -12
q220 -44 388 -206.5t220 -381.5zM1460 856q116 -17 214.5 -73t168.5 -144q-31 184 -161.5 316.5t-304.5 167.5q-162 34 -319 -20q-52 -18 -93 17t-33 88q17 113 73 211.5t144 171.5q-185 -31 -317 -161.5t-167 -304.5q-34 -162 20 -319q18 -52 -17 -93t-88 -33
q-232 36 -383 216q30 -183 161 -316t306 -168q160 -33 319 21q51 18 92 -17q42 -35 34 -88q-17 -113 -73 -211.5t-144 -171.5q185 31 317 161.5t167 304.5q33 160 -21 319q-18 52 17 93t88 33zM1020 932q68 0 114 -47.5t46 -112.5q0 -66 -47 -113t-113 -47t-113 46.5
t-47 113.5q0 66 47 113t113 47z" />
    <glyph glyph-name="garage" unicode="garage" horiz-adv-x="2560" 
d="M1292 1588l1016 -412q27 -11 43.5 -35.5t16.5 -53.5v-1247q0 -40 28 -68t68 -28t68 28t28 68v1247q0 88 -49 161t-131 106l-1016 411q-83 34 -172 0l-1012 -411q-82 -33 -131 -106t-49 -161v-1247q0 -40 28 -68t68 -28t68 28t28 68v1247q0 29 16.5 53.5t43.5 35.5
l1012 412q16 4 28 0zM572 320h1412v-480q0 -40 28 -68t68 -28t68 28t28 68v1024q0 66 -47 113t-113 47h-1476q-64 0 -112 -47.5t-48 -112.5v-1024q0 -39 29 -67.5t67 -28.5q42 0 69 28t27 68v480zM572 512v320h1412v-320h-1412zM1440 128h-324q-38 0 -67 -28.5t-29 -67.5
t29 -67.5t67 -28.5h324q40 0 68 28t28 68t-28 68t-68 28z" />
    <glyph glyph-name="garage-car" unicode="garage&#x2d;car" horiz-adv-x="2560" 
d="M1292 1588l1016 -412q27 -11 43.5 -35.5t16.5 -53.5v-1247q0 -40 28 -68t68 -28t68 28t28 68v1247q0 88 -49 161t-131 106l-1016 411q-83 34 -172 0l-1012 -411q-82 -33 -131 -106t-49 -161v-1247q0 -40 28 -68t68 -28t68 28t28 68v1247q0 29 16.5 53.5t43.5 35.5
l1012 412q16 4 28 0zM572 832h1412v-992q0 -40 28 -68t68 -28t68 28t28 68v1024q0 66 -47 113t-113 47h-1476q-64 0 -112 -47.5t-48 -112.5v-1024q0 -39 29 -67.5t67 -28.5q42 0 69 28t27 68v992zM849 344q-53 -39 -85 -95.5t-32 -120.5v-288q0 -39 29 -67.5t67 -28.5
q42 0 69 28t27 68v32h708v-32q0 -40 28 -68t68 -28t68 28t28 68v288q0 64 -30.5 119.5t-80.5 91.5l-58 203q-21 72 -80.5 117t-134.5 45h-322q-77 0 -137 -45.5t-79 -120.5zM1060 384l28 104q7 24 30 24h322q23 0 30 -23l30 -105h-440zM1568 192q26 0 45 -19t19 -45v-64
h-708v64q0 26 19.5 45t44.5 19h580z" />
    <glyph glyph-name="garage-open" unicode="garage&#x2d;open" horiz-adv-x="2560" 
d="M1292 1588l1016 -412q27 -11 43.5 -35.5t16.5 -53.5v-1247q0 -40 28 -68t68 -28t68 28t28 68v1247q0 88 -49 161t-131 106l-1016 411q-83 34 -172 0l-1012 -411q-82 -33 -131 -106t-49 -161v-1247q0 -40 28 -68t68 -28t68 28t28 68v1247q0 29 16.5 53.5t43.5 35.5
l1012 412q16 4 28 0zM572 512h1412v-672q0 -40 28 -68t68 -28t68 28t28 68v1024q0 66 -47 113t-113 47h-1476q-64 0 -112 -47.5t-48 -112.5v-1024q0 -39 29 -67.5t67 -28.5q42 0 69 28t27 68v672zM1984 704h-1412v128h1412v-128zM828 -256q42 0 69 28t27 68v32h708v-32
q0 -40 28 -68t68 -28t68 28t28 68v288q0 106 -75 181t-181 75h-580q-104 0 -180 -75.5t-76 -180.5v-288q0 -39 29 -67.5t67 -28.5zM988 192h580q26 0 45 -19t19 -45v-64h-708v64q0 26 19.5 45t44.5 19z" />
    <glyph glyph-name="heat" unicode="heat" horiz-adv-x="1792" 
d="M192 1168q1 -112 43.5 -215t121.5 -182q105 -105 162 -242.5t57 -287.5v-273q0 -40 -28 -68t-68 -28t-68 28t-28 68v272q0 112 -43 215.5t-122 182.5q-106 105 -162.5 242t-56.5 287v145q0 40 28 68t68 28t68 -28t28 -68v-144zM1574 770q105 -105 161.5 -242.5
t56.5 -286.5v-273q0 -40 -28 -68t-68 -28t-68 28t-28 68v272q-1 112 -43.5 215.5t-121.5 181.5q-105 105 -162 242.5t-57 287.5v145q0 40 28 68t68 28t68 -28t28 -68v-144q0 -112 43.5 -215.5t122.5 -182.5zM800 1168q0 -112 43 -215t122 -182q105 -105 162 -242.5
t57 -287.5v-273q0 -40 -28 -68t-68 -28t-68 28t-28 68v273q-1 112 -44 215t-122 182q-105 105 -161.5 242.5t-56.5 287.5v400q0 40 28 68t68 28t68 -28t28 -68v-400z" />
    <glyph glyph-name="house-chimney-window" unicode="house&#x2d;chimney&#x2d;window" horiz-adv-x="2304" 
d="M832 928v-320q0 -66 47 -113t113 -47h320q66 0 113 47t47 113v320q0 66 -47 113t-113 47h-320q-66 0 -113 -47t-47 -113zM1280 640h-256v256h256v-256zM1090 1769l-1056 -896q-30 -26 -33 -65.5t22 -69.5q26 -30 65.5 -33t69.5 22l98 83v-746q0 -133 93.5 -226.5
t226.5 -93.5h1152q133 0 226.5 93.5t93.5 226.5v746l98 -83q30 -25 69.5 -22t65.5 33q25 30 22 69.5t-33 65.5l-222 189v506q0 40 -28.5 70t-67.5 30t-67.5 -30t-28.5 -70v-344l-642 545q-27 23 -62 23t-62 -23zM448 973l704 597l704 -597v-909q0 -53 -37.5 -90.5
t-90.5 -37.5h-1152q-53 0 -90.5 37.5t-37.5 90.5v909z" />
    <glyph glyph-name="house-day" unicode="house&#x2d;day" horiz-adv-x="2560" 
d="M807 1554l-110 205q-17 33 -57 33q-39 0 -56 -33l-110 -205l-223 67q-37 11 -64 -16t-16 -64l67 -223l-205 -110q-33 -17 -33 -52q0 -44 33 -61l205 -110l-67 -223q-11 -37 16 -64q28 -27 64 -16l223 67l24 -45l154 125h-12q-133 0 -226.5 93.5t-93.5 226.5
q0 132 93.5 226t226.5 94t226.5 -94t93.5 -226q0 -41 -9 -77l218 178l-126 68l67 223q11 36 -16 64q-27 27 -64 16zM832 1156q0 77 -56.5 134.5t-135.5 57.5t-135.5 -57.5t-56.5 -134.5q0 -82 56 -137t136 -55t136 55t56 137zM1408 548v-196q0 -40 28 -68t68 -28h192
q40 0 68 28t28 68v196q0 38 -28.5 67t-67.5 29h-192q-39 0 -67.5 -29t-28.5 -67zM2525 682l-864 704q-27 22 -61 22t-61 -22l-864 -704q-35 -28 -35 -68q0 -39 22 -67q25 -30 65 -33t70 20l99 80v-646q0 -93 65.5 -158.5t158.5 -65.5h960q93 0 158.5 65.5t65.5 158.5v646
l99 -80q30 -23 70 -20t65 33q22 28 22 61q0 46 -35 74zM2112 771v-803q0 -14 -9 -23t-23 -9h-960q-14 0 -23 9t-9 23v803l512 421z" />
    <glyph glyph-name="house-person-leave" unicode="house&#x2d;person&#x2d;depart" horiz-adv-x="2560" 
d="M1451 233l-105 -105l-934 4q-64 0 -110 45.5t-46 110.5v654l-96 -86q-29 -26 -69.5 -24t-66.5 32t-24 70t32 66l864 768q27 24 64 24t64 -24l522 -464l-21 -9q-83 -34 -151 -96l-414 369l-512 -456v-792h1042l-31 -74zM700 1028h256q26 0 45 -19t19 -45v-256
q0 -26 -19 -45t-45 -19h-256q-26 0 -45 19t-19 45v256q0 26 19 45t45 19zM2112 1408q-80 0 -136 56t-56 136t56 136t136 56t136 -56t56 -136t-56 -136t-136 -56zM2531 708q26 -27 29 -58.5t-13 -54.5t-40.5 -38t-55.5 -10.5t-56 30.5l-117 112q-39 39 -55 89q-9 26 -19 57
t-15 45t-11 32.5t-9 26.5t-7.5 18.5t-8 16.5t-7.5 12t-10 14l-105 -419l215 -198q81 -75 104 -180l78 -339q9 -38 -12.5 -72t-59.5 -43q-33 -6 -68 11t-47 61l-77 339q-10 47 -47 82l-316 288q-90 98 -60 218l79 317q-42 -13 -177 -68q-61 -25 -91 -84l-56 -121
q-12 -24 -30.5 -38t-38 -16.5t-40 2t-36.5 18t-27.5 30t-11.5 39.5t10 46l58 124q62 126 192 179q11 4 52.5 21t50 20.5t41 16t42 15t36 10.5t39.5 9.5t36 5.5t43 5t43 1q136 0 246 -78t153 -206l51 -159q3 -8 8 -13zM1688 467q6 -7 62.5 -62t82.5 -79l-78 -200
q-27 -68 -78 -119l-233 -235q-28 -28 -68 -28t-68 28t-28 68t28 68l234 235q24 23 36 54z" />
    <glyph glyph-name="house-night" unicode="house&#x2d;night" horiz-adv-x="2560" 
d="M352 1440q0 88 40 163.5t109 124.5q19 13 16 36.5t-25 25.5q-28 2 -44 2q-185 0 -316.5 -131.5t-131.5 -316.5q0 -186 131.5 -317t316.5 -131q94 0 178.5 37.5t147.5 103.5q16 16 2 35.5t-40 17.5q-16 -2 -32 -2q-146 0 -249 103t-103 249zM1408 544v-192q0 -40 28 -68
t68 -28h192q40 0 68 28t28 68v192q0 40 -28 68t-68 28h-192q-40 0 -68 -28t-28 -68zM2525 682l-864 704q-27 22 -61 22t-61 -22l-864 -704q-31 -26 -34.5 -65t21.5 -70q25 -30 65 -33t70 20l99 80v-646q0 -93 65.5 -158.5t158.5 -65.5h960q93 0 158.5 65.5t65.5 158.5v646
l99 -80q30 -23 70 -20t65 33q23 30 20 70t-33 65zM2112 771v-803q0 -14 -9 -23t-23 -9h-960q-14 0 -23 9t-9 23v803l512 421zM994 1743l-48 -129l-129 -48q-21 -8 -21 -30t21 -30l129 -48l48 -129q8 -21 30 -21t30 21l48 129l129 48q21 8 21 30t-21 30l-129 48l-48 129
q-8 21 -30 21t-30 -21zM462 334l-48 129q-8 21 -30 21t-30 -21l-48 -129l-129 -48q-21 -8 -21 -30t21 -30l129 -48l48 -129q7 -21 29.5 -21t30.5 21l48 129l129 48q21 8 21 30t-21 30z" />
    <glyph glyph-name="house-person-return" unicode="house&#x2d;person&#x2d;return" horiz-adv-x="2560" 
d="M448 1112v-792h950q-24 -52 -33 -92l-23 -100h-926q-66 0 -113 47t-47 113v654l-96 -86q-29 -26 -69.5 -24t-66.5 32t-24 70t32 66l864 768q27 24 64 24t64 -24l531 -472q-77 -59 -130 -142l-465 414zM700 1028h256q26 0 45 -19t19 -45v-256q0 -26 -19 -45t-45 -19h-256
q-26 0 -45 19t-19 45v256q0 26 19 45t45 19zM1729 1408q-79 0 -135.5 56t-56.5 136t56.5 136t135.5 56t135 -56t56 -136t-56 -136t-135 -56zM2098 748q30 -119 -59 -221l-316 -288q-37 -35 -47 -82l-78 -339q-12 -44 -46.5 -61t-67.5 -11q-38 9 -59.5 42.5t-12.5 72.5
l78 339q23 104 104 179l215 199l-105 418q-5 -7 -8.5 -12t-7.5 -12t-6.5 -12t-7 -16t-7 -18.5t-9 -26t-11 -32t-13.5 -41.5t-17 -51q-17 -51 -55 -89l-117 -112q-25 -24 -56 -27t-55 12.5t-40.5 39t-13 55t28.5 58.5l118 116q5 5 8 13l51 155q43 128 153 206t246 78
q21 0 40.5 -1.5t35.5 -2.5t36.5 -5.5t32.5 -7t35 -10t33 -10.5t38.5 -14t38.5 -15t44.5 -18.5t47.5 -19.5q132 -53 193 -179l58 -125q10 -23 10 -46t-11.5 -39.5t-27.5 -30t-36.5 -18t-40 -2t-38 16.5t-30.5 38l-56 122q-30 59 -92 84q-135 55 -177 68zM2528 -88
q30 -30 31 -71t-27 -69t-68 -28t-68 28l-237 238q-51 51 -78 119l-78 200q26 24 82.5 79t62.5 62l111 -269q13 -33 36 -55z" />
    <glyph glyph-name="house-signal" unicode="house&#x2d;signal" horiz-adv-x="2304" 
d="M1283 1770l-864 -704q-31 -26 -34.5 -65t21.5 -70q2 -1 4.5 -4t3.5 -5q65 -19 80 -25q26 3 47 21l99 80v-166q105 -56 192 -130v453l512 417l512 -417v-803q0 -14 -9 -23t-23 -9h-704q41 -90 66 -192h638q93 0 158.5 65.5t65.5 158.5v646l99 -80q30 -23 70 -20t65 33
q23 30 20 70t-33 65l-864 704q-27 22 -61 22t-61 -22zM1440 1024h-192q-40 0 -68 -28t-28 -68v-192q0 -40 28 -68t68 -28h192q40 0 68 28t28 68v192q0 40 -28 68t-68 28zM1024 -160q0 189 -73.5 360.5t-198 296t-296 198t-360.5 73.5q-40 0 -68 -28t-28 -68t28 -68t68 -28
q150 0 286 -58.5t234.5 -157t157 -234.5t58.5 -286q0 -40 28 -68t68 -28t68 28t28 68zM0 -128q0 -53 37.5 -90.5t90.5 -37.5t90.5 37.5t37.5 90.5t-37.5 90.5t-90.5 37.5t-90.5 -37.5t-37.5 -90.5zM0 288q0 -40 28 -68t68 -28q146 0 249 -103t103 -249q0 -40 28 -68t68 -28
t68 28t28 68q0 148 -73 273t-198 198t-273 73q-40 0 -68 -28t-28 -68z" />
    <glyph glyph-name="lamp-desk" unicode="lamp&#x2d;desk" 
d="M1571 678l311 310q38 -56 38 -125q0 -56 -22.5 -101t-57.5 -70.5t-72 -39t-71 -13.5q-69 0 -126 39zM2048 1394q0 -59 -41 -100l-742 -741q-42 -42 -100 -42t-99.5 41.5t-41.5 99.5v340l-91 91l-345 -344l230 -803h622q40 0 68 -28t28 -68t-28 -68t-68 -28h-1344
q-40 0 -68 28t-28 68t28 68t68 28h522l-230 805q-4 18 -4 26q0 40 28 68l399 399q-43 83 -43 176q0 91 41 172.5t117 136.5q100 73 225 73q161 0 273 -114l143 -144h340q59 0 100 -41.5t41 -98.5zM1216 776l567 566h-296l-199 200q-56 54 -134 54q-24 0 -53.5 -9.5
t-62 -29.5t-54.5 -60t-22 -93q0 -78 54 -133l200 -200v-295z" />
    <glyph glyph-name="lamp-floor" unicode="lamp&#x2d;floor" horiz-adv-x="1536" 
d="M1524 941q25 -62 -12 -117.5t-103 -55.5h-546v-832h321q40 0 68 -28t28 -68t-28 -68t-68 -28h-832q-40 0 -68 28t-28 68t28 68t68 28h321v832h-546q-66 0 -104 55.5t-15 117.5l285 768q13 37 45.5 60t72.5 23h714q40 0 72.5 -23t42.5 -60zM218 960h1100l-237 640h-626z
" />
    <glyph glyph-name="light-ceiling" unicode="light&#x2d;ceiling" 
d="M1280 4q0 -107 -77.5 -181.5t-182.5 -74.5q-104 0 -178 75t-74 181h512zM1 273q25 173 106.5 327t203 269.5t281.5 190t336 91.5v549q0 40 28 68t68 28t68 -28t28 -68v-549q235 -22 435.5 -141t329.5 -311t162 -422q8 -57 -31 -101t-98 -44h-1788q-59 0 -98.5 42.5
t-30.5 98.5zM205 320h1638q-33 137 -111 255.5t-185 203t-243 133t-280 48.5q-193 0 -365 -82.5t-291 -228.5t-163 -329z" />
    <glyph glyph-name="light-switch" unicode="light&#x2d;switch" horiz-adv-x="1536" 
d="M1280 1792q106 0 181 -75t75 -181v-1536q0 -106 -75 -181t-181 -75h-1024q-106 0 -181 75t-75 181v1536q0 106 75 181t181 75h1024zM1344 0v1536q0 27 -18.5 45.5t-45.5 18.5h-422q-10 -28 -35 -46t-55 -18t-55 18t-35 46h-422q-27 0 -45.5 -18.5t-18.5 -45.5v-1536
q0 -27 18.5 -45.5t45.5 -18.5h422q10 28 35 46t55 18t55 -18t35 -46h422q27 0 45.5 18.5t18.5 45.5zM960 1412q78 0 135 -57t57 -132v-896q0 -79 -56 -135.5t-136 -56.5h-384q-80 0 -136 56.5t-56 135.5v896q0 77 56.5 133t135.5 56h384zM960 320v352h-384v-352h384z
M960 864v352h-384v-352h384z" />
    <glyph glyph-name="light-switch-off" unicode="light&#x2d;switch&#x2d;off" horiz-adv-x="1536" 
d="M1280 1792q106 0 181 -75t75 -181v-1536q0 -106 -75 -181t-181 -75h-1024q-106 0 -181 75t-75 181v1536q0 106 75 181t181 75h1024zM1344 0v1536q0 26 -19 45t-45 19h-422q-10 -28 -35 -46t-55 -18t-55 18t-35 46h-422q-26 0 -45 -19t-19 -45v-1536q0 -26 19 -45t45 -19
h422q10 28 35 46t55 18t55 -18t35 -46h422q26 0 45 19t19 45zM960 1412q78 0 135 -57t57 -132v-896q0 -79 -56 -135.5t-136 -56.5h-384q-80 0 -136 56.5t-56 135.5v896q0 77 56.5 133t135.5 56h384zM960 768v448h-384v-448h384z" />
    <glyph glyph-name="light-switch-on" unicode="light&#x2d;switch&#x2d;on" horiz-adv-x="1536" 
d="M1280 1792q106 0 181 -75t75 -181v-1536q0 -106 -75 -181t-181 -75h-1024q-106 0 -181 75t-75 181v1536q0 106 75 181t181 75h1024zM1344 0v1536q0 26 -19 45t-45 19h-422q-10 -28 -35 -46t-55 -18t-55 18t-35 46h-422q-26 0 -45 -19t-19 -45v-1536q0 -26 19 -45t45 -19
h422q10 28 35 46t55 18t55 -18t35 -46h422q26 0 45 19t19 45zM960 1412q79 0 135.5 -57.5t56.5 -134.5v-893q0 -79 -56 -135.5t-136 -56.5h-384q-80 0 -136 56.5t-56 135.5v893q0 80 56 136t136 56h384zM960 320v384h-384v-384h384z" />
    <glyph glyph-name="microwave" unicode="microwave" horiz-adv-x="2304" 
d="M1728 1248v-832q0 -40 28 -68t68 -28t68 28t28 68v832q0 40 -28 68t-68 28t-68 -28t-28 -68zM1440 1280h-960q-40 0 -68 -28t-28 -68v-704q0 -40 28 -68t68 -28h960q40 0 68 28t28 68v704q0 40 -28 68t-68 28zM2048 1664h-1792q-106 0 -181 -75t-75 -181v-1152
q0 -106 75 -181t181 -75v-32q0 -40 28 -68t68 -28t68 28t28 68v32h1408v-32q0 -40 28 -68t68 -28t68 28t28 68v32q106 0 181 75t75 181v1152q0 106 -75 181t-181 75zM2048 1472q26 0 45 -19t19 -45v-1152q0 -26 -19 -45t-45 -19h-1792q-26 0 -45 19t-19 45v1152q0 26 19 45
t45 19h1792z" />
    <glyph glyph-name="outlet" unicode="outlet" horiz-adv-x="1792" 
d="M1536 1668q105 0 180.5 -76t75.5 -177v-1280q0 -106 -75 -181t-181 -75h-1280q-106 0 -181 75t-75 181v1280q0 104 75 178.5t181 74.5h1280zM1600 128v1280q0 26 -19 45t-45 19h-1280q-26 0 -45 -19t-19 -45v-1280q0 -26 19 -45t45 -19h1280q26 0 45 19t19 45zM1238 1216
q28 0 49 -19q87 -83 136 -194t49 -235q0 -246 -185 -429q-21 -19 -49 -19h-684q-28 0 -49 19q-87 83 -136 194t-49 235t49 235t136 194q21 19 49 19h684zM704 768v192q0 26 -19 45t-45 19t-45 -19t-19 -45v-192q0 -26 19 -45t45 -19t45 19t19 45zM992 448v96q0 40 -28 68
t-68 28t-68 -28t-28 -68v-96h192zM1216 768v192q0 26 -19 45t-45 19t-45 -19t-19 -45v-192q0 -26 19 -45t45 -19t45 19t19 45z" />
    <glyph glyph-name="oven" unicode="oven" horiz-adv-x="1792" 
d="M448 64q-53 0 -90.5 37.5t-37.5 90.5v512q0 53 37.5 90.5t90.5 37.5h896q53 0 90.5 -37.5t37.5 -90.5v-512q0 -53 -37.5 -90.5t-90.5 -37.5h-896zM640 672q-26 0 -45 -19t-19 -45t19 -45t45 -19h512q26 0 45 19t19 45t-19 45t-45 19h-512zM416 1472q40 0 68 -28t28 -68
t-28 -68t-68 -28t-68 28t-28 68t28 68t68 28zM1408 1792q159 0 271.5 -112.5t112.5 -271.5v-1408q0 -106 -75 -181t-181 -75h-1280q-106 0 -181 75t-75 181v1408q0 159 112.5 271.5t271.5 112.5h1024zM1600 0v960h-1408v-960q0 -26 19 -45t45 -19h1280q26 0 45 19t19 45z
M1600 1152v256q0 80 -56 136t-136 56h-1024q-80 0 -136 -56t-56 -136v-256h1408zM1376 1472q40 0 68 -28t28 -68t-28 -68t-68 -28t-68 28t-28 68t28 68t68 28zM736 1472q40 0 68 -28t28 -68t-28 -68t-68 -28t-68 28t-28 68t28 68t68 28zM1056 1472q40 0 68 -28t28 -68
t-28 -68t-68 -28t-68 28t-28 68t28 68t68 28z" />
    <glyph glyph-name="planet-moon" unicode="planet&#x2d;moon" horiz-adv-x="2304" 
d="M2048 1792q106 0 181 -76t75 -180t-75 -178t-181 -74q-107 0 -181.5 73t-74.5 179t75 181t181 75zM896 1536q182 0 348 -71t286 -191t191 -286t71 -348t-71 -348t-191 -286t-286 -191t-348 -71t-348 71t-286 191t-191 286t-71 348t71 348t191 286t286 191t348 71z
M896 -64q191 0 353 94.5t256.5 256.5t94.5 353q0 257 -165.5 452t-414.5 240q-16 -81 -39 -116l-199 -230q-33 -37 -31.5 -87.5t37.5 -86.5q44 -44 106 -44h258q52 0 90 -38t38 -90v-68q0 -57 -27 -114l-161 -323q-25 -52 -84 -62q-7 -1 -20.5 -2.5t-20.5 -2.5
q-28 -3 -50 16q-21 20 -21 47v253q-52 0 -90 38t-38 90v128l-219 218q-38 38 -90 38h-100q-61 0 -95 52q-72 -147 -72 -308q0 -191 94.5 -353t256.5 -256.5t353 -94.5z" />
    <glyph glyph-name="planet-ringed" unicode="planet&#x2d;ringed" 
d="M2012 1756q67 -75 7.5 -251.5t-226.5 -417.5q63 -152 63 -319q0 -168 -65 -321t-176 -264.5t-264.5 -177t-322.5 -65.5q-168 0 -319 63q-241 -167 -417.5 -226.5t-251.5 7.5q-67 74 -7.5 251t226.5 417q-63 152 -63 320t65 321t176 264.5t264.5 177t322.5 65.5
q164 0 319 -64q241 168 417.5 227.5t251.5 -7.5zM256 0q48 -48 270 103q-92 69 -167 167q-151 -222 -103 -270zM690 224q220 174 462 416q241 241 415 461q-86 140 -229.5 223.5t-313.5 83.5q-130 0 -248.5 -51t-204 -136.5t-136.5 -204t-51 -248.5q0 -170 83 -313.5
t223 -230.5zM1024 128q130 0 248.5 51t204 136.5t136.5 204t51 248.5q0 60 -13 130q-170 -211 -358 -399q-187 -188 -399 -358q70 -13 130 -13zM1523 1433q93 -70 166 -167q151 222 103 270t-269 -103z" />
    <glyph glyph-name="police-box" unicode="police&#x2d;box" horiz-adv-x="1536" 
d="M416 1216v-96h128v128h-96q-14 0 -23 -9t-9 -23zM416 1056v-96q0 -14 9 -23t23 -9h96v128h-128zM736 1216q0 14 -9 23t-23 9h-96v-128h128v96zM608 1056v-128h96q14 0 23 9t9 23v96h-128zM928 1248h-96q-14 0 -23 -9t-9 -23v-96h128v128zM928 928v128h-128v-96
q0 -14 9 -23t23 -9h96zM992 1248v-128h128v96q0 14 -9 23t-23 9h-96zM1120 960v96h-128v-128h96q14 0 23 9t9 23zM416 800v-192q0 -26 19 -45t45 -19h192q26 0 45 19t19 45v192q0 26 -19 45t-45 19h-192q-26 0 -45 -19t-19 -45zM768 1792q-26 0 -45 -19t-19 -45v-64h-320
q-53 0 -90.5 -37.5t-37.5 -90.5q-53 0 -90.5 -37.5t-37.5 -90.5v-1472h-32q-40 0 -68 -28t-28 -68t28 -68t68 -28h1344q40 0 68 28t28 68t-28 68t-68 28h-32v1472q0 53 -37.5 90.5t-90.5 37.5q0 53 -37.5 90.5t-90.5 37.5h-320v64q0 26 -19 45t-45 19zM320 -64v1408h896
v-1408h-896z" />
    <glyph glyph-name="person-to-portal" unicode="person&#x2d;to&#x2d;portal" 
d="M1664 1792q77 0 138.5 -42.5t102.5 -120t70 -173.5t44.5 -216t22 -233t6.5 -239q0 -176 -12.5 -322.5t-33 -250.5t-50.5 -184.5t-63 -130t-72.5 -81t-76 -43.5t-76.5 -12q-76 0 -136.5 43t-101.5 114t-70.5 172.5t-45 207.5t-23.5 231h194q19 -254 69 -415t114 -161
q52 0 96.5 111t70 303t25.5 418t-25.5 418t-70 303t-96.5 111q-50 0 -93.5 -102t-70 -279.5t-28.5 -388.5h96q41 0 68.5 -27t27.5 -67q0 -39 -28 -67.5t-68 -28.5h-194q-74 0 -133 43.5t-80 113.5l-56 184q-9 26 -26 48l-168 -419l207 -125q65 -39 93 -109.5t7 -143.5
l-133 -418q-9 -31 -35 -50.5t-58 -19.5q-8 0 -26 4q-39 11 -58 46t-8 72l133 418q0 2 0.5 5t0.5 4q0 18 -15 27l-335 203q-71 42 -97 120t5 155l142 350l-60 14q-74 16 -134 -30l-193 -150q-32 -24 -70.5 -19t-63.5 37t-20 71t37 63l193 150q62 48 139 65t154 -1l313 -71
q93 -21 162 -85.5t97 -155.5q12 178 40 314.5t64.5 218.5t84 133.5t92.5 70.5t95 19zM1088 1408q-80 0 -136 56t-56 136t56 136t136 56q78 0 135 -59t57 -137q0 -77 -56.5 -132.5t-135.5 -55.5zM504 524q44 -68 114 -111l38 -23l-54 -130q-27 -60 -83 -96t-123 -36h-300
q-40 0 -68 28t-28 68t28 68t68 28h300q21 0 29 20z" />
    <glyph glyph-name="person-from-portal" unicode="person&#x2d;from&#x2d;portal" 
d="M1472 1408q-80 0 -136 56t-56 136t56 136t136 56q78 0 135 -59t57 -137q0 -77 -56.5 -132.5t-135.5 -55.5zM1952 832q40 0 68 -28t28 -68t-28 -68t-68 -28h-194q-74 0 -133 44t-80 115l-56 182q-9 26 -26 48l-168 -419l207 -125q65 -39 93 -109.5t7 -143.5l-133 -418
q-9 -31 -35 -50.5t-58 -19.5q-8 0 -26 4q-39 11 -58 46t-8 72l134 418v9q0 18 -15 27l-335 203q-71 42 -97 120t5 155l142 350l-60 13q-75 16 -134 -29l-162 -126q6 -120 6 -238q0 -246 -26 -448h38q21 0 29 19l80 185q45 -69 113 -111l38 -23l-54 -130q-26 -60 -82.5 -96
t-123.5 -36h-300q-40 0 -68 28t-28 68t28 68t68 28h65q31 210 31 448q0 226 -25.5 418t-70 303t-96.5 111q-79 0 -135.5 -244t-56.5 -588t56.5 -588t135.5 -244q38 0 74 64h210q-99 -256 -284 -256q-92 0 -162 63t-111 162t-67 239.5t-35 275t-9 288.5q0 176 12.5 322
t33 249.5t50.5 183.5t63 129.5t72.5 80.5t76 43t76.5 12q280 0 356 -560l67 52q62 48 139 65t154 -1l313 -71q93 -21 162 -85t97 -155l56 -182q7 -23 30 -23h194z" />
    <glyph glyph-name="radar" unicode="radar" 
d="M1266 1145l-146 -141q-42 20 -96 20q-106 0 -181 -75t-75 -181t75 -181t181 -75t181 75t75 181q0 52 -20 100l724 728q31 28 31 68t-31 68q-25 28 -64.5 28t-67.5 -28l-175 -175q-136 112 -303 173.5t-350 61.5q-209 0 -398.5 -81t-326.5 -218t-218 -326.5t-81 -398.5
t81 -398.5t218 -326.5t326.5 -218t398.5 -81t398.5 81t326.5 218t218 326.5t81 398.5h-192q0 -203 -91.5 -380t-250 -293t-354.5 -148q-21 -34 -57.5 -54.5t-78.5 -20.5t-78.5 20.5t-57.5 54.5q-263 44 -452.5 233t-232.5 452q-34 21 -54.5 57.5t-20.5 78.5t20.5 78.5
t54.5 57.5q32 196 148 354.5t293 250t380 91.5q290 0 516 -180l-136 -137q-170 125 -380 125q-154 0 -288.5 -68t-223.5 -187t-117 -266q53 -47 53 -119t-53 -119q37 -194 177 -334t333 -176q48 53 119 53t119 -53q147 28 266 117t187 223.5t68 288.5h-192q0 -186 -131 -317
t-317 -131t-317 131t-131 317t131 317t317 131q127 0 242 -71z" />
    <glyph glyph-name="raygun" unicode="raygun" horiz-adv-x="2304" 
d="M448 1188q39 0 67.5 -29t28.5 -67q0 -40 -28 -68t-68 -28t-68 28t-28 68t28 68t68 28zM832 1188q39 0 67.5 -29t28.5 -67q0 -40 -28 -68t-68 -28t-68 28t-28 68t28 68t68 28zM1244 1664q42 0 71 -28t29 -68v-960q0 -40 -28 -68t-68 -28t-68 28t-28 68v79q-5 -2 -14 -7.5
t-14 -7.5l-480 -832q-40 -70 -116 -90q-78 -20 -146 20l-222 128q-70 40 -90 116t20 150l282 488q-159 25 -265.5 148t-106.5 288q0 131 70.5 239.5t185.5 163.5v237q0 36 30 55t62 2l420 -249h192q102 0 192 -45v77q0 39 27.5 67.5t64.5 28.5zM478 -64l406 704h-296
l-332 -576zM1152 921v335q-75 88 -192 88h-512q-106 0 -181 -75t-75 -181t75 -181t181 -75h512q116 0 192 89zM2220 1320q32 5 57 -13q27 -20 27 -52v-334q0 -35 -26 -48q-26 -19 -58 -9l-299 100h-257v-228q0 -40 -28 -68t-68 -28t-68 28t-28 68v704q0 40 28 68t68 28
t68 -28t28 -68v-220h256z" />
    <glyph glyph-name="refrigerator" unicode="refrigerator" horiz-adv-x="1536" 
d="M1152 1792q159 0 271.5 -112.5t112.5 -271.5v-1408q0 -106 -75 -181t-181 -75h-1024q-106 0 -181 75t-75 181v1408q0 159 112.5 271.5t271.5 112.5h768zM1344 0v960h-192v-544q0 -40 -28 -68t-68 -28t-68 28t-28 68v544h-768v-960q0 -26 19 -45t45 -19h1024q26 0 45 19
t19 45zM1344 1152v256q0 80 -56 136t-136 56h-768q-80 0 -136 -56t-56 -136v-256h768v160q0 40 28 68t68 28t68 -28t28 -68v-160h192z" />
    <glyph glyph-name="rocket-launch" unicode="rocket&#x2d;launch" 
d="M1632 1220q0 64 -47.5 112t-112.5 48t-112.5 -48t-47.5 -112q0 -68 46.5 -114t113.5 -46t113.5 46t46.5 114zM1536 544q109 68 195.5 150.5t142 165t93.5 174.5t56 175.5t22.5 171t-0.5 158.5t-18 141q-6 35 -31 59.5t-60 31.5q-70 13 -140.5 18.5t-158.5 0.5
t-171.5 -22.5t-175.5 -55t-174.5 -93t-165 -141t-150.5 -194.5h-329q-76 0 -142.5 -39t-105.5 -106l-210 -354q-28 -47 0 -97q27 -48 83 -48h459q145 0 241 -96q100 -100 100 -245v-459q0 -57 48 -84t97 2l354 209q66 39 103.5 105t37.5 143v329zM792 776q153 538 500 727
q244 129 555 88q36 -320 -88 -551q-189 -351 -727 -504q-37 78 -104 140q-58 62 -136 100zM168 410q-55 -54 -92.5 -142.5t-51.5 -176t-20 -167t-4 -128.5l2 -50q19 -1 51.5 -2t123.5 4t171 19.5t171.5 52t146.5 92.5q104 104 104 249t-104 249t-249 104t-249 -104zM258 2
q0 6 -0.5 17t1.5 41.5t6.5 57t17.5 57t31 48.5q34 35 82 35t83 -35t35 -83t-35 -82q-29 -29 -84.5 -43t-96.5 -13h-40z" />
    <glyph glyph-name="sensor" unicode="sensor" horiz-adv-x="1792" 
d="M800 1280q40 0 68 -28t28 -68v-448q0 -40 -28 -68t-68 -28t-68 28t-28 68v448q0 40 28 68t68 28zM480 1280q40 0 68 -28t28 -68v-448q0 -40 -28 -68t-68 -28t-68 28t-28 68v448q0 40 28 68t68 28zM1536 1664q106 0 181 -75t75 -181v-1280q0 -106 -75 -181t-181 -75h-1280
q-106 0 -181 75t-75 181v1280q0 106 75 181t181 75h1280zM1600 128v1280q0 27 -18.5 45.5t-45.5 18.5h-1280q-27 0 -45.5 -18.5t-18.5 -45.5v-1280q0 -27 18.5 -45.5t45.5 -18.5h1280q27 0 45.5 18.5t18.5 45.5z" />
    <glyph glyph-name="sensor-triangle-exclamation" unicode="sensor&#x2d;triangle&#x2d;exclamation" horiz-adv-x="2560" 
d="M898 64q1 -77 39 -154q6 -10 29 -38h-714q-104 0 -178 75t-74 181v1280q0 106 74 181t178 75h1284q104 0 178 -75t74 -181l4 -22q-104 0 -192 -64v86q0 27 -18.5 45.5t-45.5 18.5h-1280q-27 0 -45.5 -18.5t-18.5 -45.5v-1280q0 -27 18.5 -45.5t45.5 -18.5h642zM700 1184
q0 40 28 68t68 28t68 -28t28 -68v-448q0 -40 -28 -68t-68 -28t-68 28t-28 68v448zM384 1184q0 40 28 68t68 28t68 -28t28 -68v-448q0 -40 -28 -68t-68 -28t-68 28t-28 68v448zM2532 178q31 -51 27.5 -105t-27.5 -99t-72 -73.5t-105 -28.5h-1127q-57 0 -105 28.5t-72 73.5
t-27.5 99t27.5 105l564 977q38 67 107.5 91.5t139 0t107.5 -91.5zM1788 64q41 0 67 27.5t26 68.5q0 40 -27.5 68t-65.5 28t-67 -28.5t-29 -67.5q0 -40 28 -68t68 -28zM1888 448v320q0 40 -28 68t-68 28t-68 -28t-28 -68v-320q0 -40 28 -68t68 -28t68 28t28 68z" />
    <glyph glyph-name="sensor-fire" unicode="sensor&#x2d;fire" horiz-adv-x="2560" 
d="M1303 64q82 -113 198 -192h-1245q-106 0 -181 75t-75 181v1280q0 106 75 181t181 75h1280q74 0 136.5 -39t93.5 -105l-92 -91q-57 -53 -74 -73v52q0 27 -18.5 45.5t-45.5 18.5h-1280q-27 0 -45.5 -18.5t-18.5 -45.5v-1280q0 -27 18.5 -45.5t45.5 -18.5h1047zM704 1184
q0 40 28 68t68 28t68 -28t28 -68v-448q0 -40 -28 -68t-68 -28t-68 28t-28 68v448zM384 1184q0 40 28 68t68 28t68 -28t28 -68v-448q0 -40 -28 -68t-68 -28t-68 28t-28 68v448zM2204 1188q148 -138 252 -337.5t104 -320.5q0 -179 -85.5 -330.5t-233 -239.5t-321.5 -88
t-321.5 88t-233 239.5t-85.5 330.5q0 154 135.5 382t344.5 423q142 -132 284 -318q77 93 160 171zM2120 188q60 42 91 108t29 138.5t-36 137.5q-8 16 -28 50l-147 -168q-229 294 -247 314q-101 -121 -141.5 -190t-40.5 -137q0 -141 94 -227t233 -86q107 0 193 60z" />
    <glyph glyph-name="sensor-on" unicode="sensor&#x2d;on" horiz-adv-x="2560" 
d="M2464 864q40 0 68 -28t28 -68t-28 -68t-68 -28h-320q-40 0 -68 28t-28 68t28 68t68 28h320zM2144 1216q-32 0 -57.5 19t-34.5 49q-10 31 1 60.5t37 47.5l192 128q47 32 98 8q51 -25 54 -82t-45 -86l-192 -128q-26 -16 -53 -16zM2197 304l192 -128q33 -23 41 -61.5
t-14 -71.5t-61 -41t-72 14l-192 128q-33 23 -41 61.5t14 71.5t61 41t72 -14zM480 1280q40 0 68 -28t28 -68v-448q0 -40 -28 -68t-68 -28t-68 28t-28 68v448q0 40 28 68t68 28zM800 1280q40 0 68 -28t28 -68v-448q0 -40 -28 -68t-68 -28t-68 28t-28 68v448q0 40 28 68t68 28z
M1536 1664q106 0 181 -75t75 -181v-1280q0 -106 -75 -181t-181 -75h-1280q-106 0 -181 75t-75 181v1280q0 106 75 181t181 75h1280zM1600 128v1280q0 27 -18.5 45.5t-45.5 18.5h-1280q-27 0 -45.5 -18.5t-18.5 -45.5v-1280q0 -27 18.5 -45.5t45.5 -18.5h1280q27 0 45.5 18.5
t18.5 45.5z" />
    <glyph glyph-name="sensor-cloud" unicode="sensor&#x2d;cloud" horiz-adv-x="2560" 
d="M2290 507q124 -20 201 -118.5t64 -222.5q-10 -124 -102 -209t-217 -85h-892q-130 0 -223 94t-93 226t92 226t224 94h6q-25 122 39 229.5t183 140.5q120 33 232 -20t157 -168q46 57 115 71t131 -21t85.5 -103t-2.5 -134zM700 1188q0 38 28 67t65 29t64.5 -28.5t27.5 -67.5
v-448q0 -39 -27.5 -67.5t-64.5 -28.5t-65 28.5t-28 67.5v448zM252 68l654 -1q32 -109 115 -192h-776q-104 0 -178 75t-74 181v1280q0 107 73 181.5t179 74.5h1277q104 0 178 -75t74 -181v-404q-65 21 -124 21q-30 0 -61 -6v390q0 27 -16.5 45.5t-43.5 18.5h-1277
q-24 0 -42 -18.5t-18 -45.5v-1280q0 -27 16.5 -45.5t43.5 -18.5zM380 1188q0 38 28 67t65 29t64.5 -28.5t27.5 -67.5v-448q0 -39 -27.5 -67.5t-64.5 -28.5t-65 28.5t-28 67.5v448z" />
    <glyph glyph-name="siren" unicode="siren" horiz-adv-x="1792" 
d="M752 1087q39 -7 62.5 -39.5t16.5 -71.5l-64 -384q-6 -35 -33 -57.5t-62 -22.5q-11 0 -16 1q-41 7 -63 39t-16 72l64 384q7 41 39.5 63t71.5 16zM1604 448q78 -2 133 -57.5t55 -134.5v-192q0 -80 -56 -136t-136 -56h-1408q-80 0 -136 56t-56 136v192q0 79 54 135t134 57
l146 777q15 80 77 131.5t143 51.5h684q81 0 143 -51.5t77 -131.5zM523 1190l-139 -742h1024l-138 742q-2 11 -11.5 18.5t-20.5 7.5h-684q-26 0 -31 -26zM1600 64v192h-1408v-192h1408z" />
    <glyph glyph-name="siren-on" unicode="siren&#x2d;on" horiz-adv-x="2560" 
d="M448 896q0 -40 -28 -68t-68 -28h-256q-40 0 -68 28t-28 68t28 68t68 28h256q40 0 68 -28t28 -68zM363 1359l-192 128q-48 31 -45 87t54 82q51 24 97 -9l192 -128q48 -29 45 -87q-3 -57 -54 -81q-50 -26 -97 8zM2144 1343q-32 0 -57.5 19t-34.5 49t1.5 60.5t37.5 48.5
l192 128q45 32 96 7q51 -24 54 -81q3 -59 -44 -87l-192 -128q-26 -16 -53 -16zM2464 992q40 0 68 -28t28 -68t-28 -68t-68 -28h-256q-40 0 -68 28t-28 68t28 68t68 28h256zM1988 448q78 -2 133 -57.5t55 -134.5v-192q0 -80 -56 -136t-136 -56h-1408q-80 0 -136 56t-56 136
v192q0 79 54 135t134 57l146 777q15 80 77 131.5t143 51.5h684q81 0 143 -51.5t77 -131.5zM907 1190l-139 -742h1024l-138 742q-2 11 -11.5 18.5t-20.5 7.5h-684q-26 0 -31 -26zM1984 64v192h-1408v-192h1408zM1136 1087q39 -7 62.5 -39.5t16.5 -71.5l-64 -384
q-6 -35 -33 -57.5t-62 -22.5q-11 0 -16 1q-41 7 -63 39t-16 72l64 384q7 41 39.5 63t71.5 16z" />
    <glyph glyph-name="solar-system" unicode="solar&#x2d;system" 
d="M1020 1024q109 0 184.5 -74.5t75.5 -181.5q0 -106 -75 -179t-181 -73t-181 75t-75 181q0 104 73 178t179 74zM1024 704q26 0 45 19t19 45t-19 45t-45 19t-45 -19t-19 -45t19 -45t45 -19zM1882 212q129 196 159 427t-46 456.5t-247 396.5q-228 228 -547 283t-611 -81
q3 -3 12.5 -9.5t13.5 -11.5q58 -58 85 -135q234 98 483 49.5t429 -227.5q137 -137 198 -316.5t40 -365t-120 -345.5q-76 18 -147 -15.5t-106 -104.5q-34 -71 -17 -147.5t78 -125.5t139.5 -49.5t140.5 48.5t79.5 125.5t-16.5 147.5zM1432 -137q-59 59 -84 142
q-234 -98 -483 -49.5t-429 227.5q-137 137 -198 316.5t-40 365t120 345.5q77 -18 147.5 14t104.5 102q35 70 17.5 147t-78.5 126t-139.5 49.5t-139.5 -48.5q-62 -49 -80 -125t16 -147q-129 -198 -159 -430t46 -457.5t247 -396.5q227 -228 546.5 -283t611.5 81
q-3 3 -12.5 9.5t-13.5 11.5zM1567 1311q49 -49 53.5 -118.5t-34.5 -121.5q64 -121 74.5 -257t-36.5 -266.5t-147 -228.5q-153 -154 -369 -182t-404 80q-188 106 -271 306.5t-27 409.5q56 210 228.5 342.5t389.5 132.5q153 0 300 -78q56 40 125 35t118 -54zM1341 451
q107 107 125.5 258t-54.5 278q-71 7 -117 53q-45 44 -52 117q-100 56 -213 58t-213.5 -49t-166.5 -144q-100 -144 -76 -317.5t159 -284.5t310 -102t298 133z" />
    <glyph glyph-name="circle-sort" unicode="circle&#x2d;sort" 
d="M1390 704q49 0 68 -46t-16 -80l-366 -365q-21 -21 -52 -21q-30 0 -52 22l-366 364q-35 34 -16 80t68 46h732zM1076 1322l366 -364q35 -34 16 -80t-68 -46h-732q-49 0 -68 46t16 80l366 364q22 22 52 22t52 -22zM1024 1792q209 0 398.5 -81t326.5 -218t218 -326.5
t81 -398.5t-81 -398.5t-218 -326.5t-326.5 -218t-398.5 -81t-398.5 81t-326.5 218t-218 326.5t-81 398.5t81 398.5t218 326.5t326.5 218t398.5 81zM1024 -64q169 0 323 66t265.5 177.5t177.5 265.5t66 323t-66 323t-177.5 265.5t-265.5 177.5t-323 66t-323 -66
t-265.5 -177.5t-177.5 -265.5t-66 -323t66 -323t177.5 -265.5t265.5 -177.5t323 -66z" />
    <glyph glyph-name="circle-sort-down" unicode="circle&#x2d;sort&#x2d;down" 
d="M1076 1322l366 -364q35 -34 16 -80t-68 -46h-732q-49 0 -68 46t16 80l366 364q22 22 52 22t52 -22zM789 960h470l-235 234zM1390 704q49 0 68 -46t-16 -80l-366 -365q-21 -21 -52 -21q-30 0 -52 22l-366 364q-35 34 -16 80t68 46h732zM1024 1792q209 0 398.5 -81
t326.5 -218t218 -326.5t81 -398.5t-81 -398.5t-218 -326.5t-326.5 -218t-398.5 -81t-398.5 81t-326.5 218t-218 326.5t-81 398.5t81 398.5t218 326.5t326.5 218t398.5 81zM1024 -64q169 0 323 66t265.5 177.5t177.5 265.5t66 323t-66 323t-177.5 265.5t-265.5 177.5t-323 66
t-323 -66t-265.5 -177.5t-177.5 -265.5t-66 -323t66 -323t177.5 -265.5t265.5 -177.5t323 -66z" />
    <glyph glyph-name="circle-sort-up" unicode="circle&#x2d;sort&#x2d;up" 
d="M1076 1322l366 -364q35 -34 16 -80t-68 -46h-732q-49 0 -68 46t16 80l366 364q22 22 52 22t52 -22zM1390 704q49 0 68 -46t-16 -80l-366 -365q-21 -21 -52 -21q-30 0 -52 22l-366 364q-35 34 -16 80t68 46h732zM1024 342l234 234h-469zM1024 1792q209 0 398.5 -81
t326.5 -218t218 -326.5t81 -398.5t-81 -398.5t-218 -326.5t-326.5 -218t-398.5 -81t-398.5 81t-326.5 218t-218 326.5t-81 398.5t81 398.5t218 326.5t326.5 218t398.5 81zM1024 -64q169 0 323 66t265.5 177.5t177.5 265.5t66 323t-66 323t-177.5 265.5t-265.5 177.5t-323 66
t-323 -66t-265.5 -177.5t-177.5 -265.5t-66 -323t66 -323t177.5 -265.5t265.5 -177.5t323 -66z" />
    <glyph glyph-name="space-station-moon" unicode="space&#x2d;station&#x2d;moon" 
d="M0 768q0 -209 81 -398.5t218 -326.5t326.5 -218t398.5 -81t398.5 81t326.5 218t218 326.5t81 398.5t-81 398.5t-218 326.5t-326.5 218t-398.5 81t-398.5 -81t-326.5 -218t-218 -326.5t-81 -398.5zM1024 1600q169 0 323.5 -66t265.5 -177t177 -265.5t66 -323.5
q0 -79 -13 -150q-2 0 -6 -2q-77 -28 -131 -44t-159.5 -41t-237.5 -38t-285 -13t-285 13t-237.5 38t-159.5 41t-131 44q-4 2 -6 2q-13 71 -13 150q0 242 128 444q2 -158 114 -269t270 -111q159 0 271.5 112.5t112.5 271.5q0 124 -71 223t-184 139q96 22 191 22zM1765 389
q-105 -205 -303.5 -329t-437.5 -124t-437.5 124t-303.5 329q330 -101 741 -101t741 101zM704 1024q-80 0 -136 56t-56 136t56 136t136 56t136 -56t56 -136t-56 -136t-136 -56z" />
    <glyph glyph-name="space-station-moon-construction" unicode="space&#x2d;station&#x2d;moon&#x2d;construction" 
d="M1088 1216q0 124 -71 223t-184 139q96 22 191 22q162 0 307.5 -59t256.5 -165h-116q-40 0 -68 -28t-28 -68t28 -68t68 -28h326q58 0 85 50q28 50 -5 99q-140 211 -365.5 335t-488.5 124q-209 0 -398.5 -81t-326.5 -218t-218 -326.5t-81 -398.5t81 -398.5t218 -326.5
t326.5 -218t398.5 -81q240 0 450 103.5t353 284.5q23 31 19 71t-35 64q-32 27 -71 22t-64 -37q-120 -148 -290 -232t-366 -84q-236 0 -434 124t-303 329q330 -101 737 -101q166 0 310.5 14t258 41t174 45.5t137.5 46.5q38 14 50 18q47 16 62 65l3 8q33 115 33 238v4
q0 40 -28 68t-68 28t-68 -28t-28 -68v-4q0 -77 -20 -146l1 -2q-77 -27 -131 -43.5t-160.5 -41.5t-239 -38t-286.5 -13q-151 0 -282 13t-237 38t-159.5 41t-130.5 44l-6 2q-17 93 -17 150q0 235 132 444q1 -157 113 -268.5t267 -111.5q162 0 275 112.5t113 271.5zM700 1408
q82 0 137 -56t55 -136t-55 -136t-137 -56q-77 0 -134.5 56.5t-57.5 135.5t57.5 135.5t134.5 56.5zM1696 1056h-192q-40 0 -68 -28t-28 -68t28 -68t68 -28h192q40 0 68 28t28 68t-28 68t-68 28z" />
    <glyph glyph-name="sprinkler" unicode="sprinkler" 
d="M96 1376q40 0 68 -28t28 -68t-28 -68t-68 -28t-68 28t-28 68t28 68t68 28zM96 960q40 0 68 -28t28 -68t-28 -68t-68 -28t-68 28t-28 68t28 68t68 28zM352 1408q-40 0 -68 28t-28 68t28 68t68 28t68 -28t28 -68t-28 -68t-68 -28zM1440 1184q-40 0 -68 28t-28 68t28 68
t68 28t68 -28t28 -68t-28 -68t-68 -28zM96 1792q40 0 68 -28t28 -68t-28 -68t-68 -28t-68 28t-28 68t28 68t68 28zM608 1184q-40 0 -68 28t-28 68t28 68t68 28t68 -28t28 -68t-28 -68t-68 -28zM1952 1600q-40 0 -68 28t-28 68t28 68t68 28t68 -28t28 -68t-28 -68t-68 -28z
M1952 960q40 0 68 -28t28 -68t-28 -68t-68 -28t-68 28t-28 68t28 68t68 28zM1952 1376q40 0 68 -28t28 -68t-28 -68t-68 -28t-68 28t-28 68t28 68t68 28zM1696 1600q40 0 68 -28t28 -68t-28 -68t-68 -28t-68 28t-28 68t28 68t68 28zM1696 1152q40 0 68 -28t28 -68t-28 -68
t-68 -28t-68 28t-28 68t28 68t68 28zM448 1056q0 -40 -28 -68t-68 -28t-68 28t-28 68t28 68t68 28t68 -28t28 -68zM1593 768q20 0 37.5 -10.5t26.5 -28.5q19 -39 -7 -75l-270 -312l-100 -100v-434q0 -26 -19 -45t-45 -19h-384q-26 0 -45 19t-19 45v434l-99 99l-270 313
q-26 36 -7 74q20 40 63 40h473v672q0 40 28 68t68 28t68 -28t28 -68v-672h473zM1088 322l241 254h-609l240 -254v-386h128v386z" />
    <glyph glyph-name="star-shooting" unicode="star&#x2d;shooting" 
d="M1457 723q37 -4 59 -31.5t20 -63.5t-28 -62l-303 -296l71 -419q7 -44 -20 -74q-27 -33 -70 -33q-21 0 -43 11l-375 197l-375 -197q-22 -11 -43 -11q-45 0 -67 33q-27 30 -20 75l69 418l-304 296q-41 41 -23 96t74 61l419 61l187 381q11 24 33.5 37.5t49.5 13.5
q56 0 82 -51l188 -381zM998 337l231 225l-319 46l-142 289l-143 -289l-318 -46l231 -225l-55 -318l285 150l285 -150zM1244 992q-28 26 -28 65t28 67l640 640q28 28 68 28t68 -28t28 -68t-28 -68l-640 -640q-28 -28 -68 -28t-68 32zM992 1408q-40 0 -68 28t-28 68t28 68
l192 192q28 28 68 28t68 -28t28 -68t-28 -68l-192 -192q-28 -28 -68 -28zM1884 996q29 28 68 28t68 -28q28 -28 28 -68t-28 -68l-192 -192q-28 -28 -68 -28t-68 28t-28 68t28 68z" />
    <glyph glyph-name="starfighter" unicode="starfighter" horiz-adv-x="2560" 
d="M1408 768q0 53 -37.5 90.5t-90.5 37.5t-90.5 -37.5t-37.5 -90.5v-192q0 -26 19 -45t45 -19h128q26 0 45 19t19 45v192zM1018 1652l-104 -826q-24 6 -50 6h-128q-93 0 -158.5 -65.5t-65.5 -158.5v-224h-224v736q40 0 68 28t28 68t-28 68t-68 28v96q0 40 -28 68t-68 28
t-68 -28t-28 -68v-96q-40 0 -68 -28t-28 -68t28 -68t68 -28v-1120q0 -40 28 -68t68 -28t68 28t28 68v11l352 -118v-21q0 -53 37.5 -90.5t90.5 -37.5t90.5 37.5t37.5 90.5v2q54 8 96 42q55 -44 128 -44h320q73 0 128 44q42 -34 96 -42v-2q0 -53 37.5 -90.5t90.5 -37.5
t90.5 37.5t37.5 90.5v21l352 118v-11q0 -40 28 -68t68 -28t68 28t28 68v1120q40 0 68 28t28 68t-28 68t-68 28v96q0 40 -28 68t-68 28t-68 -28t-28 -68v-96q-40 0 -68 -28t-28 -68t28 -68t68 -28v-736h-224v224q0 93 -65.5 158.5t-158.5 65.5h-128q-26 0 -50 -6l-104 826
q-7 60 -52.5 100t-105.5 40h-208q-62 0 -106 -39.5t-52 -100.5zM1472 96q0 -14 -9 -23t-23 -9h-324q-11 0 -21.5 9.5t-10.5 22.5v570l121 934h150l117 -934v-570zM1664 608q0 14 9 23t23 9h128q14 0 23 -9t9 -23v-512q0 -14 -9 -23t-23 -9h-128q-14 0 -23 9t-9 23v512z
M736 640h128q14 0 23 -9t9 -23v-512q0 -14 -9 -23t-23 -9h-128q-14 0 -23 9t-9 23v512q0 14 9 23t23 9z" />
    <glyph glyph-name="starfighter-twin-ion-engine" unicode="starfighter&#x2d;twin&#x2d;ion&#x2d;engine" horiz-adv-x="2304" 
d="M96 1664q-40 0 -68 -28t-28 -68v-1600q0 -40 28 -68t68 -28t68 28t28 68v551l423 -100q87 -134 229 -212.5t308 -78.5t308 78.5t229 212.5l423 100v-551q0 -40 28 -68t68 -28t68 28t28 68v1600q0 40 -28 68t-68 28t-68 -28t-28 -68v-551l-423 100q-86 136 -228 213.5
t-309 77.5t-309 -77.5t-228 -213.5l-423 -100v551q0 40 -28 68t-68 28zM1779 638q13 61 13 130t-13 130l333 -78v-100zM525 638l-333 82v100l333 78q-13 -61 -13 -130t13 -130zM1088 324q-112 16 -204 85l92 92q56 -36 112 -47v-130zM793 500q-68 91 -85 204h130
q11 -56 47 -112zM708 832q16 112 85 204l92 -92q-36 -56 -47 -112h-130zM884 1127q92 68 200 85v-130q-53 -11 -108 -47zM1328 501l92 -92q-91 -68 -204 -85v130q56 11 112 47zM1511 500l-92 92q36 56 47 112h130q-17 -113 -85 -204zM1419 944l92 92q69 -92 85 -204h-130
q-11 56 -47 112zM1420 1127l-92 -92q-56 36 -112 47v130q113 -17 204 -85zM1242 678q-38 -38 -90 -38q-53 0 -90.5 37.5t-37.5 90.5t37 90l1 1q39 37 89 37h2q50 0 89 -37l1 -1q37 -37 37 -90q0 -52 -38 -90z" />
    <glyph glyph-name="starship" unicode="starship" horiz-adv-x="2560" 
d="M2112 768q0 133 -93.5 226.5t-226.5 93.5t-226.5 -93.5t-93.5 -226.5t93.5 -226.5t226.5 -93.5t226.5 93.5t93.5 226.5zM1792 896q53 0 90.5 -37.5t37.5 -90.5t-37.5 -90.5t-90.5 -37.5t-90.5 37.5t-37.5 90.5t37.5 90.5t90.5 37.5zM0 1408q0 -106 75 -181t181 -75h66
l200 -139l-54 -7q-90 -8 -151 -77t-61 -161q0 -91 60.5 -159t151.5 -79l54 -7l-200 -139h-66q-106 0 -181 -75t-75 -181t75 -181t181 -75h512q106 0 181 75t75 181t-75 181t-181 75h-109l151 104l281 -33q91 -204 280.5 -329.5t420.5 -125.5q209 0 385.5 103t279.5 279.5
t103 385.5q0 210 -103 387t-279.5 279t-385.5 102q-231 0 -420.5 -125.5t-280.5 -329.5l-281 -33l-151 104h109q106 0 181 75t75 181t-75 181t-181 75h-512q-106 0 -181 -75t-75 -181zM256 1472h512q26 0 45 -19t19 -45t-19 -45t-45 -19h-512q-26 0 -45 19t-19 45t19 45
t45 19zM448 768h-4q0 18 14 32t32 16l542 65q-8 -44 -8 -113q0 -64 8 -113l-542 69q-18 -1 -30 12.5t-12 31.5zM256 64q-26 0 -45 19t-19 45t19 45t45 19h512q26 0 45 -19t19 -45t-19 -45t-45 -19h-512zM1792 192q-117 0 -223.5 45.5t-184 123t-123 184t-45.5 223.5
t45.5 223.5t123 184t184 123t223.5 45.5t223.5 -45.5t184 -123t123 -184t45.5 -223.5t-45.5 -223.5t-123 -184t-184 -123t-223.5 -45.5z" />
    <glyph glyph-name="starship-freighter" unicode="starship&#x2d;freighter" horiz-adv-x="2304" 
d="M284 772q0 -28 19.5 -46t44.5 -18q29 0 46.5 17.5t17.5 46.5q0 25 -18 44.5t-46 19.5q-24 0 -44 -20t-20 -44zM540 1156q0 25 -18 44.5t-46 19.5q-24 0 -44 -20t-20 -44q0 -28 19.5 -46t44.5 -18q29 0 46.5 17.5t17.5 46.5zM412 384q0 -26 19.5 -45t44.5 -19
q29 0 46.5 18.5t17.5 45.5t-17.5 45.5t-46.5 18.5q-25 0 -44.5 -19t-19.5 -45zM2222 288q37 14 59.5 47t22.5 73v720q0 40 -22.5 73t-59.5 47l-832 323q-241 93 -494 93q-182 0 -348 -71t-286 -191t-191 -286t-71 -348t71 -348t191 -286t286 -191t348 -71q154 0 308 35
l40 -51q41 -53 101 -82.5t127 -29.5h288q119 0 203.5 84.5t84.5 203.5q0 93 -54 168zM892 1476q144 0 275.5 -56.5t226 -151t150.5 -224.5t56 -272q0 -177 -80 -331l-240 311v20q0 159 -113 271.5t-275 112.5q-159 0 -271.5 -112.5t-112.5 -271.5q0 -143 92 -251t228 -132
l239 -304q-83 -21 -175 -21q-142 0 -272 56t-224.5 150.5t-151 226t-56.5 275.5q0 142 56.5 272t151 224.5t224.5 151t272 56.5zM1760 320h-88q95 164 115 356h325v-225l-338 -131h-14zM2112 868h-325q-24 217 -148 400l473 -183v-217zM892 964q81 0 136.5 -57t55.5 -135
q0 -82 -55 -137t-137 -55q-78 0 -135 55.5t-57 136.5q0 76 58 134t134 58zM1472 -64q-48 0 -76 37l-343 444q96 48 150 120l316 -409h241q40 0 68 -28t28 -68t-28 -68t-68 -28h-288z" />
    <glyph glyph-name="sword-laser" unicode="sword&#x2d;laser" 
d="M706 898l452 -453q9 -9 9 -22.5t-9 -22.5l-44 -45q-9 -9 -23 -9t-23 9l-22 22l-570 -569q-64 -64 -154.5 -64t-154.5 64l-103 103q-64 64 -64 154.5t64 154.5l570 569l-18 18q-9 9 -9 23t9 23l45 45q10 9 23 9t22 -9zM340 -52l253 252l-140 141l-253 -253q-8 -8 -8 -19
t8 -18l103 -104q8 -7 18.5 -7t18.5 8zM638 242l45 45l-140 140l-45 -45zM729 332l45 46l-141 140l-45 -45zM820 423l45 45l-141 141l-45 -45zM2013 1757q34 -33 34 -81t-31 -84l-872 -950l-246 246l950 872q35 33 83 32t82 -35z" />
    <glyph glyph-name="sword-laser-alt" unicode="sword&#x2d;laser&#x2d;alt" 
d="M476 -188q-63 -66 -154.5 -67t-154.5 63l-103 103q-64 64 -64 154.5t64 154.5l529 530q18 18 45 18l639 3q43 0 59 -39.5t-14 -69.5zM692 580l-141 -141l141 -140l281 281h-281zM200 47l23 -23l280 279l-42 42l-261 -261q-8 -8 -8 -19t8 -18zM303 -52q7 -10 18 -10t19 10
l261 260l-42 42l-279 -279zM2013 1757q34 -33 34.5 -82.5t-30.5 -86.5l-640 -692h-470l941 864q35 33 83 32t82 -35z" />
    <glyph glyph-name="swords-laser" unicode="swords&#x2d;laser" horiz-adv-x="2560" 
d="M547 1757q34 34 82 34.5t83 -31.5l692 -639v-470l-860 941q-33 35 -32 83t35 82zM2492 220q67 -65 67.5 -155t-66.5 -154l-103 -103q-65 -64 -155 -64t-154 64l-530 529q-18 18 -18 45v638q0 44 39 60q40 16 70 -14zM1724 436l141 -141l140 140l-281 281v-280zM2258 -56
l23 23l-280 279l-42 -41l261 -261q10 -8 19 -8t19 8zM2360 46q8 8 8 19t-8 19l-261 261l-42 -42l280 -280zM1658 1202q-40 11 -58 11q-42 0 -82 -19l-144 131l474 435q35 33 83 32t82 -35q34 -37 34.5 -83.5t-31.5 -81.5zM962 947l231 -251l-137 -148l103 -103q9 -9 9 -22.5
t-9 -22.5l-45 -45q-9 -9 -23 -9t-23 9l-22 23l-570 -570q-64 -64 -154.5 -64t-154.5 64l-103 103q-64 67 -64 156.5t64 153.5l570 568l-18 18q-9 9 -9 23t9 23l45 45q10 9 23 9t22 -9l97 -98zM340 -52l253 252l-140 141l-253 -253q-8 -8 -8 -19t8 -18l103 -104q8 -7 18.5 -7
t18.5 8zM638 242l46 45l-141 140l-45 -45zM728 332l46 45l-141 141l-45 -45zM819 423l45 45l-140 141l-46 -45z" />
    <glyph glyph-name="telescope" unicode="telescope" horiz-adv-x="2560" 
d="M2555 925q10 -23 -1 -49t-37 -35l-469 -194q-25 -10 -49.5 -0.5t-34.5 34.5l-13 31l-387 -133v-3q0 -99 -63 -178l186 -526q13 -37 -4 -72.5t-55 -49.5q-16 -6 -32 -6q-27 0 -52 17.5t-38 46.5l-172 486q-28 -6 -58 -6q-29 0 -57 6l-172 -486q-10 -29 -35.5 -46.5
t-55.5 -17.5q-15 0 -28 9q-38 14 -54.5 50t-3.5 73l185 522q-1 0 -1 1t-1 2l-508 -175q-26 -9 -50.5 1t-34.5 33l-35 84l-256 -106q-8 -4 -25 -4q-18 0 -35 11.5t-24 27.5l-80 194q-5 10 -5 24q0 18 11.5 35t28.5 24l256 107l-35 84q-10 23 0.5 47.5t35.5 36.5l1341 650
l-13 31q-10 25 -0.5 48.5t34.5 34.5l470 195q25 10 48.5 -0.5t34.5 -34.5zM1276 484q41 0 68.5 28t27.5 68t-28 68t-68 28t-68 -28t-28 -68t28 -68t68 -28zM1500 759l381 131l-170 410l-1227 -598l107 -257l402 139q3 116 86.5 198t200.5 82q133 0 220 -105zM2092 873
l233 97l-245 591l-233 -96z" />
    <glyph glyph-name="temperature-arrow-down" unicode="temperature&#x2d;arrow&#x2d;down" 
d="M768 320q0 63 -36.5 112t-98.5 69v75q0 26 -18.5 45t-42.5 19t-42 -19t-18 -45v-75q-57 -21 -92.5 -70t-35.5 -111q0 -80 56 -136t136 -56t136 56t56 136zM1020 678v666q0 186 -129.5 317t-314.5 131t-316.5 -131.5t-131.5 -316.5v-666q-128 -159 -128 -358
q0 -156 78 -289t210.5 -210t287.5 -77t286.5 77t208.5 210t77 289q0 199 -128 358zM960 320q0 -159 -113 -271.5t-271 -112.5t-271 112.5t-113 271.5q0 130 86 238l42 52v734q0 106 75 181t181 75t181 -75t75 -181v-733l42 -52q86 -110 86 -239zM2016 359q29 -26 31 -66
t-24 -69l-288 -320q-29 -32 -71 -32t-71 32l-288 320q-26 30 -24 69t31 66q29 26 68.5 24t66.5 -31l121 -134v1350q0 40 28 68t68 28t68 -28t28 -68v-1350l121 134q27 29 66.5 31t68.5 -24z" />
    <glyph glyph-name="temperature-arrow-up" unicode="temperature&#x2d;arrow&#x2d;up" 
d="M768 320q0 62 -36.5 111t-95.5 69v844q0 27 -17 45.5t-43 18.5t-45 -19t-19 -45v-843q-57 -21 -92.5 -70t-35.5 -111q0 -80 56 -136t136 -56t136 56t56 136zM1020 678v666q0 186 -129.5 317t-314.5 131t-316.5 -131.5t-131.5 -316.5v-666q-128 -159 -128 -358
q0 -156 78 -289t210.5 -210t287.5 -77t286.5 77t208.5 210t77 289q0 199 -128 358zM960 320q0 -159 -113 -271.5t-271 -112.5t-271 112.5t-113 271.5q0 130 86 238l42 52v734q0 106 75 181t181 75t181 -75t75 -181v-733l42 -52q86 -110 86 -239zM2016 1177q29 29 31 67.5
t-24 67.5l-288 320q-29 32 -71 32t-71 -32l-288 -320q-26 -30 -24 -69t31 -66q29 -26 68.5 -24t66.5 31l121 134v-1350q0 -40 28 -68t68 -28t68 28t28 68v1350l121 -134q27 -29 66.5 -31t68.5 24z" />
    <glyph glyph-name="trailer" unicode="trailer" horiz-adv-x="2560" 
d="M544 1344q-40 0 -68 -28t-28 -68v-384q0 -40 28 -68t68 -28t68 28t28 68v384q0 40 -28 68t-68 28zM928 1344q-40 0 -68 -28t-28 -68v-384q0 -40 28 -68t68 -28t68 28t28 68v384q0 40 -28 68t-68 28zM1312 1344q-40 0 -68 -28t-28 -68v-576q0 -40 28 -68t68 -28t68 28
t28 68v576q0 40 -28 68t-68 28zM1696 1344q-40 0 -68 -28t-28 -68v-576q0 -40 28 -68t68 -28t68 28t28 68v576q0 40 -28 68t-68 28zM768 -128q159 0 271.5 112.5t112.5 271.5h1312q40 0 68 28t28 68t-28 68t-68 28h-224v960q0 106 -75 181t-181 75h-1728q-106 0 -181 -75
t-75 -181v-896q0 -106 75 -181t181 -75h128q0 -160 111.5 -272t272.5 -112zM256 1472h1728q26 0 45 -19t19 -45v-960h-947q-50 88 -139 140t-194 52t-194 -52t-139 -140h-179q-26 0 -45 19t-19 45v896q0 26 19 45t45 19zM768 448q80 0 136 -56t56 -136t-56 -136t-136 -56
t-136 56t-56 136t56 136t136 56z" />
    <glyph glyph-name="transporter" unicode="transporter" 
d="M1024 1408q-80 0 -136 56t-56 136t56 136t136 56t136 -56t56 -136t-56 -136t-136 -56zM375 1358q9 -4 9 -14t-9 -14l-119 -50l-50 -119q-4 -9 -14 -9q-9 0 -14 9l-50 119l-119 49q-9 5 -9 15t9 14l119 50l50 119q5 9 14 9q10 0 15 -9l49 -119zM2039 1614q9 -5 9 -14
t-9 -14l-119 -50l-50 -119q-4 -9 -14 -9t-14 9l-50 119l-119 49q-9 5 -9 15q0 9 9 14l119 50l50 119q4 9 14 9t14 -9l50 -119zM1568 -64q40 0 68 -28t28 -68t-28 -68t-68 -28h-1088q-40 0 -68 28t-28 68t28 68t68 28h288v1011l-213 -270q-25 -31 -64.5 -35.5t-70.5 19.5
q-31 25 -36 64.5t20 70.5l314 398q67 86 176 86h260q109 0 176 -86l314 -399q24 -31 19.5 -70.5t-35.5 -64.5q-31 -24 -70.5 -19.5t-64.5 35.5l-213 271v-1011h288zM1056 -64v576h-64v-576h64z" />
    <glyph glyph-name="transporter-1" unicode="transporter&#x2d;&#x31;" 
d="M480 640q-28 0 -51 14.5t-35 39.5q-27 55 10 102l314 398q31 40 78 63t98 23h260q109 0 176 -86l314 -399q24 -31 19.5 -70.5t-35.5 -64.5q-31 -24 -70.5 -19.5t-64.5 35.5l-213 271v-435h64q26 0 45 -19t19 -45t-19 -45t-45 -19h-640q-26 0 -45 19t-19 45t19 45t45 19
h64v435l-212 -271q-30 -36 -76 -36zM1344 256q26 0 45 -19t19 -45t-19 -45t-45 -19h-640q-26 0 -45 19t-19 45t19 45t45 19h640zM1024 1408q-80 0 -136 56t-56 136t56 136t136 56t136 -56t56 -136t-56 -136t-136 -56zM375 334q9 -4 9 -14t-9 -14l-119 -50l-50 -119
q-4 -9 -14 -9q-9 0 -14 9l-50 119l-119 50q-9 4 -9 14t9 14l119 50l50 119q4 9 14 9q9 0 14 -9l50 -119zM2039 1102q9 -5 9 -14t-9 -14l-119 -50l-50 -119q-4 -9 -14 -9q-9 0 -14 9l-50 119l-119 50q-9 4 -9 14q0 9 9 14l119 50l50 119q4 9 14 9q9 0 14 -9l50 -119z
M1568 -64q40 0 68 -28t28 -68t-28 -68t-68 -28h-1088q-40 0 -68 28t-28 68t28 68t68 28h160q0 26 19 45t45 19h640q26 0 45 -19t19 -45h160z" />
    <glyph glyph-name="transporter-2" unicode="transporter&#x2d;&#x32;" 
d="M448 640q-26 0 -45 19t-19 45t19 45t45 19h1152q26 0 45 -19t19 -45t-19 -45t-45 -19h-1152zM1330 1194l235 -298h-1081l234 298q67 86 176 86h260q51 0 98 -23t78 -63zM1024 1408q-80 0 -136 56t-56 136t56 136t136 56t136 -56t56 -136t-56 -136t-136 -56zM1344 512
q26 0 45 -19t19 -45t-19 -45t-45 -19h-640q-26 0 -45 19t-19 45t19 45t45 19h640zM1568 -64q40 0 68 -28t28 -68t-28 -68t-68 -28h-1088q-40 0 -68 28t-28 68t28 68t68 28h160q0 26 19 45t45 19h640q26 0 45 -19t19 -45h160zM2039 334q9 -5 9 -14t-9 -14l-119 -50l-49 -119
q-5 -9 -15 -9q-9 0 -14 9l-50 119l-119 50q-9 4 -9 14q0 9 9 14l119 50l50 119q4 9 14 9q9 0 14 -9l50 -119zM375 1614q9 -4 9 -14t-9 -14l-119 -50l-49 -119q-5 -9 -15 -9t-14 9l-50 119l-119 50q-9 4 -9 14t9 14l119 50l50 119q4 9 14 9t15 -9l49 -119zM1344 256
q26 0 45 -19t19 -45t-19 -45t-45 -19h-640q-26 0 -45 19t-19 45t19 45t45 19h640z" />
    <glyph glyph-name="transporter-3" unicode="transporter&#x2d;&#x33;" 
d="M576 896q-26 0 -45 19t-19 45t19 45t45 19h896q26 0 45 -19t19 -45t-19 -45t-45 -19h-896zM704 1152q-26 0 -45 19t-19 45t19 45t45 19h640q26 0 45 -19t19 -45t-19 -45t-45 -19h-640zM375 1230q9 -4 9 -14t-9 -14l-119 -50l-50 -119q-4 -9 -14 -9q-9 0 -14 9l-50 119
l-119 49q-9 5 -9 15t9 14l119 50l50 119q5 9 14 9q10 0 15 -9l49 -119zM1024 1408q-80 0 -136 56t-56 136t56 136t136 56t136 -56t56 -136t-56 -136t-136 -56zM2039 1614q9 -5 9 -14t-9 -14l-119 -50l-50 -119q-4 -9 -14 -9t-14 9l-50 119l-119 50q-9 4 -9 14q0 9 9 14
l119 50l50 119q4 9 14 9t14 -9l50 -119zM1568 -64q40 0 68 -28t28 -68t-28 -68t-68 -28h-1088q-40 0 -68 28t-28 68t28 68t68 28h160q0 26 19 45t45 19h640q26 0 45 -19t19 -45h160zM1600 768q26 0 45 -19t19 -45t-19 -45t-45 -19h-1152q-26 0 -45 19t-19 45t19 45t45 19
h1152zM704 384q-26 0 -45 19t-19 45t19 45t45 19h640q26 0 45 -19t19 -45t-19 -45t-45 -19h-640zM704 128q-26 0 -45 19t-19 45t19 45t45 19h640q26 0 45 -19t19 -45t-19 -45t-45 -19h-640z" />
    <glyph glyph-name="transporter-empty" unicode="transporter&#x2d;empty" horiz-adv-x="1280" 
d="M1184 -64q40 0 68 -28t28 -68t-29 -68t-71 -28h-1088q-37 0 -64.5 28.5t-27.5 67.5t27.5 67.5t64.5 28.5h1092z" />
    <glyph glyph-name="ufo" unicode="ufo" horiz-adv-x="2560" 
d="M608 544q0 40 -28 68t-68 28t-68 -28t-28 -68t28 -68t68 -28t68 28t28 68zM1376 384q0 40 -28 68t-68 28t-68 -28t-28 -68t28 -68t68 -28t68 28t28 68zM1952 544q0 -40 28 -68t68 -28t68 28t28 68t-28 68t-68 28t-68 -28t-28 -68zM2349 900q-167 111 -431 176
q-68 205 -244.5 332.5t-393.5 127.5t-393.5 -127.5t-244.5 -332.5q-264 -65 -431 -176q-211 -141 -211 -326q0 -140 123 -256q104 -98 284 -171q364 -147 873 -147q249 0 474.5 38.5t398.5 108.5q180 73 284 171q123 116 123 256q0 185 -211 326zM706 807l-70 -66l1 -1v4
l1 -5l3 1q2 -7 9 -12q4 -3 13.5 -11.5t16.5 -13.5q52 -38 117 -63q188 -92 483 -92t483 92q65 25 117 63q7 5 16.5 13.5t13.5 11.5q7 5 9 12q1 -3 3 -1l1 5v-4l1 1l-70 66l70 -66q23 24 26 57q3 40 -2 70q191 -56 294 -124q126 -89 126 -170q0 -57 -63 -117
q-73 -70 -224 -132q-158 -61 -365 -97t-436 -36t-436 36t-365 97q-151 62 -224 132q-63 60 -63 117q0 81 126 170q103 70 290 124q0 -46 2 -70q3 -33 26 -57zM1756 854q-22 -20 -72 -43q-162 -75 -404 -75t-404 75q-48 22 -76 43q-1 137 64.5 250t176 176.5t239.5 63.5
q95 0 183 -37.5t153.5 -102t104 -156.5t35.5 -194z" />
    <glyph glyph-name="ufo-beam" unicode="ufo&#x2d;beam" horiz-adv-x="2304" 
d="M196 1284q-196 -122 -196 -284q0 -122 116 -224q92 -82 256 -143q314 -117 776 -117q464 0 784 117q164 61 256 143q116 102 116 224q0 162 -196 284q-144 88 -367 141q-75 166 -236.5 266.5t-352.5 100.5t-352.5 -100.5t-236.5 -266.5q-223 -53 -367 -141zM610 1139
l-68 -69h1v0l1 -1l3 -3q1 1 9 -7q17 -15 29 -22q43 -31 111 -60q181 -77 456 -77q274 0 456 77q68 29 111 60q12 7 29 22q8 8 9 7l3 3l1 1v0h1q0 1 -68 69l68 -69q25 25 28 60q3 47 2 83q131 -40 215 -92q105 -65 105 -121q0 -37 -50 -80q-67 -59 -197 -107
q-294 -109 -717 -109q-415 0 -709 109q-130 48 -197 107q-54 46 -54 80q0 53 109 121q84 52 215 92q-2 -63 2 -83q3 -35 28 -60zM1596 1192q-16 -18 -63 -38q-158 -66 -381 -66t-381 66q-46 20 -67 38q2 170 132.5 289t315.5 119q122 0 224 -54.5t161 -148.5t59 -205z
M181 -205l288 544q19 35 7 74.5t-47 55.5q-35 19 -73 7t-57 -47l-288 -544q-19 -35 -7 -73t47 -57t73 -7t57 47zM2293 -115l-288 544q-19 35 -57 47t-73 -7q-35 -16 -47 -55.5t7 -74.5l288 -544q16 -35 55.5 -47t74.5 7t47 57t-7 73z" />
    <glyph glyph-name="user-alien" unicode="user&#x2d;alien" horiz-adv-x="1792" 
d="M996 864q-14 0 -25 11.5t-11 26.5v26q0 79 58 135.5t138 56.5h80q19 0 31.5 -11t12.5 -27v-26q0 -80 -59.5 -136t-144.5 -56h-80zM788 864h-80q-80 0 -138 56.5t-58 135.5v26q0 16 11.5 27t28.5 11h80q83 0 141.5 -56.5t58.5 -135.5v-26q0 -16 -12.5 -27t-31.5 -11z
M1322 378q200 -24 335 -174t135 -353q0 -44 -31.5 -75.5t-75.5 -31.5h-1578q-44 0 -75.5 31.5t-31.5 75.5q0 203 135 353t335 174q99 -100 204 -186h-141q-118 0 -209.5 -72t-120.5 -184h1386q-29 112 -120.5 184t-209.5 72h-141q105 86 204 186zM838 226q-69 53 -136.5 111
t-158.5 151t-157.5 183t-114 199.5t-47.5 207.5q0 208 86 371t239 253t347 90q145 0 270 -52.5t213.5 -146t139 -226.5t50.5 -289q0 -97 -47.5 -206.5t-114 -199.5t-157.5 -183.5t-158.5 -151.5t-136.5 -111q-26 -20 -59 -20q-24 0 -58 20zM896 1600q-219 0 -349.5 -142
t-130.5 -380q0 -122 129.5 -298t350.5 -356q221 180 350.5 356t129.5 298q0 238 -130.5 380t-349.5 142z" />
    <glyph glyph-name="user-robot" unicode="user&#x2d;robot" horiz-adv-x="1792" 
d="M832 1088q0 53 -37.5 90.5t-90.5 37.5t-90.5 -37.5t-37.5 -90.5t37.5 -90.5t90.5 -37.5t90.5 37.5t37.5 90.5zM960 1088q0 -53 37.5 -90.5t90.5 -37.5t90.5 37.5t37.5 90.5t-37.5 90.5t-90.5 37.5t-90.5 -37.5t-37.5 -90.5zM960 1536v192q0 26 -19 45t-45 19t-45 -19
t-19 -45v-192h-256q-133 0 -226.5 -93.5t-93.5 -226.5v-384q0 -133 93.5 -226.5t226.5 -93.5h640q133 0 226.5 93.5t93.5 226.5v384q0 133 -93.5 226.5t-226.5 93.5h-256zM1344 1216v-384q0 -53 -37.5 -90.5t-90.5 -37.5v64q0 26 -19 45t-45 19t-45 -19t-19 -45v-64h-128v64
q0 26 -19 45t-45 19t-45 -19t-19 -45v-64h-128v64q0 26 -19 45t-45 19t-45 -19t-19 -45v-64q-53 0 -90.5 37.5t-37.5 90.5v384q0 53 37.5 90.5t90.5 37.5h640q53 0 90.5 -37.5t37.5 -90.5zM192 -256h1408q80 0 136 56t56 136v64q0 161 -112 272.5t-272 111.5h-1024
q-160 0 -272 -111.5t-112 -272.5v-64q0 -80 56 -136t136 -56zM1600 0v-64h-384v128q0 26 -19 45t-45 19t-45 -19t-19 -45v-128h-128v128q0 26 -19 45t-45 19t-45 -19t-19 -45v-128h-128v128q0 26 -19 45t-45 19t-45 -19t-19 -45v-128h-384v64q0 80 56 136t136 56h1024
q80 0 136 -56t56 -136zM128 1216q0 26 -19 45t-45 19t-45 -19t-19 -45v-384q0 -26 19 -45t45 -19t45 19t19 45v384zM1792 832v384q0 26 -19 45t-45 19t-45 -19t-19 -45v-384q0 -26 19 -45t45 -19t45 19t19 45z" />
    <glyph glyph-name="user-visor" unicode="user&#x2d;visor" horiz-adv-x="1792" 
d="M1099 576q141 0 269.5 -55t221 -147.5t147.5 -221t55 -269.5q0 -58 -40.5 -98.5t-98.5 -40.5h-1514q-58 0 -98.5 40.5t-40.5 98.5q0 141 55 269.5t147.5 221t221 147.5t269.5 55h406zM195 -64h1402q-23 190 -165 319t-334 129h-405q-127 0 -236.5 -59t-179 -161.5
t-82.5 -227.5zM420 1094q-44 10 -72 43.5t-28 78.5v192q0 53 37.5 90.5t90.5 37.5h7q67 116 184.5 186t256.5 70t256 -69.5t185 -186.5h7q53 0 90.5 -37.5t37.5 -90.5v-192q0 -45 -29 -78.5t-75 -43.5q-54 -145 -183 -235.5t-289 -90.5t-289.5 90.5t-186.5 235.5zM896 960
q151 0 254 128h-508q45 -59 111.5 -93.5t142.5 -34.5zM896 1600q-105 0 -190 -64h380q-85 64 -190 64zM512 1344v-64h768v64h-768zM1237 314q-3 6 -11 6q-6 0 -11 -5q-106 -115 -127 -298q0 -10 7 -13q9 -3 16 1q103 75 132 82l4 2q22 -19 71 -84q5 -5 12 -5h4q10 3 10 14
q-6 176 -107 300z" />
    <glyph glyph-name="vacuum" unicode="vacuum" horiz-adv-x="2560" 
d="M2560 1312q0 -128 -64 -236t-172 -172q108 -184 108 -392v-512q0 -106 -75 -181t-181 -75h-263q82 82 114 192h149q27 0 45.5 18.5t18.5 45.5v512q0 117 -45.5 223.5t-123 184t-184 123t-223.5 45.5h-64v-576q-99 0 -192 -45v685q0 52 38 90t90 38h128q154 0 295 -58.5
t248 -166.5q91 44 134 134.5t20 188.5t-102 160t-179 62h-842q-101 0 -180 -64t-101 -164l-239 -1116h178q52 0 90 -38t38 -90v-256q0 -52 -38 -90t-90 -38h-832q-27 0 -45.5 18.5t-18.5 45.5v64q0 159 112.5 271.5t271.5 112.5h137l248 1156q35 165 167.5 272.5
t301.5 107.5h842q130 0 240.5 -64.5t175 -175t64.5 -240.5zM832 64h-448q-61 0 -111 -35.5t-70 -92.5h629v128zM1600 384q132 0 226 -94t94 -226t-94 -226t-226 -94t-226 94t-94 226t93.5 226t226.5 94zM1600 0q27 0 45.5 18.5t18.5 45.5t-18.5 45.5t-45.5 18.5t-45.5 -18.5
t-18.5 -45.5t18.5 -45.5t45.5 -18.5z" />
    <glyph glyph-name="vacuum-robot" unicode="vacuum&#x2d;robot" 
d="M557 557l256 -256q19 -19 19 -45t-19 -45t-45 -19t-45 19l-256 256q-19 19 -19 45t19 45t45 19t45 -19zM941 941l256 -252q19 -19 19 -45.5t-19 -45.5q-18 -18 -45 -18q-29 0 -45 15l-256 256q-19 19 -19 45t19 45t45 19t45 -19zM621 877l512 -512q19 -19 19 -45t-19 -45
t-45 -19t-45 19l-512 512q-19 19 -19 45t19 45t45 19t45 -19zM1024 1408q130 0 248.5 -51t204 -136.5t136.5 -204t51 -248.5q0 -128 -48.5 -245t-139.5 -208q-28 -28 -68 -28t-68 28q-28 29 -28 68t28 68q132 132 132 317t-131.5 316.5t-316.5 131.5t-317 -132
q-28 -28 -67.5 -28t-68.5 28t-29 68t29 68q90 91 207 139.5t246 48.5zM1024 1792q209 0 398.5 -81t326.5 -218t218 -326.5t81 -398.5t-81 -398.5t-218 -326.5t-326.5 -218t-398.5 -81t-398.5 81t-326.5 218t-218 326.5t-81 398.5t81 398.5t218 326.5t326.5 218t398.5 81z
M1024 -64q169 0 323 66t265.5 177.5t177.5 265.5t66 323t-66 323t-177.5 265.5t-265.5 177.5t-323 66t-323 -66t-265.5 -177.5t-177.5 -265.5t-66 -323t66 -323t177.5 -265.5t265.5 -177.5t323 -66z" />
    <glyph glyph-name="window-frame" unicode="window&#x2d;frame" 
d="M1952 -64q39 0 67.5 -31t28.5 -69q0 -37 -28.5 -64.5t-67.5 -27.5h-1860q-36 0 -64 31t-28 69q0 37 27.5 64.5t64.5 27.5h36v1728q0 52 38 90t90 38h1536q52 0 90 -38t38 -90v-1728h32zM928 -64v768h-608v-768h608zM928 896v704h-608v-704h608zM1728 -64v768h-608v-768
h608zM1728 896v704h-608v-704h608z" />
    <glyph glyph-name="window-frame-open" unicode="window&#x2d;frame&#x2d;open" 
d="M1952 -64q39 0 67.5 -31t28.5 -69q0 -37 -28.5 -64.5t-67.5 -27.5h-1860q-36 0 -64 31t-28 69q0 37 27.5 64.5t64.5 27.5h36v576h192v-576h1408v576h192v-576h32zM1920 1664v-960h-1792v960q0 52 38 90t90 38h1536q52 0 90 -38t38 -90zM928 896v704h-608v-704h608z
M1728 896v704h-608v-704h608z" />
    <glyph glyph-name="coffin-cross" unicode="coffin&#x2d;cross" horiz-adv-x="1536" 
d="M1498 1331q24 -23 33 -56t1 -66l-348 -1368q-11 -45 -45.5 -71t-80.5 -26h-579q-45 0 -80.5 27t-46.5 70l-348 1368q-18 70 34 122l431 424q39 37 92 37h413q55 0 93 -38zM1010 -64l327 1284l-387 380h-364l-387 -380l327 -1284h484zM864 1312v-160h192q40 0 67.5 -28.5
t24.5 -67.5q0 -40 -28 -68t-68 -28h-192v-480q0 -40 -28 -68t-68 -28q-38 0 -67 29t-29 71v476h-192q-37 0 -64.5 31t-27.5 69q0 37 26.5 64.5t65.5 27.5h192v160q0 39 30 67.5t70 28.5t68 -28t28 -68zM864 1312z" />
    <glyph glyph-name="folder-arrow-down" unicode="folder&#x2d;arrow&#x2d;down" 
d="M1792 1408q106 0 181 -75t75 -181v-1024q0 -106 -75 -181t-181 -75h-1536q-106 0 -181 75t-75 181v1280q0 106 75 181t181 75h470q106 0 181 -75l197 -181h688zM1856 128v1024q0 26 -19 45t-45 19h-768l-253 237q-19 19 -45 19h-470q-26 0 -45 -19t-19 -45v-1280
q0 -26 19 -45t45 -19h1536q26 0 45 19t19 45zM1276 708q29 28 68 28t68 -28q28 -28 28 -68t-28 -68l-320 -320q-28 -28 -68 -28q-39 0 -71 28l-320 320q-29 28 -29 68t29 68t68 28t67 -28l160 -156v408q0 40 28 68t68 28t68 -28t28 -68v-408z" />
    <glyph glyph-name="folder-arrow-up" unicode="folder&#x2d;arrow&#x2d;up" 
d="M1088 1028l324 -320q28 -28 28 -68t-28 -68t-68 -28t-68 28l-156 156v-408q0 -40 -28 -68t-68 -28t-68 28t-28 68v408l-160 -156q-28 -28 -67 -28t-68 28t-29 68t29 68l320 320q29 28 68 28t67 -28zM1792 1408q106 0 181 -75t75 -181v-1024q0 -106 -75 -181t-181 -75
h-1536q-106 0 -181 75t-75 181v1280q0 106 75 181t181 75h470q106 0 181 -75l197 -181h688zM1856 128v1024q0 26 -19 45t-45 19h-768l-253 237q-19 19 -45 19h-470q-26 0 -45 -19t-19 -45v-1280q0 -26 19 -45t45 -19h1536q26 0 45 19t19 45z" />
    <glyph glyph-name="user-unlock" unicode="user&#x2d;unlock" horiz-adv-x="2560" 
d="M896 768q-212 0 -362 150t-150 362t150 362t362 150t362 -150t150 -362t-150 -362t-362 -150zM896 1600q-132 0 -226 -94t-94 -226t94 -226t226 -94t226 94t94 226t-94 226t-226 94zM2368 640q80 0 136 -56t56 -136v-512q0 -80 -56 -136t-136 -56h-768q-80 0 -136 56
t-56 136v512q0 80 56 136t136 56h64v320q0 133 94.5 228t225.5 92q11 0 33 -2q123 -13 205 -111.5t82 -225.5v-45h-192v64q0 52 -38 90t-90 38t-90 -38t-38 -90v-320h512zM1984 64q52 0 90 38t38 90t-38 90t-90 38t-90 -38t-38 -90t38 -90t90 -38zM1280 -64h-1084
q24 190 169 319t339 129h384q97 0 192 -38v102q0 47 16 97q-102 31 -208 31h-384q-143 0 -273.5 -55.5t-225 -150t-150 -225t-55.5 -273.5q0 -53 37.5 -90.5t90.5 -37.5h1218q-66 87 -66 192z" />
    <glyph glyph-name="bacteria" unicode="bacteria" horiz-adv-x="2560" 
d="M764 1280q29 0 46.5 -18.5t17.5 -45.5q0 -26 -19 -45t-45 -19t-45 19t-19 45t19 45t45 19zM444 896q29 0 46.5 -18.5t17.5 -45.5q0 -26 -19 -45t-45 -19q-23 0 -41.5 21.5t-18.5 46.5t17 42.5t43 17.5zM1596 256q29 0 46.5 -16.5t17.5 -43.5q0 -26 -19 -45t-45 -19
q-24 0 -42 20t-18 44q0 25 17 42.5t43 17.5zM2455 867q3 -38 -3 -78q-10 -54 -26 -116l45 -15q28 -10 41 -36.5t3 -54.5t-36.5 -40.5t-54.5 -2.5l-44 15q-39 -92 -92 -175l38 -28q24 -17 28.5 -46t-12.5 -53t-46.5 -28t-53.5 13l-38 28q-61 -74 -139 -141l28 -37
q18 -23 13.5 -53t-28.5 -47t-53 -12.5t-47 27.5l-28 38q-87 -57 -174 -94l15 -44q10 -28 -2.5 -54t-40.5 -36t-54.5 2.5t-36.5 40.5l-16 44q-126 -36 -194 -34l-14 -53q-8 -29 -33.5 -43.5t-53.5 -7.5q-29 8 -43.5 33.5t-7.5 53.5l14 54q-91 47 -139 134l-54 -16
q-29 -8 -55 6t-34 42q-8 29 6 54.5t42 33.5l55 16q-7 101 42 188l-42 38q-22 19 -23.5 48.5t18.5 51.5t50 23t51 -18l42 -38q65 45 137 58q3 1 46 12l-17 36q-12 27 -1 54.5t38 39.5q28 12 55 1t39 -38l16 -37q85 53 141 136l-37 18q-27 13 -37.5 40.5t2.5 53.5
q13 27 41 36.5t54 -2.5l36 -17q13 40 15 56q12 68 51 128l-39 40q-20 21 -19.5 50.5t21.5 49.5q18 17 40 19t36.5 -4.5t23.5 -15.5l40 -40q17 10 34.5 18.5t32.5 13.5t31 9t27 5.5t23 2.5t18.5 0.5t13.5 -0.5h7l14 54q7 27 32 43t55 8q29 -8 43.5 -33.5t7.5 -53.5l-14 -55
q89 -45 139 -133l54 16q27 8 53.5 -5t35.5 -43q8 -29 -6 -54.5t-42 -33.5zM1479 34q201 34 369.5 144t278.5 278t143 368q9 60 -25 108q-35 49 -93 58q-16 2 -25 2q-53 0 -92.5 -34t-48.5 -86q-35 -213 -188 -366t-366 -188q-64 -17 -93 -58q-34 -48 -25 -108
q8 -52 48.5 -86t92.5 -34q8 0 24 2zM1089 886q-27 -12 -54.5 -1t-39.5 38l-16 37q-87 -56 -141 -136l38 -18q27 -13 37 -39.5t-3 -50.5q-13 -29 -41 -39.5t-54 1.5l-36 17q-12 -39 -15 -57q-11 -65 -52 -127l40 -40q20 -21 19.5 -50.5t-21.5 -49.5q-18 -17 -40 -19.5
t-37 4.5t-24 16l-39 40q-17 -10 -34.5 -18.5t-32.5 -13.5t-31 -9t-27 -5.5t-23 -2.5t-18.5 -0.5t-13.5 0.5h-7l-14 -54q-6 -24 -25.5 -38.5t-43.5 -14.5q-41 0 -58.5 30.5t-10.5 58.5l14 55q-89 45 -139 133l-54 -16q-27 -8 -53.5 5t-35.5 43q-8 29 6 54.5t42 33.5l54 16
q-3 39 3 78q12 66 26 116l-45 15q-28 9 -41 35.5t-3 54.5t36.5 41t54.5 3l44 -15q39 92 92 175l-38 28q-24 17 -28 46t13 53t46 28t53 -13l38 -28q61 74 139 141l-28 37q-20 24 -15 52.5t30 46.5q23 17 52.5 13t47.5 -27l28 -38q87 57 174 94l-15 44q-10 28 1.5 54t37.5 36
q30 10 57.5 -2.5t37.5 -40.5l16 -44q126 36 194 34l14 53q8 29 33.5 43.5t53.5 7.5q29 -8 43.5 -33.5t7.5 -53.5l-14 -54q91 -47 139 -134l54 16q29 8 55 -6t34 -42q8 -29 -6 -54.5t-42 -33.5l-55 -16q7 -101 -42 -188l42 -38q22 -19 23.5 -48.5t-18.5 -51.5t-50 -23t-51 18
l-42 38q-65 -45 -137 -58l-45 -12l16 -36q12 -27 1 -54.5t-38 -39.5zM574 664q35 215 187 367t367 187q59 10 93.5 58.5t24.5 107.5q-3 14 -12 33t-27 43t-51.5 36.5t-74.5 5.5q-201 -34 -369.5 -144t-278.5 -278t-143 -368q-9 -60 25 -108q35 -49 93 -58q42 -7 75.5 6
t52 36.5t27.5 43t11 32.5z" />
    <glyph glyph-name="bacterium" unicode="bacterium" horiz-adv-x="2304" 
d="M2172 1380q11 -37 -7.5 -71.5t-56.5 -45.5l-73 -22q10 -134 -57 -250l57 -51q29 -26 30.5 -65t-24.5 -68q-28 -31 -70 -31q-37 0 -64 24l-56 50q-84 -60 -183 -76q-12 -2 -33.5 -8.5t-26.5 -7.5l21 -49q15 -36 0.5 -72t-48.5 -52q-19 -8 -39 -8q-27 0 -51 15t-36 41
l-22 50q-112 -70 -187 -182l50 -23q36 -16 49 -53.5t-4 -72.5q-12 -25 -35.5 -39.5t-50.5 -14.5q-21 0 -40 9l-50 23q-16 -58 -19 -76q-16 -90 -68 -169l52 -54q28 -28 27.5 -67.5t-29.5 -66.5q-27 -27 -66 -27t-68 29l-52 53q-110 -67 -233 -67q-3 0 -8.5 1t-8.5 1l-19 -72
q-8 -32 -34 -51.5t-58 -19.5q-12 0 -24 3q-38 10 -58 43.5t-10 71.5l19 73q-120 61 -185 179l-73 -21q-12 -4 -27 -4q-31 0 -56.5 18.5t-34.5 48.5q-11 37 7.5 72t56.5 46l72 21q-4 60 4 104q13 74 35 154l-60 21q-37 13 -54.5 47.5t-4.5 72.5q13 37 48.5 54t72.5 4l59 -20
q51 122 122 233l-50 37q-32 23 -38 61.5t17 70.5t62 38t71 -17l51 -37q81 99 185 187l-37 50q-24 32 -18.5 70.5t37.5 61.5q31 23 69.5 17.5t64.5 -36.5l37 -50q113 74 232 125l-20 58q-13 37 3.5 72.5t53.5 48.5q39 13 73.5 -4t48.5 -54l21 -59q83 24 169 39q45 8 90 6
l19 71q10 38 44 58t72 10t58 -43.5t10 -71.5l-19 -73q120 -62 185 -178l73 21q37 11 72 -7.5t46 -56.5zM1808 1067q61 85 44 191q-15 91 -87 152.5t-164 61.5q-22 0 -43 -3q-281 -49 -516.5 -203t-389.5 -389t-201 -515q-17 -104 45 -191q61 -86 166 -103q28 -4 42 -4
q93 0 164.5 61.5t87.5 152.5q44 263 233.5 452.5t452.5 233.5q105 17 166 103zM768 640q53 0 88.5 -36.5t35.5 -87.5q0 -50 -37 -87.5t-87 -37.5t-87 37.5t-37 87.5q0 51 35.5 87.5t88.5 36.5zM1088 1056q39 0 65.5 -28t26.5 -68q0 -37 -26.5 -64.5t-65.5 -27.5
q-40 0 -68 28t-28 68q0 37 28.5 64.5t67.5 27.5z" />
    <glyph glyph-name="box-tissue" unicode="box&#x2d;tissue" 
d="M533 512q-34 0 -59.5 21t-33.5 54l-246 1088q-10 45 19 81q28 36 75 36h542q276 0 346 -204q17 -52 63 -84t102 -32h419q50 0 78 -39q29 -40 13 -86l-245 -768q-10 -30 -35.5 -48.5t-56.5 -18.5h-981zM830 1600h-422l202 -896h835l184 576h-288q-118 0 -213.5 68.5
t-133.5 178.5q-4 13 -9.5 21.5t-21.5 22.5t-50 21.5t-83 7.5zM1841 894q87 -7 147 -70.5t60 -151.5v-704q0 -93 -65.5 -158.5t-158.5 -65.5h-1600q-92 0 -158 65.5t-66 158.5v704q0 93 66 158.5t158 65.5h15l43 -192h-58q-14 0 -23 -9t-9 -23v-352h1664v352q0 14 -9 23
t-23 9h-44zM1856 -32v160h-1664v-160q0 -14 9 -23t23 -9h1600q14 0 23 9t9 23z" />
    <glyph glyph-name="hand-holding-medical" unicode="hand&#x2d;holding&#x2d;medical" horiz-adv-x="2304" 
d="M2204 544q50 -40 76 -96.5t24 -118.5q-5 -130 -109 -208l-403 -303q-99 -74 -221 -74h-1475q-40 0 -68 28t-28 68t28 68t68 28h1474q59 0 108 36l402 302q31 23 32.5 60t-28.5 63q-24 19 -56.5 18.5t-57.5 -18.5l-245 -185q-49 -36 -107 -36h-539q-22 0 -38.5 16.5
t-16.5 39.5q0 22 16 38.5t39 16.5h240q34 0 57 16.5t28.5 40.5t0 47.5t-27.5 40t-54 16.5h-576q-112 0 -198 -66l-165 -126h-288q-40 0 -68 28t-28 68t28 67.5t68 27.5h223l113 87q139 106 315 106h576q116 0 195.5 -78.5t77.5 -192.5h13l242 182q43 32 97.5 48t126 5
t129.5 -60zM640 1088q-26 0 -45 19t-19 45v256q0 26 19 45t45 19h256v256q0 26 19 45t45 19h256q26 0 45 -19t19 -45v-256h256q26 0 45 -19t19 -45v-256q0 -26 -19 -45t-45 -19h-256v-256q0 -26 -19 -45t-45 -19h-256q-26 0 -45 19t-19 45v256h-256z" />
    <glyph glyph-name="hand-sparkles" unicode="hand&#x2d;sparkles" horiz-adv-x="2560" 
d="M320 1024q-18 0 -24 18l-83 199l-198 83q-15 8 -15 24q0 12 15 20l198 83l83 198q8 15 24 15t24 -15l83 -198l85 -36v-142l-85 -36l-83 -198q-8 -15 -24 -15zM2556 64q0 -18 -11 -24l-198 -83l-83 -198q-8 -15 -24 -15t-24 15l-83 198l-198 83q-15 8 -15 24t15 24l198 83
l83 198q8 15 24 15q7 0 13 -4.5t7 -10.5l83 -198l199 -83q14 -7 14 -24zM1230 503l50 -119l119 -46q9 -4 9 -14q0 -11 -9 -15l-119 -49l-50 -123q-4 -9 -14 -9q-11 0 -14 12l-50 120l-119 49q-9 4 -9 15q0 8 9 10l119 50l50 119q4 9 14 9q7 0 14 -9zM1896 210q88 143 88 302
v672q0 40 -29 68t-71 28q-40 0 -68 -28t-28 -68v-416q0 -26 -19 -45t-45 -19t-45 19t-19 45v605q0 40 -28 68t-68 28t-68 -28t-28 -68v-609q0 -24 -19 -42t-45 -18q-24 0 -42 19t-18 45v736q0 40 -28 68t-68 28t-68 -28t-28 -68l-7 -740q0 -25 -17 -42.5t-43 -17.5t-45 19
t-19 45v608q0 39 -29.5 67.5t-66.5 28.5t-65 -28.5t-28 -67.5v-806q0 -14 -9.5 -23t-22.5 -9q-12 0 -23 11l-107 114q-38 41 -94 41q-46 0 -85.5 -33t-39.5 -93q0 -56 37 -96l319 -342q91 -98 213.5 -151t255.5 -53h132q222 0 388 153q0 -2 -2 -11t-2 -14q0 -43 24.5 -82
t68.5 -60l9 -4q-212 -174 -486 -174h-132q-173 0 -332 69t-277 196l-325 349q-86 92 -86 218q0 134 94 227t226 93q32 0 68 -6v486q0 120 82.5 204t201.5 84q34 0 74 -10q39 63 104 100.5t142 37.5q76 0 142 -37t107 -100q40 10 75 10q94 0 169 -55t104 -142q20 4 47 4
q117 0 200.5 -84.5t83.5 -203.5v-672v-16q-53 -26 -78 -77l-63 -150z" />
    <glyph glyph-name="hands-bubbles" unicode="hands&#x2d;bubbles" horiz-adv-x="2304" 
d="M2304 1024q0 -111 -69 -197.5t-175 -112.5q11 -39 12 -72q79 -62 99 -160q11 -60 -4 -118.5t-53 -105.5q-21 -24 -42 -41q-1 -65 -30 -119t-74 -89q-2 -93 -62 -167q-81 -98 -208 -98h-676q-120 0 -228 47t-189 131q-41 -80 -117 -129t-168 -49q-132 0 -226 94t-94 226
q0 106 63.5 189.5t162.5 114.5q-95 147 -98 318v369q2 110 82 188.5t192 78.5q12 0 18 -1l77 243q27 86 98 138.5t160 52.5q21 0 31 -1q16 -2 46 -10q70 48 153 48q11 0 31 -2q61 -7 112 -38.5t84 -82.5q14 -21 26 -53q89 -30 141 -109q14 -21 26 -53q89 -30 141 -109
q69 -106 31 -228l-50 -157q14 -31 18 -52h142q-23 59 -23 116q0 77 35 144.5t95 111.5h-2q-106 0 -181 75t-75 181t75 181t181 75t181 -75t75 -181q0 -107 -92 -195q27 3 28 3q132 0 226 -94t94 -226zM1792 1472q26 0 45 19t19 45t-19 45t-45 19t-45 -19t-19 -45t19 -45
t45 -19zM1240 1219l-36 -114q38 11 74 11q47 0 89 -15l23 74q9 28 -0.5 52.5t-30 35.5t-43.5 13.5t-45 -13t-31 -44.5zM1226 1336q15 47 -16 78t-74.5 23.5t-58.5 -56.5l-109 -346q0 -1 -1.5 -2t-1.5 -2l183 56zM320 1053v-367q3 -164 120 -279v23q0 192 113 348t299 218
l80 25q-20 11 -14 29l142 448q15 47 -16.5 78t-75 23.5t-58.5 -56.5l-156 -494q-7 -18 -25 -18q-4 0 -7 1q-10 3 -15.5 12.5t-2.5 20.5l126 397q9 28 -0.5 52.5t-30 35.5t-44 13.5t-45 -13t-30.5 -44.5l-195 -617l-7 163q0 32 -22.5 55t-54.5 23t-56 -22.5t-25 -54.5z
M320 -64q53 0 90.5 37.5t37.5 90.5t-37.5 90.5t-90.5 37.5t-90.5 -37.5t-37.5 -90.5t37.5 -90.5t90.5 -37.5zM1906 352q36 0 60 28.5t17 65.5q-5 27 -28 44.5t-52 17.5h-517q-10 0 -18 8t-8 18t8 18t18 8h416q36 0 60 28.5t17 65.5q-5 27 -28 44.5t-52 17.5h-647l153 56
q31 10 46.5 38t5.5 59q-7 24 -28.5 39.5t-46.5 15.5q-11 0 -23 -3l-350 -108q-124 -41 -200.5 -147t-76.5 -236v-104q0 -161 114.5 -275.5t275.5 -114.5h676q36 0 60 28.5t17 65.5q-5 27 -28 44.5t-52 17.5h-309q-10 0 -18 8t-8 18t8 18t18 8h416q36 0 60 28.5t17 65.5
q-5 27 -28 44.5t-52 17.5h-413q-10 0 -18 8t-8 18t8 18t18 8h520zM1984 896q53 0 90.5 37.5t37.5 90.5t-37.5 90.5t-90.5 37.5t-90.5 -37.5t-37.5 -90.5t37.5 -90.5t90.5 -37.5z" />
    <glyph glyph-name="handshake-simple-slash" unicode="handshake&#x2d;simple&#x2d;slash" horiz-adv-x="2560" 
d="M1387 212l53 64l240 -187q-74 -19 -140 7q-79 -96 -195 -96q-90 0 -164 64q-94 -66 -212 -62.5t-210 77.5l-339 306l-324 -1q-40 0 -68 28t-28 68t28 68t68 28h399l389 -351q48 -39 113.5 -32t107.5 58l63 77l147 -126q17 -13 36 -10q22 3 36 20zM2464 384h-519
q-1 -2 -2 -6t-2 -6l582 -456q32 -25 37 -64t-20 -71t-64 -37t-71 20l-2368 1856q-32 25 -37 64t20 71q29 37 76 37q33 0 59 -20l456 -358q146 122 329 122h670q102 0 195.5 -38.5t165.5 -110.5l106 -106l387 -1q40 0 68 -28t28 -68t-28 -68t-68 -28l-467 1l-194 185
q-75 70 -177 70h-233q-60 0 -108 -43l-244 -223l152 -120l185 170q19 17 45.5 16t44.5 -20l44 -47q18 -20 17 -46.5t-21 -44.5l-162 -148l335 -262h783q40 0 68 -28t28 -68t-28 -68t-68 -28zM888 1197l5 5l152 146h-141q-70 0 -143 -51zM96 1088q-40 0 -68 28t-28 68t28 68
t68 28l64 4l244 -195z" />
    <glyph glyph-name="handshake-slash" unicode="handshake&#x2d;slash" horiz-adv-x="2560" 
d="M2300 256q-51 0 -89 38t-35 90v704h-222q-31 10 -47 33l-1 1q-12 15 -26 31t-55.5 55t-84.5 69t-107.5 59t-128.5 39q-64 11 -115 -40l-294 -300l111 -87l149 156q29 28 68 28t68 -28t29 -68t-29 -68l-136 -136l1165 -913q31 -25 36 -64.5t-20 -70.5t-64.5 -36t-70.5 20
l-2364 1852q-31 25 -36 64.5t20 70.5q29 37 75 37q33 0 59 -20l492 -386q179 148 379 179q67 10 132.5 -9.5t117.5 -63.5q115 93 254 73q86 -13 168 -47.5t144.5 -80t103.5 -82.5t75 -75h535v-1024h-256zM2364 512q-24 0 -44 -18t-20 -42q0 -26 20 -45t44 -19t42.5 19
t18.5 45q0 24 -17.5 42t-43.5 18zM943 1154l198 203q-41 24 -86 18q-129 -20 -253 -111zM1490 175l34 36l234 -184q-74 -22 -140 4q-56 -53 -136 -62q-97 -11 -171 51l-3 4q-65 -45 -150 -54q-24 -2 -35 -2q-116 0 -211 74l-308 279h-243q-38 -65 -109 -65h-252v1023h161
l223 -175v-591h297l359 -325q40 -32 98 -27q58 6 93 50l11 12l63 55l130 -111q12 -9 27 -7q19 3 28 15zM192 384q27 0 45 19t15 45q0 24 -18.5 42t-41.5 18q-24 0 -42 -17t-18 -43q0 -27 17 -45.5t43 -18.5z" />
    <glyph glyph-name="head-side-cough" unicode="head&#x2d;side&#x2d;cough" horiz-adv-x="2560" 
d="M1920 356q40 0 68 -28t28 -68q0 -39 -29.5 -67.5t-66.5 -28.5t-64.5 28.5t-27.5 67.5q0 40 26.5 68t65.5 28zM1909 692q29 -63 -10 -121.5t-111 -58.5h-128l-3 -388q0 -104 -75 -178t-181 -74h-128v-36q0 -37 -27 -64.5t-66 -27.5q-40 0 -68 28t-28 68v224h324
q26 0 45 19t19 45v82l-225 32q-41 6 -68 37.5t-27 72.5t27 72.5t68 37.5l225 32v210h225q-74 200 -80 216q-12 34 -40 113t-44.5 124.5t-38.5 97t-38 73.5q-89 127 -229 199.5t-294 72.5h-141q-168 0 -314.5 -83.5t-221.5 -230.5q-90 -184 -52.5 -373t180.5 -318l60 -57
v-702q0 -37 -26.5 -64.5t-65.5 -27.5q-40 0 -68 28t-28 68v612q-125 113 -193.5 269.5t-61.5 332.5q8 204 119.5 374.5t291 267t384.5 96.5h140q204 0 384 -94t296 -259q43 -61 96.5 -203t109.5 -308t87 -236zM2432 356q40 0 68 -28t28 -68t-28 -68t-68 -28t-68 28t-28 68
t28 68t68 28zM2432 548q-40 0 -68 28t-28 68t28 68t68 28t68 -28t28 -68t-28 -68t-68 -28zM2176 164q40 0 68 -28t28 -68q0 -39 -29.5 -67.5t-66.5 -28.5t-64.5 28.5t-27.5 67.5q0 40 26.5 68t65.5 28zM2176 548q40 0 68 -28t28 -68q0 -39 -29.5 -67.5t-66.5 -28.5
t-64.5 28.5t-27.5 67.5q0 40 26.5 68t65.5 28zM2432 -28q40 0 68 -28t28 -68t-28 -68t-68 -28t-68 28t-28 68t28 68t68 28zM1280 896q-52 0 -90 38t-38 90q0 53 38.5 90.5t93.5 37.5q50 0 87 -38t37 -90t-38 -90t-90 -38z" />
    <glyph glyph-name="head-side-cough-slash" unicode="head&#x2d;side&#x2d;cough&#x2d;slash" horiz-adv-x="2560" 
d="M2523 -84q32 -25 36 -64t-23 -68q-25 -31 -64.5 -36t-70.5 20l-2364 1852q-32 25 -37 64t20 71q29 37 76 37q33 0 59 -20l170 -134q217 154 471 154h140q205 0 385 -95t296 -262q43 -61 96.5 -203.5t109 -308t86.5 -235.5q28 -61 -10 -118.5t-107 -57.5h-30zM1517 704
h180q-74 200 -80 216q-12 34 -40 113t-44.5 124.5t-38.5 97t-38 73.5q-89 127 -229 199.5t-294 72.5h-141q-158 0 -308 -86l676 -530q-8 26 -8 40q0 53 38.5 90.5t93.5 37.5q50 0 87 -38t37 -90t-38 -90t-90 -38q-2 0 -5 1t-5 1zM231 1226q-63 -172 -20.5 -342.5
t173.5 -288.5l60 -57v-702q0 -37 -26.5 -64.5t-65.5 -27.5q-40 0 -68 28t-28 68v612q-125 113 -193.5 269.5t-61.5 332.5q6 155 74 294zM1152 352q0 32 17 59.5t42 40.5l443 -347q-9 -98 -81.5 -165.5t-171.5 -67.5h-128v-36q0 -37 -27 -64.5t-66 -27.5q-40 0 -68 28t-28 68
v224h324q26 0 45 19t19 45v82l-225 32q-41 6 -68 37.5t-27 72.5zM2428 548q-37 0 -64.5 27.5t-27.5 64.5t26.5 64.5t65.5 27.5t67.5 -27.5t28.5 -64.5t-28.5 -64.5t-67.5 -27.5zM2428 164q-38 0 -67 26.5t-29 65.5q0 40 28 68t68 28t68 -26.5t28 -65.5q0 -40 -28 -68
t-68 -28zM2172 356q-38 0 -67 26.5t-29 65.5q0 40 28 68t68 28t68 -26.5t28 -65.5q0 -40 -28 -68t-68 -28z" />
    <glyph glyph-name="head-side-mask" unicode="head&#x2d;side&#x2d;mask" 
d="M1408 1152q53 0 88.5 -37t35.5 -91t-35.5 -91t-88.5 -37t-90.5 37.5t-37.5 90.5t37.5 90.5t90.5 37.5zM2037 692q25 -54 -3 -109l-218 -606q-37 -104 -129 -168.5t-203 -64.5h-460q-53 0 -90.5 37.5t-37.5 90.5v643l-702 477q7 -114 56 -217t134 -179l64 -58v-698
q0 -40 -28 -68t-68 -28t-68 28t-28 68v612q-125 112 -193.5 268t-62.5 331q5 154 71.5 292t173.5 236t250 155.5t298 57.5h271q204 0 384 -94t296 -259q43 -61 96.5 -203t109.5 -308t87 -236zM1758 384l46 128h-716v-576h396q79 0 128 64h-268q-26 0 -45 19t-19 45t19 45
t45 19h322l46 128h-368q-26 0 -45 19t-19 45t19 45t45 19h414zM959 704h866q-36 97 -76 216q-116 345 -161 408q-90 128 -228.5 200t-294.5 72h-271q-171 0 -319 -85.5t-222 -234.5q-17 -35 -31 -76z" />
    <glyph glyph-name="head-side-virus" unicode="head&#x2d;side&#x2d;virus" 
d="M1282 581q-23 0 -40 17l-31 30q-26 26 -60.5 31.5t-63.5 -6.5t-49.5 -40t-20.5 -65v-43q0 -23 -17 -40t-40 -17t-40 17t-17 40v43q0 37 -20.5 65t-49.5 40t-63.5 6.5t-60.5 -31.5l-31 -30q-17 -17 -40 -17t-40 17q-16 16 -16 40t16 40l27 31q26 26 31.5 60.5t-7 63.5
t-40.5 49.5t-65 20.5h-39q-23 0 -40 17t-17 40t17 40t40 17h43q37 0 65 20.5t40 49.5t6.5 63.5t-31.5 60.5l-30 31q-16 16 -16 40t16 40t40 16t40 -16l31 -30q26 -26 60.5 -31.5t63.5 6.5t49.5 40t20.5 65v43q0 23 17 40t40 17t40 -17t17 -40v-39q0 -38 20.5 -67t49.5 -41.5
t63.5 -7.5t60.5 31l31 31q16 16 40 16t40 -16t16 -40t-16 -40l-30 -31q-26 -26 -31.5 -60.5t6.5 -63.5t40 -49.5t65 -20.5h43q23 0 40 -17t17 -40t-17 -40t-40 -17h-43q-37 0 -65 -20.5t-40 -49.5t-6.5 -63.5t31.5 -60.5l30 -31q16 -16 16 -40t-16 -40q-17 -17 -40 -17z
M832 964q27 0 45.5 17.5t18.5 46.5q0 25 -17 42.5t-43 17.5t-45 -19t-19 -45q0 -25 17 -42.5t43 -17.5zM1088 836q27 0 45.5 17.5t18.5 46.5q0 26 -19 45t-45 19t-45 -19t-19 -45t19 -45t45 -19zM2037 692q29 -64 -10.5 -122t-113.5 -58h-128v-260q0 -104 -74 -178t-179 -74
h-128v-164q0 -37 -26.5 -64.5t-65.5 -27.5q-40 0 -68 28t-28 68v352h320q26 0 45 19t19 45v448h225q-74 200 -80 216q-12 34 -40 113t-44.5 124.5t-38.5 97t-38 73.5q-89 127 -229 199.5t-294 72.5h-269q-168 0 -314.5 -83.5t-221.5 -230.5q-90 -184 -52.5 -373t180.5 -318
l60 -57v-702q0 -37 -26.5 -64.5t-65.5 -27.5q-40 0 -68 28t-28 68v613q-126 113 -194 269t-61 332q6 153 73 290.5t175 235.5t252 155t299 57h264q204 0 384 -94t296 -259q43 -61 96.5 -203t109.5 -308t87 -236z" />
    <glyph glyph-name="house-chimney-user" unicode="house&#x2d;chimney&#x2d;user" horiz-adv-x="2304" 
d="M896 896q0 -106 75 -181t181 -75t181 75t75 181t-75 181t-181 75t-181 -75t-75 -181zM704 192q0 -26 19 -45t45 -19h768q26 0 45 19t19 45q0 133 -93.5 226.5t-226.5 93.5h-256q-133 0 -226.5 -93.5t-93.5 -226.5zM1856 1224l-642 545q-27 23 -62 23t-62 -23l-1056 -896
q-30 -26 -33 -65.5t22 -69.5q26 -30 65.5 -33t69.5 22l98 83v-746q0 -133 93.5 -226.5t226.5 -93.5h1152q133 0 226.5 93.5t93.5 226.5v746l98 -83q30 -25 69.5 -22t65.5 33q25 30 22 69.5t-33 65.5l-222 189v506q0 40 -28.5 70t-67.5 30t-67.5 -30t-28.5 -70v-344zM576 -64
q-53 0 -90.5 37.5t-37.5 90.5v909l704 597l704 -597v-909q0 -53 -37.5 -90.5t-90.5 -37.5h-1152z" />
    <glyph glyph-name="house-laptop" unicode="house&#x2d;laptop" horiz-adv-x="2560" 
d="M899 1770l-864 -704q-31 -25 -34.5 -64.5t21.5 -70.5q25 -30 65 -33t70 20l99 80v-646q0 -93 65.5 -158.5t158.5 -65.5h608v192h-608q-14 0 -23 9t-9 23v803l512 417l512 -417v-323h192v166l99 -80q30 -23 70 -20t65 33q23 30 20 70t-33 65l-864 704q-27 22 -61 22
t-61 -22zM1152 928q0 40 -28 68t-68 28h-192q-40 0 -68 -28t-28 -68v-192q0 -40 28 -68t68 -28h192q21 0 43 10q19 62 53 95v183zM1344 704q-53 0 -90.5 -37.5t-37.5 -90.5v-640h-144q-20 0 -34 -14t-14 -34q0 -60 42 -102t102 -42h1248q60 0 102 42t42 102q0 20 -14 34
t-34 14h-144v640q0 53 -37.5 90.5t-90.5 37.5h-896zM1408 512h768v-576h-768v576z" />
    </font>
</defs>
</svg>
